G04*
G04 #@! TF.GenerationSoftware,Altium Limited,Altium Designer,23.9.2 (47)*
G04*
G04 Layer_Physical_Order=2*
G04 Layer_Color=16711680*
%FSLAX44Y44*%
%MOMM*%
G71*
G04*
G04 #@! TF.SameCoordinates,666CD1C4-E099-4A84-9A31-6A8195F5D717*
G04*
G04*
G04 #@! TF.FilePolarity,Positive*
G04*
G01*
G75*
%ADD13C,0.2540*%
%ADD15C,0.6350*%
%ADD18C,1.2700*%
%ADD39O,1.3000X1.6000*%
%ADD43R,1.3000X1.3000*%
%ADD44C,1.3000*%
%ADD54R,4.0000X3.0000*%
%ADD55C,2.5400*%
%ADD56C,5.0800*%
%ADD58C,0.3048*%
%ADD60C,1.8000*%
%ADD61R,1.8000X1.8000*%
G04:AMPARAMS|DCode=62|XSize=1.2192mm|YSize=1.2192mm|CornerRadius=0mm|HoleSize=0mm|Usage=FLASHONLY|Rotation=90.000|XOffset=0mm|YOffset=0mm|HoleType=Round|Shape=Octagon|*
%AMOCTAGOND62*
4,1,8,0.3048,0.6096,-0.3048,0.6096,-0.6096,0.3048,-0.6096,-0.3048,-0.3048,-0.6096,0.3048,-0.6096,0.6096,-0.3048,0.6096,0.3048,0.3048,0.6096,0.0*
%
%ADD62OCTAGOND62*%

%ADD63R,1.0500X1.0500*%
%ADD64C,1.0500*%
G04:AMPARAMS|DCode=65|XSize=7.62mm|YSize=7.62mm|CornerRadius=0mm|HoleSize=0mm|Usage=FLASHONLY|Rotation=0.000|XOffset=0mm|YOffset=0mm|HoleType=Round|Shape=Octagon|*
%AMOCTAGOND65*
4,1,8,3.8100,-1.9050,3.8100,1.9050,1.9050,3.8100,-1.9050,3.8100,-3.8100,1.9050,-3.8100,-1.9050,-1.9050,-3.8100,1.9050,-3.8100,3.8100,-1.9050,0.0*
%
%ADD65OCTAGOND65*%

%ADD66R,3.8100X3.8100*%
%ADD67C,2.0000*%
%ADD68R,2.0000X2.0000*%
G04:AMPARAMS|DCode=69|XSize=2mm|YSize=2mm|CornerRadius=0mm|HoleSize=0mm|Usage=FLASHONLY|Rotation=0.000|XOffset=0mm|YOffset=0mm|HoleType=Round|Shape=Octagon|*
%AMOCTAGOND69*
4,1,8,1.0000,-0.5000,1.0000,0.5000,0.5000,1.0000,-0.5000,1.0000,-1.0000,0.5000,-1.0000,-0.5000,-0.5000,-1.0000,0.5000,-1.0000,1.0000,-0.5000,0.0*
%
%ADD69OCTAGOND69*%

G04:AMPARAMS|DCode=70|XSize=1.2192mm|YSize=1.2192mm|CornerRadius=0mm|HoleSize=0mm|Usage=FLASHONLY|Rotation=0.000|XOffset=0mm|YOffset=0mm|HoleType=Round|Shape=Octagon|*
%AMOCTAGOND70*
4,1,8,0.6096,-0.3048,0.6096,0.3048,0.3048,0.6096,-0.3048,0.6096,-0.6096,0.3048,-0.6096,-0.3048,-0.3048,-0.6096,0.3048,-0.6096,0.6096,-0.3048,0.0*
%
%ADD70OCTAGOND70*%

%ADD71C,1.2192*%
%ADD72C,1.6500*%
%ADD73R,1.5080X1.5080*%
%ADD74C,1.5080*%
%ADD75C,1.1500*%
%ADD76C,1.5000*%
G04:AMPARAMS|DCode=77|XSize=1.5mm|YSize=1.5mm|CornerRadius=0.375mm|HoleSize=0mm|Usage=FLASHONLY|Rotation=0.000|XOffset=0mm|YOffset=0mm|HoleType=Round|Shape=RoundedRectangle|*
%AMROUNDEDRECTD77*
21,1,1.5000,0.7500,0,0,0.0*
21,1,0.7500,1.5000,0,0,0.0*
1,1,0.7500,0.3750,-0.3750*
1,1,0.7500,-0.3750,-0.3750*
1,1,0.7500,-0.3750,0.3750*
1,1,0.7500,0.3750,0.3750*
%
%ADD77ROUNDEDRECTD77*%
%ADD78R,1.5600X1.5600*%
%ADD79C,1.5600*%
%ADD80C,1.5240*%
%ADD81R,1.5240X1.5240*%
%ADD82C,1.9500*%
%ADD83C,3.0000*%
%ADD84C,1.2700*%
%ADD85C,3.8100*%
G36*
X2063750Y24840D02*
X1941305D01*
X1938121Y28024D01*
Y62905D01*
X1937994Y63876D01*
X1937860Y64892D01*
X1937860Y64893D01*
X1937860Y64894D01*
X1937460Y65860D01*
X1937092Y66746D01*
X1937092Y66747D01*
X1937092Y66747D01*
X1936406Y67641D01*
X1935871Y68338D01*
X1935871Y68339D01*
X1935870Y68339D01*
X1935017Y68994D01*
X1934280Y69560D01*
X1934279Y69560D01*
X1934279Y69561D01*
X1933303Y69965D01*
X1932426Y70328D01*
X1932426Y70328D01*
X1932425Y70328D01*
X1931410Y70462D01*
X1930437Y70590D01*
X1727202Y70626D01*
X1727201Y70626D01*
X1727200Y70626D01*
X1726229Y70498D01*
X1725212Y70364D01*
X1725212Y70364D01*
X1725211Y70364D01*
X1724336Y70002D01*
X1723359Y69597D01*
X1723358Y69597D01*
X1723357Y69596D01*
X1722588Y69006D01*
X1721767Y68376D01*
X1721766Y68375D01*
X1721766Y68375D01*
X1720435Y67045D01*
X1719214Y65453D01*
X1718446Y63599D01*
X1718184Y61610D01*
Y27253D01*
X1715771Y24840D01*
X1679083D01*
X1678557Y26110D01*
X1682573Y30127D01*
X1686231Y35161D01*
X1689055Y40705D01*
X1690978Y46623D01*
X1691952Y52769D01*
Y58991D01*
X1690978Y65137D01*
X1689055Y71055D01*
X1686231Y76599D01*
X1682573Y81633D01*
X1678173Y86033D01*
X1673139Y89691D01*
X1667595Y92516D01*
X1661677Y94439D01*
X1655531Y95412D01*
X1649308D01*
X1643163Y94439D01*
X1637245Y92516D01*
X1631700Y89691D01*
X1626666Y86033D01*
X1622267Y81633D01*
X1618609Y76599D01*
X1615784Y71055D01*
X1613861Y65137D01*
X1612888Y58991D01*
Y52769D01*
X1613861Y46623D01*
X1615784Y40705D01*
X1618609Y35161D01*
X1622267Y30127D01*
X1626283Y26110D01*
X1625757Y24840D01*
X788663D01*
X788137Y26110D01*
X792153Y30127D01*
X795811Y35161D01*
X798636Y40705D01*
X800559Y46623D01*
X801532Y52769D01*
Y58991D01*
X800559Y65137D01*
X798636Y71055D01*
X795811Y76599D01*
X792153Y81633D01*
X787753Y86033D01*
X782719Y89691D01*
X777175Y92516D01*
X771257Y94439D01*
X765111Y95412D01*
X758889D01*
X752743Y94439D01*
X746825Y92516D01*
X741281Y89691D01*
X736247Y86033D01*
X731847Y81633D01*
X728189Y76599D01*
X725364Y71055D01*
X723441Y65137D01*
X722468Y58991D01*
Y52769D01*
X723441Y46623D01*
X725364Y40705D01*
X728189Y35161D01*
X731847Y30127D01*
X735863Y26110D01*
X735337Y24840D01*
X481329D01*
X477586Y28583D01*
Y62940D01*
X477324Y64929D01*
X476556Y66783D01*
X475335Y68375D01*
X473743Y69596D01*
X471889Y70364D01*
X469900Y70626D01*
X254000D01*
X252011Y70364D01*
X250157Y69596D01*
X248566Y68375D01*
X248006Y67815D01*
X246784Y66223D01*
X246017Y64369D01*
X245755Y62380D01*
Y28024D01*
X242571Y24840D01*
X8724D01*
X7686Y26110D01*
X7686Y157085D01*
X36352D01*
X38100Y156855D01*
X40089Y157117D01*
X41943Y157885D01*
X43535Y159106D01*
X44756Y160698D01*
X45524Y162551D01*
X45786Y164541D01*
Y342340D01*
X45524Y344329D01*
X44756Y346183D01*
X43535Y347775D01*
X41943Y348996D01*
X40089Y349764D01*
X38100Y350026D01*
X7686D01*
Y637540D01*
X510117D01*
X510603Y636367D01*
X502384Y628148D01*
X498322Y632210D01*
X496571Y633554D01*
X495727Y633904D01*
X494532Y634398D01*
X492344Y634686D01*
X253344D01*
X251156Y634398D01*
X249117Y633554D01*
X247366Y632210D01*
X235038Y619882D01*
X234331D01*
X231716Y619181D01*
X229371Y617828D01*
X227457Y615913D01*
X226103Y613569D01*
X225402Y610954D01*
Y608246D01*
X226103Y605631D01*
X227457Y603287D01*
X229371Y601372D01*
X230375Y600793D01*
Y541556D01*
X230375Y541556D01*
X230779Y539524D01*
X231930Y537802D01*
X261112Y508620D01*
Y506930D01*
X261666Y504863D01*
X262736Y503009D01*
X264249Y501496D01*
X266103Y500426D01*
X268170Y499872D01*
X270310D01*
X272377Y500426D01*
X274231Y501496D01*
X275744Y503009D01*
X276814Y504863D01*
X277368Y506930D01*
Y509070D01*
X276814Y511137D01*
X275744Y512991D01*
X274231Y514504D01*
X272377Y515574D01*
X270310Y516128D01*
X268620D01*
X240993Y543755D01*
Y600793D01*
X241998Y601372D01*
X243912Y603287D01*
X245266Y605631D01*
X245473Y606404D01*
X256488Y617420D01*
X257085Y617338D01*
X257538Y615995D01*
X257457Y615913D01*
X256103Y613569D01*
X255402Y610954D01*
Y608246D01*
X256103Y605631D01*
X257457Y603287D01*
X259371Y601372D01*
X261716Y600019D01*
X264331Y599318D01*
X267038D01*
X269653Y600019D01*
X271998Y601372D01*
X273912Y603287D01*
X275266Y605631D01*
X275966Y608246D01*
Y610954D01*
X275266Y613569D01*
X273912Y615913D01*
X273221Y616604D01*
X273707Y617778D01*
X315213D01*
X315380Y616508D01*
X314925Y616386D01*
X313265Y615427D01*
X311909Y614071D01*
X310950Y612411D01*
X310454Y610559D01*
Y608641D01*
X310950Y606789D01*
X311909Y605129D01*
X312998Y604040D01*
X313158Y603250D01*
X312998Y602460D01*
X311909Y601371D01*
X310950Y599711D01*
X310454Y597859D01*
Y595941D01*
X310950Y594089D01*
X311429Y593260D01*
X310695Y591990D01*
X309946D01*
Y585470D01*
X317736D01*
X325526D01*
Y591990D01*
X324776D01*
X324043Y593260D01*
X324521Y594089D01*
X325018Y595941D01*
Y597859D01*
X324521Y599711D01*
X323563Y601371D01*
X322474Y602460D01*
X322313Y603250D01*
X322474Y604040D01*
X323563Y605129D01*
X324521Y606789D01*
X325018Y608641D01*
Y610559D01*
X324521Y612411D01*
X323563Y614071D01*
X322207Y615427D01*
X320546Y616386D01*
X320092Y616508D01*
X320259Y617778D01*
X488842D01*
X492596Y614024D01*
X492803Y613251D01*
X494157Y610907D01*
X496071Y608992D01*
X498416Y607639D01*
X501031Y606938D01*
X503738D01*
X506353Y607639D01*
X508698Y608992D01*
X510612Y610907D01*
X511965Y613251D01*
X512173Y614024D01*
X523188Y625039D01*
X523785Y624958D01*
X524238Y623615D01*
X524157Y623533D01*
X522803Y621189D01*
X522102Y618574D01*
Y615866D01*
X522803Y613251D01*
X524157Y610907D01*
X526071Y608992D01*
X528416Y607639D01*
X531031Y606938D01*
X533738D01*
X536353Y607639D01*
X538698Y608992D01*
X540612Y610907D01*
X541965Y613251D01*
X542666Y615866D01*
Y618574D01*
X541965Y621189D01*
X540612Y623533D01*
X539921Y624224D01*
X540407Y625398D01*
X578121D01*
X578288Y624128D01*
X577834Y624006D01*
X576173Y623047D01*
X574817Y621691D01*
X573858Y620031D01*
X573362Y618179D01*
Y616261D01*
X573858Y614409D01*
X574817Y612749D01*
X575906Y611660D01*
X576067Y610870D01*
X575906Y610080D01*
X574817Y608991D01*
X573858Y607331D01*
X573362Y605479D01*
Y603561D01*
X573858Y601709D01*
X574337Y600880D01*
X573604Y599610D01*
X572854D01*
Y593090D01*
X580644D01*
X588434D01*
Y599610D01*
X587685D01*
X586951Y600880D01*
X587430Y601709D01*
X587926Y603561D01*
Y605479D01*
X587430Y607331D01*
X586471Y608991D01*
X585382Y610080D01*
X585222Y610870D01*
X585382Y611660D01*
X586471Y612749D01*
X587430Y614409D01*
X587926Y616261D01*
Y618179D01*
X587430Y620031D01*
X586471Y621691D01*
X585116Y623047D01*
X583455Y624006D01*
X583000Y624128D01*
X583167Y625398D01*
X830295D01*
X855504Y600188D01*
X856087Y598011D01*
X857441Y595667D01*
X859355Y593752D01*
X861700Y592399D01*
X864315Y591698D01*
X867022D01*
X869637Y592399D01*
X871982Y593752D01*
X873896Y595667D01*
X875250Y598011D01*
X875951Y600626D01*
Y603334D01*
X875250Y605949D01*
X873896Y608293D01*
X871982Y610208D01*
X869637Y611561D01*
X867460Y612145D01*
X855380Y624224D01*
X855866Y625398D01*
X1223228D01*
X1253965Y594660D01*
X1153837Y494532D01*
X1147144D01*
X1141128Y488516D01*
Y476484D01*
X1147144Y470468D01*
X1153236D01*
X1212395Y411309D01*
X1214146Y409965D01*
X1216185Y409121D01*
X1218373Y408833D01*
X1225086D01*
X1225587Y408332D01*
X1227931Y406979D01*
X1230546Y406278D01*
X1233254D01*
X1235869Y406979D01*
X1238213Y408332D01*
X1240128Y410247D01*
X1241481Y412591D01*
X1242182Y415206D01*
Y417914D01*
X1241481Y420529D01*
X1240128Y422873D01*
X1238213Y424788D01*
X1235869Y426141D01*
X1233254Y426842D01*
X1230546D01*
X1227931Y426141D01*
X1227239Y425741D01*
X1221875D01*
X1165417Y482200D01*
X1267295Y584078D01*
X1267575D01*
X1270190Y584779D01*
X1272535Y586132D01*
X1274449Y588047D01*
X1275803Y590391D01*
X1276504Y593006D01*
Y595418D01*
X1285498Y604413D01*
X1290530D01*
X1290870Y603143D01*
X1289908Y602588D01*
X1287994Y600673D01*
X1286640Y598329D01*
X1285940Y595714D01*
Y593006D01*
X1286640Y590391D01*
X1287994Y588047D01*
X1289908Y586132D01*
X1292253Y584779D01*
X1294868Y584078D01*
X1297575D01*
X1300190Y584779D01*
X1302535Y586132D01*
X1304449Y588047D01*
X1305803Y590391D01*
X1306504Y593006D01*
Y595714D01*
X1305803Y598329D01*
X1304449Y600673D01*
X1302535Y602588D01*
X1301573Y603143D01*
X1301913Y604413D01*
X1396525D01*
X1405532Y595406D01*
X1407254Y594255D01*
X1409286Y593851D01*
X1512163D01*
X1513681Y592333D01*
X1515627Y591209D01*
X1517797Y590628D01*
X1520043D01*
X1522213Y591209D01*
X1524159Y592333D01*
X1525677Y593851D01*
X1634742D01*
X1673267Y555326D01*
X1672829Y553692D01*
Y550788D01*
X1673581Y547982D01*
X1675033Y545466D01*
X1677087Y543412D01*
X1679603Y541960D01*
X1682408Y541208D01*
X1685313D01*
X1688119Y541960D01*
X1690635Y543412D01*
X1692689Y545466D01*
X1694141Y547982D01*
X1694893Y550788D01*
Y553692D01*
X1694141Y556498D01*
X1692689Y559014D01*
X1690635Y561068D01*
X1688119Y562520D01*
X1685313Y563272D01*
X1682408D01*
X1680775Y562834D01*
X1640695Y602914D01*
X1638973Y604065D01*
X1636941Y604469D01*
X1636941Y604469D01*
X1525677D01*
X1524159Y605987D01*
X1522213Y607110D01*
X1520043Y607692D01*
X1517797D01*
X1515627Y607110D01*
X1513681Y605987D01*
X1512163Y604469D01*
X1411485D01*
X1402478Y613476D01*
X1400756Y614627D01*
X1398724Y615031D01*
X1398724Y615031D01*
X1283299D01*
X1283299Y615031D01*
X1281268Y614627D01*
X1279545Y613476D01*
X1279545Y613476D01*
X1270049Y603979D01*
X1268013Y604525D01*
X1236171Y636367D01*
X1236657Y637540D01*
X1674947D01*
X1674957Y637523D01*
X1675528Y636270D01*
X1674614Y633259D01*
X1674286Y629920D01*
X1674614Y626581D01*
X1675588Y623371D01*
X1677170Y620412D01*
X1679298Y617818D01*
X1681892Y615690D01*
X1684851Y614108D01*
X1688061Y613134D01*
X1691400Y612806D01*
X1915400D01*
X1918739Y613134D01*
X1921949Y614108D01*
X1924908Y615690D01*
X1927502Y617818D01*
X1929630Y620412D01*
X1931212Y623371D01*
X1932186Y626581D01*
X1932514Y629920D01*
X1932186Y633259D01*
X1931272Y636270D01*
X1931843Y637523D01*
X1931853Y637540D01*
X2063750D01*
Y24840D01*
D02*
G37*
%LPC*%
G36*
X897022Y612262D02*
X894315D01*
X891700Y611561D01*
X889355Y610208D01*
X887441Y608293D01*
X886087Y605949D01*
X885387Y603334D01*
Y600626D01*
X886087Y598011D01*
X887441Y595667D01*
X889355Y593752D01*
X891700Y592399D01*
X894315Y591698D01*
X897022D01*
X899637Y592399D01*
X901982Y593752D01*
X903896Y595667D01*
X905250Y598011D01*
X905951Y600626D01*
Y603334D01*
X905250Y605949D01*
X903896Y608293D01*
X901982Y610208D01*
X899637Y611561D01*
X897022Y612262D01*
D02*
G37*
G36*
X588434Y590550D02*
X581914D01*
Y584030D01*
X588434D01*
Y590550D01*
D02*
G37*
G36*
X579374D02*
X572854D01*
Y584030D01*
X579374D01*
Y590550D01*
D02*
G37*
G36*
X961079Y609262D02*
X959161D01*
X957309Y608766D01*
X955649Y607807D01*
X954293Y606451D01*
X953334Y604791D01*
X952838Y602939D01*
Y601021D01*
X953334Y599169D01*
X954293Y597509D01*
X955382Y596420D01*
X955543Y595630D01*
X955382Y594840D01*
X954293Y593751D01*
X953334Y592091D01*
X952838Y590239D01*
Y588321D01*
X953334Y586469D01*
X953813Y585640D01*
X953080Y584370D01*
X952330D01*
Y577850D01*
X960120D01*
X967910D01*
Y584370D01*
X967160D01*
X966427Y585640D01*
X966906Y586469D01*
X967402Y588321D01*
Y590239D01*
X966906Y592091D01*
X965947Y593751D01*
X964858Y594840D01*
X964697Y595630D01*
X964858Y596420D01*
X965947Y597509D01*
X966906Y599169D01*
X967402Y601021D01*
Y602939D01*
X966906Y604791D01*
X965947Y606451D01*
X964591Y607807D01*
X962931Y608766D01*
X961079Y609262D01*
D02*
G37*
G36*
X325526Y582930D02*
X319006D01*
Y576410D01*
X325526D01*
Y582930D01*
D02*
G37*
G36*
X316466D02*
X309946D01*
Y576410D01*
X316466D01*
Y582930D01*
D02*
G37*
G36*
X1354779Y601642D02*
X1352861D01*
X1351009Y601146D01*
X1349349Y600187D01*
X1347993Y598831D01*
X1347034Y597171D01*
X1346538Y595319D01*
Y593401D01*
X1347034Y591549D01*
X1347993Y589889D01*
X1349082Y588800D01*
X1349243Y588010D01*
X1349082Y587220D01*
X1347993Y586131D01*
X1347034Y584471D01*
X1346538Y582619D01*
Y580701D01*
X1347034Y578849D01*
X1347513Y578020D01*
X1346780Y576750D01*
X1346030D01*
Y570230D01*
X1353820D01*
X1361610D01*
Y576750D01*
X1360860D01*
X1360127Y578020D01*
X1360606Y578849D01*
X1361102Y580701D01*
Y582619D01*
X1360606Y584471D01*
X1359647Y586131D01*
X1358558Y587220D01*
X1358398Y588010D01*
X1358558Y588800D01*
X1359647Y589889D01*
X1360606Y591549D01*
X1361102Y593401D01*
Y595319D01*
X1360606Y597171D01*
X1359647Y598831D01*
X1358291Y600187D01*
X1356631Y601146D01*
X1354779Y601642D01*
D02*
G37*
G36*
X967910Y575310D02*
X961390D01*
Y568790D01*
X967910D01*
Y575310D01*
D02*
G37*
G36*
X958850D02*
X952330D01*
Y568790D01*
X958850D01*
Y575310D01*
D02*
G37*
G36*
X263398Y575056D02*
X260350D01*
Y567690D01*
X267716D01*
Y570738D01*
X263398Y575056D01*
D02*
G37*
G36*
X257810D02*
X254762D01*
X250444Y570738D01*
Y567690D01*
X257810D01*
Y575056D01*
D02*
G37*
G36*
X1527960Y573200D02*
X1520190D01*
Y565430D01*
X1527960D01*
Y573200D01*
D02*
G37*
G36*
X1517650D02*
X1509880D01*
Y565430D01*
X1517650D01*
Y573200D01*
D02*
G37*
G36*
X1361610Y567690D02*
X1355090D01*
Y561170D01*
X1361610D01*
Y567690D01*
D02*
G37*
G36*
X1352550D02*
X1346030D01*
Y561170D01*
X1352550D01*
Y567690D01*
D02*
G37*
G36*
X161544Y574548D02*
X153416D01*
X149352Y570484D01*
Y562356D01*
X153416Y558292D01*
X161544D01*
X165608Y562356D01*
Y570484D01*
X161544Y574548D01*
D02*
G37*
G36*
X267716Y565150D02*
X260350D01*
Y557784D01*
X263398D01*
X267716Y562102D01*
Y565150D01*
D02*
G37*
G36*
X257810D02*
X250444D01*
Y562102D01*
X254762Y557784D01*
X257810D01*
Y565150D01*
D02*
G37*
G36*
X1527960Y562890D02*
X1520190D01*
Y555120D01*
X1527960D01*
Y562890D01*
D02*
G37*
G36*
X1517650D02*
X1509880D01*
Y555120D01*
X1517650D01*
Y562890D01*
D02*
G37*
G36*
X1605380Y563780D02*
X1605131D01*
Y553510D01*
X1615401D01*
Y553759D01*
X1614614Y556694D01*
X1613095Y559326D01*
X1610947Y561474D01*
X1608315Y562994D01*
X1605380Y563780D01*
D02*
G37*
G36*
X1602591D02*
X1602342D01*
X1599407Y562994D01*
X1596775Y561474D01*
X1594627Y559326D01*
X1593107Y556694D01*
X1592321Y553759D01*
Y553510D01*
X1602591D01*
Y563780D01*
D02*
G37*
G36*
X1901444Y561848D02*
X1893316D01*
X1889252Y557784D01*
Y549656D01*
X1893316Y545592D01*
X1901444D01*
X1905508Y549656D01*
Y557784D01*
X1901444Y561848D01*
D02*
G37*
G36*
X1870964D02*
X1862836D01*
X1858772Y557784D01*
Y549656D01*
X1862836Y545592D01*
X1870964D01*
X1875028Y549656D01*
Y557784D01*
X1870964Y561848D01*
D02*
G37*
G36*
X587248D02*
X579120D01*
X575056Y557784D01*
Y549656D01*
X579120Y545592D01*
X587248D01*
X591312Y549656D01*
Y557784D01*
X587248Y561848D01*
D02*
G37*
G36*
X485648D02*
X477520D01*
X473456Y557784D01*
Y549656D01*
X477520Y545592D01*
X485648D01*
X489712Y549656D01*
Y557784D01*
X485648Y561848D01*
D02*
G37*
G36*
X1615401Y550970D02*
X1605131D01*
Y540700D01*
X1605380D01*
X1608315Y541487D01*
X1610947Y543006D01*
X1613095Y545154D01*
X1614614Y547786D01*
X1615401Y550721D01*
Y550970D01*
D02*
G37*
G36*
X1602591D02*
X1592321D01*
Y550721D01*
X1593107Y547786D01*
X1594627Y545154D01*
X1596775Y543006D01*
X1599407Y541487D01*
X1602342Y540700D01*
X1602591D01*
Y550970D01*
D02*
G37*
G36*
X2009711Y611032D02*
X2003489D01*
X1997343Y610059D01*
X1991425Y608136D01*
X1985881Y605311D01*
X1980847Y601653D01*
X1976447Y597253D01*
X1972789Y592219D01*
X1969964Y586675D01*
X1968041Y580757D01*
X1967068Y574611D01*
Y568389D01*
X1968041Y562243D01*
X1969964Y556325D01*
X1972789Y550781D01*
X1976447Y545747D01*
X1980847Y541347D01*
X1985881Y537689D01*
X1991425Y534864D01*
X1997343Y532941D01*
X2003489Y531968D01*
X2009711D01*
X2015857Y532941D01*
X2021775Y534864D01*
X2027319Y537689D01*
X2032353Y541347D01*
X2036753Y545747D01*
X2040411Y550781D01*
X2043236Y556325D01*
X2045159Y562243D01*
X2046132Y568389D01*
Y574611D01*
X2045159Y580757D01*
X2043236Y586675D01*
X2040411Y592219D01*
X2036753Y597253D01*
X2032353Y601653D01*
X2027319Y605311D01*
X2021775Y608136D01*
X2015857Y610059D01*
X2009711Y611032D01*
D02*
G37*
G36*
X1158811D02*
X1152589D01*
X1146443Y610059D01*
X1140525Y608136D01*
X1134981Y605311D01*
X1129947Y601653D01*
X1125547Y597253D01*
X1121889Y592219D01*
X1119064Y586675D01*
X1117141Y580757D01*
X1116168Y574611D01*
Y568389D01*
X1117141Y562243D01*
X1119064Y556325D01*
X1121889Y550781D01*
X1125547Y545747D01*
X1129947Y541347D01*
X1134981Y537689D01*
X1140525Y534864D01*
X1146443Y532941D01*
X1152589Y531968D01*
X1158811D01*
X1164957Y532941D01*
X1170875Y534864D01*
X1176419Y537689D01*
X1181453Y541347D01*
X1185853Y545747D01*
X1189511Y550781D01*
X1192336Y556325D01*
X1194259Y562243D01*
X1195232Y568389D01*
Y574611D01*
X1194259Y580757D01*
X1192336Y586675D01*
X1189511Y592219D01*
X1185853Y597253D01*
X1181453Y601653D01*
X1176419Y605311D01*
X1170875Y608136D01*
X1164957Y610059D01*
X1158811Y611032D01*
D02*
G37*
G36*
X777811D02*
X771589D01*
X765443Y610059D01*
X759525Y608136D01*
X753981Y605311D01*
X748947Y601653D01*
X744547Y597253D01*
X740889Y592219D01*
X738064Y586675D01*
X736141Y580757D01*
X735168Y574611D01*
Y568389D01*
X736141Y562243D01*
X738064Y556325D01*
X740889Y550781D01*
X744547Y545747D01*
X748947Y541347D01*
X753981Y537689D01*
X759525Y534864D01*
X765443Y532941D01*
X771589Y531968D01*
X777811D01*
X783957Y532941D01*
X789875Y534864D01*
X795419Y537689D01*
X800453Y541347D01*
X804853Y545747D01*
X808511Y550781D01*
X811336Y556325D01*
X813259Y562243D01*
X814232Y568389D01*
Y574611D01*
X813259Y580757D01*
X811336Y586675D01*
X808511Y592219D01*
X804853Y597253D01*
X800453Y601653D01*
X795419Y605311D01*
X789875Y608136D01*
X783957Y610059D01*
X777811Y611032D01*
D02*
G37*
G36*
X79311D02*
X73089D01*
X66943Y610059D01*
X61025Y608136D01*
X55481Y605311D01*
X50447Y601653D01*
X46047Y597253D01*
X42389Y592219D01*
X39564Y586675D01*
X37641Y580757D01*
X36668Y574611D01*
Y568389D01*
X37641Y562243D01*
X39564Y556325D01*
X42389Y550781D01*
X46047Y545747D01*
X50447Y541347D01*
X55481Y537689D01*
X61025Y534864D01*
X66943Y532941D01*
X73089Y531968D01*
X79311D01*
X85457Y532941D01*
X91375Y534864D01*
X96919Y537689D01*
X101953Y541347D01*
X106353Y545747D01*
X110011Y550781D01*
X112836Y556325D01*
X114759Y562243D01*
X115732Y568389D01*
Y574611D01*
X114759Y580757D01*
X112836Y586675D01*
X110011Y592219D01*
X106353Y597253D01*
X101953Y601653D01*
X96919Y605311D01*
X91375Y608136D01*
X85457Y610059D01*
X79311Y611032D01*
D02*
G37*
G36*
X979424Y546608D02*
X971296D01*
X967232Y542544D01*
Y534416D01*
X971296Y530352D01*
X979424D01*
X983488Y534416D01*
Y542544D01*
X979424Y546608D01*
D02*
G37*
G36*
X877824D02*
X869696D01*
X865632Y542544D01*
Y534416D01*
X869696Y530352D01*
X877824D01*
X881888Y534416D01*
Y542544D01*
X877824Y546608D01*
D02*
G37*
G36*
X1351086Y533908D02*
X1342958D01*
X1338894Y529844D01*
Y521716D01*
X1342958Y517652D01*
X1351086D01*
X1355150Y521716D01*
Y529844D01*
X1351086Y533908D01*
D02*
G37*
G36*
X1249486D02*
X1241358D01*
X1237294Y529844D01*
Y521716D01*
X1241358Y517652D01*
X1249486D01*
X1253550Y521716D01*
Y529844D01*
X1249486Y533908D01*
D02*
G37*
G36*
X587248Y528828D02*
X579120D01*
X575056Y524764D01*
Y516636D01*
X579120Y512572D01*
X587248D01*
X591312Y516636D01*
Y524764D01*
X587248Y528828D01*
D02*
G37*
G36*
X485648D02*
X477520D01*
X473456Y524764D01*
Y516636D01*
X477520Y512572D01*
X485648D01*
X489712Y516636D01*
Y524764D01*
X485648Y528828D01*
D02*
G37*
G36*
X1451410Y516128D02*
X1449270D01*
X1447203Y515574D01*
X1445349Y514504D01*
X1443836Y512991D01*
X1442766Y511137D01*
X1442212Y509070D01*
Y506930D01*
X1442766Y504863D01*
X1443836Y503009D01*
X1445349Y501496D01*
X1447203Y500426D01*
X1449270Y499872D01*
X1451410D01*
X1453477Y500426D01*
X1455331Y501496D01*
X1456844Y503009D01*
X1457914Y504863D01*
X1458468Y506930D01*
Y509070D01*
X1457914Y511137D01*
X1456844Y512991D01*
X1455331Y514504D01*
X1453477Y515574D01*
X1451410Y516128D01*
D02*
G37*
G36*
X1065330D02*
X1063190D01*
X1061123Y515574D01*
X1059269Y514504D01*
X1057756Y512991D01*
X1056686Y511137D01*
X1056132Y509070D01*
Y506930D01*
X1056686Y504863D01*
X1057756Y503009D01*
X1059269Y501496D01*
X1061123Y500426D01*
X1063190Y499872D01*
X1065330D01*
X1067397Y500426D01*
X1069251Y501496D01*
X1070764Y503009D01*
X1071834Y504863D01*
X1072388Y506930D01*
Y509070D01*
X1071834Y511137D01*
X1070764Y512991D01*
X1069251Y514504D01*
X1067397Y515574D01*
X1065330Y516128D01*
D02*
G37*
G36*
X1039930D02*
X1037790D01*
X1035723Y515574D01*
X1033869Y514504D01*
X1032356Y512991D01*
X1031286Y511137D01*
X1030732Y509070D01*
Y506930D01*
X1031286Y504863D01*
X1032356Y503009D01*
X1033869Y501496D01*
X1035723Y500426D01*
X1037790Y499872D01*
X1039930D01*
X1041997Y500426D01*
X1043851Y501496D01*
X1045364Y503009D01*
X1046434Y504863D01*
X1046988Y506930D01*
Y509070D01*
X1046434Y511137D01*
X1045364Y512991D01*
X1043851Y514504D01*
X1041997Y515574D01*
X1039930Y516128D01*
D02*
G37*
G36*
X679250D02*
X677110D01*
X675043Y515574D01*
X673189Y514504D01*
X671676Y512991D01*
X670606Y511137D01*
X670052Y509070D01*
Y506930D01*
X670606Y504863D01*
X671676Y503009D01*
X673189Y501496D01*
X675043Y500426D01*
X677110Y499872D01*
X679250D01*
X681317Y500426D01*
X683171Y501496D01*
X684684Y503009D01*
X685754Y504863D01*
X686308Y506930D01*
Y509070D01*
X685754Y511137D01*
X684684Y512991D01*
X683171Y514504D01*
X681317Y515574D01*
X679250Y516128D01*
D02*
G37*
G36*
X653850D02*
X651710D01*
X649643Y515574D01*
X647789Y514504D01*
X646276Y512991D01*
X645206Y511137D01*
X644652Y509070D01*
Y506930D01*
X645206Y504863D01*
X646276Y503009D01*
X647789Y501496D01*
X649643Y500426D01*
X651710Y499872D01*
X653850D01*
X655917Y500426D01*
X657771Y501496D01*
X659284Y503009D01*
X660354Y504863D01*
X660908Y506930D01*
Y509070D01*
X660354Y511137D01*
X659284Y512991D01*
X657771Y514504D01*
X655917Y515574D01*
X653850Y516128D01*
D02*
G37*
G36*
X295710D02*
X293570D01*
X291503Y515574D01*
X289649Y514504D01*
X288136Y512991D01*
X287066Y511137D01*
X286512Y509070D01*
Y506930D01*
X287066Y504863D01*
X288136Y503009D01*
X289649Y501496D01*
X291503Y500426D01*
X293570Y499872D01*
X295710D01*
X297777Y500426D01*
X299631Y501496D01*
X301144Y503009D01*
X302214Y504863D01*
X302768Y506930D01*
Y509070D01*
X302214Y511137D01*
X301144Y512991D01*
X299631Y514504D01*
X297777Y515574D01*
X295710Y516128D01*
D02*
G37*
G36*
X979424Y508508D02*
X971296D01*
X967232Y504444D01*
Y496316D01*
X971296Y492252D01*
X979424D01*
X983488Y496316D01*
Y504444D01*
X979424Y508508D01*
D02*
G37*
G36*
X877824D02*
X869696D01*
X865632Y504444D01*
Y496316D01*
X869696Y492252D01*
X877824D01*
X881888Y496316D01*
Y504444D01*
X877824Y508508D01*
D02*
G37*
G36*
X837184D02*
X829056D01*
X824992Y504444D01*
Y496316D01*
X829056Y492252D01*
X837184D01*
X841248Y496316D01*
Y504444D01*
X837184Y508508D01*
D02*
G37*
G36*
X735584D02*
X727456D01*
X723392Y504444D01*
Y496316D01*
X727456Y492252D01*
X735584D01*
X739648Y496316D01*
Y504444D01*
X735584Y508508D01*
D02*
G37*
G36*
X212344D02*
X204216D01*
X200152Y504444D01*
Y496316D01*
X204216Y492252D01*
X212344D01*
X216408Y496316D01*
Y504444D01*
X212344Y508508D01*
D02*
G37*
G36*
X110744D02*
X102616D01*
X98552Y504444D01*
Y496316D01*
X102616Y492252D01*
X110744D01*
X114808Y496316D01*
Y504444D01*
X110744Y508508D01*
D02*
G37*
G36*
X485902Y491236D02*
X482854D01*
Y483870D01*
X490220D01*
Y486918D01*
X485902Y491236D01*
D02*
G37*
G36*
X480314D02*
X477266D01*
X472948Y486918D01*
Y483870D01*
X480314D01*
Y491236D01*
D02*
G37*
G36*
X1944059Y510202D02*
X1942141D01*
X1940289Y509706D01*
X1938629Y508747D01*
X1937273Y507391D01*
X1936314Y505731D01*
X1935818Y503879D01*
Y501961D01*
X1936314Y500109D01*
X1937273Y498449D01*
X1938362Y497360D01*
X1938522Y496570D01*
X1938362Y495780D01*
X1937273Y494691D01*
X1936314Y493031D01*
X1935818Y491179D01*
Y489261D01*
X1936314Y487409D01*
X1936793Y486580D01*
X1936060Y485310D01*
X1935310D01*
Y478790D01*
X1943100D01*
X1950890D01*
Y485310D01*
X1950140D01*
X1949407Y486580D01*
X1949886Y487409D01*
X1950382Y489261D01*
Y491179D01*
X1949886Y493031D01*
X1948927Y494691D01*
X1947838Y495780D01*
X1947677Y496570D01*
X1947838Y497360D01*
X1948927Y498449D01*
X1949886Y500109D01*
X1950382Y501961D01*
Y503879D01*
X1949886Y505731D01*
X1948927Y507391D01*
X1947571Y508747D01*
X1945911Y509706D01*
X1944059Y510202D01*
D02*
G37*
G36*
X1347911Y490728D02*
X1339783D01*
X1335719Y486664D01*
Y478536D01*
X1339783Y474472D01*
X1347911D01*
X1351975Y478536D01*
Y486664D01*
X1347911Y490728D01*
D02*
G37*
G36*
X1246311D02*
X1238183D01*
X1234119Y486664D01*
Y478536D01*
X1238183Y474472D01*
X1246311D01*
X1250375Y478536D01*
Y486664D01*
X1246311Y490728D01*
D02*
G37*
G36*
X587248D02*
X579120D01*
X575056Y486664D01*
Y478536D01*
X579120Y474472D01*
X587248D01*
X591312Y478536D01*
Y486664D01*
X587248Y490728D01*
D02*
G37*
G36*
X490220Y481330D02*
X482854D01*
Y473964D01*
X485902D01*
X490220Y478282D01*
Y481330D01*
D02*
G37*
G36*
X480314D02*
X472948D01*
Y478282D01*
X477266Y473964D01*
X480314D01*
Y481330D01*
D02*
G37*
G36*
X735838Y481076D02*
X732790D01*
Y473710D01*
X740156D01*
Y476758D01*
X735838Y481076D01*
D02*
G37*
G36*
X730250D02*
X727202D01*
X722884Y476758D01*
Y473710D01*
X730250D01*
Y481076D01*
D02*
G37*
G36*
X878078Y478536D02*
X875030D01*
Y471170D01*
X882396D01*
Y474218D01*
X878078Y478536D01*
D02*
G37*
G36*
X872490D02*
X869442D01*
X865124Y474218D01*
Y471170D01*
X872490D01*
Y478536D01*
D02*
G37*
G36*
X1950890Y476250D02*
X1944370D01*
Y469730D01*
X1950890D01*
Y476250D01*
D02*
G37*
G36*
X1941830D02*
X1935310D01*
Y469730D01*
X1941830D01*
Y476250D01*
D02*
G37*
G36*
X837184Y480568D02*
X829056D01*
X824992Y476504D01*
Y468376D01*
X829056Y464312D01*
X837184D01*
X841248Y468376D01*
Y476504D01*
X837184Y480568D01*
D02*
G37*
G36*
X740156Y471170D02*
X732790D01*
Y463804D01*
X735838D01*
X740156Y468122D01*
Y471170D01*
D02*
G37*
G36*
X730250D02*
X722884D01*
Y468122D01*
X727202Y463804D01*
X730250D01*
Y471170D01*
D02*
G37*
G36*
X979424Y478028D02*
X971296D01*
X967232Y473964D01*
Y465836D01*
X971296Y461772D01*
X979424D01*
X983488Y465836D01*
Y473964D01*
X979424Y478028D01*
D02*
G37*
G36*
X882396Y468630D02*
X875030D01*
Y461264D01*
X878078D01*
X882396Y465582D01*
Y468630D01*
D02*
G37*
G36*
X872490D02*
X865124D01*
Y465582D01*
X869442Y461264D01*
X872490D01*
Y468630D01*
D02*
G37*
G36*
X2024769Y470518D02*
X2024217Y470408D01*
X2023310D01*
X2021243Y469854D01*
X2019389Y468784D01*
X2017876Y467271D01*
X2016806Y465417D01*
X2016252Y463350D01*
Y461210D01*
X2016806Y459143D01*
X2017876Y457289D01*
X2019389Y455776D01*
X2021243Y454706D01*
X2023310Y454152D01*
X2025450D01*
X2027517Y454706D01*
X2029371Y455776D01*
X2030884Y457289D01*
X2031954Y459143D01*
X2032508Y461210D01*
Y463350D01*
X2031954Y465417D01*
X2030884Y467271D01*
X2029371Y468784D01*
X2027517Y469854D01*
X2026969Y470001D01*
X2026801Y470114D01*
X2025822Y470308D01*
X2025450Y470408D01*
X2025321D01*
X2024769Y470518D01*
D02*
G37*
G36*
X1901698Y460756D02*
X1898650D01*
Y453390D01*
X1906016D01*
Y456438D01*
X1901698Y460756D01*
D02*
G37*
G36*
X1896110D02*
X1893062D01*
X1888744Y456438D01*
Y453390D01*
X1896110D01*
Y460756D01*
D02*
G37*
G36*
X212344Y465328D02*
X204216D01*
X200152Y461264D01*
Y453136D01*
X204216Y449072D01*
X212344D01*
X216408Y453136D01*
Y461264D01*
X212344Y465328D01*
D02*
G37*
G36*
X110744D02*
X102616D01*
X98552Y461264D01*
Y453136D01*
X102616Y449072D01*
X110744D01*
X114808Y453136D01*
Y461264D01*
X110744Y465328D01*
D02*
G37*
G36*
X1482600Y531089D02*
X1482600Y531089D01*
X1433432D01*
X1431400Y530685D01*
X1429678Y529534D01*
X1429677Y529534D01*
X1423726Y523582D01*
X1422575Y521860D01*
X1422171Y519828D01*
X1422171Y519828D01*
Y515673D01*
X1421803Y515574D01*
X1419949Y514504D01*
X1418436Y512991D01*
X1417366Y511137D01*
X1416812Y509070D01*
Y506930D01*
X1417366Y504863D01*
X1418436Y503009D01*
X1419949Y501496D01*
X1421803Y500426D01*
X1423870Y499872D01*
X1426010D01*
X1428077Y500426D01*
X1429931Y501496D01*
X1431444Y503009D01*
X1432514Y504863D01*
X1433068Y506930D01*
Y509070D01*
X1432677Y510528D01*
X1432789Y511090D01*
Y517629D01*
X1435631Y520471D01*
X1480401D01*
X1533998Y466874D01*
Y465576D01*
X1534528Y463596D01*
X1535553Y461822D01*
X1537002Y460373D01*
X1538776Y459349D01*
X1540755Y458818D01*
X1542417D01*
X1550889Y450346D01*
X1550889Y450346D01*
X1552611Y449195D01*
X1554643Y448791D01*
X1585548D01*
Y444528D01*
X1604692D01*
Y463672D01*
X1585548D01*
Y459409D01*
X1556842D01*
X1549562Y466689D01*
Y467625D01*
X1549032Y469604D01*
X1548007Y471379D01*
X1546558Y472827D01*
X1544784Y473852D01*
X1542805Y474382D01*
X1541506D01*
X1486354Y529534D01*
X1484632Y530685D01*
X1482600Y531089D01*
D02*
G37*
G36*
X1870964Y460248D02*
X1862836D01*
X1858772Y456184D01*
Y448056D01*
X1862836Y443992D01*
X1870964D01*
X1875028Y448056D01*
Y456184D01*
X1870964Y460248D01*
D02*
G37*
G36*
X1906016Y450850D02*
X1898650D01*
Y443484D01*
X1901698D01*
X1906016Y447802D01*
Y450850D01*
D02*
G37*
G36*
X1896110D02*
X1888744D01*
Y447802D01*
X1893062Y443484D01*
X1896110D01*
Y450850D01*
D02*
G37*
G36*
X1246565Y450596D02*
X1243517D01*
Y443230D01*
X1250883D01*
Y446278D01*
X1246565Y450596D01*
D02*
G37*
G36*
X1240977D02*
X1237929D01*
X1233611Y446278D01*
Y443230D01*
X1240977D01*
Y450596D01*
D02*
G37*
G36*
X1543050Y449842D02*
Y442870D01*
X1550022D01*
X1549505Y444800D01*
X1548414Y446690D01*
X1546870Y448234D01*
X1544980Y449325D01*
X1543050Y449842D01*
D02*
G37*
G36*
X1540510Y449842D02*
X1538580Y449325D01*
X1536690Y448234D01*
X1535146Y446690D01*
X1534055Y444800D01*
X1533538Y442870D01*
X1540510D01*
Y449842D01*
D02*
G37*
G36*
X69850Y442022D02*
Y435050D01*
X76822D01*
X76305Y436980D01*
X75214Y438870D01*
X73670Y440414D01*
X71780Y441505D01*
X69850Y442022D01*
D02*
G37*
G36*
X67310Y442022D02*
X65380Y441505D01*
X63490Y440414D01*
X61946Y438870D01*
X60855Y436980D01*
X60338Y435050D01*
X67310D01*
Y442022D01*
D02*
G37*
G36*
X1347911Y450088D02*
X1339783D01*
X1335719Y446024D01*
Y437896D01*
X1339783Y433832D01*
X1347911D01*
X1351975Y437896D01*
Y446024D01*
X1347911Y450088D01*
D02*
G37*
G36*
X1550022Y440330D02*
X1543050D01*
Y433358D01*
X1544980Y433875D01*
X1546870Y434967D01*
X1548414Y436510D01*
X1549505Y438400D01*
X1550022Y440330D01*
D02*
G37*
G36*
X1540510D02*
X1533538D01*
X1534055Y438400D01*
X1535146Y436510D01*
X1536690Y434967D01*
X1538580Y433875D01*
X1540510Y433358D01*
Y440330D01*
D02*
G37*
G36*
X1250883Y440690D02*
X1243517D01*
Y433324D01*
X1246565D01*
X1250883Y437642D01*
Y440690D01*
D02*
G37*
G36*
X1240977D02*
X1233611D01*
Y437642D01*
X1237929Y433324D01*
X1240977D01*
Y440690D01*
D02*
G37*
G36*
X1596447Y438780D02*
X1596390D01*
Y429971D01*
X1605200D01*
Y430027D01*
X1604513Y432591D01*
X1603186Y434889D01*
X1601309Y436766D01*
X1599011Y438093D01*
X1596447Y438780D01*
D02*
G37*
G36*
X1593850D02*
X1593793D01*
X1591229Y438093D01*
X1588931Y436766D01*
X1587054Y434889D01*
X1585727Y432591D01*
X1585040Y430027D01*
Y429971D01*
X1593850D01*
Y438780D01*
D02*
G37*
G36*
X44605Y441562D02*
X42555D01*
X40576Y441032D01*
X38802Y440007D01*
X37353Y438559D01*
X36328Y436784D01*
X35798Y434805D01*
Y432756D01*
X36328Y430776D01*
X37353Y429002D01*
X38802Y427553D01*
X40576Y426529D01*
X42555Y425998D01*
X44605D01*
X46584Y426529D01*
X48358Y427553D01*
X49807Y429002D01*
X50832Y430776D01*
X51362Y432756D01*
Y434805D01*
X50832Y436784D01*
X49807Y438559D01*
X48358Y440007D01*
X46584Y441032D01*
X44605Y441562D01*
D02*
G37*
G36*
X67310Y432510D02*
X60338D01*
X60855Y430580D01*
X61946Y428690D01*
X63490Y427147D01*
X65380Y426055D01*
X67310Y425538D01*
Y432510D01*
D02*
G37*
G36*
X76822D02*
X69850D01*
Y425538D01*
X71780Y426055D01*
X73670Y427147D01*
X75214Y428690D01*
X76305Y430580D01*
X76822Y432510D01*
D02*
G37*
G36*
X606316Y428391D02*
X604109D01*
X601977Y427820D01*
X600066Y426716D01*
X598667Y425318D01*
X594329D01*
X594329Y425318D01*
X592297Y424914D01*
X590575Y423763D01*
X590575Y423763D01*
X547070Y380258D01*
X546100Y380386D01*
X543873Y380093D01*
X541797Y379233D01*
X540015Y377865D01*
X538647Y376083D01*
X537788Y374008D01*
X537494Y371780D01*
Y368780D01*
X537788Y366553D01*
X538647Y364478D01*
X540015Y362695D01*
X541797Y361328D01*
X543873Y360468D01*
X546100Y360175D01*
X548327Y360468D01*
X550403Y361328D01*
X552185Y362695D01*
X553553Y364478D01*
X554412Y366553D01*
X554706Y368780D01*
Y371780D01*
X554578Y372750D01*
X596528Y414700D01*
X598667D01*
X600066Y413302D01*
X601977Y412198D01*
X604109Y411627D01*
X606316D01*
X608448Y412198D01*
X610359Y413302D01*
X611920Y414862D01*
X613023Y416774D01*
X613594Y418906D01*
Y421113D01*
X613023Y423244D01*
X611920Y425156D01*
X610359Y426716D01*
X608448Y427820D01*
X606316Y428391D01*
D02*
G37*
G36*
X425574Y428797D02*
X423367D01*
X421235Y428226D01*
X419324Y427122D01*
X417763Y425561D01*
X417622Y425318D01*
X281671D01*
X280679Y426311D01*
X278767Y427414D01*
X276635Y427985D01*
X274428D01*
X272297Y427414D01*
X270385Y426311D01*
X268825Y424750D01*
X267721Y422839D01*
X267150Y420707D01*
Y418500D01*
X267721Y416368D01*
X268825Y414457D01*
X270385Y412896D01*
X272297Y411793D01*
X274428Y411221D01*
X276635D01*
X278767Y411793D01*
X280679Y412896D01*
X282239Y414457D01*
X282380Y414700D01*
X418331D01*
X419324Y413708D01*
X421235Y412604D01*
X423367Y412033D01*
X425574D01*
X427706Y412604D01*
X429617Y413708D01*
X431178Y415268D01*
X432281Y417179D01*
X432852Y419311D01*
Y421518D01*
X432281Y423650D01*
X431178Y425561D01*
X429617Y427122D01*
X427706Y428226D01*
X425574Y428797D01*
D02*
G37*
G36*
X1072839Y451782D02*
X1070921D01*
X1069069Y451286D01*
X1067409Y450327D01*
X1066053Y448971D01*
X1065094Y447311D01*
X1064598Y445459D01*
Y443541D01*
X1065094Y441689D01*
X1066053Y440029D01*
X1067142Y438940D01*
X1067302Y438150D01*
X1067142Y437360D01*
X1066053Y436271D01*
X1065094Y434611D01*
X1064598Y432759D01*
Y430841D01*
X1065094Y428989D01*
X1065573Y428160D01*
X1064840Y426890D01*
X1064090D01*
Y420370D01*
X1071880D01*
X1079670D01*
Y426890D01*
X1078920D01*
X1078187Y428160D01*
X1078666Y428989D01*
X1079162Y430841D01*
Y432759D01*
X1078666Y434611D01*
X1077707Y436271D01*
X1076618Y437360D01*
X1076458Y438150D01*
X1076618Y438940D01*
X1077707Y440029D01*
X1078666Y441689D01*
X1079162Y443541D01*
Y445459D01*
X1078666Y447311D01*
X1077707Y448971D01*
X1076351Y450327D01*
X1074691Y451286D01*
X1072839Y451782D01*
D02*
G37*
G36*
X1605200Y427430D02*
X1596390D01*
Y418620D01*
X1596447D01*
X1599011Y419307D01*
X1601309Y420634D01*
X1603186Y422511D01*
X1604513Y424809D01*
X1605200Y427373D01*
Y427430D01*
D02*
G37*
G36*
X1593850D02*
X1585040D01*
Y427373D01*
X1585727Y424809D01*
X1587054Y422511D01*
X1588931Y420634D01*
X1591229Y419307D01*
X1593793Y418620D01*
X1593850D01*
Y427430D01*
D02*
G37*
G36*
X1079670Y417830D02*
X1073150D01*
Y411310D01*
X1079670D01*
Y417830D01*
D02*
G37*
G36*
X1070610D02*
X1064090D01*
Y411310D01*
X1070610D01*
Y417830D01*
D02*
G37*
G36*
X1543050Y414442D02*
Y407470D01*
X1550022D01*
X1549505Y409400D01*
X1548414Y411290D01*
X1546870Y412834D01*
X1544980Y413925D01*
X1543050Y414442D01*
D02*
G37*
G36*
X1540510Y414442D02*
X1538580Y413925D01*
X1536690Y412834D01*
X1535146Y411290D01*
X1534055Y409400D01*
X1533538Y407470D01*
X1540510D01*
Y414442D01*
D02*
G37*
G36*
X1937599Y422148D02*
X1929471D01*
X1925407Y418084D01*
Y409956D01*
X1929471Y405892D01*
X1937599D01*
X1941663Y409956D01*
Y418084D01*
X1937599Y422148D01*
D02*
G37*
G36*
X1835999D02*
X1827871D01*
X1823807Y418084D01*
Y409956D01*
X1827871Y405892D01*
X1835999D01*
X1840063Y409956D01*
Y418084D01*
X1835999Y422148D01*
D02*
G37*
G36*
X241646Y408560D02*
X241554D01*
Y399490D01*
X250624D01*
Y399581D01*
X249920Y402211D01*
X248558Y404569D01*
X246633Y406494D01*
X244275Y407856D01*
X241646Y408560D01*
D02*
G37*
G36*
X89246D02*
X89154D01*
Y399490D01*
X98224D01*
Y399581D01*
X97520Y402211D01*
X96158Y404569D01*
X94233Y406494D01*
X91875Y407856D01*
X89246Y408560D01*
D02*
G37*
G36*
X239014D02*
X238923D01*
X236293Y407856D01*
X233935Y406494D01*
X232010Y404569D01*
X230649Y402211D01*
X229944Y399581D01*
Y399490D01*
X239014D01*
Y408560D01*
D02*
G37*
G36*
X86614D02*
X86523D01*
X83893Y407856D01*
X81535Y406494D01*
X79610Y404569D01*
X78249Y402211D01*
X77544Y399581D01*
Y399490D01*
X86614D01*
Y408560D01*
D02*
G37*
G36*
X1550022Y404930D02*
X1543050D01*
Y397958D01*
X1544980Y398475D01*
X1546870Y399566D01*
X1548414Y401110D01*
X1549505Y403000D01*
X1550022Y404930D01*
D02*
G37*
G36*
X1540510D02*
X1533538D01*
X1534055Y403000D01*
X1535146Y401110D01*
X1536690Y399566D01*
X1538580Y398475D01*
X1540510Y397958D01*
Y404930D01*
D02*
G37*
G36*
X1159176Y418532D02*
X1147144D01*
X1141128Y412516D01*
Y400484D01*
X1147144Y394468D01*
X1159176D01*
X1165192Y400484D01*
Y412516D01*
X1159176Y418532D01*
D02*
G37*
G36*
X1596380Y412872D02*
X1593860D01*
X1591425Y412220D01*
X1589243Y410960D01*
X1587460Y409178D01*
X1586200Y406995D01*
X1585548Y404560D01*
Y402040D01*
X1586200Y399606D01*
X1587460Y397423D01*
X1589243Y395641D01*
X1591425Y394381D01*
X1593860Y393728D01*
X1596380D01*
X1598815Y394381D01*
X1600997Y395641D01*
X1602780Y397423D01*
X1604040Y399606D01*
X1604692Y402040D01*
Y404560D01*
X1604040Y406995D01*
X1602780Y409178D01*
X1600997Y410960D01*
X1598815Y412220D01*
X1596380Y412872D01*
D02*
G37*
G36*
X1482240Y401190D02*
X1474470D01*
Y393420D01*
X1482240D01*
Y401190D01*
D02*
G37*
G36*
X1471930D02*
X1464160D01*
Y393420D01*
X1471930D01*
Y401190D01*
D02*
G37*
G36*
X546379Y408052D02*
X543790D01*
X541289Y407382D01*
X539047Y406088D01*
X537217Y404257D01*
X535922Y402015D01*
X535252Y399515D01*
Y396926D01*
X535922Y394425D01*
X537217Y392183D01*
X539047Y390353D01*
X541289Y389058D01*
X543790Y388388D01*
X546379D01*
X548879Y389058D01*
X551121Y390353D01*
X552952Y392183D01*
X554246Y394425D01*
X554916Y396926D01*
Y399515D01*
X554246Y402015D01*
X552952Y404257D01*
X551121Y406088D01*
X548879Y407382D01*
X546379Y408052D01*
D02*
G37*
G36*
X520979D02*
X518390D01*
X515889Y407382D01*
X513647Y406088D01*
X511817Y404257D01*
X510522Y402015D01*
X509852Y399515D01*
Y396926D01*
X510522Y394425D01*
X511817Y392183D01*
X513647Y390353D01*
X515889Y389058D01*
X518390Y388388D01*
X520979D01*
X523479Y389058D01*
X525721Y390353D01*
X527552Y392183D01*
X528846Y394425D01*
X529516Y396926D01*
Y399515D01*
X528846Y402015D01*
X527552Y404257D01*
X525721Y406088D01*
X523479Y407382D01*
X520979Y408052D01*
D02*
G37*
G36*
X495579D02*
X492990D01*
X490489Y407382D01*
X488247Y406088D01*
X486417Y404257D01*
X485122Y402015D01*
X484452Y399515D01*
Y396926D01*
X485122Y394425D01*
X486417Y392183D01*
X488247Y390353D01*
X490489Y389058D01*
X492990Y388388D01*
X495579D01*
X498079Y389058D01*
X500321Y390353D01*
X502152Y392183D01*
X503446Y394425D01*
X504116Y396926D01*
Y399515D01*
X503446Y402015D01*
X502152Y404257D01*
X500321Y406088D01*
X498079Y407382D01*
X495579Y408052D01*
D02*
G37*
G36*
X470179D02*
X467590D01*
X465089Y407382D01*
X462847Y406088D01*
X461017Y404257D01*
X459722Y402015D01*
X459052Y399515D01*
Y396926D01*
X459722Y394425D01*
X461017Y392183D01*
X462847Y390353D01*
X465089Y389058D01*
X467590Y388388D01*
X470179D01*
X472679Y389058D01*
X474921Y390353D01*
X476752Y392183D01*
X478046Y394425D01*
X478716Y396926D01*
Y399515D01*
X478046Y402015D01*
X476752Y404257D01*
X474921Y406088D01*
X472679Y407382D01*
X470179Y408052D01*
D02*
G37*
G36*
X444779D02*
X442190D01*
X439689Y407382D01*
X437447Y406088D01*
X435617Y404257D01*
X434322Y402015D01*
X433652Y399515D01*
Y396926D01*
X434322Y394425D01*
X435617Y392183D01*
X437447Y390353D01*
X439689Y389058D01*
X442190Y388388D01*
X444779D01*
X447279Y389058D01*
X449521Y390353D01*
X451352Y392183D01*
X452646Y394425D01*
X453316Y396926D01*
Y399515D01*
X452646Y402015D01*
X451352Y404257D01*
X449521Y406088D01*
X447279Y407382D01*
X444779Y408052D01*
D02*
G37*
G36*
X419379D02*
X416790D01*
X414289Y407382D01*
X412047Y406088D01*
X410217Y404257D01*
X408922Y402015D01*
X408252Y399515D01*
Y396926D01*
X408922Y394425D01*
X410217Y392183D01*
X412047Y390353D01*
X414289Y389058D01*
X416790Y388388D01*
X419379D01*
X421879Y389058D01*
X424121Y390353D01*
X425952Y392183D01*
X427246Y394425D01*
X427916Y396926D01*
Y399515D01*
X427246Y402015D01*
X425952Y404257D01*
X424121Y406088D01*
X421879Y407382D01*
X419379Y408052D01*
D02*
G37*
G36*
X343179D02*
X340590D01*
X338089Y407382D01*
X335847Y406088D01*
X334017Y404257D01*
X332722Y402015D01*
X332052Y399515D01*
Y396926D01*
X332380Y395704D01*
X316995Y380320D01*
X315273Y380093D01*
X313197Y379233D01*
X311415Y377865D01*
X310047Y376083D01*
X309188Y374008D01*
X308894Y371780D01*
Y368780D01*
X309188Y366553D01*
X310047Y364478D01*
X311415Y362695D01*
X313197Y361328D01*
X315273Y360468D01*
X317500Y360175D01*
X319727Y360468D01*
X321803Y361328D01*
X323585Y362695D01*
X324953Y364478D01*
X325812Y366553D01*
X326106Y368780D01*
Y371780D01*
X325812Y374008D01*
X325779Y374087D01*
X340188Y388496D01*
X340590Y388388D01*
X343179D01*
X345679Y389058D01*
X347921Y390353D01*
X349752Y392183D01*
X351046Y394425D01*
X351716Y396926D01*
Y399515D01*
X351046Y402015D01*
X349752Y404257D01*
X347921Y406088D01*
X345679Y407382D01*
X343179Y408052D01*
D02*
G37*
G36*
X317779D02*
X315190D01*
X312689Y407382D01*
X310447Y406088D01*
X308617Y404257D01*
X307322Y402015D01*
X306652Y399515D01*
Y396926D01*
X307322Y394425D01*
X308617Y392183D01*
X310447Y390353D01*
X312689Y389058D01*
X315190Y388388D01*
X317779D01*
X320279Y389058D01*
X322521Y390353D01*
X324352Y392183D01*
X325646Y394425D01*
X326316Y396926D01*
Y399515D01*
X325646Y402015D01*
X324352Y404257D01*
X322521Y406088D01*
X320279Y407382D01*
X317779Y408052D01*
D02*
G37*
G36*
X292379D02*
X289790D01*
X287289Y407382D01*
X285047Y406088D01*
X283217Y404257D01*
X281922Y402015D01*
X281252Y399515D01*
Y396926D01*
X281922Y394425D01*
X283217Y392183D01*
X285047Y390353D01*
X287289Y389058D01*
X289790Y388388D01*
X292379D01*
X294879Y389058D01*
X297121Y390353D01*
X298952Y392183D01*
X300246Y394425D01*
X300916Y396926D01*
Y399515D01*
X300246Y402015D01*
X298952Y404257D01*
X297121Y406088D01*
X294879Y407382D01*
X292379Y408052D01*
D02*
G37*
G36*
X266979D02*
X264390D01*
X261889Y407382D01*
X259647Y406088D01*
X257817Y404257D01*
X256522Y402015D01*
X255852Y399515D01*
Y396926D01*
X256522Y394425D01*
X257817Y392183D01*
X259647Y390353D01*
X261889Y389058D01*
X264390Y388388D01*
X266979D01*
X269479Y389058D01*
X271721Y390353D01*
X273552Y392183D01*
X274846Y394425D01*
X275516Y396926D01*
Y399515D01*
X274846Y402015D01*
X273552Y404257D01*
X271721Y406088D01*
X269479Y407382D01*
X266979Y408052D01*
D02*
G37*
G36*
X216179D02*
X213590D01*
X211089Y407382D01*
X208847Y406088D01*
X207017Y404257D01*
X205722Y402015D01*
X205052Y399515D01*
Y396926D01*
X205722Y394425D01*
X207017Y392183D01*
X208847Y390353D01*
X211089Y389058D01*
X213590Y388388D01*
X216179D01*
X218679Y389058D01*
X220921Y390353D01*
X222752Y392183D01*
X224046Y394425D01*
X224716Y396926D01*
Y399515D01*
X224046Y402015D01*
X222752Y404257D01*
X220921Y406088D01*
X218679Y407382D01*
X216179Y408052D01*
D02*
G37*
G36*
X190779D02*
X188190D01*
X185689Y407382D01*
X183447Y406088D01*
X181617Y404257D01*
X180322Y402015D01*
X179652Y399515D01*
Y396926D01*
X180322Y394425D01*
X181617Y392183D01*
X183447Y390353D01*
X185689Y389058D01*
X188190Y388388D01*
X190779D01*
X193279Y389058D01*
X195521Y390353D01*
X197352Y392183D01*
X198646Y394425D01*
X199316Y396926D01*
Y399515D01*
X198646Y402015D01*
X197352Y404257D01*
X195521Y406088D01*
X193279Y407382D01*
X190779Y408052D01*
D02*
G37*
G36*
X165379D02*
X162790D01*
X160289Y407382D01*
X158047Y406088D01*
X156217Y404257D01*
X154922Y402015D01*
X154252Y399515D01*
Y396926D01*
X154922Y394425D01*
X156217Y392183D01*
X158047Y390353D01*
X160289Y389058D01*
X162790Y388388D01*
X165379D01*
X167879Y389058D01*
X170121Y390353D01*
X171952Y392183D01*
X173246Y394425D01*
X173916Y396926D01*
Y399515D01*
X173246Y402015D01*
X171952Y404257D01*
X170121Y406088D01*
X167879Y407382D01*
X165379Y408052D01*
D02*
G37*
G36*
X842264Y424128D02*
X834136D01*
X830072Y420064D01*
Y411936D01*
X832891Y409117D01*
Y392799D01*
X749641Y309549D01*
X690045D01*
X686520Y313074D01*
X684798Y314225D01*
X682766Y314629D01*
X682766Y314629D01*
X663389D01*
X662251Y315767D01*
X662460Y317103D01*
X662520Y317115D01*
X664242Y318266D01*
X665227Y319251D01*
X700355D01*
X701754Y317853D01*
X703665Y316749D01*
X705797Y316178D01*
X708004D01*
X710136Y316749D01*
X712047Y317853D01*
X713607Y319414D01*
X714711Y321325D01*
X715282Y323457D01*
Y325664D01*
X714711Y327796D01*
X713607Y329707D01*
X712047Y331268D01*
X710136Y332371D01*
X708004Y332942D01*
X705797D01*
X703665Y332371D01*
X701754Y331268D01*
X700355Y329869D01*
X663028D01*
X660997Y329465D01*
X659274Y328314D01*
X659274Y328314D01*
X658289Y327329D01*
X534784D01*
X532753Y326925D01*
X531030Y325774D01*
X529879Y324052D01*
X529840Y323855D01*
X520614Y314629D01*
X352743D01*
X325860Y341513D01*
X326106Y343380D01*
Y346380D01*
X325812Y348608D01*
X324953Y350683D01*
X323585Y352465D01*
X321803Y353833D01*
X319727Y354693D01*
X317500Y354986D01*
X315273Y354693D01*
X313197Y353833D01*
X311415Y352465D01*
X310047Y350683D01*
X309188Y348608D01*
X308894Y346380D01*
Y343380D01*
X308904Y343308D01*
X294196Y328600D01*
X158472D01*
X157986Y329774D01*
X163232Y335020D01*
X165100Y334775D01*
X167327Y335068D01*
X169403Y335928D01*
X171185Y337295D01*
X172553Y339077D01*
X173412Y341153D01*
X173706Y343380D01*
Y346380D01*
X173412Y348608D01*
X172553Y350683D01*
X171185Y352465D01*
X169403Y353833D01*
X167327Y354693D01*
X165100Y354986D01*
X162873Y354693D01*
X160797Y353833D01*
X159015Y352465D01*
X157647Y350683D01*
X156788Y348608D01*
X156494Y346380D01*
Y343380D01*
X156504Y343308D01*
X150178Y336982D01*
X147146D01*
X146519Y338252D01*
X147153Y339077D01*
X148012Y341153D01*
X148306Y343380D01*
Y346380D01*
X148012Y348608D01*
X147153Y350683D01*
X145785Y352465D01*
X144003Y353833D01*
X141927Y354693D01*
X139700Y354986D01*
X137473Y354693D01*
X135397Y353833D01*
X133615Y352465D01*
X133485Y352296D01*
X132215Y352728D01*
Y362433D01*
X133485Y362864D01*
X133615Y362695D01*
X135397Y361328D01*
X137473Y360468D01*
X139700Y360175D01*
X141927Y360468D01*
X144003Y361328D01*
X145785Y362695D01*
X147153Y364478D01*
X148012Y366553D01*
X148306Y368780D01*
Y371780D01*
X148012Y374008D01*
X147153Y376083D01*
X145785Y377865D01*
X144003Y379233D01*
X141927Y380093D01*
X139700Y380386D01*
X137473Y380093D01*
X135397Y379233D01*
X133615Y377865D01*
X133485Y377696D01*
X132215Y378128D01*
Y383298D01*
X137323Y388406D01*
X137390Y388388D01*
X139979D01*
X142479Y389058D01*
X144721Y390353D01*
X146552Y392183D01*
X147846Y394425D01*
X148516Y396926D01*
Y399515D01*
X147846Y402015D01*
X146552Y404257D01*
X144721Y406088D01*
X142479Y407382D01*
X139979Y408052D01*
X137390D01*
X134889Y407382D01*
X132647Y406088D01*
X130817Y404257D01*
X129522Y402015D01*
X128852Y399515D01*
Y396926D01*
X129270Y395368D01*
X123152Y389251D01*
X122001Y387529D01*
X121597Y385497D01*
X121597Y385497D01*
Y378261D01*
X120771Y377980D01*
X120327Y377910D01*
X118603Y379233D01*
X116527Y380093D01*
X114300Y380386D01*
X112073Y380093D01*
X109997Y379233D01*
X108215Y377865D01*
X106847Y376083D01*
X105988Y374008D01*
X105694Y371780D01*
Y368780D01*
X105988Y366553D01*
X106847Y364478D01*
X108215Y362695D01*
X109997Y361328D01*
X112073Y360468D01*
X114300Y360175D01*
X116527Y360468D01*
X118603Y361328D01*
X120327Y362651D01*
X120771Y362580D01*
X121597Y362299D01*
Y352861D01*
X120771Y352580D01*
X120327Y352510D01*
X118603Y353833D01*
X116527Y354693D01*
X114300Y354986D01*
X112073Y354693D01*
X109997Y353833D01*
X108215Y352465D01*
X106847Y350683D01*
X105988Y348608D01*
X105694Y346380D01*
Y343380D01*
X105704Y343308D01*
X84130Y321734D01*
X82979Y320012D01*
X82575Y317980D01*
X82575Y317980D01*
Y154052D01*
X78052D01*
Y135743D01*
X76782Y135217D01*
X75760Y136239D01*
X73176Y137966D01*
X70303Y139156D01*
X67254Y139762D01*
X64146D01*
X61097Y139156D01*
X58224Y137966D01*
X55640Y136239D01*
X53441Y134041D01*
X51714Y131456D01*
X50525Y128584D01*
X49918Y125535D01*
Y122426D01*
X50525Y119377D01*
X51714Y116505D01*
X53441Y113920D01*
X55640Y111722D01*
X58224Y109994D01*
X61097Y108805D01*
X64146Y108198D01*
X67254D01*
X70303Y108805D01*
X73176Y109994D01*
X75760Y111722D01*
X77959Y113920D01*
X79686Y116505D01*
X80876Y119377D01*
X81482Y122426D01*
Y125535D01*
X80876Y128584D01*
X79686Y131456D01*
X78575Y133118D01*
X79254Y134388D01*
X97716D01*
Y154052D01*
X93193D01*
Y315781D01*
X112222Y334810D01*
X113215Y334007D01*
Y328708D01*
X113215Y328708D01*
X113619Y326677D01*
X114770Y324954D01*
X120187Y319537D01*
X120187Y319537D01*
X121910Y318386D01*
X123941Y317982D01*
X123941Y317982D01*
X296395D01*
X296395Y317982D01*
X298427Y318386D01*
X300149Y319537D01*
X315633Y335020D01*
X317500Y334775D01*
X317572Y334784D01*
X346790Y305566D01*
X346790Y305566D01*
X348513Y304415D01*
X350544Y304011D01*
X350544Y304011D01*
X522813D01*
X522813Y304011D01*
X524845Y304415D01*
X526567Y305566D01*
X537712Y316711D01*
X650585D01*
X651111Y315441D01*
X650137Y314467D01*
X649034Y312556D01*
X648462Y310424D01*
Y309298D01*
X647192Y308255D01*
X646795Y308334D01*
X646795Y308334D01*
X641234D01*
X640626Y309387D01*
X639065Y310947D01*
X637154Y312051D01*
X635022Y312622D01*
X632815D01*
X630683Y312051D01*
X628772Y310947D01*
X627211Y309387D01*
X626108Y307476D01*
X625537Y305344D01*
Y303137D01*
X626108Y301005D01*
X627211Y299094D01*
X628772Y297533D01*
X630683Y296430D01*
X632815Y295858D01*
X635022D01*
X637154Y296430D01*
X639065Y297533D01*
X639249Y297716D01*
X644596D01*
X647010Y295302D01*
X647152Y294589D01*
X648303Y292866D01*
X649065Y292104D01*
X649065Y292104D01*
X650788Y290953D01*
X652819Y290549D01*
X755312D01*
X755312Y290549D01*
X757344Y290953D01*
X759066Y292104D01*
X848781Y381819D01*
X1002368D01*
X1002368Y381819D01*
X1004400Y382223D01*
X1006122Y383374D01*
X1025540Y402792D01*
X1030224D01*
X1034288Y406856D01*
Y414984D01*
X1030224Y419048D01*
X1022096D01*
X1018032Y414984D01*
Y410300D01*
X1000169Y392437D01*
X846582D01*
X846582Y392437D01*
X844779Y392079D01*
X843509Y392749D01*
Y409117D01*
X846328Y411936D01*
Y420064D01*
X842264Y424128D01*
D02*
G37*
G36*
X114579Y408052D02*
X111990D01*
X109489Y407382D01*
X107247Y406088D01*
X105417Y404257D01*
X104122Y402015D01*
X103452Y399515D01*
Y396926D01*
X104122Y394425D01*
X105417Y392183D01*
X107247Y390353D01*
X109489Y389058D01*
X111990Y388388D01*
X114579D01*
X117079Y389058D01*
X119321Y390353D01*
X121152Y392183D01*
X122446Y394425D01*
X123116Y396926D01*
Y399515D01*
X122446Y402015D01*
X121152Y404257D01*
X119321Y406088D01*
X117079Y407382D01*
X114579Y408052D01*
D02*
G37*
G36*
X250624Y396950D02*
X241554D01*
Y387880D01*
X241646D01*
X244275Y388585D01*
X246633Y389946D01*
X248558Y391871D01*
X249920Y394229D01*
X250624Y396859D01*
Y396950D01*
D02*
G37*
G36*
X239014D02*
X229944D01*
Y396859D01*
X230649Y394229D01*
X232010Y391871D01*
X233935Y389946D01*
X236293Y388585D01*
X238923Y387880D01*
X239014D01*
Y396950D01*
D02*
G37*
G36*
X98224D02*
X89154D01*
Y387880D01*
X89246D01*
X91875Y388585D01*
X94233Y389946D01*
X96158Y391871D01*
X97520Y394229D01*
X98224Y396859D01*
Y396950D01*
D02*
G37*
G36*
X86614D02*
X77544D01*
Y396859D01*
X78249Y394229D01*
X79610Y391871D01*
X81535Y389946D01*
X83893Y388585D01*
X86523Y387880D01*
X86614D01*
Y396950D01*
D02*
G37*
G36*
X2008474Y425432D02*
X2004725D01*
X2001049Y424701D01*
X1997585Y423266D01*
X1994468Y421183D01*
X1991817Y418532D01*
X1989734Y415415D01*
X1988299Y411952D01*
X1987568Y408275D01*
Y404526D01*
X1988299Y400849D01*
X1989734Y397385D01*
X1991817Y394268D01*
X1994468Y391617D01*
X1997585Y389534D01*
X2001049Y388100D01*
X2004725Y387368D01*
X2008474D01*
X2012151Y388100D01*
X2015615Y389534D01*
X2018732Y391617D01*
X2021383Y394268D01*
X2023466Y397385D01*
X2024901Y400849D01*
X2025632Y404526D01*
Y408275D01*
X2024901Y411952D01*
X2023466Y415415D01*
X2021383Y418532D01*
X2018732Y421183D01*
X2015615Y423266D01*
X2012151Y424701D01*
X2008474Y425432D01*
D02*
G37*
G36*
X1482240Y390880D02*
X1474470D01*
Y383110D01*
X1482240D01*
Y390880D01*
D02*
G37*
G36*
X1471930D02*
X1464160D01*
Y383110D01*
X1471930D01*
Y390880D01*
D02*
G37*
G36*
X1233254Y396842D02*
X1230546D01*
X1227931Y396141D01*
X1225587Y394788D01*
X1223672Y392873D01*
X1222319Y390529D01*
X1221618Y387914D01*
Y385206D01*
X1222319Y382591D01*
X1223672Y380247D01*
X1225587Y378332D01*
X1227931Y376979D01*
X1230546Y376278D01*
X1233254D01*
X1235869Y376979D01*
X1238213Y378332D01*
X1240128Y380247D01*
X1241481Y382591D01*
X1242182Y385206D01*
Y387914D01*
X1241481Y390529D01*
X1240128Y392873D01*
X1238213Y394788D01*
X1235869Y396141D01*
X1233254Y396842D01*
D02*
G37*
G36*
X1542805Y388982D02*
X1540755D01*
X1538776Y388452D01*
X1537002Y387427D01*
X1535553Y385978D01*
X1534528Y384204D01*
X1533998Y382225D01*
Y380176D01*
X1534528Y378196D01*
X1535553Y376422D01*
X1537002Y374973D01*
X1538776Y373948D01*
X1540755Y373418D01*
X1542805D01*
X1544784Y373948D01*
X1546558Y374973D01*
X1548007Y376422D01*
X1549032Y378196D01*
X1549562Y380176D01*
Y382225D01*
X1549032Y384204D01*
X1548007Y385978D01*
X1546558Y387427D01*
X1544784Y388452D01*
X1542805Y388982D01*
D02*
G37*
G36*
X521970Y380731D02*
Y371550D01*
X529818D01*
Y371780D01*
X529507Y374140D01*
X528596Y376339D01*
X527147Y378228D01*
X525259Y379677D01*
X523060Y380588D01*
X521970Y380731D01*
D02*
G37*
G36*
X519430D02*
X518340Y380588D01*
X516141Y379677D01*
X514253Y378228D01*
X512804Y376339D01*
X511893Y374140D01*
X511582Y371780D01*
Y371550D01*
X519430D01*
Y380731D01*
D02*
G37*
G36*
X471170D02*
Y371550D01*
X479018D01*
Y371780D01*
X478707Y374140D01*
X477796Y376339D01*
X476347Y378228D01*
X474459Y379677D01*
X472260Y380588D01*
X471170Y380731D01*
D02*
G37*
G36*
X468630D02*
X467540Y380588D01*
X465341Y379677D01*
X463453Y378228D01*
X462004Y376339D01*
X461093Y374140D01*
X460782Y371780D01*
Y371550D01*
X468630D01*
Y380731D01*
D02*
G37*
G36*
X344170D02*
Y371550D01*
X352018D01*
Y371780D01*
X351707Y374140D01*
X350796Y376339D01*
X349347Y378228D01*
X347459Y379677D01*
X345260Y380588D01*
X344170Y380731D01*
D02*
G37*
G36*
X341630D02*
X340540Y380588D01*
X338341Y379677D01*
X336453Y378228D01*
X335004Y376339D01*
X334093Y374140D01*
X333782Y371780D01*
Y371550D01*
X341630D01*
Y380731D01*
D02*
G37*
G36*
X267970D02*
Y371550D01*
X275818D01*
Y371780D01*
X275507Y374140D01*
X274596Y376339D01*
X273147Y378228D01*
X271259Y379677D01*
X269060Y380588D01*
X267970Y380731D01*
D02*
G37*
G36*
X265430D02*
X264340Y380588D01*
X262141Y379677D01*
X260253Y378228D01*
X258804Y376339D01*
X257893Y374140D01*
X257582Y371780D01*
Y371550D01*
X265430D01*
Y380731D01*
D02*
G37*
G36*
X166370D02*
Y371550D01*
X174218D01*
Y371780D01*
X173907Y374140D01*
X172996Y376339D01*
X171547Y378228D01*
X169659Y379677D01*
X167460Y380588D01*
X166370Y380731D01*
D02*
G37*
G36*
X163830D02*
X162740Y380588D01*
X160541Y379677D01*
X158653Y378228D01*
X157204Y376339D01*
X156293Y374140D01*
X155982Y371780D01*
Y371550D01*
X163830D01*
Y380731D01*
D02*
G37*
G36*
X596900Y380386D02*
X594673Y380093D01*
X592597Y379233D01*
X590815Y377865D01*
X589447Y376083D01*
X588588Y374008D01*
X588294Y371780D01*
Y368780D01*
X588588Y366553D01*
X589447Y364478D01*
X590815Y362695D01*
X592597Y361328D01*
X594673Y360468D01*
X596900Y360175D01*
X599127Y360468D01*
X601203Y361328D01*
X602985Y362695D01*
X604353Y364478D01*
X605212Y366553D01*
X605506Y368780D01*
Y371780D01*
X605212Y374008D01*
X604353Y376083D01*
X602985Y377865D01*
X601203Y379233D01*
X599127Y380093D01*
X596900Y380386D01*
D02*
G37*
G36*
X571500D02*
X569273Y380093D01*
X567197Y379233D01*
X565415Y377865D01*
X564047Y376083D01*
X563188Y374008D01*
X562894Y371780D01*
Y368780D01*
X563188Y366553D01*
X564047Y364478D01*
X565415Y362695D01*
X567197Y361328D01*
X569273Y360468D01*
X571500Y360175D01*
X573727Y360468D01*
X575803Y361328D01*
X577585Y362695D01*
X578953Y364478D01*
X579812Y366553D01*
X580106Y368780D01*
Y371780D01*
X579812Y374008D01*
X578953Y376083D01*
X577585Y377865D01*
X575803Y379233D01*
X573727Y380093D01*
X571500Y380386D01*
D02*
G37*
G36*
X495300D02*
X493073Y380093D01*
X490997Y379233D01*
X489215Y377865D01*
X487847Y376083D01*
X486988Y374008D01*
X486694Y371780D01*
Y368780D01*
X486988Y366553D01*
X487847Y364478D01*
X489215Y362695D01*
X490997Y361328D01*
X493073Y360468D01*
X495300Y360175D01*
X497527Y360468D01*
X499603Y361328D01*
X501385Y362695D01*
X502753Y364478D01*
X503612Y366553D01*
X503906Y368780D01*
Y371780D01*
X503612Y374008D01*
X502753Y376083D01*
X501385Y377865D01*
X499603Y379233D01*
X497527Y380093D01*
X495300Y380386D01*
D02*
G37*
G36*
X444500D02*
X442273Y380093D01*
X440197Y379233D01*
X438415Y377865D01*
X437047Y376083D01*
X436188Y374008D01*
X435894Y371780D01*
Y368780D01*
X436188Y366553D01*
X437047Y364478D01*
X438415Y362695D01*
X440197Y361328D01*
X442273Y360468D01*
X444500Y360175D01*
X446727Y360468D01*
X448803Y361328D01*
X450585Y362695D01*
X451953Y364478D01*
X452812Y366553D01*
X453106Y368780D01*
Y371780D01*
X452812Y374008D01*
X451953Y376083D01*
X450585Y377865D01*
X448803Y379233D01*
X446727Y380093D01*
X444500Y380386D01*
D02*
G37*
G36*
X419100D02*
X416873Y380093D01*
X414797Y379233D01*
X413015Y377865D01*
X411647Y376083D01*
X410788Y374008D01*
X410494Y371780D01*
Y368780D01*
X410788Y366553D01*
X411647Y364478D01*
X413015Y362695D01*
X414797Y361328D01*
X416873Y360468D01*
X419100Y360175D01*
X421327Y360468D01*
X423403Y361328D01*
X425185Y362695D01*
X426553Y364478D01*
X427412Y366553D01*
X427706Y368780D01*
Y371780D01*
X427412Y374008D01*
X426553Y376083D01*
X425185Y377865D01*
X423403Y379233D01*
X421327Y380093D01*
X419100Y380386D01*
D02*
G37*
G36*
X393979Y408052D02*
X391390D01*
X388889Y407382D01*
X386647Y406088D01*
X384817Y404257D01*
X383522Y402015D01*
X382852Y399515D01*
Y396926D01*
X383522Y394425D01*
X384817Y392183D01*
X386647Y390353D01*
X387375Y389932D01*
Y377553D01*
X386247Y376083D01*
X385388Y374008D01*
X385094Y371780D01*
Y368780D01*
X385388Y366553D01*
X386247Y364478D01*
X387615Y362695D01*
X389397Y361328D01*
X391473Y360468D01*
X393700Y360175D01*
X395927Y360468D01*
X398003Y361328D01*
X399785Y362695D01*
X401153Y364478D01*
X402012Y366553D01*
X402306Y368780D01*
Y371780D01*
X402012Y374008D01*
X401153Y376083D01*
X399785Y377865D01*
X398003Y379233D01*
X397993Y379237D01*
Y389932D01*
X398721Y390353D01*
X400552Y392183D01*
X401846Y394425D01*
X402516Y396926D01*
Y399515D01*
X401846Y402015D01*
X400552Y404257D01*
X398721Y406088D01*
X396479Y407382D01*
X393979Y408052D01*
D02*
G37*
G36*
X368579D02*
X365990D01*
X363489Y407382D01*
X361247Y406088D01*
X359417Y404257D01*
X358122Y402015D01*
X357452Y399515D01*
Y396926D01*
X358122Y394425D01*
X359417Y392183D01*
X361247Y390353D01*
X361975Y389932D01*
Y377553D01*
X360847Y376083D01*
X359988Y374008D01*
X359694Y371780D01*
Y368780D01*
X359988Y366553D01*
X360847Y364478D01*
X362215Y362695D01*
X363997Y361328D01*
X366073Y360468D01*
X368300Y360175D01*
X370527Y360468D01*
X372603Y361328D01*
X374385Y362695D01*
X375753Y364478D01*
X376612Y366553D01*
X376906Y368780D01*
Y371780D01*
X376612Y374008D01*
X375753Y376083D01*
X374385Y377865D01*
X372603Y379233D01*
X372593Y379237D01*
Y389932D01*
X373321Y390353D01*
X375152Y392183D01*
X376446Y394425D01*
X377116Y396926D01*
Y399515D01*
X376446Y402015D01*
X375152Y404257D01*
X373321Y406088D01*
X371079Y407382D01*
X368579Y408052D01*
D02*
G37*
G36*
X292100Y380386D02*
X289873Y380093D01*
X287797Y379233D01*
X286015Y377865D01*
X284647Y376083D01*
X283788Y374008D01*
X283494Y371780D01*
Y368780D01*
X283788Y366553D01*
X284647Y364478D01*
X286015Y362695D01*
X287797Y361328D01*
X289873Y360468D01*
X292100Y360175D01*
X294327Y360468D01*
X296403Y361328D01*
X298185Y362695D01*
X299553Y364478D01*
X300412Y366553D01*
X300706Y368780D01*
Y371780D01*
X300412Y374008D01*
X299553Y376083D01*
X298185Y377865D01*
X296403Y379233D01*
X294327Y380093D01*
X292100Y380386D01*
D02*
G37*
G36*
X241300D02*
X239073Y380093D01*
X236997Y379233D01*
X235215Y377865D01*
X233847Y376083D01*
X232988Y374008D01*
X232694Y371780D01*
Y368780D01*
X232988Y366553D01*
X233847Y364478D01*
X235215Y362695D01*
X236997Y361328D01*
X239073Y360468D01*
X241300Y360175D01*
X243527Y360468D01*
X245603Y361328D01*
X247385Y362695D01*
X248753Y364478D01*
X249612Y366553D01*
X249906Y368780D01*
Y371780D01*
X249612Y374008D01*
X248753Y376083D01*
X247385Y377865D01*
X245603Y379233D01*
X243527Y380093D01*
X241300Y380386D01*
D02*
G37*
G36*
X215900D02*
X213673Y380093D01*
X211597Y379233D01*
X209815Y377865D01*
X208447Y376083D01*
X207588Y374008D01*
X207294Y371780D01*
Y368780D01*
X207588Y366553D01*
X208447Y364478D01*
X209815Y362695D01*
X211597Y361328D01*
X213673Y360468D01*
X215900Y360175D01*
X218127Y360468D01*
X220203Y361328D01*
X221985Y362695D01*
X223353Y364478D01*
X224212Y366553D01*
X224506Y368780D01*
Y371780D01*
X224212Y374008D01*
X223353Y376083D01*
X221985Y377865D01*
X220203Y379233D01*
X218127Y380093D01*
X215900Y380386D01*
D02*
G37*
G36*
X190500D02*
X188273Y380093D01*
X186197Y379233D01*
X184415Y377865D01*
X183047Y376083D01*
X182188Y374008D01*
X181894Y371780D01*
Y368780D01*
X182188Y366553D01*
X183047Y364478D01*
X184415Y362695D01*
X186197Y361328D01*
X188273Y360468D01*
X190500Y360175D01*
X192727Y360468D01*
X194803Y361328D01*
X196585Y362695D01*
X197953Y364478D01*
X198812Y366553D01*
X199106Y368780D01*
Y371780D01*
X198812Y374008D01*
X197953Y376083D01*
X196585Y377865D01*
X194803Y379233D01*
X192727Y380093D01*
X190500Y380386D01*
D02*
G37*
G36*
X529818Y369010D02*
X521970D01*
Y359829D01*
X523060Y359973D01*
X525259Y360884D01*
X527147Y362333D01*
X528596Y364221D01*
X529507Y366420D01*
X529818Y368780D01*
Y369010D01*
D02*
G37*
G36*
X519430D02*
X511582D01*
Y368780D01*
X511893Y366420D01*
X512804Y364221D01*
X514253Y362333D01*
X516141Y360884D01*
X518340Y359973D01*
X519430Y359829D01*
Y369010D01*
D02*
G37*
G36*
X479018D02*
X471170D01*
Y359829D01*
X472260Y359973D01*
X474459Y360884D01*
X476347Y362333D01*
X477796Y364221D01*
X478707Y366420D01*
X479018Y368780D01*
Y369010D01*
D02*
G37*
G36*
X468630D02*
X460782D01*
Y368780D01*
X461093Y366420D01*
X462004Y364221D01*
X463453Y362333D01*
X465341Y360884D01*
X467540Y359973D01*
X468630Y359829D01*
Y369010D01*
D02*
G37*
G36*
X352018D02*
X344170D01*
Y359829D01*
X345260Y359973D01*
X347459Y360884D01*
X349347Y362333D01*
X350796Y364221D01*
X351707Y366420D01*
X352018Y368780D01*
Y369010D01*
D02*
G37*
G36*
X341630D02*
X333782D01*
Y368780D01*
X334093Y366420D01*
X335004Y364221D01*
X336453Y362333D01*
X338341Y360884D01*
X340540Y359973D01*
X341630Y359829D01*
Y369010D01*
D02*
G37*
G36*
X275818D02*
X267970D01*
Y359829D01*
X269060Y359973D01*
X271259Y360884D01*
X273147Y362333D01*
X274596Y364221D01*
X275507Y366420D01*
X275818Y368780D01*
Y369010D01*
D02*
G37*
G36*
X265430D02*
X257582D01*
Y368780D01*
X257893Y366420D01*
X258804Y364221D01*
X260253Y362333D01*
X262141Y360884D01*
X264340Y359973D01*
X265430Y359829D01*
Y369010D01*
D02*
G37*
G36*
X174218D02*
X166370D01*
Y359829D01*
X167460Y359973D01*
X169659Y360884D01*
X171547Y362333D01*
X172996Y364221D01*
X173907Y366420D01*
X174218Y368780D01*
Y369010D01*
D02*
G37*
G36*
X163830D02*
X155982D01*
Y368780D01*
X156293Y366420D01*
X157204Y364221D01*
X158653Y362333D01*
X160541Y360884D01*
X162740Y359973D01*
X163830Y359829D01*
Y369010D01*
D02*
G37*
G36*
X1182624Y365708D02*
X1174496D01*
X1170432Y361644D01*
Y353516D01*
X1174496Y349452D01*
X1182624D01*
X1186688Y353516D01*
Y361644D01*
X1182624Y365708D01*
D02*
G37*
G36*
X1002284D02*
X994156D01*
X990092Y361644D01*
Y353516D01*
X994156Y349452D01*
X1002284D01*
X1006348Y353516D01*
Y361644D01*
X1002284Y365708D01*
D02*
G37*
G36*
X900684D02*
X892556D01*
X888492Y361644D01*
Y353516D01*
X892556Y349452D01*
X900684D01*
X904748Y353516D01*
Y361644D01*
X900684Y365708D01*
D02*
G37*
G36*
X1474323Y365682D02*
X1472077D01*
X1469907Y365101D01*
X1467961Y363977D01*
X1466373Y362389D01*
X1465249Y360443D01*
X1464668Y358273D01*
Y356027D01*
X1465249Y353857D01*
X1466373Y351911D01*
X1467961Y350323D01*
X1469907Y349199D01*
X1472077Y348618D01*
X1474323D01*
X1476493Y349199D01*
X1478439Y350323D01*
X1480027Y351911D01*
X1481151Y353857D01*
X1481732Y356027D01*
Y358273D01*
X1481151Y360443D01*
X1480027Y362389D01*
X1478439Y363977D01*
X1476493Y365101D01*
X1474323Y365682D01*
D02*
G37*
G36*
X598170Y355331D02*
Y346150D01*
X606018D01*
Y346380D01*
X605707Y348740D01*
X604796Y350939D01*
X603347Y352828D01*
X601459Y354277D01*
X599260Y355188D01*
X598170Y355331D01*
D02*
G37*
G36*
X595630D02*
X594540Y355188D01*
X592341Y354277D01*
X590453Y352828D01*
X589004Y350939D01*
X588093Y348740D01*
X587782Y346380D01*
Y346150D01*
X595630D01*
Y355331D01*
D02*
G37*
G36*
X420370D02*
Y346150D01*
X428218D01*
Y346380D01*
X427907Y348740D01*
X426996Y350939D01*
X425547Y352828D01*
X423659Y354277D01*
X421460Y355188D01*
X420370Y355331D01*
D02*
G37*
G36*
X417830D02*
X416740Y355188D01*
X414541Y354277D01*
X412653Y352828D01*
X411204Y350939D01*
X410293Y348740D01*
X409982Y346380D01*
Y346150D01*
X417830D01*
Y355331D01*
D02*
G37*
G36*
X217170D02*
Y346150D01*
X225018D01*
Y346380D01*
X224707Y348740D01*
X223796Y350939D01*
X222347Y352828D01*
X220459Y354277D01*
X218260Y355188D01*
X217170Y355331D01*
D02*
G37*
G36*
X214630D02*
X213540Y355188D01*
X211341Y354277D01*
X209453Y352828D01*
X208004Y350939D01*
X207093Y348740D01*
X206782Y346380D01*
Y346150D01*
X214630D01*
Y355331D01*
D02*
G37*
G36*
X647254Y369762D02*
X644146D01*
X641097Y369156D01*
X638224Y367966D01*
X635640Y366239D01*
X633441Y364041D01*
X631714Y361456D01*
X630524Y358584D01*
X629918Y355535D01*
Y352426D01*
X630524Y349377D01*
X631714Y346505D01*
X633441Y343920D01*
X635640Y341722D01*
X638224Y339995D01*
X641097Y338805D01*
X644146Y338198D01*
X647254D01*
X650303Y338805D01*
X653176Y339995D01*
X655760Y341722D01*
X657959Y343920D01*
X659686Y346505D01*
X660875Y349377D01*
X661482Y352426D01*
Y355535D01*
X660875Y358584D01*
X659686Y361456D01*
X657959Y364041D01*
X655760Y366239D01*
X653176Y367966D01*
X650303Y369156D01*
X647254Y369762D01*
D02*
G37*
G36*
X67254D02*
X64146D01*
X61097Y369156D01*
X58224Y367966D01*
X55640Y366239D01*
X53441Y364041D01*
X51714Y361456D01*
X50525Y358584D01*
X49918Y355535D01*
Y352426D01*
X50525Y349377D01*
X51714Y346505D01*
X53441Y343920D01*
X55640Y341722D01*
X58224Y339995D01*
X61097Y338805D01*
X64146Y338198D01*
X67254D01*
X70303Y338805D01*
X73176Y339995D01*
X75760Y341722D01*
X77959Y343920D01*
X79686Y346505D01*
X80876Y349377D01*
X81482Y352426D01*
Y355535D01*
X80876Y358584D01*
X79686Y361456D01*
X77959Y364041D01*
X75760Y366239D01*
X73176Y367966D01*
X70303Y369156D01*
X67254Y369762D01*
D02*
G37*
G36*
X2050850Y470408D02*
X2048710D01*
X2046643Y469854D01*
X2044789Y468784D01*
X2043276Y467271D01*
X2042206Y465417D01*
X2041652Y463350D01*
Y461210D01*
X2042206Y459143D01*
X2043276Y457289D01*
X2044471Y456094D01*
Y379543D01*
X2039522Y374594D01*
X2038371Y372872D01*
X2037967Y370840D01*
X2037967Y370840D01*
Y355267D01*
X2018209Y335509D01*
X2014680D01*
X2014323Y336127D01*
X2012527Y337924D01*
X2010325Y339194D01*
X2007871Y339852D01*
X2005329D01*
X2002874Y339194D01*
X2000674Y337924D01*
X1998876Y336127D01*
X1997606Y333926D01*
X1996948Y331471D01*
Y328929D01*
X1997606Y326474D01*
X1998876Y324273D01*
X2000674Y322477D01*
X2002874Y321206D01*
X2005329Y320548D01*
X2007871D01*
X2010325Y321206D01*
X2012527Y322477D01*
X2014323Y324273D01*
X2014680Y324891D01*
X2020408D01*
X2020408Y324891D01*
X2022440Y325295D01*
X2024162Y326446D01*
X2047030Y349314D01*
X2047030Y349314D01*
X2048181Y351036D01*
X2048585Y353068D01*
Y368641D01*
X2053534Y373590D01*
X2054685Y375312D01*
X2055089Y377344D01*
Y456094D01*
X2056284Y457289D01*
X2057354Y459143D01*
X2057908Y461210D01*
Y463350D01*
X2057354Y465417D01*
X2056284Y467271D01*
X2054771Y468784D01*
X2052917Y469854D01*
X2050850Y470408D01*
D02*
G37*
G36*
X571500Y354986D02*
X569273Y354693D01*
X567197Y353833D01*
X565415Y352465D01*
X564047Y350683D01*
X563188Y348608D01*
X562894Y346380D01*
Y343380D01*
X563188Y341153D01*
X564047Y339077D01*
X565415Y337295D01*
X567197Y335928D01*
X569273Y335068D01*
X571500Y334775D01*
X573727Y335068D01*
X575803Y335928D01*
X577585Y337295D01*
X578953Y339077D01*
X579812Y341153D01*
X580106Y343380D01*
Y346380D01*
X579812Y348608D01*
X578953Y350683D01*
X577585Y352465D01*
X575803Y353833D01*
X573727Y354693D01*
X571500Y354986D01*
D02*
G37*
G36*
X546100D02*
X543873Y354693D01*
X541797Y353833D01*
X540015Y352465D01*
X538647Y350683D01*
X537788Y348608D01*
X537494Y346380D01*
Y343380D01*
X537788Y341153D01*
X538647Y339077D01*
X540015Y337295D01*
X541797Y335928D01*
X543873Y335068D01*
X546100Y334775D01*
X548327Y335068D01*
X550403Y335928D01*
X552185Y337295D01*
X553553Y339077D01*
X554412Y341153D01*
X554706Y343380D01*
Y346380D01*
X554412Y348608D01*
X553553Y350683D01*
X552185Y352465D01*
X550403Y353833D01*
X548327Y354693D01*
X546100Y354986D01*
D02*
G37*
G36*
X520700D02*
X518473Y354693D01*
X516397Y353833D01*
X514615Y352465D01*
X513247Y350683D01*
X512388Y348608D01*
X512094Y346380D01*
Y343380D01*
X512388Y341153D01*
X513247Y339077D01*
X514615Y337295D01*
X516397Y335928D01*
X518473Y335068D01*
X520700Y334775D01*
X522927Y335068D01*
X525003Y335928D01*
X526785Y337295D01*
X528153Y339077D01*
X529012Y341153D01*
X529306Y343380D01*
Y346380D01*
X529012Y348608D01*
X528153Y350683D01*
X526785Y352465D01*
X525003Y353833D01*
X522927Y354693D01*
X520700Y354986D01*
D02*
G37*
G36*
X495300D02*
X493073Y354693D01*
X490997Y353833D01*
X489215Y352465D01*
X487847Y350683D01*
X486988Y348608D01*
X486694Y346380D01*
Y343380D01*
X486988Y341153D01*
X487847Y339077D01*
X489215Y337295D01*
X490997Y335928D01*
X493073Y335068D01*
X495300Y334775D01*
X497527Y335068D01*
X499603Y335928D01*
X501385Y337295D01*
X502753Y339077D01*
X503612Y341153D01*
X503906Y343380D01*
Y346380D01*
X503612Y348608D01*
X502753Y350683D01*
X501385Y352465D01*
X499603Y353833D01*
X497527Y354693D01*
X495300Y354986D01*
D02*
G37*
G36*
X469900D02*
X467673Y354693D01*
X465597Y353833D01*
X463815Y352465D01*
X462447Y350683D01*
X461588Y348608D01*
X461294Y346380D01*
Y343380D01*
X461588Y341153D01*
X462447Y339077D01*
X463815Y337295D01*
X465597Y335928D01*
X467673Y335068D01*
X469900Y334775D01*
X472127Y335068D01*
X474203Y335928D01*
X475985Y337295D01*
X477353Y339077D01*
X478212Y341153D01*
X478506Y343380D01*
Y346380D01*
X478212Y348608D01*
X477353Y350683D01*
X475985Y352465D01*
X474203Y353833D01*
X472127Y354693D01*
X469900Y354986D01*
D02*
G37*
G36*
X444500D02*
X442273Y354693D01*
X440197Y353833D01*
X438415Y352465D01*
X437047Y350683D01*
X436188Y348608D01*
X435894Y346380D01*
Y343380D01*
X436188Y341153D01*
X437047Y339077D01*
X438415Y337295D01*
X440197Y335928D01*
X442273Y335068D01*
X444500Y334775D01*
X446727Y335068D01*
X448803Y335928D01*
X450585Y337295D01*
X451953Y339077D01*
X452812Y341153D01*
X453106Y343380D01*
Y346380D01*
X452812Y348608D01*
X451953Y350683D01*
X450585Y352465D01*
X448803Y353833D01*
X446727Y354693D01*
X444500Y354986D01*
D02*
G37*
G36*
X393700D02*
X391473Y354693D01*
X389397Y353833D01*
X387615Y352465D01*
X386247Y350683D01*
X385388Y348608D01*
X385094Y346380D01*
Y343380D01*
X385388Y341153D01*
X386247Y339077D01*
X387615Y337295D01*
X389397Y335928D01*
X391473Y335068D01*
X393700Y334775D01*
X395927Y335068D01*
X398003Y335928D01*
X399785Y337295D01*
X401153Y339077D01*
X402012Y341153D01*
X402306Y343380D01*
Y346380D01*
X402012Y348608D01*
X401153Y350683D01*
X399785Y352465D01*
X398003Y353833D01*
X395927Y354693D01*
X393700Y354986D01*
D02*
G37*
G36*
X368300D02*
X366073Y354693D01*
X363997Y353833D01*
X362215Y352465D01*
X360847Y350683D01*
X359988Y348608D01*
X359694Y346380D01*
Y343380D01*
X359988Y341153D01*
X360847Y339077D01*
X362215Y337295D01*
X363997Y335928D01*
X366073Y335068D01*
X368300Y334775D01*
X370527Y335068D01*
X372603Y335928D01*
X374385Y337295D01*
X375753Y339077D01*
X376612Y341153D01*
X376906Y343380D01*
Y346380D01*
X376612Y348608D01*
X375753Y350683D01*
X374385Y352465D01*
X372603Y353833D01*
X370527Y354693D01*
X368300Y354986D01*
D02*
G37*
G36*
X342900D02*
X340673Y354693D01*
X338597Y353833D01*
X336815Y352465D01*
X335447Y350683D01*
X334588Y348608D01*
X334294Y346380D01*
Y343380D01*
X334588Y341153D01*
X335447Y339077D01*
X336815Y337295D01*
X338597Y335928D01*
X340673Y335068D01*
X342900Y334775D01*
X345127Y335068D01*
X347203Y335928D01*
X348985Y337295D01*
X350353Y339077D01*
X351212Y341153D01*
X351506Y343380D01*
Y346380D01*
X351212Y348608D01*
X350353Y350683D01*
X348985Y352465D01*
X347203Y353833D01*
X345127Y354693D01*
X342900Y354986D01*
D02*
G37*
G36*
X292100D02*
X289873Y354693D01*
X287797Y353833D01*
X286015Y352465D01*
X284647Y350683D01*
X283788Y348608D01*
X283494Y346380D01*
Y343380D01*
X283788Y341153D01*
X284647Y339077D01*
X286015Y337295D01*
X287797Y335928D01*
X289873Y335068D01*
X292100Y334775D01*
X294327Y335068D01*
X296403Y335928D01*
X298185Y337295D01*
X299553Y339077D01*
X300412Y341153D01*
X300706Y343380D01*
Y346380D01*
X300412Y348608D01*
X299553Y350683D01*
X298185Y352465D01*
X296403Y353833D01*
X294327Y354693D01*
X292100Y354986D01*
D02*
G37*
G36*
X266700D02*
X264473Y354693D01*
X262397Y353833D01*
X260615Y352465D01*
X259247Y350683D01*
X258388Y348608D01*
X258094Y346380D01*
Y343380D01*
X258388Y341153D01*
X259247Y339077D01*
X260615Y337295D01*
X262397Y335928D01*
X264473Y335068D01*
X266700Y334775D01*
X268927Y335068D01*
X271003Y335928D01*
X272785Y337295D01*
X274153Y339077D01*
X275012Y341153D01*
X275306Y343380D01*
Y346380D01*
X275012Y348608D01*
X274153Y350683D01*
X272785Y352465D01*
X271003Y353833D01*
X268927Y354693D01*
X266700Y354986D01*
D02*
G37*
G36*
X241300D02*
X239073Y354693D01*
X236997Y353833D01*
X235215Y352465D01*
X233847Y350683D01*
X232988Y348608D01*
X232694Y346380D01*
Y343380D01*
X232988Y341153D01*
X233847Y339077D01*
X235215Y337295D01*
X236997Y335928D01*
X239073Y335068D01*
X241300Y334775D01*
X243527Y335068D01*
X245603Y335928D01*
X247385Y337295D01*
X248753Y339077D01*
X249612Y341153D01*
X249906Y343380D01*
Y346380D01*
X249612Y348608D01*
X248753Y350683D01*
X247385Y352465D01*
X245603Y353833D01*
X243527Y354693D01*
X241300Y354986D01*
D02*
G37*
G36*
X190500D02*
X188273Y354693D01*
X186197Y353833D01*
X184415Y352465D01*
X183047Y350683D01*
X182188Y348608D01*
X181894Y346380D01*
Y343380D01*
X182188Y341153D01*
X183047Y339077D01*
X184415Y337295D01*
X186197Y335928D01*
X188273Y335068D01*
X190500Y334775D01*
X192727Y335068D01*
X194803Y335928D01*
X196585Y337295D01*
X197953Y339077D01*
X198812Y341153D01*
X199106Y343380D01*
Y346380D01*
X198812Y348608D01*
X197953Y350683D01*
X196585Y352465D01*
X194803Y353833D01*
X192727Y354693D01*
X190500Y354986D01*
D02*
G37*
G36*
X1347303Y351282D02*
X1345096D01*
X1342965Y350711D01*
X1341053Y349607D01*
X1339655Y348209D01*
X1266705D01*
X1264673Y347805D01*
X1262951Y346654D01*
X1262951Y346654D01*
X1220526Y304230D01*
X1219375Y302507D01*
X1218971Y300476D01*
X1218971Y300475D01*
Y275563D01*
X1216152Y272744D01*
Y264616D01*
X1216909Y263860D01*
X1216423Y262686D01*
X1198158D01*
X1194029Y266815D01*
Y292277D01*
X1196848Y295096D01*
Y303224D01*
X1192784Y307288D01*
X1184656D01*
X1180592Y303224D01*
Y295096D01*
X1183411Y292277D01*
Y264616D01*
X1183411Y264616D01*
X1183815Y262585D01*
X1184966Y260862D01*
X1192205Y253623D01*
X1193928Y252472D01*
X1195959Y252068D01*
X1195959Y252068D01*
X1229485D01*
X1229485Y252068D01*
X1231517Y252472D01*
X1233239Y253623D01*
X1235030Y255414D01*
X1235187Y255445D01*
X1236909Y256596D01*
X1281019Y300706D01*
X1282192Y300220D01*
Y295096D01*
X1286256Y291032D01*
X1294384D01*
X1298448Y295096D01*
Y303224D01*
X1294384Y307288D01*
X1289261D01*
X1288775Y308462D01*
X1305204Y324891D01*
X1326955D01*
X1328353Y323493D01*
X1330265Y322389D01*
X1332397Y321818D01*
X1334603D01*
X1336735Y322389D01*
X1338647Y323493D01*
X1340207Y325053D01*
X1341311Y326965D01*
X1341882Y329096D01*
Y331303D01*
X1341311Y333435D01*
X1340207Y335347D01*
X1341053Y336193D01*
X1342965Y335089D01*
X1345096Y334518D01*
X1347303D01*
X1349435Y335089D01*
X1351347Y336193D01*
X1352907Y337753D01*
X1354011Y339665D01*
X1354582Y341796D01*
Y344003D01*
X1354011Y346135D01*
X1352907Y348047D01*
X1351347Y349607D01*
X1349435Y350711D01*
X1347303Y351282D01*
D02*
G37*
G36*
X606018Y343610D02*
X598170D01*
Y334430D01*
X599260Y334573D01*
X601459Y335484D01*
X603347Y336933D01*
X604796Y338821D01*
X605707Y341020D01*
X606018Y343380D01*
Y343610D01*
D02*
G37*
G36*
X595630D02*
X587782D01*
Y343380D01*
X588093Y341020D01*
X589004Y338821D01*
X590453Y336933D01*
X592341Y335484D01*
X594540Y334573D01*
X595630Y334430D01*
Y343610D01*
D02*
G37*
G36*
X428218D02*
X420370D01*
Y334430D01*
X421460Y334573D01*
X423659Y335484D01*
X425547Y336933D01*
X426996Y338821D01*
X427907Y341020D01*
X428218Y343380D01*
Y343610D01*
D02*
G37*
G36*
X417830D02*
X409982D01*
Y343380D01*
X410293Y341020D01*
X411204Y338821D01*
X412653Y336933D01*
X414541Y335484D01*
X416740Y334573D01*
X417830Y334430D01*
Y343610D01*
D02*
G37*
G36*
X225018D02*
X217170D01*
Y334430D01*
X218260Y334573D01*
X220459Y335484D01*
X222347Y336933D01*
X223796Y338821D01*
X224707Y341020D01*
X225018Y343380D01*
Y343610D01*
D02*
G37*
G36*
X214630D02*
X206782D01*
Y343380D01*
X207093Y341020D01*
X208004Y338821D01*
X209453Y336933D01*
X211341Y335484D01*
X213540Y334573D01*
X214630Y334430D01*
Y343610D01*
D02*
G37*
G36*
X1103430Y330262D02*
Y323290D01*
X1110402D01*
X1109885Y325220D01*
X1108794Y327110D01*
X1107250Y328654D01*
X1105360Y329745D01*
X1103430Y330262D01*
D02*
G37*
G36*
X1100890Y330262D02*
X1098960Y329745D01*
X1097070Y328654D01*
X1095527Y327110D01*
X1094435Y325220D01*
X1093918Y323290D01*
X1100890D01*
Y330262D01*
D02*
G37*
G36*
X928370Y327722D02*
Y320750D01*
X935342D01*
X934825Y322680D01*
X933734Y324570D01*
X932190Y326114D01*
X930300Y327205D01*
X928370Y327722D01*
D02*
G37*
G36*
X925830Y327722D02*
X923900Y327205D01*
X922010Y326114D01*
X920467Y324570D01*
X919375Y322680D01*
X918858Y320750D01*
X925830D01*
Y327722D01*
D02*
G37*
G36*
X1100890Y320750D02*
X1093918D01*
X1094435Y318820D01*
X1095527Y316930D01*
X1097070Y315387D01*
X1098960Y314295D01*
X1100890Y313778D01*
Y320750D01*
D02*
G37*
G36*
X1110402D02*
X1103430D01*
Y313778D01*
X1105360Y314295D01*
X1107250Y315387D01*
X1108794Y316930D01*
X1109885Y318820D01*
X1110402Y320750D01*
D02*
G37*
G36*
X935342Y318210D02*
X928370D01*
Y311238D01*
X930300Y311755D01*
X932190Y312847D01*
X933734Y314390D01*
X934825Y316280D01*
X935342Y318210D01*
D02*
G37*
G36*
X925830D02*
X918858D01*
X919375Y316280D01*
X920467Y314390D01*
X922010Y312847D01*
X923900Y311755D01*
X925830Y311238D01*
Y318210D01*
D02*
G37*
G36*
X1533144Y325628D02*
X1525016D01*
X1520952Y321564D01*
Y313436D01*
X1525016Y309372D01*
X1533144D01*
X1537208Y313436D01*
Y321564D01*
X1533144Y325628D01*
D02*
G37*
G36*
X1431544D02*
X1423416D01*
X1419352Y321564D01*
Y313436D01*
X1423416Y309372D01*
X1431544D01*
X1435608Y313436D01*
Y321564D01*
X1431544Y325628D01*
D02*
G37*
G36*
X842264Y322528D02*
X834136D01*
X830072Y318464D01*
Y310336D01*
X834136Y306272D01*
X842264D01*
X846328Y310336D01*
Y318464D01*
X842264Y322528D01*
D02*
G37*
G36*
X1362710Y307402D02*
Y300430D01*
X1369682D01*
X1369165Y302360D01*
X1368074Y304250D01*
X1366530Y305794D01*
X1364640Y306885D01*
X1362710Y307402D01*
D02*
G37*
G36*
X1360170D02*
X1358240Y306885D01*
X1356350Y305794D01*
X1354807Y304250D01*
X1353715Y302360D01*
X1353198Y300430D01*
X1360170D01*
Y307402D01*
D02*
G37*
G36*
X2007871Y314452D02*
X2005329D01*
X2002874Y313794D01*
X2000674Y312523D01*
X1998876Y310727D01*
X1997606Y308526D01*
X1996948Y306071D01*
Y303529D01*
X1997606Y301075D01*
X1998876Y298874D01*
X2000674Y297076D01*
X2002874Y295806D01*
X2005329Y295148D01*
X2007871D01*
X2010325Y295806D01*
X2012527Y297076D01*
X2014323Y298874D01*
X2015594Y301075D01*
X2016252Y303529D01*
Y306071D01*
X2015594Y308526D01*
X2014323Y310727D01*
X2012527Y312523D01*
X2010325Y313794D01*
X2007871Y314452D01*
D02*
G37*
G36*
X335804Y292608D02*
X333597D01*
X331465Y292037D01*
X329553Y290933D01*
X328087Y289467D01*
X327650Y289332D01*
X327019D01*
X326581Y289467D01*
X325115Y290933D01*
X323203Y292037D01*
X321072Y292608D01*
X318865D01*
X316733Y292037D01*
X314821Y290933D01*
X313261Y289373D01*
X312157Y287461D01*
X311586Y285329D01*
Y283123D01*
X312157Y280991D01*
X313261Y279079D01*
X314659Y277681D01*
Y197214D01*
X307681Y190236D01*
X271287D01*
X271287Y190236D01*
X269255Y189832D01*
X267533Y188681D01*
X267533Y188681D01*
X237579Y158727D01*
X236428Y157004D01*
X236024Y154973D01*
X236024Y154973D01*
Y153113D01*
X234247Y152088D01*
X232417Y150257D01*
X231122Y148015D01*
X230452Y145515D01*
Y142926D01*
X231122Y140425D01*
X232417Y138183D01*
X234247Y136353D01*
X236489Y135058D01*
X238990Y134388D01*
X241579D01*
X244079Y135058D01*
X246321Y136353D01*
X248152Y138183D01*
X249446Y140425D01*
X250116Y142926D01*
Y145515D01*
X249446Y148015D01*
X248152Y150257D01*
X246642Y151767D01*
Y152774D01*
X273486Y179618D01*
X309880D01*
X309880Y179618D01*
X311912Y180022D01*
X313634Y181173D01*
X323722Y191261D01*
X323722Y191261D01*
X324873Y192983D01*
X325277Y195015D01*
Y277681D01*
X326581Y278985D01*
X327019Y279120D01*
X327650D01*
X328087Y278985D01*
X329553Y277519D01*
X331074Y276641D01*
Y163938D01*
X320431Y153295D01*
X320279Y153382D01*
X317779Y154052D01*
X315190D01*
X312689Y153382D01*
X310447Y152088D01*
X308617Y150257D01*
X307322Y148015D01*
X306652Y145515D01*
Y142926D01*
X307322Y140425D01*
X308617Y138183D01*
X310447Y136353D01*
X312689Y135058D01*
X315190Y134388D01*
X317779D01*
X320279Y135058D01*
X322521Y136353D01*
X324352Y138183D01*
X325646Y140425D01*
X326316Y142926D01*
Y145515D01*
X325646Y148015D01*
X325559Y148167D01*
X336989Y159597D01*
X338074Y159265D01*
X338259Y159126D01*
Y153428D01*
X338089Y153382D01*
X335847Y152088D01*
X334017Y150257D01*
X332722Y148015D01*
X332052Y145515D01*
Y142926D01*
X332722Y140425D01*
X334017Y138183D01*
X335847Y136353D01*
X338089Y135058D01*
X340590Y134388D01*
X343179D01*
X345679Y135058D01*
X347921Y136353D01*
X349752Y138183D01*
X351046Y140425D01*
X351716Y142926D01*
Y145515D01*
X351046Y148015D01*
X349752Y150257D01*
X347921Y152088D01*
X345679Y153382D01*
X345510Y153428D01*
Y268500D01*
X352546Y275537D01*
X354243Y275082D01*
X356450D01*
X358581Y275653D01*
X360493Y276757D01*
X362053Y278317D01*
X363157Y280229D01*
X363325Y280855D01*
X364640D01*
X364807Y280229D01*
X365911Y278317D01*
X367471Y276757D01*
X368992Y275879D01*
Y217480D01*
X364720Y213208D01*
X363935Y212032D01*
X363659Y210644D01*
X363659Y210644D01*
Y153428D01*
X363489Y153382D01*
X361247Y152088D01*
X359417Y150257D01*
X358122Y148015D01*
X357452Y145515D01*
Y142926D01*
X358122Y140425D01*
X359417Y138183D01*
X361247Y136353D01*
X363489Y135058D01*
X365990Y134388D01*
X368579D01*
X371079Y135058D01*
X373321Y136353D01*
X375152Y138183D01*
X376446Y140425D01*
X377116Y142926D01*
Y145515D01*
X376446Y148015D01*
X375152Y150257D01*
X373321Y152088D01*
X371079Y153382D01*
X370910Y153428D01*
Y209142D01*
X375182Y213414D01*
X375182Y213414D01*
X375968Y214590D01*
X376244Y215978D01*
X376244Y215978D01*
Y275879D01*
X377765Y276757D01*
X379231Y278223D01*
X379669Y278358D01*
X380299D01*
X380737Y278223D01*
X382203Y276757D01*
X383724Y275879D01*
Y215978D01*
X383724Y215978D01*
X384000Y214591D01*
X384786Y213414D01*
X389059Y209142D01*
Y153428D01*
X388889Y153382D01*
X386647Y152088D01*
X384817Y150257D01*
X383522Y148015D01*
X382852Y145515D01*
Y142926D01*
X383522Y140425D01*
X384817Y138183D01*
X386647Y136353D01*
X388889Y135058D01*
X391390Y134388D01*
X393979D01*
X396479Y135058D01*
X398721Y136353D01*
X400552Y138183D01*
X401846Y140425D01*
X402516Y142926D01*
Y145515D01*
X401846Y148015D01*
X400552Y150257D01*
X398721Y152088D01*
X396479Y153382D01*
X396310Y153428D01*
Y210644D01*
X396310Y210644D01*
X396034Y212031D01*
X395248Y213208D01*
X390976Y217480D01*
Y275879D01*
X392497Y276757D01*
X394057Y278317D01*
X395161Y280229D01*
X395732Y282360D01*
Y284568D01*
X395161Y286699D01*
X394057Y288611D01*
X392497Y290171D01*
X390585Y291275D01*
X388453Y291846D01*
X386246D01*
X384115Y291275D01*
X382203Y290171D01*
X380737Y288705D01*
X380299Y288570D01*
X379669D01*
X379231Y288705D01*
X377765Y290171D01*
X375853Y291275D01*
X373722Y291846D01*
X371515D01*
X369383Y291275D01*
X367471Y290171D01*
X365911Y288611D01*
X364807Y286699D01*
X364640Y286073D01*
X363325D01*
X363157Y286699D01*
X362053Y288611D01*
X360493Y290171D01*
X358581Y291275D01*
X356450Y291846D01*
X354243D01*
X352111Y291275D01*
X350199Y290171D01*
X348639Y288611D01*
X347535Y286699D01*
X346964Y284568D01*
Y282360D01*
X347419Y280664D01*
X339596Y272841D01*
X338510Y273174D01*
X338326Y273312D01*
Y276641D01*
X339847Y277519D01*
X341407Y279079D01*
X342511Y280991D01*
X343082Y283123D01*
Y285329D01*
X342511Y287461D01*
X341407Y289373D01*
X339847Y290933D01*
X337935Y292037D01*
X335804Y292608D01*
D02*
G37*
G36*
X458303Y291846D02*
X456096D01*
X453965Y291275D01*
X452053Y290171D01*
X450493Y288611D01*
X449389Y286699D01*
X448818Y284568D01*
Y282360D01*
X449350Y280375D01*
X437039Y268065D01*
X436310Y266972D01*
X436053Y265684D01*
Y151819D01*
X436240Y150880D01*
X435617Y150257D01*
X434322Y148015D01*
X433652Y145515D01*
Y142926D01*
X434322Y140425D01*
X435617Y138183D01*
X437447Y136353D01*
X439689Y135058D01*
X442190Y134388D01*
X444779D01*
X447279Y135058D01*
X449521Y136353D01*
X451352Y138183D01*
X452646Y140425D01*
X453316Y142926D01*
Y145515D01*
X452646Y148015D01*
X451352Y150257D01*
X449521Y152088D01*
X447279Y153382D01*
X444779Y154052D01*
X442787D01*
Y264289D01*
X454111Y275614D01*
X456096Y275082D01*
X458303D01*
X460435Y275653D01*
X462347Y276757D01*
X463907Y278317D01*
X465011Y280229D01*
X465582Y282360D01*
Y284568D01*
X465011Y286699D01*
X463907Y288611D01*
X462347Y290171D01*
X460435Y291275D01*
X458303Y291846D01*
D02*
G37*
G36*
X1088644Y286968D02*
X1080516D01*
X1076452Y282904D01*
Y274776D01*
X1080516Y270712D01*
X1088644D01*
X1092708Y274776D01*
Y282904D01*
X1088644Y286968D01*
D02*
G37*
G36*
X987044D02*
X978916D01*
X974852Y282904D01*
Y274776D01*
X978916Y270712D01*
X987044D01*
X991108Y274776D01*
Y282904D01*
X987044Y286968D01*
D02*
G37*
G36*
X2007871Y289052D02*
X2005329D01*
X2002874Y288394D01*
X2000674Y287124D01*
X1998876Y285326D01*
X1997606Y283125D01*
X1996948Y280671D01*
Y278129D01*
X1997606Y275674D01*
X1998876Y273473D01*
X2000674Y271677D01*
X2002874Y270406D01*
X2005329Y269748D01*
X2007871D01*
X2010325Y270406D01*
X2012527Y271677D01*
X2014323Y273473D01*
X2015594Y275674D01*
X2016252Y278129D01*
Y280671D01*
X2015594Y283125D01*
X2014323Y285326D01*
X2012527Y287124D01*
X2010325Y288394D01*
X2007871Y289052D01*
D02*
G37*
G36*
X943864Y284428D02*
X935736D01*
X931672Y280364D01*
Y272236D01*
X935736Y268172D01*
X943864D01*
X947928Y272236D01*
Y280364D01*
X943864Y284428D01*
D02*
G37*
G36*
X842264D02*
X834136D01*
X830072Y280364D01*
Y272236D01*
X834136Y268172D01*
X842264D01*
X846328Y272236D01*
Y280364D01*
X842264Y284428D01*
D02*
G37*
G36*
X1533144Y282448D02*
X1525016D01*
X1520952Y278384D01*
Y270256D01*
X1525016Y266192D01*
X1533144D01*
X1537208Y270256D01*
Y278384D01*
X1533144Y282448D01*
D02*
G37*
G36*
X1369682Y297890D02*
X1361440D01*
X1353198D01*
X1353715Y295960D01*
X1354807Y294070D01*
X1356350Y292527D01*
X1357788Y291696D01*
X1357448Y290426D01*
X1342317D01*
X1340286Y290022D01*
X1338563Y288871D01*
X1338563Y288871D01*
X1326500Y276808D01*
X1321816D01*
X1317752Y272744D01*
Y264616D01*
X1321816Y260552D01*
X1329944D01*
X1334008Y264616D01*
Y269300D01*
X1344516Y279808D01*
X1354419D01*
X1354982Y278538D01*
X1354189Y277164D01*
X1353658Y275185D01*
Y273136D01*
X1354189Y271157D01*
X1355213Y269382D01*
X1356662Y267933D01*
X1358436Y266909D01*
X1360416Y266378D01*
X1362465D01*
X1364444Y266909D01*
X1366219Y267933D01*
X1367667Y269382D01*
X1368692Y271157D01*
X1369103Y272689D01*
X1370399Y273189D01*
X1373022Y270566D01*
X1373022Y270566D01*
X1374744Y269415D01*
X1376776Y269011D01*
X1376776Y269011D01*
X1420597D01*
X1423416Y266192D01*
X1431544D01*
X1434363Y269011D01*
X1434508D01*
X1436540Y269415D01*
X1438262Y270566D01*
X1439413Y272288D01*
X1439817Y274320D01*
X1439413Y276352D01*
X1438262Y278074D01*
X1436540Y279225D01*
X1434508Y279629D01*
X1434363D01*
X1431544Y282448D01*
X1423416D01*
X1420597Y279629D01*
X1378975D01*
X1369733Y288871D01*
X1368010Y290022D01*
X1365979Y290426D01*
X1365979Y290426D01*
X1365432D01*
X1365092Y291696D01*
X1366530Y292527D01*
X1368074Y294070D01*
X1369165Y295960D01*
X1369682Y297890D01*
D02*
G37*
G36*
X647788Y282142D02*
X645581D01*
X643449Y281571D01*
X641538Y280467D01*
X639977Y278907D01*
X638873Y276996D01*
X638302Y274864D01*
Y272657D01*
X638873Y270525D01*
X639977Y268614D01*
X641538Y267053D01*
X643449Y265949D01*
X645581Y265378D01*
X647558D01*
X656774Y256162D01*
X656774Y256162D01*
X658496Y255012D01*
X658859Y254939D01*
X658734Y253669D01*
X648909D01*
X648625Y253613D01*
X642301Y259937D01*
Y261914D01*
X641730Y264046D01*
X640626Y265957D01*
X639065Y267518D01*
X637154Y268621D01*
X635022Y269193D01*
X632815D01*
X630683Y268621D01*
X628772Y267518D01*
X627211Y265957D01*
X626108Y264046D01*
X625537Y261914D01*
Y259707D01*
X626108Y257575D01*
X627211Y255664D01*
X628772Y254103D01*
X630683Y253000D01*
X632815Y252429D01*
X634793D01*
X642773Y244449D01*
X644495Y243298D01*
X646527Y242894D01*
X648114Y243209D01*
X648909Y243051D01*
X666092D01*
X666178Y242902D01*
X667739Y241342D01*
X669650Y240238D01*
X671782Y239667D01*
X673989D01*
X676121Y240238D01*
X678032Y241342D01*
X679593Y242902D01*
X680696Y244814D01*
X681267Y246945D01*
Y249152D01*
X680969Y250264D01*
X681944Y251534D01*
X682718D01*
X684850Y252106D01*
X686761Y253209D01*
X688322Y254770D01*
X689425Y256681D01*
X689996Y258813D01*
Y261020D01*
X689425Y263152D01*
X688322Y265063D01*
X686761Y266624D01*
X684850Y267727D01*
X682718Y268298D01*
X680511D01*
X678379Y267727D01*
X676468Y266624D01*
X675070Y265225D01*
X662727D01*
X655066Y272886D01*
Y274864D01*
X654495Y276996D01*
X653391Y278907D01*
X651831Y280467D01*
X649920Y281571D01*
X647788Y282142D01*
D02*
G37*
G36*
X2007871Y263652D02*
X2005329D01*
X2002874Y262994D01*
X2000674Y261723D01*
X1998876Y259926D01*
X1997606Y257726D01*
X1996948Y255271D01*
Y252729D01*
X1997606Y250275D01*
X1998876Y248074D01*
X2000674Y246276D01*
X2002874Y245006D01*
X2005329Y244348D01*
X2007871D01*
X2010325Y245006D01*
X2012527Y246276D01*
X2014323Y248074D01*
X2015594Y250275D01*
X2016252Y252729D01*
Y255271D01*
X2015594Y257726D01*
X2014323Y259926D01*
X2012527Y261723D01*
X2010325Y262994D01*
X2007871Y263652D01*
D02*
G37*
G36*
X1157022Y237840D02*
X1156970D01*
Y229070D01*
X1165740D01*
Y229122D01*
X1165056Y231675D01*
X1163734Y233965D01*
X1161865Y235834D01*
X1159575Y237156D01*
X1157022Y237840D01*
D02*
G37*
G36*
X1154430D02*
X1154378D01*
X1151825Y237156D01*
X1149535Y235834D01*
X1147666Y233965D01*
X1146344Y231675D01*
X1145660Y229122D01*
Y229070D01*
X1154430D01*
Y237840D01*
D02*
G37*
G36*
X2007871Y238252D02*
X2005329D01*
X2002874Y237594D01*
X2000674Y236324D01*
X1998876Y234527D01*
X1997606Y232325D01*
X1996948Y229871D01*
Y227329D01*
X1997606Y224874D01*
X1998876Y222673D01*
X2000674Y220877D01*
X2002874Y219606D01*
X2005329Y218948D01*
X2007871D01*
X2010325Y219606D01*
X2012527Y220877D01*
X2014323Y222673D01*
X2015594Y224874D01*
X2016252Y227329D01*
Y229871D01*
X2015594Y232325D01*
X2014323Y234527D01*
X2012527Y236324D01*
X2010325Y237594D01*
X2007871Y238252D01*
D02*
G37*
G36*
X1423655Y237332D02*
X1421145D01*
X1418721Y236682D01*
X1416547Y235427D01*
X1414772Y233653D01*
X1413518Y231479D01*
X1412868Y229055D01*
Y226545D01*
X1413518Y224121D01*
X1414772Y221947D01*
X1416547Y220173D01*
X1418721Y218918D01*
X1421145Y218268D01*
X1423655D01*
X1426079Y218918D01*
X1428253Y220173D01*
X1430027Y221947D01*
X1431282Y224121D01*
X1431932Y226545D01*
Y229055D01*
X1431282Y231479D01*
X1430027Y233653D01*
X1428253Y235427D01*
X1426079Y236682D01*
X1423655Y237332D01*
D02*
G37*
G36*
X1347455D02*
X1344945D01*
X1342521Y236682D01*
X1340347Y235427D01*
X1338573Y233653D01*
X1337318Y231479D01*
X1336668Y229055D01*
Y226545D01*
X1337318Y224121D01*
X1338573Y221947D01*
X1340347Y220173D01*
X1342521Y218918D01*
X1344945Y218268D01*
X1347455D01*
X1349879Y218918D01*
X1352053Y220173D01*
X1353828Y221947D01*
X1355082Y224121D01*
X1355732Y226545D01*
Y229055D01*
X1355082Y231479D01*
X1353828Y233653D01*
X1352053Y235427D01*
X1349879Y236682D01*
X1347455Y237332D01*
D02*
G37*
G36*
X1233155D02*
X1230645D01*
X1228221Y236682D01*
X1226047Y235427D01*
X1224273Y233653D01*
X1223018Y231479D01*
X1222368Y229055D01*
Y226545D01*
X1223018Y224121D01*
X1224273Y221947D01*
X1226047Y220173D01*
X1228221Y218918D01*
X1230645Y218268D01*
X1233155D01*
X1235579Y218918D01*
X1237753Y220173D01*
X1239528Y221947D01*
X1240782Y224121D01*
X1241432Y226545D01*
Y229055D01*
X1240782Y231479D01*
X1239528Y233653D01*
X1237753Y235427D01*
X1235579Y236682D01*
X1233155Y237332D01*
D02*
G37*
G36*
X883505Y237032D02*
X880995D01*
X878571Y236382D01*
X876397Y235128D01*
X874622Y233353D01*
X873368Y231179D01*
X872718Y228755D01*
Y226245D01*
X873368Y223821D01*
X874622Y221647D01*
X876397Y219872D01*
X878571Y218618D01*
X880995Y217968D01*
X883505D01*
X885929Y218618D01*
X888103Y219872D01*
X889877Y221647D01*
X891132Y223821D01*
X891782Y226245D01*
Y228755D01*
X891132Y231179D01*
X889877Y233353D01*
X888103Y235128D01*
X885929Y236382D01*
X883505Y237032D01*
D02*
G37*
G36*
X1165740Y226530D02*
X1156970D01*
Y217760D01*
X1157022D01*
X1159575Y218444D01*
X1161865Y219766D01*
X1163734Y221635D01*
X1165056Y223925D01*
X1165740Y226478D01*
Y226530D01*
D02*
G37*
G36*
X1154430D02*
X1145660D01*
Y226478D01*
X1146344Y223925D01*
X1147666Y221635D01*
X1149535Y219766D01*
X1151825Y218444D01*
X1154378Y217760D01*
X1154430D01*
Y226530D01*
D02*
G37*
G36*
X1030224Y317448D02*
X1022096D01*
X1018032Y313384D01*
Y305256D01*
X1022096Y301192D01*
X1026780D01*
X1036091Y291881D01*
Y237175D01*
X1035905Y237032D01*
X1033395D01*
X1030971Y236382D01*
X1028797Y235128D01*
X1027022Y233353D01*
X1025768Y231179D01*
X1025118Y228755D01*
Y226245D01*
X1025768Y223821D01*
X1027022Y221647D01*
X1028797Y219872D01*
X1030971Y218618D01*
X1033395Y217968D01*
X1033880D01*
X1033955Y217589D01*
X1035106Y215866D01*
X1036829Y214715D01*
X1038860Y214311D01*
X1040892Y214715D01*
X1042614Y215866D01*
X1044269Y217521D01*
X1044269Y217521D01*
X1045420Y219244D01*
X1045824Y221275D01*
X1045824Y221276D01*
Y224914D01*
X1046305Y225633D01*
X1046709Y227665D01*
X1046709Y227665D01*
Y294080D01*
X1046709Y294081D01*
X1046305Y296112D01*
X1045154Y297835D01*
X1034288Y308700D01*
Y313384D01*
X1030224Y317448D01*
D02*
G37*
G36*
X2007871Y212852D02*
X2005329D01*
X2002874Y212194D01*
X2000674Y210924D01*
X1998876Y209126D01*
X1997606Y206926D01*
X1996948Y204471D01*
Y201929D01*
X1997606Y199475D01*
X1998876Y197274D01*
X2000674Y195476D01*
X2002874Y194206D01*
X2005329Y193548D01*
X2007871D01*
X2010325Y194206D01*
X2012527Y195476D01*
X2014323Y197274D01*
X2015594Y199475D01*
X2016252Y201929D01*
Y204471D01*
X2015594Y206926D01*
X2014323Y209126D01*
X2012527Y210924D01*
X2010325Y212194D01*
X2007871Y212852D01*
D02*
G37*
G36*
X604884Y188162D02*
X602677D01*
X600545Y187591D01*
X598634Y186488D01*
X597236Y185089D01*
X503369D01*
X501971Y186488D01*
X500060Y187591D01*
X497928Y188162D01*
X495721D01*
X493589Y187591D01*
X491678Y186488D01*
X490117Y184927D01*
X489013Y183016D01*
X488442Y180884D01*
Y178677D01*
X489013Y176545D01*
X490117Y174634D01*
X491678Y173073D01*
X493589Y171970D01*
X495721Y171398D01*
X497928D01*
X500060Y171970D01*
X501971Y173073D01*
X503369Y174471D01*
X506978D01*
X507504Y173201D01*
X506530Y172227D01*
X505426Y170316D01*
X504855Y168184D01*
Y165977D01*
X505426Y163845D01*
X506530Y161934D01*
X508090Y160373D01*
X510001Y159270D01*
X512133Y158698D01*
X514111D01*
X517103Y155706D01*
X517834Y155218D01*
X517606Y153842D01*
X515889Y153382D01*
X513647Y152088D01*
X511817Y150257D01*
X510522Y148015D01*
X509852Y145515D01*
Y142926D01*
X510522Y140425D01*
X511817Y138183D01*
X513647Y136353D01*
X515889Y135058D01*
X518390Y134388D01*
X520979D01*
X523479Y135058D01*
X525721Y136353D01*
X527552Y138183D01*
X528846Y140425D01*
X529516Y142926D01*
Y145515D01*
X528846Y148015D01*
X527552Y150257D01*
X525721Y152088D01*
X524347Y152881D01*
X524687Y154151D01*
X540081D01*
X540422Y152881D01*
X539047Y152088D01*
X537217Y150257D01*
X535922Y148015D01*
X535252Y145515D01*
Y142926D01*
X535922Y140425D01*
X537217Y138183D01*
X539047Y136353D01*
X541289Y135058D01*
X543790Y134388D01*
X546379D01*
X548879Y135058D01*
X551121Y136353D01*
X552952Y138183D01*
X554246Y140425D01*
X554916Y142926D01*
Y145515D01*
X554246Y148015D01*
X552952Y150257D01*
X551121Y152088D01*
X549747Y152881D01*
X550087Y154151D01*
X594419D01*
X595818Y152753D01*
X597729Y151650D01*
X599861Y151078D01*
X602068D01*
X604200Y151650D01*
X606111Y152753D01*
X607672Y154314D01*
X608775Y156225D01*
X609346Y158357D01*
Y160564D01*
X608775Y162696D01*
X607672Y164607D01*
X606111Y166168D01*
X604200Y167271D01*
X602068Y167842D01*
X599861D01*
X597729Y167271D01*
X595818Y166168D01*
X594419Y164769D01*
X523056D01*
X521619Y166206D01*
Y168184D01*
X521048Y170316D01*
X519944Y172227D01*
X518970Y173201D01*
X519496Y174471D01*
X597236D01*
X598634Y173073D01*
X600545Y171970D01*
X602677Y171398D01*
X604884D01*
X607016Y171970D01*
X608927Y173073D01*
X610488Y174634D01*
X611591Y176545D01*
X612163Y178677D01*
Y180884D01*
X611591Y183016D01*
X610488Y184927D01*
X608927Y186488D01*
X607016Y187591D01*
X604884Y188162D01*
D02*
G37*
G36*
X1464250Y187963D02*
X1461770D01*
Y179070D01*
X1470663D01*
Y181550D01*
X1470175Y184004D01*
X1468785Y186085D01*
X1466704Y187475D01*
X1464250Y187963D01*
D02*
G37*
G36*
X1459230D02*
X1456750D01*
X1454296Y187475D01*
X1452215Y186085D01*
X1450825Y184004D01*
X1450337Y181550D01*
Y179070D01*
X1459230D01*
Y187963D01*
D02*
G37*
G36*
X1385622Y187840D02*
X1385570D01*
Y179070D01*
X1394340D01*
Y179122D01*
X1393656Y181675D01*
X1392334Y183965D01*
X1390465Y185834D01*
X1388175Y187156D01*
X1385622Y187840D01*
D02*
G37*
G36*
X1383030D02*
X1382978D01*
X1380425Y187156D01*
X1378135Y185834D01*
X1376266Y183965D01*
X1374944Y181675D01*
X1374260Y179122D01*
Y179070D01*
X1383030D01*
Y187840D01*
D02*
G37*
G36*
X997872Y187540D02*
X997820D01*
Y178770D01*
X1006590D01*
Y178822D01*
X1005906Y181375D01*
X1004584Y183665D01*
X1002715Y185534D01*
X1000425Y186856D01*
X997872Y187540D01*
D02*
G37*
G36*
X995280D02*
X995228D01*
X992675Y186856D01*
X990385Y185534D01*
X988516Y183665D01*
X987194Y181375D01*
X986510Y178822D01*
Y178770D01*
X995280D01*
Y187540D01*
D02*
G37*
G36*
X845472D02*
X845420D01*
Y178770D01*
X854190D01*
Y178822D01*
X853506Y181375D01*
X852184Y183665D01*
X850315Y185534D01*
X848025Y186856D01*
X845472Y187540D01*
D02*
G37*
G36*
X842880D02*
X842828D01*
X840275Y186856D01*
X837985Y185534D01*
X836116Y183665D01*
X834794Y181375D01*
X834110Y178822D01*
Y178770D01*
X842880D01*
Y187540D01*
D02*
G37*
G36*
X1195055Y187332D02*
X1192545D01*
X1190121Y186682D01*
X1187947Y185427D01*
X1186172Y183653D01*
X1184918Y181479D01*
X1184268Y179055D01*
Y176545D01*
X1184918Y174121D01*
X1186172Y171947D01*
X1187947Y170173D01*
X1190121Y168918D01*
X1192545Y168268D01*
X1195055D01*
X1197479Y168918D01*
X1199653Y170173D01*
X1201428Y171947D01*
X1202682Y174121D01*
X1203332Y176545D01*
Y179055D01*
X1202682Y181479D01*
X1201428Y183653D01*
X1199653Y185427D01*
X1197479Y186682D01*
X1195055Y187332D01*
D02*
G37*
G36*
X1273750Y187445D02*
X1266250D01*
X1263994Y186996D01*
X1262081Y185719D01*
X1260804Y183806D01*
X1260355Y181550D01*
Y174050D01*
X1260804Y171794D01*
X1262081Y169881D01*
X1263994Y168603D01*
X1266250Y168155D01*
X1273750D01*
X1276006Y168603D01*
X1277919Y169881D01*
X1279196Y171794D01*
X1279645Y174050D01*
Y181550D01*
X1279196Y183806D01*
X1277919Y185719D01*
X1276006Y186996D01*
X1273750Y187445D01*
D02*
G37*
G36*
X2007871Y187452D02*
X2005329D01*
X2002874Y186794D01*
X2000674Y185523D01*
X1998876Y183727D01*
X1997606Y181525D01*
X1996948Y179071D01*
Y176529D01*
X1997606Y174074D01*
X1998876Y171873D01*
X2000674Y170077D01*
X2002874Y168806D01*
X2005329Y168148D01*
X2007871D01*
X2010325Y168806D01*
X2012527Y170077D01*
X2014323Y171873D01*
X2015594Y174074D01*
X2016252Y176529D01*
Y179071D01*
X2015594Y181525D01*
X2014323Y183727D01*
X2012527Y185523D01*
X2010325Y186794D01*
X2007871Y187452D01*
D02*
G37*
G36*
X1081024Y365708D02*
X1072896D01*
X1068832Y361644D01*
Y353516D01*
X1071751Y350597D01*
Y327617D01*
X1070933Y326799D01*
X1069909Y325024D01*
X1069378Y323045D01*
Y321746D01*
X1052886Y305254D01*
X1051735Y303532D01*
X1051331Y301500D01*
X1051331Y301500D01*
Y189940D01*
X1051331Y189940D01*
X1051735Y187909D01*
X1052886Y186186D01*
X1061356Y177716D01*
X1061356Y177716D01*
X1063079Y176565D01*
X1063105Y176560D01*
Y173750D01*
X1063553Y171494D01*
X1064831Y169581D01*
X1066744Y168304D01*
X1069000Y167855D01*
X1076500D01*
X1078756Y168304D01*
X1080669Y169581D01*
X1081946Y171494D01*
X1082395Y173750D01*
Y181250D01*
X1081946Y183506D01*
X1080669Y185419D01*
X1078756Y186696D01*
X1076500Y187145D01*
X1069000D01*
X1067284Y186804D01*
X1061949Y192139D01*
Y299301D01*
X1076886Y314238D01*
X1078185D01*
X1080164Y314769D01*
X1081938Y315793D01*
X1083387Y317242D01*
X1084412Y319016D01*
X1084942Y320996D01*
Y323045D01*
X1084412Y325024D01*
X1083387Y326799D01*
X1082369Y327817D01*
Y350797D01*
X1085088Y353516D01*
Y361644D01*
X1081024Y365708D01*
D02*
G37*
G36*
X903125Y327262D02*
X901076D01*
X899097Y326732D01*
X897322Y325707D01*
X895873Y324258D01*
X894849Y322484D01*
X894318Y320505D01*
Y318456D01*
X894849Y316476D01*
X895873Y314702D01*
X896791Y313784D01*
Y247933D01*
X896791Y247933D01*
X897195Y245901D01*
X898346Y244179D01*
X915441Y227084D01*
Y186915D01*
X914344Y186696D01*
X912431Y185419D01*
X911153Y183506D01*
X910705Y181250D01*
Y173750D01*
X911153Y171494D01*
X912431Y169581D01*
X914344Y168304D01*
X916600Y167855D01*
X924100D01*
X926356Y168304D01*
X928269Y169581D01*
X929547Y171494D01*
X929995Y173750D01*
Y181250D01*
X929547Y183506D01*
X928269Y185419D01*
X926356Y186696D01*
X926059Y186756D01*
Y229283D01*
X926059Y229283D01*
X925655Y231315D01*
X924504Y233037D01*
X907409Y250132D01*
Y313784D01*
X908327Y314702D01*
X909352Y316476D01*
X909882Y318456D01*
Y320505D01*
X909352Y322484D01*
X908327Y324258D01*
X906879Y325707D01*
X905104Y326732D01*
X903125Y327262D01*
D02*
G37*
G36*
X1394340Y176530D02*
X1385570D01*
Y167760D01*
X1385622D01*
X1388175Y168444D01*
X1390465Y169766D01*
X1392334Y171635D01*
X1393656Y173925D01*
X1394340Y176478D01*
Y176530D01*
D02*
G37*
G36*
X1383030D02*
X1374260D01*
Y176478D01*
X1374944Y173925D01*
X1376266Y171635D01*
X1378135Y169766D01*
X1380425Y168444D01*
X1382978Y167760D01*
X1383030D01*
Y176530D01*
D02*
G37*
G36*
X1470663D02*
X1461770D01*
Y167637D01*
X1464250D01*
X1466704Y168125D01*
X1468785Y169515D01*
X1470175Y171596D01*
X1470663Y174050D01*
Y176530D01*
D02*
G37*
G36*
X1459230D02*
X1450337D01*
Y174050D01*
X1450825Y171596D01*
X1452215Y169515D01*
X1454296Y168125D01*
X1456750Y167637D01*
X1459230D01*
Y176530D01*
D02*
G37*
G36*
X1006590Y176230D02*
X997820D01*
Y167460D01*
X997872D01*
X1000425Y168144D01*
X1002715Y169466D01*
X1004584Y171335D01*
X1005906Y173625D01*
X1006590Y176178D01*
Y176230D01*
D02*
G37*
G36*
X995280D02*
X986510D01*
Y176178D01*
X987194Y173625D01*
X988516Y171335D01*
X990385Y169466D01*
X992675Y168144D01*
X995228Y167460D01*
X995280D01*
Y176230D01*
D02*
G37*
G36*
X854190D02*
X845420D01*
Y167460D01*
X845472D01*
X848025Y168144D01*
X850315Y169466D01*
X852184Y171335D01*
X853506Y173625D01*
X854190Y176178D01*
Y176230D01*
D02*
G37*
G36*
X842880D02*
X834110D01*
Y176178D01*
X834794Y173625D01*
X836116Y171335D01*
X837985Y169466D01*
X840275Y168144D01*
X842828Y167460D01*
X842880D01*
Y176230D01*
D02*
G37*
G36*
X2016760Y162560D02*
X2007870D01*
Y153670D01*
X2016760D01*
Y162560D01*
D02*
G37*
G36*
X2005330D02*
X1996440D01*
Y153670D01*
X2005330D01*
Y162560D01*
D02*
G37*
G36*
X419445Y154560D02*
X419354D01*
Y145490D01*
X428424D01*
Y145582D01*
X427720Y148211D01*
X426358Y150569D01*
X424433Y152494D01*
X422075Y153856D01*
X419445Y154560D01*
D02*
G37*
G36*
X416814D02*
X416723D01*
X414093Y153856D01*
X411735Y152494D01*
X409810Y150569D01*
X408449Y148211D01*
X407744Y145582D01*
Y145490D01*
X416814D01*
Y154560D01*
D02*
G37*
G36*
X2016760Y151130D02*
X2007870D01*
Y142240D01*
X2016760D01*
Y151130D01*
D02*
G37*
G36*
X2005330D02*
X1996440D01*
Y142240D01*
X2005330D01*
Y151130D01*
D02*
G37*
G36*
X495579Y154052D02*
X492990D01*
X490489Y153382D01*
X488247Y152088D01*
X486417Y150257D01*
X485122Y148015D01*
X484452Y145515D01*
Y142926D01*
X485122Y140425D01*
X486417Y138183D01*
X488247Y136353D01*
X490489Y135058D01*
X492990Y134388D01*
X495579D01*
X498079Y135058D01*
X500321Y136353D01*
X502152Y138183D01*
X503446Y140425D01*
X504116Y142926D01*
Y145515D01*
X503446Y148015D01*
X502152Y150257D01*
X500321Y152088D01*
X498079Y153382D01*
X495579Y154052D01*
D02*
G37*
G36*
X470179D02*
X467590D01*
X465089Y153382D01*
X462847Y152088D01*
X461017Y150257D01*
X459722Y148015D01*
X459052Y145515D01*
Y142926D01*
X459722Y140425D01*
X461017Y138183D01*
X462847Y136353D01*
X465089Y135058D01*
X467590Y134388D01*
X470179D01*
X472679Y135058D01*
X474921Y136353D01*
X476752Y138183D01*
X478046Y140425D01*
X478716Y142926D01*
Y145515D01*
X478046Y148015D01*
X476752Y150257D01*
X474921Y152088D01*
X472679Y153382D01*
X470179Y154052D01*
D02*
G37*
G36*
X292379D02*
X289790D01*
X287289Y153382D01*
X285047Y152088D01*
X283217Y150257D01*
X281922Y148015D01*
X281252Y145515D01*
Y142926D01*
X281922Y140425D01*
X283217Y138183D01*
X285047Y136353D01*
X287289Y135058D01*
X289790Y134388D01*
X292379D01*
X294879Y135058D01*
X297121Y136353D01*
X298952Y138183D01*
X300246Y140425D01*
X300916Y142926D01*
Y145515D01*
X300246Y148015D01*
X298952Y150257D01*
X297121Y152088D01*
X294879Y153382D01*
X292379Y154052D01*
D02*
G37*
G36*
X266979D02*
X264390D01*
X261889Y153382D01*
X259647Y152088D01*
X257817Y150257D01*
X256522Y148015D01*
X255852Y145515D01*
Y142926D01*
X256522Y140425D01*
X257817Y138183D01*
X259647Y136353D01*
X261889Y135058D01*
X264390Y134388D01*
X266979D01*
X269479Y135058D01*
X271721Y136353D01*
X273552Y138183D01*
X274846Y140425D01*
X275516Y142926D01*
Y145515D01*
X274846Y148015D01*
X273552Y150257D01*
X271721Y152088D01*
X269479Y153382D01*
X266979Y154052D01*
D02*
G37*
G36*
X216179D02*
X213590D01*
X211089Y153382D01*
X208847Y152088D01*
X207017Y150257D01*
X205722Y148015D01*
X205052Y145515D01*
Y142926D01*
X205722Y140425D01*
X207017Y138183D01*
X208847Y136353D01*
X211089Y135058D01*
X213590Y134388D01*
X216179D01*
X218679Y135058D01*
X220921Y136353D01*
X222752Y138183D01*
X224046Y140425D01*
X224716Y142926D01*
Y145515D01*
X224046Y148015D01*
X222752Y150257D01*
X220921Y152088D01*
X218679Y153382D01*
X216179Y154052D01*
D02*
G37*
G36*
X190779D02*
X188190D01*
X185689Y153382D01*
X183447Y152088D01*
X181617Y150257D01*
X180322Y148015D01*
X179652Y145515D01*
Y142926D01*
X180322Y140425D01*
X181617Y138183D01*
X183447Y136353D01*
X185689Y135058D01*
X188190Y134388D01*
X190779D01*
X193279Y135058D01*
X195521Y136353D01*
X197352Y138183D01*
X198646Y140425D01*
X199316Y142926D01*
Y145515D01*
X198646Y148015D01*
X197352Y150257D01*
X195521Y152088D01*
X193279Y153382D01*
X190779Y154052D01*
D02*
G37*
G36*
X165379D02*
X162790D01*
X160289Y153382D01*
X158047Y152088D01*
X156217Y150257D01*
X154922Y148015D01*
X154252Y145515D01*
Y142926D01*
X154922Y140425D01*
X156217Y138183D01*
X158047Y136353D01*
X160289Y135058D01*
X162790Y134388D01*
X165379D01*
X167879Y135058D01*
X170121Y136353D01*
X171952Y138183D01*
X173246Y140425D01*
X173916Y142926D01*
Y145515D01*
X173246Y148015D01*
X171952Y150257D01*
X170121Y152088D01*
X167879Y153382D01*
X165379Y154052D01*
D02*
G37*
G36*
X139979D02*
X137390D01*
X134889Y153382D01*
X132647Y152088D01*
X130817Y150257D01*
X129522Y148015D01*
X128852Y145515D01*
Y142926D01*
X129522Y140425D01*
X130817Y138183D01*
X132647Y136353D01*
X134889Y135058D01*
X137390Y134388D01*
X139979D01*
X142479Y135058D01*
X144721Y136353D01*
X146552Y138183D01*
X147846Y140425D01*
X148516Y142926D01*
Y145515D01*
X147846Y148015D01*
X146552Y150257D01*
X144721Y152088D01*
X142479Y153382D01*
X139979Y154052D01*
D02*
G37*
G36*
X114579D02*
X111990D01*
X109489Y153382D01*
X107247Y152088D01*
X105417Y150257D01*
X104122Y148015D01*
X103452Y145515D01*
Y142926D01*
X104122Y140425D01*
X105417Y138183D01*
X107247Y136353D01*
X109489Y135058D01*
X111990Y134388D01*
X114579D01*
X117079Y135058D01*
X119321Y136353D01*
X121152Y138183D01*
X122446Y140425D01*
X123116Y142926D01*
Y145515D01*
X122446Y148015D01*
X121152Y150257D01*
X119321Y152088D01*
X117079Y153382D01*
X114579Y154052D01*
D02*
G37*
G36*
X428424Y142950D02*
X419354D01*
Y133880D01*
X419445D01*
X422075Y134585D01*
X424433Y135946D01*
X426358Y137871D01*
X427720Y140229D01*
X428424Y142859D01*
Y142950D01*
D02*
G37*
G36*
X416814D02*
X407744D01*
Y142859D01*
X408449Y140229D01*
X409810Y137871D01*
X411735Y135946D01*
X414093Y134585D01*
X416723Y133880D01*
X416814D01*
Y142950D01*
D02*
G37*
G36*
X576634Y116902D02*
Y109930D01*
X583606D01*
X583089Y111860D01*
X581998Y113750D01*
X580454Y115294D01*
X578564Y116385D01*
X576634Y116902D01*
D02*
G37*
G36*
X574094Y116902D02*
X572164Y116385D01*
X570274Y115294D01*
X568731Y113750D01*
X567639Y111860D01*
X567122Y109930D01*
X574094D01*
Y116902D01*
D02*
G37*
G36*
X647254Y139762D02*
X644146D01*
X641097Y139156D01*
X638224Y137966D01*
X635640Y136239D01*
X633441Y134041D01*
X631714Y131456D01*
X630524Y128584D01*
X629918Y125535D01*
Y122426D01*
X630524Y119377D01*
X631714Y116505D01*
X633441Y113920D01*
X635640Y111722D01*
X638224Y109994D01*
X641097Y108805D01*
X644146Y108198D01*
X647254D01*
X650303Y108805D01*
X653176Y109994D01*
X655760Y111722D01*
X657959Y113920D01*
X659686Y116505D01*
X660875Y119377D01*
X661482Y122426D01*
Y125535D01*
X660875Y128584D01*
X659686Y131456D01*
X657959Y134041D01*
X655760Y136239D01*
X653176Y137966D01*
X650303Y139156D01*
X647254Y139762D01*
D02*
G37*
G36*
X551389Y116442D02*
X549340D01*
X547360Y115912D01*
X545586Y114887D01*
X544137Y113439D01*
X543113Y111664D01*
X542582Y109685D01*
Y107636D01*
X543113Y105656D01*
X544137Y103882D01*
X545586Y102433D01*
X547360Y101409D01*
X549340Y100878D01*
X551389D01*
X553368Y101409D01*
X555143Y102433D01*
X556591Y103882D01*
X557616Y105656D01*
X558146Y107636D01*
Y109685D01*
X557616Y111664D01*
X556591Y113439D01*
X555143Y114887D01*
X553368Y115912D01*
X551389Y116442D01*
D02*
G37*
G36*
X574094Y107390D02*
X567122D01*
X567639Y105460D01*
X568731Y103570D01*
X570274Y102027D01*
X572164Y100935D01*
X574094Y100418D01*
Y107390D01*
D02*
G37*
G36*
X583606D02*
X576634D01*
Y100418D01*
X578564Y100935D01*
X580454Y102027D01*
X581998Y103570D01*
X583089Y105460D01*
X583606Y107390D01*
D02*
G37*
G36*
X2008474Y95232D02*
X2004725D01*
X2001049Y94501D01*
X1997585Y93066D01*
X1994468Y90983D01*
X1991817Y88332D01*
X1989734Y85215D01*
X1988299Y81752D01*
X1987568Y78075D01*
Y74326D01*
X1988299Y70649D01*
X1989734Y67185D01*
X1991817Y64068D01*
X1994468Y61417D01*
X1997585Y59334D01*
X2001049Y57899D01*
X2004725Y57168D01*
X2008474D01*
X2012151Y57899D01*
X2015615Y59334D01*
X2018732Y61417D01*
X2021383Y64068D01*
X2023466Y67185D01*
X2024901Y70649D01*
X2025632Y74326D01*
Y78075D01*
X2024901Y81752D01*
X2023466Y85215D01*
X2021383Y88332D01*
X2018732Y90983D01*
X2015615Y93066D01*
X2012151Y94501D01*
X2008474Y95232D01*
D02*
G37*
G36*
X1297274Y82532D02*
X1293526D01*
X1289849Y81801D01*
X1286385Y80366D01*
X1283268Y78283D01*
X1280617Y75632D01*
X1278534Y72515D01*
X1277099Y69051D01*
X1276368Y65374D01*
Y61625D01*
X1277099Y57949D01*
X1278534Y54485D01*
X1280617Y51368D01*
X1283268Y48717D01*
X1286385Y46634D01*
X1289849Y45199D01*
X1293526Y44468D01*
X1297274D01*
X1300951Y45199D01*
X1304415Y46634D01*
X1307532Y48717D01*
X1310183Y51368D01*
X1312266Y54485D01*
X1313701Y57949D01*
X1314432Y61625D01*
Y65374D01*
X1313701Y69051D01*
X1312266Y72515D01*
X1310183Y75632D01*
X1307532Y78283D01*
X1304415Y80366D01*
X1300951Y81801D01*
X1297274Y82532D01*
D02*
G37*
G36*
X954374D02*
X950626D01*
X946949Y81801D01*
X943485Y80366D01*
X940368Y78283D01*
X937717Y75632D01*
X935634Y72515D01*
X934199Y69051D01*
X933468Y65374D01*
Y61625D01*
X934199Y57949D01*
X935634Y54485D01*
X937717Y51368D01*
X940368Y48717D01*
X943485Y46634D01*
X946949Y45199D01*
X950626Y44468D01*
X954374D01*
X958051Y45199D01*
X961515Y46634D01*
X964632Y48717D01*
X967283Y51368D01*
X969366Y54485D01*
X970801Y57949D01*
X971532Y61625D01*
Y65374D01*
X970801Y69051D01*
X969366Y72515D01*
X967283Y75632D01*
X964632Y78283D01*
X961515Y80366D01*
X958051Y81801D01*
X954374Y82532D01*
D02*
G37*
G36*
X65374D02*
X61625D01*
X57949Y81801D01*
X54485Y80366D01*
X51368Y78283D01*
X48717Y75632D01*
X46634Y72515D01*
X45199Y69051D01*
X44468Y65374D01*
Y61625D01*
X45199Y57949D01*
X46634Y54485D01*
X48717Y51368D01*
X51368Y48717D01*
X54485Y46634D01*
X57949Y45199D01*
X61625Y44468D01*
X65374D01*
X69051Y45199D01*
X72515Y46634D01*
X75632Y48717D01*
X78283Y51368D01*
X80366Y54485D01*
X81801Y57949D01*
X82532Y61625D01*
Y65374D01*
X81801Y69051D01*
X80366Y72515D01*
X78283Y75632D01*
X75632Y78283D01*
X72515Y80366D01*
X69051Y81801D01*
X65374Y82532D01*
D02*
G37*
%LPD*%
G36*
X1327706Y336468D02*
X1326920Y335509D01*
X1303005D01*
X1300973Y335105D01*
X1299251Y333954D01*
X1299251Y333954D01*
X1233582Y268285D01*
X1232408Y268771D01*
Y272744D01*
X1229589Y275563D01*
Y298276D01*
X1268904Y337591D01*
X1327241D01*
X1327706Y336468D01*
D02*
G37*
D13*
X439420Y265684D02*
X457200Y283464D01*
X439420Y151819D02*
X443484Y147754D01*
X439420Y151819D02*
Y265684D01*
X443484Y144220D02*
Y147754D01*
D15*
X1541780Y466600D02*
X1542143D01*
X1554643Y454100D02*
X1595120D01*
X1542143Y466600D02*
X1554643Y454100D01*
X1424940Y508550D02*
X1427480Y511090D01*
Y519828D02*
X1433432Y525780D01*
X1482600D01*
X1424940Y508000D02*
Y508550D01*
X1427480Y511090D02*
Y519828D01*
X1482600Y525780D02*
X1541780Y466600D01*
X1409286Y599160D02*
X1518920D01*
X1398724Y609722D02*
X1409286Y599160D01*
X1283299Y609722D02*
X1398724D01*
X1267937Y594360D02*
X1283299Y609722D01*
X1266222Y594360D02*
X1267937D01*
X1636941Y599160D02*
X1683861Y552240D01*
X1518920Y599160D02*
X1636941D01*
X235684Y541556D02*
X269240Y508000D01*
X235684Y541556D02*
Y609600D01*
X2043276Y353068D02*
Y370840D01*
X2020408Y330200D02*
X2043276Y353068D01*
X2006600Y330200D02*
X2020408D01*
X2043276Y370840D02*
X2049780Y377344D01*
Y462280D01*
X2023830D02*
X2024769Y463219D01*
X367284Y370280D02*
Y398220D01*
X545084Y370280D02*
Y371780D01*
X546100D02*
X594329Y420009D01*
X546100Y370280D02*
Y371780D01*
X594329Y420009D02*
X605212D01*
X275938D02*
X424065D01*
X424470Y420415D01*
X275532Y419603D02*
X275938Y420009D01*
X241333Y154973D02*
X271287Y184927D01*
X240284Y144220D02*
X241333Y145269D01*
Y154973D01*
X271287Y184927D02*
X309880D01*
X319968Y195015D02*
Y284226D01*
X309880Y184927D02*
X319968Y195015D01*
X2023441Y462280D02*
X2023830D01*
X2024769Y463219D02*
Y465209D01*
X1002368Y387128D02*
X1026160Y410920D01*
X846582Y387128D02*
X1002368D01*
X1188720Y264616D02*
Y299160D01*
X1232458Y260350D02*
X1233155D01*
X1229485Y257377D02*
X1232458Y260350D01*
X1195959Y257377D02*
X1229485D01*
X1188720Y264616D02*
X1195959Y257377D01*
X1303005Y330200D02*
X1333500D01*
X1233155Y260350D02*
X1303005Y330200D01*
X1224280Y268680D02*
Y300476D01*
X1266705Y342900D02*
X1346200D01*
X1224280Y300476D02*
X1266705Y342900D01*
X902100Y247933D02*
X920750Y229283D01*
Y176266D02*
Y229283D01*
X1068780Y181470D02*
X1072750Y177500D01*
X1065110Y181470D02*
X1068780D01*
X1056640Y189940D02*
X1065110Y181470D01*
X1376776Y274320D02*
X1434508D01*
X1325880Y268680D02*
X1342317Y285117D01*
X1365979D01*
X1376776Y274320D01*
X1026160Y309320D02*
X1041400Y294081D01*
X1038860Y219620D02*
X1040515Y221275D01*
Y226780D01*
X1041400Y227665D01*
Y294081D01*
X663028Y324560D02*
X706900D01*
X660488Y322020D02*
X663028Y324560D01*
X534784Y322020D02*
X660488D01*
X672574Y248360D02*
X672886Y248049D01*
X646684Y273760D02*
X660528Y259916D01*
X681615D01*
X648909Y248360D02*
X672574D01*
X633919Y260811D02*
X646527Y248203D01*
X751840Y304240D02*
X838200Y390600D01*
X687847Y304240D02*
X751840D01*
X838200Y390600D02*
Y416000D01*
X755312Y295858D02*
X846582Y387128D01*
X652819Y295858D02*
X755312D01*
X682766Y309320D02*
X687847Y304240D01*
X652057Y296620D02*
X652819Y295858D01*
X646795Y303025D02*
X652057Y297763D01*
X659384Y309320D02*
X682766D01*
X496824Y179780D02*
X603781D01*
X520857Y159460D02*
X600964D01*
X513237Y167080D02*
X520857Y159460D01*
X130626Y331673D02*
X152377D01*
X138684Y397275D02*
Y398220D01*
X126906Y385497D02*
X138684Y397275D01*
X126906Y335393D02*
Y385497D01*
Y335393D02*
X130626Y331673D01*
X118524Y328708D02*
Y336341D01*
X113284Y341581D02*
X118524Y336341D01*
Y328708D02*
X123941Y323291D01*
X296395D01*
X316484Y343380D01*
X164084D02*
Y344880D01*
X113284Y341581D02*
Y343380D01*
X152377Y331673D02*
X164084Y343380D01*
X87884Y317980D02*
X113284Y343380D01*
Y344880D01*
X633919Y304240D02*
X635134Y303025D01*
X646795D01*
X316484Y343380D02*
X350544Y309320D01*
X522813D01*
X534370Y320877D01*
X1056640Y301500D02*
X1077160Y322020D01*
X1056640Y189940D02*
Y301500D01*
X1076960Y357580D02*
X1077060Y357480D01*
Y322120D02*
Y357480D01*
Y322120D02*
X1077160Y322020D01*
X902100Y247933D02*
Y319480D01*
X316484Y343380D02*
Y344880D01*
X87884Y144220D02*
Y317980D01*
X392684Y370280D02*
Y398220D01*
X316484Y370280D02*
Y372300D01*
X341884Y397700D01*
Y398220D01*
X291084Y370280D02*
Y372300D01*
X392684Y398220D02*
X394595Y400131D01*
D18*
X1218373Y417287D02*
X1231173D01*
X1231900Y416560D01*
X1153160Y482500D02*
X1218373Y417287D01*
X1265621Y594360D02*
X1266222D01*
X1153761Y482500D02*
X1265621Y594360D01*
X1153160Y482500D02*
X1153761D01*
X833797Y633852D02*
X1226730D01*
X1266222Y594360D01*
X503413Y617220D02*
X520045Y633852D01*
X833797D02*
X865669Y601980D01*
X502384Y617220D02*
X503413D01*
X520045Y633852D02*
X833797D01*
X501356Y617220D02*
X502384D01*
X492344Y626232D02*
X501356Y617220D01*
X253344Y626232D02*
X492344D01*
X236712Y609600D02*
X253344Y626232D01*
X235684Y609600D02*
X236712D01*
D39*
X596900Y370280D02*
D03*
Y344880D02*
D03*
X571500Y370280D02*
D03*
Y344880D02*
D03*
X546100Y370280D02*
D03*
Y344880D02*
D03*
X520700Y370280D02*
D03*
Y344880D02*
D03*
X495300Y370280D02*
D03*
Y344880D02*
D03*
X469900Y370280D02*
D03*
Y344880D02*
D03*
X444500Y370280D02*
D03*
Y344880D02*
D03*
X419100Y370280D02*
D03*
Y344880D02*
D03*
X393700Y370280D02*
D03*
Y344880D02*
D03*
X368300Y370280D02*
D03*
Y344880D02*
D03*
X342900Y370280D02*
D03*
Y344880D02*
D03*
X317500Y370280D02*
D03*
Y344880D02*
D03*
X292100Y370280D02*
D03*
Y344880D02*
D03*
X266700Y370280D02*
D03*
Y344880D02*
D03*
X241300Y370280D02*
D03*
Y344880D02*
D03*
X215900Y370280D02*
D03*
Y344880D02*
D03*
X190500Y370280D02*
D03*
Y344880D02*
D03*
X165100Y370280D02*
D03*
Y344880D02*
D03*
X114300D02*
D03*
Y370280D02*
D03*
X139700Y344880D02*
D03*
Y370280D02*
D03*
D43*
X1473200Y392150D02*
D03*
X1518920Y564160D02*
D03*
D44*
X1473200Y357150D02*
D03*
X1518920Y599160D02*
D03*
D54*
X1892300Y1115060D02*
D03*
Y812240D02*
D03*
Y965200D02*
D03*
D55*
X123260Y962000D02*
X158160Y927100D01*
X218440D01*
X48260Y962000D02*
X123260D01*
X510540D02*
X574700D01*
X435540D02*
X510540D01*
X574700D02*
X607060Y929640D01*
X1275080Y962000D02*
X1331822D01*
X1200080D02*
X1275080D01*
X1331822D02*
X1366520Y927302D01*
X894080Y962000D02*
X950620D01*
X819080D02*
X894080D01*
X950620D02*
X985520Y927100D01*
D56*
X1867940Y1115060D02*
X1892300D01*
Y1117040D02*
X1955800D01*
X1844521Y1091640D02*
X1867940Y1115060D01*
X1879600Y786840D02*
Y825500D01*
X734060Y929640D02*
X798830Y864870D01*
X1050290D02*
X1112520Y927100D01*
X798830Y864870D02*
X1050290D01*
X1493520Y927302D02*
X1777798D01*
X1112520Y927100D02*
X1174750Y864870D01*
X1431088D02*
X1493520Y927302D01*
X1174750Y864870D02*
X1431088D01*
X723900Y927100D02*
X726440Y929640D01*
X386834D02*
X451604Y864870D01*
X347980Y929640D02*
X386834D01*
X649503Y864870D02*
X711733Y927100D01*
X451604Y864870D02*
X649503D01*
X711733Y927100D02*
X723900D01*
X1497229Y931011D02*
X1569518Y1003300D01*
X1777798Y927302D02*
X1879600Y825500D01*
X1569518Y1003300D02*
X1590320D01*
D58*
X334700Y162436D02*
Y284226D01*
X392684Y144220D02*
Y210644D01*
X387350Y215978D02*
X392684Y210644D01*
X387350Y215978D02*
Y283464D01*
X367284Y144220D02*
Y210644D01*
X372618Y215978D01*
Y283464D01*
X341884Y144220D02*
Y270002D01*
X355346Y283464D01*
X316484Y144220D02*
X334700Y162436D01*
D60*
X1683861Y552240D02*
D03*
X1603861D02*
D03*
Y1002240D02*
D03*
D61*
X1811861D02*
D03*
D62*
X1866900Y553720D02*
D03*
Y452120D02*
D03*
X1897380Y553720D02*
D03*
Y452120D02*
D03*
X1026160Y410920D02*
D03*
Y309320D02*
D03*
X838200Y416000D02*
D03*
Y314400D02*
D03*
D63*
X1943100Y477520D02*
D03*
X580644Y591820D02*
D03*
X1071880Y419100D02*
D03*
X960120Y576580D02*
D03*
X1353820Y568960D02*
D03*
X317736Y584200D02*
D03*
D64*
X1943100Y490220D02*
D03*
Y502920D02*
D03*
X580644Y604520D02*
D03*
Y617220D02*
D03*
X1071880Y431800D02*
D03*
Y444500D02*
D03*
X960120Y589280D02*
D03*
Y601980D02*
D03*
X1353820Y594360D02*
D03*
Y581660D02*
D03*
X317736Y596900D02*
D03*
Y609600D02*
D03*
D65*
X1958340Y809700D02*
D03*
Y964640D02*
D03*
X1955800Y1117040D02*
D03*
D66*
X1051560Y969010D02*
D03*
X988060Y927100D02*
D03*
X1115060D02*
D03*
X281940Y969010D02*
D03*
X218440Y927100D02*
D03*
X345440D02*
D03*
X728980D02*
D03*
X601980D02*
D03*
X665480Y969010D02*
D03*
X1501140Y927100D02*
D03*
X1374140D02*
D03*
X1437640Y969010D02*
D03*
D67*
X141040Y1079500D02*
D03*
X66040D02*
D03*
X516960D02*
D03*
X441960D02*
D03*
X897960D02*
D03*
X822960D02*
D03*
X1211580D02*
D03*
X1286580D02*
D03*
D68*
X48260Y762000D02*
D03*
X123260D02*
D03*
Y962000D02*
D03*
X48260D02*
D03*
X123260Y1012000D02*
D03*
X48260D02*
D03*
X435540Y762000D02*
D03*
X510540D02*
D03*
Y962000D02*
D03*
X435540D02*
D03*
X510540Y1012000D02*
D03*
X435540D02*
D03*
X819080Y762000D02*
D03*
X894080D02*
D03*
Y962000D02*
D03*
X819080D02*
D03*
X894080Y1012000D02*
D03*
X819080D02*
D03*
X1207700Y762000D02*
D03*
X1282700D02*
D03*
Y962000D02*
D03*
X1207700D02*
D03*
X1282700Y1012000D02*
D03*
X1207700D02*
D03*
D69*
X1153160Y406500D02*
D03*
Y482500D02*
D03*
D70*
X481584Y482600D02*
D03*
X583184D02*
D03*
Y553720D02*
D03*
X481584D02*
D03*
Y520700D02*
D03*
X583184D02*
D03*
X833120Y472440D02*
D03*
X731520D02*
D03*
X833120Y500380D02*
D03*
X731520D02*
D03*
X975360Y469900D02*
D03*
X873760D02*
D03*
X975360Y538480D02*
D03*
X873760D02*
D03*
Y500380D02*
D03*
X975360D02*
D03*
X1343847Y441960D02*
D03*
X1242247D02*
D03*
X157480Y566420D02*
D03*
X259080D02*
D03*
X1831935Y414020D02*
D03*
X1933535D02*
D03*
X1427480Y317500D02*
D03*
X1529080D02*
D03*
X1427480Y274320D02*
D03*
X1529080D02*
D03*
X1325880Y268680D02*
D03*
X1224280D02*
D03*
X1290320Y299160D02*
D03*
X1188720D02*
D03*
X939800Y276300D02*
D03*
X838200D02*
D03*
X1076960Y357580D02*
D03*
X1178560D02*
D03*
X1084580Y278840D02*
D03*
X982980D02*
D03*
X896620Y357580D02*
D03*
X998220D02*
D03*
X1245422Y525780D02*
D03*
X1347022D02*
D03*
X1343847Y482600D02*
D03*
X1242247D02*
D03*
X106680Y500380D02*
D03*
X208280D02*
D03*
Y457200D02*
D03*
X106680D02*
D03*
D71*
X652780Y508000D02*
D03*
X678180D02*
D03*
X1038860D02*
D03*
X1064260D02*
D03*
X2049780Y462280D02*
D03*
X2024380D02*
D03*
X1450340Y508000D02*
D03*
X1424940D02*
D03*
X294640D02*
D03*
X269240D02*
D03*
D72*
X502384Y617220D02*
D03*
X532384D02*
D03*
X1231900Y416560D02*
D03*
Y386560D02*
D03*
X865669Y601980D02*
D03*
X895669D02*
D03*
X1296222Y594360D02*
D03*
X1266222D02*
D03*
X265684Y609600D02*
D03*
X235684D02*
D03*
D73*
X1595120Y454100D02*
D03*
D74*
Y428700D02*
D03*
Y403300D02*
D03*
D75*
X1102160Y322020D02*
D03*
X1077160D02*
D03*
X927100Y319480D02*
D03*
X902100D02*
D03*
X1361440Y299160D02*
D03*
Y274160D02*
D03*
X68580Y433780D02*
D03*
X43580D02*
D03*
X575364Y108660D02*
D03*
X550364D02*
D03*
X1541780Y406200D02*
D03*
Y381200D02*
D03*
Y441600D02*
D03*
Y466600D02*
D03*
D76*
X1346200Y227800D02*
D03*
X1384300Y177800D02*
D03*
X1422400Y227800D02*
D03*
X1155700D02*
D03*
X1193800Y177800D02*
D03*
X1231900Y227800D02*
D03*
X996550Y177500D02*
D03*
X1034650Y227500D02*
D03*
X844150Y177500D02*
D03*
X882250Y227500D02*
D03*
D77*
X1460500Y177800D02*
D03*
X1270000D02*
D03*
X1072750Y177500D02*
D03*
X920350D02*
D03*
D78*
X87884Y144220D02*
D03*
D79*
X113284D02*
D03*
X545084D02*
D03*
X138684D02*
D03*
X164084D02*
D03*
X189484D02*
D03*
X214884D02*
D03*
X240284D02*
D03*
X265684D02*
D03*
X291084D02*
D03*
X316484D02*
D03*
X341884D02*
D03*
X367284D02*
D03*
X392684D02*
D03*
X418084D02*
D03*
X443484D02*
D03*
X468884D02*
D03*
X494284D02*
D03*
X519684D02*
D03*
X87884Y398220D02*
D03*
X113284D02*
D03*
X138684D02*
D03*
X164084D02*
D03*
X189484D02*
D03*
X214884D02*
D03*
X240284D02*
D03*
X265684D02*
D03*
X291084D02*
D03*
X316484D02*
D03*
X341884D02*
D03*
X367284D02*
D03*
X392684D02*
D03*
X418084D02*
D03*
X443484D02*
D03*
X468884D02*
D03*
X494284D02*
D03*
X519684D02*
D03*
X545084D02*
D03*
D80*
X2006600Y330200D02*
D03*
Y304800D02*
D03*
Y279400D02*
D03*
Y254000D02*
D03*
Y228600D02*
D03*
Y203200D02*
D03*
Y177800D02*
D03*
D81*
Y152400D02*
D03*
D82*
X1844521Y1091640D02*
D03*
X1619521D02*
D03*
D83*
X1892300Y1089660D02*
D03*
Y1140460D02*
D03*
Y786840D02*
D03*
Y837640D02*
D03*
Y939800D02*
D03*
Y990600D02*
D03*
D84*
X457200Y283464D02*
D03*
X605212Y420009D02*
D03*
X424470Y420415D02*
D03*
X275532Y419603D02*
D03*
X319968Y284226D02*
D03*
X334700D02*
D03*
X355346Y283464D02*
D03*
X372618D02*
D03*
X387350D02*
D03*
X1333500Y330200D02*
D03*
X1346200Y342900D02*
D03*
X706900Y324560D02*
D03*
X672886Y248049D02*
D03*
X681615Y259916D02*
D03*
X656844Y309320D02*
D03*
X603781Y179780D02*
D03*
X496824D02*
D03*
X513237Y167080D02*
D03*
X600964Y159460D02*
D03*
X633919Y260811D02*
D03*
X646684Y273760D02*
D03*
X633919Y304240D02*
D03*
D85*
X1707861Y1003300D02*
X1798320D01*
X1619521Y1091640D02*
X1707861Y1003300D01*
X906970Y1024890D02*
X1262190D01*
X1275080Y1012000D02*
Y1068000D01*
X1286580Y1079500D01*
X897960Y1015880D02*
X906970Y1024890D01*
X894080Y1012000D02*
X897960Y1015880D01*
Y1079500D01*
X516960Y1018420D02*
X525970Y1027430D01*
X516960Y1018420D02*
Y1079500D01*
X510540Y1012000D02*
X516960Y1018420D01*
X136150Y1024890D02*
X141040Y1029780D01*
X123260Y1012000D02*
X136150Y1024890D01*
X141040Y1029780D02*
Y1079500D01*
X48260Y1012000D02*
X123260D01*
X335142Y1024890D02*
X348032Y1012000D01*
X136150Y1024890D02*
X335142D01*
X348032Y1012000D02*
X435540D01*
X510540D01*
X719952Y1027430D02*
X735382Y1012000D01*
X525970Y1027430D02*
X719952D01*
X735382Y1012000D02*
X819080D01*
X894080D01*
X1262190Y1024890D02*
X1275080Y1012000D01*
X1354720Y1091640D02*
X1619521D01*
X1275080Y1012000D02*
X1354720Y1091640D01*
M02*
