G04*
G04 #@! TF.GenerationSoftware,Altium Limited,Altium Designer,23.9.2 (47)*
G04*
G04 Layer_Color=16711935*
%FSLAX44Y44*%
%MOMM*%
G71*
G04*
G04 #@! TF.SameCoordinates,666CD1C4-E099-4A84-9A31-6A8195F5D717*
G04*
G04*
G04 #@! TF.FilePolarity,Negative*
G04*
G01*
G75*
%ADD24R,4.5080X3.5080*%
%ADD25C,2.3080*%
%ADD26R,2.3080X2.3080*%
G04:AMPARAMS|DCode=27|XSize=1.7272mm|YSize=1.7272mm|CornerRadius=0mm|HoleSize=0mm|Usage=FLASHONLY|Rotation=90.000|XOffset=0mm|YOffset=0mm|HoleType=Round|Shape=Octagon|*
%AMOCTAGOND27*
4,1,8,0.4318,0.8636,-0.4318,0.8636,-0.8636,0.4318,-0.8636,-0.4318,-0.4318,-0.8636,0.4318,-0.8636,0.8636,-0.4318,0.8636,0.4318,0.4318,0.8636,0.0*
%
%ADD27OCTAGOND27*%

%ADD28R,1.5580X1.5580*%
%ADD29C,1.5580*%
G04:AMPARAMS|DCode=30|XSize=0.508mm|YSize=0.508mm|CornerRadius=0mm|HoleSize=0mm|Usage=FLASHONLY|Rotation=0.000|XOffset=0mm|YOffset=0mm|HoleType=Round|Shape=Octagon|*
%AMOCTAGOND30*
4,1,8,0.2540,-0.1270,0.2540,0.1270,0.1270,0.2540,-0.1270,0.2540,-0.2540,0.1270,-0.2540,-0.1270,-0.1270,-0.2540,0.1270,-0.2540,0.2540,-0.1270,0.0*
%
%ADD30OCTAGOND30*%

G04:AMPARAMS|DCode=31|XSize=8.128mm|YSize=8.128mm|CornerRadius=0mm|HoleSize=0mm|Usage=FLASHONLY|Rotation=0.000|XOffset=0mm|YOffset=0mm|HoleType=Round|Shape=Octagon|*
%AMOCTAGOND31*
4,1,8,4.0640,-2.0320,4.0640,2.0320,2.0320,4.0640,-2.0320,4.0640,-4.0640,2.0320,-4.0640,-2.0320,-2.0320,-4.0640,2.0320,-4.0640,4.0640,-2.0320,0.0*
%
%ADD31OCTAGOND31*%

%ADD32R,4.3180X4.3180*%
%ADD33C,2.5080*%
%ADD34R,2.5080X2.5080*%
G04:AMPARAMS|DCode=35|XSize=2.508mm|YSize=2.508mm|CornerRadius=0mm|HoleSize=0mm|Usage=FLASHONLY|Rotation=0.000|XOffset=0mm|YOffset=0mm|HoleType=Round|Shape=Octagon|*
%AMOCTAGOND35*
4,1,8,1.2540,-0.6270,1.2540,0.6270,0.6270,1.2540,-0.6270,1.2540,-1.2540,0.6270,-1.2540,-0.6270,-0.6270,-1.2540,0.6270,-1.2540,1.2540,-0.6270,0.0*
%
%ADD35OCTAGOND35*%

G04:AMPARAMS|DCode=36|XSize=1.7272mm|YSize=1.7272mm|CornerRadius=0mm|HoleSize=0mm|Usage=FLASHONLY|Rotation=0.000|XOffset=0mm|YOffset=0mm|HoleType=Round|Shape=Octagon|*
%AMOCTAGOND36*
4,1,8,0.8636,-0.4318,0.8636,0.4318,0.4318,0.8636,-0.4318,0.8636,-0.8636,0.4318,-0.8636,-0.4318,-0.4318,-0.8636,0.4318,-0.8636,0.8636,-0.4318,0.0*
%
%ADD36OCTAGOND36*%

%ADD37C,1.7272*%
%ADD38C,2.1580*%
%ADD39O,1.3000X1.6000*%
%ADD40R,2.0160X2.0160*%
%ADD41C,2.0160*%
%ADD42C,1.6580*%
%ADD43R,1.3000X1.3000*%
%ADD44C,1.3000*%
%ADD45C,2.0080*%
G04:AMPARAMS|DCode=46|XSize=2.008mm|YSize=2.008mm|CornerRadius=0.629mm|HoleSize=0mm|Usage=FLASHONLY|Rotation=0.000|XOffset=0mm|YOffset=0mm|HoleType=Round|Shape=RoundedRectangle|*
%AMROUNDEDRECTD46*
21,1,2.0080,0.7500,0,0,0.0*
21,1,0.7500,2.0080,0,0,0.0*
1,1,1.2580,0.3750,-0.3750*
1,1,1.2580,-0.3750,-0.3750*
1,1,1.2580,-0.3750,0.3750*
1,1,1.2580,0.3750,0.3750*
%
%ADD46ROUNDEDRECTD46*%
%ADD47R,2.0680X2.0680*%
%ADD48C,2.0680*%
%ADD49C,2.0320*%
%ADD50R,2.0320X2.0320*%
%ADD51C,2.4580*%
%ADD52C,3.5080*%
%ADD53C,1.7780*%
D24*
X1892300Y1115060D02*
D03*
Y812240D02*
D03*
Y965200D02*
D03*
D25*
X1683861Y552240D02*
D03*
X1603861D02*
D03*
Y1002240D02*
D03*
D26*
X1811861D02*
D03*
D27*
X1866900Y553720D02*
D03*
Y452120D02*
D03*
X1897380Y553720D02*
D03*
Y452120D02*
D03*
X1026160Y410920D02*
D03*
Y309320D02*
D03*
X838200Y416000D02*
D03*
Y314400D02*
D03*
D28*
X1943100Y477520D02*
D03*
X580644Y591820D02*
D03*
X1071880Y419100D02*
D03*
X960120Y576580D02*
D03*
X1353820Y568960D02*
D03*
X317736Y584200D02*
D03*
D29*
X1943100Y490220D02*
D03*
Y502920D02*
D03*
X580644Y604520D02*
D03*
Y617220D02*
D03*
X1071880Y431800D02*
D03*
Y444500D02*
D03*
X960120Y589280D02*
D03*
Y601980D02*
D03*
X1353820Y594360D02*
D03*
Y581660D02*
D03*
X317736Y596900D02*
D03*
Y609600D02*
D03*
D30*
X774700Y571500D02*
D03*
X1155700D02*
D03*
X1437640Y723900D02*
D03*
X1427480Y660400D02*
D03*
X1905000Y698500D02*
D03*
X2006600Y571500D02*
D03*
X863600Y1193800D02*
D03*
X1803400Y629920D02*
D03*
X281940Y660400D02*
D03*
Y723900D02*
D03*
X254000Y1193800D02*
D03*
X1092200D02*
D03*
X76200Y571500D02*
D03*
X665480Y723900D02*
D03*
X1051560D02*
D03*
X1778000Y1193800D02*
D03*
X1652420Y55880D02*
D03*
X762000D02*
D03*
X63500Y63500D02*
D03*
X2006600Y406400D02*
D03*
X952500Y63500D02*
D03*
X1295400D02*
D03*
X1524000Y1193800D02*
D03*
X1193800D02*
D03*
X431800Y1193240D02*
D03*
X762000Y1193800D02*
D03*
X50800D02*
D03*
X2006600Y76200D02*
D03*
X1051560Y660400D02*
D03*
X665480D02*
D03*
D31*
X1958340Y809700D02*
D03*
Y964640D02*
D03*
X1955800Y1117040D02*
D03*
D32*
X1051560Y969010D02*
D03*
X988060Y927100D02*
D03*
X1115060D02*
D03*
X281940Y969010D02*
D03*
X218440Y927100D02*
D03*
X345440D02*
D03*
X728980D02*
D03*
X601980D02*
D03*
X665480Y969010D02*
D03*
X1501140Y927100D02*
D03*
X1374140D02*
D03*
X1437640Y969010D02*
D03*
D33*
X141040Y1079500D02*
D03*
X66040D02*
D03*
X516960D02*
D03*
X441960D02*
D03*
X897960D02*
D03*
X822960D02*
D03*
X1211580D02*
D03*
X1286580D02*
D03*
D34*
X48260Y762000D02*
D03*
X123260D02*
D03*
Y962000D02*
D03*
X48260D02*
D03*
X123260Y1012000D02*
D03*
X48260D02*
D03*
X435540Y762000D02*
D03*
X510540D02*
D03*
Y962000D02*
D03*
X435540D02*
D03*
X510540Y1012000D02*
D03*
X435540D02*
D03*
X819080Y762000D02*
D03*
X894080D02*
D03*
Y962000D02*
D03*
X819080D02*
D03*
X894080Y1012000D02*
D03*
X819080D02*
D03*
X1207700Y762000D02*
D03*
X1282700D02*
D03*
Y962000D02*
D03*
X1207700D02*
D03*
X1282700Y1012000D02*
D03*
X1207700D02*
D03*
D35*
X1153160Y406500D02*
D03*
Y482500D02*
D03*
D36*
X481584Y482600D02*
D03*
X583184D02*
D03*
Y553720D02*
D03*
X481584D02*
D03*
Y520700D02*
D03*
X583184D02*
D03*
X833120Y472440D02*
D03*
X731520D02*
D03*
X833120Y500380D02*
D03*
X731520D02*
D03*
X975360Y469900D02*
D03*
X873760D02*
D03*
X975360Y538480D02*
D03*
X873760D02*
D03*
Y500380D02*
D03*
X975360D02*
D03*
X1343847Y441960D02*
D03*
X1242247D02*
D03*
X157480Y566420D02*
D03*
X259080D02*
D03*
X1831935Y414020D02*
D03*
X1933535D02*
D03*
X1427480Y317500D02*
D03*
X1529080D02*
D03*
X1427480Y274320D02*
D03*
X1529080D02*
D03*
X1325880Y268680D02*
D03*
X1224280D02*
D03*
X1290320Y299160D02*
D03*
X1188720D02*
D03*
X939800Y276300D02*
D03*
X838200D02*
D03*
X1076960Y357580D02*
D03*
X1178560D02*
D03*
X1084580Y278840D02*
D03*
X982980D02*
D03*
X896620Y357580D02*
D03*
X998220D02*
D03*
X1245422Y525780D02*
D03*
X1347022D02*
D03*
X1343847Y482600D02*
D03*
X1242247D02*
D03*
X106680Y500380D02*
D03*
X208280D02*
D03*
Y457200D02*
D03*
X106680D02*
D03*
D37*
X652780Y508000D02*
D03*
X678180D02*
D03*
X1038860D02*
D03*
X1064260D02*
D03*
X2049780Y462280D02*
D03*
X2024380D02*
D03*
X1450340Y508000D02*
D03*
X1424940D02*
D03*
X294640D02*
D03*
X269240D02*
D03*
D38*
X502384Y617220D02*
D03*
X532384D02*
D03*
X1231900Y416560D02*
D03*
Y386560D02*
D03*
X865669Y601980D02*
D03*
X895669D02*
D03*
X1296222Y594360D02*
D03*
X1266222D02*
D03*
X265684Y609600D02*
D03*
X235684D02*
D03*
D39*
X596900Y370280D02*
D03*
Y344880D02*
D03*
X571500Y370280D02*
D03*
Y344880D02*
D03*
X546100Y370280D02*
D03*
Y344880D02*
D03*
X520700Y370280D02*
D03*
Y344880D02*
D03*
X495300Y370280D02*
D03*
Y344880D02*
D03*
X469900Y370280D02*
D03*
Y344880D02*
D03*
X444500Y370280D02*
D03*
Y344880D02*
D03*
X419100Y370280D02*
D03*
Y344880D02*
D03*
X393700Y370280D02*
D03*
Y344880D02*
D03*
X368300Y370280D02*
D03*
Y344880D02*
D03*
X342900Y370280D02*
D03*
Y344880D02*
D03*
X317500Y370280D02*
D03*
Y344880D02*
D03*
X292100Y370280D02*
D03*
Y344880D02*
D03*
X266700Y370280D02*
D03*
Y344880D02*
D03*
X241300Y370280D02*
D03*
Y344880D02*
D03*
X215900Y370280D02*
D03*
Y344880D02*
D03*
X190500Y370280D02*
D03*
Y344880D02*
D03*
X165100Y370280D02*
D03*
Y344880D02*
D03*
X114300D02*
D03*
Y370280D02*
D03*
X139700Y344880D02*
D03*
Y370280D02*
D03*
D40*
X1595120Y454100D02*
D03*
D41*
Y428700D02*
D03*
Y403300D02*
D03*
D42*
X1102160Y322020D02*
D03*
X1077160D02*
D03*
X927100Y319480D02*
D03*
X902100D02*
D03*
X1361440Y299160D02*
D03*
Y274160D02*
D03*
X68580Y433780D02*
D03*
X43580D02*
D03*
X575364Y108660D02*
D03*
X550364D02*
D03*
X1541780Y406200D02*
D03*
Y381200D02*
D03*
Y441600D02*
D03*
Y466600D02*
D03*
D43*
X1473200Y392150D02*
D03*
X1518920Y564160D02*
D03*
D44*
X1473200Y357150D02*
D03*
X1518920Y599160D02*
D03*
D45*
X1346200Y227800D02*
D03*
X1384300Y177800D02*
D03*
X1422400Y227800D02*
D03*
X1155700D02*
D03*
X1193800Y177800D02*
D03*
X1231900Y227800D02*
D03*
X996550Y177500D02*
D03*
X1034650Y227500D02*
D03*
X844150Y177500D02*
D03*
X882250Y227500D02*
D03*
D46*
X1460500Y177800D02*
D03*
X1270000D02*
D03*
X1072750Y177500D02*
D03*
X920350D02*
D03*
D47*
X87884Y144220D02*
D03*
D48*
X113284D02*
D03*
X545084D02*
D03*
X138684D02*
D03*
X164084D02*
D03*
X189484D02*
D03*
X214884D02*
D03*
X240284D02*
D03*
X265684D02*
D03*
X291084D02*
D03*
X316484D02*
D03*
X341884D02*
D03*
X367284D02*
D03*
X392684D02*
D03*
X418084D02*
D03*
X443484D02*
D03*
X468884D02*
D03*
X494284D02*
D03*
X519684D02*
D03*
X87884Y398220D02*
D03*
X113284D02*
D03*
X138684D02*
D03*
X164084D02*
D03*
X189484D02*
D03*
X214884D02*
D03*
X240284D02*
D03*
X265684D02*
D03*
X291084D02*
D03*
X316484D02*
D03*
X341884D02*
D03*
X367284D02*
D03*
X392684D02*
D03*
X418084D02*
D03*
X443484D02*
D03*
X468884D02*
D03*
X494284D02*
D03*
X519684D02*
D03*
X545084D02*
D03*
D49*
X2006600Y330200D02*
D03*
Y304800D02*
D03*
Y279400D02*
D03*
Y254000D02*
D03*
Y228600D02*
D03*
Y203200D02*
D03*
Y177800D02*
D03*
D50*
Y152400D02*
D03*
D51*
X1844521Y1091640D02*
D03*
X1619521D02*
D03*
D52*
X1892300Y1089660D02*
D03*
Y1140460D02*
D03*
Y786840D02*
D03*
Y837640D02*
D03*
Y939800D02*
D03*
Y990600D02*
D03*
D53*
X457200Y283464D02*
D03*
X605212Y420009D02*
D03*
X424470Y420415D02*
D03*
X275532Y419603D02*
D03*
X319968Y284226D02*
D03*
X334700D02*
D03*
X355346Y283464D02*
D03*
X372618D02*
D03*
X387350D02*
D03*
X1333500Y330200D02*
D03*
X1346200Y342900D02*
D03*
X706900Y324560D02*
D03*
X672886Y248049D02*
D03*
X681615Y259916D02*
D03*
X656844Y309320D02*
D03*
X603781Y179780D02*
D03*
X496824D02*
D03*
X513237Y167080D02*
D03*
X600964Y159460D02*
D03*
X633919Y260811D02*
D03*
X646684Y273760D02*
D03*
X633919Y304240D02*
D03*
M02*
