M48
;Layer_Color=9474304
;FILE_FORMAT=4:4
METRIC,LZ
;TYPE=PLATED
T01F00S00C0.5000
T02F00S00C0.8000
T03F00S00C0.8128
T04F00S00C0.9000
T05F00S00C1.0000
T06F00S00C1.0160
T07F00S00C1.0400
T08F00S00C1.1500
T09F00S00C1.3000
T10F00S00C1.5000
T11F00S00C2.5000
T12F00S00C3.5000
;TYPE=NON_PLATED
T13F00S00C2.7500
T15F00S00C3.4000
T16F00S00C7.5000
%
T01
X00319968Y00284226
X003347
X00355346Y00283464
X00372618
X00275532Y00419603
X0042447Y00420415
X004572Y00283464
X0038735
X00496824Y0017978
X00513237Y0016708
X00600964Y0015946
X00603781Y0017978
X00633919Y00260811
X00646684Y0027376
X00633919Y0030424
X00656844Y0030932
X007069Y0032456
X00681615Y00259916
X00672886Y00248049
X00605212Y00420009
X013335Y003302
X013462Y003429
T02
X0004358Y0043378
X0006858
X00550364Y0010866
X00575364
X009021Y0031948
X009271
X0107716Y0032202
X0110216
X0107188Y004191
Y004318
Y004445
X0115316Y004065
X0136144Y0029916
Y0027416
X014732Y0035715
Y0039215
X0154178Y003812
Y004062
Y004416
Y004666
X019431Y0047752
Y0049022
Y0050292
X0151892Y0056416
Y0059916
X0135382Y0059436
Y0058166
Y0056896
X0115316Y004825
X0096012Y0057658
Y0058928
Y0060198
X00580644Y0060452
Y0059182
Y0061722
X00317736Y006096
Y005969
Y005842
T03
X0010668Y004572
X0020828
X0073152Y0047244
X0083312
X0087376Y004699
X008382Y00416
Y003144
Y002763
X009398
X0098298Y0027884
X0102616Y0030932
X0099822Y0035758
X0107696
X0108458Y0027884
X0102616Y0041092
X0097536Y004699
X0089662Y0035758
X0117856
X0118872Y0029916
X0122428Y0026868
X0129032Y0029916
X0132588Y0026868
X0142748Y0027432
Y003175
X0152908
Y0027432
X01343847Y0044196
X01242247
X01831935Y0041402
X018669Y0045212
X0189738
X01933535Y0041402
X0202438Y0046228
X0204978
X0189738Y0055372
X018669
X0145034Y00508
X0142494
X01347022Y0052578
X01343847Y004826
X01242247
X01245422Y0052578
X0106426Y00508
X0103886
X0097536Y0050038
Y0053848
X0087376
Y0050038
X0083312
X0073152
X0067818Y00508
X0065278
X00583184Y005207
Y0055372
Y004826
X00481584
Y005207
Y0055372
X0029464Y00508
X0026924
X0025908Y0056642
X0015748
X0010668Y0050038
X0020828
T04
X0006604Y010795
X0014104
X0044196
X0051696
X0082296
X0089796
X0121158
X0128658
T05
X0084415Y001775
X0092035
X0099655
X0107275
X0103465Y002275
X011557Y002278
X0088225Y002275
X012319Y002278
X011938Y001778
X0127
X013843
X014605
X014224Y002278
X013462
X0159512Y004033
Y004287
Y004541
T06
X001143Y0034488
Y0037028
X001397
X001651
X001905
X002159
X002413
X002667
X002921
X003175
X003429
X003683
Y0034488
X003429
X003175
X002921
X002667
X002413
X002159
X001905
X001651
X001397
X003937
X004191
X004445
X004699
X004953
X005207
X005461
X005715
X005969
Y0037028
X005715
X005461
X005207
X004953
X004699
X004445
X004191
X003937
X020066Y003302
Y003048
Y002794
Y00254
Y002286
Y002032
Y001778
Y001524
T07
X00087884Y0014422
X00113284
X00138684
X00164084
X00189484
X00214884
X00240284
X00265684
X00291084
X00316484
X00341884
X00367284
Y0039822
X00341884
X00316484
X00291084
X00265684
X00240284
X00214884
X00189484
X00164084
X00138684
X00113284
X00087884
X00392684
X00418084
X00443484
X00468884
X00494284
X00519684
X00545084
Y0014422
X00519684
X00494284
X00468884
X00443484
X00418084
X00392684
T08
X012319Y0038656
Y0041656
X01266222Y0059436
X01296222
X00895669Y0060198
X00865669
X00532384Y0061722
X00502384
X00265684Y006096
X00235684
T09
X01603861Y0055224
X01683861
X012827Y00762
X012077
X0089408Y00762
X0081908
X0051054Y00762
X0043554
X0012326
X0004826
Y00962
Y01012
X0012326
Y00962
X0043554
Y01012
X0051054
Y00962
X0081908Y00962
Y01012
X0089408
Y00962
X012077Y00962
Y01012
X012827
Y00962
X01603861Y0100224
X01619521Y0109164
X01844521
X01811861Y0100224
T10
X018923Y0078684
Y0083764
Y009398
Y009906
Y0108966
Y0114046
T11
X0021844Y009271
X0028194Y0096901
X0034544Y009271
X0060198
X0066548Y0096901
X0072898Y009271
X0098806
X0105156Y0096901
X0111506Y009271
X0137414
X0143764Y0096901
X0150114Y009271
T12
X0195834Y008097
Y0096464
X019558Y0111704
T13
X000657Y0012398
Y0035398
X006457
Y0012398
T15
X020066Y000762
X012954Y000635
X009525
X000635
X020066Y004064
X000508Y011938
X004318Y0119324
X00762Y011938
X011938
X01524
T16
X0165242Y0005588
X00762
X020066Y005715
X01905Y006985
X0143764Y007239
X0105156
X011557Y005715
X007747
X0066548Y007239
X0028194
X000762Y005715
X00254Y011938
X008636
X010922
X01778
M30
