<svg width="208.28mm" height="124.46002286mm" viewBox="0 0 82000000 49000009"  version="1.1" xmlns="http://www.w3.org/2000/svg" xmlns:xlink="http://www.w3.org/1999/xlink">
<desc>
Origin 78639995 59292042 Bound 78639995 59292042 82000000 49000009
</desc>
<g fill-rule="evenodd" fill="rgb(128, 0, 128)" stroke="black" stroke-width="1" transform="translate(0, 49000009) scale(1, -1) translate(-78639995, -59292042)">
<path id="N" d="M 160639994.00 107390533.00 L 160639994.00 60193550.00 A 1004835.65 1004835.65 0 0 0 159738485.00 59292041.00 L 155619361.00 59292047.00 L 154641408.00 60270000.00 L 154641408.00 61768602.00 L 154640005.00 61770005.00 L 146640005.00 61770005.00 L 146587628.00 61717628.00 L 146587628.00 60239680.00 L 145639995.00 59292047.00 L 98139985.00 59292047.00 L 97140005.00 60292027.00 L 97140005.00 61770005.00 L 88640005.00 61770005.00 L 88617958.00 61747958.00 L 88617958.00 60270010.00 L 87639995.00 59292047.00 L 79541502.00 59292041.00 A 1004864.09 1004864.09 0 0 0 78639995.00 60193549.00 L 78640000.00 65752252.00 L 78666820.00 65779072.00 L 80130938.00 65779072.00 L 80140005.00 65770005.00 L 80140005.00 72770010.00 L 78640000.00 72770010.00 L 78640000.00 83764280.00 L 84634280.00 83764280.00 L 84640005.00 83770005.00 L 84640005.00 84765136.00 L 78640000.00 84765136.00 L 78639994.00 107390532.00 A 1004849.28 1004849.28 0 0 0 79541503.00 108292041.00 L 98617963.00 108292047.00 L 99640005.00 107270005.00 L 99640005.00 106270005.00 L 104640005.00 106270005.00 L 104646352.00 106276352.00 L 104646352.00 107237026.00 L 105701373.00 108292047.00 L 128610179.00 108292047.00 L 129640005.00 107262221.00 L 129640005.00 106270005.00 L 134640005.00 106270005.00 L 134640005.00 107292057.00 L 135639995.00 108292047.00 L 159738486.00 108292050.00 A 1004829.35 1004829.35 0 0 0 160639994.00 107390533.00  zM 81139991.07 61792057.58 m -672513.42 0 a 672513.42 672513.42 0 1 1 1345026.84 0a 672513.42 672513.42 0 1 1 -1345026.84 0M 82507091.00 65377091.00 L 81692919.00 65377091.00 L 81692919.00 64562919.00 L 82507091.00 64562919.00 L 82507091.00 65377091.00  zM 83100005.24 64970007.04 m -410596.96 0 a 410596.96 410596.96 0 1 1 821193.91 0a 410596.96 410596.96 0 1 1 -821193.91 0M 87100005.24 64970007.04 m -410596.96 0 a 410596.96 410596.96 0 1 1 821193.91 0a 410596.96 410596.96 0 1 1 -821193.91 0M 88100005.24 64970007.04 m -410596.96 0 a 410596.96 410596.96 0 1 1 821193.91 0a 410596.96 410596.96 0 1 1 -821193.91 0M 84100005.24 64970007.04 m -410596.96 0 a 410596.96 410596.96 0 1 1 821193.91 0a 410596.96 410596.96 0 1 1 -821193.91 0M 85100005.24 64970007.04 m -410596.96 0 a 410596.96 410596.96 0 1 1 821193.91 0a 410596.96 410596.96 0 1 1 -821193.91 0M 86100005.24 64970007.04 m -410596.96 0 a 410596.96 410596.96 0 1 1 821193.91 0a 410596.96 410596.96 0 1 1 -821193.91 0M 83841892.00 72929060.00 L 83841892.00 72810950.00 A 258101.18 258101.18 0 0 1 84358118.00 72810950.00 L 84358118.00 72929060.00 A 258101.18 258101.18 0 1 1 83841892.00 72929060.00  zM 84841892.00 72929060.00 L 84841892.00 72810950.00 A 258101.18 258101.18 0 0 1 85358118.00 72810950.00 L 85358118.00 72929060.00 A 258101.18 258101.18 0 1 1 84841892.00 72929060.00  zM 82841892.00 72929060.00 L 82841892.00 72810950.00 A 258101.18 258101.18 0 0 1 83358118.00 72810950.00 L 83358118.00 72929060.00 A 258101.18 258101.18 0 0 1 82841892.00 72929060.00  zM 82841892.00 73929060.00 L 82841892.00 73810950.00 A 258101.18 258101.18 0 0 1 83358118.00 73810950.00 L 83358118.00 73929060.00 A 258101.18 258101.18 0 0 1 82841892.00 73929060.00  zM 83841892.00 73929060.00 L 83841892.00 73810950.00 A 258101.18 258101.18 0 0 1 84358118.00 73810950.00 L 84358118.00 73929060.00 A 258101.18 258101.18 0 1 1 83841892.00 73929060.00  zM 85841892.00 72929060.00 L 85841892.00 72810950.00 A 258101.18 258101.18 0 0 1 86358118.00 72810950.00 L 86358118.00 72929060.00 A 258101.18 258101.18 0 0 1 85841892.00 72929060.00  zM 84841892.00 73929060.00 L 84841892.00 73810950.00 A 258101.18 258101.18 0 0 1 85358118.00 73810950.00 L 85358118.00 73929060.00 A 258101.18 258101.18 0 1 1 84841892.00 73929060.00  zM 86841892.00 72929060.00 L 86841892.00 72810950.00 A 258101.18 258101.18 0 0 1 87358118.00 72810950.00 L 87358118.00 72929060.00 A 258101.18 258101.18 0 1 1 86841892.00 72929060.00  zM 87841892.00 72929060.00 L 87841892.00 72810950.00 A 258101.18 258101.18 0 0 1 88358118.00 72810950.00 L 88358118.00 72929060.00 A 258101.18 258101.18 0 1 1 87841892.00 72929060.00  zM 86841892.00 73929060.00 L 86841892.00 73810950.00 A 258101.18 258101.18 0 0 1 87358118.00 73810950.00 L 87358118.00 73929060.00 A 258101.18 258101.18 0 1 1 86841892.00 73929060.00  zM 87841892.00 73929060.00 L 87841892.00 73810950.00 A 258101.18 258101.18 0 0 1 88358118.00 73810950.00 L 88358118.00 73929060.00 A 258101.18 258101.18 0 1 1 87841892.00 73929060.00  zM 89100005.24 64970007.04 m -410596.96 0 a 410596.96 410596.96 0 1 1 821193.91 0a 410596.96 410596.96 0 1 1 -821193.91 0M 90100005.24 64970007.04 m -410596.96 0 a 410596.96 410596.96 0 1 1 821193.91 0a 410596.96 410596.96 0 1 1 -821193.91 0M 91100005.24 64970007.04 m -410596.96 0 a 410596.96 410596.96 0 1 1 821193.91 0a 410596.96 410596.96 0 1 1 -821193.91 0M 92100005.24 64970007.04 m -410596.96 0 a 410596.96 410596.96 0 1 1 821193.91 0a 410596.96 410596.96 0 1 1 -821193.91 0M 93100005.24 64970007.04 m -410596.96 0 a 410596.96 410596.96 0 1 1 821193.91 0a 410596.96 410596.96 0 1 1 -821193.91 0M 88841892.00 72929060.00 L 88841892.00 72810950.00 A 258101.18 258101.18 0 0 1 89358118.00 72810950.00 L 89358118.00 72929060.00 A 258101.18 258101.18 0 1 1 88841892.00 72929060.00  zM 91817164.10 70482039.76 m -353022.24 0 a 353022.24 353022.24 0 1 1 706044.47 0a 353022.24 353022.24 0 1 1 -706044.47 0M 93640372.00 70701665.00 L 93599995.00 70649044.13 L 93559618.00 70701665.00 A 353027.42 353027.42 0 0 1 92969997.00 70545807.31 A 348057.99 348057.99 0 0 1 92806509.00 70757766.00 A 353022.24 353022.24 0 1 1 92969997.00 70358276.69 A 348057.99 348057.99 0 0 1 93133485.00 70146318.00 A 353022.24 353022.24 0 0 1 93559618.00 70202419.00 L 93599995.00 70255039.87 L 93640372.00 70202419.00 A 353027.42 353027.42 0 1 1 93640372.00 70701665.00  zM 92841892.00 72929060.00 L 92841892.00 72810950.00 A 258101.18 258101.18 0 0 1 93358118.00 72810950.00 L 93358118.00 72929060.00 A 258101.18 258101.18 0 0 1 92841892.00 72929060.00  zM 89841892.00 72929060.00 L 89841892.00 72810950.00 A 258101.18 258101.18 0 0 1 90358118.00 72810950.00 L 90358118.00 72929060.00 A 258101.18 258101.18 0 0 1 89841892.00 72929060.00  zM 89841892.00 73929060.00 L 89841892.00 73810950.00 A 258101.18 258101.18 0 0 1 90358118.00 73810950.00 L 90358118.00 73929060.00 A 258101.18 258101.18 0 0 1 89841892.00 73929060.00  zM 88841892.00 73929060.00 L 88841892.00 73810950.00 A 258101.18 258101.18 0 0 1 89358118.00 73810950.00 L 89358118.00 73929060.00 A 258101.18 258101.18 0 1 1 88841892.00 73929060.00  zM 90841892.00 72929060.00 L 90841892.00 72810950.00 A 258101.18 258101.18 0 0 1 91358118.00 72810950.00 L 91358118.00 72929060.00 A 258101.18 258101.18 0 1 1 90841892.00 72929060.00  zM 90841892.00 73929060.00 L 90841892.00 73810950.00 A 258101.18 258101.18 0 0 1 91358118.00 73810950.00 L 91358118.00 73929060.00 A 258101.18 258101.18 0 1 1 90841892.00 73929060.00  zM 91841892.00 72929060.00 L 91841892.00 72810950.00 A 258101.18 258101.18 0 0 1 92358118.00 72810950.00 L 92358118.00 72929060.00 A 258101.18 258101.18 0 1 1 91841892.00 72929060.00  zM 92841892.00 73929060.00 L 92841892.00 73810950.00 A 258101.18 258101.18 0 0 1 93358118.00 73810950.00 L 93358118.00 73929060.00 A 258101.18 258101.18 0 0 1 92841892.00 73929060.00  zM 93841892.00 72929060.00 L 93841892.00 72810950.00 A 258101.18 258101.18 0 0 1 94358118.00 72810950.00 L 94358118.00 72929060.00 A 258101.18 258101.18 0 1 1 93841892.00 72929060.00  zM 93841892.00 73929060.00 L 93841892.00 73810950.00 A 258101.18 258101.18 0 0 1 94358118.00 73810950.00 L 94358118.00 73929060.00 A 258101.18 258101.18 0 1 1 93841892.00 73929060.00  zM 94100005.24 64970007.04 m -410596.96 0 a 410596.96 410596.96 0 1 1 821193.91 0a 410596.96 410596.96 0 1 1 -821193.91 0M 95100005.24 64970007.04 m -410596.96 0 a 410596.96 410596.96 0 1 1 821193.91 0a 410596.96 410596.96 0 1 1 -821193.91 0M 96100005.24 64970007.04 m -410596.96 0 a 410596.96 410596.96 0 1 1 821193.91 0a 410596.96 410596.96 0 1 1 -821193.91 0M 97100005.24 64970007.04 m -410596.96 0 a 410596.96 410596.96 0 1 1 821193.91 0a 410596.96 410596.96 0 1 1 -821193.91 0M 99100005.24 64970007.04 m -410596.96 0 a 410596.96 410596.96 0 1 1 821193.91 0a 410596.96 410596.96 0 1 1 -821193.91 0M 98100005.24 64970007.04 m -410596.96 0 a 410596.96 410596.96 0 1 1 821193.91 0a 410596.96 410596.96 0 1 1 -821193.91 0M 98846172.10 65870002.76 m -353022.24 0 a 353022.24 353022.24 0 1 1 706044.47 0a 353022.24 353022.24 0 1 1 -706044.47 0M 98200006.10 66370002.76 m -353022.24 0 a 353022.24 353022.24 0 1 1 706044.47 0a 353022.24 353022.24 0 1 1 -706044.47 0M 97841892.00 72929060.00 L 97841892.00 72810950.00 A 258101.18 258101.18 0 0 1 98358118.00 72810950.00 L 98358118.00 72929060.00 A 258101.18 258101.18 0 1 1 97841892.00 72929060.00  zM 94841892.00 72929060.00 L 94841892.00 72810950.00 A 258101.18 258101.18 0 0 1 95358118.00 72810950.00 L 95358118.00 72929060.00 A 258101.18 258101.18 0 1 1 94841892.00 72929060.00  zM 94841892.00 73929060.00 L 94841892.00 73810950.00 A 258101.18 258101.18 0 0 1 95358118.00 73810950.00 L 95358118.00 73929060.00 A 258101.18 258101.18 0 1 1 94841892.00 73929060.00  zM 95841892.00 73929060.00 L 95841892.00 73810950.00 A 258101.18 258101.18 0 0 1 96358118.00 73810950.00 L 96358118.00 73929060.00 A 258101.18 258101.18 0 1 1 95841892.00 73929060.00  zM 95841892.00 72929060.00 L 95841892.00 72810950.00 A 258101.18 258101.18 0 0 1 96358118.00 72810950.00 L 96358118.00 72929060.00 A 258101.18 258101.18 0 1 1 95841892.00 72929060.00  zM 96841892.00 72929060.00 L 96841892.00 72810950.00 A 258101.18 258101.18 0 0 1 97358118.00 72810950.00 L 97358118.00 72929060.00 A 258101.18 258101.18 0 0 1 96841892.00 72929060.00  zM 96841892.00 73929060.00 L 96841892.00 73810950.00 A 258101.18 258101.18 0 0 1 97358118.00 73810950.00 L 97358118.00 73929060.00 A 258101.18 258101.18 0 0 1 96841892.00 73929060.00  zM 97841892.00 73929060.00 L 97841892.00 73810950.00 A 258101.18 258101.18 0 0 1 98358118.00 73810950.00 L 98358118.00 73929060.00 A 258101.18 258101.18 0 1 1 97841892.00 73929060.00  zM 98841892.00 72929060.00 L 98841892.00 72810950.00 A 258101.18 258101.18 0 0 1 99358118.00 72810950.00 L 99358118.00 72929060.00 A 258101.18 258101.18 0 1 1 98841892.00 72929060.00  zM 98841892.00 73929060.00 L 98841892.00 73810950.00 A 258101.18 258101.18 0 0 1 99358118.00 73810950.00 L 99358118.00 73929060.00 A 258101.18 258101.18 0 1 1 98841892.00 73929060.00  zM 100307877.65 63570012.40 m -329186.60 0 a 329186.60 329186.60 0 1 1 658373.19 0a 329186.60 329186.60 0 1 1 -658373.19 0M 101292129.65 63570012.40 m -329186.60 0 a 329186.60 329186.60 0 1 1 658373.19 0a 329186.60 329186.60 0 1 1 -658373.19 0M 100100005.24 64970007.04 m -410596.96 0 a 410596.96 410596.96 0 1 1 821193.91 0a 410596.96 410596.96 0 1 1 -821193.91 0M 102300006.10 65570002.76 m -353022.24 0 a 353022.24 353022.24 0 1 1 706044.47 0a 353022.24 353022.24 0 1 1 -706044.47 0M 102410888.10 66370002.76 m -353022.24 0 a 353022.24 353022.24 0 1 1 706044.47 0a 353022.24 353022.24 0 1 1 -706044.47 0M 108639994.69 61492050.67 m -1480934.33 0 a 1480934.33 1480934.33 0 1 1 2961868.66 0a 1480934.33 1480934.33 0 1 1 -2961868.66 0M 105134221.00 69433601.00 L 105144378.81 69409077.90 L 105131549.00 69410767.00 A 353022.24 353022.24 0 1 1 105472540.00 69149115.00 L 105462382.19 69173638.10 L 105475212.00 69171949.00 A 353022.24 353022.24 0 1 1 105134221.00 69433601.00  zM 103597428.10 69560174.76 m -353022.24 0 a 353022.24 353022.24 0 1 1 706044.47 0a 353022.24 353022.24 0 1 1 -706044.47 0M 104100006.10 70070002.76 m -353022.24 0 a 353022.24 353022.24 0 1 1 706044.47 0a 353022.24 353022.24 0 1 1 -706044.47 0M 99841892.00 72929060.00 L 99841892.00 72810950.00 A 258101.18 258101.18 0 0 1 100358118.00 72810950.00 L 100358118.00 72929060.00 A 258101.18 258101.18 0 0 1 99841892.00 72929060.00  zM 99841892.00 73929060.00 L 99841892.00 73810950.00 A 258101.18 258101.18 0 0 1 100358118.00 73810950.00 L 100358118.00 73929060.00 A 258101.18 258101.18 0 0 1 99841892.00 73929060.00  zM 100841892.00 73929060.00 L 100841892.00 73810950.00 A 258101.18 258101.18 0 0 1 101358118.00 73810950.00 L 101358118.00 73929060.00 A 258101.18 258101.18 0 0 1 100841892.00 73929060.00  zM 100841892.00 72929060.00 L 100841892.00 72810950.00 A 258101.18 258101.18 0 0 1 101358118.00 72810950.00 L 101358118.00 72929060.00 A 258101.18 258101.18 0 0 1 100841892.00 72929060.00  zM 101841892.00 73929060.00 L 101841892.00 73810950.00 A 258101.18 258101.18 0 0 1 102358118.00 73810950.00 L 102358118.00 73929060.00 A 258101.18 258101.18 0 0 1 101841892.00 73929060.00  zM 103597428.10 71270002.76 m -353022.24 0 a 353022.24 353022.24 0 1 1 706044.47 0a 353022.24 353022.24 0 1 1 -706044.47 0M 101841892.00 72929060.00 L 101841892.00 72810950.00 A 258101.18 258101.18 0 0 1 102358118.00 72810950.00 L 102358118.00 72929060.00 A 258101.18 258101.18 0 0 1 101841892.00 72929060.00  zM 104500006.10 71470002.76 m -353022.24 0 a 353022.24 353022.24 0 1 1 706044.47 0a 353022.24 353022.24 0 1 1 -706044.47 0M 106470714.10 72070002.76 m -353022.24 0 a 353022.24 353022.24 0 1 1 706044.47 0a 353022.24 353022.24 0 1 1 -706044.47 0M 80355741.65 76370012.40 m -329186.60 0 a 329186.60 329186.60 0 1 1 658373.19 0a 329186.60 329186.60 0 1 1 -658373.19 0M 81339993.65 76370012.40 m -329186.60 0 a 329186.60 329186.60 0 1 1 658373.19 0a 329186.60 329186.60 0 1 1 -658373.19 0M 82100005.24 74970007.04 m -410596.96 0 a 410596.96 410596.96 0 1 1 821193.91 0a 410596.96 410596.96 0 1 1 -821193.91 0M 83100005.24 74970007.04 m -410596.96 0 a 410596.96 410596.96 0 1 1 821193.91 0a 410596.96 410596.96 0 1 1 -821193.91 0M 82709995.00 76766531.00 L 82369995.00 76766531.00 L 82199995.00 76596531.00 L 82199995.00 76256531.00 L 82369995.00 76086531.00 L 82709995.00 76086531.00 L 82879995.00 76256531.00 L 82879995.00 76596531.00 L 82709995.00 76766531.00  zM 84100005.24 74970007.04 m -410596.96 0 a 410596.96 410596.96 0 1 1 821193.91 0a 410596.96 410596.96 0 1 1 -821193.91 0M 85100005.24 74970007.04 m -410596.96 0 a 410596.96 410596.96 0 1 1 821193.91 0a 410596.96 410596.96 0 1 1 -821193.91 0M 85841892.00 73929060.00 L 85841892.00 73810950.00 A 258101.18 258101.18 0 0 1 86358118.00 73810950.00 L 86358118.00 73929060.00 A 258101.18 258101.18 0 0 1 85841892.00 73929060.00  zM 83566304.00 77578724.00 L 83226304.00 77578724.00 L 83056304.00 77408724.00 L 83056304.00 77068724.00 L 83226304.00 76898724.00 L 83566304.00 76898724.00 L 83736304.00 77068724.00 L 83736304.00 77408724.00 L 83566304.00 77578724.00  zM 86100005.24 74970007.04 m -410596.96 0 a 410596.96 410596.96 0 1 1 821193.91 0a 410596.96 410596.96 0 1 1 -821193.91 0M 87100005.24 74970007.04 m -410596.96 0 a 410596.96 410596.96 0 1 1 821193.91 0a 410596.96 410596.96 0 1 1 -821193.91 0M 88100005.24 74970007.04 m -410596.96 0 a 410596.96 410596.96 0 1 1 821193.91 0a 410596.96 410596.96 0 1 1 -821193.91 0M 88676146.00 77578724.00 L 88336146.00 77578724.00 L 88166146.00 77408724.00 L 88166146.00 77068724.00 L 88336146.00 76898724.00 L 88676146.00 76898724.00 L 88846146.00 77068724.00 L 88846146.00 77408724.00 L 88676146.00 77578724.00  zM 89100005.24 74970007.04 m -410596.96 0 a 410596.96 410596.96 0 1 1 821193.91 0a 410596.96 410596.96 0 1 1 -821193.91 0M 90100005.24 74970007.04 m -410596.96 0 a 410596.96 410596.96 0 1 1 821193.91 0a 410596.96 410596.96 0 1 1 -821193.91 0M 91841892.00 73929060.00 L 91841892.00 73810950.00 A 258101.18 258101.18 0 0 1 92358118.00 73810950.00 L 92358118.00 73929060.00 A 258101.18 258101.18 0 1 1 91841892.00 73929060.00  zM 92100005.24 74970007.04 m -410596.96 0 a 410596.96 410596.96 0 1 1 821193.91 0a 410596.96 410596.96 0 1 1 -821193.91 0M 91100005.24 74970007.04 m -410596.96 0 a 410596.96 410596.96 0 1 1 821193.91 0a 410596.96 410596.96 0 1 1 -821193.91 0M 92676146.00 77578724.00 L 92336146.00 77578724.00 L 92166146.00 77408724.00 L 92166146.00 77068724.00 L 92336146.00 76898724.00 L 92676146.00 76898724.00 L 92846146.00 77068724.00 L 92846146.00 77408724.00 L 92676146.00 77578724.00  zM 84896303.04 79270005.73 m -342933.27 0 a 342933.27 342933.27 0 1 1 685866.54 0a 342933.27 342933.27 0 1 1 -685866.54 0M 85896303.04 79270005.73 m -342933.27 0 a 342933.27 342933.27 0 1 1 685866.54 0a 342933.27 342933.27 0 1 1 -685866.54 0M 87566304.00 77578724.00 L 87226304.00 77578724.00 L 87056304.00 77408724.00 L 87056304.00 77068724.00 L 87226304.00 76898724.00 L 87566304.00 76898724.00 L 87736304.00 77068724.00 L 87736304.00 77408724.00 L 87566304.00 77578724.00  zM 82709995.00 80766531.00 L 82369995.00 80766531.00 L 82199995.00 80596531.00 L 82199995.00 80256531.00 L 82369995.00 80086531.00 L 82709995.00 80086531.00 L 82879995.00 80256531.00 L 82879995.00 80596531.00 L 82709995.00 80766531.00  zM 82809296.77 82006216.36 m -693900.64 0 a 693900.64 693900.64 0 1 1 1387801.28 0a 693900.64 693900.64 0 1 1 -1387801.28 0M 88023707.33 79541028.15 m -428471.85 0 a 428471.85 428471.85 0 1 1 856943.70 0a 428471.85 428471.85 0 1 1 -856943.70 0M 89204809.33 79541028.15 m -428471.85 0 a 428471.85 428471.85 0 1 1 856943.70 0a 428471.85 428471.85 0 1 1 -856943.70 0M 91251977.00 79322295.00 L 91292722.15 79291031.00 L 91251977.00 79259767.00 A 309370.18 309370.18 0 0 1 91202818.00 78886362.00 L 91232465.17 78847724.00 L 91164020.00 78847724.00 L 91164020.00 78234338.00 L 91777406.00 78234338.00 L 91777406.00 78847724.00 L 91708960.83 78847724.00 L 91738608.00 78886362.00 A 309315.66 309315.66 0 0 1 91689449.00 79259767.00 L 91648703.85 79291031.00 L 91689449.00 79322295.00 A 309370.18 309370.18 0 1 1 91251977.00 79322295.00  zM 91470713.77 82006216.36 m -693900.64 0 a 693900.64 693900.64 0 1 1 1387801.28 0a 693900.64 693900.64 0 1 1 -1387801.28 0M 81313237.08 86730611.06 m -891718.94 0 a 891718.94 891718.94 0 1 1 1783437.87 0a 891718.94 891718.94 0 1 1 -1783437.87 0M 87746306.18 89269997.94 m -497968.06 0 a 497968.06 497968.06 0 1 1 995936.12 0a 497968.06 497968.06 0 1 1 -995936.12 0M 92179379.08 86730611.06 m -891718.94 0 a 891718.94 891718.94 0 1 1 1783437.87 0a 891718.94 891718.94 0 1 1 -1783437.87 0M 84793550.18 89269997.94 m -497968.06 0 a 497968.06 497968.06 0 1 1 995936.12 0a 497968.06 497968.06 0 1 1 -995936.12 0M 85106304.00 98650005.00 L 83406304.00 98650005.00 L 83406304.00 96950005.00 L 85106304.00 96950005.00 L 85106304.00 98650005.00  zM 87606304.00 100300005.00 L 85906304.00 100300005.00 L 85906304.00 98600005.00 L 87606304.00 98600005.00 L 87606304.00 100300005.00  zM 90106304.00 98650005.00 L 88406304.00 98650005.00 L 88406304.00 96950005.00 L 90106304.00 96950005.00 L 90106304.00 98650005.00  zM 80639991.07 106292062.58 m -672513.42 0 a 672513.42 672513.42 0 1 1 1345026.84 0a 672513.42 672513.42 0 1 1 -1345026.84 0M 88639994.69 106292050.67 m -1480934.33 0 a 1480934.33 1480934.33 0 1 1 2961868.66 0a 1480934.33 1480934.33 0 1 1 -2961868.66 0M 94100005.24 74970007.04 m -410596.96 0 a 410596.96 410596.96 0 1 1 821193.91 0a 410596.96 410596.96 0 1 1 -821193.91 0M 95100005.24 74970007.04 m -410596.96 0 a 410596.96 410596.96 0 1 1 821193.91 0a 410596.96 410596.96 0 1 1 -821193.91 0M 96100005.24 74970007.04 m -410596.96 0 a 410596.96 410596.96 0 1 1 821193.91 0a 410596.96 410596.96 0 1 1 -821193.91 0M 93100005.24 74970007.04 m -410596.96 0 a 410596.96 410596.96 0 1 1 821193.91 0a 410596.96 410596.96 0 1 1 -821193.91 0M 94139994.69 78792050.67 m -1480934.33 0 a 1480934.33 1480934.33 0 1 1 2961868.66 0a 1480934.33 1480934.33 0 1 1 -2961868.66 0M 98100005.24 74970007.04 m -410596.96 0 a 410596.96 410596.96 0 1 1 821193.91 0a 410596.96 410596.96 0 1 1 -821193.91 0M 99100005.24 74970007.04 m -410596.96 0 a 410596.96 410596.96 0 1 1 821193.91 0a 410596.96 410596.96 0 1 1 -821193.91 0M 97100005.24 74970007.04 m -410596.96 0 a 410596.96 410596.96 0 1 1 821193.91 0a 410596.96 410596.96 0 1 1 -821193.91 0M 98566304.00 77578724.00 L 98226304.00 77578724.00 L 98056304.00 77408724.00 L 98056304.00 77068724.00 L 98226304.00 76898724.00 L 98566304.00 76898724.00 L 98736304.00 77068724.00 L 98736304.00 77408724.00 L 98566304.00 77578724.00  zM 100100005.24 74970007.04 m -410596.96 0 a 410596.96 410596.96 0 1 1 821193.91 0a 410596.96 410596.96 0 1 1 -821193.91 0M 102566304.00 77578724.00 L 102226304.00 77578724.00 L 102056304.00 77408724.00 L 102056304.00 77068724.00 L 102226304.00 76898724.00 L 102566304.00 76898724.00 L 102736304.00 77068724.00 L 102736304.00 77408724.00 L 102566304.00 77578724.00  zM 103676146.00 77578724.00 L 103336146.00 77578724.00 L 103166146.00 77408724.00 L 103166146.00 77068724.00 L 103336146.00 76898724.00 L 103676146.00 76898724.00 L 103846146.00 77068724.00 L 103846146.00 77408724.00 L 103676146.00 77578724.00  zM 103709995.00 76143724.00 L 103369995.00 76143724.00 L 103199995.00 75973724.00 L 103199995.00 75633724.00 L 103369995.00 75463724.00 L 103709995.00 75463724.00 L 103879995.00 75633724.00 L 103879995.00 75973724.00 L 103709995.00 76143724.00  zM 105334175.10 74407039.76 m -353022.24 0 a 353022.24 353022.24 0 1 1 706044.47 0a 353022.24 353022.24 0 1 1 -706044.47 0M 107709995.00 76143724.00 L 107369995.00 76143724.00 L 107199995.00 75973724.00 L 107199995.00 75633724.00 L 107369995.00 75463724.00 L 107709995.00 75463724.00 L 107879995.00 75633724.00 L 107879995.00 75973724.00 L 107709995.00 76143724.00  zM 107676146.00 77578724.00 L 107336146.00 77578724.00 L 107166146.00 77408724.00 L 107166146.00 77068724.00 L 107336146.00 76898724.00 L 107676146.00 76898724.00 L 107846146.00 77068724.00 L 107846146.00 77408724.00 L 107676146.00 77578724.00  zM 106251977.00 79322295.00 L 106292722.15 79291031.00 L 106251977.00 79259767.00 A 309370.18 309370.18 0 0 1 106202818.00 78886362.00 L 106232465.17 78847724.00 L 106164020.00 78847724.00 L 106164020.00 78234338.00 L 106777406.00 78234338.00 L 106777406.00 78847724.00 L 106708960.83 78847724.00 L 106738608.00 78886362.00 A 309315.66 309315.66 0 0 1 106689449.00 79259767.00 L 106648703.85 79291031.00 L 106689449.00 79322295.00 A 309370.18 309370.18 0 1 1 106251977.00 79322295.00  zM 109139994.69 78792050.67 m -1480934.33 0 a 1480934.33 1480934.33 0 1 1 2961868.66 0a 1480934.33 1480934.33 0 1 1 -2961868.66 0M 98509454.00 84863413.00 L 89690556.00 84863413.00 A 593408.94 593408.94 0 0 1 89690556.00 83676597.00 L 98509454.00 83676597.00 A 593408.94 593408.94 0 0 1 98509454.00 84863413.00  zM 96313237.08 86730611.06 m -891718.94 0 a 891718.94 891718.94 0 1 1 1783437.87 0a 891718.94 891718.94 0 1 1 -1783437.87 0M 97809296.77 82006216.36 m -693900.64 0 a 693900.64 693900.64 0 1 1 1387801.28 0a 693900.64 693900.64 0 1 1 -1387801.28 0M 99896303.04 79270005.73 m -342933.27 0 a 342933.27 342933.27 0 1 1 685866.54 0a 342933.27 342933.27 0 1 1 -685866.54 0M 100896303.04 79270005.73 m -342933.27 0 a 342933.27 342933.27 0 1 1 685866.54 0a 342933.27 342933.27 0 1 1 -685866.54 0M 103023707.33 79541028.15 m -428471.85 0 a 428471.85 428471.85 0 1 1 856943.70 0a 428471.85 428471.85 0 1 1 -856943.70 0M 104204809.33 79541028.15 m -428471.85 0 a 428471.85 428471.85 0 1 1 856943.70 0a 428471.85 428471.85 0 1 1 -856943.70 0M 106470713.77 82006216.36 m -693900.64 0 a 693900.64 693900.64 0 1 1 1387801.28 0a 693900.64 693900.64 0 1 1 -1387801.28 0M 107179379.08 86730611.06 m -891718.94 0 a 891718.94 891718.94 0 1 1 1783437.87 0a 891718.94 891718.94 0 1 1 -1783437.87 0M 94139994.69 89292050.67 m -1480934.33 0 a 1480934.33 1480934.33 0 1 1 2961868.66 0a 1480934.33 1480934.33 0 1 1 -2961868.66 0M 99793550.18 89269997.94 m -497968.06 0 a 497968.06 497968.06 0 1 1 995936.12 0a 497968.06 497968.06 0 1 1 -995936.12 0M 100106304.00 98650005.00 L 98406304.00 98650005.00 L 98406304.00 96950005.00 L 100106304.00 96950005.00 L 100106304.00 98650005.00  zM 102746306.18 89269997.94 m -497968.06 0 a 497968.06 497968.06 0 1 1 995936.12 0a 497968.06 497968.06 0 1 1 -995936.12 0M 109139994.69 89292055.67 m -1480934.33 0 a 1480934.33 1480934.33 0 1 1 2961868.66 0a 1480934.33 1480934.33 0 1 1 -2961868.66 0M 102606304.00 100300005.00 L 100906304.00 100300005.00 L 100906304.00 98600005.00 L 102606304.00 98600005.00 L 102606304.00 100300005.00  zM 95639991.07 106270020.58 m -672513.42 0 a 672513.42 672513.42 0 1 1 1345026.84 0a 672513.42 672513.42 0 1 1 -1345026.84 0M 105106304.00 98650005.00 L 103406304.00 98650005.00 L 103406304.00 96950005.00 L 105106304.00 96950005.00 L 105106304.00 98650005.00  zM 108639991.07 106292062.58 m -672513.42 0 a 672513.42 672513.42 0 1 1 1345026.84 0a 672513.42 672513.42 0 1 1 -1345026.84 0M 111874246.50 66280234.20 m -398682.80 0 a 398682.80 398682.80 0 1 1 797365.61 0a 398682.80 398682.80 0 1 1 -797365.61 0M 113374246.50 68248738.20 m -398682.80 0 a 398682.80 398682.80 0 1 1 797365.61 0a 398682.80 398682.80 0 1 1 -797365.61 0M 111810005.00 70510005.00 L 111470005.00 70510005.00 L 111300005.00 70340005.00 L 111300005.00 70000005.00 L 111470005.00 69830005.00 L 111810005.00 69830005.00 L 111980005.00 70000005.00 L 111980005.00 70340005.00 L 111810005.00 70510005.00  zM 115021884.00 66680358.00 L 114726610.00 66680358.00 A 252489.01 252489.01 0 0 1 114474120.00 66427868.00 L 114474120.00 66132594.00 A 252489.01 252489.01 0 0 1 114726610.00 65880104.00 L 115021884.00 65880104.00 A 252489.01 252489.01 0 0 1 115274374.00 66132594.00 L 115274374.00 66427868.00 A 252489.01 252489.01 0 0 1 115021884.00 66680358.00  zM 115810005.00 70510005.00 L 115470005.00 70510005.00 L 115300005.00 70340005.00 L 115300005.00 70000005.00 L 115470005.00 69830005.00 L 115810005.00 69830005.00 L 115980005.00 70000005.00 L 115980005.00 70340005.00 L 115810005.00 70510005.00  zM 116139991.07 61792057.58 m -672513.42 0 a 672513.42 672513.42 0 1 1 1345026.84 0a 672513.42 672513.42 0 1 1 -1345026.84 0M 117874246.50 66280234.20 m -398682.80 0 a 398682.80 398682.80 0 1 1 797365.61 0a 398682.80 398682.80 0 1 1 -797365.61 0M 121021884.00 66680358.00 L 120726610.00 66680358.00 A 252489.01 252489.01 0 0 1 120474120.00 66427868.00 L 120474120.00 66132594.00 A 252489.01 252489.01 0 0 1 120726610.00 65880104.00 L 121021884.00 65880104.00 A 252489.01 252489.01 0 0 1 121274374.00 66132594.00 L 121274374.00 66427868.00 A 252489.01 252489.01 0 0 1 121021884.00 66680358.00  zM 117510005.00 70610005.00 L 117170005.00 70610005.00 L 117000005.00 70440005.00 L 117000005.00 70100005.00 L 117170005.00 69930005.00 L 117510005.00 69930005.00 L 117680005.00 70100005.00 L 117680005.00 70440005.00 L 117510005.00 70610005.00  zM 119374246.50 68248738.20 m -398682.80 0 a 398682.80 398682.80 0 1 1 797365.61 0a 398682.80 398682.80 0 1 1 -797365.61 0M 111810005.00 72010005.00 L 111470005.00 72010005.00 L 111300005.00 71840005.00 L 111300005.00 71500005.00 L 111470005.00 71330005.00 L 111810005.00 71330005.00 L 111980005.00 71500005.00 L 111980005.00 71840005.00 L 111810005.00 72010005.00  zM 114155751.65 71870012.40 m -329186.60 0 a 329186.60 329186.60 0 1 1 658373.19 0a 329186.60 329186.60 0 1 1 -658373.19 0M 115140003.65 71870012.40 m -329186.60 0 a 329186.60 329186.60 0 1 1 658373.19 0a 329186.60 329186.60 0 1 1 -658373.19 0M 111810005.00 76010005.00 L 111470005.00 76010005.00 L 111300005.00 75840005.00 L 111300005.00 75500005.00 L 111470005.00 75330005.00 L 111810005.00 75330005.00 L 111980005.00 75500005.00 L 111980005.00 75840005.00 L 111810005.00 76010005.00  zM 114110005.00 73710005.00 L 113770005.00 73710005.00 L 113600005.00 73540005.00 L 113600005.00 73200005.00 L 113770005.00 73030005.00 L 114110005.00 73030005.00 L 114280005.00 73200005.00 L 114280005.00 73540005.00 L 114110005.00 73710005.00  zM 119210005.00 71810005.00 L 118870005.00 71810005.00 L 118700005.00 71640005.00 L 118700005.00 71300005.00 L 118870005.00 71130005.00 L 119210005.00 71130005.00 L 119380005.00 71300005.00 L 119380005.00 71640005.00 L 119210005.00 71810005.00  zM 121210005.00 73710005.00 L 120870005.00 73710005.00 L 120700005.00 73540005.00 L 120700005.00 73200005.00 L 120870005.00 73030005.00 L 121210005.00 73030005.00 L 121380005.00 73200005.00 L 121380005.00 73540005.00 L 121210005.00 73710005.00  zM 118110005.00 73710005.00 L 117770005.00 73710005.00 L 117600005.00 73540005.00 L 117600005.00 73200005.00 L 117770005.00 73030005.00 L 118110005.00 73030005.00 L 118280005.00 73200005.00 L 118280005.00 73540005.00 L 118110005.00 73710005.00  zM 119210005.00 75810005.00 L 118870005.00 75810005.00 L 118700005.00 75640005.00 L 118700005.00 75300005.00 L 118870005.00 75130005.00 L 119210005.00 75130005.00 L 119380005.00 75300005.00 L 119380005.00 75640005.00 L 119210005.00 75810005.00  zM 121510005.00 70610005.00 L 121170005.00 70610005.00 L 121000005.00 70440005.00 L 121000005.00 70100005.00 L 121170005.00 69930005.00 L 121510005.00 69930005.00 L 121680005.00 70100005.00 L 121680005.00 70440005.00 L 121510005.00 70610005.00  zM 124139994.50 68260549.20 m -398682.80 0 a 398682.80 398682.80 0 1 1 797365.61 0a 398682.80 398682.80 0 1 1 -797365.61 0M 125639994.50 66292045.20 m -398682.80 0 a 398682.80 398682.80 0 1 1 797365.61 0a 398682.80 398682.80 0 1 1 -797365.61 0M 127139994.50 68260549.20 m -398682.80 0 a 398682.80 398682.80 0 1 1 797365.61 0a 398682.80 398682.80 0 1 1 -797365.61 0M 127010005.00 70210005.00 L 126670005.00 70210005.00 L 126500005.00 70040005.00 L 126500005.00 69700005.00 L 126670005.00 69530005.00 L 127010005.00 69530005.00 L 127180005.00 69700005.00 L 127180005.00 70040005.00 L 127010005.00 70210005.00  zM 129639991.07 61792057.58 m -672513.42 0 a 672513.42 672513.42 0 1 1 1345026.84 0a 672513.42 672513.42 0 1 1 -1345026.84 0M 128787632.00 66692169.00 L 128492358.00 66692169.00 A 252489.01 252489.01 0 0 1 128239868.00 66439679.00 L 128239868.00 66144405.00 A 252489.01 252489.01 0 0 1 128492358.00 65891915.00 L 128787632.00 65891915.00 A 252489.01 252489.01 0 0 1 129040122.00 66144405.00 L 129040122.00 66439679.00 A 252489.01 252489.01 0 0 1 128787632.00 66692169.00  zM 131639994.50 68260549.20 m -398682.80 0 a 398682.80 398682.80 0 1 1 797365.61 0a 398682.80 398682.80 0 1 1 -797365.61 0M 131010005.00 70210005.00 L 130670005.00 70210005.00 L 130500005.00 70040005.00 L 130500005.00 69700005.00 L 130670005.00 69530005.00 L 131010005.00 69530005.00 L 131180005.00 69700005.00 L 131180005.00 70040005.00 L 131010005.00 70210005.00  zM 121047877.65 71970012.40 m -329186.60 0 a 329186.60 329186.60 0 1 1 658373.19 0a 329186.60 329186.60 0 1 1 -658373.19 0M 122032129.65 71970012.40 m -329186.60 0 a 329186.60 329186.60 0 1 1 658373.19 0a 329186.60 329186.60 0 1 1 -658373.19 0M 125210005.00 73710005.00 L 124870005.00 73710005.00 L 124700005.00 73540005.00 L 124700005.00 73200005.00 L 124870005.00 73030005.00 L 125210005.00 73030005.00 L 125380005.00 73200005.00 L 125380005.00 73540005.00 L 125210005.00 73710005.00  zM 125610005.00 71410005.00 L 125270005.00 71410005.00 L 125100005.00 71240005.00 L 125100005.00 70900005.00 L 125270005.00 70730005.00 L 125610005.00 70730005.00 L 125780005.00 70900005.00 L 125780005.00 71240005.00 L 125610005.00 71410005.00  zM 127509995.00 74632042.00 L 127169995.00 74632042.00 L 126999995.00 74462042.00 L 126999995.00 74122042.00 L 127169995.00 73952042.00 L 127509995.00 73952042.00 L 127679995.00 74122042.00 L 127679995.00 74462042.00 L 127509995.00 74632042.00  zM 129610005.00 71410005.00 L 129270005.00 71410005.00 L 129100005.00 71240005.00 L 129100005.00 70900005.00 L 129270005.00 70730005.00 L 129610005.00 70730005.00 L 129780005.00 70900005.00 L 129780005.00 71240005.00 L 129610005.00 71410005.00  zM 131139996.10 72292039.76 m -353022.24 0 a 353022.24 353022.24 0 1 1 706044.47 0a 353022.24 353022.24 0 1 1 -706044.47 0M 132240003.65 71070012.40 m -329186.60 0 a 329186.60 329186.60 0 1 1 658373.19 0a 329186.60 329186.60 0 1 1 -658373.19 0M 131639996.10 72792039.76 m -353022.24 0 a 353022.24 353022.24 0 1 1 706044.47 0a 353022.24 353022.24 0 1 1 -706044.47 0M 112755005.00 76232042.00 L 112415005.00 76232042.00 L 112245005.00 76062042.00 L 112245005.00 75722042.00 L 112415005.00 75552042.00 L 112755005.00 75552042.00 L 112925005.00 75722042.00 L 112925005.00 76062042.00 L 112755005.00 76232042.00  zM 113566304.00 77578724.00 L 113226304.00 77578724.00 L 113056304.00 77408724.00 L 113056304.00 77068724.00 L 113226304.00 76898724.00 L 113566304.00 76898724.00 L 113736304.00 77068724.00 L 113736304.00 77408724.00 L 113566304.00 77578724.00  zM 114896303.04 79270005.73 m -342933.27 0 a 342933.27 342933.27 0 1 1 685866.54 0a 342933.27 342933.27 0 1 1 -685866.54 0M 117566304.00 77578724.00 L 117226304.00 77578724.00 L 117056304.00 77408724.00 L 117056304.00 77068724.00 L 117226304.00 76898724.00 L 117566304.00 76898724.00 L 117736304.00 77068724.00 L 117736304.00 77408724.00 L 117566304.00 77578724.00  zM 118676146.00 77578724.00 L 118336146.00 77578724.00 L 118166146.00 77408724.00 L 118166146.00 77068724.00 L 118336146.00 76898724.00 L 118676146.00 76898724.00 L 118846146.00 77068724.00 L 118846146.00 77408724.00 L 118676146.00 77578724.00  zM 112755005.00 80232042.00 L 112415005.00 80232042.00 L 112245005.00 80062042.00 L 112245005.00 79722042.00 L 112415005.00 79552042.00 L 112755005.00 79552042.00 L 112925005.00 79722042.00 L 112925005.00 80062042.00 L 112755005.00 80232042.00  zM 112809296.77 82006216.36 m -693900.64 0 a 693900.64 693900.64 0 1 1 1387801.28 0a 693900.64 693900.64 0 1 1 -1387801.28 0M 115896303.04 79270005.73 m -342933.27 0 a 342933.27 342933.27 0 1 1 685866.54 0a 342933.27 342933.27 0 1 1 -685866.54 0M 118023707.33 79541028.15 m -428471.85 0 a 428471.85 428471.85 0 1 1 856943.70 0a 428471.85 428471.85 0 1 1 -856943.70 0M 119204809.33 79541028.15 m -428471.85 0 a 428471.85 428471.85 0 1 1 856943.70 0a 428471.85 428471.85 0 1 1 -856943.70 0M 121251977.00 79322295.00 L 121292722.15 79291031.00 L 121251977.00 79259767.00 A 309370.18 309370.18 0 0 1 121202818.00 78886362.00 L 121232465.17 78847724.00 L 121164020.00 78847724.00 L 121164020.00 78234338.00 L 121777406.00 78234338.00 L 121777406.00 78847724.00 L 121708960.83 78847724.00 L 121738608.00 78886362.00 A 309315.66 309315.66 0 0 1 121689449.00 79259767.00 L 121648703.85 79291031.00 L 121689449.00 79322295.00 A 309370.18 309370.18 0 1 1 121251977.00 79322295.00  zM 122676146.00 77578724.00 L 122336146.00 77578724.00 L 122166146.00 77408724.00 L 122166146.00 77068724.00 L 122336146.00 76898724.00 L 122676146.00 76898724.00 L 122846146.00 77068724.00 L 122846146.00 77408724.00 L 122676146.00 77578724.00  zM 124139994.69 78792050.67 m -1480934.33 0 a 1480934.33 1480934.33 0 1 1 2961868.66 0a 1480934.33 1480934.33 0 1 1 -2961868.66 0M 127509995.00 78632042.00 L 127169995.00 78632042.00 L 126999995.00 78462042.00 L 126999995.00 78122042.00 L 127169995.00 77952042.00 L 127509995.00 77952042.00 L 127679995.00 78122042.00 L 127679995.00 78462042.00 L 127509995.00 78632042.00  zM 128566304.00 77578724.00 L 128226304.00 77578724.00 L 128056304.00 77408724.00 L 128056304.00 77068724.00 L 128226304.00 76898724.00 L 128566304.00 76898724.00 L 128736304.00 77068724.00 L 128736304.00 77408724.00 L 128566304.00 77578724.00  zM 129896303.04 79270005.73 m -342933.27 0 a 342933.27 342933.27 0 1 1 685866.54 0a 342933.27 342933.27 0 1 1 -685866.54 0M 127809296.77 82006216.36 m -693900.64 0 a 693900.64 693900.64 0 1 1 1387801.28 0a 693900.64 693900.64 0 1 1 -1387801.28 0M 130896303.04 79270005.73 m -342933.27 0 a 342933.27 342933.27 0 1 1 685866.54 0a 342933.27 342933.27 0 1 1 -685866.54 0M 113549454.00 84863413.00 L 104730556.00 84863413.00 A 593408.94 593408.94 0 0 1 104730556.00 83676597.00 L 113549454.00 83676597.00 A 593408.94 593408.94 0 0 1 113549454.00 84863413.00  zM 111313237.08 86730611.06 m -891718.94 0 a 891718.94 891718.94 0 1 1 1783437.87 0a 891718.94 891718.94 0 1 1 -1783437.87 0M 114793550.18 89269997.94 m -497968.06 0 a 497968.06 497968.06 0 1 1 995936.12 0a 497968.06 497968.06 0 1 1 -995936.12 0M 121470713.77 82006216.36 m -693900.64 0 a 693900.64 693900.64 0 1 1 1387801.28 0a 693900.64 693900.64 0 1 1 -1387801.28 0M 117746306.18 89269997.94 m -497968.06 0 a 497968.06 497968.06 0 1 1 995936.12 0a 497968.06 497968.06 0 1 1 -995936.12 0M 115106304.00 98650005.00 L 113406304.00 98650005.00 L 113406304.00 96950005.00 L 115106304.00 96950005.00 L 115106304.00 98650005.00  zM 120106304.00 98650005.00 L 118406304.00 98650005.00 L 118406304.00 96950005.00 L 120106304.00 96950005.00 L 120106304.00 98650005.00  zM 117606304.00 100300005.00 L 115906304.00 100300005.00 L 115906304.00 98600005.00 L 117606304.00 98600005.00 L 117606304.00 100300005.00  zM 112639994.69 106292050.67 m -1480934.33 0 a 1480934.33 1480934.33 0 1 1 2961868.66 0a 1480934.33 1480934.33 0 1 1 -2961868.66 0M 122179379.08 86730611.06 m -891718.94 0 a 891718.94 891718.94 0 1 1 1783437.87 0a 891718.94 891718.94 0 1 1 -1783437.87 0M 124139994.69 89292050.67 m -1480934.33 0 a 1480934.33 1480934.33 0 1 1 2961868.66 0a 1480934.33 1480934.33 0 1 1 -2961868.66 0M 128549454.00 84863413.00 L 119730556.00 84863413.00 A 593408.94 593408.94 0 0 1 119730556.00 83676597.00 L 128549454.00 83676597.00 A 593408.94 593408.94 0 0 1 128549454.00 84863413.00  zM 126313237.08 86730611.06 m -891718.94 0 a 891718.94 891718.94 0 1 1 1783437.87 0a 891718.94 891718.94 0 1 1 -1783437.87 0M 129793550.18 89269997.94 m -497968.06 0 a 497968.06 497968.06 0 1 1 995936.12 0a 497968.06 497968.06 0 1 1 -995936.12 0M 121639994.69 106292050.67 m -1480934.33 0 a 1480934.33 1480934.33 0 1 1 2961868.66 0a 1480934.33 1480934.33 0 1 1 -2961868.66 0M 125639991.07 106292062.58 m -672513.42 0 a 672513.42 672513.42 0 1 1 1345026.84 0a 672513.42 672513.42 0 1 1 -1345026.84 0M 130106304.00 98650005.00 L 128406304.00 98650005.00 L 128406304.00 96950005.00 L 130106304.00 96950005.00 L 130106304.00 98650005.00  zM 132606304.00 100300005.00 L 130906304.00 100300005.00 L 130906304.00 98600005.00 L 132606304.00 98600005.00 L 132606304.00 100300005.00  zM 133139994.50 66292045.20 m -398682.80 0 a 398682.80 398682.80 0 1 1 797365.61 0a 398682.80 398682.80 0 1 1 -797365.61 0M 134639994.50 68260549.20 m -398682.80 0 a 398682.80 398682.80 0 1 1 797365.61 0a 398682.80 398682.80 0 1 1 -797365.61 0M 132240003.65 70085760.40 m -329186.60 0 a 329186.60 329186.60 0 1 1 658373.19 0a 329186.60 329186.60 0 1 1 -658373.19 0M 136287632.00 66692169.00 L 135992358.00 66692169.00 A 252489.01 252489.01 0 0 1 135739868.00 66439679.00 L 135739868.00 66144405.00 A 252489.01 252489.01 0 0 1 135992358.00 65891915.00 L 136287632.00 65891915.00 A 252489.01 252489.01 0 0 1 136540122.00 66144405.00 L 136540122.00 66439679.00 A 252489.01 252489.01 0 0 1 136287632.00 66692169.00  zM 143695891.69 61492050.67 m -1480934.33 0 a 1480934.33 1480934.33 0 1 1 2961868.66 0a 1480934.33 1480934.33 0 1 1 -2961868.66 0M 135009995.00 70432042.00 L 134669995.00 70432042.00 L 134499995.00 70262042.00 L 134499995.00 69922042.00 L 134669995.00 69752042.00 L 135009995.00 69752042.00 L 135179995.00 69922042.00 L 135179995.00 70262042.00 L 135009995.00 70432042.00  zM 135009995.00 72132042.00 L 134669995.00 72132042.00 L 134499995.00 71962042.00 L 134499995.00 71622042.00 L 134669995.00 71452042.00 L 135009995.00 71452042.00 L 135179995.00 71622042.00 L 135179995.00 71962042.00 L 135009995.00 72132042.00  zM 136639993.05 73353077.82 m -258101.18 0 a 258101.18 258101.18 0 1 1 516202.36 0a 258101.18 258101.18 0 1 1 -516202.36 0M 139009995.00 70432042.00 L 138669995.00 70432042.00 L 138499995.00 70262042.00 L 138499995.00 69922042.00 L 138669995.00 69752042.00 L 139009995.00 69752042.00 L 139179995.00 69922042.00 L 139179995.00 70262042.00 L 139009995.00 70432042.00  zM 139009995.00 72132042.00 L 138669995.00 72132042.00 L 138499995.00 71962042.00 L 138499995.00 71622042.00 L 138669995.00 71452042.00 L 139009995.00 71452042.00 L 139179995.00 71622042.00 L 139179995.00 71962042.00 L 139009995.00 72132042.00  zM 135539996.10 73950002.76 m -353022.24 0 a 353022.24 353022.24 0 1 1 706044.47 0a 353022.24 353022.24 0 1 1 -706044.47 0M 133676146.00 77578724.00 L 133336146.00 77578724.00 L 133166146.00 77408724.00 L 133166146.00 77068724.00 L 133336146.00 76898724.00 L 133676146.00 76898724.00 L 133846146.00 77068724.00 L 133846146.00 77408724.00 L 133676146.00 77578724.00  zM 132566304.00 77578724.00 L 132226304.00 77578724.00 L 132056304.00 77408724.00 L 132056304.00 77068724.00 L 132226304.00 76898724.00 L 132566304.00 76898724.00 L 132736304.00 77068724.00 L 132736304.00 77408724.00 L 132566304.00 77578724.00  zM 136895900.00 74986923.00 L 136384090.00 74986923.00 L 136384090.00 74475113.00 L 136895900.00 74475113.00 L 136895900.00 74986923.00  zM 139640004.02 77058985.48 m -258108.52 0 a 258108.52 258108.52 0 1 1 516217.04 0a 258108.52 258108.52 0 1 1 -516217.04 0M 139895910.00 75936934.00 L 139384100.00 75936934.00 L 139384100.00 75425124.00 L 139895910.00 75425124.00 L 139895910.00 75936934.00  zM 142140003.65 76577886.40 m -329186.60 0 a 329186.60 329186.60 0 1 1 658373.19 0a 329186.60 329186.60 0 1 1 -658373.19 0M 142140003.65 74177886.40 m -329186.60 0 a 329186.60 329186.60 0 1 1 658373.19 0a 329186.60 329186.60 0 1 1 -658373.19 0M 142140003.65 75162138.40 m -329186.60 0 a 329186.60 329186.60 0 1 1 658373.19 0a 329186.60 329186.60 0 1 1 -658373.19 0M 157639991.07 62292062.58 m -672513.42 0 a 672513.42 672513.42 0 1 1 1345026.84 0a 672513.42 672513.42 0 1 1 -1345026.84 0M 158039995.00 65692042.00 L 157239995.00 65692042.00 L 157239995.00 64892042.00 L 158039995.00 64892042.00 L 158039995.00 65692042.00  zM 157639993.50 66292045.54 m -403448.46 0 a 403448.46 403448.46 0 1 1 806896.93 0a 403448.46 403448.46 0 1 1 -806896.93 0M 157639993.50 67292045.54 m -403448.46 0 a 403448.46 403448.46 0 1 1 806896.93 0a 403448.46 403448.46 0 1 1 -806896.93 0M 157639993.50 68292045.54 m -403448.46 0 a 403448.46 403448.46 0 1 1 806896.93 0a 403448.46 403448.46 0 1 1 -806896.93 0M 157639993.50 69292045.54 m -403448.46 0 a 403448.46 403448.46 0 1 1 806896.93 0a 403448.46 403448.46 0 1 1 -806896.93 0M 157639993.50 70292045.54 m -403448.46 0 a 403448.46 403448.46 0 1 1 806896.93 0a 403448.46 403448.46 0 1 1 -806896.93 0M 157639993.50 71292045.54 m -403448.46 0 a 403448.46 403448.46 0 1 1 806896.93 0a 403448.46 403448.46 0 1 1 -806896.93 0M 157639993.50 72292045.54 m -403448.46 0 a 403448.46 403448.46 0 1 1 806896.93 0a 403448.46 403448.46 0 1 1 -806896.93 0M 144340003.29 75170014.32 m -400264.68 0 a 400264.68 400264.68 0 1 1 800529.35 0a 400264.68 400264.68 0 1 1 -800529.35 0M 144340003.29 76170014.32 m -400264.68 0 a 400264.68 400264.68 0 1 1 800529.35 0a 400264.68 400264.68 0 1 1 -800529.35 0M 144736855.00 77566855.00 L 143943155.00 77566855.00 L 143943155.00 76773155.00 L 144736855.00 76773155.00 L 144736855.00 77566855.00  zM 146539996.10 73557039.76 m -353022.24 0 a 353022.24 353022.24 0 1 1 706044.47 0a 353022.24 353022.24 0 1 1 -706044.47 0M 149709995.00 74832042.00 L 149369995.00 74832042.00 L 149199995.00 74662042.00 L 149199995.00 74322042.00 L 149369995.00 74152042.00 L 149709995.00 74152042.00 L 149879995.00 74322042.00 L 149879995.00 74662042.00 L 149709995.00 74832042.00  zM 149709995.00 76332042.00 L 149369995.00 76332042.00 L 149199995.00 76162042.00 L 149199995.00 75822042.00 L 149369995.00 75652042.00 L 149709995.00 75652042.00 L 149879995.00 75822042.00 L 149879995.00 76162042.00 L 149709995.00 76332042.00  zM 153709995.00 76332042.00 L 153369995.00 76332042.00 L 153199995.00 76162042.00 L 153199995.00 75822042.00 L 153369995.00 75652042.00 L 153709995.00 75652042.00 L 153879995.00 75822042.00 L 153879995.00 76162042.00 L 153709995.00 76332042.00  zM 153709995.00 74832042.00 L 153369995.00 74832042.00 L 153199995.00 74662042.00 L 153199995.00 74322042.00 L 153369995.00 74152042.00 L 153709995.00 74152042.00 L 153879995.00 74322042.00 L 153879995.00 74662042.00 L 153709995.00 74832042.00  zM 157639991.07 75292062.58 m -672513.42 0 a 672513.42 672513.42 0 1 1 1345026.84 0a 672513.42 672513.42 0 1 1 -1345026.84 0M 134204809.33 79541028.15 m -428471.85 0 a 428471.85 428471.85 0 1 1 856943.70 0a 428471.85 428471.85 0 1 1 -856943.70 0M 136251977.00 79322295.00 L 136292722.15 79291031.00 L 136251977.00 79259767.00 A 309370.18 309370.18 0 0 1 136202818.00 78886362.00 L 136232465.17 78847724.00 L 136164020.00 78847724.00 L 136164020.00 78234338.00 L 136777406.00 78234338.00 L 136777406.00 78847724.00 L 136708960.83 78847724.00 L 136738608.00 78886362.00 A 309315.66 309315.66 0 0 1 136689449.00 79259767.00 L 136648703.85 79291031.00 L 136689449.00 79322295.00 A 309370.18 309370.18 0 1 1 136251977.00 79322295.00  zM 137676146.00 77578724.00 L 137336146.00 77578724.00 L 137166146.00 77408724.00 L 137166146.00 77068724.00 L 137336146.00 76898724.00 L 137676146.00 76898724.00 L 137846146.00 77068724.00 L 137846146.00 77408724.00 L 137676146.00 77578724.00  zM 133023707.33 79541028.15 m -428471.85 0 a 428471.85 428471.85 0 1 1 856943.70 0a 428471.85 428471.85 0 1 1 -856943.70 0M 136470713.77 82006216.36 m -693900.64 0 a 693900.64 693900.64 0 1 1 1387801.28 0a 693900.64 693900.64 0 1 1 -1387801.28 0M 142140003.65 77562138.40 m -329186.60 0 a 329186.60 329186.60 0 1 1 658373.19 0a 329186.60 329186.60 0 1 1 -658373.19 0M 139545512.83 80411754.48 m -458233.52 0 a 458233.52 458233.52 0 1 1 916467.04 0a 458233.52 458233.52 0 1 1 -916467.04 0M 142695118.83 80411754.48 m -458233.52 0 a 458233.52 458233.52 0 1 1 916467.04 0a 458233.52 458233.52 0 1 1 -916467.04 0M 150121259.00 78873306.00 L 150162003.51 78842042.00 L 150121259.00 78810778.00 A 309370.18 309370.18 0 0 1 150072100.00 78437373.00 L 150101747.17 78398735.00 L 150033302.00 78398735.00 L 150033302.00 77785349.00 L 150646688.00 77785349.00 L 150646688.00 78398735.00 L 150578242.83 78398735.00 L 150607890.00 78437373.00 A 309315.66 309315.66 0 0 1 150558731.00 78810778.00 L 150517986.49 78842042.00 L 150558731.00 78873306.00 A 309370.18 309370.18 0 1 1 150121259.00 78873306.00  zM 151939996.33 78010937.15 m -428471.85 0 a 428471.85 428471.85 0 1 1 856943.70 0a 428471.85 428471.85 0 1 1 -856943.70 0M 151939996.33 79192039.15 m -428471.85 0 a 428471.85 428471.85 0 1 1 856943.70 0a 428471.85 428471.85 0 1 1 -856943.70 0M 151139994.69 81792050.67 m -1480934.33 0 a 1480934.33 1480934.33 0 1 1 2961868.66 0a 1480934.33 1480934.33 0 1 1 -2961868.66 0M 155286846.00 79289680.00 L 154793144.00 79289680.00 L 154546294.00 79042829.00 L 154546294.00 78549129.00 L 154793144.00 78302278.00 L 155286846.00 78302278.00 L 155533696.00 78549129.00 L 155533696.00 79042829.00 L 155286846.00 79289680.00  zM 155286846.00 82281806.00 L 154793144.00 82281806.00 L 154546294.00 82034955.00 L 154546294.00 81541255.00 L 154793144.00 81294404.00 L 155286846.00 81294404.00 L 155533696.00 81541255.00 L 155533696.00 82034955.00 L 155286846.00 82281806.00  zM 158339994.04 77492042.73 m -342933.27 0 a 342933.27 342933.27 0 1 1 685866.54 0a 342933.27 342933.27 0 1 1 -685866.54 0M 159339994.04 77492042.73 m -342933.27 0 a 342933.27 342933.27 0 1 1 685866.54 0a 342933.27 342933.27 0 1 1 -685866.54 0M 159409995.00 79632042.00 L 159069995.00 79632042.00 L 158899995.00 79462042.00 L 158899995.00 79122042.00 L 159069995.00 78952042.00 L 159409995.00 78952042.00 L 159579995.00 79122042.00 L 159579995.00 79462042.00 L 159409995.00 79632042.00  zM 159409995.00 83632042.00 L 159069995.00 83632042.00 L 158899995.00 83462042.00 L 158899995.00 83122042.00 L 159069995.00 82952042.00 L 159409995.00 82952042.00 L 159579995.00 83122042.00 L 159579995.00 83462042.00 L 159409995.00 83632042.00  zM 132746306.18 89269997.94 m -497968.06 0 a 497968.06 497968.06 0 1 1 995936.12 0a 497968.06 497968.06 0 1 1 -995936.12 0M 139088824.00 84863413.00 L 135269926.00 84863413.00 A 593408.94 593408.94 0 0 1 135269926.00 83676597.00 L 139088824.00 83676597.00 A 593408.94 593408.94 0 0 1 139088824.00 84863413.00  zM 135106304.00 98650005.00 L 133406304.00 98650005.00 L 133406304.00 96950005.00 L 135106304.00 96950005.00 L 135106304.00 98650005.00  zM 137179379.08 86730611.06 m -891718.94 0 a 891718.94 891718.94 0 1 1 1783437.87 0a 891718.94 891718.94 0 1 1 -1783437.87 0M 148188823.00 98582603.00 L 147280163.00 98582603.00 L 147280163.00 97673943.00 L 148188823.00 97673943.00 L 148188823.00 98582603.00  zM 139210867.66 102270015.43 m -488022.57 0 a 488022.57 488022.57 0 1 1 976045.13 0a 488022.57 488022.57 0 1 1 -976045.13 0M 138639991.07 106292062.58 m -672513.42 0 a 672513.42 672513.42 0 1 1 1345026.84 0a 672513.42 672513.42 0 1 1 -1345026.84 0M 139545512.83 98128289.48 m -458233.52 0 a 458233.52 458233.52 0 1 1 916467.04 0a 458233.52 458233.52 0 1 1 -916467.04 0M 148069135.66 102270015.43 m -488022.57 0 a 488022.57 488022.57 0 1 1 976045.13 0a 488022.57 488022.57 0 1 1 -976045.13 0M 154049454.00 84863413.00 L 145230556.00 84863413.00 A 593408.94 593408.94 0 0 1 145230556.00 83676597.00 L 154049454.00 83676597.00 A 593408.94 593408.94 0 0 1 154049454.00 84863413.00  zM 151139994.69 86792050.67 m -1480934.33 0 a 1480934.33 1480934.33 0 1 1 2961868.66 0a 1480934.33 1480934.33 0 1 1 -2961868.66 0M 156440005.00 92870005.00 L 154840005.00 92870005.00 L 154040005.00 92070005.00 L 154040005.00 90470005.00 L 154840005.00 89670005.00 L 156440005.00 89670005.00 L 157240005.00 90470005.00 L 157240005.00 92070005.00 L 156440005.00 92870005.00  zM 151998932.00 92004464.00 L 152022401.45 91960556.00 L 151752604.00 91960556.00 L 151752604.00 90579454.00 L 152022401.45 90579454.00 L 151998932.00 90535546.00 A 693900.64 693900.64 0 1 1 153281078.00 90535546.00 L 153257608.55 90579454.00 L 153527406.00 90579454.00 L 153527406.00 91960556.00 L 153257608.55 91960556.00 L 153281078.00 92004464.00 A 693900.64 693900.64 0 1 1 151998932.00 92004464.00  zM 151998932.00 98004464.00 L 152022401.45 97960556.00 L 151752604.00 97960556.00 L 151752604.00 96579454.00 L 152022401.45 96579454.00 L 151998932.00 96535546.00 A 693900.64 693900.64 0 1 1 153281078.00 96535546.00 L 153257608.55 96579454.00 L 153527406.00 96579454.00 L 153527406.00 97960556.00 L 153257608.55 97960556.00 L 153281078.00 98004464.00 A 693900.64 693900.64 0 1 1 151998932.00 98004464.00  zM 156440005.00 98870005.00 L 154840005.00 98870005.00 L 154040005.00 98070005.00 L 154040005.00 96470005.00 L 154840005.00 95670005.00 L 156440005.00 95670005.00 L 157240005.00 96470005.00 L 157240005.00 98070005.00 L 156440005.00 98870005.00  zM 156440005.00 104870005.00 L 154840005.00 104870005.00 L 154040005.00 104070005.00 L 154040005.00 102470005.00 L 154840005.00 101670005.00 L 156440005.00 101670005.00 L 157240005.00 102470005.00 L 157240005.00 104070005.00 L 156440005.00 104870005.00  zM 148639994.69 106292050.67 m -1480934.33 0 a 1480934.33 1480934.33 0 1 1 2961868.66 0a 1480934.33 1480934.33 0 1 1 -2961868.66 0M 151998932.00 104004464.00 L 152022401.45 103960556.00 L 151752604.00 103960556.00 L 151752604.00 102579454.00 L 152022401.45 102579454.00 L 151998932.00 102535546.00 A 693900.64 693900.64 0 1 1 153281078.00 102535546.00 L 153257608.55 102579454.00 L 153527406.00 102579454.00 L 153527406.00 103960556.00 L 153257608.55 103960556.00 L 153281078.00 104004464.00 A 693900.64 693900.64 0 1 1 151998932.00 104004464.00  z"/>
</g>
</svg>
