<svg width="208.27999746mm" height="124.46002286mm" viewBox="0 0 81999999 49000009"  version="1.1" xmlns="http://www.w3.org/2000/svg" xmlns:xlink="http://www.w3.org/1999/xlink">
<desc>
Origin 78639995 59292042 Bound 78639995 59292042 81999999 49000009
</desc>
<g fill-rule="evenodd" fill="rgb(128, 0, 128)" stroke="black" stroke-width="1" transform="translate(0, 49000009) scale(1, -1) translate(-78639995, -59292042)">
<path id="N" d="M 159738486.00 108292049.00 A 1004836.04 1004836.04 0 0 0 160639994.00 107390533.00 L 160639993.00 60193549.00 A 1004846.33 1004846.33 0 0 0 159738486.00 59292041.00 L 155619361.00 59292047.00 L 154641408.00 60270000.00 L 154641408.00 61768602.00 L 154640005.00 61770005.00 L 146640005.00 61770005.00 L 146587628.00 61717628.00 L 146587628.00 60239680.00 L 145639995.00 59292047.00 L 98139985.00 59292047.00 L 97140005.00 60292027.00 L 97140005.00 61770005.00 L 88640005.00 61770005.00 L 88617958.00 61747958.00 L 88617958.00 60270010.00 L 87639995.00 59292047.00 L 79541501.00 59292041.00 A 1004874.78 1004874.78 0 0 0 78639995.00 60193548.00 L 78640000.00 65752252.00 L 78666820.00 65779072.00 L 80130938.00 65779072.00 L 80140005.00 65770005.00 L 80140005.00 72770010.00 L 78640000.00 72770010.00 L 78640000.00 84792042.00 L 80636488.00 84792042.00 L 80636488.00 85792042.00 L 78640000.00 85792042.00 L 78639994.00 107390532.00 A 1004864.09 1004864.09 0 0 0 79541503.00 108292041.00 L 98617963.00 108292047.00 L 99640005.00 107270005.00 L 99640005.00 106270005.00 L 104640005.00 106270005.00 L 104646352.00 106276352.00 L 104646352.00 107237026.00 L 105701373.00 108292047.00 L 128610179.00 108292047.00 L 129640005.00 107262221.00 L 129640005.00 106270005.00 L 134640005.00 106270005.00 L 134640005.00 107292057.00 L 135639995.00 108292047.00 L 159738486.00 108292049.00  zM 81139991.07 61792057.58 m -672513.42 0 a 672513.42 672513.42 0 1 1 1345026.84 0a 672513.42 672513.42 0 1 1 -1345026.84 0M 82507091.00 65377091.00 L 81692919.00 65377091.00 L 81692919.00 64562919.00 L 82507091.00 64562919.00 L 82507091.00 65377091.00  zM 84100005.24 64970007.04 m -410596.96 0 a 410596.96 410596.96 0 1 1 821193.91 0a 410596.96 410596.96 0 1 1 -821193.91 0M 87100005.24 64970007.04 m -410596.96 0 a 410596.96 410596.96 0 1 1 821193.91 0a 410596.96 410596.96 0 1 1 -821193.91 0M 88100005.24 64970007.04 m -410596.96 0 a 410596.96 410596.96 0 1 1 821193.91 0a 410596.96 410596.96 0 1 1 -821193.91 0M 83100005.24 64970007.04 m -410596.96 0 a 410596.96 410596.96 0 1 1 821193.91 0a 410596.96 410596.96 0 1 1 -821193.91 0M 85100005.24 64970007.04 m -410596.96 0 a 410596.96 410596.96 0 1 1 821193.91 0a 410596.96 410596.96 0 1 1 -821193.91 0M 86100005.24 64970007.04 m -410596.96 0 a 410596.96 410596.96 0 1 1 821193.91 0a 410596.96 410596.96 0 1 1 -821193.91 0M 82841892.00 72929060.00 L 82841892.00 72810950.00 A 258101.18 258101.18 0 0 1 83358118.00 72810950.00 L 83358118.00 72929060.00 A 258101.18 258101.18 0 0 1 82841892.00 72929060.00  zM 86841892.00 72929060.00 L 86841892.00 72810950.00 A 258101.18 258101.18 0 0 1 87358118.00 72810950.00 L 87358118.00 72929060.00 A 258101.18 258101.18 0 1 1 86841892.00 72929060.00  zM 83841892.00 72929060.00 L 83841892.00 72810950.00 A 258101.18 258101.18 0 0 1 84358118.00 72810950.00 L 84358118.00 72929060.00 A 258101.18 258101.18 0 1 1 83841892.00 72929060.00  zM 83841892.00 73929060.00 L 83841892.00 73810950.00 A 258101.18 258101.18 0 0 1 84358118.00 73810950.00 L 84358118.00 73929060.00 A 258101.18 258101.18 0 1 1 83841892.00 73929060.00  zM 82841892.00 73929060.00 L 82841892.00 73810950.00 A 258101.18 258101.18 0 0 1 83358118.00 73810950.00 L 83358118.00 73929060.00 A 258101.18 258101.18 0 0 1 82841892.00 73929060.00  zM 84841892.00 72929060.00 L 84841892.00 72810950.00 A 258101.18 258101.18 0 0 1 85358118.00 72810950.00 L 85358118.00 72929060.00 A 258101.18 258101.18 0 1 1 84841892.00 72929060.00  zM 84841892.00 73929060.00 L 84841892.00 73810950.00 A 258101.18 258101.18 0 0 1 85358118.00 73810950.00 L 85358118.00 73929060.00 A 258101.18 258101.18 0 1 1 84841892.00 73929060.00  zM 85841892.00 72929060.00 L 85841892.00 72810950.00 A 258101.18 258101.18 0 0 1 86358118.00 72810950.00 L 86358118.00 72929060.00 A 258101.18 258101.18 0 0 1 85841892.00 72929060.00  zM 85841892.00 73929060.00 L 85841892.00 73810950.00 A 258101.18 258101.18 0 0 1 86358118.00 73810950.00 L 86358118.00 73929060.00 A 258101.18 258101.18 0 0 1 85841892.00 73929060.00  zM 87841892.00 72929060.00 L 87841892.00 72810950.00 A 258101.18 258101.18 0 0 1 88358118.00 72810950.00 L 88358118.00 72929060.00 A 258101.18 258101.18 0 1 1 87841892.00 72929060.00  zM 86841892.00 73929060.00 L 86841892.00 73810950.00 A 258101.18 258101.18 0 0 1 87358118.00 73810950.00 L 87358118.00 73929060.00 A 258101.18 258101.18 0 1 1 86841892.00 73929060.00  zM 89100005.24 64970007.04 m -410596.96 0 a 410596.96 410596.96 0 1 1 821193.91 0a 410596.96 410596.96 0 1 1 -821193.91 0M 90100005.24 64970007.04 m -410596.96 0 a 410596.96 410596.96 0 1 1 821193.91 0a 410596.96 410596.96 0 1 1 -821193.91 0M 91100005.24 64970007.04 m -410596.96 0 a 410596.96 410596.96 0 1 1 821193.91 0a 410596.96 410596.96 0 1 1 -821193.91 0M 92100005.24 64970007.04 m -410596.96 0 a 410596.96 410596.96 0 1 1 821193.91 0a 410596.96 410596.96 0 1 1 -821193.91 0M 93100005.24 64970007.04 m -410596.96 0 a 410596.96 410596.96 0 1 1 821193.91 0a 410596.96 410596.96 0 1 1 -821193.91 0M 91817164.10 70482039.76 m -353022.24 0 a 353022.24 353022.24 0 1 1 706044.47 0a 353022.24 353022.24 0 1 1 -706044.47 0M 90841892.00 72929060.00 L 90841892.00 72810950.00 A 258101.18 258101.18 0 0 1 91358118.00 72810950.00 L 91358118.00 72929060.00 A 258101.18 258101.18 0 1 1 90841892.00 72929060.00  zM 91841892.00 72929060.00 L 91841892.00 72810950.00 A 258101.18 258101.18 0 0 1 92358118.00 72810950.00 L 92358118.00 72929060.00 A 258101.18 258101.18 0 1 1 91841892.00 72929060.00  zM 93640372.00 70701665.00 L 93599995.00 70649044.13 L 93559618.00 70701665.00 A 353027.42 353027.42 0 0 1 92969997.00 70545807.31 A 348057.99 348057.99 0 0 1 92806509.00 70757766.00 A 353022.24 353022.24 0 1 1 92969997.00 70358276.69 A 348057.99 348057.99 0 0 1 93133485.00 70146318.00 A 353022.24 353022.24 0 0 1 93559618.00 70202419.00 L 93599995.00 70255039.87 L 93640372.00 70202419.00 A 353027.42 353027.42 0 1 1 93640372.00 70701665.00  zM 93841892.00 72929060.00 L 93841892.00 72810950.00 A 258101.18 258101.18 0 0 1 94358118.00 72810950.00 L 94358118.00 72929060.00 A 258101.18 258101.18 0 1 1 93841892.00 72929060.00  zM 88841892.00 72929060.00 L 88841892.00 72810950.00 A 258101.18 258101.18 0 0 1 89358118.00 72810950.00 L 89358118.00 72929060.00 A 258101.18 258101.18 0 1 1 88841892.00 72929060.00  zM 88841892.00 73929060.00 L 88841892.00 73810950.00 A 258101.18 258101.18 0 0 1 89358118.00 73810950.00 L 89358118.00 73929060.00 A 258101.18 258101.18 0 1 1 88841892.00 73929060.00  zM 87841892.00 73929060.00 L 87841892.00 73810950.00 A 258101.18 258101.18 0 0 1 88358118.00 73810950.00 L 88358118.00 73929060.00 A 258101.18 258101.18 0 1 1 87841892.00 73929060.00  zM 89841892.00 72929060.00 L 89841892.00 72810950.00 A 258101.18 258101.18 0 0 1 90358118.00 72810950.00 L 90358118.00 72929060.00 A 258101.18 258101.18 0 0 1 89841892.00 72929060.00  zM 89841892.00 73929060.00 L 89841892.00 73810950.00 A 258101.18 258101.18 0 0 1 90358118.00 73810950.00 L 90358118.00 73929060.00 A 258101.18 258101.18 0 0 1 89841892.00 73929060.00  zM 90841892.00 73929060.00 L 90841892.00 73810950.00 A 258101.18 258101.18 0 0 1 91358118.00 73810950.00 L 91358118.00 73929060.00 A 258101.18 258101.18 0 1 1 90841892.00 73929060.00  zM 91841892.00 73929060.00 L 91841892.00 73810950.00 A 258101.18 258101.18 0 0 1 92358118.00 73810950.00 L 92358118.00 73929060.00 A 258101.18 258101.18 0 1 1 91841892.00 73929060.00  zM 92841892.00 72929060.00 L 92841892.00 72810950.00 A 258101.18 258101.18 0 0 1 93358118.00 72810950.00 L 93358118.00 72929060.00 A 258101.18 258101.18 0 0 1 92841892.00 72929060.00  zM 92841892.00 73929060.00 L 92841892.00 73810950.00 A 258101.18 258101.18 0 0 1 93358118.00 73810950.00 L 93358118.00 73929060.00 A 258101.18 258101.18 0 0 1 92841892.00 73929060.00  zM 94100005.24 64970007.04 m -410596.96 0 a 410596.96 410596.96 0 1 1 821193.91 0a 410596.96 410596.96 0 1 1 -821193.91 0M 96100005.24 64970007.04 m -410596.96 0 a 410596.96 410596.96 0 1 1 821193.91 0a 410596.96 410596.96 0 1 1 -821193.91 0M 97100005.24 64970007.04 m -410596.96 0 a 410596.96 410596.96 0 1 1 821193.91 0a 410596.96 410596.96 0 1 1 -821193.91 0M 98100005.24 64970007.04 m -410596.96 0 a 410596.96 410596.96 0 1 1 821193.91 0a 410596.96 410596.96 0 1 1 -821193.91 0M 99100005.24 64970007.04 m -410596.96 0 a 410596.96 410596.96 0 1 1 821193.91 0a 410596.96 410596.96 0 1 1 -821193.91 0M 95100005.24 64970007.04 m -410596.96 0 a 410596.96 410596.96 0 1 1 821193.91 0a 410596.96 410596.96 0 1 1 -821193.91 0M 98200006.10 66370002.76 m -353022.24 0 a 353022.24 353022.24 0 1 1 706044.47 0a 353022.24 353022.24 0 1 1 -706044.47 0M 98846172.10 65870002.76 m -353022.24 0 a 353022.24 353022.24 0 1 1 706044.47 0a 353022.24 353022.24 0 1 1 -706044.47 0M 95841892.00 72929060.00 L 95841892.00 72810950.00 A 258101.18 258101.18 0 0 1 96358118.00 72810950.00 L 96358118.00 72929060.00 A 258101.18 258101.18 0 1 1 95841892.00 72929060.00  zM 98841892.00 72929060.00 L 98841892.00 72810950.00 A 258101.18 258101.18 0 0 1 99358118.00 72810950.00 L 99358118.00 72929060.00 A 258101.18 258101.18 0 1 1 98841892.00 72929060.00  zM 94841892.00 72929060.00 L 94841892.00 72810950.00 A 258101.18 258101.18 0 0 1 95358118.00 72810950.00 L 95358118.00 72929060.00 A 258101.18 258101.18 0 1 1 94841892.00 72929060.00  zM 93841892.00 73929060.00 L 93841892.00 73810950.00 A 258101.18 258101.18 0 0 1 94358118.00 73810950.00 L 94358118.00 73929060.00 A 258101.18 258101.18 0 1 1 93841892.00 73929060.00  zM 94841892.00 73929060.00 L 94841892.00 73810950.00 A 258101.18 258101.18 0 0 1 95358118.00 73810950.00 L 95358118.00 73929060.00 A 258101.18 258101.18 0 1 1 94841892.00 73929060.00  zM 95841892.00 73929060.00 L 95841892.00 73810950.00 A 258101.18 258101.18 0 0 1 96358118.00 73810950.00 L 96358118.00 73929060.00 A 258101.18 258101.18 0 1 1 95841892.00 73929060.00  zM 96841892.00 73929060.00 L 96841892.00 73810950.00 A 258101.18 258101.18 0 0 1 97358118.00 73810950.00 L 97358118.00 73929060.00 A 258101.18 258101.18 0 0 1 96841892.00 73929060.00  zM 96841892.00 72929060.00 L 96841892.00 72810950.00 A 258101.18 258101.18 0 0 1 97358118.00 72810950.00 L 97358118.00 72929060.00 A 258101.18 258101.18 0 0 1 96841892.00 72929060.00  zM 97841892.00 73929060.00 L 97841892.00 73810950.00 A 258101.18 258101.18 0 0 1 98358118.00 73810950.00 L 98358118.00 73929060.00 A 258101.18 258101.18 0 1 1 97841892.00 73929060.00  zM 97841892.00 72929060.00 L 97841892.00 72810950.00 A 258101.18 258101.18 0 0 1 98358118.00 72810950.00 L 98358118.00 72929060.00 A 258101.18 258101.18 0 1 1 97841892.00 72929060.00  zM 98841892.00 73929060.00 L 98841892.00 73810950.00 A 258101.18 258101.18 0 0 1 99358118.00 73810950.00 L 99358118.00 73929060.00 A 258101.18 258101.18 0 1 1 98841892.00 73929060.00  zM 100307877.65 63570012.40 m -329186.60 0 a 329186.60 329186.60 0 1 1 658373.19 0a 329186.60 329186.60 0 1 1 -658373.19 0M 101292129.65 63570012.40 m -329186.60 0 a 329186.60 329186.60 0 1 1 658373.19 0a 329186.60 329186.60 0 1 1 -658373.19 0M 100100005.24 64970007.04 m -410596.96 0 a 410596.96 410596.96 0 1 1 821193.91 0a 410596.96 410596.96 0 1 1 -821193.91 0M 102300006.10 65570002.76 m -353022.24 0 a 353022.24 353022.24 0 1 1 706044.47 0a 353022.24 353022.24 0 1 1 -706044.47 0M 108639994.69 61492050.67 m -1480934.33 0 a 1480934.33 1480934.33 0 1 1 2961868.66 0a 1480934.33 1480934.33 0 1 1 -2961868.66 0M 102410888.10 66370002.76 m -353022.24 0 a 353022.24 353022.24 0 1 1 706044.47 0a 353022.24 353022.24 0 1 1 -706044.47 0M 105134221.00 69433601.00 L 105144378.81 69409077.90 L 105131549.00 69410767.00 A 353022.24 353022.24 0 1 1 105472540.00 69149115.00 L 105462382.19 69173638.10 L 105475212.00 69171949.00 A 353022.24 353022.24 0 1 1 105134221.00 69433601.00  zM 103597428.10 69560174.76 m -353022.24 0 a 353022.24 353022.24 0 1 1 706044.47 0a 353022.24 353022.24 0 1 1 -706044.47 0M 104100006.10 70070002.76 m -353022.24 0 a 353022.24 353022.24 0 1 1 706044.47 0a 353022.24 353022.24 0 1 1 -706044.47 0M 103597428.10 71270002.76 m -353022.24 0 a 353022.24 353022.24 0 1 1 706044.47 0a 353022.24 353022.24 0 1 1 -706044.47 0M 99841892.00 72929060.00 L 99841892.00 72810950.00 A 258101.18 258101.18 0 0 1 100358118.00 72810950.00 L 100358118.00 72929060.00 A 258101.18 258101.18 0 0 1 99841892.00 72929060.00  zM 100841892.00 72929060.00 L 100841892.00 72810950.00 A 258101.18 258101.18 0 0 1 101358118.00 72810950.00 L 101358118.00 72929060.00 A 258101.18 258101.18 0 0 1 100841892.00 72929060.00  zM 99841892.00 73929060.00 L 99841892.00 73810950.00 A 258101.18 258101.18 0 0 1 100358118.00 73810950.00 L 100358118.00 73929060.00 A 258101.18 258101.18 0 0 1 99841892.00 73929060.00  zM 100841892.00 73929060.00 L 100841892.00 73810950.00 A 258101.18 258101.18 0 0 1 101358118.00 73810950.00 L 101358118.00 73929060.00 A 258101.18 258101.18 0 0 1 100841892.00 73929060.00  zM 101841892.00 73929060.00 L 101841892.00 73810950.00 A 258101.18 258101.18 0 0 1 102358118.00 73810950.00 L 102358118.00 73929060.00 A 258101.18 258101.18 0 0 1 101841892.00 73929060.00  zM 101841892.00 72929060.00 L 101841892.00 72810950.00 A 258101.18 258101.18 0 0 1 102358118.00 72810950.00 L 102358118.00 72929060.00 A 258101.18 258101.18 0 0 1 101841892.00 72929060.00  zM 104500006.10 71470002.76 m -353022.24 0 a 353022.24 353022.24 0 1 1 706044.47 0a 353022.24 353022.24 0 1 1 -706044.47 0M 106470714.10 72070002.76 m -353022.24 0 a 353022.24 353022.24 0 1 1 706044.47 0a 353022.24 353022.24 0 1 1 -706044.47 0M 105334175.10 74407039.76 m -353022.24 0 a 353022.24 353022.24 0 1 1 706044.47 0a 353022.24 353022.24 0 1 1 -706044.47 0M 82100005.24 74970007.04 m -410596.96 0 a 410596.96 410596.96 0 1 1 821193.91 0a 410596.96 410596.96 0 1 1 -821193.91 0M 83100005.24 74970007.04 m -410596.96 0 a 410596.96 410596.96 0 1 1 821193.91 0a 410596.96 410596.96 0 1 1 -821193.91 0M 84100005.24 74970007.04 m -410596.96 0 a 410596.96 410596.96 0 1 1 821193.91 0a 410596.96 410596.96 0 1 1 -821193.91 0M 85100005.24 74970007.04 m -410596.96 0 a 410596.96 410596.96 0 1 1 821193.91 0a 410596.96 410596.96 0 1 1 -821193.91 0M 86100005.24 74970007.04 m -410596.96 0 a 410596.96 410596.96 0 1 1 821193.91 0a 410596.96 410596.96 0 1 1 -821193.91 0M 80355741.65 76370012.40 m -329186.60 0 a 329186.60 329186.60 0 1 1 658373.19 0a 329186.60 329186.60 0 1 1 -658373.19 0M 81339993.65 76370012.40 m -329186.60 0 a 329186.60 329186.60 0 1 1 658373.19 0a 329186.60 329186.60 0 1 1 -658373.19 0M 83009995.00 77632042.00 L 82669995.00 77632042.00 L 82499995.00 77462042.00 L 82499995.00 77122042.00 L 82669995.00 76952042.00 L 83009995.00 76952042.00 L 83179995.00 77122042.00 L 83179995.00 77462042.00 L 83009995.00 77632042.00  zM 83009995.00 79332042.00 L 82669995.00 79332042.00 L 82499995.00 79162042.00 L 82499995.00 78822042.00 L 82669995.00 78652042.00 L 83009995.00 78652042.00 L 83179995.00 78822042.00 L 83179995.00 79162042.00 L 83009995.00 79332042.00  zM 85009995.00 81932042.00 L 84669995.00 81932042.00 L 84499995.00 81762042.00 L 84499995.00 81422042.00 L 84669995.00 81252042.00 L 85009995.00 81252042.00 L 85179995.00 81422042.00 L 85179995.00 81762042.00 L 85009995.00 81932042.00  zM 87100005.24 74970007.04 m -410596.96 0 a 410596.96 410596.96 0 1 1 821193.91 0a 410596.96 410596.96 0 1 1 -821193.91 0M 88100005.24 74970007.04 m -410596.96 0 a 410596.96 410596.96 0 1 1 821193.91 0a 410596.96 410596.96 0 1 1 -821193.91 0M 87009995.00 77632042.00 L 86669995.00 77632042.00 L 86499995.00 77462042.00 L 86499995.00 77122042.00 L 86669995.00 76952042.00 L 87009995.00 76952042.00 L 87179995.00 77122042.00 L 87179995.00 77462042.00 L 87009995.00 77632042.00  zM 89100005.24 74970007.04 m -410596.96 0 a 410596.96 410596.96 0 1 1 821193.91 0a 410596.96 410596.96 0 1 1 -821193.91 0M 90100005.24 74970007.04 m -410596.96 0 a 410596.96 410596.96 0 1 1 821193.91 0a 410596.96 410596.96 0 1 1 -821193.91 0M 87009995.00 79332042.00 L 86669995.00 79332042.00 L 86499995.00 79162042.00 L 86499995.00 78822042.00 L 86669995.00 78652042.00 L 87009995.00 78652042.00 L 87179995.00 78822042.00 L 87179995.00 79162042.00 L 87009995.00 79332042.00  zM 89009995.00 81932042.00 L 88669995.00 81932042.00 L 88499995.00 81762042.00 L 88499995.00 81422042.00 L 88669995.00 81252042.00 L 89009995.00 81252042.00 L 89179995.00 81422042.00 L 89179995.00 81762042.00 L 89009995.00 81932042.00  zM 89239994.04 79292042.73 m -342933.27 0 a 342933.27 342933.27 0 1 1 685866.54 0a 342933.27 342933.27 0 1 1 -685866.54 0M 90239994.04 79292042.73 m -342933.27 0 a 342933.27 342933.27 0 1 1 685866.54 0a 342933.27 342933.27 0 1 1 -685866.54 0M 91100005.24 74970007.04 m -410596.96 0 a 410596.96 410596.96 0 1 1 821193.91 0a 410596.96 410596.96 0 1 1 -821193.91 0M 92100005.24 74970007.04 m -410596.96 0 a 410596.96 410596.96 0 1 1 821193.91 0a 410596.96 410596.96 0 1 1 -821193.91 0M 93100005.24 74970007.04 m -410596.96 0 a 410596.96 410596.96 0 1 1 821193.91 0a 410596.96 410596.96 0 1 1 -821193.91 0M 94100005.24 74970007.04 m -410596.96 0 a 410596.96 410596.96 0 1 1 821193.91 0a 410596.96 410596.96 0 1 1 -821193.91 0M 95100005.24 74970007.04 m -410596.96 0 a 410596.96 410596.96 0 1 1 821193.91 0a 410596.96 410596.96 0 1 1 -821193.91 0M 96100005.24 74970007.04 m -410596.96 0 a 410596.96 410596.96 0 1 1 821193.91 0a 410596.96 410596.96 0 1 1 -821193.91 0M 97100005.24 74970007.04 m -410596.96 0 a 410596.96 410596.96 0 1 1 821193.91 0a 410596.96 410596.96 0 1 1 -821193.91 0M 97770005.00 78632042.00 L 97430005.00 78632042.00 L 97260005.00 78462042.00 L 97260005.00 78122042.00 L 97430005.00 77952042.00 L 97770005.00 77952042.00 L 97940005.00 78122042.00 L 97940005.00 78462042.00 L 97770005.00 78632042.00  zM 97770005.00 80132042.00 L 97430005.00 80132042.00 L 97260005.00 79962042.00 L 97260005.00 79622042.00 L 97430005.00 79452042.00 L 97770005.00 79452042.00 L 97940005.00 79622042.00 L 97940005.00 79962042.00 L 97770005.00 80132042.00  zM 97770005.00 81432042.00 L 97430005.00 81432042.00 L 97260005.00 81262042.00 L 97260005.00 80922042.00 L 97430005.00 80752042.00 L 97770005.00 80752042.00 L 97940005.00 80922042.00 L 97940005.00 81262042.00 L 97770005.00 81432042.00  zM 98100005.24 74970007.04 m -410596.96 0 a 410596.96 410596.96 0 1 1 821193.91 0a 410596.96 410596.96 0 1 1 -821193.91 0M 99100005.24 74970007.04 m -410596.96 0 a 410596.96 410596.96 0 1 1 821193.91 0a 410596.96 410596.96 0 1 1 -821193.91 0M 100100005.24 74970007.04 m -410596.96 0 a 410596.96 410596.96 0 1 1 821193.91 0a 410596.96 410596.96 0 1 1 -821193.91 0M 101770005.00 80132042.00 L 101430005.00 80132042.00 L 101260005.00 79962042.00 L 101260005.00 79622042.00 L 101430005.00 79452042.00 L 101770005.00 79452042.00 L 101940005.00 79622042.00 L 101940005.00 79962042.00 L 101770005.00 80132042.00  zM 101770005.00 81432042.00 L 101430005.00 81432042.00 L 101260005.00 81262042.00 L 101260005.00 80922042.00 L 101430005.00 80752042.00 L 101770005.00 80752042.00 L 101940005.00 80922042.00 L 101940005.00 81262042.00 L 101770005.00 81432042.00  zM 101770005.00 78632042.00 L 101430005.00 78632042.00 L 101260005.00 78462042.00 L 101260005.00 78122042.00 L 101430005.00 77952042.00 L 101770005.00 77952042.00 L 101940005.00 78122042.00 L 101940005.00 78462042.00 L 101770005.00 78632042.00  zM 104339994.04 79292042.73 m -342933.27 0 a 342933.27 342933.27 0 1 1 685866.54 0a 342933.27 342933.27 0 1 1 -685866.54 0M 105339994.04 79292042.73 m -342933.27 0 a 342933.27 342933.27 0 1 1 685866.54 0a 342933.27 342933.27 0 1 1 -685866.54 0M 109139994.69 81792050.67 m -1480934.33 0 a 1480934.33 1480934.33 0 1 1 2961868.66 0a 1480934.33 1480934.33 0 1 1 -2961868.66 0M 81639994.69 81792050.67 m -1480934.33 0 a 1480934.33 1480934.33 0 1 1 2961868.66 0a 1480934.33 1480934.33 0 1 1 -2961868.66 0M 87918905.30 83292031.81 m -428479.19 0 a 428479.19 428479.19 0 1 1 856958.38 0a 428479.19 428479.19 0 1 1 -856958.38 0M 89100007.30 83292031.81 m -428479.19 0 a 428479.19 428479.19 0 1 1 856958.38 0a 428479.19 428479.19 0 1 1 -856958.38 0M 94149444.00 85885450.00 L 85330546.00 85885450.00 A 593408.94 593408.94 0 1 1 85330546.00 84698634.00 L 94149444.00 84698634.00 A 593408.94 593408.94 0 0 1 94149444.00 85885450.00  zM 90930541.00 83073306.00 L 90971285.51 83042042.00 L 90930541.00 83010778.00 A 309370.18 309370.18 0 0 1 90881382.00 82637373.00 L 90911029.17 82598735.00 L 90842584.00 82598735.00 L 90842584.00 81985349.00 L 91455970.00 81985349.00 L 91455970.00 82598735.00 L 91387524.83 82598735.00 L 91417172.00 82637373.00 A 309315.66 309315.66 0 0 1 91368013.00 83010778.00 L 91327268.49 83042042.00 L 91368013.00 83073306.00 A 309370.18 309370.18 0 1 1 90930541.00 83073306.00  zM 81033696.00 89785743.00 L 80046294.00 89785743.00 L 80046294.00 88798341.00 L 81033696.00 88798341.00 L 81033696.00 89785743.00  zM 83986452.00 89785743.00 L 82999050.00 89785743.00 L 82999050.00 88798341.00 L 83986452.00 88798341.00 L 83986452.00 89785743.00  zM 88089995.00 96642042.00 L 86389995.00 96642042.00 L 86389995.00 94942042.00 L 88089995.00 94942042.00 L 88089995.00 96642042.00  zM 89739994.69 87792050.67 m -1480934.33 0 a 1480934.33 1480934.33 0 1 1 2961868.66 0a 1480934.33 1480934.33 0 1 1 -2961868.66 0M 93089995.00 96642042.00 L 91389995.00 96642042.00 L 91389995.00 94942042.00 L 93089995.00 94942042.00 L 93089995.00 96642042.00  zM 81033696.00 97659759.00 L 80046294.00 97659759.00 L 80046294.00 96672357.00 L 81033696.00 96672357.00 L 81033696.00 97659759.00  zM 81033696.00 99628263.00 L 80046294.00 99628263.00 L 80046294.00 98640861.00 L 81033696.00 98640861.00 L 81033696.00 99628263.00  zM 83986452.00 97659759.00 L 82999050.00 97659759.00 L 82999050.00 96672357.00 L 83986452.00 96672357.00 L 83986452.00 97659759.00  zM 83986452.00 99628263.00 L 82999050.00 99628263.00 L 82999050.00 98640861.00 L 83986452.00 98640861.00 L 83986452.00 99628263.00  zM 90589995.00 98292042.00 L 88889995.00 98292042.00 L 88889995.00 96592042.00 L 90589995.00 96592042.00 L 90589995.00 98292042.00  zM 81239998.14 101792027.60 m -497975.40 0 a 497975.40 497975.40 0 1 1 995950.79 0a 497975.40 497975.40 0 1 1 -995950.79 0M 80639991.07 106292062.58 m -672513.42 0 a 672513.42 672513.42 0 1 1 1345026.84 0a 672513.42 672513.42 0 1 1 -1345026.84 0M 84192754.14 101792027.60 m -497975.40 0 a 497975.40 497975.40 0 1 1 995950.79 0a 497975.40 497975.40 0 1 1 -995950.79 0M 88639994.69 106292050.67 m -1480934.33 0 a 1480934.33 1480934.33 0 1 1 2961868.66 0a 1480934.33 1480934.33 0 1 1 -2961868.66 0M 98418905.30 83592031.81 m -428479.19 0 a 428479.19 428479.19 0 1 1 856958.38 0a 428479.19 428479.19 0 1 1 -856958.38 0M 99600007.30 83592031.81 m -428479.19 0 a 428479.19 428479.19 0 1 1 856958.38 0a 428479.19 428479.19 0 1 1 -856958.38 0M 101281269.00 83373306.00 L 101322013.51 83342042.00 L 101281269.00 83310778.00 A 309370.18 309370.18 0 0 1 101232110.00 82937373.00 L 101261757.17 82898735.00 L 101193312.00 82898735.00 L 101193312.00 82285349.00 L 101806698.00 82285349.00 L 101806698.00 82898735.00 L 101738252.83 82898735.00 L 101767900.00 82937373.00 A 309315.66 309315.66 0 0 1 101718741.00 83310778.00 L 101677996.49 83342042.00 L 101718741.00 83373306.00 A 309370.18 309370.18 0 1 1 101281269.00 83373306.00  zM 96280940.00 89785743.00 L 95293538.00 89785743.00 L 95293538.00 88798341.00 L 96280940.00 88798341.00 L 96280940.00 89785743.00  zM 99233696.00 89785743.00 L 98246294.00 89785743.00 L 98246294.00 88798341.00 L 99233696.00 88798341.00 L 99233696.00 89785743.00  zM 109249444.00 85885450.00 L 100430546.00 85885450.00 A 593408.94 593408.94 0 0 1 100430546.00 84698634.00 L 109249444.00 84698634.00 A 593408.94 593408.94 0 0 1 109249444.00 85885450.00  zM 104839994.69 87792050.67 m -1480934.33 0 a 1480934.33 1480934.33 0 1 1 2961868.66 0a 1480934.33 1480934.33 0 1 1 -2961868.66 0M 103189995.00 96642042.00 L 101489995.00 96642042.00 L 101489995.00 94942042.00 L 103189995.00 94942042.00 L 103189995.00 96642042.00  zM 108189995.00 96642042.00 L 106489995.00 96642042.00 L 106489995.00 94942042.00 L 108189995.00 94942042.00 L 108189995.00 96642042.00  zM 96280940.00 97659759.00 L 95293538.00 97659759.00 L 95293538.00 96672357.00 L 96280940.00 96672357.00 L 96280940.00 97659759.00  zM 96280940.00 99628263.00 L 95293538.00 99628263.00 L 95293538.00 98640861.00 L 96280940.00 98640861.00 L 96280940.00 99628263.00  zM 99233696.00 99628263.00 L 98246294.00 99628263.00 L 98246294.00 98640861.00 L 99233696.00 98640861.00 L 99233696.00 99628263.00  zM 96039998.14 101792027.60 m -497975.40 0 a 497975.40 497975.40 0 1 1 995950.79 0a 497975.40 497975.40 0 1 1 -995950.79 0M 95639991.07 106270020.58 m -672513.42 0 a 672513.42 672513.42 0 1 1 1345026.84 0a 672513.42 672513.42 0 1 1 -1345026.84 0M 99233696.00 97659759.00 L 98246294.00 97659759.00 L 98246294.00 96672357.00 L 99233696.00 96672357.00 L 99233696.00 97659759.00  zM 98992754.14 101792027.60 m -497975.40 0 a 497975.40 497975.40 0 1 1 995950.79 0a 497975.40 497975.40 0 1 1 -995950.79 0M 105689995.00 98292042.00 L 103989995.00 98292042.00 L 103989995.00 96592042.00 L 105689995.00 96592042.00 L 105689995.00 98292042.00  zM 108639991.07 106292062.58 m -672513.42 0 a 672513.42 672513.42 0 1 1 1345026.84 0a 672513.42 672513.42 0 1 1 -1345026.84 0M 116139991.07 61792057.58 m -672513.42 0 a 672513.42 672513.42 0 1 1 1345026.84 0a 672513.42 672513.42 0 1 1 -1345026.84 0M 111874246.50 66280234.20 m -398682.80 0 a 398682.80 398682.80 0 1 1 797365.61 0a 398682.80 398682.80 0 1 1 -797365.61 0M 117874246.50 66280234.20 m -398682.80 0 a 398682.80 398682.80 0 1 1 797365.61 0a 398682.80 398682.80 0 1 1 -797365.61 0M 115021884.00 66680358.00 L 114726610.00 66680358.00 A 252489.01 252489.01 0 0 1 114474120.00 66427868.00 L 114474120.00 66132594.00 A 252489.01 252489.01 0 0 1 114726610.00 65880104.00 L 115021884.00 65880104.00 A 252489.01 252489.01 0 0 1 115274374.00 66132594.00 L 115274374.00 66427868.00 A 252489.01 252489.01 0 0 1 115021884.00 66680358.00  zM 113374246.50 68248738.20 m -398682.80 0 a 398682.80 398682.80 0 1 1 797365.61 0a 398682.80 398682.80 0 1 1 -797365.61 0M 111810005.00 70510005.00 L 111470005.00 70510005.00 L 111300005.00 70340005.00 L 111300005.00 70000005.00 L 111470005.00 69830005.00 L 111810005.00 69830005.00 L 111980005.00 70000005.00 L 111980005.00 70340005.00 L 111810005.00 70510005.00  zM 115810005.00 70510005.00 L 115470005.00 70510005.00 L 115300005.00 70340005.00 L 115300005.00 70000005.00 L 115470005.00 69830005.00 L 115810005.00 69830005.00 L 115980005.00 70000005.00 L 115980005.00 70340005.00 L 115810005.00 70510005.00  zM 117510005.00 70610005.00 L 117170005.00 70610005.00 L 117000005.00 70440005.00 L 117000005.00 70100005.00 L 117170005.00 69930005.00 L 117510005.00 69930005.00 L 117680005.00 70100005.00 L 117680005.00 70440005.00 L 117510005.00 70610005.00  zM 119374246.50 68248738.20 m -398682.80 0 a 398682.80 398682.80 0 1 1 797365.61 0a 398682.80 398682.80 0 1 1 -797365.61 0M 119210005.00 71810005.00 L 118870005.00 71810005.00 L 118700005.00 71640005.00 L 118700005.00 71300005.00 L 118870005.00 71130005.00 L 119210005.00 71130005.00 L 119380005.00 71300005.00 L 119380005.00 71640005.00 L 119210005.00 71810005.00  zM 111810005.00 72010005.00 L 111470005.00 72010005.00 L 111300005.00 71840005.00 L 111300005.00 71500005.00 L 111470005.00 71330005.00 L 111810005.00 71330005.00 L 111980005.00 71500005.00 L 111980005.00 71840005.00 L 111810005.00 72010005.00  zM 114110005.00 73710005.00 L 113770005.00 73710005.00 L 113600005.00 73540005.00 L 113600005.00 73200005.00 L 113770005.00 73030005.00 L 114110005.00 73030005.00 L 114280005.00 73200005.00 L 114280005.00 73540005.00 L 114110005.00 73710005.00  zM 114155751.65 71870012.40 m -329186.60 0 a 329186.60 329186.60 0 1 1 658373.19 0a 329186.60 329186.60 0 1 1 -658373.19 0M 111810005.00 76010005.00 L 111470005.00 76010005.00 L 111300005.00 75840005.00 L 111300005.00 75500005.00 L 111470005.00 75330005.00 L 111810005.00 75330005.00 L 111980005.00 75500005.00 L 111980005.00 75840005.00 L 111810005.00 76010005.00  zM 113209995.00 78132042.00 L 112869995.00 78132042.00 L 112699995.00 77962042.00 L 112699995.00 77622042.00 L 112869995.00 77452042.00 L 113209995.00 77452042.00 L 113379995.00 77622042.00 L 113379995.00 77962042.00 L 113209995.00 78132042.00  zM 115140003.65 71870012.40 m -329186.60 0 a 329186.60 329186.60 0 1 1 658373.19 0a 329186.60 329186.60 0 1 1 -658373.19 0M 118110005.00 73710005.00 L 117770005.00 73710005.00 L 117600005.00 73540005.00 L 117600005.00 73200005.00 L 117770005.00 73030005.00 L 118110005.00 73030005.00 L 118280005.00 73200005.00 L 118280005.00 73540005.00 L 118110005.00 73710005.00  zM 119210005.00 75810005.00 L 118870005.00 75810005.00 L 118700005.00 75640005.00 L 118700005.00 75300005.00 L 118870005.00 75130005.00 L 119210005.00 75130005.00 L 119380005.00 75300005.00 L 119380005.00 75640005.00 L 119210005.00 75810005.00  zM 117209995.00 78132042.00 L 116869995.00 78132042.00 L 116699995.00 77962042.00 L 116699995.00 77622042.00 L 116869995.00 77452042.00 L 117209995.00 77452042.00 L 117379995.00 77622042.00 L 117379995.00 77962042.00 L 117209995.00 78132042.00  zM 121021884.00 66680358.00 L 120726610.00 66680358.00 A 252489.01 252489.01 0 0 1 120474120.00 66427868.00 L 120474120.00 66132594.00 A 252489.01 252489.01 0 0 1 120726610.00 65880104.00 L 121021884.00 65880104.00 A 252489.01 252489.01 0 0 1 121274374.00 66132594.00 L 121274374.00 66427868.00 A 252489.01 252489.01 0 0 1 121021884.00 66680358.00  zM 124139994.50 68260549.20 m -398682.80 0 a 398682.80 398682.80 0 1 1 797365.61 0a 398682.80 398682.80 0 1 1 -797365.61 0M 121510005.00 70610005.00 L 121170005.00 70610005.00 L 121000005.00 70440005.00 L 121000005.00 70100005.00 L 121170005.00 69930005.00 L 121510005.00 69930005.00 L 121680005.00 70100005.00 L 121680005.00 70440005.00 L 121510005.00 70610005.00  zM 125639994.50 66292045.20 m -398682.80 0 a 398682.80 398682.80 0 1 1 797365.61 0a 398682.80 398682.80 0 1 1 -797365.61 0M 127010005.00 70210005.00 L 126670005.00 70210005.00 L 126500005.00 70040005.00 L 126500005.00 69700005.00 L 126670005.00 69530005.00 L 127010005.00 69530005.00 L 127180005.00 69700005.00 L 127180005.00 70040005.00 L 127010005.00 70210005.00  zM 129639991.07 61792057.58 m -672513.42 0 a 672513.42 672513.42 0 1 1 1345026.84 0a 672513.42 672513.42 0 1 1 -1345026.84 0M 128787632.00 66692169.00 L 128492358.00 66692169.00 A 252489.01 252489.01 0 0 1 128239868.00 66439679.00 L 128239868.00 66144405.00 A 252489.01 252489.01 0 0 1 128492358.00 65891915.00 L 128787632.00 65891915.00 A 252489.01 252489.01 0 0 1 129040122.00 66144405.00 L 129040122.00 66439679.00 A 252489.01 252489.01 0 0 1 128787632.00 66692169.00  zM 127139994.50 68260549.20 m -398682.80 0 a 398682.80 398682.80 0 1 1 797365.61 0a 398682.80 398682.80 0 1 1 -797365.61 0M 129610005.00 71410005.00 L 129270005.00 71410005.00 L 129100005.00 71240005.00 L 129100005.00 70900005.00 L 129270005.00 70730005.00 L 129610005.00 70730005.00 L 129780005.00 70900005.00 L 129780005.00 71240005.00 L 129610005.00 71410005.00  zM 131010005.00 70210005.00 L 130670005.00 70210005.00 L 130500005.00 70040005.00 L 130500005.00 69700005.00 L 130670005.00 69530005.00 L 131010005.00 69530005.00 L 131180005.00 69700005.00 L 131180005.00 70040005.00 L 131010005.00 70210005.00  zM 121047877.65 71970012.40 m -329186.60 0 a 329186.60 329186.60 0 1 1 658373.19 0a 329186.60 329186.60 0 1 1 -658373.19 0M 122032129.65 71970012.40 m -329186.60 0 a 329186.60 329186.60 0 1 1 658373.19 0a 329186.60 329186.60 0 1 1 -658373.19 0M 121210005.00 73710005.00 L 120870005.00 73710005.00 L 120700005.00 73540005.00 L 120700005.00 73200005.00 L 120870005.00 73030005.00 L 121210005.00 73030005.00 L 121380005.00 73200005.00 L 121380005.00 73540005.00 L 121210005.00 73710005.00  zM 125610005.00 71410005.00 L 125270005.00 71410005.00 L 125100005.00 71240005.00 L 125100005.00 70900005.00 L 125270005.00 70730005.00 L 125610005.00 70730005.00 L 125780005.00 70900005.00 L 125780005.00 71240005.00 L 125610005.00 71410005.00  zM 125210005.00 73710005.00 L 124870005.00 73710005.00 L 124700005.00 73540005.00 L 124700005.00 73200005.00 L 124870005.00 73030005.00 L 125210005.00 73030005.00 L 125380005.00 73200005.00 L 125380005.00 73540005.00 L 125210005.00 73710005.00  zM 131139996.10 72292039.76 m -353022.24 0 a 353022.24 353022.24 0 1 1 706044.47 0a 353022.24 353022.24 0 1 1 -706044.47 0M 127717346.00 77032042.00 L 127377346.00 77032042.00 L 127207346.00 76862042.00 L 127207346.00 76522042.00 L 127377346.00 76352042.00 L 127717346.00 76352042.00 L 127887346.00 76522042.00 L 127887346.00 76862042.00 L 127717346.00 77032042.00  zM 127717346.00 78632042.00 L 127377346.00 78632042.00 L 127207346.00 78462042.00 L 127207346.00 78122042.00 L 127377346.00 77952042.00 L 127717346.00 77952042.00 L 127887346.00 78122042.00 L 127887346.00 78462042.00 L 127717346.00 78632042.00  zM 131717346.00 77032042.00 L 131377346.00 77032042.00 L 131207346.00 76862042.00 L 131207346.00 76522042.00 L 131377346.00 76352042.00 L 131717346.00 76352042.00 L 131887346.00 76522042.00 L 131887346.00 76862042.00 L 131717346.00 77032042.00  zM 113209995.00 79332042.00 L 112869995.00 79332042.00 L 112699995.00 79162042.00 L 112699995.00 78822042.00 L 112869995.00 78652042.00 L 113209995.00 78652042.00 L 113379995.00 78822042.00 L 113379995.00 79162042.00 L 113209995.00 79332042.00  zM 113209995.00 80832042.00 L 112869995.00 80832042.00 L 112699995.00 80662042.00 L 112699995.00 80322042.00 L 112869995.00 80152042.00 L 113209995.00 80152042.00 L 113379995.00 80322042.00 L 113379995.00 80662042.00 L 113209995.00 80832042.00  zM 117209995.00 79332042.00 L 116869995.00 79332042.00 L 116699995.00 79162042.00 L 116699995.00 78822042.00 L 116869995.00 78652042.00 L 117209995.00 78652042.00 L 117379995.00 78822042.00 L 117379995.00 79162042.00 L 117209995.00 79332042.00  zM 117209995.00 80832042.00 L 116869995.00 80832042.00 L 116699995.00 80662042.00 L 116699995.00 80322042.00 L 116869995.00 80152042.00 L 117209995.00 80152042.00 L 117379995.00 80322042.00 L 117379995.00 80662042.00 L 117209995.00 80832042.00  zM 119539994.04 79292042.73 m -342933.27 0 a 342933.27 342933.27 0 1 1 685866.54 0a 342933.27 342933.27 0 1 1 -685866.54 0M 112721437.30 82992031.81 m -428479.19 0 a 428479.19 428479.19 0 1 1 856958.38 0a 428479.19 428479.19 0 1 1 -856958.38 0M 113902539.30 82992031.81 m -428479.19 0 a 428479.19 428479.19 0 1 1 856958.38 0a 428479.19 428479.19 0 1 1 -856958.38 0M 116221259.00 82773306.00 L 116262003.51 82742042.00 L 116221259.00 82710778.00 A 309370.18 309370.18 0 0 1 116172100.00 82337373.00 L 116201747.17 82298735.00 L 116133302.00 82298735.00 L 116133302.00 81685349.00 L 116746688.00 81685349.00 L 116746688.00 82298735.00 L 116678242.83 82298735.00 L 116707890.00 82337373.00 A 309315.66 309315.66 0 0 1 116658731.00 82710778.00 L 116617986.49 82742042.00 L 116658731.00 82773306.00 A 309370.18 309370.18 0 1 1 116221259.00 82773306.00  zM 111380940.00 89785748.00 L 110393538.00 89785748.00 L 110393538.00 88798346.00 L 111380940.00 88798346.00 L 111380940.00 89785748.00  zM 114333696.00 89785748.00 L 113346294.00 89785748.00 L 113346294.00 88798346.00 L 114333696.00 88798346.00 L 114333696.00 89785748.00  zM 124449444.00 85885450.00 L 115630546.00 85885450.00 A 593408.94 593408.94 0 0 1 115630546.00 84698634.00 L 124449444.00 84698634.00 A 593408.94 593408.94 0 0 1 124449444.00 85885450.00  zM 120539994.04 79292042.73 m -342933.27 0 a 342933.27 342933.27 0 1 1 685866.54 0a 342933.27 342933.27 0 1 1 -685866.54 0M 120039994.69 87792050.67 m -1480934.33 0 a 1480934.33 1480934.33 0 1 1 2961868.66 0a 1480934.33 1480934.33 0 1 1 -2961868.66 0M 124139994.69 81792050.67 m -1480934.33 0 a 1480934.33 1480934.33 0 1 1 2961868.66 0a 1480934.33 1480934.33 0 1 1 -2961868.66 0M 126680940.00 89785743.00 L 125693538.00 89785743.00 L 125693538.00 88798341.00 L 126680940.00 88798341.00 L 126680940.00 89785743.00  zM 127842346.00 80332042.00 L 127502346.00 80332042.00 L 127332346.00 80162042.00 L 127332346.00 79822042.00 L 127502346.00 79652042.00 L 127842346.00 79652042.00 L 128012346.00 79822042.00 L 128012346.00 80162042.00 L 127842346.00 80332042.00  zM 128491245.33 82692039.15 m -428471.85 0 a 428471.85 428471.85 0 1 1 856943.70 0a 428471.85 428471.85 0 1 1 -856943.70 0M 129672347.33 82692039.15 m -428471.85 0 a 428471.85 428471.85 0 1 1 856943.70 0a 428471.85 428471.85 0 1 1 -856943.70 0M 129633696.00 89785743.00 L 128646294.00 89785743.00 L 128646294.00 88798341.00 L 129633696.00 88798341.00 L 129633696.00 89785743.00  zM 111380940.00 97659764.00 L 110393538.00 97659764.00 L 110393538.00 96672362.00 L 111380940.00 96672362.00 L 111380940.00 97659764.00  zM 114333696.00 97659764.00 L 113346294.00 97659764.00 L 113346294.00 96672362.00 L 114333696.00 96672362.00 L 114333696.00 97659764.00  zM 114333696.00 99628268.00 L 113346294.00 99628268.00 L 113346294.00 98640866.00 L 114333696.00 98640866.00 L 114333696.00 99628268.00  zM 118389995.00 96642042.00 L 116689995.00 96642042.00 L 116689995.00 94942042.00 L 118389995.00 94942042.00 L 118389995.00 96642042.00  zM 120889995.00 98292042.00 L 119189995.00 98292042.00 L 119189995.00 96592042.00 L 120889995.00 96592042.00 L 120889995.00 98292042.00  zM 111380940.00 99628268.00 L 110393538.00 99628268.00 L 110393538.00 98640866.00 L 111380940.00 98640866.00 L 111380940.00 99628268.00  zM 113992754.14 101792027.60 m -497975.40 0 a 497975.40 497975.40 0 1 1 995950.79 0a 497975.40 497975.40 0 1 1 -995950.79 0M 111039998.14 101792027.60 m -497975.40 0 a 497975.40 497975.40 0 1 1 995950.79 0a 497975.40 497975.40 0 1 1 -995950.79 0M 112639994.69 106292050.67 m -1480934.33 0 a 1480934.33 1480934.33 0 1 1 2961868.66 0a 1480934.33 1480934.33 0 1 1 -2961868.66 0M 123389995.00 96642042.00 L 121689995.00 96642042.00 L 121689995.00 94942042.00 L 123389995.00 94942042.00 L 123389995.00 96642042.00  zM 126680940.00 97659759.00 L 125693538.00 97659759.00 L 125693538.00 96672357.00 L 126680940.00 96672357.00 L 126680940.00 97659759.00  zM 126680940.00 99628263.00 L 125693538.00 99628263.00 L 125693538.00 98640861.00 L 126680940.00 98640861.00 L 126680940.00 99628263.00  zM 129633696.00 97659759.00 L 128646294.00 97659759.00 L 128646294.00 96672357.00 L 129633696.00 96672357.00 L 129633696.00 97659759.00  zM 129633696.00 99628263.00 L 128646294.00 99628263.00 L 128646294.00 98640861.00 L 129633696.00 98640861.00 L 129633696.00 99628263.00  zM 121639994.69 106292050.67 m -1480934.33 0 a 1480934.33 1480934.33 0 1 1 2961868.66 0a 1480934.33 1480934.33 0 1 1 -2961868.66 0M 125639991.07 106292062.58 m -672513.42 0 a 672513.42 672513.42 0 1 1 1345026.84 0a 672513.42 672513.42 0 1 1 -1345026.84 0M 126339998.14 101792027.60 m -497975.40 0 a 497975.40 497975.40 0 1 1 995950.79 0a 497975.40 497975.40 0 1 1 -995950.79 0M 129292754.14 101792027.60 m -497975.40 0 a 497975.40 497975.40 0 1 1 995950.79 0a 497975.40 497975.40 0 1 1 -995950.79 0M 133139994.50 66292045.20 m -398682.80 0 a 398682.80 398682.80 0 1 1 797365.61 0a 398682.80 398682.80 0 1 1 -797365.61 0M 131639994.50 68260549.20 m -398682.80 0 a 398682.80 398682.80 0 1 1 797365.61 0a 398682.80 398682.80 0 1 1 -797365.61 0M 134639994.50 68260549.20 m -398682.80 0 a 398682.80 398682.80 0 1 1 797365.61 0a 398682.80 398682.80 0 1 1 -797365.61 0M 132240003.65 70085760.40 m -329186.60 0 a 329186.60 329186.60 0 1 1 658373.19 0a 329186.60 329186.60 0 1 1 -658373.19 0M 132240003.65 71070012.40 m -329186.60 0 a 329186.60 329186.60 0 1 1 658373.19 0a 329186.60 329186.60 0 1 1 -658373.19 0M 136287632.00 66692169.00 L 135992358.00 66692169.00 A 252489.01 252489.01 0 0 1 135739868.00 66439679.00 L 135739868.00 66144405.00 A 252489.01 252489.01 0 0 1 135992358.00 65891915.00 L 136287632.00 65891915.00 A 252489.01 252489.01 0 0 1 136540122.00 66144405.00 L 136540122.00 66439679.00 A 252489.01 252489.01 0 0 1 136287632.00 66692169.00  zM 135009995.00 70432042.00 L 134669995.00 70432042.00 L 134499995.00 70262042.00 L 134499995.00 69922042.00 L 134669995.00 69752042.00 L 135009995.00 69752042.00 L 135179995.00 69922042.00 L 135179995.00 70262042.00 L 135009995.00 70432042.00  zM 143695891.69 61492050.67 m -1480934.33 0 a 1480934.33 1480934.33 0 1 1 2961868.66 0a 1480934.33 1480934.33 0 1 1 -2961868.66 0M 139009995.00 70432042.00 L 138669995.00 70432042.00 L 138499995.00 70262042.00 L 138499995.00 69922042.00 L 138669995.00 69752042.00 L 139009995.00 69752042.00 L 139179995.00 69922042.00 L 139179995.00 70262042.00 L 139009995.00 70432042.00  zM 139009995.00 72132042.00 L 138669995.00 72132042.00 L 138499995.00 71962042.00 L 138499995.00 71622042.00 L 138669995.00 71452042.00 L 139009995.00 71452042.00 L 139179995.00 71622042.00 L 139179995.00 71962042.00 L 139009995.00 72132042.00  zM 131639996.10 72792039.76 m -353022.24 0 a 353022.24 353022.24 0 1 1 706044.47 0a 353022.24 353022.24 0 1 1 -706044.47 0M 135009995.00 72132042.00 L 134669995.00 72132042.00 L 134499995.00 71962042.00 L 134499995.00 71622042.00 L 134669995.00 71452042.00 L 135009995.00 71452042.00 L 135179995.00 71622042.00 L 135179995.00 71962042.00 L 135009995.00 72132042.00  zM 135539996.10 73950002.76 m -353022.24 0 a 353022.24 353022.24 0 1 1 706044.47 0a 353022.24 353022.24 0 1 1 -706044.47 0M 136639993.05 73353077.82 m -258101.18 0 a 258101.18 258101.18 0 1 1 516202.36 0a 258101.18 258101.18 0 1 1 -516202.36 0M 136895900.00 74986923.00 L 136384090.00 74986923.00 L 136384090.00 74475113.00 L 136895900.00 74475113.00 L 136895900.00 74986923.00  zM 139895910.00 75936934.00 L 139384100.00 75936934.00 L 139384100.00 75425124.00 L 139895910.00 75425124.00 L 139895910.00 75936934.00  zM 142140003.65 74177886.40 m -329186.60 0 a 329186.60 329186.60 0 1 1 658373.19 0a 329186.60 329186.60 0 1 1 -658373.19 0M 142140003.65 75162138.40 m -329186.60 0 a 329186.60 329186.60 0 1 1 658373.19 0a 329186.60 329186.60 0 1 1 -658373.19 0M 144340003.29 75170014.32 m -400264.68 0 a 400264.68 400264.68 0 1 1 800529.35 0a 400264.68 400264.68 0 1 1 -800529.35 0M 148339996.10 71577039.76 m -353022.24 0 a 353022.24 353022.24 0 1 1 706044.47 0a 353022.24 353022.24 0 1 1 -706044.47 0M 157639993.50 68292045.54 m -403448.46 0 a 403448.46 403448.46 0 1 1 806896.93 0a 403448.46 403448.46 0 1 1 -806896.93 0M 158039995.00 65692042.00 L 157239995.00 65692042.00 L 157239995.00 64892042.00 L 158039995.00 64892042.00 L 158039995.00 65692042.00  zM 157639993.50 67292045.54 m -403448.46 0 a 403448.46 403448.46 0 1 1 806896.93 0a 403448.46 403448.46 0 1 1 -806896.93 0M 157639993.50 69292045.54 m -403448.46 0 a 403448.46 403448.46 0 1 1 806896.93 0a 403448.46 403448.46 0 1 1 -806896.93 0M 157639991.07 62292062.58 m -672513.42 0 a 672513.42 672513.42 0 1 1 1345026.84 0a 672513.42 672513.42 0 1 1 -1345026.84 0M 157639993.50 66292045.54 m -403448.46 0 a 403448.46 403448.46 0 1 1 806896.93 0a 403448.46 403448.46 0 1 1 -806896.93 0M 159309995.00 70132042.00 L 158969995.00 70132042.00 L 158799995.00 69962042.00 L 158799995.00 69622042.00 L 158969995.00 69452042.00 L 159309995.00 69452042.00 L 159479995.00 69622042.00 L 159479995.00 69962042.00 L 159309995.00 70132042.00  zM 157639993.50 70292045.54 m -403448.46 0 a 403448.46 403448.46 0 1 1 806896.93 0a 403448.46 403448.46 0 1 1 -806896.93 0M 157639993.50 71292045.54 m -403448.46 0 a 403448.46 403448.46 0 1 1 806896.93 0a 403448.46 403448.46 0 1 1 -806896.93 0M 148009995.00 73432042.00 L 147669995.00 73432042.00 L 147499995.00 73262042.00 L 147499995.00 72922042.00 L 147669995.00 72752042.00 L 148009995.00 72752042.00 L 148179995.00 72922042.00 L 148179995.00 73262042.00 L 148009995.00 73432042.00  zM 148009995.00 74732042.00 L 147669995.00 74732042.00 L 147499995.00 74562042.00 L 147499995.00 74222042.00 L 147669995.00 74052042.00 L 148009995.00 74052042.00 L 148179995.00 74222042.00 L 148179995.00 74562042.00 L 148009995.00 74732042.00  zM 150539996.33 75692039.15 m -428471.85 0 a 428471.85 428471.85 0 1 1 856943.70 0a 428471.85 428471.85 0 1 1 -856943.70 0M 152009995.00 73432042.00 L 151669995.00 73432042.00 L 151499995.00 73262042.00 L 151499995.00 72922042.00 L 151669995.00 72752042.00 L 152009995.00 72752042.00 L 152179995.00 72922042.00 L 152179995.00 73262042.00 L 152009995.00 73432042.00  zM 152009995.00 74732042.00 L 151669995.00 74732042.00 L 151499995.00 74562042.00 L 151499995.00 74222042.00 L 151669995.00 74052042.00 L 152009995.00 74052042.00 L 152179995.00 74222042.00 L 152179995.00 74562042.00 L 152009995.00 74732042.00  zM 154286846.00 75989680.00 L 153793144.00 75989680.00 L 153546294.00 75742829.00 L 153546294.00 75249129.00 L 153793144.00 75002278.00 L 154286846.00 75002278.00 L 154533696.00 75249129.00 L 154533696.00 75742829.00 L 154286846.00 75989680.00  zM 157639991.07 75292062.58 m -672513.42 0 a 672513.42 672513.42 0 1 1 1345026.84 0a 672513.42 672513.42 0 1 1 -1345026.84 0M 157639993.50 72292045.54 m -403448.46 0 a 403448.46 403448.46 0 1 1 806896.93 0a 403448.46 403448.46 0 1 1 -806896.93 0M 159309995.00 74132042.00 L 158969995.00 74132042.00 L 158799995.00 73962042.00 L 158799995.00 73622042.00 L 158969995.00 73452042.00 L 159309995.00 73452042.00 L 159479995.00 73622042.00 L 159479995.00 73962042.00 L 159309995.00 74132042.00  zM 131717346.00 78632042.00 L 131377346.00 78632042.00 L 131207346.00 78462042.00 L 131207346.00 78122042.00 L 131377346.00 77952042.00 L 131717346.00 77952042.00 L 131887346.00 78122042.00 L 131887346.00 78462042.00 L 131717346.00 78632042.00  zM 134739994.04 79292042.73 m -342933.27 0 a 342933.27 342933.27 0 1 1 685866.54 0a 342933.27 342933.27 0 1 1 -685866.54 0M 135739994.04 79292042.73 m -342933.27 0 a 342933.27 342933.27 0 1 1 685866.54 0a 342933.27 342933.27 0 1 1 -685866.54 0M 131842346.00 80332042.00 L 131502346.00 80332042.00 L 131332346.00 80162042.00 L 131332346.00 79822042.00 L 131502346.00 79652042.00 L 131842346.00 79652042.00 L 132012346.00 79822042.00 L 132012346.00 80162042.00 L 131842346.00 80332042.00  zM 131721259.00 82473306.00 L 131762003.51 82442042.00 L 131721259.00 82410778.00 A 309370.18 309370.18 0 0 1 131672100.00 82037373.00 L 131701747.17 81998735.00 L 131633302.00 81998735.00 L 131633302.00 81385349.00 L 132246688.00 81385349.00 L 132246688.00 81998735.00 L 132178242.83 81998735.00 L 132207890.00 82037373.00 A 309315.66 309315.66 0 0 1 132158731.00 82410778.00 L 132117986.49 82442042.00 L 132158731.00 82473306.00 A 309370.18 309370.18 0 1 1 131721259.00 82473306.00  zM 139640004.02 77058985.48 m -258108.52 0 a 258108.52 258108.52 0 1 1 516217.04 0a 258108.52 258108.52 0 1 1 -516217.04 0M 142140003.65 76577886.40 m -329186.60 0 a 329186.60 329186.60 0 1 1 658373.19 0a 329186.60 329186.60 0 1 1 -658373.19 0M 144340003.29 76170014.32 m -400264.68 0 a 400264.68 400264.68 0 1 1 800529.35 0a 400264.68 400264.68 0 1 1 -800529.35 0M 142140003.65 77562138.40 m -329186.60 0 a 329186.60 329186.60 0 1 1 658373.19 0a 329186.60 329186.60 0 1 1 -658373.19 0M 141784120.83 81033791.48 m -458233.52 0 a 458233.52 458233.52 0 1 1 916467.04 0a 458233.52 458233.52 0 1 1 -916467.04 0M 144736855.00 77566855.00 L 143943155.00 77566855.00 L 143943155.00 76773155.00 L 144736855.00 76773155.00 L 144736855.00 77566855.00  zM 148821259.00 76673306.00 L 148862003.51 76642042.00 L 148821259.00 76610778.00 A 309370.18 309370.18 0 0 1 148772100.00 76237373.00 L 148801747.17 76198735.00 L 148733302.00 76198735.00 L 148733302.00 75585349.00 L 149346688.00 75585349.00 L 149346688.00 76198735.00 L 149278242.83 76198735.00 L 149307890.00 76237373.00 A 309315.66 309315.66 0 0 1 149258731.00 76610778.00 L 149217986.49 76642042.00 L 149258731.00 76673306.00 A 309370.18 309370.18 0 1 1 148821259.00 76673306.00  zM 144933726.83 81033791.48 m -458233.52 0 a 458233.52 458233.52 0 1 1 916467.04 0a 458233.52 458233.52 0 1 1 -916467.04 0M 154049444.00 84685450.00 L 145230546.00 84685450.00 A 593408.94 593408.94 0 1 1 145230546.00 83498634.00 L 154049444.00 83498634.00 A 593408.94 593408.94 0 0 1 154049444.00 84685450.00  zM 150539996.33 76873141.15 m -428471.85 0 a 428471.85 428471.85 0 1 1 856943.70 0a 428471.85 428471.85 0 1 1 -856943.70 0M 154286846.00 78981806.00 L 153793144.00 78981806.00 L 153546294.00 78734955.00 L 153546294.00 78241255.00 L 153793144.00 77994404.00 L 154286846.00 77994404.00 L 154533696.00 78241255.00 L 154533696.00 78734955.00 L 154286846.00 78981806.00  zM 157639994.69 81792050.67 m -1480934.33 0 a 1480934.33 1480934.33 0 1 1 2961868.66 0a 1480934.33 1480934.33 0 1 1 -2961868.66 0M 158339994.04 77492042.73 m -342933.27 0 a 342933.27 342933.27 0 1 1 685866.54 0a 342933.27 342933.27 0 1 1 -685866.54 0M 159339994.04 77492042.73 m -342933.27 0 a 342933.27 342933.27 0 1 1 685866.54 0a 342933.27 342933.27 0 1 1 -685866.54 0M 139249444.00 85885450.00 L 130430546.00 85885450.00 A 593408.94 593408.94 0 0 1 130430546.00 84698634.00 L 139249444.00 84698634.00 A 593408.94 593408.94 0 1 1 139249444.00 85885450.00  zM 135239994.69 87792050.67 m -1480934.33 0 a 1480934.33 1480934.33 0 1 1 2961868.66 0a 1480934.33 1480934.33 0 1 1 -2961868.66 0M 138589995.00 96642042.00 L 136889995.00 96642042.00 L 136889995.00 94942042.00 L 138589995.00 94942042.00 L 138589995.00 96642042.00  zM 133589995.00 96642042.00 L 131889995.00 96642042.00 L 131889995.00 94942042.00 L 133589995.00 94942042.00 L 133589995.00 96642042.00  zM 136089995.00 98292042.00 L 134389995.00 98292042.00 L 134389995.00 96592042.00 L 136089995.00 96592042.00 L 136089995.00 98292042.00  zM 141784120.83 98750326.48 m -458233.52 0 a 458233.52 458233.52 0 1 1 916467.04 0a 458233.52 458233.52 0 1 1 -916467.04 0M 138639991.07 106292062.58 m -672513.42 0 a 672513.42 672513.42 0 1 1 1345026.84 0a 672513.42 672513.42 0 1 1 -1345026.84 0M 142400647.66 102270015.43 m -488022.57 0 a 488022.57 488022.57 0 1 1 976045.13 0a 488022.57 488022.57 0 1 1 -976045.13 0M 148639994.69 106292050.67 m -1480934.33 0 a 1480934.33 1480934.33 0 1 1 2961868.66 0a 1480934.33 1480934.33 0 1 1 -2961868.66 0M 153639994.69 86792050.67 m -1480934.33 0 a 1480934.33 1480934.33 0 1 1 2961868.66 0a 1480934.33 1480934.33 0 1 1 -2961868.66 0M 156540005.00 92770005.00 L 154940005.00 92770005.00 L 154140005.00 91970005.00 L 154140005.00 90370005.00 L 154940005.00 89570005.00 L 156540005.00 89570005.00 L 157340005.00 90370005.00 L 157340005.00 91970005.00 L 156540005.00 92770005.00  zM 152498922.00 92004464.00 L 152522391.45 91960556.00 L 152252594.00 91960556.00 L 152252594.00 90579454.00 L 152522391.45 90579454.00 L 152498922.00 90535546.00 A 693900.64 693900.64 0 1 1 153781068.00 90535546.00 L 153757598.55 90579454.00 L 154027396.00 90579454.00 L 154027396.00 91960556.00 L 153757598.55 91960556.00 L 153781068.00 92004464.00 A 693900.64 693900.64 0 1 1 152498922.00 92004464.00  zM 152498922.00 98026501.00 L 152522391.45 97982593.00 L 152252594.00 97982593.00 L 152252594.00 96601491.00 L 152522391.45 96601491.00 L 152498922.00 96557583.00 A 693900.64 693900.64 0 1 1 153781068.00 96557583.00 L 153757598.55 96601491.00 L 154027396.00 96601491.00 L 154027396.00 97982593.00 L 153757598.55 97982593.00 L 153781068.00 98026501.00 A 693900.64 693900.64 0 1 1 152498922.00 98026501.00  zM 156540005.00 98870005.00 L 154940005.00 98870005.00 L 154140005.00 98070005.00 L 154140005.00 96470005.00 L 154940005.00 95670005.00 L 156540005.00 95670005.00 L 157340005.00 96470005.00 L 157340005.00 98070005.00 L 156540005.00 98870005.00  zM 150427431.00 99204640.00 L 149518771.00 99204640.00 L 149518771.00 98295980.00 L 150427431.00 98295980.00 L 150427431.00 99204640.00  zM 151258915.66 102270015.43 m -488022.57 0 a 488022.57 488022.57 0 1 1 976045.13 0a 488022.57 488022.57 0 1 1 -976045.13 0M 152498922.00 103926501.00 L 152522391.45 103882593.00 L 152252594.00 103882593.00 L 152252594.00 102501491.00 L 152522391.45 102501491.00 L 152498922.00 102457583.00 A 693900.64 693900.64 0 1 1 153781068.00 102457583.00 L 153757598.55 102501491.00 L 154027396.00 102501491.00 L 154027396.00 103882593.00 L 153757598.55 103882593.00 L 153781068.00 103926501.00 A 693900.64 693900.64 0 1 1 152498922.00 103926501.00  zM 156440005.00 104870005.00 L 154840005.00 104870005.00 L 154040005.00 104070005.00 L 154040005.00 102470005.00 L 154840005.00 101670005.00 L 156440005.00 101670005.00 L 157240005.00 102470005.00 L 157240005.00 104070005.00 L 156440005.00 104870005.00  z"/>
</g>
</svg>
