G04*
G04 #@! TF.GenerationSoftware,Altium Limited,Altium Designer,23.7.1 (13)*
G04*
G04 Layer_Color=16711935*
%FSLAX44Y44*%
%MOMM*%
G71*
G04*
G04 #@! TF.SameCoordinates,780004CA-D6C6-4F34-BDD1-A59E27625C77*
G04*
G04*
G04 #@! TF.FilePolarity,Positive*
G04*
G01*
G75*
%ADD13C,0.2540*%
D13*
X0Y25400D02*
G03*
X25400Y0I25400J-0D01*
G01*
X2057400D02*
G03*
X2082800Y25400I0J25400D01*
G01*
Y1219200D02*
G03*
X2057400Y1244600I-25400J0D01*
G01*
X25400Y1244600D02*
G03*
X0Y1219200I-0J-25400D01*
G01*
X25400Y0D02*
X228600Y0D01*
X253440Y24840D01*
Y62380D01*
X254000Y62940D01*
X469900D01*
Y25400D02*
Y62940D01*
Y25400D02*
X495300Y0D01*
X1701800D01*
X1725870Y24070D01*
Y61610D01*
X1727200Y62940D01*
X1930400D01*
X1930436Y62905D01*
Y24840D02*
Y62905D01*
Y24840D02*
X1955276Y0D01*
X2057400Y0D01*
X2082800Y25400D02*
Y1219200D01*
X1447800Y1244600D02*
X2057400Y1244600D01*
X1422400Y1219200D02*
X1447800Y1244600D01*
X1422400Y1193240D02*
Y1219200D01*
X1295400Y1193240D02*
X1422400D01*
X1295400D02*
Y1218443D01*
X1269243Y1244600D02*
X1295400Y1218443D01*
X687359Y1244600D02*
X1269243D01*
X660562Y1217803D02*
X687359Y1244600D01*
X660562Y1193401D02*
Y1217803D01*
X660400Y1193240D02*
X660562Y1193401D01*
X533400Y1193240D02*
X660400D01*
X533400D02*
Y1218640D01*
X507440Y1244600D02*
X533400Y1218640D01*
X25400Y1244600D02*
X507440Y1244600D01*
X0Y1209040D02*
Y1219200D01*
Y1209040D02*
X0Y1142440D01*
X0Y647017D01*
X152400D01*
Y621740D02*
Y647017D01*
X152255Y621595D02*
X152400Y621740D01*
X0Y621595D02*
X152255D01*
X0Y342340D02*
Y621595D01*
Y342340D02*
X38100D01*
Y164540D02*
Y342340D01*
X37870Y164771D02*
X38100Y164540D01*
X681Y164771D02*
X37870D01*
X0Y164089D02*
X681Y164771D01*
X0Y25400D02*
X0Y164089D01*
M02*
