G04*
G04 #@! TF.GenerationSoftware,Altium Limited,Altium Designer,23.7.1 (13)*
G04*
G04 Layer_Physical_Order=2*
G04 Layer_Color=16711680*
%FSLAX44Y44*%
%MOMM*%
G71*
G04*
G04 #@! TF.SameCoordinates,780004CA-D6C6-4F34-BDD1-A59E27625C77*
G04*
G04*
G04 #@! TF.FilePolarity,Positive*
G04*
G01*
G75*
%ADD16C,0.6350*%
%ADD35O,1.3000X1.6000*%
%ADD41R,1.3000X1.3000*%
%ADD42C,1.3000*%
%ADD54R,4.0000X3.0000*%
%ADD55C,1.0160*%
%ADD56C,2.5400*%
%ADD57C,0.3048*%
%ADD58C,5.0800*%
G04:AMPARAMS|DCode=59|XSize=1.2192mm|YSize=1.2192mm|CornerRadius=0mm|HoleSize=0mm|Usage=FLASHONLY|Rotation=180.000|XOffset=0mm|YOffset=0mm|HoleType=Round|Shape=Octagon|*
%AMOCTAGOND59*
4,1,8,-0.6096,0.3048,-0.6096,-0.3048,-0.3048,-0.6096,0.3048,-0.6096,0.6096,-0.3048,0.6096,0.3048,0.3048,0.6096,-0.3048,0.6096,-0.6096,0.3048,0.0*
%
%ADD59OCTAGOND59*%

%ADD60R,1.0500X1.0500*%
%ADD61C,1.0500*%
%ADD62C,1.2192*%
%ADD63C,1.6500*%
%ADD64C,3.0000*%
%ADD65C,4.0000*%
%ADD66C,2.0000*%
%ADD67R,3.8100X3.8100*%
%ADD68R,1.5080X1.5080*%
%ADD69C,1.5080*%
G04:AMPARAMS|DCode=70|XSize=2mm|YSize=2mm|CornerRadius=0mm|HoleSize=0mm|Usage=FLASHONLY|Rotation=0.000|XOffset=0mm|YOffset=0mm|HoleType=Round|Shape=Octagon|*
%AMOCTAGOND70*
4,1,8,1.0000,-0.5000,1.0000,0.5000,0.5000,1.0000,-0.5000,1.0000,-1.0000,0.5000,-1.0000,-0.5000,-0.5000,-1.0000,0.5000,-1.0000,1.0000,-0.5000,0.0*
%
%ADD70OCTAGOND70*%

%ADD71C,1.1500*%
G04:AMPARAMS|DCode=72|XSize=1.2192mm|YSize=1.2192mm|CornerRadius=0mm|HoleSize=0mm|Usage=FLASHONLY|Rotation=90.000|XOffset=0mm|YOffset=0mm|HoleType=Round|Shape=Octagon|*
%AMOCTAGOND72*
4,1,8,0.3048,0.6096,-0.3048,0.6096,-0.6096,0.3048,-0.6096,-0.3048,-0.3048,-0.6096,0.3048,-0.6096,0.6096,-0.3048,0.6096,0.3048,0.3048,0.6096,0.0*
%
%ADD72OCTAGOND72*%

%ADD73C,1.5000*%
G04:AMPARAMS|DCode=74|XSize=1.5mm|YSize=1.5mm|CornerRadius=0.375mm|HoleSize=0mm|Usage=FLASHONLY|Rotation=0.000|XOffset=0mm|YOffset=0mm|HoleType=Round|Shape=RoundedRectangle|*
%AMROUNDEDRECTD74*
21,1,1.5000,0.7500,0,0,0.0*
21,1,0.7500,1.5000,0,0,0.0*
1,1,0.7500,0.3750,-0.3750*
1,1,0.7500,-0.3750,-0.3750*
1,1,0.7500,-0.3750,0.3750*
1,1,0.7500,0.3750,0.3750*
%
%ADD74ROUNDEDRECTD74*%
%ADD75R,1.5600X1.5600*%
%ADD76C,1.5600*%
%ADD77C,1.5240*%
%ADD78R,1.5240X1.5240*%
%ADD79C,1.8000*%
%ADD80R,1.8000X1.8000*%
G04:AMPARAMS|DCode=81|XSize=7.62mm|YSize=7.62mm|CornerRadius=0mm|HoleSize=0mm|Usage=FLASHONLY|Rotation=0.000|XOffset=0mm|YOffset=0mm|HoleType=Round|Shape=Octagon|*
%AMOCTAGOND81*
4,1,8,3.8100,-1.9050,3.8100,1.9050,1.9050,3.8100,-1.9050,3.8100,-3.8100,1.9050,-3.8100,-1.9050,-1.9050,-3.8100,1.9050,-3.8100,3.8100,-1.9050,0.0*
%
%ADD81OCTAGOND81*%

%ADD82C,1.9500*%
%ADD83C,1.2700*%
G36*
X2040067Y527160D02*
X2040311Y525303D01*
X2041028Y523573D01*
X2042168Y522087D01*
X2046446Y517809D01*
X2045960Y516636D01*
X2042922D01*
X2038604Y512318D01*
Y509270D01*
X2047240D01*
Y506730D01*
X2038604D01*
Y503682D01*
X2042922Y499364D01*
X2047120D01*
X2047606Y498191D01*
X2019697Y470281D01*
X2018557Y468796D01*
X2017959Y467354D01*
X2017876Y467271D01*
X2016806Y465417D01*
X2016252Y463350D01*
Y462191D01*
X2016182Y462032D01*
X2015018Y461124D01*
X2013881Y461274D01*
X2012024Y461029D01*
X2010294Y460313D01*
X2008808Y459173D01*
X2007668Y457687D01*
X2006952Y455957D01*
X2006707Y454100D01*
X2006952Y452244D01*
X2007668Y450514D01*
X2008808Y449028D01*
X2013837Y444000D01*
X2015322Y442860D01*
X2017052Y442143D01*
X2018909Y441899D01*
X2037784D01*
X2039641Y442143D01*
X2041371Y442860D01*
X2042856Y444000D01*
X2053836Y454980D01*
X2054190Y455441D01*
X2054771Y455776D01*
X2056284Y457289D01*
X2057354Y459143D01*
X2057908Y461210D01*
Y463350D01*
X2057354Y465417D01*
X2056284Y467271D01*
X2054771Y468784D01*
X2052917Y469854D01*
X2050850Y470408D01*
X2048710D01*
X2046643Y469854D01*
X2044789Y468784D01*
X2043276Y467271D01*
X2042206Y465417D01*
X2041652Y463350D01*
Y463084D01*
X2034813Y456245D01*
X2031451D01*
X2031015Y457515D01*
X2031954Y459143D01*
X2032508Y461210D01*
Y462803D01*
X2062577Y492872D01*
X2063750Y492386D01*
Y24840D01*
X1941305D01*
X1938119Y28027D01*
X1938086Y62947D01*
X1937953Y63946D01*
X1937824Y64929D01*
X1937823Y64933D01*
X1937822Y64936D01*
X1937437Y65863D01*
X1937056Y66783D01*
X1937054Y66786D01*
X1937053Y66789D01*
X1936445Y67580D01*
X1935835Y68375D01*
X1935832Y68377D01*
X1935830Y68380D01*
X1935029Y68993D01*
X1934243Y69596D01*
X1934240Y69598D01*
X1934237Y69600D01*
X1933305Y69985D01*
X1932389Y70364D01*
X1932386Y70364D01*
X1932382Y70366D01*
X1931390Y70496D01*
X1930400Y70626D01*
X1727200D01*
X1725211Y70364D01*
X1723357Y69596D01*
X1721766Y68375D01*
X1720435Y67045D01*
X1719214Y65453D01*
X1718446Y63599D01*
X1718184Y61610D01*
Y27253D01*
X1715771Y24840D01*
X1679801D01*
X1679275Y26110D01*
X1682961Y29796D01*
X1686665Y34894D01*
X1689526Y40510D01*
X1691474Y46504D01*
X1692460Y52729D01*
Y54610D01*
X1612380D01*
Y52729D01*
X1613366Y46504D01*
X1615313Y40510D01*
X1618174Y34894D01*
X1621879Y29796D01*
X1625564Y26110D01*
X1625038Y24840D01*
X789381D01*
X788855Y26110D01*
X792541Y29796D01*
X796245Y34894D01*
X799107Y40510D01*
X801054Y46504D01*
X802040Y52729D01*
Y54610D01*
X721960D01*
Y52729D01*
X722946Y46504D01*
X724893Y40510D01*
X727755Y34894D01*
X731459Y29796D01*
X735145Y26110D01*
X734619Y24840D01*
X481329D01*
X477586Y28583D01*
Y62940D01*
X477324Y64929D01*
X476556Y66783D01*
X475335Y68375D01*
X473743Y69596D01*
X471889Y70364D01*
X469900Y70626D01*
X254000D01*
X252011Y70364D01*
X250157Y69596D01*
X248566Y68375D01*
X248006Y67815D01*
X246784Y66223D01*
X246017Y64369D01*
X245755Y62380D01*
Y28024D01*
X242571Y24840D01*
X8724D01*
X7686Y26110D01*
X7686Y157085D01*
X36352D01*
X38100Y156855D01*
X40089Y157117D01*
X41943Y157885D01*
X43535Y159106D01*
X44756Y160698D01*
X45524Y162551D01*
X45786Y164541D01*
X45786Y164541D01*
Y342340D01*
X45524Y344329D01*
X44756Y346183D01*
X43535Y347775D01*
X41943Y348996D01*
X40089Y349764D01*
X38100Y350026D01*
X7686D01*
Y558240D01*
X1413458D01*
X1413944Y557067D01*
X1381484Y524606D01*
X1379993D01*
X1378786Y524283D01*
X1370236Y532833D01*
X1368750Y533973D01*
X1367020Y534689D01*
X1365164Y534934D01*
X1322230D01*
X1320374Y534689D01*
X1318644Y533973D01*
X1317158Y532833D01*
X1301910Y517585D01*
X1268323Y551172D01*
X1266837Y552312D01*
X1265107Y553029D01*
X1263251Y553273D01*
X1032122D01*
X1030265Y553029D01*
X1028535Y552312D01*
X1027050Y551172D01*
X1000484Y524606D01*
X1000209D01*
X995691Y529125D01*
X994205Y530265D01*
X992475Y530981D01*
X990618Y531226D01*
X937522D01*
X935666Y530981D01*
X933936Y530265D01*
X932450Y529125D01*
X920910Y517585D01*
X887323Y551172D01*
X885837Y552312D01*
X884107Y553029D01*
X882251Y553273D01*
X651122D01*
X649265Y553029D01*
X647535Y552312D01*
X646050Y551172D01*
X619484Y524606D01*
X619209D01*
X607207Y536608D01*
X605722Y537748D01*
X603992Y538464D01*
X602135Y538709D01*
X564005D01*
X562149Y538464D01*
X560419Y537748D01*
X558933Y536608D01*
X539910Y517585D01*
X506323Y551172D01*
X504837Y552312D01*
X503107Y553029D01*
X501250Y553273D01*
X267375D01*
X265519Y553029D01*
X263789Y552312D01*
X262303Y551172D01*
X235277Y524147D01*
X234378Y523906D01*
X232033Y522552D01*
X230119Y520638D01*
X228765Y518293D01*
X228064Y515678D01*
Y512971D01*
X228765Y510356D01*
X230119Y508011D01*
X232033Y506097D01*
X234378Y504743D01*
X236993Y504042D01*
X239700D01*
X242315Y504743D01*
X244660Y506097D01*
X246574Y508011D01*
X247927Y510356D01*
X248628Y512971D01*
Y515678D01*
X248305Y516885D01*
X270347Y538927D01*
X498279D01*
X532129Y505077D01*
X532336Y504303D01*
X533406Y502450D01*
X534920Y500936D01*
X536773Y499866D01*
X538840Y499312D01*
X540980D01*
X543047Y499866D01*
X544901Y500936D01*
X546414Y502450D01*
X547484Y504303D01*
X547692Y505077D01*
X566977Y524362D01*
X599164D01*
X609064Y514462D01*
Y512971D01*
X609765Y510356D01*
X611119Y508011D01*
X613033Y506097D01*
X615378Y504743D01*
X617993Y504042D01*
X620700D01*
X623315Y504743D01*
X625660Y506097D01*
X627574Y508011D01*
X628927Y510356D01*
X629628Y512971D01*
Y514462D01*
X654093Y538927D01*
X879279D01*
X913129Y505077D01*
X913336Y504303D01*
X914406Y502450D01*
X915920Y500936D01*
X917773Y499866D01*
X919840Y499312D01*
X921980D01*
X924047Y499866D01*
X925901Y500936D01*
X927414Y502450D01*
X928484Y504303D01*
X928692Y505077D01*
X940494Y516879D01*
X987647D01*
X990064Y514462D01*
Y512971D01*
X990765Y510356D01*
X992119Y508011D01*
X994033Y506097D01*
X996378Y504743D01*
X998993Y504042D01*
X1001700D01*
X1004315Y504743D01*
X1006660Y506097D01*
X1008574Y508011D01*
X1009928Y510356D01*
X1010628Y512971D01*
Y514462D01*
X1035093Y538927D01*
X1260279D01*
X1294129Y505077D01*
X1294336Y504303D01*
X1295406Y502450D01*
X1296920Y500936D01*
X1298773Y499866D01*
X1300840Y499312D01*
X1302980D01*
X1305047Y499866D01*
X1306901Y500936D01*
X1308414Y502450D01*
X1309484Y504303D01*
X1309692Y505077D01*
X1325202Y520587D01*
X1362192D01*
X1370357Y512422D01*
X1371432Y511597D01*
X1371765Y510356D01*
X1373119Y508011D01*
X1375033Y506097D01*
X1377378Y504743D01*
X1379993Y504042D01*
X1382700D01*
X1385315Y504743D01*
X1387660Y506097D01*
X1389574Y508011D01*
X1390927Y510356D01*
X1391628Y512971D01*
Y514462D01*
X1428233Y551067D01*
X1453358D01*
X1454669Y549756D01*
X1456154Y548616D01*
X1457885Y547899D01*
X1459741Y547655D01*
X1478059D01*
X1479916Y547899D01*
X1481646Y548616D01*
X1483132Y549756D01*
X1484443Y551067D01*
X1602229D01*
X1615968Y537328D01*
Y534988D01*
X1616720Y532182D01*
X1618172Y529666D01*
X1620226Y527612D01*
X1622742Y526160D01*
X1625548Y525408D01*
X1628453D01*
X1631258Y526160D01*
X1633774Y527612D01*
X1635828Y529666D01*
X1637280Y532182D01*
X1638032Y534988D01*
Y537893D01*
X1637280Y540699D01*
X1635828Y543214D01*
X1633774Y545268D01*
X1631258Y546720D01*
X1628453Y547472D01*
X1626113D01*
X1616518Y557067D01*
X1617004Y558240D01*
X1804242D01*
X1804864Y556325D01*
X1807689Y550781D01*
X1811347Y545747D01*
X1815747Y541347D01*
X1820781Y537689D01*
X1826325Y534864D01*
X1832243Y532941D01*
X1838389Y531968D01*
X1844611D01*
X1850757Y532941D01*
X1856675Y534864D01*
X1862219Y537689D01*
X1867253Y541347D01*
X1871653Y545747D01*
X1875311Y550781D01*
X1878136Y556325D01*
X1878758Y558240D01*
X2040067D01*
Y527160D01*
D02*
G37*
G36*
X2063750Y522496D02*
X2062577Y522010D01*
X2058306Y526280D01*
X2058125Y526420D01*
X2054413Y530131D01*
Y558240D01*
X2063750D01*
Y522496D01*
D02*
G37*
%LPC*%
G36*
X1548519Y547980D02*
X1548270D01*
Y537710D01*
X1558540D01*
Y537960D01*
X1557754Y540895D01*
X1556234Y543526D01*
X1554086Y545675D01*
X1551454Y547194D01*
X1548519Y547980D01*
D02*
G37*
G36*
X1545730D02*
X1545481D01*
X1542546Y547194D01*
X1539915Y545675D01*
X1537766Y543526D01*
X1536247Y540895D01*
X1535460Y537960D01*
Y537710D01*
X1545730D01*
Y547980D01*
D02*
G37*
G36*
X103124Y544944D02*
X94996D01*
X90932Y540880D01*
Y532752D01*
X94996Y528688D01*
X103124D01*
X107188Y532752D01*
Y540880D01*
X103124Y544944D01*
D02*
G37*
G36*
X1558540Y535170D02*
X1548270D01*
Y524900D01*
X1548519D01*
X1551454Y525687D01*
X1554086Y527206D01*
X1556234Y529355D01*
X1557754Y531986D01*
X1558540Y534921D01*
Y535170D01*
D02*
G37*
G36*
X1545730D02*
X1535460D01*
Y534921D01*
X1536247Y531986D01*
X1537766Y529355D01*
X1539915Y527206D01*
X1542546Y525687D01*
X1545481Y524900D01*
X1545730D01*
Y535170D01*
D02*
G37*
G36*
X866267Y531368D02*
X858139D01*
X854075Y527304D01*
Y519176D01*
X858139Y515112D01*
X866267D01*
X870331Y519176D01*
Y527304D01*
X866267Y531368D01*
D02*
G37*
G36*
X1328380Y515568D02*
X1326240D01*
X1324173Y515014D01*
X1322320Y513944D01*
X1320806Y512431D01*
X1319736Y510578D01*
X1319182Y508510D01*
Y506370D01*
X1319736Y504303D01*
X1320806Y502450D01*
X1322320Y500936D01*
X1324173Y499866D01*
X1326240Y499312D01*
X1328380D01*
X1330448Y499866D01*
X1332301Y500936D01*
X1333814Y502450D01*
X1334884Y504303D01*
X1335438Y506370D01*
Y508510D01*
X1334884Y510578D01*
X1333814Y512431D01*
X1332301Y513944D01*
X1330448Y515014D01*
X1328380Y515568D01*
D02*
G37*
G36*
X947380D02*
X945240D01*
X943173Y515014D01*
X941320Y513944D01*
X939806Y512431D01*
X938736Y510578D01*
X938182Y508510D01*
Y506370D01*
X938736Y504303D01*
X939806Y502450D01*
X941320Y500936D01*
X943173Y499866D01*
X945240Y499312D01*
X947380D01*
X949447Y499866D01*
X951301Y500936D01*
X952814Y502450D01*
X953884Y504303D01*
X954438Y506370D01*
Y508510D01*
X953884Y510578D01*
X952814Y512431D01*
X951301Y513944D01*
X949447Y515014D01*
X947380Y515568D01*
D02*
G37*
G36*
X566380D02*
X564240D01*
X562173Y515014D01*
X560320Y513944D01*
X558806Y512431D01*
X557736Y510578D01*
X557182Y508510D01*
Y506370D01*
X557736Y504303D01*
X558806Y502450D01*
X560320Y500936D01*
X562173Y499866D01*
X564240Y499312D01*
X566380D01*
X568447Y499866D01*
X570301Y500936D01*
X571814Y502450D01*
X572884Y504303D01*
X573438Y506370D01*
Y508510D01*
X572884Y510578D01*
X571814Y512431D01*
X570301Y513944D01*
X568447Y515014D01*
X566380Y515568D01*
D02*
G37*
G36*
X185380D02*
X183240D01*
X181173Y515014D01*
X179320Y513944D01*
X177806Y512431D01*
X176736Y510578D01*
X176182Y508510D01*
Y506370D01*
X176736Y504303D01*
X177806Y502450D01*
X179320Y500936D01*
X181173Y499866D01*
X183240Y499312D01*
X185380D01*
X187447Y499866D01*
X189301Y500936D01*
X190814Y502450D01*
X191884Y504303D01*
X192438Y506370D01*
Y508510D01*
X191884Y510578D01*
X190814Y512431D01*
X189301Y513944D01*
X187447Y515014D01*
X185380Y515568D01*
D02*
G37*
G36*
X159980D02*
X157840D01*
X155773Y515014D01*
X153920Y513944D01*
X152406Y512431D01*
X151336Y510578D01*
X150782Y508510D01*
Y506370D01*
X151336Y504303D01*
X152406Y502450D01*
X153920Y500936D01*
X155773Y499866D01*
X157840Y499312D01*
X159980D01*
X162048Y499866D01*
X163901Y500936D01*
X165414Y502450D01*
X166484Y504303D01*
X167038Y506370D01*
Y508510D01*
X166484Y510578D01*
X165414Y512431D01*
X163901Y513944D01*
X162048Y515014D01*
X159980Y515568D01*
D02*
G37*
G36*
X1158851Y535340D02*
X1156970D01*
Y496570D01*
X1195740D01*
Y498451D01*
X1194754Y504676D01*
X1192806Y510670D01*
X1189945Y516286D01*
X1186241Y521384D01*
X1181784Y525841D01*
X1176685Y529545D01*
X1171070Y532407D01*
X1165076Y534354D01*
X1158851Y535340D01*
D02*
G37*
G36*
X1154430D02*
X1152549D01*
X1146324Y534354D01*
X1140330Y532407D01*
X1134715Y529545D01*
X1129616Y525841D01*
X1125159Y521384D01*
X1121455Y516286D01*
X1118594Y510670D01*
X1116646Y504676D01*
X1115660Y498451D01*
Y496570D01*
X1154430D01*
Y535340D01*
D02*
G37*
G36*
X777851D02*
X775970D01*
Y496570D01*
X814740D01*
Y498451D01*
X813754Y504676D01*
X811806Y510670D01*
X808945Y516286D01*
X805241Y521384D01*
X800784Y525841D01*
X795686Y529545D01*
X790070Y532407D01*
X784076Y534354D01*
X777851Y535340D01*
D02*
G37*
G36*
X773430D02*
X771549D01*
X765324Y534354D01*
X759330Y532407D01*
X753715Y529545D01*
X748616Y525841D01*
X744159Y521384D01*
X740455Y516286D01*
X737594Y510670D01*
X735646Y504676D01*
X734660Y498451D01*
Y496570D01*
X773430D01*
Y535340D01*
D02*
G37*
G36*
X396851D02*
X394970D01*
Y496570D01*
X433740D01*
Y498451D01*
X432754Y504676D01*
X430807Y510670D01*
X427945Y516286D01*
X424241Y521384D01*
X419784Y525841D01*
X414686Y529545D01*
X409070Y532407D01*
X403076Y534354D01*
X396851Y535340D01*
D02*
G37*
G36*
X392430D02*
X390549D01*
X384324Y534354D01*
X378330Y532407D01*
X372715Y529545D01*
X367616Y525841D01*
X363159Y521384D01*
X359455Y516286D01*
X356594Y510670D01*
X354646Y504676D01*
X353660Y498451D01*
Y496570D01*
X392430D01*
Y535340D01*
D02*
G37*
G36*
X1863174Y515742D02*
X1860466D01*
X1857851Y515041D01*
X1855507Y513688D01*
X1853592Y511773D01*
X1852239Y509429D01*
X1851538Y506814D01*
Y504106D01*
X1852239Y501491D01*
X1853592Y499147D01*
X1855507Y497232D01*
X1857851Y495879D01*
X1860466Y495178D01*
X1863174D01*
X1865789Y495879D01*
X1868133Y497232D01*
X1870048Y499147D01*
X1871401Y501491D01*
X1872102Y504106D01*
Y506814D01*
X1871401Y509429D01*
X1870048Y511773D01*
X1868133Y513688D01*
X1865789Y515041D01*
X1863174Y515742D01*
D02*
G37*
G36*
X1412700Y524606D02*
X1409993D01*
X1407378Y523906D01*
X1405033Y522552D01*
X1403119Y520638D01*
X1401765Y518293D01*
X1401064Y515678D01*
Y512971D01*
X1401765Y510356D01*
X1402077Y509816D01*
X1396670Y504409D01*
X1395519Y502687D01*
X1395115Y500655D01*
X1395115Y500655D01*
Y495493D01*
X1390947Y491325D01*
X1345024D01*
X1345024Y491325D01*
X1342992Y490921D01*
X1341270Y489770D01*
X1341270Y489770D01*
X1312655Y461155D01*
X1270693D01*
X1267874Y463974D01*
X1259746D01*
X1255682Y459910D01*
Y451782D01*
X1259746Y447718D01*
X1267874D01*
X1270693Y450537D01*
X1314854D01*
X1314854Y450537D01*
X1316885Y450941D01*
X1318608Y452092D01*
X1347223Y480707D01*
X1393146D01*
X1393146Y480707D01*
X1395178Y481111D01*
X1396900Y482262D01*
X1404178Y489540D01*
X1405329Y491262D01*
X1405733Y493294D01*
X1405733Y493294D01*
Y498456D01*
X1411319Y504042D01*
X1412700D01*
X1415315Y504743D01*
X1417659Y506097D01*
X1419574Y508011D01*
X1420927Y510356D01*
X1421628Y512971D01*
Y515678D01*
X1420927Y518293D01*
X1419574Y520638D01*
X1417659Y522552D01*
X1415315Y523906D01*
X1412700Y524606D01*
D02*
G37*
G36*
X1031700D02*
X1028993D01*
X1026378Y523906D01*
X1024033Y522552D01*
X1022119Y520638D01*
X1020765Y518293D01*
X1020064Y515678D01*
Y512971D01*
X1020765Y510356D01*
X1021077Y509816D01*
X1015670Y504409D01*
X1014519Y502687D01*
X1014115Y500655D01*
X1014115Y500655D01*
Y495493D01*
X1009947Y491325D01*
X964024D01*
X964024Y491325D01*
X961992Y490921D01*
X960270Y489770D01*
X960270Y489770D01*
X931655Y461155D01*
X889693D01*
X886874Y463974D01*
X878746D01*
X874682Y459910D01*
Y451782D01*
X878746Y447718D01*
X886874D01*
X889693Y450537D01*
X933854D01*
X933854Y450537D01*
X935885Y450941D01*
X937608Y452092D01*
X966223Y480707D01*
X1012146D01*
X1012146Y480707D01*
X1014178Y481111D01*
X1015900Y482262D01*
X1023178Y489540D01*
X1024329Y491262D01*
X1024733Y493294D01*
X1024733Y493294D01*
Y498456D01*
X1030319Y504042D01*
X1031700D01*
X1034315Y504743D01*
X1036659Y506097D01*
X1038574Y508011D01*
X1039928Y510356D01*
X1040628Y512971D01*
Y515678D01*
X1039928Y518293D01*
X1038574Y520638D01*
X1036659Y522552D01*
X1034315Y523906D01*
X1031700Y524606D01*
D02*
G37*
G36*
X650700D02*
X647993D01*
X645378Y523906D01*
X643033Y522552D01*
X641119Y520638D01*
X639765Y518293D01*
X639064Y515678D01*
Y512971D01*
X639765Y510356D01*
X640077Y509816D01*
X634670Y504409D01*
X633519Y502687D01*
X633115Y500655D01*
X633115Y500655D01*
Y495493D01*
X628947Y491325D01*
X583024D01*
X583024Y491325D01*
X580992Y490921D01*
X579270Y489770D01*
X579270Y489770D01*
X550655Y461155D01*
X508693D01*
X505874Y463974D01*
X497746D01*
X493682Y459910D01*
Y451782D01*
X497746Y447718D01*
X505874D01*
X508693Y450537D01*
X552854D01*
X552854Y450537D01*
X554885Y450941D01*
X556608Y452092D01*
X585223Y480707D01*
X631146D01*
X631146Y480707D01*
X633178Y481111D01*
X634900Y482262D01*
X642178Y489540D01*
X643329Y491262D01*
X643733Y493294D01*
X643733Y493294D01*
Y498456D01*
X649319Y504042D01*
X650700D01*
X653315Y504743D01*
X655659Y506097D01*
X657574Y508011D01*
X658928Y510356D01*
X659628Y512971D01*
Y515678D01*
X658928Y518293D01*
X657574Y520638D01*
X655659Y522552D01*
X653315Y523906D01*
X650700Y524606D01*
D02*
G37*
G36*
X269700D02*
X266993D01*
X264378Y523906D01*
X262033Y522552D01*
X260119Y520638D01*
X258765Y518293D01*
X258064Y515678D01*
Y512971D01*
X258765Y510356D01*
X259076Y509816D01*
X253670Y504409D01*
X252519Y502687D01*
X252115Y500655D01*
X252115Y500655D01*
Y495493D01*
X247947Y491325D01*
X202024D01*
X202024Y491325D01*
X199992Y490921D01*
X198270Y489770D01*
X198270Y489770D01*
X169655Y461155D01*
X127693D01*
X124874Y463974D01*
X116746D01*
X112682Y459910D01*
Y451782D01*
X116746Y447718D01*
X124874D01*
X127693Y450537D01*
X171854D01*
X171854Y450537D01*
X173885Y450941D01*
X175608Y452092D01*
X204223Y480707D01*
X250146D01*
X250146Y480707D01*
X252178Y481111D01*
X253900Y482262D01*
X261178Y489540D01*
X262329Y491262D01*
X262733Y493294D01*
X262733Y493294D01*
Y498456D01*
X268319Y504042D01*
X269700D01*
X272315Y504743D01*
X274660Y506097D01*
X276574Y508011D01*
X277927Y510356D01*
X278628Y512971D01*
Y515678D01*
X277927Y518293D01*
X276574Y520638D01*
X274660Y522552D01*
X272315Y523906D01*
X269700Y524606D01*
D02*
G37*
G36*
X1469859Y521606D02*
X1467941D01*
X1466089Y521110D01*
X1464429Y520151D01*
X1463073Y518796D01*
X1462115Y517135D01*
X1461618Y515283D01*
Y513366D01*
X1462115Y511514D01*
X1463073Y509853D01*
X1464162Y508764D01*
X1464323Y507974D01*
X1464162Y507185D01*
X1463073Y506096D01*
X1462115Y504435D01*
X1461618Y502583D01*
Y500666D01*
X1462115Y498814D01*
X1462593Y497984D01*
X1461860Y496714D01*
X1461110D01*
Y490195D01*
X1468900D01*
X1476690D01*
Y496714D01*
X1475941D01*
X1475207Y497984D01*
X1475686Y498814D01*
X1476182Y500666D01*
Y502583D01*
X1475686Y504435D01*
X1474727Y506096D01*
X1473638Y507185D01*
X1473478Y507974D01*
X1473638Y508764D01*
X1474727Y509853D01*
X1475686Y511514D01*
X1476182Y513366D01*
Y515283D01*
X1475686Y517135D01*
X1474727Y518796D01*
X1473371Y520151D01*
X1471711Y521110D01*
X1469859Y521606D01*
D02*
G37*
G36*
X1088859D02*
X1086942D01*
X1085089Y521110D01*
X1083429Y520151D01*
X1082073Y518796D01*
X1081115Y517135D01*
X1080618Y515283D01*
Y513366D01*
X1081115Y511514D01*
X1082073Y509853D01*
X1083162Y508764D01*
X1083323Y507974D01*
X1083162Y507185D01*
X1082073Y506096D01*
X1081115Y504435D01*
X1080618Y502583D01*
Y500666D01*
X1081115Y498814D01*
X1081593Y497984D01*
X1080860Y496714D01*
X1080110D01*
Y490194D01*
X1087900D01*
X1095690D01*
Y496714D01*
X1094940D01*
X1094207Y497984D01*
X1094686Y498814D01*
X1095182Y500666D01*
Y502583D01*
X1094686Y504435D01*
X1093727Y506096D01*
X1092638Y507185D01*
X1092478Y507974D01*
X1092638Y508764D01*
X1093727Y509853D01*
X1094686Y511514D01*
X1095182Y513366D01*
Y515283D01*
X1094686Y517135D01*
X1093727Y518796D01*
X1092372Y520151D01*
X1090711Y521110D01*
X1088859Y521606D01*
D02*
G37*
G36*
X707859D02*
X705941D01*
X704090Y521110D01*
X702429Y520151D01*
X701073Y518796D01*
X700115Y517135D01*
X699618Y515283D01*
Y513366D01*
X700115Y511514D01*
X701073Y509853D01*
X702162Y508764D01*
X702323Y507974D01*
X702162Y507185D01*
X701073Y506096D01*
X700115Y504435D01*
X699618Y502583D01*
Y500666D01*
X700115Y498814D01*
X700593Y497984D01*
X699860Y496714D01*
X699110D01*
Y490194D01*
X706900D01*
X714690D01*
Y496714D01*
X713941D01*
X713207Y497984D01*
X713686Y498814D01*
X714182Y500666D01*
Y502583D01*
X713686Y504435D01*
X712727Y506096D01*
X711638Y507185D01*
X711478Y507974D01*
X711638Y508764D01*
X712727Y509853D01*
X713686Y511514D01*
X714182Y513366D01*
Y515283D01*
X713686Y517135D01*
X712727Y518796D01*
X711372Y520151D01*
X709711Y521110D01*
X707859Y521606D01*
D02*
G37*
G36*
X326859D02*
X324941D01*
X323089Y521110D01*
X321429Y520151D01*
X320073Y518796D01*
X319114Y517135D01*
X318618Y515283D01*
Y513366D01*
X319114Y511514D01*
X320073Y509853D01*
X321162Y508764D01*
X321323Y507974D01*
X321162Y507185D01*
X320073Y506096D01*
X319114Y504435D01*
X318618Y502583D01*
Y500666D01*
X319114Y498814D01*
X319593Y497984D01*
X318860Y496714D01*
X318110D01*
Y490194D01*
X325900D01*
X333690D01*
Y496714D01*
X332940D01*
X332207Y497984D01*
X332686Y498814D01*
X333182Y500666D01*
Y502583D01*
X332686Y504435D01*
X331727Y506096D01*
X330638Y507185D01*
X330478Y507974D01*
X330638Y508764D01*
X331727Y509853D01*
X332686Y511514D01*
X333182Y513366D01*
Y515283D01*
X332686Y517135D01*
X331727Y518796D01*
X330372Y520151D01*
X328711Y521110D01*
X326859Y521606D01*
D02*
G37*
G36*
X1946576Y507432D02*
X1934544D01*
X1928528Y501416D01*
Y489384D01*
X1934544Y483368D01*
X1946576D01*
X1952592Y489384D01*
Y501416D01*
X1946576Y507432D01*
D02*
G37*
G36*
X1476690Y487654D02*
X1470170D01*
Y481134D01*
X1476690D01*
Y487654D01*
D02*
G37*
G36*
X1467630D02*
X1461110D01*
Y481134D01*
X1467630D01*
Y487654D01*
D02*
G37*
G36*
X1095690Y487654D02*
X1089170D01*
Y481134D01*
X1095690D01*
Y487654D01*
D02*
G37*
G36*
X1086630D02*
X1080110D01*
Y481134D01*
X1086630D01*
Y487654D01*
D02*
G37*
G36*
X714690D02*
X708170D01*
Y481134D01*
X714690D01*
Y487654D01*
D02*
G37*
G36*
X705630D02*
X699110D01*
Y481134D01*
X705630D01*
Y487654D01*
D02*
G37*
G36*
X333690D02*
X327170D01*
Y481134D01*
X333690D01*
Y487654D01*
D02*
G37*
G36*
X324630D02*
X318110D01*
Y481134D01*
X324630D01*
Y487654D01*
D02*
G37*
G36*
X1822139Y510202D02*
X1820221D01*
X1818369Y509706D01*
X1816709Y508747D01*
X1815353Y507391D01*
X1814394Y505731D01*
X1813898Y503879D01*
Y501961D01*
X1814394Y500109D01*
X1815353Y498449D01*
X1816442Y497360D01*
X1816602Y496570D01*
X1816442Y495780D01*
X1815353Y494691D01*
X1814394Y493031D01*
X1813898Y491179D01*
Y489261D01*
X1814394Y487409D01*
X1814873Y486580D01*
X1814140Y485310D01*
X1813390D01*
Y478790D01*
X1821180D01*
X1828970D01*
Y485310D01*
X1828220D01*
X1827487Y486580D01*
X1827966Y487409D01*
X1828462Y489261D01*
Y491179D01*
X1827966Y493031D01*
X1827007Y494691D01*
X1825918Y495780D01*
X1825757Y496570D01*
X1825918Y497360D01*
X1827007Y498449D01*
X1827966Y500109D01*
X1828462Y501961D01*
Y503879D01*
X1827966Y505731D01*
X1827007Y507391D01*
X1825651Y508747D01*
X1823991Y509706D01*
X1822139Y510202D01*
D02*
G37*
G36*
X1241044Y490728D02*
X1232916D01*
X1228852Y486664D01*
Y478536D01*
X1232916Y474472D01*
X1241044D01*
X1245108Y478536D01*
Y486664D01*
X1241044Y490728D01*
D02*
G37*
G36*
X1828970Y476250D02*
X1822450D01*
Y469730D01*
X1828970D01*
Y476250D01*
D02*
G37*
G36*
X1819910D02*
X1813390D01*
Y469730D01*
X1819910D01*
Y476250D01*
D02*
G37*
G36*
X1863174Y485742D02*
X1860466D01*
X1857851Y485041D01*
X1855507Y483688D01*
X1853592Y481773D01*
X1852239Y479429D01*
X1851538Y476814D01*
Y474106D01*
X1852239Y471491D01*
X1853592Y469147D01*
X1855507Y467232D01*
X1857851Y465879D01*
X1860466Y465178D01*
X1863174D01*
X1865789Y465879D01*
X1868133Y467232D01*
X1870048Y469147D01*
X1871401Y471491D01*
X1872102Y474106D01*
Y476814D01*
X1871401Y479429D01*
X1870048Y481773D01*
X1868133Y483688D01*
X1865789Y485041D01*
X1863174Y485742D01*
D02*
G37*
G36*
X1613925Y471842D02*
X1611876D01*
X1609897Y471312D01*
X1608122Y470287D01*
X1606673Y468839D01*
X1605649Y467064D01*
X1605118Y465085D01*
Y463036D01*
X1605649Y461057D01*
X1606673Y459282D01*
X1608122Y457833D01*
X1609897Y456809D01*
X1611876Y456278D01*
X1613925D01*
X1615904Y456809D01*
X1617679Y457833D01*
X1619127Y459282D01*
X1620152Y461057D01*
X1620682Y463036D01*
Y465085D01*
X1620152Y467064D01*
X1619127Y468839D01*
X1617679Y470287D01*
X1615904Y471312D01*
X1613925Y471842D01*
D02*
G37*
G36*
X1195740Y494030D02*
X1156970D01*
Y455260D01*
X1158851D01*
X1165076Y456246D01*
X1171070Y458194D01*
X1176685Y461055D01*
X1181784Y464759D01*
X1186241Y469216D01*
X1189945Y474314D01*
X1192806Y479930D01*
X1194754Y485924D01*
X1195740Y492149D01*
Y494030D01*
D02*
G37*
G36*
X1154430D02*
X1115660D01*
Y492149D01*
X1116646Y485924D01*
X1118594Y479930D01*
X1121455Y474314D01*
X1125159Y469216D01*
X1129616Y464759D01*
X1134715Y461055D01*
X1140330Y458194D01*
X1146324Y456246D01*
X1152549Y455260D01*
X1154430D01*
Y494030D01*
D02*
G37*
G36*
X814740D02*
X775970D01*
Y455260D01*
X777851D01*
X784076Y456246D01*
X790070Y458194D01*
X795686Y461055D01*
X800784Y464759D01*
X805241Y469216D01*
X808945Y474314D01*
X811806Y479930D01*
X813754Y485924D01*
X814740Y492149D01*
Y494030D01*
D02*
G37*
G36*
X773430D02*
X734660D01*
Y492149D01*
X735646Y485924D01*
X737594Y479930D01*
X740455Y474314D01*
X744159Y469216D01*
X748616Y464759D01*
X753715Y461055D01*
X759330Y458194D01*
X765324Y456246D01*
X771549Y455260D01*
X773430D01*
Y494030D01*
D02*
G37*
G36*
X433740D02*
X394970D01*
Y455260D01*
X396851D01*
X403076Y456246D01*
X409070Y458194D01*
X414686Y461055D01*
X419784Y464759D01*
X424241Y469216D01*
X427945Y474314D01*
X430807Y479930D01*
X432754Y485924D01*
X433740Y492149D01*
Y494030D01*
D02*
G37*
G36*
X392430D02*
X353660D01*
Y492149D01*
X354646Y485924D01*
X356594Y479930D01*
X359455Y474314D01*
X363159Y469216D01*
X367616Y464759D01*
X372715Y461055D01*
X378330Y458194D01*
X384324Y456246D01*
X390549Y455260D01*
X392430D01*
Y494030D01*
D02*
G37*
G36*
X1499264Y463974D02*
X1491136D01*
X1487072Y459910D01*
Y451782D01*
X1491136Y447718D01*
X1499264D01*
X1503328Y451782D01*
Y459910D01*
X1499264Y463974D01*
D02*
G37*
G36*
X1397664D02*
X1389536D01*
X1385472Y459910D01*
Y451782D01*
X1389536Y447718D01*
X1397664D01*
X1401728Y451782D01*
Y459910D01*
X1397664Y463974D01*
D02*
G37*
G36*
X1369474D02*
X1361346D01*
X1357282Y459910D01*
Y451782D01*
X1361346Y447718D01*
X1369474D01*
X1373538Y451782D01*
Y459910D01*
X1369474Y463974D01*
D02*
G37*
G36*
X1118264D02*
X1110136D01*
X1106072Y459910D01*
Y451782D01*
X1110136Y447718D01*
X1118264D01*
X1122328Y451782D01*
Y459910D01*
X1118264Y463974D01*
D02*
G37*
G36*
X1016664D02*
X1008536D01*
X1004472Y459910D01*
Y451782D01*
X1008536Y447718D01*
X1016664D01*
X1020728Y451782D01*
Y459910D01*
X1016664Y463974D01*
D02*
G37*
G36*
X988474D02*
X980346D01*
X976282Y459910D01*
Y451782D01*
X980346Y447718D01*
X988474D01*
X992538Y451782D01*
Y459910D01*
X988474Y463974D01*
D02*
G37*
G36*
X737264D02*
X729136D01*
X725072Y459910D01*
Y451782D01*
X729136Y447718D01*
X737264D01*
X741328Y451782D01*
Y459910D01*
X737264Y463974D01*
D02*
G37*
G36*
X635664D02*
X627536D01*
X623472Y459910D01*
Y451782D01*
X627536Y447718D01*
X635664D01*
X639728Y451782D01*
Y459910D01*
X635664Y463974D01*
D02*
G37*
G36*
X607474D02*
X599346D01*
X595282Y459910D01*
Y451782D01*
X599346Y447718D01*
X607474D01*
X611538Y451782D01*
Y459910D01*
X607474Y463974D01*
D02*
G37*
G36*
X356264D02*
X348136D01*
X344072Y459910D01*
Y451782D01*
X348136Y447718D01*
X356264D01*
X360328Y451782D01*
Y459910D01*
X356264Y463974D01*
D02*
G37*
G36*
X254664D02*
X246536D01*
X242472Y459910D01*
Y451782D01*
X246536Y447718D01*
X254664D01*
X258728Y451782D01*
Y459910D01*
X254664Y463974D01*
D02*
G37*
G36*
X226474D02*
X218346D01*
X214282Y459910D01*
Y451782D01*
X218346Y447718D01*
X226474D01*
X230538Y451782D01*
Y459910D01*
X226474Y463974D01*
D02*
G37*
G36*
X1678352Y463672D02*
X1659208D01*
Y444528D01*
X1678352D01*
Y463672D01*
D02*
G37*
G36*
X1550524Y459812D02*
X1548277D01*
X1546107Y459231D01*
X1544162Y458107D01*
X1542573Y456519D01*
X1541450Y454574D01*
X1540868Y452403D01*
Y450157D01*
X1541450Y447987D01*
X1542573Y446041D01*
X1544162Y444453D01*
X1546107Y443330D01*
X1548277Y442748D01*
X1550524D01*
X1552693Y443330D01*
X1554639Y444453D01*
X1556228Y446041D01*
X1557351Y447987D01*
X1557932Y450157D01*
Y452403D01*
X1557351Y454574D01*
X1556228Y456519D01*
X1554639Y458107D01*
X1552693Y459231D01*
X1550524Y459812D01*
D02*
G37*
G36*
X1614170Y447302D02*
Y440330D01*
X1621142D01*
X1620625Y442260D01*
X1619534Y444150D01*
X1617990Y445694D01*
X1616100Y446785D01*
X1614170Y447302D01*
D02*
G37*
G36*
X1611630Y447302D02*
X1609700Y446785D01*
X1607810Y445694D01*
X1606267Y444150D01*
X1605175Y442260D01*
X1604658Y440330D01*
X1611630D01*
Y447302D01*
D02*
G37*
G36*
X103378Y443852D02*
X100330D01*
Y436486D01*
X107696D01*
Y439534D01*
X103378Y443852D01*
D02*
G37*
G36*
X97790D02*
X94742D01*
X90424Y439534D01*
Y436486D01*
X97790D01*
Y443852D01*
D02*
G37*
G36*
X69850Y442022D02*
Y435050D01*
X76822D01*
X76305Y436980D01*
X75214Y438870D01*
X73670Y440414D01*
X71780Y441505D01*
X69850Y442022D01*
D02*
G37*
G36*
X67310Y442022D02*
X65380Y441505D01*
X63490Y440414D01*
X61946Y438870D01*
X60855Y436980D01*
X60338Y435050D01*
X67310D01*
Y442022D01*
D02*
G37*
G36*
X1611630Y437790D02*
X1604658D01*
X1605175Y435860D01*
X1606267Y433970D01*
X1607810Y432427D01*
X1609700Y431335D01*
X1611630Y430818D01*
Y437790D01*
D02*
G37*
G36*
X1621142D02*
X1614170D01*
Y430818D01*
X1616100Y431335D01*
X1617990Y432427D01*
X1619534Y433970D01*
X1620625Y435860D01*
X1621142Y437790D01*
D02*
G37*
G36*
X1670107Y438780D02*
X1670050D01*
Y429970D01*
X1678860D01*
Y430027D01*
X1678173Y432591D01*
X1676846Y434889D01*
X1674969Y436766D01*
X1672671Y438093D01*
X1670107Y438780D01*
D02*
G37*
G36*
X1667510D02*
X1667453D01*
X1664890Y438093D01*
X1662591Y436766D01*
X1660714Y434889D01*
X1659387Y432591D01*
X1658700Y430027D01*
Y429970D01*
X1667510D01*
Y438780D01*
D02*
G37*
G36*
X107696Y433946D02*
X100330D01*
Y426580D01*
X103378D01*
X107696Y430898D01*
Y433946D01*
D02*
G37*
G36*
X97790D02*
X90424D01*
Y430898D01*
X94742Y426580D01*
X97790D01*
Y433946D01*
D02*
G37*
G36*
X44605Y441562D02*
X42555D01*
X40576Y441032D01*
X38802Y440007D01*
X37353Y438559D01*
X36328Y436784D01*
X35798Y434805D01*
Y432756D01*
X36328Y430776D01*
X37353Y429002D01*
X38802Y427553D01*
X40576Y426529D01*
X42555Y425998D01*
X44605D01*
X46584Y426529D01*
X48358Y427553D01*
X49807Y429002D01*
X50832Y430776D01*
X51362Y432756D01*
Y434805D01*
X50832Y436784D01*
X49807Y438559D01*
X48358Y440007D01*
X46584Y441032D01*
X44605Y441562D01*
D02*
G37*
G36*
X67310Y432510D02*
X60338D01*
X60855Y430580D01*
X61946Y428690D01*
X63490Y427147D01*
X65380Y426055D01*
X67310Y425538D01*
Y432510D01*
D02*
G37*
G36*
X76822D02*
X69850D01*
Y425538D01*
X71780Y426055D01*
X73670Y427147D01*
X75214Y428690D01*
X76305Y430580D01*
X76822Y432510D01*
D02*
G37*
G36*
X866521Y430276D02*
X863473D01*
Y422910D01*
X870839D01*
Y425958D01*
X866521Y430276D01*
D02*
G37*
G36*
X860933D02*
X857885D01*
X853567Y425958D01*
Y422910D01*
X860933D01*
Y430276D01*
D02*
G37*
G36*
X738378Y428033D02*
X735330D01*
Y420667D01*
X742696D01*
Y423715D01*
X738378Y428033D01*
D02*
G37*
G36*
X732790D02*
X729742D01*
X725424Y423715D01*
Y420667D01*
X732790D01*
Y428033D01*
D02*
G37*
G36*
X1678860Y427430D02*
X1670050D01*
Y418620D01*
X1670107D01*
X1672671Y419307D01*
X1674969Y420634D01*
X1676846Y422511D01*
X1678173Y424809D01*
X1678860Y427373D01*
Y427430D01*
D02*
G37*
G36*
X1667510D02*
X1658700D01*
Y427373D01*
X1659387Y424809D01*
X1660714Y422511D01*
X1662591Y420634D01*
X1664890Y419307D01*
X1667453Y418620D01*
X1667510D01*
Y427430D01*
D02*
G37*
G36*
X1558440Y425320D02*
X1550670D01*
Y417551D01*
X1558440D01*
Y425320D01*
D02*
G37*
G36*
X1548130D02*
X1540360D01*
Y417551D01*
X1548130D01*
Y425320D01*
D02*
G37*
G36*
X1906524Y432308D02*
X1898396D01*
X1894332Y428244D01*
Y420116D01*
X1898396Y416052D01*
X1906524D01*
X1910588Y420116D01*
Y428244D01*
X1906524Y432308D01*
D02*
G37*
G36*
X1804924D02*
X1796796D01*
X1792732Y428244D01*
Y420116D01*
X1796796Y416052D01*
X1804924D01*
X1808988Y420116D01*
Y428244D01*
X1804924Y432308D01*
D02*
G37*
G36*
X870839Y420370D02*
X863473D01*
Y413004D01*
X866521D01*
X870839Y417322D01*
Y420370D01*
D02*
G37*
G36*
X860933D02*
X853567D01*
Y417322D01*
X857885Y413004D01*
X860933D01*
Y420370D01*
D02*
G37*
G36*
X636524Y427525D02*
X628396D01*
X624332Y423461D01*
Y415333D01*
X628396Y411269D01*
X636524D01*
X640588Y415333D01*
Y423461D01*
X636524Y427525D01*
D02*
G37*
G36*
X742696Y418127D02*
X735330D01*
Y410761D01*
X738378D01*
X742696Y415079D01*
Y418127D01*
D02*
G37*
G36*
X732790D02*
X725424D01*
Y415079D01*
X729742Y410761D01*
X732790D01*
Y418127D01*
D02*
G37*
G36*
X1558440Y415010D02*
X1550670D01*
Y407240D01*
X1558440D01*
Y415010D01*
D02*
G37*
G36*
X1548130D02*
X1540360D01*
Y407240D01*
X1548130D01*
Y415010D01*
D02*
G37*
G36*
X1614170Y411342D02*
Y404370D01*
X1621142D01*
X1620625Y406300D01*
X1619534Y408190D01*
X1617990Y409734D01*
X1616100Y410825D01*
X1614170Y411342D01*
D02*
G37*
G36*
X1611630Y411342D02*
X1609700Y410825D01*
X1607810Y409734D01*
X1606267Y408190D01*
X1605175Y406300D01*
X1604658Y404370D01*
X1611630D01*
Y411342D01*
D02*
G37*
G36*
X241646Y408560D02*
X241554D01*
Y399490D01*
X250624D01*
Y399581D01*
X249920Y402211D01*
X248558Y404569D01*
X246633Y406494D01*
X244275Y407856D01*
X241646Y408560D01*
D02*
G37*
G36*
X89246D02*
X89154D01*
Y399490D01*
X98224D01*
Y399581D01*
X97520Y402211D01*
X96158Y404569D01*
X94233Y406494D01*
X91875Y407856D01*
X89246Y408560D01*
D02*
G37*
G36*
X239014D02*
X238923D01*
X236293Y407856D01*
X233935Y406494D01*
X232010Y404569D01*
X230649Y402211D01*
X229944Y399581D01*
Y399490D01*
X239014D01*
Y408560D01*
D02*
G37*
G36*
X86614D02*
X86523D01*
X83893Y407856D01*
X81535Y406494D01*
X79610Y404569D01*
X78249Y402211D01*
X77544Y399581D01*
Y399490D01*
X86614D01*
Y408560D01*
D02*
G37*
G36*
X1611630Y401830D02*
X1604658D01*
X1605175Y399900D01*
X1606267Y398010D01*
X1607810Y396467D01*
X1609700Y395375D01*
X1611630Y394858D01*
Y401830D01*
D02*
G37*
G36*
X1621142D02*
X1614170D01*
Y394858D01*
X1616100Y395375D01*
X1617990Y396467D01*
X1619534Y398010D01*
X1620625Y399900D01*
X1621142Y401830D01*
D02*
G37*
G36*
X1670040Y412872D02*
X1667520D01*
X1665086Y412220D01*
X1662903Y410960D01*
X1661121Y409178D01*
X1659861Y406995D01*
X1659208Y404560D01*
Y402040D01*
X1659861Y399606D01*
X1661121Y397423D01*
X1662903Y395641D01*
X1665086Y394381D01*
X1667520Y393728D01*
X1670040D01*
X1672475Y394381D01*
X1674658Y395641D01*
X1676440Y397423D01*
X1677700Y399606D01*
X1678352Y402040D01*
Y404560D01*
X1677700Y406995D01*
X1676440Y409178D01*
X1674658Y410960D01*
X1672475Y412220D01*
X1670040Y412872D01*
D02*
G37*
G36*
X1482240Y401190D02*
X1474470D01*
Y393420D01*
X1482240D01*
Y401190D01*
D02*
G37*
G36*
X1471930D02*
X1464160D01*
Y393420D01*
X1471930D01*
Y401190D01*
D02*
G37*
G36*
X616769Y392437D02*
X616769Y392437D01*
X560433D01*
X560432Y392437D01*
X558401Y392033D01*
X556678Y390882D01*
X556678Y390882D01*
X546054Y380258D01*
X545084Y380386D01*
X542857Y380093D01*
X540781Y379233D01*
X538999Y377865D01*
X537632Y376083D01*
X536772Y374008D01*
X536479Y371780D01*
Y368780D01*
X536772Y366553D01*
X537632Y364478D01*
X538999Y362695D01*
X540781Y361328D01*
X542857Y360468D01*
X545084Y360175D01*
X547312Y360468D01*
X549387Y361328D01*
X551169Y362695D01*
X552537Y364478D01*
X553397Y366553D01*
X553690Y368780D01*
Y371780D01*
X553562Y372750D01*
X562631Y381819D01*
X614570D01*
X616223Y380167D01*
X617945Y379016D01*
X619977Y378612D01*
X619977Y378612D01*
X671487D01*
X672886Y377214D01*
X674797Y376110D01*
X676929Y375539D01*
X679136D01*
X681267Y376110D01*
X683179Y377214D01*
X684739Y378774D01*
X685843Y380686D01*
X686414Y382817D01*
Y385024D01*
X685843Y387156D01*
X684739Y389068D01*
X683179Y390628D01*
X681267Y391732D01*
X679136Y392303D01*
X676929D01*
X674797Y391732D01*
X672886Y390628D01*
X671487Y389230D01*
X622176D01*
X620523Y390882D01*
X618801Y392033D01*
X616769Y392437D01*
D02*
G37*
G36*
X546379Y408052D02*
X543790D01*
X541289Y407382D01*
X539047Y406088D01*
X537217Y404257D01*
X535922Y402015D01*
X535252Y399515D01*
Y396926D01*
X535922Y394425D01*
X537217Y392183D01*
X539047Y390353D01*
X541289Y389058D01*
X543790Y388388D01*
X546379D01*
X548879Y389058D01*
X551121Y390353D01*
X552952Y392183D01*
X554246Y394425D01*
X554916Y396926D01*
Y399515D01*
X554246Y402015D01*
X552952Y404257D01*
X551121Y406088D01*
X548879Y407382D01*
X546379Y408052D01*
D02*
G37*
G36*
X520979D02*
X518390D01*
X515889Y407382D01*
X513647Y406088D01*
X511817Y404257D01*
X510522Y402015D01*
X509852Y399515D01*
Y396926D01*
X510522Y394425D01*
X511817Y392183D01*
X513647Y390353D01*
X515889Y389058D01*
X518390Y388388D01*
X520979D01*
X523479Y389058D01*
X525721Y390353D01*
X527552Y392183D01*
X528846Y394425D01*
X529516Y396926D01*
Y399515D01*
X528846Y402015D01*
X527552Y404257D01*
X525721Y406088D01*
X523479Y407382D01*
X520979Y408052D01*
D02*
G37*
G36*
X495579D02*
X492990D01*
X490489Y407382D01*
X488247Y406088D01*
X486417Y404257D01*
X485122Y402015D01*
X484452Y399515D01*
Y396926D01*
X485122Y394425D01*
X486417Y392183D01*
X488247Y390353D01*
X490489Y389058D01*
X492990Y388388D01*
X495579D01*
X498079Y389058D01*
X500321Y390353D01*
X502152Y392183D01*
X503446Y394425D01*
X504116Y396926D01*
Y399515D01*
X503446Y402015D01*
X502152Y404257D01*
X500321Y406088D01*
X498079Y407382D01*
X495579Y408052D01*
D02*
G37*
G36*
X470179D02*
X467590D01*
X465089Y407382D01*
X462847Y406088D01*
X461017Y404257D01*
X459722Y402015D01*
X459052Y399515D01*
Y396926D01*
X459722Y394425D01*
X461017Y392183D01*
X462847Y390353D01*
X465089Y389058D01*
X467590Y388388D01*
X470179D01*
X472679Y389058D01*
X474921Y390353D01*
X476752Y392183D01*
X478046Y394425D01*
X478716Y396926D01*
Y399515D01*
X478046Y402015D01*
X476752Y404257D01*
X474921Y406088D01*
X472679Y407382D01*
X470179Y408052D01*
D02*
G37*
G36*
X444779D02*
X442190D01*
X439689Y407382D01*
X437447Y406088D01*
X435617Y404257D01*
X434322Y402015D01*
X433652Y399515D01*
Y396926D01*
X434322Y394425D01*
X435617Y392183D01*
X437447Y390353D01*
X439689Y389058D01*
X442190Y388388D01*
X444779D01*
X447279Y389058D01*
X449521Y390353D01*
X451352Y392183D01*
X452646Y394425D01*
X453316Y396926D01*
Y399515D01*
X452646Y402015D01*
X451352Y404257D01*
X449521Y406088D01*
X447279Y407382D01*
X444779Y408052D01*
D02*
G37*
G36*
X419379D02*
X416790D01*
X414289Y407382D01*
X412047Y406088D01*
X410217Y404257D01*
X408922Y402015D01*
X408252Y399515D01*
Y396926D01*
X408922Y394425D01*
X410217Y392183D01*
X412047Y390353D01*
X414289Y389058D01*
X416790Y388388D01*
X419379D01*
X421879Y389058D01*
X424121Y390353D01*
X425952Y392183D01*
X427246Y394425D01*
X427916Y396926D01*
Y399515D01*
X427246Y402015D01*
X425952Y404257D01*
X424121Y406088D01*
X421879Y407382D01*
X419379Y408052D01*
D02*
G37*
G36*
X343179D02*
X340590D01*
X338089Y407382D01*
X335847Y406088D01*
X334017Y404257D01*
X332722Y402015D01*
X332052Y399515D01*
Y396926D01*
X332380Y395704D01*
X316995Y380319D01*
X316484Y380386D01*
X314257Y380093D01*
X312181Y379233D01*
X310399Y377865D01*
X309032Y376083D01*
X308172Y374008D01*
X307879Y371780D01*
Y368780D01*
X308172Y366553D01*
X309032Y364478D01*
X310399Y362695D01*
X312181Y361328D01*
X314257Y360468D01*
X316484Y360175D01*
X318712Y360468D01*
X320787Y361328D01*
X322569Y362695D01*
X323937Y364478D01*
X324797Y366553D01*
X325090Y368780D01*
Y371780D01*
X324902Y373210D01*
X340188Y388496D01*
X340590Y388388D01*
X343179D01*
X345679Y389058D01*
X347921Y390353D01*
X349752Y392183D01*
X351046Y394425D01*
X351716Y396926D01*
Y399515D01*
X351046Y402015D01*
X349752Y404257D01*
X347921Y406088D01*
X345679Y407382D01*
X343179Y408052D01*
D02*
G37*
G36*
X317779D02*
X315190D01*
X312689Y407382D01*
X310447Y406088D01*
X308617Y404257D01*
X307322Y402015D01*
X306652Y399515D01*
Y396926D01*
X306980Y395704D01*
X291595Y380319D01*
X291084Y380386D01*
X288857Y380093D01*
X286781Y379233D01*
X284999Y377865D01*
X283632Y376083D01*
X282772Y374008D01*
X282479Y371780D01*
Y368780D01*
X282772Y366553D01*
X283632Y364478D01*
X284999Y362695D01*
X286781Y361328D01*
X288857Y360468D01*
X291084Y360175D01*
X293312Y360468D01*
X295387Y361328D01*
X297169Y362695D01*
X298537Y364478D01*
X299397Y366553D01*
X299690Y368780D01*
Y371780D01*
X299502Y373210D01*
X314788Y388496D01*
X315190Y388388D01*
X317779D01*
X320279Y389058D01*
X322521Y390353D01*
X324352Y392183D01*
X325646Y394425D01*
X326316Y396926D01*
Y399515D01*
X325646Y402015D01*
X324352Y404257D01*
X322521Y406088D01*
X320279Y407382D01*
X317779Y408052D01*
D02*
G37*
G36*
X292379D02*
X289790D01*
X287289Y407382D01*
X285047Y406088D01*
X283217Y404257D01*
X281922Y402015D01*
X281252Y399515D01*
Y396926D01*
X281922Y394425D01*
X283217Y392183D01*
X285047Y390353D01*
X287289Y389058D01*
X289790Y388388D01*
X292379D01*
X294879Y389058D01*
X297121Y390353D01*
X298952Y392183D01*
X300246Y394425D01*
X300916Y396926D01*
Y399515D01*
X300246Y402015D01*
X298952Y404257D01*
X297121Y406088D01*
X294879Y407382D01*
X292379Y408052D01*
D02*
G37*
G36*
X266979D02*
X264390D01*
X261889Y407382D01*
X259647Y406088D01*
X257817Y404257D01*
X256522Y402015D01*
X255852Y399515D01*
Y396926D01*
X256522Y394425D01*
X257817Y392183D01*
X259647Y390353D01*
X261889Y389058D01*
X264390Y388388D01*
X266979D01*
X269479Y389058D01*
X271721Y390353D01*
X273552Y392183D01*
X274846Y394425D01*
X275516Y396926D01*
Y399515D01*
X274846Y402015D01*
X273552Y404257D01*
X271721Y406088D01*
X269479Y407382D01*
X266979Y408052D01*
D02*
G37*
G36*
X216179D02*
X213590D01*
X211089Y407382D01*
X208847Y406088D01*
X207017Y404257D01*
X205722Y402015D01*
X205052Y399515D01*
Y396926D01*
X205722Y394425D01*
X207017Y392183D01*
X208847Y390353D01*
X211089Y389058D01*
X213590Y388388D01*
X216179D01*
X218679Y389058D01*
X220921Y390353D01*
X222752Y392183D01*
X224046Y394425D01*
X224716Y396926D01*
Y399515D01*
X224046Y402015D01*
X222752Y404257D01*
X220921Y406088D01*
X218679Y407382D01*
X216179Y408052D01*
D02*
G37*
G36*
X190779D02*
X188190D01*
X185689Y407382D01*
X183447Y406088D01*
X181617Y404257D01*
X180322Y402015D01*
X179652Y399515D01*
Y396926D01*
X180322Y394425D01*
X181617Y392183D01*
X183447Y390353D01*
X185689Y389058D01*
X188190Y388388D01*
X190779D01*
X193279Y389058D01*
X195521Y390353D01*
X197352Y392183D01*
X198646Y394425D01*
X199316Y396926D01*
Y399515D01*
X198646Y402015D01*
X197352Y404257D01*
X195521Y406088D01*
X193279Y407382D01*
X190779Y408052D01*
D02*
G37*
G36*
X165379D02*
X162790D01*
X160289Y407382D01*
X158047Y406088D01*
X156217Y404257D01*
X154922Y402015D01*
X154252Y399515D01*
Y396926D01*
X154922Y394425D01*
X156217Y392183D01*
X158047Y390353D01*
X160289Y389058D01*
X162790Y388388D01*
X165379D01*
X167879Y389058D01*
X170121Y390353D01*
X171952Y392183D01*
X173246Y394425D01*
X173916Y396926D01*
Y399515D01*
X173246Y402015D01*
X171952Y404257D01*
X170121Y406088D01*
X167879Y407382D01*
X165379Y408052D01*
D02*
G37*
G36*
X842264Y424128D02*
X834136D01*
X830072Y420064D01*
Y411936D01*
X832891Y409117D01*
Y392799D01*
X749641Y309549D01*
X690045D01*
X686520Y313074D01*
X684798Y314225D01*
X682766Y314629D01*
X682766Y314629D01*
X663389D01*
X662251Y315767D01*
X662460Y317103D01*
X662520Y317115D01*
X664242Y318266D01*
X665227Y319251D01*
X700355D01*
X701754Y317853D01*
X703665Y316749D01*
X705797Y316178D01*
X708004D01*
X710136Y316749D01*
X712047Y317853D01*
X713607Y319414D01*
X714711Y321325D01*
X715282Y323457D01*
Y325664D01*
X714711Y327796D01*
X713607Y329707D01*
X712047Y331268D01*
X710136Y332371D01*
X708004Y332942D01*
X705797D01*
X703665Y332371D01*
X701754Y331268D01*
X700355Y329869D01*
X663028D01*
X660997Y329465D01*
X659274Y328314D01*
X659274Y328314D01*
X658289Y327329D01*
X534784D01*
X532753Y326925D01*
X531030Y325774D01*
X529879Y324052D01*
X529840Y323855D01*
X520614Y314629D01*
X352743D01*
X324962Y342410D01*
X325090Y343380D01*
Y346380D01*
X324797Y348608D01*
X323937Y350683D01*
X322569Y352465D01*
X320787Y353833D01*
X318712Y354693D01*
X316484Y354986D01*
X314257Y354693D01*
X312181Y353833D01*
X310399Y352465D01*
X309032Y350683D01*
X308172Y348608D01*
X307879Y346380D01*
Y343380D01*
X308006Y342410D01*
X294196Y328600D01*
X158472D01*
X157986Y329774D01*
X163114Y334902D01*
X164084Y334775D01*
X166312Y335068D01*
X168387Y335928D01*
X170169Y337295D01*
X171537Y339077D01*
X172397Y341153D01*
X172690Y343380D01*
Y346380D01*
X172397Y348608D01*
X171537Y350683D01*
X170169Y352465D01*
X168387Y353833D01*
X166312Y354693D01*
X164084Y354986D01*
X161857Y354693D01*
X159781Y353833D01*
X157999Y352465D01*
X156632Y350683D01*
X155772Y348608D01*
X155479Y346380D01*
Y343380D01*
X155606Y342410D01*
X150178Y336982D01*
X146130D01*
X145504Y338252D01*
X146137Y339077D01*
X146997Y341153D01*
X147290Y343380D01*
Y346380D01*
X146997Y348608D01*
X146137Y350683D01*
X144769Y352465D01*
X142987Y353833D01*
X140912Y354693D01*
X138684Y354986D01*
X136457Y354693D01*
X134381Y353833D01*
X133485Y353145D01*
X132215Y353772D01*
Y361389D01*
X133485Y362015D01*
X134381Y361328D01*
X136457Y360468D01*
X138684Y360175D01*
X140912Y360468D01*
X142987Y361328D01*
X144769Y362695D01*
X146137Y364478D01*
X146997Y366553D01*
X147290Y368780D01*
Y371780D01*
X146997Y374008D01*
X146137Y376083D01*
X144769Y377865D01*
X142987Y379233D01*
X140912Y380093D01*
X138684Y380386D01*
X136457Y380093D01*
X134381Y379233D01*
X133485Y378545D01*
X132215Y379172D01*
Y383298D01*
X137323Y388406D01*
X137390Y388388D01*
X139979D01*
X142479Y389058D01*
X144721Y390353D01*
X146552Y392183D01*
X147846Y394425D01*
X148516Y396926D01*
Y399515D01*
X147846Y402015D01*
X146552Y404257D01*
X144721Y406088D01*
X142479Y407382D01*
X139979Y408052D01*
X137390D01*
X134889Y407382D01*
X132647Y406088D01*
X130817Y404257D01*
X129522Y402015D01*
X128852Y399515D01*
Y396926D01*
X129270Y395368D01*
X123152Y389251D01*
X122001Y387529D01*
X121597Y385497D01*
X121597Y385497D01*
Y377048D01*
X120327Y376617D01*
X119369Y377865D01*
X117587Y379233D01*
X115512Y380093D01*
X113284Y380386D01*
X111057Y380093D01*
X108981Y379233D01*
X107199Y377865D01*
X105832Y376083D01*
X104972Y374008D01*
X104679Y371780D01*
Y368780D01*
X104972Y366553D01*
X105832Y364478D01*
X107199Y362695D01*
X108981Y361328D01*
X111057Y360468D01*
X113284Y360175D01*
X115512Y360468D01*
X117587Y361328D01*
X119369Y362695D01*
X120327Y363943D01*
X121597Y363512D01*
Y351648D01*
X120327Y351217D01*
X119369Y352465D01*
X117587Y353833D01*
X115512Y354693D01*
X113284Y354986D01*
X111057Y354693D01*
X108981Y353833D01*
X107199Y352465D01*
X105832Y350683D01*
X104972Y348608D01*
X104679Y346380D01*
Y343380D01*
X104806Y342410D01*
X84130Y321734D01*
X82979Y320012D01*
X82575Y317980D01*
X82575Y317980D01*
Y154052D01*
X78052D01*
Y135605D01*
X78052Y134666D01*
X77094Y134126D01*
X76914Y134069D01*
X74745Y136239D01*
X72160Y137966D01*
X69288Y139156D01*
X66239Y139762D01*
X63130D01*
X60081Y139156D01*
X57209Y137966D01*
X54624Y136239D01*
X52426Y134041D01*
X50698Y131456D01*
X49509Y128584D01*
X48902Y125535D01*
Y122426D01*
X49509Y119377D01*
X50698Y116505D01*
X52426Y113920D01*
X54624Y111722D01*
X57209Y109994D01*
X60081Y108805D01*
X63130Y108198D01*
X66239D01*
X69288Y108805D01*
X72160Y109994D01*
X74745Y111722D01*
X76943Y113920D01*
X78670Y116505D01*
X79860Y119377D01*
X80466Y122426D01*
Y125535D01*
X79860Y128584D01*
X78670Y131456D01*
X77371Y133401D01*
X78225Y134373D01*
X78294Y134388D01*
X79207Y134388D01*
X97716D01*
Y154052D01*
X93193D01*
Y315781D01*
X111524Y334112D01*
X111990Y334120D01*
X113215Y332929D01*
Y328708D01*
X113215Y328708D01*
X113619Y326677D01*
X114770Y324954D01*
X120187Y319537D01*
X120187Y319537D01*
X121910Y318386D01*
X123941Y317982D01*
X123941Y317982D01*
X296395D01*
X296395Y317982D01*
X298427Y318386D01*
X300149Y319537D01*
X315514Y334902D01*
X316484Y334775D01*
X317454Y334902D01*
X346790Y305566D01*
X346790Y305566D01*
X348513Y304415D01*
X350544Y304011D01*
X350544Y304011D01*
X522813D01*
X522813Y304011D01*
X524845Y304415D01*
X526567Y305566D01*
X537712Y316711D01*
X650585D01*
X651111Y315441D01*
X650137Y314467D01*
X649034Y312556D01*
X648462Y310424D01*
Y309298D01*
X647192Y308255D01*
X646795Y308334D01*
X646795Y308334D01*
X641234D01*
X640626Y309387D01*
X639065Y310947D01*
X637154Y312051D01*
X635022Y312622D01*
X632815D01*
X630683Y312051D01*
X628772Y310947D01*
X627211Y309387D01*
X626108Y307476D01*
X625537Y305344D01*
Y303137D01*
X626108Y301005D01*
X627211Y299094D01*
X628772Y297533D01*
X630683Y296430D01*
X632815Y295858D01*
X635022D01*
X637154Y296430D01*
X639065Y297533D01*
X639249Y297716D01*
X644596D01*
X647010Y295302D01*
X647152Y294589D01*
X648303Y292866D01*
X649065Y292104D01*
X649065Y292104D01*
X650788Y290953D01*
X652819Y290549D01*
X755312D01*
X755312Y290549D01*
X757344Y290953D01*
X759066Y292104D01*
X848781Y381819D01*
X1002368D01*
X1002368Y381819D01*
X1004400Y382223D01*
X1006122Y383374D01*
X1025540Y402792D01*
X1030224D01*
X1034288Y406856D01*
Y414984D01*
X1030224Y419048D01*
X1022096D01*
X1018032Y414984D01*
Y410300D01*
X1000169Y392437D01*
X846582D01*
X846582Y392437D01*
X844779Y392079D01*
X843509Y392749D01*
Y409117D01*
X846328Y411936D01*
Y420064D01*
X842264Y424128D01*
D02*
G37*
G36*
X114579Y408052D02*
X111990D01*
X109489Y407382D01*
X107247Y406088D01*
X105417Y404257D01*
X104122Y402015D01*
X103452Y399515D01*
Y396926D01*
X104122Y394425D01*
X105417Y392183D01*
X107247Y390353D01*
X109489Y389058D01*
X111990Y388388D01*
X114579D01*
X117079Y389058D01*
X119321Y390353D01*
X121152Y392183D01*
X122446Y394425D01*
X123116Y396926D01*
Y399515D01*
X122446Y402015D01*
X121152Y404257D01*
X119321Y406088D01*
X117079Y407382D01*
X114579Y408052D01*
D02*
G37*
G36*
X250624Y396950D02*
X241554D01*
Y387880D01*
X241646D01*
X244275Y388585D01*
X246633Y389946D01*
X248558Y391871D01*
X249920Y394229D01*
X250624Y396859D01*
Y396950D01*
D02*
G37*
G36*
X239014D02*
X229944D01*
Y396859D01*
X230649Y394229D01*
X232010Y391871D01*
X233935Y389946D01*
X236293Y388585D01*
X238923Y387880D01*
X239014D01*
Y396950D01*
D02*
G37*
G36*
X98224D02*
X89154D01*
Y387880D01*
X89246D01*
X91875Y388585D01*
X94233Y389946D01*
X96158Y391871D01*
X97520Y394229D01*
X98224Y396859D01*
Y396950D01*
D02*
G37*
G36*
X86614D02*
X77544D01*
Y396859D01*
X78249Y394229D01*
X79610Y391871D01*
X81535Y389946D01*
X83893Y388585D01*
X86523Y387880D01*
X86614D01*
Y396950D01*
D02*
G37*
G36*
X2008474Y425432D02*
X2004725D01*
X2001049Y424701D01*
X1997585Y423266D01*
X1994468Y421183D01*
X1991817Y418532D01*
X1989734Y415415D01*
X1988299Y411952D01*
X1987568Y408275D01*
Y404526D01*
X1988299Y400849D01*
X1989734Y397385D01*
X1991817Y394268D01*
X1994468Y391617D01*
X1997585Y389534D01*
X2001049Y388100D01*
X2004725Y387368D01*
X2008474D01*
X2012151Y388100D01*
X2015615Y389534D01*
X2018732Y391617D01*
X2021383Y394268D01*
X2023466Y397385D01*
X2024901Y400849D01*
X2025632Y404526D01*
Y408275D01*
X2024901Y411952D01*
X2023466Y415415D01*
X2021383Y418532D01*
X2018732Y421183D01*
X2015615Y423266D01*
X2012151Y424701D01*
X2008474Y425432D01*
D02*
G37*
G36*
X1906778Y394716D02*
X1903730D01*
Y387350D01*
X1911096D01*
Y390398D01*
X1906778Y394716D01*
D02*
G37*
G36*
X1901190D02*
X1898142D01*
X1893824Y390398D01*
Y387350D01*
X1901190D01*
Y394716D01*
D02*
G37*
G36*
X1482240Y390880D02*
X1474470D01*
Y383110D01*
X1482240D01*
Y390880D01*
D02*
G37*
G36*
X1471930D02*
X1464160D01*
Y383110D01*
X1471930D01*
Y390880D01*
D02*
G37*
G36*
X1241298Y389636D02*
X1238250D01*
Y382270D01*
X1245616D01*
Y385318D01*
X1241298Y389636D01*
D02*
G37*
G36*
X1235710D02*
X1232662D01*
X1228344Y385318D01*
Y382270D01*
X1235710D01*
Y389636D01*
D02*
G37*
G36*
X1804924Y394208D02*
X1796796D01*
X1792732Y390144D01*
Y382016D01*
X1796796Y377952D01*
X1804924D01*
X1808988Y382016D01*
Y390144D01*
X1804924Y394208D01*
D02*
G37*
G36*
X1911096Y384810D02*
X1903730D01*
Y377444D01*
X1906778D01*
X1911096Y381762D01*
Y384810D01*
D02*
G37*
G36*
X1901190D02*
X1893824D01*
Y381762D01*
X1898142Y377444D01*
X1901190D01*
Y384810D01*
D02*
G37*
G36*
X1245616Y379730D02*
X1238250D01*
Y372364D01*
X1241298D01*
X1245616Y376682D01*
Y379730D01*
D02*
G37*
G36*
X1235710D02*
X1228344D01*
Y376682D01*
X1232662Y372364D01*
X1235710D01*
Y379730D01*
D02*
G37*
G36*
X520954Y380731D02*
Y371550D01*
X528802D01*
Y371780D01*
X528492Y374140D01*
X527581Y376339D01*
X526132Y378228D01*
X524243Y379677D01*
X522044Y380588D01*
X520954Y380731D01*
D02*
G37*
G36*
X518414D02*
X517324Y380588D01*
X515125Y379677D01*
X513237Y378228D01*
X511788Y376339D01*
X510877Y374140D01*
X510566Y371780D01*
Y371550D01*
X518414D01*
Y380731D01*
D02*
G37*
G36*
X470154D02*
Y371550D01*
X478002D01*
Y371780D01*
X477692Y374140D01*
X476781Y376339D01*
X475332Y378228D01*
X473443Y379677D01*
X471244Y380588D01*
X470154Y380731D01*
D02*
G37*
G36*
X467614D02*
X466524Y380588D01*
X464325Y379677D01*
X462437Y378228D01*
X460988Y376339D01*
X460077Y374140D01*
X459766Y371780D01*
Y371550D01*
X467614D01*
Y380731D01*
D02*
G37*
G36*
X343154D02*
Y371550D01*
X351002D01*
Y371780D01*
X350692Y374140D01*
X349781Y376339D01*
X348332Y378228D01*
X346443Y379677D01*
X344244Y380588D01*
X343154Y380731D01*
D02*
G37*
G36*
X340614D02*
X339524Y380588D01*
X337325Y379677D01*
X335437Y378228D01*
X333988Y376339D01*
X333077Y374140D01*
X332766Y371780D01*
Y371550D01*
X340614D01*
Y380731D01*
D02*
G37*
G36*
X266954D02*
Y371550D01*
X274802D01*
Y371780D01*
X274492Y374140D01*
X273581Y376339D01*
X272132Y378228D01*
X270243Y379677D01*
X268044Y380588D01*
X266954Y380731D01*
D02*
G37*
G36*
X264414D02*
X263324Y380588D01*
X261125Y379677D01*
X259237Y378228D01*
X257788Y376339D01*
X256877Y374140D01*
X256566Y371780D01*
Y371550D01*
X264414D01*
Y380731D01*
D02*
G37*
G36*
X165354D02*
Y371550D01*
X173202D01*
Y371780D01*
X172892Y374140D01*
X171981Y376339D01*
X170532Y378228D01*
X168643Y379677D01*
X166444Y380588D01*
X165354Y380731D01*
D02*
G37*
G36*
X162814D02*
X161724Y380588D01*
X159525Y379677D01*
X157637Y378228D01*
X156188Y376339D01*
X155277Y374140D01*
X154966Y371780D01*
Y371550D01*
X162814D01*
Y380731D01*
D02*
G37*
G36*
X1613925Y385882D02*
X1611876D01*
X1609897Y385352D01*
X1608122Y384327D01*
X1606673Y382878D01*
X1605649Y381104D01*
X1605118Y379125D01*
Y377076D01*
X1605649Y375097D01*
X1606673Y373322D01*
X1608122Y371873D01*
X1609897Y370849D01*
X1611876Y370318D01*
X1613925D01*
X1615904Y370849D01*
X1617679Y371873D01*
X1619127Y373322D01*
X1620152Y375097D01*
X1620682Y377076D01*
Y379125D01*
X1620152Y381104D01*
X1619127Y382878D01*
X1617679Y384327D01*
X1615904Y385352D01*
X1613925Y385882D01*
D02*
G37*
G36*
X595884Y380386D02*
X593657Y380093D01*
X591581Y379233D01*
X589799Y377865D01*
X588432Y376083D01*
X587572Y374008D01*
X587279Y371780D01*
Y368780D01*
X587572Y366553D01*
X588432Y364478D01*
X589799Y362695D01*
X591581Y361328D01*
X593657Y360468D01*
X595884Y360175D01*
X598112Y360468D01*
X600187Y361328D01*
X601969Y362695D01*
X603337Y364478D01*
X604197Y366553D01*
X604490Y368780D01*
Y371780D01*
X604197Y374008D01*
X603337Y376083D01*
X601969Y377865D01*
X600187Y379233D01*
X598112Y380093D01*
X595884Y380386D01*
D02*
G37*
G36*
X570484D02*
X568257Y380093D01*
X566181Y379233D01*
X564399Y377865D01*
X563032Y376083D01*
X562172Y374008D01*
X561879Y371780D01*
Y368780D01*
X562172Y366553D01*
X563032Y364478D01*
X564399Y362695D01*
X566181Y361328D01*
X568257Y360468D01*
X570484Y360175D01*
X572712Y360468D01*
X574787Y361328D01*
X576569Y362695D01*
X577937Y364478D01*
X578797Y366553D01*
X579090Y368780D01*
Y371780D01*
X578797Y374008D01*
X577937Y376083D01*
X576569Y377865D01*
X574787Y379233D01*
X572712Y380093D01*
X570484Y380386D01*
D02*
G37*
G36*
X494284D02*
X492057Y380093D01*
X489981Y379233D01*
X488199Y377865D01*
X486832Y376083D01*
X485972Y374008D01*
X485679Y371780D01*
Y368780D01*
X485972Y366553D01*
X486832Y364478D01*
X488199Y362695D01*
X489981Y361328D01*
X492057Y360468D01*
X494284Y360175D01*
X496512Y360468D01*
X498587Y361328D01*
X500369Y362695D01*
X501737Y364478D01*
X502597Y366553D01*
X502890Y368780D01*
Y371780D01*
X502597Y374008D01*
X501737Y376083D01*
X500369Y377865D01*
X498587Y379233D01*
X496512Y380093D01*
X494284Y380386D01*
D02*
G37*
G36*
X443484D02*
X441257Y380093D01*
X439181Y379233D01*
X437399Y377865D01*
X436032Y376083D01*
X435172Y374008D01*
X434879Y371780D01*
Y368780D01*
X435172Y366553D01*
X436032Y364478D01*
X437399Y362695D01*
X439181Y361328D01*
X441257Y360468D01*
X443484Y360175D01*
X445712Y360468D01*
X447787Y361328D01*
X449569Y362695D01*
X450937Y364478D01*
X451797Y366553D01*
X452090Y368780D01*
Y371780D01*
X451797Y374008D01*
X450937Y376083D01*
X449569Y377865D01*
X447787Y379233D01*
X445712Y380093D01*
X443484Y380386D01*
D02*
G37*
G36*
X418084D02*
X415857Y380093D01*
X413781Y379233D01*
X411999Y377865D01*
X410632Y376083D01*
X409772Y374008D01*
X409479Y371780D01*
Y368780D01*
X409772Y366553D01*
X410632Y364478D01*
X411999Y362695D01*
X413781Y361328D01*
X415857Y360468D01*
X418084Y360175D01*
X420312Y360468D01*
X422387Y361328D01*
X424169Y362695D01*
X425537Y364478D01*
X426397Y366553D01*
X426690Y368780D01*
Y371780D01*
X426397Y374008D01*
X425537Y376083D01*
X424169Y377865D01*
X422387Y379233D01*
X420312Y380093D01*
X418084Y380386D01*
D02*
G37*
G36*
X393979Y408052D02*
X391390D01*
X388889Y407382D01*
X386647Y406088D01*
X384817Y404257D01*
X383522Y402015D01*
X382852Y399515D01*
Y396926D01*
X383522Y394425D01*
X384817Y392183D01*
X386647Y390353D01*
X387375Y389932D01*
Y378461D01*
X386599Y377865D01*
X385232Y376083D01*
X384372Y374008D01*
X384079Y371780D01*
Y368780D01*
X384372Y366553D01*
X385232Y364478D01*
X386599Y362695D01*
X388381Y361328D01*
X390457Y360468D01*
X392684Y360175D01*
X394912Y360468D01*
X396987Y361328D01*
X398769Y362695D01*
X400137Y364478D01*
X400997Y366553D01*
X401290Y368780D01*
Y371780D01*
X400997Y374008D01*
X400137Y376083D01*
X398769Y377865D01*
X397993Y378461D01*
Y389932D01*
X398721Y390353D01*
X400552Y392183D01*
X401846Y394425D01*
X402516Y396926D01*
Y399515D01*
X401846Y402015D01*
X400552Y404257D01*
X398721Y406088D01*
X396479Y407382D01*
X393979Y408052D01*
D02*
G37*
G36*
X368579D02*
X365990D01*
X363489Y407382D01*
X361247Y406088D01*
X359417Y404257D01*
X358122Y402015D01*
X357452Y399515D01*
Y396926D01*
X358122Y394425D01*
X359417Y392183D01*
X361247Y390353D01*
X361975Y389932D01*
Y378461D01*
X361199Y377865D01*
X359832Y376083D01*
X358972Y374008D01*
X358679Y371780D01*
Y368780D01*
X358972Y366553D01*
X359832Y364478D01*
X361199Y362695D01*
X362981Y361328D01*
X365057Y360468D01*
X367284Y360175D01*
X369512Y360468D01*
X371587Y361328D01*
X373369Y362695D01*
X374737Y364478D01*
X375597Y366553D01*
X375890Y368780D01*
Y371780D01*
X375597Y374008D01*
X374737Y376083D01*
X373369Y377865D01*
X372593Y378461D01*
Y389932D01*
X373321Y390353D01*
X375152Y392183D01*
X376446Y394425D01*
X377116Y396926D01*
Y399515D01*
X376446Y402015D01*
X375152Y404257D01*
X373321Y406088D01*
X371079Y407382D01*
X368579Y408052D01*
D02*
G37*
G36*
X240284Y380386D02*
X238057Y380093D01*
X235981Y379233D01*
X234199Y377865D01*
X232832Y376083D01*
X231972Y374008D01*
X231679Y371780D01*
Y368780D01*
X231972Y366553D01*
X232832Y364478D01*
X234199Y362695D01*
X235981Y361328D01*
X238057Y360468D01*
X240284Y360175D01*
X242512Y360468D01*
X244587Y361328D01*
X246369Y362695D01*
X247737Y364478D01*
X248597Y366553D01*
X248890Y368780D01*
Y371780D01*
X248597Y374008D01*
X247737Y376083D01*
X246369Y377865D01*
X244587Y379233D01*
X242512Y380093D01*
X240284Y380386D01*
D02*
G37*
G36*
X214884D02*
X212657Y380093D01*
X210581Y379233D01*
X208799Y377865D01*
X207432Y376083D01*
X206572Y374008D01*
X206279Y371780D01*
Y368780D01*
X206572Y366553D01*
X207432Y364478D01*
X208799Y362695D01*
X210581Y361328D01*
X212657Y360468D01*
X214884Y360175D01*
X217112Y360468D01*
X219187Y361328D01*
X220969Y362695D01*
X222337Y364478D01*
X223197Y366553D01*
X223490Y368780D01*
Y371780D01*
X223197Y374008D01*
X222337Y376083D01*
X220969Y377865D01*
X219187Y379233D01*
X217112Y380093D01*
X214884Y380386D01*
D02*
G37*
G36*
X189484D02*
X187257Y380093D01*
X185181Y379233D01*
X183399Y377865D01*
X182032Y376083D01*
X181172Y374008D01*
X180879Y371780D01*
Y368780D01*
X181172Y366553D01*
X182032Y364478D01*
X183399Y362695D01*
X185181Y361328D01*
X187257Y360468D01*
X189484Y360175D01*
X191712Y360468D01*
X193787Y361328D01*
X195569Y362695D01*
X196937Y364478D01*
X197797Y366553D01*
X198090Y368780D01*
Y371780D01*
X197797Y374008D01*
X196937Y376083D01*
X195569Y377865D01*
X193787Y379233D01*
X191712Y380093D01*
X189484Y380386D01*
D02*
G37*
G36*
X528802Y369010D02*
X520954D01*
Y359829D01*
X522044Y359973D01*
X524243Y360884D01*
X526132Y362333D01*
X527581Y364221D01*
X528492Y366420D01*
X528802Y368780D01*
Y369010D01*
D02*
G37*
G36*
X518414D02*
X510566D01*
Y368780D01*
X510877Y366420D01*
X511788Y364221D01*
X513237Y362333D01*
X515125Y360884D01*
X517324Y359973D01*
X518414Y359829D01*
Y369010D01*
D02*
G37*
G36*
X478002D02*
X470154D01*
Y359829D01*
X471244Y359973D01*
X473443Y360884D01*
X475332Y362333D01*
X476781Y364221D01*
X477692Y366420D01*
X478002Y368780D01*
Y369010D01*
D02*
G37*
G36*
X467614D02*
X459766D01*
Y368780D01*
X460077Y366420D01*
X460988Y364221D01*
X462437Y362333D01*
X464325Y360884D01*
X466524Y359973D01*
X467614Y359829D01*
Y369010D01*
D02*
G37*
G36*
X351002D02*
X343154D01*
Y359829D01*
X344244Y359973D01*
X346443Y360884D01*
X348332Y362333D01*
X349781Y364221D01*
X350692Y366420D01*
X351002Y368780D01*
Y369010D01*
D02*
G37*
G36*
X340614D02*
X332766D01*
Y368780D01*
X333077Y366420D01*
X333988Y364221D01*
X335437Y362333D01*
X337325Y360884D01*
X339524Y359973D01*
X340614Y359829D01*
Y369010D01*
D02*
G37*
G36*
X274802D02*
X266954D01*
Y359829D01*
X268044Y359973D01*
X270243Y360884D01*
X272132Y362333D01*
X273581Y364221D01*
X274492Y366420D01*
X274802Y368780D01*
Y369010D01*
D02*
G37*
G36*
X264414D02*
X256566D01*
Y368780D01*
X256877Y366420D01*
X257788Y364221D01*
X259237Y362333D01*
X261125Y360884D01*
X263324Y359973D01*
X264414Y359829D01*
Y369010D01*
D02*
G37*
G36*
X173202D02*
X165354D01*
Y359829D01*
X166444Y359973D01*
X168643Y360884D01*
X170532Y362333D01*
X171981Y364221D01*
X172892Y366420D01*
X173202Y368780D01*
Y369010D01*
D02*
G37*
G36*
X162814D02*
X154966D01*
Y368780D01*
X155277Y366420D01*
X156188Y364221D01*
X157637Y362333D01*
X159525Y360884D01*
X161724Y359973D01*
X162814Y359829D01*
Y369010D01*
D02*
G37*
G36*
X1182624Y365708D02*
X1174496D01*
X1170432Y361644D01*
Y353516D01*
X1174496Y349452D01*
X1182624D01*
X1186688Y353516D01*
Y361644D01*
X1182624Y365708D01*
D02*
G37*
G36*
X1002284D02*
X994156D01*
X990092Y361644D01*
Y353516D01*
X994156Y349452D01*
X1002284D01*
X1006348Y353516D01*
Y361644D01*
X1002284Y365708D01*
D02*
G37*
G36*
X900684D02*
X892556D01*
X888492Y361644D01*
Y353516D01*
X892556Y349452D01*
X900684D01*
X904748Y353516D01*
Y361644D01*
X900684Y365708D01*
D02*
G37*
G36*
X1446364Y380694D02*
X1444156D01*
X1442025Y380123D01*
X1440113Y379020D01*
X1438553Y377459D01*
X1437449Y375548D01*
X1436878Y373416D01*
Y371209D01*
X1437449Y369077D01*
X1438553Y367166D01*
X1440113Y365605D01*
X1442025Y364501D01*
X1444156Y363930D01*
X1446364D01*
X1448495Y364501D01*
X1450407Y365605D01*
X1451805Y367003D01*
X1471249D01*
X1471268Y366993D01*
X1471375Y366809D01*
X1470766Y365331D01*
X1469907Y365101D01*
X1467961Y363977D01*
X1466373Y362389D01*
X1465249Y360443D01*
X1464668Y358273D01*
Y356027D01*
X1465249Y353857D01*
X1466373Y351911D01*
X1467961Y350323D01*
X1469907Y349199D01*
X1472077Y348618D01*
X1474323D01*
X1476493Y349199D01*
X1478439Y350323D01*
X1480027Y351911D01*
X1481151Y353857D01*
X1481404Y354804D01*
X1482821Y355183D01*
X1489847Y348157D01*
X1489847Y348157D01*
X1491569Y347006D01*
X1493601Y346602D01*
X1493601Y346602D01*
X1714173D01*
X1714173Y346602D01*
X1716205Y347006D01*
X1717927Y348157D01*
X1723719Y353949D01*
X1725764D01*
X1727895Y354520D01*
X1729807Y355624D01*
X1731367Y357184D01*
X1732471Y359096D01*
X1733042Y361227D01*
Y363434D01*
X1732471Y365566D01*
X1731367Y367478D01*
X1729807Y369038D01*
X1727895Y370142D01*
X1725764Y370713D01*
X1723557D01*
X1721425Y370142D01*
X1719513Y369038D01*
X1717953Y367478D01*
X1716849Y365566D01*
X1716278Y363434D01*
Y361524D01*
X1711974Y357220D01*
X1495800D01*
X1490016Y363004D01*
X1489812Y364031D01*
X1488661Y365753D01*
X1488661Y365753D01*
X1478348Y376066D01*
X1476626Y377217D01*
X1474594Y377621D01*
X1474594Y377621D01*
X1451805D01*
X1450407Y379020D01*
X1448495Y380123D01*
X1446364Y380694D01*
D02*
G37*
G36*
X597154Y355331D02*
Y346150D01*
X605002D01*
Y346380D01*
X604692Y348740D01*
X603781Y350939D01*
X602332Y352828D01*
X600443Y354277D01*
X598244Y355188D01*
X597154Y355331D01*
D02*
G37*
G36*
X594614D02*
X593524Y355188D01*
X591325Y354277D01*
X589437Y352828D01*
X587988Y350939D01*
X587077Y348740D01*
X586766Y346380D01*
Y346150D01*
X594614D01*
Y355331D01*
D02*
G37*
G36*
X419354D02*
Y346150D01*
X427202D01*
Y346380D01*
X426892Y348740D01*
X425981Y350939D01*
X424532Y352828D01*
X422643Y354277D01*
X420444Y355188D01*
X419354Y355331D01*
D02*
G37*
G36*
X416814D02*
X415724Y355188D01*
X413525Y354277D01*
X411637Y352828D01*
X410188Y350939D01*
X409277Y348740D01*
X408966Y346380D01*
Y346150D01*
X416814D01*
Y355331D01*
D02*
G37*
G36*
X216154D02*
Y346150D01*
X224002D01*
Y346380D01*
X223692Y348740D01*
X222781Y350939D01*
X221332Y352828D01*
X219443Y354277D01*
X217244Y355188D01*
X216154Y355331D01*
D02*
G37*
G36*
X213614D02*
X212524Y355188D01*
X210325Y354277D01*
X208437Y352828D01*
X206988Y350939D01*
X206077Y348740D01*
X205766Y346380D01*
Y346150D01*
X213614D01*
Y355331D01*
D02*
G37*
G36*
X646239Y369762D02*
X643130D01*
X640081Y369156D01*
X637209Y367966D01*
X634624Y366239D01*
X632426Y364041D01*
X630699Y361456D01*
X629509Y358584D01*
X628902Y355535D01*
Y352426D01*
X629509Y349377D01*
X630699Y346505D01*
X632426Y343920D01*
X634624Y341722D01*
X637209Y339995D01*
X640081Y338805D01*
X643130Y338198D01*
X646239D01*
X649288Y338805D01*
X652160Y339995D01*
X654745Y341722D01*
X656943Y343920D01*
X658670Y346505D01*
X659860Y349377D01*
X660466Y352426D01*
Y355535D01*
X659860Y358584D01*
X658670Y361456D01*
X656943Y364041D01*
X654745Y366239D01*
X652160Y367966D01*
X649288Y369156D01*
X646239Y369762D01*
D02*
G37*
G36*
X66239D02*
X63130D01*
X60081Y369156D01*
X57209Y367966D01*
X54624Y366239D01*
X52426Y364041D01*
X50698Y361456D01*
X49509Y358584D01*
X48902Y355535D01*
Y352426D01*
X49509Y349377D01*
X50698Y346505D01*
X52426Y343920D01*
X54624Y341722D01*
X57209Y339995D01*
X60081Y338805D01*
X63130Y338198D01*
X66239D01*
X69288Y338805D01*
X72160Y339995D01*
X74745Y341722D01*
X76943Y343920D01*
X78670Y346505D01*
X79860Y349377D01*
X80466Y352426D01*
Y355535D01*
X79860Y358584D01*
X78670Y361456D01*
X76943Y364041D01*
X74745Y366239D01*
X72160Y367966D01*
X69288Y369156D01*
X66239Y369762D01*
D02*
G37*
G36*
X570484Y354986D02*
X568257Y354693D01*
X566181Y353833D01*
X564399Y352465D01*
X563032Y350683D01*
X562172Y348608D01*
X561879Y346380D01*
Y343380D01*
X562172Y341153D01*
X563032Y339077D01*
X564399Y337295D01*
X566181Y335928D01*
X568257Y335068D01*
X570484Y334775D01*
X572712Y335068D01*
X574787Y335928D01*
X576569Y337295D01*
X577937Y339077D01*
X578797Y341153D01*
X579090Y343380D01*
Y346380D01*
X578797Y348608D01*
X577937Y350683D01*
X576569Y352465D01*
X574787Y353833D01*
X572712Y354693D01*
X570484Y354986D01*
D02*
G37*
G36*
X545084D02*
X542857Y354693D01*
X540781Y353833D01*
X538999Y352465D01*
X537632Y350683D01*
X536772Y348608D01*
X536479Y346380D01*
Y343380D01*
X536772Y341153D01*
X537632Y339077D01*
X538999Y337295D01*
X540781Y335928D01*
X542857Y335068D01*
X545084Y334775D01*
X547312Y335068D01*
X549387Y335928D01*
X551169Y337295D01*
X552537Y339077D01*
X553397Y341153D01*
X553690Y343380D01*
Y346380D01*
X553397Y348608D01*
X552537Y350683D01*
X551169Y352465D01*
X549387Y353833D01*
X547312Y354693D01*
X545084Y354986D01*
D02*
G37*
G36*
X519684D02*
X517457Y354693D01*
X515381Y353833D01*
X513599Y352465D01*
X512232Y350683D01*
X511372Y348608D01*
X511079Y346380D01*
Y343380D01*
X511372Y341153D01*
X512232Y339077D01*
X513599Y337295D01*
X515381Y335928D01*
X517457Y335068D01*
X519684Y334775D01*
X521912Y335068D01*
X523987Y335928D01*
X525769Y337295D01*
X527137Y339077D01*
X527997Y341153D01*
X528290Y343380D01*
Y346380D01*
X527997Y348608D01*
X527137Y350683D01*
X525769Y352465D01*
X523987Y353833D01*
X521912Y354693D01*
X519684Y354986D01*
D02*
G37*
G36*
X494284D02*
X492057Y354693D01*
X489981Y353833D01*
X488199Y352465D01*
X486832Y350683D01*
X485972Y348608D01*
X485679Y346380D01*
Y343380D01*
X485972Y341153D01*
X486832Y339077D01*
X488199Y337295D01*
X489981Y335928D01*
X492057Y335068D01*
X494284Y334775D01*
X496512Y335068D01*
X498587Y335928D01*
X500369Y337295D01*
X501737Y339077D01*
X502597Y341153D01*
X502890Y343380D01*
Y346380D01*
X502597Y348608D01*
X501737Y350683D01*
X500369Y352465D01*
X498587Y353833D01*
X496512Y354693D01*
X494284Y354986D01*
D02*
G37*
G36*
X468884D02*
X466657Y354693D01*
X464581Y353833D01*
X462799Y352465D01*
X461432Y350683D01*
X460572Y348608D01*
X460279Y346380D01*
Y343380D01*
X460572Y341153D01*
X461432Y339077D01*
X462799Y337295D01*
X464581Y335928D01*
X466657Y335068D01*
X468884Y334775D01*
X471112Y335068D01*
X473187Y335928D01*
X474969Y337295D01*
X476337Y339077D01*
X477197Y341153D01*
X477490Y343380D01*
Y346380D01*
X477197Y348608D01*
X476337Y350683D01*
X474969Y352465D01*
X473187Y353833D01*
X471112Y354693D01*
X468884Y354986D01*
D02*
G37*
G36*
X443484D02*
X441257Y354693D01*
X439181Y353833D01*
X437399Y352465D01*
X436032Y350683D01*
X435172Y348608D01*
X434879Y346380D01*
Y343380D01*
X435172Y341153D01*
X436032Y339077D01*
X437399Y337295D01*
X439181Y335928D01*
X441257Y335068D01*
X443484Y334775D01*
X445712Y335068D01*
X447787Y335928D01*
X449569Y337295D01*
X450937Y339077D01*
X451797Y341153D01*
X452090Y343380D01*
Y346380D01*
X451797Y348608D01*
X450937Y350683D01*
X449569Y352465D01*
X447787Y353833D01*
X445712Y354693D01*
X443484Y354986D01*
D02*
G37*
G36*
X392684D02*
X390457Y354693D01*
X388381Y353833D01*
X386599Y352465D01*
X385232Y350683D01*
X384372Y348608D01*
X384079Y346380D01*
Y343380D01*
X384372Y341153D01*
X385232Y339077D01*
X386599Y337295D01*
X388381Y335928D01*
X390457Y335068D01*
X392684Y334775D01*
X394912Y335068D01*
X396987Y335928D01*
X398769Y337295D01*
X400137Y339077D01*
X400997Y341153D01*
X401290Y343380D01*
Y346380D01*
X400997Y348608D01*
X400137Y350683D01*
X398769Y352465D01*
X396987Y353833D01*
X394912Y354693D01*
X392684Y354986D01*
D02*
G37*
G36*
X367284D02*
X365057Y354693D01*
X362981Y353833D01*
X361199Y352465D01*
X359832Y350683D01*
X358972Y348608D01*
X358679Y346380D01*
Y343380D01*
X358972Y341153D01*
X359832Y339077D01*
X361199Y337295D01*
X362981Y335928D01*
X365057Y335068D01*
X367284Y334775D01*
X369512Y335068D01*
X371587Y335928D01*
X373369Y337295D01*
X374737Y339077D01*
X375597Y341153D01*
X375890Y343380D01*
Y346380D01*
X375597Y348608D01*
X374737Y350683D01*
X373369Y352465D01*
X371587Y353833D01*
X369512Y354693D01*
X367284Y354986D01*
D02*
G37*
G36*
X341884D02*
X339657Y354693D01*
X337581Y353833D01*
X335799Y352465D01*
X334432Y350683D01*
X333572Y348608D01*
X333279Y346380D01*
Y343380D01*
X333572Y341153D01*
X334432Y339077D01*
X335799Y337295D01*
X337581Y335928D01*
X339657Y335068D01*
X341884Y334775D01*
X344112Y335068D01*
X346187Y335928D01*
X347969Y337295D01*
X349337Y339077D01*
X350197Y341153D01*
X350490Y343380D01*
Y346380D01*
X350197Y348608D01*
X349337Y350683D01*
X347969Y352465D01*
X346187Y353833D01*
X344112Y354693D01*
X341884Y354986D01*
D02*
G37*
G36*
X291084D02*
X288857Y354693D01*
X286781Y353833D01*
X284999Y352465D01*
X283632Y350683D01*
X282772Y348608D01*
X282479Y346380D01*
Y343380D01*
X282772Y341153D01*
X283632Y339077D01*
X284999Y337295D01*
X286781Y335928D01*
X288857Y335068D01*
X291084Y334775D01*
X293312Y335068D01*
X295387Y335928D01*
X297169Y337295D01*
X298537Y339077D01*
X299397Y341153D01*
X299690Y343380D01*
Y346380D01*
X299397Y348608D01*
X298537Y350683D01*
X297169Y352465D01*
X295387Y353833D01*
X293312Y354693D01*
X291084Y354986D01*
D02*
G37*
G36*
X265684D02*
X263457Y354693D01*
X261381Y353833D01*
X259599Y352465D01*
X258232Y350683D01*
X257372Y348608D01*
X257079Y346380D01*
Y343380D01*
X257372Y341153D01*
X258232Y339077D01*
X259599Y337295D01*
X261381Y335928D01*
X263457Y335068D01*
X265684Y334775D01*
X267912Y335068D01*
X269987Y335928D01*
X271769Y337295D01*
X273137Y339077D01*
X273997Y341153D01*
X274290Y343380D01*
Y346380D01*
X273997Y348608D01*
X273137Y350683D01*
X271769Y352465D01*
X269987Y353833D01*
X267912Y354693D01*
X265684Y354986D01*
D02*
G37*
G36*
X240284D02*
X238057Y354693D01*
X235981Y353833D01*
X234199Y352465D01*
X232832Y350683D01*
X231972Y348608D01*
X231679Y346380D01*
Y343380D01*
X231972Y341153D01*
X232832Y339077D01*
X234199Y337295D01*
X235981Y335928D01*
X238057Y335068D01*
X240284Y334775D01*
X242512Y335068D01*
X244587Y335928D01*
X246369Y337295D01*
X247737Y339077D01*
X248597Y341153D01*
X248890Y343380D01*
Y346380D01*
X248597Y348608D01*
X247737Y350683D01*
X246369Y352465D01*
X244587Y353833D01*
X242512Y354693D01*
X240284Y354986D01*
D02*
G37*
G36*
X189484D02*
X187257Y354693D01*
X185181Y353833D01*
X183399Y352465D01*
X182032Y350683D01*
X181172Y348608D01*
X180879Y346380D01*
Y343380D01*
X181172Y341153D01*
X182032Y339077D01*
X183399Y337295D01*
X185181Y335928D01*
X187257Y335068D01*
X189484Y334775D01*
X191712Y335068D01*
X193787Y335928D01*
X195569Y337295D01*
X196937Y339077D01*
X197797Y341153D01*
X198090Y343380D01*
Y346380D01*
X197797Y348608D01*
X196937Y350683D01*
X195569Y352465D01*
X193787Y353833D01*
X191712Y354693D01*
X189484Y354986D01*
D02*
G37*
G36*
X1347303Y351282D02*
X1345096D01*
X1342965Y350711D01*
X1341053Y349607D01*
X1339655Y348209D01*
X1266705D01*
X1264673Y347805D01*
X1262951Y346654D01*
X1262951Y346654D01*
X1220526Y304230D01*
X1219375Y302507D01*
X1218971Y300476D01*
X1218971Y300475D01*
Y275563D01*
X1216152Y272744D01*
Y264616D01*
X1216909Y263860D01*
X1216423Y262686D01*
X1198158D01*
X1194029Y266815D01*
Y292277D01*
X1196848Y295096D01*
Y303224D01*
X1192784Y307288D01*
X1184656D01*
X1180592Y303224D01*
Y295096D01*
X1183411Y292277D01*
Y264616D01*
X1183411Y264616D01*
X1183815Y262585D01*
X1184966Y260862D01*
X1192205Y253623D01*
X1193928Y252472D01*
X1195959Y252068D01*
X1195959Y252068D01*
X1229485D01*
X1229485Y252068D01*
X1231517Y252472D01*
X1233239Y253623D01*
X1235030Y255414D01*
X1235187Y255445D01*
X1236909Y256596D01*
X1281019Y300706D01*
X1282192Y300220D01*
Y295096D01*
X1286256Y291032D01*
X1294384D01*
X1298448Y295096D01*
Y303224D01*
X1294384Y307288D01*
X1289261D01*
X1288775Y308462D01*
X1305204Y324891D01*
X1326955D01*
X1328353Y323493D01*
X1330265Y322389D01*
X1332397Y321818D01*
X1334603D01*
X1336735Y322389D01*
X1338647Y323493D01*
X1340207Y325053D01*
X1341311Y326965D01*
X1341882Y329096D01*
Y331303D01*
X1341311Y333435D01*
X1340207Y335347D01*
X1341053Y336193D01*
X1342965Y335089D01*
X1345096Y334518D01*
X1347303D01*
X1349435Y335089D01*
X1351347Y336193D01*
X1352907Y337753D01*
X1354011Y339665D01*
X1354582Y341796D01*
Y344003D01*
X1354011Y346135D01*
X1352907Y348047D01*
X1351347Y349607D01*
X1349435Y350711D01*
X1347303Y351282D01*
D02*
G37*
G36*
X605002Y343610D02*
X597154D01*
Y334430D01*
X598244Y334573D01*
X600443Y335484D01*
X602332Y336933D01*
X603781Y338821D01*
X604692Y341020D01*
X605002Y343380D01*
Y343610D01*
D02*
G37*
G36*
X594614D02*
X586766D01*
Y343380D01*
X587077Y341020D01*
X587988Y338821D01*
X589437Y336933D01*
X591325Y335484D01*
X593524Y334573D01*
X594614Y334430D01*
Y343610D01*
D02*
G37*
G36*
X427202D02*
X419354D01*
Y334430D01*
X420444Y334573D01*
X422643Y335484D01*
X424532Y336933D01*
X425981Y338821D01*
X426892Y341020D01*
X427202Y343380D01*
Y343610D01*
D02*
G37*
G36*
X416814D02*
X408966D01*
Y343380D01*
X409277Y341020D01*
X410188Y338821D01*
X411637Y336933D01*
X413525Y335484D01*
X415724Y334573D01*
X416814Y334430D01*
Y343610D01*
D02*
G37*
G36*
X224002D02*
X216154D01*
Y334430D01*
X217244Y334573D01*
X219443Y335484D01*
X221332Y336933D01*
X222781Y338821D01*
X223692Y341020D01*
X224002Y343380D01*
Y343610D01*
D02*
G37*
G36*
X213614D02*
X205766D01*
Y343380D01*
X206077Y341020D01*
X206988Y338821D01*
X208437Y336933D01*
X210325Y335484D01*
X212524Y334573D01*
X213614Y334430D01*
Y343610D01*
D02*
G37*
G36*
X1103430Y330262D02*
Y323290D01*
X1110402D01*
X1109885Y325220D01*
X1108794Y327110D01*
X1107250Y328654D01*
X1105360Y329745D01*
X1103430Y330262D01*
D02*
G37*
G36*
X1100890Y330262D02*
X1098960Y329745D01*
X1097070Y328654D01*
X1095527Y327110D01*
X1094435Y325220D01*
X1093918Y323290D01*
X1100890D01*
Y330262D01*
D02*
G37*
G36*
X928370Y327722D02*
Y320750D01*
X935342D01*
X934825Y322680D01*
X933734Y324570D01*
X932190Y326114D01*
X930300Y327205D01*
X928370Y327722D01*
D02*
G37*
G36*
X925830Y327722D02*
X923900Y327205D01*
X922010Y326114D01*
X920467Y324570D01*
X919375Y322680D01*
X918858Y320750D01*
X925830D01*
Y327722D01*
D02*
G37*
G36*
X2007871Y339852D02*
X2005329D01*
X2002874Y339194D01*
X2000674Y337924D01*
X1998876Y336127D01*
X1997606Y333926D01*
X1996948Y331471D01*
Y328929D01*
X1997606Y326474D01*
X1998876Y324273D01*
X2000674Y322477D01*
X2002874Y321206D01*
X2005329Y320548D01*
X2007871D01*
X2010325Y321206D01*
X2012527Y322477D01*
X2014323Y324273D01*
X2015594Y326474D01*
X2016252Y328929D01*
Y331471D01*
X2015594Y333926D01*
X2014323Y336127D01*
X2012527Y337924D01*
X2010325Y339194D01*
X2007871Y339852D01*
D02*
G37*
G36*
X1100890Y320750D02*
X1093918D01*
X1094435Y318820D01*
X1095527Y316930D01*
X1097070Y315387D01*
X1098960Y314295D01*
X1100890Y313778D01*
Y320750D01*
D02*
G37*
G36*
X1110402D02*
X1103430D01*
Y313778D01*
X1105360Y314295D01*
X1107250Y315387D01*
X1108794Y316930D01*
X1109885Y318820D01*
X1110402Y320750D01*
D02*
G37*
G36*
X935342Y318210D02*
X928370D01*
Y311238D01*
X930300Y311755D01*
X932190Y312847D01*
X933734Y314390D01*
X934825Y316280D01*
X935342Y318210D01*
D02*
G37*
G36*
X925830D02*
X918858D01*
X919375Y316280D01*
X920467Y314390D01*
X922010Y312847D01*
X923900Y311755D01*
X925830Y311238D01*
Y318210D01*
D02*
G37*
G36*
X1533144Y325628D02*
X1525016D01*
X1520952Y321564D01*
Y313436D01*
X1525016Y309372D01*
X1533144D01*
X1537208Y313436D01*
Y321564D01*
X1533144Y325628D01*
D02*
G37*
G36*
X1431544D02*
X1423416D01*
X1419352Y321564D01*
Y313436D01*
X1423416Y309372D01*
X1431544D01*
X1435608Y313436D01*
Y321564D01*
X1431544Y325628D01*
D02*
G37*
G36*
X842264Y322528D02*
X834136D01*
X830072Y318464D01*
Y310336D01*
X834136Y306272D01*
X842264D01*
X846328Y310336D01*
Y318464D01*
X842264Y322528D01*
D02*
G37*
G36*
X1362710Y307402D02*
Y300430D01*
X1369682D01*
X1369165Y302360D01*
X1368074Y304250D01*
X1366530Y305794D01*
X1364640Y306885D01*
X1362710Y307402D01*
D02*
G37*
G36*
X1360170D02*
X1358240Y306885D01*
X1356350Y305794D01*
X1354807Y304250D01*
X1353715Y302360D01*
X1353198Y300430D01*
X1360170D01*
Y307402D01*
D02*
G37*
G36*
X2007871Y314452D02*
X2005329D01*
X2002874Y313794D01*
X2000674Y312523D01*
X1998876Y310727D01*
X1997606Y308526D01*
X1996948Y306071D01*
Y303529D01*
X1997606Y301075D01*
X1998876Y298874D01*
X2000674Y297076D01*
X2002874Y295806D01*
X2005329Y295148D01*
X2007871D01*
X2010325Y295806D01*
X2012527Y297076D01*
X2014323Y298874D01*
X2015594Y301075D01*
X2016252Y303529D01*
Y306071D01*
X2015594Y308526D01*
X2014323Y310727D01*
X2012527Y312523D01*
X2010325Y313794D01*
X2007871Y314452D01*
D02*
G37*
G36*
X1088644Y286968D02*
X1080516D01*
X1076452Y282904D01*
Y274776D01*
X1080516Y270712D01*
X1088644D01*
X1092708Y274776D01*
Y282904D01*
X1088644Y286968D01*
D02*
G37*
G36*
X987044D02*
X978916D01*
X974852Y282904D01*
Y274776D01*
X978916Y270712D01*
X987044D01*
X991108Y274776D01*
Y282904D01*
X987044Y286968D01*
D02*
G37*
G36*
X2007871Y289052D02*
X2005329D01*
X2002874Y288394D01*
X2000674Y287124D01*
X1998876Y285326D01*
X1997606Y283125D01*
X1996948Y280671D01*
Y278129D01*
X1997606Y275674D01*
X1998876Y273473D01*
X2000674Y271677D01*
X2002874Y270406D01*
X2005329Y269748D01*
X2007871D01*
X2010325Y270406D01*
X2012527Y271677D01*
X2014323Y273473D01*
X2015594Y275674D01*
X2016252Y278129D01*
Y280671D01*
X2015594Y283125D01*
X2014323Y285326D01*
X2012527Y287124D01*
X2010325Y288394D01*
X2007871Y289052D01*
D02*
G37*
G36*
X943864Y284428D02*
X935736D01*
X931672Y280364D01*
Y272236D01*
X935736Y268172D01*
X943864D01*
X947928Y272236D01*
Y280364D01*
X943864Y284428D01*
D02*
G37*
G36*
X842264D02*
X834136D01*
X830072Y280364D01*
Y272236D01*
X834136Y268172D01*
X842264D01*
X846328Y272236D01*
Y280364D01*
X842264Y284428D01*
D02*
G37*
G36*
X1533144Y282448D02*
X1525016D01*
X1520952Y278384D01*
Y270256D01*
X1525016Y266192D01*
X1533144D01*
X1537208Y270256D01*
Y278384D01*
X1533144Y282448D01*
D02*
G37*
G36*
X1369682Y297890D02*
X1361440D01*
X1353198D01*
X1353715Y295960D01*
X1354807Y294070D01*
X1356350Y292527D01*
X1357788Y291696D01*
X1357448Y290426D01*
X1342317D01*
X1340286Y290022D01*
X1338563Y288871D01*
X1338563Y288871D01*
X1326500Y276808D01*
X1321816D01*
X1317752Y272744D01*
Y264616D01*
X1321816Y260552D01*
X1329944D01*
X1334008Y264616D01*
Y269300D01*
X1344516Y279808D01*
X1354419D01*
X1354982Y278538D01*
X1354189Y277164D01*
X1353658Y275185D01*
Y273136D01*
X1354189Y271157D01*
X1355213Y269382D01*
X1356662Y267933D01*
X1358436Y266909D01*
X1360416Y266378D01*
X1362465D01*
X1364444Y266909D01*
X1366219Y267933D01*
X1367667Y269382D01*
X1368692Y271157D01*
X1369103Y272689D01*
X1370399Y273189D01*
X1373022Y270566D01*
X1373022Y270566D01*
X1374744Y269415D01*
X1376776Y269011D01*
X1376776Y269011D01*
X1420597D01*
X1423416Y266192D01*
X1431544D01*
X1434363Y269011D01*
X1434508D01*
X1436540Y269415D01*
X1438262Y270566D01*
X1439413Y272288D01*
X1439817Y274320D01*
X1439413Y276352D01*
X1438262Y278074D01*
X1436540Y279225D01*
X1434508Y279629D01*
X1434363D01*
X1431544Y282448D01*
X1423416D01*
X1420597Y279629D01*
X1378975D01*
X1369733Y288871D01*
X1368010Y290022D01*
X1365979Y290426D01*
X1365979Y290426D01*
X1365432D01*
X1365092Y291696D01*
X1366530Y292527D01*
X1368074Y294070D01*
X1369165Y295960D01*
X1369682Y297890D01*
D02*
G37*
G36*
X647788Y282142D02*
X645581D01*
X643449Y281571D01*
X641538Y280467D01*
X639977Y278907D01*
X638873Y276996D01*
X638302Y274864D01*
Y272657D01*
X638873Y270525D01*
X639977Y268614D01*
X641538Y267053D01*
X643449Y265949D01*
X645581Y265378D01*
X647558D01*
X656774Y256162D01*
X656774Y256162D01*
X658496Y255012D01*
X658859Y254939D01*
X658734Y253669D01*
X648909D01*
X648625Y253613D01*
X642301Y259937D01*
Y261914D01*
X641730Y264046D01*
X640626Y265957D01*
X639065Y267518D01*
X637154Y268621D01*
X635022Y269193D01*
X632815D01*
X630683Y268621D01*
X628772Y267518D01*
X627211Y265957D01*
X626108Y264046D01*
X625537Y261914D01*
Y259707D01*
X626108Y257575D01*
X627211Y255664D01*
X628772Y254103D01*
X630683Y253000D01*
X632815Y252429D01*
X634793D01*
X642773Y244449D01*
X644495Y243298D01*
X646527Y242894D01*
X648114Y243209D01*
X648909Y243051D01*
X666092D01*
X666178Y242902D01*
X667739Y241342D01*
X669650Y240238D01*
X671782Y239667D01*
X673989D01*
X676121Y240238D01*
X678032Y241342D01*
X679593Y242902D01*
X680696Y244814D01*
X681267Y246945D01*
Y249152D01*
X680969Y250264D01*
X681944Y251534D01*
X682718D01*
X684850Y252106D01*
X686761Y253209D01*
X688322Y254770D01*
X689425Y256681D01*
X689996Y258813D01*
Y261020D01*
X689425Y263152D01*
X688322Y265063D01*
X686761Y266624D01*
X684850Y267727D01*
X682718Y268298D01*
X680511D01*
X678379Y267727D01*
X676468Y266624D01*
X675070Y265225D01*
X662727D01*
X655066Y272886D01*
Y274864D01*
X654495Y276996D01*
X653391Y278907D01*
X651831Y280467D01*
X649920Y281571D01*
X647788Y282142D01*
D02*
G37*
G36*
X2007871Y263652D02*
X2005329D01*
X2002874Y262994D01*
X2000674Y261723D01*
X1998876Y259926D01*
X1997606Y257726D01*
X1996948Y255271D01*
Y252729D01*
X1997606Y250275D01*
X1998876Y248074D01*
X2000674Y246276D01*
X2002874Y245006D01*
X2005329Y244348D01*
X2007871D01*
X2010325Y245006D01*
X2012527Y246276D01*
X2014323Y248074D01*
X2015594Y250275D01*
X2016252Y252729D01*
Y255271D01*
X2015594Y257726D01*
X2014323Y259926D01*
X2012527Y261723D01*
X2010325Y262994D01*
X2007871Y263652D01*
D02*
G37*
G36*
X1157022Y237840D02*
X1156970D01*
Y229070D01*
X1165740D01*
Y229122D01*
X1165056Y231675D01*
X1163734Y233965D01*
X1161865Y235834D01*
X1159575Y237156D01*
X1157022Y237840D01*
D02*
G37*
G36*
X1154430D02*
X1154378D01*
X1151825Y237156D01*
X1149535Y235834D01*
X1147666Y233965D01*
X1146344Y231675D01*
X1145660Y229122D01*
Y229070D01*
X1154430D01*
Y237840D01*
D02*
G37*
G36*
X2007871Y238252D02*
X2005329D01*
X2002874Y237594D01*
X2000674Y236324D01*
X1998876Y234527D01*
X1997606Y232325D01*
X1996948Y229871D01*
Y227329D01*
X1997606Y224874D01*
X1998876Y222673D01*
X2000674Y220877D01*
X2002874Y219606D01*
X2005329Y218948D01*
X2007871D01*
X2010325Y219606D01*
X2012527Y220877D01*
X2014323Y222673D01*
X2015594Y224874D01*
X2016252Y227329D01*
Y229871D01*
X2015594Y232325D01*
X2014323Y234527D01*
X2012527Y236324D01*
X2010325Y237594D01*
X2007871Y238252D01*
D02*
G37*
G36*
X1423655Y237332D02*
X1421145D01*
X1418721Y236682D01*
X1416547Y235427D01*
X1414772Y233653D01*
X1413518Y231479D01*
X1412868Y229055D01*
Y226545D01*
X1413518Y224121D01*
X1414772Y221947D01*
X1416547Y220173D01*
X1418721Y218918D01*
X1421145Y218268D01*
X1423655D01*
X1426079Y218918D01*
X1428253Y220173D01*
X1430027Y221947D01*
X1431282Y224121D01*
X1431932Y226545D01*
Y229055D01*
X1431282Y231479D01*
X1430027Y233653D01*
X1428253Y235427D01*
X1426079Y236682D01*
X1423655Y237332D01*
D02*
G37*
G36*
X1347455D02*
X1344945D01*
X1342521Y236682D01*
X1340347Y235427D01*
X1338573Y233653D01*
X1337318Y231479D01*
X1336668Y229055D01*
Y226545D01*
X1337318Y224121D01*
X1338573Y221947D01*
X1340347Y220173D01*
X1342521Y218918D01*
X1344945Y218268D01*
X1347455D01*
X1349879Y218918D01*
X1352053Y220173D01*
X1353828Y221947D01*
X1355082Y224121D01*
X1355732Y226545D01*
Y229055D01*
X1355082Y231479D01*
X1353828Y233653D01*
X1352053Y235427D01*
X1349879Y236682D01*
X1347455Y237332D01*
D02*
G37*
G36*
X1233155D02*
X1230645D01*
X1228221Y236682D01*
X1226047Y235427D01*
X1224273Y233653D01*
X1223018Y231479D01*
X1222368Y229055D01*
Y226545D01*
X1223018Y224121D01*
X1224273Y221947D01*
X1226047Y220173D01*
X1228221Y218918D01*
X1230645Y218268D01*
X1233155D01*
X1235579Y218918D01*
X1237753Y220173D01*
X1239528Y221947D01*
X1240782Y224121D01*
X1241432Y226545D01*
Y229055D01*
X1240782Y231479D01*
X1239528Y233653D01*
X1237753Y235427D01*
X1235579Y236682D01*
X1233155Y237332D01*
D02*
G37*
G36*
X883505Y237032D02*
X880995D01*
X878571Y236382D01*
X876397Y235128D01*
X874622Y233353D01*
X873368Y231179D01*
X872718Y228755D01*
Y226245D01*
X873368Y223821D01*
X874622Y221647D01*
X876397Y219872D01*
X878571Y218618D01*
X880995Y217968D01*
X883505D01*
X885929Y218618D01*
X888103Y219872D01*
X889877Y221647D01*
X891132Y223821D01*
X891782Y226245D01*
Y228755D01*
X891132Y231179D01*
X889877Y233353D01*
X888103Y235128D01*
X885929Y236382D01*
X883505Y237032D01*
D02*
G37*
G36*
X1165740Y226530D02*
X1156970D01*
Y217760D01*
X1157022D01*
X1159575Y218444D01*
X1161865Y219766D01*
X1163734Y221635D01*
X1165056Y223925D01*
X1165740Y226478D01*
Y226530D01*
D02*
G37*
G36*
X1154430D02*
X1145660D01*
Y226478D01*
X1146344Y223925D01*
X1147666Y221635D01*
X1149535Y219766D01*
X1151825Y218444D01*
X1154378Y217760D01*
X1154430D01*
Y226530D01*
D02*
G37*
G36*
X1030224Y317448D02*
X1022096D01*
X1018032Y313384D01*
Y305256D01*
X1022096Y301192D01*
X1026780D01*
X1036091Y291881D01*
Y237175D01*
X1035905Y237032D01*
X1033395D01*
X1030971Y236382D01*
X1028797Y235128D01*
X1027022Y233353D01*
X1025768Y231179D01*
X1025118Y228755D01*
Y226245D01*
X1025768Y223821D01*
X1027022Y221647D01*
X1028797Y219872D01*
X1030971Y218618D01*
X1033395Y217968D01*
X1033880D01*
X1033955Y217589D01*
X1035106Y215866D01*
X1036829Y214715D01*
X1038860Y214311D01*
X1040892Y214715D01*
X1042614Y215866D01*
X1044269Y217521D01*
X1044269Y217521D01*
X1045420Y219244D01*
X1045824Y221275D01*
X1045824Y221276D01*
Y224914D01*
X1046305Y225633D01*
X1046709Y227665D01*
X1046709Y227665D01*
Y294080D01*
X1046709Y294081D01*
X1046305Y296112D01*
X1045154Y297835D01*
X1034288Y308700D01*
Y313384D01*
X1030224Y317448D01*
D02*
G37*
G36*
X2007871Y212852D02*
X2005329D01*
X2002874Y212194D01*
X2000674Y210924D01*
X1998876Y209126D01*
X1997606Y206926D01*
X1996948Y204471D01*
Y201929D01*
X1997606Y199475D01*
X1998876Y197274D01*
X2000674Y195476D01*
X2002874Y194206D01*
X2005329Y193548D01*
X2007871D01*
X2010325Y194206D01*
X2012527Y195476D01*
X2014323Y197274D01*
X2015594Y199475D01*
X2016252Y201929D01*
Y204471D01*
X2015594Y206926D01*
X2014323Y209126D01*
X2012527Y210924D01*
X2010325Y212194D01*
X2007871Y212852D01*
D02*
G37*
G36*
X604884Y188162D02*
X602677D01*
X600545Y187591D01*
X598634Y186488D01*
X597236Y185089D01*
X503369D01*
X501971Y186488D01*
X500060Y187591D01*
X497928Y188162D01*
X495721D01*
X493589Y187591D01*
X491678Y186488D01*
X490117Y184927D01*
X489013Y183016D01*
X488442Y180884D01*
Y178677D01*
X489013Y176545D01*
X490117Y174634D01*
X491678Y173073D01*
X493589Y171970D01*
X495721Y171398D01*
X497928D01*
X500060Y171970D01*
X501971Y173073D01*
X503369Y174471D01*
X506978D01*
X507504Y173201D01*
X506530Y172227D01*
X505426Y170316D01*
X504855Y168184D01*
Y165977D01*
X505426Y163845D01*
X506530Y161934D01*
X508090Y160373D01*
X510001Y159270D01*
X512133Y158698D01*
X514111D01*
X517103Y155706D01*
X517834Y155218D01*
X517606Y153842D01*
X515889Y153382D01*
X513647Y152088D01*
X511817Y150257D01*
X510522Y148015D01*
X509852Y145515D01*
Y142926D01*
X510522Y140425D01*
X511817Y138183D01*
X513647Y136353D01*
X515889Y135058D01*
X518390Y134388D01*
X520979D01*
X523479Y135058D01*
X525721Y136353D01*
X527552Y138183D01*
X528846Y140425D01*
X529516Y142926D01*
Y145515D01*
X528846Y148015D01*
X527552Y150257D01*
X525721Y152088D01*
X524347Y152881D01*
X524687Y154151D01*
X540081D01*
X540422Y152881D01*
X539047Y152088D01*
X537217Y150257D01*
X535922Y148015D01*
X535252Y145515D01*
Y142926D01*
X535922Y140425D01*
X537217Y138183D01*
X539047Y136353D01*
X541289Y135058D01*
X543790Y134388D01*
X546379D01*
X548879Y135058D01*
X551121Y136353D01*
X552952Y138183D01*
X554246Y140425D01*
X554916Y142926D01*
Y145515D01*
X554246Y148015D01*
X552952Y150257D01*
X551121Y152088D01*
X549747Y152881D01*
X550087Y154151D01*
X594419D01*
X595818Y152753D01*
X597729Y151650D01*
X599861Y151078D01*
X602068D01*
X604200Y151650D01*
X606111Y152753D01*
X607672Y154314D01*
X608775Y156225D01*
X609346Y158357D01*
Y160564D01*
X608775Y162696D01*
X607672Y164607D01*
X606111Y166168D01*
X604200Y167271D01*
X602068Y167842D01*
X599861D01*
X597729Y167271D01*
X595818Y166168D01*
X594419Y164769D01*
X523056D01*
X521619Y166206D01*
Y168184D01*
X521048Y170316D01*
X519944Y172227D01*
X518970Y173201D01*
X519496Y174471D01*
X597236D01*
X598634Y173073D01*
X600545Y171970D01*
X602677Y171398D01*
X604884D01*
X607016Y171970D01*
X608927Y173073D01*
X610488Y174634D01*
X611591Y176545D01*
X612163Y178677D01*
Y180884D01*
X611591Y183016D01*
X610488Y184927D01*
X608927Y186488D01*
X607016Y187591D01*
X604884Y188162D01*
D02*
G37*
G36*
X1464250Y187963D02*
X1461770D01*
Y179070D01*
X1470663D01*
Y181550D01*
X1470175Y184004D01*
X1468785Y186085D01*
X1466704Y187475D01*
X1464250Y187963D01*
D02*
G37*
G36*
X1459230D02*
X1456750D01*
X1454296Y187475D01*
X1452215Y186085D01*
X1450825Y184004D01*
X1450337Y181550D01*
Y179070D01*
X1459230D01*
Y187963D01*
D02*
G37*
G36*
X1385622Y187840D02*
X1385570D01*
Y179070D01*
X1394340D01*
Y179122D01*
X1393656Y181675D01*
X1392334Y183965D01*
X1390465Y185834D01*
X1388175Y187156D01*
X1385622Y187840D01*
D02*
G37*
G36*
X1383030D02*
X1382978D01*
X1380425Y187156D01*
X1378135Y185834D01*
X1376266Y183965D01*
X1374944Y181675D01*
X1374260Y179122D01*
Y179070D01*
X1383030D01*
Y187840D01*
D02*
G37*
G36*
X997872Y187540D02*
X997820D01*
Y178770D01*
X1006590D01*
Y178822D01*
X1005906Y181375D01*
X1004584Y183665D01*
X1002715Y185534D01*
X1000425Y186856D01*
X997872Y187540D01*
D02*
G37*
G36*
X995280D02*
X995228D01*
X992675Y186856D01*
X990385Y185534D01*
X988516Y183665D01*
X987194Y181375D01*
X986510Y178822D01*
Y178770D01*
X995280D01*
Y187540D01*
D02*
G37*
G36*
X845472D02*
X845420D01*
Y178770D01*
X854190D01*
Y178822D01*
X853506Y181375D01*
X852184Y183665D01*
X850315Y185534D01*
X848025Y186856D01*
X845472Y187540D01*
D02*
G37*
G36*
X842880D02*
X842828D01*
X840275Y186856D01*
X837985Y185534D01*
X836116Y183665D01*
X834794Y181375D01*
X834110Y178822D01*
Y178770D01*
X842880D01*
Y187540D01*
D02*
G37*
G36*
X1195055Y187332D02*
X1192545D01*
X1190121Y186682D01*
X1187947Y185427D01*
X1186172Y183653D01*
X1184918Y181479D01*
X1184268Y179055D01*
Y176545D01*
X1184918Y174121D01*
X1186172Y171947D01*
X1187947Y170173D01*
X1190121Y168918D01*
X1192545Y168268D01*
X1195055D01*
X1197479Y168918D01*
X1199653Y170173D01*
X1201428Y171947D01*
X1202682Y174121D01*
X1203332Y176545D01*
Y179055D01*
X1202682Y181479D01*
X1201428Y183653D01*
X1199653Y185427D01*
X1197479Y186682D01*
X1195055Y187332D01*
D02*
G37*
G36*
X1273750Y187445D02*
X1266250D01*
X1263994Y186996D01*
X1262081Y185719D01*
X1260804Y183806D01*
X1260355Y181550D01*
Y174050D01*
X1260804Y171794D01*
X1262081Y169881D01*
X1263994Y168603D01*
X1266250Y168155D01*
X1273750D01*
X1276006Y168603D01*
X1277919Y169881D01*
X1279196Y171794D01*
X1279645Y174050D01*
Y181550D01*
X1279196Y183806D01*
X1277919Y185719D01*
X1276006Y186996D01*
X1273750Y187445D01*
D02*
G37*
G36*
X2007871Y187452D02*
X2005329D01*
X2002874Y186794D01*
X2000674Y185523D01*
X1998876Y183727D01*
X1997606Y181525D01*
X1996948Y179071D01*
Y176529D01*
X1997606Y174074D01*
X1998876Y171873D01*
X2000674Y170077D01*
X2002874Y168806D01*
X2005329Y168148D01*
X2007871D01*
X2010325Y168806D01*
X2012527Y170077D01*
X2014323Y171873D01*
X2015594Y174074D01*
X2016252Y176529D01*
Y179071D01*
X2015594Y181525D01*
X2014323Y183727D01*
X2012527Y185523D01*
X2010325Y186794D01*
X2007871Y187452D01*
D02*
G37*
G36*
X1081024Y365708D02*
X1072896D01*
X1068832Y361644D01*
Y353516D01*
X1071751Y350597D01*
Y327617D01*
X1070933Y326799D01*
X1069909Y325024D01*
X1069378Y323045D01*
Y321746D01*
X1052886Y305254D01*
X1051735Y303532D01*
X1051331Y301500D01*
X1051331Y301500D01*
Y189940D01*
X1051331Y189940D01*
X1051735Y187909D01*
X1052886Y186186D01*
X1061356Y177716D01*
X1061356Y177716D01*
X1063079Y176565D01*
X1063105Y176560D01*
Y173750D01*
X1063553Y171494D01*
X1064831Y169581D01*
X1066744Y168304D01*
X1069000Y167855D01*
X1076500D01*
X1078756Y168304D01*
X1080669Y169581D01*
X1081946Y171494D01*
X1082395Y173750D01*
Y181250D01*
X1081946Y183506D01*
X1080669Y185419D01*
X1078756Y186696D01*
X1076500Y187145D01*
X1069000D01*
X1067284Y186804D01*
X1061949Y192139D01*
Y299301D01*
X1076886Y314238D01*
X1078185D01*
X1080164Y314769D01*
X1081938Y315793D01*
X1083387Y317242D01*
X1084412Y319016D01*
X1084942Y320996D01*
Y323045D01*
X1084412Y325024D01*
X1083387Y326799D01*
X1082369Y327817D01*
Y350797D01*
X1085088Y353516D01*
Y361644D01*
X1081024Y365708D01*
D02*
G37*
G36*
X903125Y327262D02*
X901076D01*
X899097Y326732D01*
X897322Y325707D01*
X895873Y324258D01*
X894849Y322484D01*
X894318Y320505D01*
Y318456D01*
X894849Y316476D01*
X895873Y314702D01*
X896791Y313784D01*
Y247933D01*
X896791Y247933D01*
X897195Y245901D01*
X898346Y244179D01*
X915441Y227084D01*
Y186915D01*
X914344Y186696D01*
X912431Y185419D01*
X911153Y183506D01*
X910705Y181250D01*
Y173750D01*
X911153Y171494D01*
X912431Y169581D01*
X914344Y168304D01*
X916600Y167855D01*
X924100D01*
X926356Y168304D01*
X928269Y169581D01*
X929547Y171494D01*
X929995Y173750D01*
Y181250D01*
X929547Y183506D01*
X928269Y185419D01*
X926356Y186696D01*
X926059Y186756D01*
Y229283D01*
X926059Y229283D01*
X925655Y231315D01*
X924504Y233037D01*
X907409Y250132D01*
Y313784D01*
X908327Y314702D01*
X909352Y316476D01*
X909882Y318456D01*
Y320505D01*
X909352Y322484D01*
X908327Y324258D01*
X906879Y325707D01*
X905104Y326732D01*
X903125Y327262D01*
D02*
G37*
G36*
X1394340Y176530D02*
X1385570D01*
Y167760D01*
X1385622D01*
X1388175Y168444D01*
X1390465Y169766D01*
X1392334Y171635D01*
X1393656Y173925D01*
X1394340Y176478D01*
Y176530D01*
D02*
G37*
G36*
X1383030D02*
X1374260D01*
Y176478D01*
X1374944Y173925D01*
X1376266Y171635D01*
X1378135Y169766D01*
X1380425Y168444D01*
X1382978Y167760D01*
X1383030D01*
Y176530D01*
D02*
G37*
G36*
X1470663D02*
X1461770D01*
Y167637D01*
X1464250D01*
X1466704Y168125D01*
X1468785Y169515D01*
X1470175Y171596D01*
X1470663Y174050D01*
Y176530D01*
D02*
G37*
G36*
X1459230D02*
X1450337D01*
Y174050D01*
X1450825Y171596D01*
X1452215Y169515D01*
X1454296Y168125D01*
X1456750Y167637D01*
X1459230D01*
Y176530D01*
D02*
G37*
G36*
X1006590Y176230D02*
X997820D01*
Y167460D01*
X997872D01*
X1000425Y168144D01*
X1002715Y169466D01*
X1004584Y171335D01*
X1005906Y173625D01*
X1006590Y176178D01*
Y176230D01*
D02*
G37*
G36*
X995280D02*
X986510D01*
Y176178D01*
X987194Y173625D01*
X988516Y171335D01*
X990385Y169466D01*
X992675Y168144D01*
X995228Y167460D01*
X995280D01*
Y176230D01*
D02*
G37*
G36*
X854190D02*
X845420D01*
Y167460D01*
X845472D01*
X848025Y168144D01*
X850315Y169466D01*
X852184Y171335D01*
X853506Y173625D01*
X854190Y176178D01*
Y176230D01*
D02*
G37*
G36*
X842880D02*
X834110D01*
Y176178D01*
X834794Y173625D01*
X836116Y171335D01*
X837985Y169466D01*
X840275Y168144D01*
X842828Y167460D01*
X842880D01*
Y176230D01*
D02*
G37*
G36*
X2016760Y162560D02*
X2007870D01*
Y153670D01*
X2016760D01*
Y162560D01*
D02*
G37*
G36*
X2005330D02*
X1996440D01*
Y153670D01*
X2005330D01*
Y162560D01*
D02*
G37*
G36*
X419445Y154560D02*
X419354D01*
Y145490D01*
X428424D01*
Y145582D01*
X427720Y148211D01*
X426358Y150569D01*
X424433Y152494D01*
X422075Y153856D01*
X419445Y154560D01*
D02*
G37*
G36*
X416814D02*
X416723D01*
X414093Y153856D01*
X411735Y152494D01*
X409810Y150569D01*
X408449Y148211D01*
X407744Y145582D01*
Y145490D01*
X416814D01*
Y154560D01*
D02*
G37*
G36*
X2016760Y151130D02*
X2007870D01*
Y142240D01*
X2016760D01*
Y151130D01*
D02*
G37*
G36*
X2005330D02*
X1996440D01*
Y142240D01*
X2005330D01*
Y151130D01*
D02*
G37*
G36*
X495579Y154052D02*
X492990D01*
X490489Y153382D01*
X488247Y152088D01*
X486417Y150257D01*
X485122Y148015D01*
X484452Y145515D01*
Y142926D01*
X485122Y140425D01*
X486417Y138183D01*
X488247Y136353D01*
X490489Y135058D01*
X492990Y134388D01*
X495579D01*
X498079Y135058D01*
X500321Y136353D01*
X502152Y138183D01*
X503446Y140425D01*
X504116Y142926D01*
Y145515D01*
X503446Y148015D01*
X502152Y150257D01*
X500321Y152088D01*
X498079Y153382D01*
X495579Y154052D01*
D02*
G37*
G36*
X470179D02*
X467590D01*
X465089Y153382D01*
X462847Y152088D01*
X461017Y150257D01*
X459722Y148015D01*
X459052Y145515D01*
Y142926D01*
X459722Y140425D01*
X461017Y138183D01*
X462847Y136353D01*
X465089Y135058D01*
X467590Y134388D01*
X470179D01*
X472679Y135058D01*
X474921Y136353D01*
X476752Y138183D01*
X478046Y140425D01*
X478716Y142926D01*
Y145515D01*
X478046Y148015D01*
X476752Y150257D01*
X474921Y152088D01*
X472679Y153382D01*
X470179Y154052D01*
D02*
G37*
G36*
X444779D02*
X442190D01*
X439689Y153382D01*
X437447Y152088D01*
X435617Y150257D01*
X434322Y148015D01*
X433652Y145515D01*
Y142926D01*
X434322Y140425D01*
X435617Y138183D01*
X437447Y136353D01*
X439689Y135058D01*
X442190Y134388D01*
X444779D01*
X447279Y135058D01*
X449521Y136353D01*
X451352Y138183D01*
X452646Y140425D01*
X453316Y142926D01*
Y145515D01*
X452646Y148015D01*
X451352Y150257D01*
X449521Y152088D01*
X447279Y153382D01*
X444779Y154052D01*
D02*
G37*
G36*
X335804Y292608D02*
X333597D01*
X331465Y292037D01*
X329553Y290933D01*
X327993Y289373D01*
X326889Y287461D01*
X326318Y285329D01*
Y283123D01*
X326889Y280991D01*
X327993Y279079D01*
X329553Y277519D01*
X331074Y276641D01*
Y163938D01*
X320431Y153295D01*
X320279Y153382D01*
X317779Y154052D01*
X315190D01*
X312689Y153382D01*
X310447Y152088D01*
X308617Y150257D01*
X307322Y148015D01*
X306652Y145515D01*
Y142926D01*
X307322Y140425D01*
X308617Y138183D01*
X310447Y136353D01*
X312689Y135058D01*
X315190Y134388D01*
X317779D01*
X320279Y135058D01*
X322521Y136353D01*
X324352Y138183D01*
X325646Y140425D01*
X326316Y142926D01*
Y145515D01*
X325646Y148015D01*
X325559Y148167D01*
X336989Y159597D01*
X338074Y159265D01*
X338259Y159126D01*
Y153428D01*
X338089Y153382D01*
X335847Y152088D01*
X334017Y150257D01*
X332722Y148015D01*
X332052Y145515D01*
Y142926D01*
X332722Y140425D01*
X334017Y138183D01*
X335847Y136353D01*
X338089Y135058D01*
X340590Y134388D01*
X343179D01*
X345679Y135058D01*
X347921Y136353D01*
X349752Y138183D01*
X351046Y140425D01*
X351716Y142926D01*
Y145515D01*
X351046Y148015D01*
X349752Y150257D01*
X347921Y152088D01*
X345679Y153382D01*
X345510Y153428D01*
Y268500D01*
X352546Y275537D01*
X354243Y275082D01*
X356450D01*
X358581Y275653D01*
X360493Y276757D01*
X362053Y278317D01*
X363157Y280229D01*
X363325Y280855D01*
X364640D01*
X364807Y280229D01*
X365911Y278317D01*
X367471Y276757D01*
X368992Y275879D01*
Y217480D01*
X364720Y213208D01*
X363935Y212032D01*
X363659Y210644D01*
X363659Y210644D01*
Y153428D01*
X363489Y153382D01*
X361247Y152088D01*
X359417Y150257D01*
X358122Y148015D01*
X357452Y145515D01*
Y142926D01*
X358122Y140425D01*
X359417Y138183D01*
X361247Y136353D01*
X363489Y135058D01*
X365990Y134388D01*
X368579D01*
X371079Y135058D01*
X373321Y136353D01*
X375152Y138183D01*
X376446Y140425D01*
X377116Y142926D01*
Y145515D01*
X376446Y148015D01*
X375152Y150257D01*
X373321Y152088D01*
X371079Y153382D01*
X370910Y153428D01*
Y209142D01*
X375182Y213414D01*
X375182Y213414D01*
X375968Y214590D01*
X376244Y215978D01*
X376244Y215978D01*
Y275879D01*
X377765Y276757D01*
X379231Y278223D01*
X379669Y278358D01*
X380299D01*
X380737Y278223D01*
X382203Y276757D01*
X383724Y275879D01*
Y215978D01*
X383724Y215978D01*
X384000Y214591D01*
X384786Y213414D01*
X389059Y209142D01*
Y153428D01*
X388889Y153382D01*
X386647Y152088D01*
X384817Y150257D01*
X383522Y148015D01*
X382852Y145515D01*
Y142926D01*
X383522Y140425D01*
X384817Y138183D01*
X386647Y136353D01*
X388889Y135058D01*
X391390Y134388D01*
X393979D01*
X396479Y135058D01*
X398721Y136353D01*
X400552Y138183D01*
X401846Y140425D01*
X402516Y142926D01*
Y145515D01*
X401846Y148015D01*
X400552Y150257D01*
X398721Y152088D01*
X396479Y153382D01*
X396310Y153428D01*
Y210644D01*
X396310Y210644D01*
X396034Y212031D01*
X395248Y213208D01*
X390976Y217480D01*
Y275879D01*
X392497Y276757D01*
X394057Y278317D01*
X395161Y280229D01*
X395732Y282360D01*
Y284568D01*
X395161Y286699D01*
X394057Y288611D01*
X392497Y290171D01*
X390585Y291275D01*
X388453Y291846D01*
X386246D01*
X384115Y291275D01*
X382203Y290171D01*
X380737Y288705D01*
X380299Y288570D01*
X379669D01*
X379231Y288705D01*
X377765Y290171D01*
X375853Y291275D01*
X373722Y291846D01*
X371515D01*
X369383Y291275D01*
X367471Y290171D01*
X365911Y288611D01*
X364807Y286699D01*
X364640Y286073D01*
X363325D01*
X363157Y286699D01*
X362053Y288611D01*
X360493Y290171D01*
X358581Y291275D01*
X356450Y291846D01*
X354243D01*
X352111Y291275D01*
X350199Y290171D01*
X348639Y288611D01*
X347535Y286699D01*
X346964Y284568D01*
Y282360D01*
X347419Y280664D01*
X339596Y272841D01*
X338510Y273174D01*
X338326Y273312D01*
Y276641D01*
X339847Y277519D01*
X341407Y279079D01*
X342511Y280991D01*
X343082Y283123D01*
Y285329D01*
X342511Y287461D01*
X341407Y289373D01*
X339847Y290933D01*
X337935Y292037D01*
X335804Y292608D01*
D02*
G37*
G36*
X292379Y154052D02*
X289790D01*
X287289Y153382D01*
X285047Y152088D01*
X283217Y150257D01*
X281922Y148015D01*
X281252Y145515D01*
Y142926D01*
X281922Y140425D01*
X283217Y138183D01*
X285047Y136353D01*
X287289Y135058D01*
X289790Y134388D01*
X292379D01*
X294879Y135058D01*
X297121Y136353D01*
X298952Y138183D01*
X300246Y140425D01*
X300916Y142926D01*
Y145515D01*
X300246Y148015D01*
X298952Y150257D01*
X297121Y152088D01*
X294879Y153382D01*
X292379Y154052D01*
D02*
G37*
G36*
X266979D02*
X264390D01*
X261889Y153382D01*
X259647Y152088D01*
X257817Y150257D01*
X256522Y148015D01*
X255852Y145515D01*
Y142926D01*
X256522Y140425D01*
X257817Y138183D01*
X259647Y136353D01*
X261889Y135058D01*
X264390Y134388D01*
X266979D01*
X269479Y135058D01*
X271721Y136353D01*
X273552Y138183D01*
X274846Y140425D01*
X275516Y142926D01*
Y145515D01*
X274846Y148015D01*
X273552Y150257D01*
X271721Y152088D01*
X269479Y153382D01*
X266979Y154052D01*
D02*
G37*
G36*
X241579D02*
X238990D01*
X236489Y153382D01*
X234247Y152088D01*
X232417Y150257D01*
X231122Y148015D01*
X230452Y145515D01*
Y142926D01*
X231122Y140425D01*
X232417Y138183D01*
X234247Y136353D01*
X236489Y135058D01*
X238990Y134388D01*
X241579D01*
X244079Y135058D01*
X246321Y136353D01*
X248152Y138183D01*
X249446Y140425D01*
X250116Y142926D01*
Y145515D01*
X249446Y148015D01*
X248152Y150257D01*
X246321Y152088D01*
X244079Y153382D01*
X241579Y154052D01*
D02*
G37*
G36*
X216179D02*
X213590D01*
X211089Y153382D01*
X208847Y152088D01*
X207017Y150257D01*
X205722Y148015D01*
X205052Y145515D01*
Y142926D01*
X205722Y140425D01*
X207017Y138183D01*
X208847Y136353D01*
X211089Y135058D01*
X213590Y134388D01*
X216179D01*
X218679Y135058D01*
X220921Y136353D01*
X222752Y138183D01*
X224046Y140425D01*
X224716Y142926D01*
Y145515D01*
X224046Y148015D01*
X222752Y150257D01*
X220921Y152088D01*
X218679Y153382D01*
X216179Y154052D01*
D02*
G37*
G36*
X190779D02*
X188190D01*
X185689Y153382D01*
X183447Y152088D01*
X181617Y150257D01*
X180322Y148015D01*
X179652Y145515D01*
Y142926D01*
X180322Y140425D01*
X181617Y138183D01*
X183447Y136353D01*
X185689Y135058D01*
X188190Y134388D01*
X190779D01*
X193279Y135058D01*
X195521Y136353D01*
X197352Y138183D01*
X198646Y140425D01*
X199316Y142926D01*
Y145515D01*
X198646Y148015D01*
X197352Y150257D01*
X195521Y152088D01*
X193279Y153382D01*
X190779Y154052D01*
D02*
G37*
G36*
X165379D02*
X162790D01*
X160289Y153382D01*
X158047Y152088D01*
X156217Y150257D01*
X154922Y148015D01*
X154252Y145515D01*
Y142926D01*
X154922Y140425D01*
X156217Y138183D01*
X158047Y136353D01*
X160289Y135058D01*
X162790Y134388D01*
X165379D01*
X167879Y135058D01*
X170121Y136353D01*
X171952Y138183D01*
X173246Y140425D01*
X173916Y142926D01*
Y145515D01*
X173246Y148015D01*
X171952Y150257D01*
X170121Y152088D01*
X167879Y153382D01*
X165379Y154052D01*
D02*
G37*
G36*
X139979D02*
X137390D01*
X134889Y153382D01*
X132647Y152088D01*
X130817Y150257D01*
X129522Y148015D01*
X128852Y145515D01*
Y142926D01*
X129522Y140425D01*
X130817Y138183D01*
X132647Y136353D01*
X134889Y135058D01*
X137390Y134388D01*
X139979D01*
X142479Y135058D01*
X144721Y136353D01*
X146552Y138183D01*
X147846Y140425D01*
X148516Y142926D01*
Y145515D01*
X147846Y148015D01*
X146552Y150257D01*
X144721Y152088D01*
X142479Y153382D01*
X139979Y154052D01*
D02*
G37*
G36*
X114579D02*
X111990D01*
X109489Y153382D01*
X107247Y152088D01*
X105417Y150257D01*
X104122Y148015D01*
X103452Y145515D01*
Y142926D01*
X104122Y140425D01*
X105417Y138183D01*
X107247Y136353D01*
X109489Y135058D01*
X111990Y134388D01*
X114579D01*
X117079Y135058D01*
X119321Y136353D01*
X121152Y138183D01*
X122446Y140425D01*
X123116Y142926D01*
Y145515D01*
X122446Y148015D01*
X121152Y150257D01*
X119321Y152088D01*
X117079Y153382D01*
X114579Y154052D01*
D02*
G37*
G36*
X428424Y142950D02*
X419354D01*
Y133880D01*
X419445D01*
X422075Y134585D01*
X424433Y135946D01*
X426358Y137871D01*
X427720Y140229D01*
X428424Y142859D01*
Y142950D01*
D02*
G37*
G36*
X416814D02*
X407744D01*
Y142859D01*
X408449Y140229D01*
X409810Y137871D01*
X411735Y135946D01*
X414093Y134585D01*
X416723Y133880D01*
X416814D01*
Y142950D01*
D02*
G37*
G36*
X576634Y116902D02*
Y109930D01*
X583606D01*
X583089Y111860D01*
X581998Y113750D01*
X580454Y115294D01*
X578564Y116385D01*
X576634Y116902D01*
D02*
G37*
G36*
X574094Y116902D02*
X572164Y116385D01*
X570274Y115294D01*
X568731Y113750D01*
X567639Y111860D01*
X567122Y109930D01*
X574094D01*
Y116902D01*
D02*
G37*
G36*
X646239Y139762D02*
X643130D01*
X640081Y139156D01*
X637209Y137966D01*
X634624Y136239D01*
X632426Y134041D01*
X630699Y131456D01*
X629509Y128584D01*
X628902Y125535D01*
Y122426D01*
X629509Y119377D01*
X630699Y116505D01*
X632426Y113920D01*
X634624Y111722D01*
X637209Y109994D01*
X640081Y108805D01*
X643130Y108198D01*
X646239D01*
X649288Y108805D01*
X652160Y109994D01*
X654745Y111722D01*
X656943Y113920D01*
X658670Y116505D01*
X659860Y119377D01*
X660466Y122426D01*
Y125535D01*
X659860Y128584D01*
X658670Y131456D01*
X656943Y134041D01*
X654745Y136239D01*
X652160Y137966D01*
X649288Y139156D01*
X646239Y139762D01*
D02*
G37*
G36*
X551389Y116442D02*
X549340D01*
X547360Y115912D01*
X545586Y114887D01*
X544137Y113439D01*
X543113Y111664D01*
X542582Y109685D01*
Y107636D01*
X543113Y105656D01*
X544137Y103882D01*
X545586Y102433D01*
X547360Y101409D01*
X549340Y100878D01*
X551389D01*
X553368Y101409D01*
X555143Y102433D01*
X556591Y103882D01*
X557616Y105656D01*
X558146Y107636D01*
Y109685D01*
X557616Y111664D01*
X556591Y113439D01*
X555143Y114887D01*
X553368Y115912D01*
X551389Y116442D01*
D02*
G37*
G36*
X574094Y107390D02*
X567122D01*
X567639Y105460D01*
X568731Y103570D01*
X570274Y102027D01*
X572164Y100935D01*
X574094Y100418D01*
Y107390D01*
D02*
G37*
G36*
X583606D02*
X576634D01*
Y100418D01*
X578564Y100935D01*
X580454Y102027D01*
X581998Y103570D01*
X583089Y105460D01*
X583606Y107390D01*
D02*
G37*
G36*
X2008474Y95232D02*
X2004725D01*
X2001049Y94501D01*
X1997585Y93066D01*
X1994468Y90983D01*
X1991817Y88332D01*
X1989734Y85215D01*
X1988299Y81752D01*
X1987568Y78075D01*
Y74326D01*
X1988299Y70649D01*
X1989734Y67185D01*
X1991817Y64068D01*
X1994468Y61417D01*
X1997585Y59334D01*
X2001049Y57899D01*
X2004725Y57168D01*
X2008474D01*
X2012151Y57899D01*
X2015615Y59334D01*
X2018732Y61417D01*
X2021383Y64068D01*
X2023466Y67185D01*
X2024901Y70649D01*
X2025632Y74326D01*
Y78075D01*
X2024901Y81752D01*
X2023466Y85215D01*
X2021383Y88332D01*
X2018732Y90983D01*
X2015615Y93066D01*
X2012151Y94501D01*
X2008474Y95232D01*
D02*
G37*
G36*
X1655571Y95920D02*
X1653690D01*
Y57150D01*
X1692460D01*
Y59031D01*
X1691474Y65256D01*
X1689526Y71250D01*
X1686665Y76866D01*
X1682961Y81964D01*
X1678504Y86421D01*
X1673405Y90125D01*
X1667790Y92986D01*
X1661796Y94934D01*
X1655571Y95920D01*
D02*
G37*
G36*
X1651150D02*
X1649269D01*
X1643044Y94934D01*
X1637050Y92986D01*
X1631434Y90125D01*
X1626335Y86421D01*
X1621879Y81964D01*
X1618174Y76866D01*
X1615313Y71250D01*
X1613366Y65256D01*
X1612380Y59031D01*
Y57150D01*
X1651150D01*
Y95920D01*
D02*
G37*
G36*
X765151D02*
X763270D01*
Y57150D01*
X802040D01*
Y59031D01*
X801054Y65256D01*
X799107Y71250D01*
X796245Y76866D01*
X792541Y81964D01*
X788084Y86421D01*
X782986Y90125D01*
X777370Y92986D01*
X771376Y94934D01*
X765151Y95920D01*
D02*
G37*
G36*
X760730D02*
X758849D01*
X752624Y94934D01*
X746630Y92986D01*
X741014Y90125D01*
X735916Y86421D01*
X731459Y81964D01*
X727755Y76866D01*
X724893Y71250D01*
X722946Y65256D01*
X721960Y59031D01*
Y57150D01*
X760730D01*
Y95920D01*
D02*
G37*
G36*
X1297274Y82532D02*
X1293526D01*
X1289849Y81801D01*
X1286385Y80366D01*
X1283268Y78283D01*
X1280617Y75632D01*
X1278534Y72515D01*
X1277099Y69051D01*
X1276368Y65374D01*
Y61625D01*
X1277099Y57949D01*
X1278534Y54485D01*
X1280617Y51368D01*
X1283268Y48717D01*
X1286385Y46634D01*
X1289849Y45199D01*
X1293526Y44468D01*
X1297274D01*
X1300951Y45199D01*
X1304415Y46634D01*
X1307532Y48717D01*
X1310183Y51368D01*
X1312266Y54485D01*
X1313701Y57949D01*
X1314432Y61625D01*
Y65374D01*
X1313701Y69051D01*
X1312266Y72515D01*
X1310183Y75632D01*
X1307532Y78283D01*
X1304415Y80366D01*
X1300951Y81801D01*
X1297274Y82532D01*
D02*
G37*
G36*
X954374D02*
X950626D01*
X946949Y81801D01*
X943485Y80366D01*
X940368Y78283D01*
X937717Y75632D01*
X935634Y72515D01*
X934199Y69051D01*
X933468Y65374D01*
Y61625D01*
X934199Y57949D01*
X935634Y54485D01*
X937717Y51368D01*
X940368Y48717D01*
X943485Y46634D01*
X946949Y45199D01*
X950626Y44468D01*
X954374D01*
X958051Y45199D01*
X961515Y46634D01*
X964632Y48717D01*
X967283Y51368D01*
X969366Y54485D01*
X970801Y57949D01*
X971532Y61625D01*
Y65374D01*
X970801Y69051D01*
X969366Y72515D01*
X967283Y75632D01*
X964632Y78283D01*
X961515Y80366D01*
X958051Y81801D01*
X954374Y82532D01*
D02*
G37*
G36*
X65374D02*
X61625D01*
X57949Y81801D01*
X54485Y80366D01*
X51368Y78283D01*
X48717Y75632D01*
X46634Y72515D01*
X45199Y69051D01*
X44468Y65374D01*
Y61625D01*
X45199Y57949D01*
X46634Y54485D01*
X48717Y51368D01*
X51368Y48717D01*
X54485Y46634D01*
X57949Y45199D01*
X61625Y44468D01*
X65374D01*
X69051Y45199D01*
X72515Y46634D01*
X75632Y48717D01*
X78283Y51368D01*
X80366Y54485D01*
X81801Y57949D01*
X82532Y61625D01*
Y65374D01*
X81801Y69051D01*
X80366Y72515D01*
X78283Y75632D01*
X75632Y78283D01*
X72515Y80366D01*
X69051Y81801D01*
X65374Y82532D01*
D02*
G37*
%LPD*%
G36*
X1327706Y336468D02*
X1326920Y335509D01*
X1303005D01*
X1300973Y335105D01*
X1299251Y333954D01*
X1299251Y333954D01*
X1233582Y268285D01*
X1232408Y268771D01*
Y272744D01*
X1229589Y275563D01*
Y298276D01*
X1268904Y337591D01*
X1327241D01*
X1327706Y336468D01*
D02*
G37*
D16*
X501810Y455846D02*
X552854D01*
X583024Y486016D01*
X631146D01*
X638424Y493294D01*
Y500655D01*
X649346Y511578D01*
Y514324D01*
X1724593Y362331D02*
X1724660D01*
X1714173Y351911D02*
X1724593Y362331D01*
X619977Y383921D02*
X678032D01*
X616769Y387128D02*
X619977Y383921D01*
X560432Y387128D02*
X616769D01*
X1493601Y351911D02*
X1714173D01*
X1484907Y360605D02*
X1493601Y351911D01*
X1445260Y372312D02*
X1474594D01*
X1484907Y361999D01*
Y360605D02*
Y361999D01*
X545084Y370280D02*
Y371780D01*
X560432Y387128D01*
X1002368D02*
X1026160Y410920D01*
X846582Y387128D02*
X1002368D01*
X882810Y455846D02*
X933854D01*
X964024Y486016D02*
X1012146D01*
X933854Y455846D02*
X964024Y486016D01*
X1012146D02*
X1019424Y493294D01*
X1030346Y511578D02*
Y514324D01*
X1019424Y500655D02*
X1030346Y511578D01*
X1019424Y493294D02*
Y500655D01*
X1188720Y264616D02*
Y299160D01*
X1232458Y260350D02*
X1233155D01*
X1229485Y257377D02*
X1232458Y260350D01*
X1195959Y257377D02*
X1229485D01*
X1188720Y264616D02*
X1195959Y257377D01*
X1303005Y330200D02*
X1333500D01*
X1233155Y260350D02*
X1303005Y330200D01*
X1224280Y268680D02*
Y300476D01*
X1266705Y342900D02*
X1346200D01*
X1224280Y300476D02*
X1266705Y342900D01*
X902100Y247933D02*
X920750Y229283D01*
Y176266D02*
Y229283D01*
X1068780Y181470D02*
X1072750Y177500D01*
X1065110Y181470D02*
X1068780D01*
X1056640Y189940D02*
X1065110Y181470D01*
X1376776Y274320D02*
X1434508D01*
X1325880Y268680D02*
X1342317Y285117D01*
X1365979D01*
X1376776Y274320D01*
X1026160Y309320D02*
X1041400Y294081D01*
X1038860Y219620D02*
X1040515Y221275D01*
Y226780D01*
X1041400Y227665D01*
Y294081D01*
X663028Y324560D02*
X706900D01*
X660488Y322020D02*
X663028Y324560D01*
X534784Y322020D02*
X660488D01*
X672574Y248360D02*
X672886Y248049D01*
X646684Y273760D02*
X660528Y259916D01*
X681615D01*
X648909Y248360D02*
X672574D01*
X633919Y260811D02*
X646527Y248203D01*
X751840Y304240D02*
X838200Y390600D01*
X687847Y304240D02*
X751840D01*
X838200Y390600D02*
Y416000D01*
X755312Y295858D02*
X846582Y387128D01*
X652819Y295858D02*
X755312D01*
X682766Y309320D02*
X687847Y304240D01*
X652057Y296620D02*
X652819Y295858D01*
X646795Y303025D02*
X652057Y297763D01*
X659384Y309320D02*
X682766D01*
X496824Y179780D02*
X603781D01*
X520857Y159460D02*
X600964D01*
X513237Y167080D02*
X520857Y159460D01*
X130626Y331673D02*
X152377D01*
X138684Y397275D02*
Y398220D01*
X126906Y385497D02*
X138684Y397275D01*
X126906Y335393D02*
Y385497D01*
Y335393D02*
X130626Y331673D01*
X118524Y328708D02*
Y336341D01*
X113284Y341581D02*
X118524Y336341D01*
Y328708D02*
X123941Y323291D01*
X296395D01*
X316484Y343380D01*
X164084D02*
Y344880D01*
X113284Y341581D02*
Y343380D01*
X152377Y331673D02*
X164084Y343380D01*
X87884Y317980D02*
X113284Y343380D01*
Y344880D01*
X633919Y304240D02*
X635134Y303025D01*
X646795D01*
X316484Y343380D02*
X350544Y309320D01*
X522813D01*
X534370Y320877D01*
X1056640Y301500D02*
X1077160Y322020D01*
X1056640Y189940D02*
Y301500D01*
X1076960Y357580D02*
X1077060Y357480D01*
Y322120D02*
Y357480D01*
Y322120D02*
X1077160Y322020D01*
X902100Y247933D02*
Y319480D01*
X316484Y343380D02*
Y344880D01*
X87884Y144220D02*
Y317980D01*
X392684Y370280D02*
Y398220D01*
X367284Y370280D02*
Y398220D01*
X316484Y370280D02*
Y372300D01*
X341884Y397700D01*
Y398220D01*
X291084Y370280D02*
Y372300D01*
X316484Y397700D01*
Y398220D01*
X392684D02*
X394595Y400131D01*
X1314854Y455846D02*
X1345024Y486016D01*
X1263810Y455846D02*
X1314854D01*
X1393146Y486016D02*
X1400424Y493294D01*
Y500655D01*
X1411346Y511578D01*
Y514324D01*
X1345024Y486016D02*
X1393146D01*
X268346Y511578D02*
Y514324D01*
X257424Y500655D02*
X268346Y511578D01*
X257424Y493294D02*
Y500655D01*
X250146Y486016D02*
X257424Y493294D01*
X120810Y455846D02*
X171854D01*
X202024Y486016D01*
X250146D01*
D35*
X595884Y370280D02*
D03*
Y344880D02*
D03*
X570484Y370280D02*
D03*
Y344880D02*
D03*
X545084Y370280D02*
D03*
Y344880D02*
D03*
X519684Y370280D02*
D03*
Y344880D02*
D03*
X494284Y370280D02*
D03*
Y344880D02*
D03*
X468884Y370280D02*
D03*
Y344880D02*
D03*
X443484Y370280D02*
D03*
Y344880D02*
D03*
X418084Y370280D02*
D03*
Y344880D02*
D03*
X392684Y370280D02*
D03*
Y344880D02*
D03*
X367284Y370280D02*
D03*
Y344880D02*
D03*
X341884Y370280D02*
D03*
Y344880D02*
D03*
X316484Y370280D02*
D03*
Y344880D02*
D03*
X291084Y370280D02*
D03*
Y344880D02*
D03*
X265684Y370280D02*
D03*
Y344880D02*
D03*
X240284Y370280D02*
D03*
Y344880D02*
D03*
X214884Y370280D02*
D03*
Y344880D02*
D03*
X189484Y370280D02*
D03*
Y344880D02*
D03*
X164084Y370280D02*
D03*
Y344880D02*
D03*
X113284D02*
D03*
Y370280D02*
D03*
X138684Y344880D02*
D03*
Y370280D02*
D03*
D41*
X1473200Y392150D02*
D03*
X1549400Y416280D02*
D03*
D42*
X1473200Y357150D02*
D03*
X1549400Y451280D02*
D03*
D54*
X1879600Y1117040D02*
D03*
Y812240D02*
D03*
Y964640D02*
D03*
D55*
X501250Y546100D02*
X539910Y507440D01*
X564005Y531535D01*
X602135D02*
X619346Y514324D01*
X564005Y531535D02*
X602135D01*
X619346Y514324D02*
X651122Y546100D01*
X2049391Y461341D02*
X2049998D01*
X2018909Y449072D02*
X2037784D01*
X2013881Y454100D02*
X2018909Y449072D01*
X2048764Y460714D02*
X2049391Y461341D01*
X2048764Y460052D02*
Y460714D01*
X2037784Y449072D02*
X2048764Y460052D01*
X2047240Y527160D02*
X2053192Y521208D01*
X2047240Y527160D02*
Y609600D01*
X2023830Y462280D02*
X2024769Y463219D01*
X2023441Y462280D02*
X2023830D01*
X2024769Y463219D02*
Y465209D01*
X2060448Y500888D01*
X2053234Y521208D02*
X2060448Y513994D01*
X2053192Y521208D02*
X2053234D01*
X2060448Y500888D02*
Y513994D01*
X882251Y546100D02*
X920910Y507440D01*
X1000346Y514324D02*
X1032122Y546100D01*
X990618Y524052D02*
X1000346Y514324D01*
X920910Y507440D02*
X937522Y524052D01*
X990618D01*
X238346Y517071D02*
X267375Y546100D01*
X501250D01*
X651122D02*
X882251D01*
X1032122D02*
X1263251D01*
X1301910Y507440D01*
X1322230Y527760D01*
X1365164D01*
X1379631Y514324D02*
X1381346D01*
X1376461Y517494D02*
X1379631Y514324D01*
X1365164Y527760D02*
X1375430Y517494D01*
X1376461D01*
X1381346Y514324D02*
X1425262Y558240D01*
X1605200D02*
X1627000Y536440D01*
X1425262Y558240D02*
X1456329D01*
X1481471D02*
X1605200D01*
X1459741Y554828D02*
X1478059D01*
X1456329Y558240D02*
X1459741Y554828D01*
X1478059D02*
X1481471Y558240D01*
X238346Y514324D02*
Y517071D01*
D56*
X572314Y1034852D02*
X587154Y1020012D01*
X608542Y1041400D01*
X987045Y1026362D02*
X995535Y1034852D01*
X944640Y812800D02*
X945200Y812240D01*
X968154Y1020012D02*
X974504Y1026362D01*
X987045D01*
X946766Y1041400D02*
X968154Y1020012D01*
X1587500Y1028700D02*
X1701800Y914400D01*
X1499503Y1041400D02*
X1512204Y1028700D01*
X1587500D01*
X1370542Y1041400D02*
X1499503D01*
X1349154Y1020012D02*
X1370542Y1041400D01*
X391179Y1026202D02*
X399829Y1034852D01*
X212344Y1026202D02*
X391179D01*
X206154Y1020012D02*
X212344Y1026202D01*
X1879600Y977340D02*
X1891765Y965176D01*
X1813910Y914400D02*
X1861462Y958707D01*
X1871532Y968089D01*
X1873834Y970395D02*
X1879073Y975645D01*
X1871532Y968089D02*
X1873834Y970395D01*
X1701800Y914400D02*
X1813910D01*
X399829Y1034852D02*
X572314D01*
X995535D02*
X1334314D01*
X1349154Y1020012D01*
X608542Y1041400D02*
X946766D01*
X1879600Y977340D02*
Y990040D01*
X1891765Y965176D02*
X1955265D01*
X1955800Y964640D01*
X1538500Y1091640D02*
X1649800D01*
X1755000Y986440D01*
D57*
X392684Y144220D02*
Y210644D01*
X387350Y215978D02*
X392684Y210644D01*
X387350Y215978D02*
Y283464D01*
X367284Y144220D02*
Y210644D01*
X372618Y215978D01*
Y283464D01*
X341884Y144220D02*
Y270002D01*
X355346Y283464D01*
X334700Y162436D02*
Y284226D01*
X316484Y144220D02*
X334700Y162436D01*
D58*
X586429Y919700D02*
X699863D01*
X1031654Y978102D02*
X1090218Y919539D01*
X1214921Y845820D02*
X1287350Y773390D01*
X996504Y845820D02*
X1119453D01*
X699863Y919700D02*
X857923D01*
X962924Y812240D02*
X996504Y845820D01*
X1191947D02*
X1214921D01*
X959382Y911652D02*
X967429Y919700D01*
X1238923D02*
X1246971Y911652D01*
X1120533Y846900D02*
X1190867D01*
X1191947Y845820D01*
X1246971Y911652D02*
X1346204D01*
X1119453Y845820D02*
X1120533Y846900D01*
X967429Y919700D02*
X1238923D01*
X857923Y919700D02*
X865971Y911652D01*
X469523Y927100D02*
X484971Y911652D01*
X809867Y846900D02*
X843967Y812800D01*
X582484D02*
X615504Y845820D01*
X484971Y911652D02*
X578382D01*
X615504Y845820D02*
X738453D01*
X578382Y911652D02*
X586429Y919700D01*
X739533Y846900D02*
X809867D01*
X320656Y927100D02*
X469523D01*
X843967Y812800D02*
X944640D01*
X738453Y845820D02*
X739533Y846900D01*
X357453Y845820D02*
X358533Y846900D01*
X234504Y845820D02*
X357453D01*
X428867Y846900D02*
X462967Y812800D01*
X358533Y846900D02*
X428867D01*
X462967Y812800D02*
X533400D01*
X865971Y911652D02*
X959382D01*
X1346204D02*
X1412654Y978102D01*
X650654D02*
X699863Y928893D01*
X201484Y812800D02*
X234504Y845820D01*
X269654Y978102D02*
X320656Y927100D01*
X448900Y696940D02*
X493740D01*
X537300Y740500D01*
X533400Y812800D02*
X537300Y808900D01*
Y740500D02*
Y761440D01*
Y808900D01*
X533400Y812800D02*
X582484D01*
X110518Y1104500D02*
X1525640D01*
X1538500Y1091640D01*
X67900Y1061882D02*
X110518Y1104500D01*
X67900Y774240D02*
Y1061882D01*
X945200Y812240D02*
X962924D01*
X918300Y785340D02*
X945200Y812240D01*
X918300Y761440D02*
Y785340D01*
X847789Y696940D02*
X912289Y761440D01*
X918300D01*
X829900Y696940D02*
X847789D01*
X1499503Y978102D02*
X1538662D01*
X1412654D02*
X1499503D01*
X1665365Y812240D01*
X106460Y812800D02*
X201484D01*
X67900Y774240D02*
X106460Y812800D01*
X1665365Y812240D02*
X1862036D01*
X1210900Y696940D02*
X1287350Y773390D01*
X1879600Y812240D02*
X1955800D01*
X1879600Y1117040D02*
X1955800D01*
X1762760Y1091640D02*
X1788160Y1117040D01*
X1879600D01*
X67900Y696940D02*
Y774240D01*
D59*
X734060Y419397D02*
D03*
X632460D02*
D03*
X631600Y455846D02*
D03*
X733200D02*
D03*
X603410D02*
D03*
X501810D02*
D03*
X1800860Y386080D02*
D03*
X1902460D02*
D03*
X1800860Y424180D02*
D03*
X1902460D02*
D03*
X1012600Y455846D02*
D03*
X1114200D02*
D03*
X984410D02*
D03*
X882810D02*
D03*
X1427480Y317500D02*
D03*
X1529080D02*
D03*
X1427480Y274320D02*
D03*
X1529080D02*
D03*
X1325880Y268680D02*
D03*
X1224280D02*
D03*
X1290320Y299160D02*
D03*
X1188720D02*
D03*
X939800Y276300D02*
D03*
X838200D02*
D03*
X1076960Y357580D02*
D03*
X1178560D02*
D03*
X1084580Y278840D02*
D03*
X982980D02*
D03*
X896620Y357580D02*
D03*
X998220D02*
D03*
X1495200Y455846D02*
D03*
X1393600D02*
D03*
X1263810D02*
D03*
X1365410D02*
D03*
X250600D02*
D03*
X352200D02*
D03*
X222410D02*
D03*
X120810D02*
D03*
D60*
X706900Y488924D02*
D03*
X1821180Y477520D02*
D03*
X1087900Y488924D02*
D03*
X1468900D02*
D03*
X325900D02*
D03*
D61*
X706900Y501624D02*
D03*
Y514324D02*
D03*
X1821180Y490220D02*
D03*
Y502920D02*
D03*
X1087900Y501624D02*
D03*
Y514324D02*
D03*
X1468900D02*
D03*
Y501624D02*
D03*
X325900D02*
D03*
Y514324D02*
D03*
D62*
X539910Y507440D02*
D03*
X565310D02*
D03*
X920910D02*
D03*
X946310D02*
D03*
X2049780Y462280D02*
D03*
X2024380D02*
D03*
X1327310Y507440D02*
D03*
X1301910D02*
D03*
X184310D02*
D03*
X158910D02*
D03*
D63*
X619346Y514324D02*
D03*
X649346D02*
D03*
X1861820Y505460D02*
D03*
Y475460D02*
D03*
X1000346Y514324D02*
D03*
X1030346D02*
D03*
X1411346D02*
D03*
X1381346D02*
D03*
X268346D02*
D03*
X238346D02*
D03*
D64*
X486900Y576940D02*
D03*
X706900D02*
D03*
X867900D02*
D03*
X1087900D02*
D03*
X1468900D02*
D03*
X1248900D02*
D03*
X105900D02*
D03*
X325900D02*
D03*
X1879600Y1091640D02*
D03*
Y1142440D02*
D03*
Y786840D02*
D03*
Y837640D02*
D03*
Y939240D02*
D03*
Y990040D02*
D03*
D65*
X724900Y696940D02*
D03*
X448900D02*
D03*
X1105900D02*
D03*
X829900D02*
D03*
X1210900D02*
D03*
X1486900D02*
D03*
X343900D02*
D03*
X67900D02*
D03*
D66*
X612300Y761440D02*
D03*
X537300D02*
D03*
X993300D02*
D03*
X918300D02*
D03*
X1299300D02*
D03*
X1374300D02*
D03*
X231300D02*
D03*
X156300D02*
D03*
D67*
X650654Y978102D02*
D03*
X523654D02*
D03*
X587154Y1020012D02*
D03*
X1031654Y978102D02*
D03*
X904654D02*
D03*
X968154Y1020012D02*
D03*
X1349154D02*
D03*
X1285654Y978102D02*
D03*
X1412654D02*
D03*
X269654D02*
D03*
X142654D02*
D03*
X206154Y1020012D02*
D03*
D68*
X1668780Y454100D02*
D03*
D69*
Y428700D02*
D03*
Y403300D02*
D03*
D70*
X1940560Y571400D02*
D03*
Y495400D02*
D03*
D71*
X1102160Y322020D02*
D03*
X1077160D02*
D03*
X927100Y319480D02*
D03*
X902100D02*
D03*
X1361440Y299160D02*
D03*
Y274160D02*
D03*
X68580Y433780D02*
D03*
X43580D02*
D03*
X575364Y108660D02*
D03*
X550364D02*
D03*
X1612900Y403100D02*
D03*
Y378100D02*
D03*
Y439060D02*
D03*
Y464060D02*
D03*
D72*
X862203Y523240D02*
D03*
Y421640D02*
D03*
X1236980Y482600D02*
D03*
Y381000D02*
D03*
X99060Y536816D02*
D03*
Y435216D02*
D03*
X2047240Y609600D02*
D03*
Y508000D02*
D03*
X1026160Y410920D02*
D03*
Y309320D02*
D03*
X838200Y416000D02*
D03*
Y314400D02*
D03*
D73*
X1346200Y227800D02*
D03*
X1384300Y177800D02*
D03*
X1422400Y227800D02*
D03*
X1155700D02*
D03*
X1193800Y177800D02*
D03*
X1231900Y227800D02*
D03*
X996550Y177500D02*
D03*
X1034650Y227500D02*
D03*
X844150Y177500D02*
D03*
X882250Y227500D02*
D03*
D74*
X1460500Y177800D02*
D03*
X1270000D02*
D03*
X1072750Y177500D02*
D03*
X920350D02*
D03*
D75*
X87884Y144220D02*
D03*
D76*
X113284D02*
D03*
X545084D02*
D03*
X138684D02*
D03*
X164084D02*
D03*
X189484D02*
D03*
X214884D02*
D03*
X240284D02*
D03*
X265684D02*
D03*
X291084D02*
D03*
X316484D02*
D03*
X341884D02*
D03*
X367284D02*
D03*
X392684D02*
D03*
X418084D02*
D03*
X443484D02*
D03*
X468884D02*
D03*
X494284D02*
D03*
X519684D02*
D03*
X87884Y398220D02*
D03*
X113284D02*
D03*
X138684D02*
D03*
X164084D02*
D03*
X189484D02*
D03*
X214884D02*
D03*
X240284D02*
D03*
X265684D02*
D03*
X291084D02*
D03*
X316484D02*
D03*
X341884D02*
D03*
X367284D02*
D03*
X392684D02*
D03*
X418084D02*
D03*
X443484D02*
D03*
X468884D02*
D03*
X494284D02*
D03*
X519684D02*
D03*
X545084D02*
D03*
D77*
X2006600Y330200D02*
D03*
Y304800D02*
D03*
Y279400D02*
D03*
Y254000D02*
D03*
Y228600D02*
D03*
Y203200D02*
D03*
Y177800D02*
D03*
D78*
Y152400D02*
D03*
D79*
X1627000Y536440D02*
D03*
X1547000D02*
D03*
Y986440D02*
D03*
D80*
X1755000D02*
D03*
D81*
X1955800Y1117040D02*
D03*
Y812240D02*
D03*
Y964640D02*
D03*
D82*
X1763500Y1091640D02*
D03*
X1538500D02*
D03*
D83*
X1724660Y362331D02*
D03*
X678032Y383921D02*
D03*
X1445260Y372312D02*
D03*
X334700Y284226D02*
D03*
X355346Y283464D02*
D03*
X372618D02*
D03*
X387350D02*
D03*
X1333500Y330200D02*
D03*
X1346200Y342900D02*
D03*
X706900Y324560D02*
D03*
X672886Y248049D02*
D03*
X681615Y259916D02*
D03*
X656844Y309320D02*
D03*
X603781Y179780D02*
D03*
X496824D02*
D03*
X513237Y167080D02*
D03*
X600964Y159460D02*
D03*
X633919Y260811D02*
D03*
X646684Y273760D02*
D03*
X633919Y304240D02*
D03*
M02*
