G04*
G04 #@! TF.GenerationSoftware,Altium Limited,Altium Designer,23.9.2 (47)*
G04*
G04 Layer_Physical_Order=1*
G04 Layer_Color=255*
%FSLAX44Y44*%
%MOMM*%
G71*
G04*
G04 #@! TF.SameCoordinates,666CD1C4-E099-4A84-9A31-6A8195F5D717*
G04*
G04*
G04 #@! TF.FilePolarity,Positive*
G04*
G01*
G75*
%ADD13C,0.2540*%
%ADD15C,0.6350*%
%ADD18C,1.2700*%
%ADD39O,1.3000X1.6000*%
%ADD43R,1.3000X1.3000*%
%ADD44C,1.3000*%
%ADD54R,4.0000X3.0000*%
%ADD55C,2.5400*%
%ADD56C,5.0800*%
%ADD57C,1.0160*%
%ADD58C,0.3048*%
%ADD59C,0.5080*%
%ADD60C,1.8000*%
%ADD61R,1.8000X1.8000*%
G04:AMPARAMS|DCode=62|XSize=1.2192mm|YSize=1.2192mm|CornerRadius=0mm|HoleSize=0mm|Usage=FLASHONLY|Rotation=90.000|XOffset=0mm|YOffset=0mm|HoleType=Round|Shape=Octagon|*
%AMOCTAGOND62*
4,1,8,0.3048,0.6096,-0.3048,0.6096,-0.6096,0.3048,-0.6096,-0.3048,-0.3048,-0.6096,0.3048,-0.6096,0.6096,-0.3048,0.6096,0.3048,0.3048,0.6096,0.0*
%
%ADD62OCTAGOND62*%

%ADD63R,1.0500X1.0500*%
%ADD64C,1.0500*%
G04:AMPARAMS|DCode=65|XSize=7.62mm|YSize=7.62mm|CornerRadius=0mm|HoleSize=0mm|Usage=FLASHONLY|Rotation=0.000|XOffset=0mm|YOffset=0mm|HoleType=Round|Shape=Octagon|*
%AMOCTAGOND65*
4,1,8,3.8100,-1.9050,3.8100,1.9050,1.9050,3.8100,-1.9050,3.8100,-3.8100,1.9050,-3.8100,-1.9050,-1.9050,-3.8100,1.9050,-3.8100,3.8100,-1.9050,0.0*
%
%ADD65OCTAGOND65*%

%ADD66R,3.8100X3.8100*%
%ADD67C,2.0000*%
%ADD68R,2.0000X2.0000*%
G04:AMPARAMS|DCode=69|XSize=2mm|YSize=2mm|CornerRadius=0mm|HoleSize=0mm|Usage=FLASHONLY|Rotation=0.000|XOffset=0mm|YOffset=0mm|HoleType=Round|Shape=Octagon|*
%AMOCTAGOND69*
4,1,8,1.0000,-0.5000,1.0000,0.5000,0.5000,1.0000,-0.5000,1.0000,-1.0000,0.5000,-1.0000,-0.5000,-0.5000,-1.0000,0.5000,-1.0000,1.0000,-0.5000,0.0*
%
%ADD69OCTAGOND69*%

G04:AMPARAMS|DCode=70|XSize=1.2192mm|YSize=1.2192mm|CornerRadius=0mm|HoleSize=0mm|Usage=FLASHONLY|Rotation=0.000|XOffset=0mm|YOffset=0mm|HoleType=Round|Shape=Octagon|*
%AMOCTAGOND70*
4,1,8,0.6096,-0.3048,0.6096,0.3048,0.3048,0.6096,-0.3048,0.6096,-0.6096,0.3048,-0.6096,-0.3048,-0.3048,-0.6096,0.3048,-0.6096,0.6096,-0.3048,0.0*
%
%ADD70OCTAGOND70*%

%ADD71C,1.2192*%
%ADD72C,1.6500*%
%ADD73R,1.5080X1.5080*%
%ADD74C,1.5080*%
%ADD75C,1.1500*%
%ADD76C,1.5000*%
G04:AMPARAMS|DCode=77|XSize=1.5mm|YSize=1.5mm|CornerRadius=0.375mm|HoleSize=0mm|Usage=FLASHONLY|Rotation=0.000|XOffset=0mm|YOffset=0mm|HoleType=Round|Shape=RoundedRectangle|*
%AMROUNDEDRECTD77*
21,1,1.5000,0.7500,0,0,0.0*
21,1,0.7500,1.5000,0,0,0.0*
1,1,0.7500,0.3750,-0.3750*
1,1,0.7500,-0.3750,-0.3750*
1,1,0.7500,-0.3750,0.3750*
1,1,0.7500,0.3750,0.3750*
%
%ADD77ROUNDEDRECTD77*%
%ADD78R,1.5600X1.5600*%
%ADD79C,1.5600*%
%ADD80C,1.5240*%
%ADD81R,1.5240X1.5240*%
%ADD82C,1.9500*%
%ADD83C,3.0000*%
%ADD84C,1.2700*%
G36*
X1508728Y54750D02*
X1509014Y54740D01*
X1509081D01*
X1509157Y54731D01*
X1509252Y54721D01*
X1509366Y54712D01*
X1509490Y54702D01*
X1509757Y54664D01*
X1509776D01*
X1509824Y54654D01*
X1509890Y54645D01*
X1509986Y54626D01*
X1510100Y54607D01*
X1510224Y54588D01*
X1510490Y54531D01*
X1510509D01*
X1510557Y54512D01*
X1510633Y54493D01*
X1510728Y54474D01*
X1510843Y54435D01*
X1510976Y54407D01*
X1511109Y54359D01*
X1511262Y54311D01*
Y51987D01*
X1511252D01*
X1511224Y52007D01*
X1511186Y52025D01*
X1511129Y52054D01*
X1511052Y52083D01*
X1510967Y52121D01*
X1510871Y52159D01*
X1510767Y52197D01*
X1510529Y52292D01*
X1510271Y52378D01*
X1509995Y52464D01*
X1509719Y52530D01*
X1509709D01*
X1509690Y52540D01*
X1509652Y52549D01*
X1509595Y52559D01*
X1509528Y52568D01*
X1509452Y52578D01*
X1509366Y52597D01*
X1509281Y52616D01*
X1509071Y52645D01*
X1508842Y52664D01*
X1508614Y52683D01*
X1508385Y52692D01*
X1508233D01*
X1508157Y52683D01*
X1508071Y52673D01*
X1507976Y52664D01*
X1507861Y52654D01*
X1507623Y52616D01*
X1507376Y52559D01*
X1507119Y52473D01*
X1506871Y52368D01*
X1506861D01*
X1506842Y52349D01*
X1506814Y52340D01*
X1506766Y52311D01*
X1506709Y52283D01*
X1506652Y52235D01*
X1506509Y52140D01*
X1506337Y52016D01*
X1506166Y51854D01*
X1505995Y51683D01*
X1505833Y51473D01*
Y51464D01*
X1505814Y51445D01*
X1505795Y51416D01*
X1505766Y51368D01*
X1505737Y51311D01*
X1505699Y51245D01*
X1505652Y51168D01*
X1505614Y51083D01*
X1505509Y50883D01*
X1505414Y50644D01*
X1505318Y50378D01*
X1505242Y50092D01*
Y50082D01*
X1505233Y50054D01*
X1505223Y50016D01*
X1505213Y49959D01*
X1505195Y49882D01*
X1505185Y49787D01*
X1505166Y49692D01*
X1505147Y49578D01*
X1505128Y49454D01*
X1505109Y49320D01*
X1505080Y49025D01*
X1505061Y48701D01*
X1505052Y48349D01*
Y48339D01*
Y48301D01*
Y48254D01*
Y48177D01*
X1505061Y48092D01*
Y47987D01*
X1505071Y47873D01*
X1505080Y47749D01*
X1505099Y47463D01*
X1505128Y47158D01*
X1505175Y46844D01*
X1505242Y46539D01*
Y46530D01*
X1505252Y46501D01*
X1505261Y46463D01*
X1505280Y46406D01*
X1505299Y46339D01*
X1505328Y46263D01*
X1505394Y46072D01*
X1505480Y45863D01*
X1505585Y45644D01*
X1505709Y45415D01*
X1505852Y45196D01*
X1505861Y45187D01*
X1505871Y45167D01*
X1505890Y45139D01*
X1505928Y45101D01*
X1506014Y45006D01*
X1506137Y44882D01*
X1506290Y44748D01*
X1506471Y44606D01*
X1506671Y44472D01*
X1506899Y44348D01*
X1506909D01*
X1506928Y44339D01*
X1506966Y44320D01*
X1507014Y44301D01*
X1507071Y44282D01*
X1507147Y44263D01*
X1507233Y44234D01*
X1507328Y44205D01*
X1507433Y44177D01*
X1507547Y44158D01*
X1507804Y44110D01*
X1508100Y44072D01*
X1508414Y44063D01*
X1508528D01*
X1508614Y44072D01*
X1508719D01*
X1508833Y44091D01*
X1508957Y44101D01*
X1509090Y44120D01*
X1509109D01*
X1509157Y44129D01*
X1509224Y44148D01*
X1509319Y44167D01*
X1509433Y44187D01*
X1509557Y44215D01*
X1509833Y44282D01*
X1509852Y44291D01*
X1509900Y44301D01*
X1509976Y44320D01*
X1510071Y44348D01*
X1510186Y44387D01*
X1510309Y44425D01*
X1510576Y44520D01*
X1510595Y44529D01*
X1510643Y44548D01*
X1510709Y44577D01*
X1510805Y44606D01*
X1510909Y44653D01*
X1511024Y44701D01*
X1511262Y44806D01*
Y42615D01*
X1511252D01*
X1511224Y42596D01*
X1511176Y42586D01*
X1511119Y42558D01*
X1511043Y42529D01*
X1510957Y42501D01*
X1510862Y42463D01*
X1510748Y42424D01*
X1510509Y42348D01*
X1510233Y42262D01*
X1509947Y42186D01*
X1509652Y42119D01*
X1509643D01*
X1509614Y42110D01*
X1509576Y42101D01*
X1509519Y42091D01*
X1509452Y42081D01*
X1509366Y42072D01*
X1509271Y42053D01*
X1509166Y42043D01*
X1509043Y42024D01*
X1508919Y42005D01*
X1508652Y41986D01*
X1508357Y41967D01*
X1508042Y41958D01*
X1507909D01*
X1507814Y41967D01*
X1507700D01*
X1507566Y41977D01*
X1507414Y41986D01*
X1507242Y42005D01*
X1507061Y42024D01*
X1506871Y42053D01*
X1506471Y42119D01*
X1506061Y42215D01*
X1505661Y42348D01*
X1505652Y42358D01*
X1505614Y42367D01*
X1505566Y42386D01*
X1505490Y42424D01*
X1505404Y42463D01*
X1505299Y42520D01*
X1505185Y42577D01*
X1505061Y42643D01*
X1504785Y42815D01*
X1504490Y43015D01*
X1504194Y43253D01*
X1503918Y43529D01*
X1503909Y43539D01*
X1503890Y43567D01*
X1503851Y43605D01*
X1503804Y43672D01*
X1503747Y43748D01*
X1503680Y43834D01*
X1503604Y43948D01*
X1503518Y44063D01*
X1503432Y44196D01*
X1503347Y44348D01*
X1503261Y44501D01*
X1503166Y44672D01*
X1503080Y44853D01*
X1502994Y45053D01*
X1502918Y45253D01*
X1502842Y45463D01*
Y45472D01*
X1502823Y45520D01*
X1502813Y45577D01*
X1502785Y45672D01*
X1502756Y45777D01*
X1502728Y45911D01*
X1502699Y46063D01*
X1502661Y46234D01*
X1502623Y46425D01*
X1502594Y46634D01*
X1502566Y46853D01*
X1502537Y47092D01*
X1502518Y47339D01*
X1502499Y47606D01*
X1502480Y47873D01*
Y48158D01*
Y48177D01*
Y48225D01*
Y48311D01*
X1502489Y48425D01*
Y48558D01*
X1502499Y48720D01*
X1502518Y48901D01*
X1502527Y49101D01*
X1502556Y49311D01*
X1502575Y49530D01*
X1502651Y50006D01*
X1502746Y50483D01*
X1502880Y50959D01*
X1502889Y50978D01*
X1502899Y51016D01*
X1502918Y51083D01*
X1502956Y51168D01*
X1502994Y51273D01*
X1503042Y51387D01*
X1503109Y51530D01*
X1503175Y51683D01*
X1503251Y51835D01*
X1503337Y52007D01*
X1503528Y52349D01*
X1503756Y52692D01*
X1504023Y53026D01*
X1504032Y53035D01*
X1504061Y53064D01*
X1504099Y53111D01*
X1504156Y53169D01*
X1504232Y53235D01*
X1504318Y53321D01*
X1504413Y53407D01*
X1504528Y53502D01*
X1504652Y53607D01*
X1504785Y53712D01*
X1504937Y53816D01*
X1505099Y53931D01*
X1505261Y54026D01*
X1505442Y54131D01*
X1505633Y54226D01*
X1505823Y54311D01*
X1505833Y54321D01*
X1505871Y54331D01*
X1505928Y54350D01*
X1506014Y54378D01*
X1506109Y54416D01*
X1506233Y54454D01*
X1506366Y54493D01*
X1506519Y54540D01*
X1506690Y54578D01*
X1506880Y54616D01*
X1507071Y54654D01*
X1507280Y54693D01*
X1507500Y54721D01*
X1507728Y54740D01*
X1507966Y54759D01*
X1508595D01*
X1508728Y54750D01*
D02*
G37*
G36*
X1562106Y42129D02*
X1559430D01*
X1555591Y51816D01*
X1558182D01*
X1560192Y46320D01*
X1560792Y44548D01*
X1561382Y46244D01*
X1563411Y51816D01*
X1565916D01*
X1562106Y42129D01*
D02*
G37*
G36*
X1571708Y54578D02*
X1571879Y54569D01*
X1572079Y54550D01*
X1572308Y54521D01*
X1572546Y54493D01*
X1572803Y54454D01*
X1573070Y54407D01*
X1573327Y54350D01*
X1573593Y54273D01*
X1573851Y54188D01*
X1574098Y54092D01*
X1574327Y53978D01*
X1574536Y53845D01*
X1574546Y53835D01*
X1574584Y53807D01*
X1574632Y53769D01*
X1574708Y53702D01*
X1574784Y53626D01*
X1574870Y53531D01*
X1574975Y53416D01*
X1575070Y53283D01*
X1575165Y53130D01*
X1575270Y52969D01*
X1575356Y52778D01*
X1575441Y52578D01*
X1575508Y52359D01*
X1575556Y52121D01*
X1575594Y51864D01*
X1575603Y51587D01*
Y51578D01*
Y51568D01*
Y51511D01*
X1575594Y51416D01*
Y51302D01*
X1575575Y51159D01*
X1575556Y51006D01*
X1575527Y50844D01*
X1575489Y50673D01*
Y50654D01*
X1575470Y50597D01*
X1575441Y50511D01*
X1575413Y50406D01*
X1575365Y50283D01*
X1575308Y50149D01*
X1575232Y50006D01*
X1575156Y49863D01*
X1575146Y49844D01*
X1575117Y49797D01*
X1575070Y49730D01*
X1575003Y49644D01*
X1574917Y49539D01*
X1574822Y49425D01*
X1574708Y49320D01*
X1574584Y49206D01*
X1574565Y49197D01*
X1574527Y49159D01*
X1574451Y49111D01*
X1574355Y49044D01*
X1574232Y48968D01*
X1574098Y48901D01*
X1573946Y48825D01*
X1573775Y48759D01*
X1573793D01*
X1573851Y48739D01*
X1573946Y48720D01*
X1574060Y48692D01*
X1574194Y48654D01*
X1574346Y48597D01*
X1574498Y48530D01*
X1574660Y48454D01*
X1574670D01*
X1574679Y48444D01*
X1574736Y48416D01*
X1574813Y48368D01*
X1574917Y48301D01*
X1575032Y48215D01*
X1575156Y48120D01*
X1575279Y48006D01*
X1575403Y47873D01*
X1575422Y47854D01*
X1575460Y47806D01*
X1575518Y47739D01*
X1575594Y47635D01*
X1575670Y47511D01*
X1575756Y47368D01*
X1575841Y47206D01*
X1575918Y47034D01*
Y47025D01*
X1575927Y47015D01*
X1575937Y46987D01*
X1575946Y46949D01*
X1575975Y46853D01*
X1576013Y46720D01*
X1576051Y46558D01*
X1576080Y46368D01*
X1576099Y46168D01*
X1576108Y45949D01*
Y45939D01*
Y45929D01*
Y45901D01*
Y45863D01*
X1576099Y45768D01*
X1576089Y45634D01*
X1576070Y45482D01*
X1576041Y45291D01*
X1576003Y45091D01*
X1575946Y44872D01*
X1575880Y44644D01*
X1575794Y44415D01*
X1575689Y44177D01*
X1575565Y43939D01*
X1575422Y43701D01*
X1575251Y43482D01*
X1575051Y43272D01*
X1574822Y43082D01*
X1574803Y43072D01*
X1574765Y43043D01*
X1574689Y42996D01*
X1574584Y42929D01*
X1574451Y42863D01*
X1574289Y42777D01*
X1574098Y42691D01*
X1573879Y42605D01*
X1573641Y42520D01*
X1573365Y42434D01*
X1573060Y42348D01*
X1572727Y42281D01*
X1572374Y42215D01*
X1571984Y42167D01*
X1571574Y42139D01*
X1571136Y42129D01*
X1567336D01*
Y54588D01*
X1571555D01*
X1571708Y54578D01*
D02*
G37*
G36*
X1539027D02*
X1539132D01*
X1539246Y54569D01*
X1539380D01*
X1539523Y54559D01*
X1539665Y54540D01*
X1539980Y54512D01*
X1540304Y54464D01*
X1540627Y54407D01*
X1540637D01*
X1540666Y54397D01*
X1540713Y54388D01*
X1540770Y54378D01*
X1540837Y54359D01*
X1540923Y54331D01*
X1541018Y54302D01*
X1541123Y54273D01*
X1541342Y54188D01*
X1541580Y54092D01*
X1541828Y53969D01*
X1542056Y53826D01*
X1542066D01*
X1542085Y53807D01*
X1542113Y53788D01*
X1542151Y53750D01*
X1542256Y53664D01*
X1542390Y53540D01*
X1542533Y53388D01*
X1542685Y53207D01*
X1542828Y52997D01*
X1542961Y52759D01*
Y52749D01*
X1542971Y52730D01*
X1542990Y52692D01*
X1543009Y52645D01*
X1543037Y52578D01*
X1543066Y52502D01*
X1543094Y52416D01*
X1543123Y52311D01*
X1543152Y52197D01*
X1543180Y52073D01*
X1543209Y51940D01*
X1543237Y51797D01*
X1543275Y51483D01*
X1543285Y51140D01*
Y51130D01*
Y51111D01*
Y51073D01*
Y51025D01*
X1543275Y50968D01*
Y50892D01*
X1543256Y50730D01*
X1543237Y50540D01*
X1543199Y50340D01*
X1543152Y50130D01*
X1543085Y49921D01*
Y49911D01*
X1543075Y49901D01*
X1543066Y49873D01*
X1543047Y49835D01*
X1542999Y49730D01*
X1542942Y49606D01*
X1542856Y49463D01*
X1542761Y49301D01*
X1542647Y49149D01*
X1542523Y48997D01*
X1542504Y48977D01*
X1542456Y48930D01*
X1542380Y48863D01*
X1542275Y48777D01*
X1542151Y48682D01*
X1542009Y48577D01*
X1541837Y48473D01*
X1541656Y48377D01*
X1541647D01*
X1541637Y48368D01*
X1541608Y48358D01*
X1541570Y48339D01*
X1541466Y48301D01*
X1541332Y48244D01*
X1541170Y48197D01*
X1540989Y48139D01*
X1540789Y48082D01*
X1540570Y48044D01*
X1540589D01*
X1540647Y48025D01*
X1540732Y47987D01*
X1540847Y47939D01*
X1540980Y47873D01*
X1541113Y47787D01*
X1541266Y47663D01*
X1541409Y47520D01*
X1541428Y47501D01*
X1541447Y47473D01*
X1541475Y47444D01*
X1541513Y47396D01*
X1541551Y47349D01*
X1541647Y47215D01*
X1541761Y47034D01*
X1541894Y46825D01*
X1542028Y46587D01*
X1542171Y46301D01*
X1544171Y42129D01*
X1541409D01*
X1539656Y46130D01*
Y46139D01*
X1539646Y46158D01*
X1539627Y46187D01*
X1539608Y46225D01*
X1539551Y46330D01*
X1539475Y46453D01*
X1539380Y46587D01*
X1539256Y46730D01*
X1539122Y46873D01*
X1538961Y46987D01*
X1538951D01*
X1538942Y46996D01*
X1538884Y47034D01*
X1538789Y47082D01*
X1538665Y47139D01*
X1538513Y47187D01*
X1538342Y47235D01*
X1538141Y47273D01*
X1537922Y47282D01*
X1537475D01*
Y42129D01*
X1535132D01*
Y54588D01*
X1538932D01*
X1539027Y54578D01*
D02*
G37*
G36*
X1518034D02*
X1518206Y54569D01*
X1518406Y54550D01*
X1518634Y54521D01*
X1518872Y54493D01*
X1519130Y54454D01*
X1519396Y54407D01*
X1519653Y54350D01*
X1519920Y54273D01*
X1520177Y54188D01*
X1520425Y54092D01*
X1520654Y53978D01*
X1520863Y53845D01*
X1520873Y53835D01*
X1520911Y53807D01*
X1520958Y53769D01*
X1521035Y53702D01*
X1521111Y53626D01*
X1521196Y53531D01*
X1521301Y53416D01*
X1521396Y53283D01*
X1521492Y53130D01*
X1521597Y52969D01*
X1521682Y52778D01*
X1521768Y52578D01*
X1521835Y52359D01*
X1521882Y52121D01*
X1521920Y51864D01*
X1521930Y51587D01*
Y51578D01*
Y51568D01*
Y51511D01*
X1521920Y51416D01*
Y51302D01*
X1521901Y51159D01*
X1521882Y51006D01*
X1521854Y50844D01*
X1521816Y50673D01*
Y50654D01*
X1521797Y50597D01*
X1521768Y50511D01*
X1521739Y50406D01*
X1521692Y50283D01*
X1521635Y50149D01*
X1521558Y50006D01*
X1521482Y49863D01*
X1521473Y49844D01*
X1521444Y49797D01*
X1521396Y49730D01*
X1521330Y49644D01*
X1521244Y49539D01*
X1521149Y49425D01*
X1521035Y49320D01*
X1520911Y49206D01*
X1520892Y49197D01*
X1520854Y49159D01*
X1520777Y49111D01*
X1520682Y49044D01*
X1520558Y48968D01*
X1520425Y48901D01*
X1520273Y48825D01*
X1520101Y48759D01*
X1520120D01*
X1520177Y48739D01*
X1520273Y48720D01*
X1520387Y48692D01*
X1520520Y48654D01*
X1520673Y48597D01*
X1520825Y48530D01*
X1520987Y48454D01*
X1520997D01*
X1521006Y48444D01*
X1521063Y48416D01*
X1521139Y48368D01*
X1521244Y48301D01*
X1521358Y48215D01*
X1521482Y48120D01*
X1521606Y48006D01*
X1521730Y47873D01*
X1521749Y47854D01*
X1521787Y47806D01*
X1521844Y47739D01*
X1521920Y47635D01*
X1521997Y47511D01*
X1522082Y47368D01*
X1522168Y47206D01*
X1522244Y47034D01*
Y47025D01*
X1522254Y47015D01*
X1522263Y46987D01*
X1522273Y46949D01*
X1522301Y46853D01*
X1522339Y46720D01*
X1522378Y46558D01*
X1522406Y46368D01*
X1522425Y46168D01*
X1522435Y45949D01*
Y45939D01*
Y45929D01*
Y45901D01*
Y45863D01*
X1522425Y45768D01*
X1522416Y45634D01*
X1522397Y45482D01*
X1522368Y45291D01*
X1522330Y45091D01*
X1522273Y44872D01*
X1522206Y44644D01*
X1522120Y44415D01*
X1522016Y44177D01*
X1521892Y43939D01*
X1521749Y43701D01*
X1521577Y43482D01*
X1521377Y43272D01*
X1521149Y43082D01*
X1521130Y43072D01*
X1521092Y43043D01*
X1521015Y42996D01*
X1520911Y42929D01*
X1520777Y42863D01*
X1520615Y42777D01*
X1520425Y42691D01*
X1520206Y42605D01*
X1519968Y42520D01*
X1519691Y42434D01*
X1519387Y42348D01*
X1519053Y42281D01*
X1518701Y42215D01*
X1518310Y42167D01*
X1517901Y42139D01*
X1517463Y42129D01*
X1513662D01*
Y54588D01*
X1517882D01*
X1518034Y54578D01*
D02*
G37*
G36*
X1496203D02*
X1496327D01*
X1496470Y54569D01*
X1496622Y54559D01*
X1496784Y54540D01*
X1496955Y54521D01*
X1497308Y54474D01*
X1497679Y54407D01*
X1498032Y54321D01*
X1498041D01*
X1498070Y54311D01*
X1498127Y54292D01*
X1498184Y54273D01*
X1498270Y54245D01*
X1498365Y54216D01*
X1498460Y54178D01*
X1498575Y54131D01*
X1498822Y54026D01*
X1499089Y53892D01*
X1499346Y53740D01*
X1499594Y53559D01*
X1499603Y53549D01*
X1499622Y53540D01*
X1499651Y53511D01*
X1499698Y53473D01*
X1499756Y53416D01*
X1499813Y53359D01*
X1499956Y53216D01*
X1500108Y53035D01*
X1500270Y52816D01*
X1500432Y52578D01*
X1500565Y52311D01*
Y52302D01*
X1500584Y52273D01*
X1500594Y52235D01*
X1500623Y52178D01*
X1500641Y52111D01*
X1500670Y52025D01*
X1500699Y51930D01*
X1500737Y51825D01*
X1500765Y51702D01*
X1500794Y51568D01*
X1500822Y51435D01*
X1500851Y51283D01*
X1500889Y50959D01*
X1500899Y50616D01*
Y50606D01*
Y50568D01*
Y50521D01*
X1500889Y50454D01*
Y50368D01*
X1500880Y50263D01*
X1500870Y50149D01*
X1500861Y50025D01*
X1500842Y49892D01*
X1500813Y49749D01*
X1500756Y49444D01*
X1500680Y49130D01*
X1500565Y48816D01*
Y48806D01*
X1500546Y48777D01*
X1500527Y48739D01*
X1500508Y48682D01*
X1500470Y48606D01*
X1500432Y48520D01*
X1500384Y48435D01*
X1500327Y48330D01*
X1500184Y48111D01*
X1500022Y47873D01*
X1499832Y47635D01*
X1499603Y47396D01*
X1499594Y47387D01*
X1499575Y47368D01*
X1499537Y47339D01*
X1499489Y47301D01*
X1499422Y47244D01*
X1499356Y47187D01*
X1499260Y47120D01*
X1499165Y47053D01*
X1499051Y46977D01*
X1498936Y46901D01*
X1498803Y46825D01*
X1498660Y46749D01*
X1498356Y46596D01*
X1498013Y46463D01*
X1498003D01*
X1497965Y46453D01*
X1497917Y46434D01*
X1497841Y46415D01*
X1497755Y46387D01*
X1497641Y46358D01*
X1497517Y46330D01*
X1497384Y46301D01*
X1497222Y46263D01*
X1497051Y46234D01*
X1496870Y46206D01*
X1496679Y46187D01*
X1496470Y46158D01*
X1496260Y46149D01*
X1495803Y46130D01*
X1494612D01*
Y42129D01*
X1492250D01*
Y54588D01*
X1496098D01*
X1496203Y54578D01*
D02*
G37*
G36*
X1550429Y52016D02*
X1550533Y52007D01*
X1550648Y51997D01*
X1550772Y51987D01*
X1551057Y51949D01*
X1551362Y51892D01*
X1551676Y51807D01*
X1551981Y51702D01*
X1551991D01*
X1552019Y51683D01*
X1552057Y51664D01*
X1552115Y51645D01*
X1552181Y51606D01*
X1552258Y51568D01*
X1552448Y51473D01*
X1552648Y51340D01*
X1552877Y51187D01*
X1553096Y51006D01*
X1553305Y50806D01*
X1553315Y50797D01*
X1553324Y50778D01*
X1553353Y50749D01*
X1553391Y50702D01*
X1553439Y50654D01*
X1553486Y50587D01*
X1553543Y50511D01*
X1553610Y50425D01*
X1553734Y50225D01*
X1553877Y49987D01*
X1554001Y49730D01*
X1554115Y49444D01*
Y49435D01*
X1554124Y49406D01*
X1554143Y49368D01*
X1554162Y49311D01*
X1554182Y49235D01*
X1554210Y49149D01*
X1554229Y49044D01*
X1554258Y48930D01*
X1554286Y48806D01*
X1554315Y48673D01*
X1554353Y48377D01*
X1554391Y48054D01*
X1554401Y47711D01*
Y47701D01*
Y47673D01*
Y47615D01*
Y47549D01*
Y47454D01*
X1554391Y47349D01*
Y47225D01*
X1554382Y47092D01*
Y47073D01*
Y47025D01*
Y46958D01*
X1554372Y46863D01*
Y46749D01*
X1554362Y46634D01*
X1554344Y46377D01*
X1547971D01*
Y46368D01*
Y46349D01*
Y46320D01*
Y46272D01*
X1547981Y46215D01*
Y46149D01*
X1548000Y45996D01*
X1548019Y45825D01*
X1548047Y45634D01*
X1548095Y45444D01*
X1548162Y45253D01*
Y45244D01*
X1548171Y45234D01*
X1548200Y45177D01*
X1548248Y45082D01*
X1548305Y44967D01*
X1548381Y44844D01*
X1548476Y44701D01*
X1548590Y44567D01*
X1548714Y44434D01*
X1548733Y44425D01*
X1548781Y44377D01*
X1548857Y44320D01*
X1548962Y44253D01*
X1549086Y44167D01*
X1549229Y44091D01*
X1549391Y44005D01*
X1549571Y43939D01*
X1549581D01*
X1549590Y43929D01*
X1549619Y43920D01*
X1549657Y43910D01*
X1549762Y43882D01*
X1549905Y43853D01*
X1550067Y43825D01*
X1550257Y43796D01*
X1550467Y43777D01*
X1550686Y43767D01*
X1550876D01*
X1550953Y43777D01*
X1551143D01*
X1551362Y43796D01*
X1551619Y43815D01*
X1551896Y43834D01*
X1552191Y43872D01*
X1552200D01*
X1552229Y43882D01*
X1552267D01*
X1552334Y43891D01*
X1552410Y43910D01*
X1552496Y43920D01*
X1552591Y43939D01*
X1552705Y43958D01*
X1552829Y43987D01*
X1552953Y44015D01*
X1553239Y44072D01*
X1553543Y44148D01*
X1553867Y44234D01*
Y42386D01*
X1553848D01*
X1553801Y42367D01*
X1553724Y42348D01*
X1553629Y42320D01*
X1553505Y42291D01*
X1553372Y42262D01*
X1553219Y42224D01*
X1553058Y42196D01*
X1553038D01*
X1552981Y42186D01*
X1552896Y42167D01*
X1552781Y42148D01*
X1552648Y42119D01*
X1552496Y42091D01*
X1552334Y42072D01*
X1552162Y42043D01*
X1552143D01*
X1552086Y42034D01*
X1551991Y42024D01*
X1551877Y42005D01*
X1551734Y41996D01*
X1551581Y41977D01*
X1551410Y41958D01*
X1551238Y41948D01*
X1551219D01*
X1551162Y41939D01*
X1551067D01*
X1550953Y41929D01*
X1550810Y41919D01*
X1550657D01*
X1550333Y41910D01*
X1550229D01*
X1550143Y41919D01*
X1550048D01*
X1549933Y41929D01*
X1549810Y41939D01*
X1549676Y41948D01*
X1549524Y41967D01*
X1549362Y41986D01*
X1549028Y42043D01*
X1548686Y42119D01*
X1548352Y42224D01*
X1548343D01*
X1548314Y42243D01*
X1548266Y42253D01*
X1548209Y42281D01*
X1548133Y42320D01*
X1548047Y42358D01*
X1547943Y42405D01*
X1547838Y42463D01*
X1547609Y42586D01*
X1547352Y42748D01*
X1547104Y42929D01*
X1546866Y43148D01*
X1546857Y43158D01*
X1546838Y43177D01*
X1546809Y43215D01*
X1546771Y43263D01*
X1546714Y43320D01*
X1546657Y43396D01*
X1546590Y43472D01*
X1546523Y43567D01*
X1546447Y43682D01*
X1546371Y43796D01*
X1546295Y43920D01*
X1546219Y44053D01*
X1546066Y44348D01*
X1545933Y44672D01*
Y44682D01*
X1545923Y44710D01*
X1545904Y44767D01*
X1545885Y44834D01*
X1545857Y44920D01*
X1545828Y45025D01*
X1545800Y45139D01*
X1545771Y45272D01*
X1545742Y45425D01*
X1545714Y45577D01*
X1545685Y45758D01*
X1545657Y45939D01*
X1545638Y46130D01*
X1545619Y46339D01*
X1545609Y46768D01*
Y46777D01*
Y46825D01*
Y46882D01*
X1545619Y46968D01*
Y47073D01*
X1545628Y47196D01*
X1545638Y47330D01*
X1545647Y47482D01*
X1545666Y47644D01*
X1545685Y47806D01*
X1545742Y48168D01*
X1545828Y48539D01*
X1545933Y48911D01*
Y48920D01*
X1545952Y48959D01*
X1545971Y49006D01*
X1545990Y49073D01*
X1546028Y49159D01*
X1546066Y49254D01*
X1546114Y49368D01*
X1546171Y49482D01*
X1546295Y49739D01*
X1546457Y50016D01*
X1546638Y50301D01*
X1546847Y50568D01*
X1546857Y50578D01*
X1546876Y50597D01*
X1546904Y50635D01*
X1546952Y50683D01*
X1547009Y50740D01*
X1547076Y50806D01*
X1547162Y50883D01*
X1547247Y50968D01*
X1547343Y51045D01*
X1547457Y51140D01*
X1547695Y51321D01*
X1547971Y51492D01*
X1548276Y51645D01*
X1548286D01*
X1548314Y51664D01*
X1548362Y51683D01*
X1548428Y51702D01*
X1548505Y51730D01*
X1548600Y51768D01*
X1548705Y51797D01*
X1548828Y51835D01*
X1548962Y51873D01*
X1549105Y51902D01*
X1549267Y51940D01*
X1549429Y51968D01*
X1549781Y52007D01*
X1550162Y52025D01*
X1550333D01*
X1550429Y52016D01*
D02*
G37*
%LPC*%
G36*
X1571279Y52730D02*
X1569660D01*
Y49425D01*
X1571174D01*
X1571279Y49435D01*
X1571412Y49444D01*
X1571565Y49454D01*
X1571727Y49482D01*
X1571888Y49511D01*
X1572041Y49559D01*
X1572060Y49568D01*
X1572108Y49587D01*
X1572184Y49616D01*
X1572269Y49663D01*
X1572374Y49711D01*
X1572479Y49778D01*
X1572593Y49854D01*
X1572689Y49940D01*
X1572698Y49949D01*
X1572727Y49987D01*
X1572774Y50035D01*
X1572832Y50101D01*
X1572889Y50187D01*
X1572946Y50283D01*
X1573003Y50387D01*
X1573051Y50501D01*
X1573060Y50521D01*
X1573070Y50559D01*
X1573089Y50616D01*
X1573108Y50702D01*
X1573127Y50806D01*
X1573146Y50921D01*
X1573165Y51045D01*
Y51178D01*
Y51197D01*
Y51235D01*
X1573155Y51302D01*
Y51387D01*
X1573136Y51492D01*
X1573117Y51597D01*
X1573089Y51711D01*
X1573051Y51816D01*
X1573041Y51825D01*
X1573031Y51864D01*
X1573003Y51921D01*
X1572965Y51987D01*
X1572908Y52064D01*
X1572850Y52149D01*
X1572765Y52235D01*
X1572679Y52311D01*
X1572670Y52321D01*
X1572632Y52340D01*
X1572584Y52378D01*
X1572508Y52426D01*
X1572412Y52473D01*
X1572298Y52521D01*
X1572174Y52568D01*
X1572031Y52616D01*
X1572012Y52626D01*
X1571965Y52635D01*
X1571879Y52654D01*
X1571765Y52673D01*
X1571631Y52692D01*
X1571469Y52711D01*
X1571279Y52730D01*
D02*
G37*
G36*
X1571117Y47635D02*
X1569660D01*
Y44044D01*
X1571393D01*
X1571498Y44053D01*
X1571631Y44063D01*
X1571784Y44082D01*
X1571946Y44101D01*
X1572117Y44139D01*
X1572279Y44187D01*
X1572289D01*
X1572298Y44196D01*
X1572355Y44215D01*
X1572431Y44244D01*
X1572527Y44291D01*
X1572641Y44348D01*
X1572765Y44415D01*
X1572879Y44491D01*
X1572993Y44577D01*
X1573003Y44587D01*
X1573041Y44625D01*
X1573089Y44672D01*
X1573155Y44748D01*
X1573222Y44834D01*
X1573298Y44939D01*
X1573365Y45053D01*
X1573422Y45177D01*
X1573432Y45196D01*
X1573451Y45234D01*
X1573470Y45310D01*
X1573498Y45396D01*
X1573527Y45510D01*
X1573555Y45634D01*
X1573565Y45768D01*
X1573574Y45911D01*
Y45920D01*
Y45949D01*
Y45987D01*
X1573565Y46044D01*
X1573555Y46111D01*
X1573546Y46187D01*
X1573498Y46377D01*
X1573422Y46577D01*
X1573374Y46682D01*
X1573317Y46787D01*
X1573251Y46892D01*
X1573165Y46996D01*
X1573070Y47092D01*
X1572965Y47177D01*
X1572955Y47187D01*
X1572936Y47196D01*
X1572898Y47215D01*
X1572850Y47253D01*
X1572784Y47282D01*
X1572708Y47320D01*
X1572612Y47368D01*
X1572508Y47406D01*
X1572384Y47454D01*
X1572251Y47492D01*
X1572098Y47530D01*
X1571936Y47568D01*
X1571755Y47596D01*
X1571555Y47615D01*
X1571346Y47625D01*
X1571117Y47635D01*
D02*
G37*
G36*
X1538713Y52635D02*
X1537475D01*
Y49111D01*
X1538522D01*
X1538618Y49120D01*
X1538751Y49130D01*
X1538903Y49139D01*
X1539075Y49159D01*
X1539237Y49187D01*
X1539408Y49225D01*
X1539418D01*
X1539427Y49235D01*
X1539485Y49244D01*
X1539570Y49273D01*
X1539675Y49311D01*
X1539789Y49359D01*
X1539923Y49416D01*
X1540046Y49492D01*
X1540170Y49568D01*
X1540180Y49578D01*
X1540218Y49606D01*
X1540275Y49654D01*
X1540351Y49721D01*
X1540427Y49806D01*
X1540504Y49901D01*
X1540589Y50006D01*
X1540656Y50130D01*
X1540666Y50149D01*
X1540685Y50187D01*
X1540713Y50263D01*
X1540742Y50359D01*
X1540770Y50473D01*
X1540799Y50606D01*
X1540818Y50749D01*
X1540827Y50911D01*
Y50921D01*
Y50949D01*
Y50997D01*
X1540818Y51063D01*
X1540808Y51140D01*
X1540799Y51225D01*
X1540751Y51425D01*
X1540685Y51645D01*
X1540637Y51749D01*
X1540580Y51864D01*
X1540513Y51968D01*
X1540437Y52064D01*
X1540351Y52159D01*
X1540246Y52235D01*
X1540237Y52245D01*
X1540218Y52254D01*
X1540189Y52273D01*
X1540142Y52302D01*
X1540075Y52330D01*
X1539999Y52359D01*
X1539913Y52397D01*
X1539808Y52435D01*
X1539694Y52473D01*
X1539570Y52511D01*
X1539427Y52540D01*
X1539265Y52568D01*
X1539094Y52597D01*
X1538913Y52616D01*
X1538713Y52635D01*
D02*
G37*
G36*
X1517606Y52730D02*
X1515986D01*
Y49425D01*
X1517501D01*
X1517606Y49435D01*
X1517739Y49444D01*
X1517891Y49454D01*
X1518053Y49482D01*
X1518215Y49511D01*
X1518368Y49559D01*
X1518387Y49568D01*
X1518434Y49587D01*
X1518510Y49616D01*
X1518596Y49663D01*
X1518701Y49711D01*
X1518806Y49778D01*
X1518920Y49854D01*
X1519015Y49940D01*
X1519025Y49949D01*
X1519053Y49987D01*
X1519101Y50035D01*
X1519158Y50101D01*
X1519215Y50187D01*
X1519272Y50283D01*
X1519330Y50387D01*
X1519377Y50501D01*
X1519387Y50521D01*
X1519396Y50559D01*
X1519415Y50616D01*
X1519434Y50702D01*
X1519453Y50806D01*
X1519473Y50921D01*
X1519491Y51045D01*
Y51178D01*
Y51197D01*
Y51235D01*
X1519482Y51302D01*
Y51387D01*
X1519463Y51492D01*
X1519444Y51597D01*
X1519415Y51711D01*
X1519377Y51816D01*
X1519368Y51825D01*
X1519358Y51864D01*
X1519330Y51921D01*
X1519292Y51987D01*
X1519234Y52064D01*
X1519177Y52149D01*
X1519091Y52235D01*
X1519006Y52311D01*
X1518996Y52321D01*
X1518958Y52340D01*
X1518911Y52378D01*
X1518834Y52426D01*
X1518739Y52473D01*
X1518625Y52521D01*
X1518501Y52568D01*
X1518358Y52616D01*
X1518339Y52626D01*
X1518291Y52635D01*
X1518206Y52654D01*
X1518091Y52673D01*
X1517958Y52692D01*
X1517796Y52711D01*
X1517606Y52730D01*
D02*
G37*
G36*
X1517444Y47635D02*
X1515986D01*
Y44044D01*
X1517720D01*
X1517825Y44053D01*
X1517958Y44063D01*
X1518110Y44082D01*
X1518272Y44101D01*
X1518444Y44139D01*
X1518606Y44187D01*
X1518615D01*
X1518625Y44196D01*
X1518682Y44215D01*
X1518758Y44244D01*
X1518853Y44291D01*
X1518968Y44348D01*
X1519091Y44415D01*
X1519206Y44491D01*
X1519320Y44577D01*
X1519330Y44587D01*
X1519368Y44625D01*
X1519415Y44672D01*
X1519482Y44748D01*
X1519549Y44834D01*
X1519625Y44939D01*
X1519691Y45053D01*
X1519749Y45177D01*
X1519758Y45196D01*
X1519777Y45234D01*
X1519796Y45310D01*
X1519825Y45396D01*
X1519853Y45510D01*
X1519882Y45634D01*
X1519892Y45768D01*
X1519901Y45911D01*
Y45920D01*
Y45949D01*
Y45987D01*
X1519892Y46044D01*
X1519882Y46111D01*
X1519872Y46187D01*
X1519825Y46377D01*
X1519749Y46577D01*
X1519701Y46682D01*
X1519644Y46787D01*
X1519577Y46892D01*
X1519491Y46996D01*
X1519396Y47092D01*
X1519292Y47177D01*
X1519282Y47187D01*
X1519263Y47196D01*
X1519225Y47215D01*
X1519177Y47253D01*
X1519111Y47282D01*
X1519034Y47320D01*
X1518939Y47368D01*
X1518834Y47406D01*
X1518710Y47454D01*
X1518577Y47492D01*
X1518425Y47530D01*
X1518263Y47568D01*
X1518082Y47596D01*
X1517882Y47615D01*
X1517672Y47625D01*
X1517444Y47635D01*
D02*
G37*
G36*
X1495841Y52645D02*
X1494612D01*
Y48073D01*
X1496022D01*
X1496069Y48082D01*
X1496136D01*
X1496279Y48092D01*
X1496451Y48111D01*
X1496631Y48139D01*
X1496812Y48177D01*
X1496993Y48235D01*
X1497003D01*
X1497012Y48244D01*
X1497070Y48263D01*
X1497155Y48301D01*
X1497270Y48358D01*
X1497393Y48425D01*
X1497517Y48511D01*
X1497651Y48606D01*
X1497775Y48720D01*
X1497794Y48739D01*
X1497832Y48777D01*
X1497889Y48844D01*
X1497955Y48930D01*
X1498032Y49044D01*
X1498117Y49168D01*
X1498194Y49311D01*
X1498260Y49473D01*
Y49482D01*
X1498270Y49492D01*
X1498289Y49549D01*
X1498317Y49644D01*
X1498346Y49759D01*
X1498375Y49901D01*
X1498403Y50073D01*
X1498422Y50254D01*
X1498432Y50454D01*
Y50463D01*
Y50473D01*
Y50501D01*
Y50540D01*
X1498422Y50635D01*
X1498413Y50749D01*
X1498394Y50892D01*
X1498365Y51045D01*
X1498327Y51197D01*
X1498270Y51349D01*
Y51359D01*
X1498260Y51368D01*
X1498241Y51416D01*
X1498203Y51492D01*
X1498156Y51587D01*
X1498089Y51702D01*
X1498003Y51816D01*
X1497908Y51930D01*
X1497794Y52045D01*
X1497784Y52054D01*
X1497736Y52092D01*
X1497670Y52149D01*
X1497574Y52216D01*
X1497460Y52283D01*
X1497327Y52359D01*
X1497165Y52426D01*
X1496993Y52492D01*
X1496984D01*
X1496974Y52502D01*
X1496946Y52511D01*
X1496908Y52521D01*
X1496860Y52530D01*
X1496803Y52540D01*
X1496670Y52568D01*
X1496498Y52597D01*
X1496298Y52626D01*
X1496079Y52635D01*
X1495841Y52645D01*
D02*
G37*
G36*
X1550114Y50283D02*
X1550029D01*
X1549971Y50273D01*
X1549895Y50263D01*
X1549810Y50254D01*
X1549714Y50235D01*
X1549610Y50206D01*
X1549381Y50140D01*
X1549257Y50092D01*
X1549143Y50035D01*
X1549019Y49968D01*
X1548895Y49882D01*
X1548781Y49797D01*
X1548676Y49692D01*
X1548667Y49682D01*
X1548647Y49663D01*
X1548629Y49635D01*
X1548590Y49587D01*
X1548543Y49521D01*
X1548495Y49454D01*
X1548438Y49368D01*
X1548381Y49273D01*
X1548324Y49159D01*
X1548266Y49035D01*
X1548209Y48901D01*
X1548162Y48749D01*
X1548114Y48597D01*
X1548067Y48425D01*
X1548038Y48235D01*
X1548009Y48044D01*
X1552029D01*
Y48054D01*
Y48073D01*
Y48101D01*
Y48139D01*
Y48244D01*
X1552019Y48387D01*
X1552000Y48539D01*
X1551972Y48701D01*
X1551934Y48873D01*
X1551886Y49035D01*
Y49044D01*
X1551877Y49054D01*
X1551857Y49111D01*
X1551819Y49187D01*
X1551781Y49282D01*
X1551715Y49397D01*
X1551648Y49511D01*
X1551562Y49635D01*
X1551467Y49739D01*
X1551457Y49749D01*
X1551419Y49787D01*
X1551372Y49835D01*
X1551295Y49892D01*
X1551210Y49959D01*
X1551105Y50025D01*
X1550981Y50092D01*
X1550857Y50149D01*
X1550838Y50159D01*
X1550800Y50168D01*
X1550724Y50187D01*
X1550638Y50216D01*
X1550524Y50244D01*
X1550400Y50263D01*
X1550257Y50273D01*
X1550114Y50283D01*
D02*
G37*
%LPD*%
D13*
X1831935Y391188D02*
X1833423Y389700D01*
X1939100D01*
X1831935Y391188D02*
Y414020D01*
X1818718Y378382D02*
Y434418D01*
X1836420Y452120D01*
X1866900D01*
X1818718Y378382D02*
X1821180Y375920D01*
X2004060D01*
X1939100Y389700D02*
X2011680Y462280D01*
X2024380D01*
X1933535Y414020D02*
X1968500Y448985D01*
Y492760D01*
X1958340Y502920D02*
X1968500Y492760D01*
X1943100Y502920D02*
X1958340D01*
X1866900Y553720D02*
X1897380D01*
X1930400Y490220D02*
X1943100D01*
X1866900Y553720D02*
X1930400Y490220D01*
X2030101Y279400D02*
Y349879D01*
X2004060Y375920D02*
X2030101Y349879D01*
X2015623Y264922D02*
X2030101Y279400D01*
X2002076Y264922D02*
X2015623D01*
X1973096Y235942D02*
X2002076Y264922D01*
X1973096Y153584D02*
Y235942D01*
X1940560Y121048D02*
X1973096Y153584D01*
X1587423Y121048D02*
X1940560D01*
X1334270Y118343D02*
X1584719D01*
X1587423Y121048D01*
X657860Y81280D02*
X709401Y132822D01*
X815039D02*
X819611Y128250D01*
X709401Y132822D02*
X815039D01*
X819611Y128250D02*
X1324364D01*
X1334270Y118343D01*
X510540Y81280D02*
X657860D01*
X456184Y112776D02*
X479044D01*
X510540Y81280D01*
X443484Y125476D02*
X456184Y112776D01*
X443484Y125476D02*
Y144220D01*
X457200Y283464D02*
Y321584D01*
X469900Y334284D01*
Y344880D01*
D15*
X1007372Y514930D02*
X1011745Y519303D01*
X1007372Y485404D02*
Y514930D01*
X1011745Y519303D02*
X1052957D01*
X1372997Y430657D02*
X1450340Y508000D01*
X1330544Y431800D02*
X1331687Y430657D01*
X1313180Y431800D02*
X1330544D01*
X1331687Y430657D02*
X1372997D01*
X1242247Y482600D02*
X1262380D01*
X1313180Y431800D01*
X1353820Y594360D02*
X1354614Y593566D01*
X1356703D01*
X1364277Y585991D01*
Y503030D02*
Y585991D01*
X1343847Y482600D02*
X1364277Y503030D01*
X1332544Y453263D02*
Y511302D01*
X1347022Y525780D01*
X1343847Y441960D02*
Y441960D01*
X1332544Y453263D02*
X1343847Y441960D01*
X1230944Y487805D02*
X1242506Y499367D01*
X1253550Y389179D02*
Y454789D01*
X1243450Y499367D02*
X1255012Y510929D01*
X1230944Y477395D02*
Y487805D01*
Y477395D02*
X1253550Y454789D01*
X1242506Y499367D02*
X1243450D01*
X1237191Y372820D02*
X1253550Y389179D01*
X1099062Y372820D02*
X1237191D01*
X1229039Y421137D02*
Y467446D01*
Y421137D02*
X1231900Y418276D01*
X1222562Y491277D02*
X1229039Y497754D01*
X1222562Y473923D02*
X1229039Y467446D01*
X1222562Y473923D02*
Y491277D01*
X1229039Y497754D02*
Y528599D01*
X1266222Y565782D01*
Y594360D01*
X1245422Y525780D02*
Y525780D01*
X1255012Y510929D02*
Y516189D01*
X1245422Y525780D02*
X1255012Y516189D01*
X1168856Y479604D02*
X1228181Y420279D01*
X1347862Y580866D02*
X1353026D01*
X1343363Y576367D02*
X1347862Y580866D01*
X1343363Y554363D02*
Y576367D01*
X1347022Y525780D02*
Y550704D01*
X1353026Y580866D02*
X1353820Y581660D01*
X1343363Y554363D02*
X1347022Y550704D01*
X1296222Y594360D02*
X1353820D01*
X1282700Y682902D02*
Y762000D01*
X1295273Y595309D02*
X1296222Y594360D01*
X1295273Y595309D02*
Y670329D01*
X1282700Y682902D02*
X1295273Y670329D01*
X1518920Y599160D02*
X1541780Y576300D01*
X895669Y601980D02*
Y760412D01*
X894080Y762000D02*
X895669Y760412D01*
X979080Y489077D02*
X980565D01*
X986663Y495175D02*
Y509716D01*
X975360Y469900D02*
Y485357D01*
X979080Y489077D01*
X980565D02*
X986663Y495175D01*
X975360Y521019D02*
X986663Y509716D01*
X975360Y521019D02*
Y538480D01*
X895669Y580071D02*
X975360Y500380D01*
X895669Y580071D02*
Y601980D01*
X960120D01*
X966078Y588486D02*
X975360Y579204D01*
X960914Y588486D02*
X966078D01*
X975360Y538480D02*
Y579204D01*
X960120Y589280D02*
X960914Y588486D01*
X897486Y469034D02*
Y476654D01*
Y469034D02*
X919480Y447040D01*
X873760Y500380D02*
X897486Y476654D01*
X919480Y447040D02*
X969008D01*
X1007372Y485404D01*
X1052957Y519303D02*
X1064260Y508000D01*
X717550Y410210D02*
X845820Y538480D01*
X510540Y762000D02*
X532384Y740156D01*
Y617220D02*
Y740156D01*
X842809Y624840D02*
X865669Y601980D01*
X713740Y596900D02*
X741680Y624840D01*
X842809D01*
X652780Y508000D02*
X713740Y568960D01*
Y596900D01*
X611757Y410210D02*
X717550D01*
X845820Y538480D02*
X873760D01*
X581438Y603726D02*
X586602D01*
X591101Y599227D01*
X637540Y467360D02*
X678180Y508000D01*
X591101Y562825D02*
Y599227D01*
X534924Y467360D02*
X637540D01*
X481584Y520700D02*
X534924Y467360D01*
X532384Y588012D02*
X583184Y537212D01*
X532384Y588012D02*
Y617220D01*
X583184Y520700D02*
Y537212D01*
Y482600D02*
X601980Y501396D01*
X583184Y553720D02*
X601980Y534924D01*
Y501396D02*
Y534924D01*
X583184Y554908D02*
X591101Y562825D01*
X583184Y553720D02*
Y554908D01*
X580644Y604520D02*
X581438Y603726D01*
X532384Y617220D02*
X580644D01*
X93980Y679026D02*
Y705089D01*
X163406Y609600D02*
X235684D01*
X160020Y624840D02*
X250444D01*
X123260Y661600D02*
Y762000D01*
Y661600D02*
X160020Y624840D01*
X93980Y679026D02*
X163406Y609600D01*
X53180Y745889D02*
X93980Y705089D01*
X250444Y624840D02*
X265684Y609600D01*
X316979Y596143D02*
X317736Y596900D01*
X266775Y596143D02*
X316979D01*
X237052Y566420D02*
X266775Y596143D01*
X157480Y566420D02*
X237052D01*
X155603Y589943D02*
X246028D01*
X265684Y609600D01*
X48260Y762000D02*
X53180Y757080D01*
Y745889D02*
Y757080D01*
X265684Y609600D02*
X317736D01*
X137160Y571500D02*
X155603Y589943D01*
X137160Y553466D02*
Y571500D01*
X93472Y509778D02*
X137160Y553466D01*
X93472Y491744D02*
Y509778D01*
Y491744D02*
X106680Y478536D01*
Y457200D02*
Y478536D01*
Y500380D02*
X157480Y551180D01*
X208280Y457200D02*
X243840D01*
X294640Y508000D01*
X193040Y443738D02*
Y485140D01*
X157480Y551180D02*
Y566420D01*
X1983740Y515620D02*
X1996440D01*
X2049780Y462280D01*
X1843058Y576580D02*
X1922780D01*
X1983740Y515620D01*
X1818718Y552240D02*
X1843058Y576580D01*
X1683861Y552240D02*
X1818718D01*
X310501Y241554D02*
X614662D01*
X317445Y258318D02*
X599850D01*
X623675Y282142D01*
X313973Y249936D02*
X603322D01*
X386930Y266700D02*
X389470Y269240D01*
X603322Y249936D02*
X627147Y273760D01*
X389470Y269240D02*
X598918D01*
X614662Y241554D02*
X633919Y260811D01*
X598918Y269240D02*
X633919Y304240D01*
X623675Y282142D02*
X629666D01*
X627147Y273760D02*
X646684D01*
X629666Y282142D02*
X656844Y309320D01*
X1682361Y541341D02*
Y550740D01*
X1595120Y454100D02*
X1682361Y541341D01*
Y550740D02*
X1683861Y552240D01*
X1542036Y466344D02*
X1560096D01*
X1572340Y454100D02*
X1595120D01*
X1541780Y466600D02*
X1542036Y466344D01*
X1560096D02*
X1572340Y454100D01*
X1541780Y466600D02*
Y576300D01*
X1231900Y416560D02*
Y418276D01*
X831850Y471170D02*
X871220Y431800D01*
X833120Y472440D02*
Y500380D01*
X871220Y431800D02*
X1071880D01*
X1153160Y406500D02*
X1211960D01*
X1231900Y386560D01*
X1071880Y444500D02*
X1115160D01*
X1153160Y406500D01*
X1038860Y508000D02*
X1064360Y482500D01*
X1153160D01*
X1156056Y479604D02*
X1168856D01*
X1153160Y482500D02*
X1156056Y479604D01*
X874518Y372820D02*
X885313Y383615D01*
X833895Y372820D02*
X874518D01*
X1088267Y383615D02*
X1099062Y372820D01*
X804887Y401828D02*
X833895Y372820D01*
X885313Y383615D02*
X1088267D01*
X615229Y401828D02*
X804887D01*
X436880Y457200D02*
Y513080D01*
X479851Y551987D02*
X481584Y553720D01*
X475787Y551987D02*
X479851D01*
X436880Y513080D02*
X475787Y551987D01*
X410139Y452120D02*
X431800D01*
X436880Y457200D01*
X651149Y420009D02*
X731520Y500380D01*
X605212Y420009D02*
X651149D01*
X593655Y415222D02*
Y426127D01*
X613471Y400070D02*
X615229Y401828D01*
X585273Y411750D02*
Y422655D01*
X596953Y400070D02*
X613471D01*
X585273Y411750D02*
X596953Y400070D01*
X593655Y415222D02*
X600425Y408452D01*
X610000D02*
X611757Y410210D01*
X600425Y408452D02*
X610000D01*
X572573Y435356D02*
X585273Y422655D01*
X576045Y443738D02*
X593655Y426127D01*
X546100Y370280D02*
Y371780D01*
X541284Y420415D02*
X558091Y403608D01*
X546100Y371780D02*
X558091Y383771D01*
X424470Y420415D02*
X541284D01*
X558091Y383771D02*
Y403608D01*
X417083Y435356D02*
X572573D01*
X413611Y443738D02*
X576045D01*
X280393Y361151D02*
X285080Y365838D01*
X287358D02*
X291084Y369564D01*
X285080Y365838D02*
X287358D01*
X280393Y327361D02*
Y361151D01*
Y327361D02*
X320696Y287058D01*
X291084Y369564D02*
Y370280D01*
X303886Y383082D01*
X211761Y385213D02*
X251723D01*
X254993Y376629D02*
X263577Y385213D01*
X266700Y344880D02*
Y345805D01*
X263577Y385213D02*
X271072D01*
X254993Y357512D02*
Y376629D01*
X271072Y385213D02*
X282309Y396450D01*
X254993Y357512D02*
X266700Y345805D01*
X282309Y396450D02*
X289314D01*
X291084Y398220D01*
X251723Y385213D02*
X264730Y398220D01*
X265684D01*
Y314088D02*
Y344880D01*
X290642Y433659D02*
X303886Y420415D01*
X203119Y433659D02*
X290642D01*
X139071Y424007D02*
X204240D01*
X208644Y419603D02*
X275532D01*
X204240Y424007D02*
X208644Y419603D01*
X193040Y443738D02*
X203119Y433659D01*
X205740Y379192D02*
X211761Y385213D01*
X205740Y378176D02*
Y379192D01*
X204193Y376629D02*
X205740Y378176D01*
X189484Y346380D02*
X204193Y361089D01*
Y376629D01*
X113284Y398220D02*
X139071Y424007D01*
X160961Y385213D02*
X199907D01*
X189484Y344880D02*
Y346380D01*
X212914Y398220D02*
X214884D01*
X199907Y385213D02*
X212914Y398220D01*
X320696Y284954D02*
Y287058D01*
X319968Y284226D02*
X320696Y284954D01*
X233704Y273760D02*
X290149D01*
X308004Y255905D01*
X313973Y249936D01*
X304532Y247523D02*
X310501Y241554D01*
X291244Y260811D02*
X304532Y247523D01*
X221254Y260811D02*
X291244D01*
X240181Y292683D02*
X283079D01*
X317445Y258318D01*
X138684Y343380D02*
X221254Y260811D01*
X283376Y304240D02*
X320917Y266700D01*
X386930D01*
X275532Y304240D02*
X283376D01*
X193040Y485140D02*
X208280Y500380D01*
X1761152Y300482D02*
X1882735D01*
X1887053Y304800D02*
X2006600D01*
X1723052Y338582D02*
X1761152Y300482D01*
X1882735D02*
X1887053Y304800D01*
X369701Y411682D02*
X410139Y452120D01*
X368093Y398220D02*
X413611Y443738D01*
X392684Y410957D02*
X417083Y435356D01*
X797560Y159460D02*
X822294Y134726D01*
X1382426D02*
X1422400Y174700D01*
X822294Y134726D02*
X1382426D01*
X706900Y324560D02*
X708115Y325775D01*
X712470D01*
X713795Y327100D02*
X862203D01*
X712470Y325775D02*
X713795Y327100D01*
X1347918Y342900D02*
X1352236Y338582D01*
X1346200Y342900D02*
X1347918D01*
X1352236Y338582D02*
X1723052D01*
X1770380Y279400D02*
X2006600D01*
X1333500Y330200D02*
X1719580D01*
X1770380Y279400D01*
X392684Y398220D02*
Y410957D01*
X265684Y314088D02*
X275532Y304240D01*
X1231900Y227800D02*
Y261061D01*
Y179780D02*
Y227800D01*
X1302258Y143458D02*
X1346200Y187400D01*
Y232203D01*
X1422400Y174700D02*
Y227800D01*
X1424565D01*
X1430445Y233680D01*
X1506780D01*
X1325880Y268680D02*
Y280670D01*
X1290320Y299160D02*
X1307390D01*
X1325880Y280670D01*
X1288587Y300893D02*
X1290320Y299160D01*
X1203960Y151840D02*
X1231900Y179780D01*
X1224280Y268680D02*
X1231900Y261061D01*
X839933Y268687D02*
X881685Y226935D01*
X1104054Y200100D02*
X1188520D01*
X1097652Y206502D02*
X1104054Y200100D01*
X1094181Y198120D02*
X1140460Y151840D01*
X878280Y198120D02*
X1094181D01*
X863600Y212800D02*
X878280Y198120D01*
X867690Y222960D02*
X884148Y206502D01*
X1097652D01*
X1188720Y185220D02*
Y299160D01*
X1193800Y177800D02*
Y180141D01*
X1188720Y185220D02*
X1193800Y180141D01*
X1506780Y233680D02*
X1529080Y255980D01*
X1346200Y232203D02*
X1373077Y259080D01*
X1473200D01*
X1529080Y255980D02*
Y274320D01*
X1473200Y259080D02*
X1526159Y312039D01*
X1529080Y316312D02*
Y317668D01*
X1526159Y312039D02*
Y313391D01*
X1529080Y316312D01*
X603781Y179780D02*
X792480D01*
X828802Y143458D02*
X1302258D01*
X792480Y179780D02*
X828802Y143458D01*
X600964Y159460D02*
X797560D01*
X708660Y212800D02*
X863600D01*
X681615Y259916D02*
X718571Y222960D01*
X867690D01*
X672886Y248049D02*
X673412D01*
X708660Y212800D01*
X1140460Y151840D02*
X1203960D01*
X367284Y398220D02*
X368093D01*
X355346Y411682D02*
X369701D01*
X355346Y411682D02*
X355346Y411682D01*
X341884Y398220D02*
X355346Y411682D01*
X862203Y327100D02*
X876300Y313003D01*
X265684Y144220D02*
X301244Y179780D01*
X496824D01*
X291084Y144220D02*
X313944Y167080D01*
X513237D01*
X1427480Y274320D02*
Y317500D01*
X152377Y376629D02*
X160961Y385213D01*
X138684Y344880D02*
X152377Y358573D01*
Y376629D01*
X138684Y343380D02*
Y344880D01*
X164084Y343380D02*
X233704Y273760D01*
X1158240Y319480D02*
X1278980D01*
X1288587Y300893D02*
Y309873D01*
X1278980Y319480D02*
X1288587Y309873D01*
X1117600Y278840D02*
X1158240Y319480D01*
X1084580Y278840D02*
X1117600D01*
X189484Y343380D02*
X240181Y292683D01*
X838200Y276300D02*
Y314400D01*
X839933Y268687D02*
Y274567D01*
X838200Y276300D02*
X839933Y274567D01*
X896620Y326354D02*
Y357580D01*
Y326354D02*
X902100Y320874D01*
Y319480D02*
Y320874D01*
X982980Y278840D02*
X1013460Y309320D01*
X1026160D01*
X939800Y276300D02*
X955040Y261060D01*
X1008380D01*
X1026160Y278840D02*
X1084580D01*
X1008380Y261060D02*
X1026160Y278840D01*
X881380Y276300D02*
X939800D01*
X876300Y281380D02*
X881380Y276300D01*
X876300Y281380D02*
Y313003D01*
X189484Y343380D02*
Y344880D01*
D18*
X1595120Y403300D02*
X1595897Y404078D01*
X1569920Y378100D02*
X1595120Y403300D01*
X1531820Y378100D02*
X1569920D01*
X998220Y357580D02*
X1033611D01*
X951399D02*
X998220D01*
X1352354D02*
X1511300D01*
X113284Y370280D02*
Y371699D01*
X114300Y370280D02*
X138684D01*
X113284D02*
X114300D01*
X113284Y368699D02*
Y370280D01*
X890100Y372058D02*
X936921D01*
X951399Y357580D01*
X1083480Y372058D02*
X1097958Y357580D01*
X1033611D02*
X1048089Y372058D01*
X677164Y333323D02*
X705104Y361263D01*
X879305D01*
X890100Y372058D01*
X1048089D02*
X1083480D01*
X96520Y308483D02*
X175006Y229997D01*
X96520Y350662D02*
X113134Y367277D01*
X96520Y308483D02*
Y350662D01*
X175006Y229997D02*
X494313D01*
X113134Y367277D02*
Y368549D01*
X113284Y368699D01*
X43580Y408395D02*
X79154Y372820D01*
X43580Y408395D02*
Y433780D01*
X494313Y229997D02*
X545084Y179225D01*
X1290320Y357580D02*
X1340046D01*
X1340098Y357632D02*
X1352302D01*
X1352354Y357580D01*
X1340046D02*
X1340098Y357632D01*
X1361440Y269240D02*
Y274160D01*
X1271150Y178950D02*
X1361440Y269240D01*
X677164Y276300D02*
Y333323D01*
X545084Y144220D02*
Y179225D01*
Y144220D02*
X677164Y276300D01*
X1181100Y357580D02*
X1290320D01*
Y345280D02*
X1361440Y274160D01*
X1290320Y345280D02*
Y357580D01*
X1097958D02*
X1178560D01*
X79154Y372820D02*
X110744D01*
X113146Y371838D02*
X113284Y371699D01*
X111727Y371838D02*
X113146D01*
X110744Y372820D02*
X111727Y371838D01*
X1511300Y357580D02*
X1531820Y378100D01*
X545084Y144220D02*
X545639Y143665D01*
X550364Y108660D02*
Y112755D01*
X545639Y117481D02*
X550364Y112755D01*
X545639Y117481D02*
Y143665D01*
D39*
X596900Y370280D02*
D03*
Y344880D02*
D03*
X571500Y370280D02*
D03*
Y344880D02*
D03*
X546100Y370280D02*
D03*
Y344880D02*
D03*
X520700Y370280D02*
D03*
Y344880D02*
D03*
X495300Y370280D02*
D03*
Y344880D02*
D03*
X469900Y370280D02*
D03*
Y344880D02*
D03*
X444500Y370280D02*
D03*
Y344880D02*
D03*
X419100Y370280D02*
D03*
Y344880D02*
D03*
X393700Y370280D02*
D03*
Y344880D02*
D03*
X368300Y370280D02*
D03*
Y344880D02*
D03*
X342900Y370280D02*
D03*
Y344880D02*
D03*
X317500Y370280D02*
D03*
Y344880D02*
D03*
X292100Y370280D02*
D03*
Y344880D02*
D03*
X266700Y370280D02*
D03*
Y344880D02*
D03*
X241300Y370280D02*
D03*
Y344880D02*
D03*
X215900Y370280D02*
D03*
Y344880D02*
D03*
X190500Y370280D02*
D03*
Y344880D02*
D03*
X165100Y370280D02*
D03*
Y344880D02*
D03*
X114300D02*
D03*
Y370280D02*
D03*
X139700Y344880D02*
D03*
Y370280D02*
D03*
D43*
X1473200Y392150D02*
D03*
X1518920Y564160D02*
D03*
D44*
X1473200Y357150D02*
D03*
X1518920Y599160D02*
D03*
D54*
X1892300Y1115060D02*
D03*
Y812240D02*
D03*
Y965200D02*
D03*
D55*
X1300647Y1122680D02*
X1366520Y1056807D01*
X1272513Y1122680D02*
X1300647D01*
X1229333Y1079500D02*
X1272513Y1122680D01*
X1887580Y964920D02*
X1958060D01*
X1874600Y952500D02*
X1887300Y965200D01*
X1958060Y964920D02*
X1958340Y964640D01*
X1887300Y965200D02*
X1887580Y964920D01*
X417830Y877570D02*
X633655D01*
X393324Y902076D02*
X417830Y877570D01*
X393324Y902076D02*
Y949419D01*
X373733Y969010D02*
X393324Y949419D01*
X281940Y969010D02*
X373733D01*
X775810Y942165D02*
Y957941D01*
X760931Y972820D02*
X775810Y957941D01*
X651510Y955040D02*
X669290Y972820D01*
X760931D01*
X775810Y942165D02*
X840405Y877570D01*
X1019810D01*
X1049020Y906780D01*
X1165860Y924560D02*
Y946503D01*
X1216660Y873760D02*
X1422761D01*
X1165860Y924560D02*
X1216660Y873760D01*
X1437640Y888639D02*
Y969010D01*
X1422761Y873760D02*
X1437640Y888639D01*
X1430180Y969052D02*
X1625542D01*
X651510Y895425D02*
Y955040D01*
X633655Y877570D02*
X651510Y895425D01*
X1049020Y906780D02*
Y968850D01*
X1049180D02*
X1143513D01*
X1165860Y946503D01*
X1625542Y969052D02*
X1642094Y952500D01*
X1874600D01*
X1366520Y927302D02*
Y1056807D01*
X1211580Y1079500D02*
X1229333D01*
X985520Y927100D02*
Y1049187D01*
X914727Y1119980D02*
X985520Y1049187D01*
X881193Y1119980D02*
X914727D01*
X840713Y1079500D02*
X881193Y1119980D01*
X822960Y1079500D02*
X840713D01*
X533727Y1119980D02*
X607060Y1046647D01*
X500193Y1119980D02*
X533727D01*
X607060Y929640D02*
Y1046647D01*
X459713Y1079500D02*
X500193Y1119980D01*
X441960Y1079500D02*
X459713D01*
X218440Y927100D02*
Y1059347D01*
X157807Y1119980D02*
X218440Y1059347D01*
X106520Y1119980D02*
X157807D01*
X66040Y1079500D02*
X106520Y1119980D01*
D56*
X1844521Y1091640D02*
X1867940Y1115060D01*
X1892300Y1117040D02*
X1955800D01*
X1867940Y1115060D02*
X1892300D01*
Y812240D02*
X1955800D01*
X1958340Y809700D01*
D57*
X1207700Y652882D02*
X1266222Y594360D01*
X1207700Y652882D02*
Y762000D01*
X819080Y762000D02*
X865669Y715412D01*
Y601980D02*
Y715412D01*
X435540Y684064D02*
X502384Y617220D01*
X435540Y684064D02*
Y762000D01*
D58*
X806728Y112755D02*
X811300Y108183D01*
X730246Y112755D02*
X806728D01*
X1301516Y108183D02*
X1322570Y87130D01*
X808832Y117836D02*
X813404Y113264D01*
X726346Y117836D02*
X808832D01*
X722446Y122915D02*
X810936D01*
X1309317Y118343D02*
X1330370Y97290D01*
X1313217Y123424D02*
X1334270Y102370D01*
X817612Y123424D02*
X1313217D01*
X813404Y113264D02*
X1305417D01*
X811300Y108183D02*
X1301516D01*
X810936Y122915D02*
X815508Y118343D01*
X1309317D01*
X718546Y127996D02*
X813040D01*
X817612Y123424D01*
X1305417Y113264D02*
X1326470Y92210D01*
X334700Y284226D02*
Y286838D01*
X337544Y289682D01*
X661170Y70620D02*
X718546Y127996D01*
X665071Y65540D02*
X722446Y122915D01*
X668971Y60460D02*
X726346Y117836D01*
X672871Y55380D02*
X730246Y112755D01*
X382016Y95250D02*
X467705D01*
X341884Y144220D02*
X343165Y142939D01*
Y134101D02*
X382016Y95250D01*
X343165Y134101D02*
Y142939D01*
X382850Y101600D02*
X470335D01*
X367284Y117166D02*
X382850Y101600D01*
X367284Y117166D02*
Y144220D01*
X316484Y130971D02*
X358556Y88900D01*
X316484Y130971D02*
Y144220D01*
X2029497Y114300D02*
X2038350Y123153D01*
X2034309Y97559D02*
X2053590Y116840D01*
X2043430Y121048D02*
Y166370D01*
X2053590Y116840D02*
Y197415D01*
X2032205Y102639D02*
X2048510Y118944D01*
Y177095D01*
X2038350Y123153D02*
Y146050D01*
X1589899Y107719D02*
X2030101D01*
X1593799Y102639D02*
X2032205D01*
X1597700Y97559D02*
X2034309D01*
X1587500Y114300D02*
X2029497D01*
X2030101Y107719D02*
X2043430Y121048D01*
X2008933Y242072D02*
X2053590Y197415D01*
X2006600Y203200D02*
X2043430Y166370D01*
X2008933Y216672D02*
X2048510Y177095D01*
X2006600Y177800D02*
X2038350Y146050D01*
X1326470Y92210D02*
X1583371D01*
X1322570Y87130D02*
X1587271D01*
X1575570Y102370D02*
X1587500Y114300D01*
X1583371Y92210D02*
X1593799Y102639D01*
X1587271Y87130D02*
X1597700Y97559D01*
X1330370Y97290D02*
X1579471D01*
X1589899Y107719D01*
X358556Y317936D02*
X367284Y326664D01*
X355346Y283464D02*
Y286076D01*
X358556Y289285D01*
Y317936D01*
X374650Y325346D02*
X392684Y343380D01*
X372618Y283464D02*
X374465Y285311D01*
Y289890D01*
X374650Y290075D01*
Y325346D01*
X341884Y340959D02*
Y344880D01*
X337544Y336619D02*
X341884Y340959D01*
X337544Y289682D02*
Y336619D01*
X387350Y283464D02*
Y285355D01*
X443484Y341489D02*
Y344880D01*
X387350Y285355D02*
X443484Y341489D01*
X367284Y326664D02*
Y344880D01*
X392684Y343380D02*
Y344880D01*
X2008933Y242072D02*
Y251667D01*
X2006600Y254000D02*
X2008933Y251667D01*
X2006600Y228600D02*
X2008933Y226267D01*
Y216672D02*
Y226267D01*
X358556Y88900D02*
X465074D01*
X397490Y107950D02*
X472965D01*
X392684Y112755D02*
Y144220D01*
Y112755D02*
X397490Y107950D01*
X1334270Y102370D02*
X1575570D01*
X498594Y55380D02*
X672871D01*
X502494Y60460D02*
X668971D01*
X467705Y95250D02*
X502494Y60460D01*
X506394Y65540D02*
X665071D01*
X470335Y101600D02*
X506394Y65540D01*
X510295Y70620D02*
X661170D01*
X472965Y107950D02*
X510295Y70620D01*
X465074Y88900D02*
X498594Y55380D01*
D59*
X303886Y383082D02*
Y420415D01*
D60*
X1683861Y552240D02*
D03*
X1603861D02*
D03*
Y1002240D02*
D03*
D61*
X1811861D02*
D03*
D62*
X1866900Y553720D02*
D03*
Y452120D02*
D03*
X1897380Y553720D02*
D03*
Y452120D02*
D03*
X1026160Y410920D02*
D03*
Y309320D02*
D03*
X838200Y416000D02*
D03*
Y314400D02*
D03*
D63*
X1943100Y477520D02*
D03*
X580644Y591820D02*
D03*
X1071880Y419100D02*
D03*
X960120Y576580D02*
D03*
X1353820Y568960D02*
D03*
X317736Y584200D02*
D03*
D64*
X1943100Y490220D02*
D03*
Y502920D02*
D03*
X580644Y604520D02*
D03*
Y617220D02*
D03*
X1071880Y431800D02*
D03*
Y444500D02*
D03*
X960120Y589280D02*
D03*
Y601980D02*
D03*
X1353820Y594360D02*
D03*
Y581660D02*
D03*
X317736Y596900D02*
D03*
Y609600D02*
D03*
D65*
X1958340Y809700D02*
D03*
Y964640D02*
D03*
X1955800Y1117040D02*
D03*
D66*
X1051560Y969010D02*
D03*
X988060Y927100D02*
D03*
X1115060D02*
D03*
X281940Y969010D02*
D03*
X218440Y927100D02*
D03*
X345440D02*
D03*
X728980D02*
D03*
X601980D02*
D03*
X665480Y969010D02*
D03*
X1501140Y927100D02*
D03*
X1374140D02*
D03*
X1437640Y969010D02*
D03*
D67*
X141040Y1079500D02*
D03*
X66040D02*
D03*
X516960D02*
D03*
X441960D02*
D03*
X897960D02*
D03*
X822960D02*
D03*
X1211580D02*
D03*
X1286580D02*
D03*
D68*
X48260Y762000D02*
D03*
X123260D02*
D03*
Y962000D02*
D03*
X48260D02*
D03*
X123260Y1012000D02*
D03*
X48260D02*
D03*
X435540Y762000D02*
D03*
X510540D02*
D03*
Y962000D02*
D03*
X435540D02*
D03*
X510540Y1012000D02*
D03*
X435540D02*
D03*
X819080Y762000D02*
D03*
X894080D02*
D03*
Y962000D02*
D03*
X819080D02*
D03*
X894080Y1012000D02*
D03*
X819080D02*
D03*
X1207700Y762000D02*
D03*
X1282700D02*
D03*
Y962000D02*
D03*
X1207700D02*
D03*
X1282700Y1012000D02*
D03*
X1207700D02*
D03*
D69*
X1153160Y406500D02*
D03*
Y482500D02*
D03*
D70*
X481584Y482600D02*
D03*
X583184D02*
D03*
Y553720D02*
D03*
X481584D02*
D03*
Y520700D02*
D03*
X583184D02*
D03*
X833120Y472440D02*
D03*
X731520D02*
D03*
X833120Y500380D02*
D03*
X731520D02*
D03*
X975360Y469900D02*
D03*
X873760D02*
D03*
X975360Y538480D02*
D03*
X873760D02*
D03*
Y500380D02*
D03*
X975360D02*
D03*
X1343847Y441960D02*
D03*
X1242247D02*
D03*
X157480Y566420D02*
D03*
X259080D02*
D03*
X1831935Y414020D02*
D03*
X1933535D02*
D03*
X1427480Y317500D02*
D03*
X1529080D02*
D03*
X1427480Y274320D02*
D03*
X1529080D02*
D03*
X1325880Y268680D02*
D03*
X1224280D02*
D03*
X1290320Y299160D02*
D03*
X1188720D02*
D03*
X939800Y276300D02*
D03*
X838200D02*
D03*
X1076960Y357580D02*
D03*
X1178560D02*
D03*
X1084580Y278840D02*
D03*
X982980D02*
D03*
X896620Y357580D02*
D03*
X998220D02*
D03*
X1245422Y525780D02*
D03*
X1347022D02*
D03*
X1343847Y482600D02*
D03*
X1242247D02*
D03*
X106680Y500380D02*
D03*
X208280D02*
D03*
Y457200D02*
D03*
X106680D02*
D03*
D71*
X652780Y508000D02*
D03*
X678180D02*
D03*
X1038860D02*
D03*
X1064260D02*
D03*
X2049780Y462280D02*
D03*
X2024380D02*
D03*
X1450340Y508000D02*
D03*
X1424940D02*
D03*
X294640D02*
D03*
X269240D02*
D03*
D72*
X502384Y617220D02*
D03*
X532384D02*
D03*
X1231900Y416560D02*
D03*
Y386560D02*
D03*
X865669Y601980D02*
D03*
X895669D02*
D03*
X1296222Y594360D02*
D03*
X1266222D02*
D03*
X265684Y609600D02*
D03*
X235684D02*
D03*
D73*
X1595120Y454100D02*
D03*
D74*
Y428700D02*
D03*
Y403300D02*
D03*
D75*
X1102160Y322020D02*
D03*
X1077160D02*
D03*
X927100Y319480D02*
D03*
X902100D02*
D03*
X1361440Y299160D02*
D03*
Y274160D02*
D03*
X68580Y433780D02*
D03*
X43580D02*
D03*
X575364Y108660D02*
D03*
X550364D02*
D03*
X1541780Y406200D02*
D03*
Y381200D02*
D03*
Y441600D02*
D03*
Y466600D02*
D03*
D76*
X1346200Y227800D02*
D03*
X1384300Y177800D02*
D03*
X1422400Y227800D02*
D03*
X1155700D02*
D03*
X1193800Y177800D02*
D03*
X1231900Y227800D02*
D03*
X996550Y177500D02*
D03*
X1034650Y227500D02*
D03*
X844150Y177500D02*
D03*
X882250Y227500D02*
D03*
D77*
X1460500Y177800D02*
D03*
X1270000D02*
D03*
X1072750Y177500D02*
D03*
X920350D02*
D03*
D78*
X87884Y144220D02*
D03*
D79*
X113284D02*
D03*
X545084D02*
D03*
X138684D02*
D03*
X164084D02*
D03*
X189484D02*
D03*
X214884D02*
D03*
X240284D02*
D03*
X265684D02*
D03*
X291084D02*
D03*
X316484D02*
D03*
X341884D02*
D03*
X367284D02*
D03*
X392684D02*
D03*
X418084D02*
D03*
X443484D02*
D03*
X468884D02*
D03*
X494284D02*
D03*
X519684D02*
D03*
X87884Y398220D02*
D03*
X113284D02*
D03*
X138684D02*
D03*
X164084D02*
D03*
X189484D02*
D03*
X214884D02*
D03*
X240284D02*
D03*
X265684D02*
D03*
X291084D02*
D03*
X316484D02*
D03*
X341884D02*
D03*
X367284D02*
D03*
X392684D02*
D03*
X418084D02*
D03*
X443484D02*
D03*
X468884D02*
D03*
X494284D02*
D03*
X519684D02*
D03*
X545084D02*
D03*
D80*
X2006600Y330200D02*
D03*
Y304800D02*
D03*
Y279400D02*
D03*
Y254000D02*
D03*
Y228600D02*
D03*
Y203200D02*
D03*
Y177800D02*
D03*
D81*
Y152400D02*
D03*
D82*
X1844521Y1091640D02*
D03*
X1619521D02*
D03*
D83*
X1892300Y1089660D02*
D03*
Y1140460D02*
D03*
Y786840D02*
D03*
Y837640D02*
D03*
Y939800D02*
D03*
Y990600D02*
D03*
D84*
X457200Y283464D02*
D03*
X605212Y420009D02*
D03*
X424470Y420415D02*
D03*
X275532Y419603D02*
D03*
X319968Y284226D02*
D03*
X334700D02*
D03*
X355346Y283464D02*
D03*
X372618D02*
D03*
X387350D02*
D03*
X1333500Y330200D02*
D03*
X1346200Y342900D02*
D03*
X706900Y324560D02*
D03*
X672886Y248049D02*
D03*
X681615Y259916D02*
D03*
X656844Y309320D02*
D03*
X603781Y179780D02*
D03*
X496824D02*
D03*
X513237Y167080D02*
D03*
X600964Y159460D02*
D03*
X633919Y260811D02*
D03*
X646684Y273760D02*
D03*
X633919Y304240D02*
D03*
M02*
