M48
;Layer_Color=9474304
;FILE_FORMAT=4:4
METRIC,LZ
;TYPE=PLATED
T01F00S00C0.5000
T02F00S00C0.8000
T03F00S00C0.8128
T04F00S00C0.9000
T05F00S00C1.0000
T06F00S00C1.0160
T07F00S00C1.0400
T08F00S00C1.1500
T09F00S00C1.3000
T10F00S00C1.5000
T11F00S00C1.8000
T12F00S00C2.5000
;TYPE=NON_PLATED
T13F00S00C0.8000
T14F00S00C2.7500
T16F00S00C3.4000
T17F00S00C4.3180
T18F00S00C7.5000
%
T01
X003347Y00284226
X00355346Y00283464
X00372618
X0038735
X00496824Y0017978
X00513237Y0016708
X00600964Y0015946
X00603781Y0017978
X00633919Y00260811
X00646684Y0027376
X00633919Y0030424
X00656844Y0030932
X007069Y0032456
X00678032Y00383921
X00681615Y00259916
X00672886Y00248049
X013335Y003302
X013462Y003429
X0144526Y00372312
X0172466Y00362331
T02
X0004358Y0043378
X0006858
X00550364Y0010866
X00575364
X009021Y0031948
X009271
X0107716Y0032202
X0110216
X0136144Y0029916
Y0027416
X014732Y0035715
Y0039215
X015494Y0041628
Y0045128
X016129Y0043906
Y0046406
Y004031
Y003781
X0182118Y0047752
Y0049022
Y0050292
X014689Y00501624
Y00514324
Y00488924
X010879
Y00501624
Y00514324
X007069
Y00501624
Y00488924
X003259
Y00501624
Y00514324
T03
X0009906Y00435216
X0012081Y00455846
X0022241
X002506
X003522
X0050181
X0060341
X006316
X0063246Y00419397
X0073406
X007332Y00455846
X008382Y00416
X00862203Y0042164
X0088281Y00455846
X0098441
X010126
X0102616Y0041092
X0099822Y0035758
X0102616Y0030932
X0098298Y0027884
X009398Y002763
X008382
Y003144
X0089662Y0035758
X0107696
X0108458Y0027884
X011142Y00455846
X0126381
X0136541
X013936
X014952
X0152908Y003175
Y0027432
X0142748
Y003175
X0132588Y0026868
X0129032Y0029916
X0122428Y0026868
X0118872Y0029916
X0117856Y0035758
X0123698Y00381
X0180086Y0038608
Y0042418
X0190246
Y0038608
X0202438Y0046228
X0204978
X0204724Y00508
Y006096
X0132731Y0050744
X0130191
X0123698Y004826
X0094631Y0050744
X0092091
X00862203Y0052324
X0056531Y0050744
X0053991
X0018431
X0015891
X0009906Y00536816
T04
X012993Y0076144
X013743
X009933
X009183
X006123
X005373
X002313
X001563
T05
X0084415Y001775
X0092035
X0099655
X0107275
X0103465Y002275
X011557Y002278
X0088225Y002275
X012319Y002278
X011938Y001778
X0127
X013843
X014605
X014224Y002278
X013462
X0166878Y004033
Y004287
Y004541
T06
X00113284Y0034488
Y0037028
X00138684
X00164084
X00189484
X00214884
X00240284
X00265684
X00291084
X00316484
X00341884
X00367284
Y0034488
X00341884
X00316484
X00291084
X00265684
X00240284
X00214884
X00189484
X00164084
X00138684
X00392684
X00418084
X00443484
X00468884
X00494284
X00519684
X00545084
X00570484
X00595884
Y0037028
X00570484
X00545084
X00519684
X00494284
X00468884
X00443484
X00418084
X00392684
X020066Y003302
Y003048
Y002794
Y00254
Y002286
Y002032
Y001778
Y001524
T07
X00087884Y0014422
X00113284
X00138684
X00164084
X00189484
X00214884
X00240284
X00265684
X00291084
X00316484
X00341884
X00367284
Y0039822
X00341884
X00316484
X00291084
X00265684
X00240284
X00214884
X00189484
X00164084
X00138684
X00113284
X00087884
X00392684
X00418084
X00443484
X00468884
X00494284
X00519684
X00545084
Y0014422
X00519684
X00494284
X00468884
X00443484
X00418084
X00392684
T08
X0186182Y0047546
Y0050546
X01411346Y00514324
X01381346
X01030346
X01000346
X00649346
X00619346
X00268346
X00238346
T09
X01627Y0053644
X01547
X014689Y0057694
X012489
X010879
X008679
X007069
X004869
X003259
X001059
X01547Y0098644
X015385Y0109164
X017635
X01755Y0098644
T10
X018796Y0078684
Y0083764
Y0093924
Y0099004
Y0109164
Y0114244
T11
X012109Y0069694
X014869
X011059
X008299
X007249
X004489
X003439
X000679
T12
X00142654Y00978102
X00206154Y01020012
X00269654Y00978102
X00523654
X00587154Y01020012
X00650654Y00978102
X00904654
X00968154Y01020012
X01031654Y00978102
X01285654
X01349154Y01020012
X01412654Y00978102
T13
X0194056Y004954
Y005714
T14
X00064684Y0012398
Y0035398
X00644684
Y0012398
T16
X020066Y000762
X012954Y000635
X009525
X000635
X020066Y004064
X000508Y011938
X004318Y0119324
X00762Y011938
X011938
X01524
T17
X019558Y0081224
Y0096464
Y0111704
T18
X0165242Y0005588
X00762
X018415Y005715
Y006985
X011557Y00762
Y004953
X007747
Y00762
X003937Y00762
Y004953
X00254Y011938
X008636
X010922
X01778
M30
