G04*
G04 #@! TF.GenerationSoftware,Altium Limited,Altium Designer,23.7.1 (13)*
G04*
G04 Layer_Color=8388736*
%FSLAX44Y44*%
%MOMM*%
G71*
G04*
G04 #@! TF.SameCoordinates,780004CA-D6C6-4F34-BDD1-A59E27625C77*
G04*
G04*
G04 #@! TF.FilePolarity,Negative*
G04*
G01*
G75*
%ADD24R,4.5080X3.5080*%
G04:AMPARAMS|DCode=25|XSize=0.508mm|YSize=0.508mm|CornerRadius=0mm|HoleSize=0mm|Usage=FLASHONLY|Rotation=0.000|XOffset=0mm|YOffset=0mm|HoleType=Round|Shape=Octagon|*
%AMOCTAGOND25*
4,1,8,0.2540,-0.1270,0.2540,0.1270,0.1270,0.2540,-0.1270,0.2540,-0.2540,0.1270,-0.2540,-0.1270,-0.1270,-0.2540,0.1270,-0.2540,0.2540,-0.1270,0.0*
%
%ADD25OCTAGOND25*%

G04:AMPARAMS|DCode=26|XSize=1.7272mm|YSize=1.7272mm|CornerRadius=0mm|HoleSize=0mm|Usage=FLASHONLY|Rotation=180.000|XOffset=0mm|YOffset=0mm|HoleType=Round|Shape=Octagon|*
%AMOCTAGOND26*
4,1,8,-0.8636,0.4318,-0.8636,-0.4318,-0.4318,-0.8636,0.4318,-0.8636,0.8636,-0.4318,0.8636,0.4318,0.4318,0.8636,-0.4318,0.8636,-0.8636,0.4318,0.0*
%
%ADD26OCTAGOND26*%

%ADD27R,1.5580X1.5580*%
%ADD28C,1.5580*%
%ADD29C,1.7272*%
%ADD30C,2.1580*%
%ADD31C,3.5080*%
%ADD32C,4.5080*%
%ADD33C,2.5080*%
%ADD34R,4.3180X4.3180*%
%ADD35O,1.3000X1.6000*%
%ADD36R,2.0160X2.0160*%
%ADD37C,2.0160*%
G04:AMPARAMS|DCode=38|XSize=2.508mm|YSize=2.508mm|CornerRadius=0mm|HoleSize=0mm|Usage=FLASHONLY|Rotation=0.000|XOffset=0mm|YOffset=0mm|HoleType=Round|Shape=Octagon|*
%AMOCTAGOND38*
4,1,8,1.2540,-0.6270,1.2540,0.6270,0.6270,1.2540,-0.6270,1.2540,-1.2540,0.6270,-1.2540,-0.6270,-0.6270,-1.2540,0.6270,-1.2540,1.2540,-0.6270,0.0*
%
%ADD38OCTAGOND38*%

%ADD39C,1.6580*%
G04:AMPARAMS|DCode=40|XSize=1.7272mm|YSize=1.7272mm|CornerRadius=0mm|HoleSize=0mm|Usage=FLASHONLY|Rotation=90.000|XOffset=0mm|YOffset=0mm|HoleType=Round|Shape=Octagon|*
%AMOCTAGOND40*
4,1,8,0.4318,0.8636,-0.4318,0.8636,-0.8636,0.4318,-0.8636,-0.4318,-0.4318,-0.8636,0.4318,-0.8636,0.8636,-0.4318,0.8636,0.4318,0.4318,0.8636,0.0*
%
%ADD40OCTAGOND40*%

%ADD41R,1.3000X1.3000*%
%ADD42C,1.3000*%
%ADD43C,2.0080*%
G04:AMPARAMS|DCode=44|XSize=2.008mm|YSize=2.008mm|CornerRadius=0.629mm|HoleSize=0mm|Usage=FLASHONLY|Rotation=0.000|XOffset=0mm|YOffset=0mm|HoleType=Round|Shape=RoundedRectangle|*
%AMROUNDEDRECTD44*
21,1,2.0080,0.7500,0,0,0.0*
21,1,0.7500,2.0080,0,0,0.0*
1,1,1.2580,0.3750,-0.3750*
1,1,1.2580,-0.3750,-0.3750*
1,1,1.2580,-0.3750,0.3750*
1,1,1.2580,0.3750,0.3750*
%
%ADD44ROUNDEDRECTD44*%
%ADD45R,2.0680X2.0680*%
%ADD46C,2.0680*%
%ADD47C,2.0320*%
%ADD48R,2.0320X2.0320*%
%ADD49C,2.3080*%
%ADD50R,2.3080X2.3080*%
G04:AMPARAMS|DCode=51|XSize=8.128mm|YSize=8.128mm|CornerRadius=0mm|HoleSize=0mm|Usage=FLASHONLY|Rotation=0.000|XOffset=0mm|YOffset=0mm|HoleType=Round|Shape=Octagon|*
%AMOCTAGOND51*
4,1,8,4.0640,-2.0320,4.0640,2.0320,2.0320,4.0640,-2.0320,4.0640,-4.0640,2.0320,-4.0640,-2.0320,-2.0320,-4.0640,2.0320,-4.0640,4.0640,-2.0320,0.0*
%
%ADD51OCTAGOND51*%

%ADD52C,2.4580*%
%ADD53C,1.7780*%
D24*
X1879600Y1117040D02*
D03*
Y812240D02*
D03*
Y964640D02*
D03*
D25*
X393700Y762000D02*
D03*
X254000Y1193800D02*
D03*
X863600D02*
D03*
X1092200D02*
D03*
X393700Y495300D02*
D03*
X774700D02*
D03*
Y762000D02*
D03*
X1155700Y762000D02*
D03*
Y495300D02*
D03*
X1778000Y1193800D02*
D03*
X1841500Y698500D02*
D03*
Y571500D02*
D03*
X1652420Y55880D02*
D03*
X762000D02*
D03*
X63500Y63500D02*
D03*
X2006600Y406400D02*
D03*
X952500Y63500D02*
D03*
X1295400D02*
D03*
X1524000Y1193800D02*
D03*
X1193800D02*
D03*
X431800Y1193240D02*
D03*
X762000Y1193800D02*
D03*
X50800D02*
D03*
X2006600Y76200D02*
D03*
X1803400Y634440D02*
D03*
X1486900D02*
D03*
X1155700D02*
D03*
X774700D02*
D03*
X392684D02*
D03*
D26*
X734060Y419397D02*
D03*
X632460D02*
D03*
X631600Y455846D02*
D03*
X733200D02*
D03*
X603410D02*
D03*
X501810D02*
D03*
X1800860Y386080D02*
D03*
X1902460D02*
D03*
X1800860Y424180D02*
D03*
X1902460D02*
D03*
X1012600Y455846D02*
D03*
X1114200D02*
D03*
X984410D02*
D03*
X882810D02*
D03*
X1427480Y317500D02*
D03*
X1529080D02*
D03*
X1427480Y274320D02*
D03*
X1529080D02*
D03*
X1325880Y268680D02*
D03*
X1224280D02*
D03*
X1290320Y299160D02*
D03*
X1188720D02*
D03*
X939800Y276300D02*
D03*
X838200D02*
D03*
X1076960Y357580D02*
D03*
X1178560D02*
D03*
X1084580Y278840D02*
D03*
X982980D02*
D03*
X896620Y357580D02*
D03*
X998220D02*
D03*
X1495200Y455846D02*
D03*
X1393600D02*
D03*
X1263810D02*
D03*
X1365410D02*
D03*
X250600D02*
D03*
X352200D02*
D03*
X222410D02*
D03*
X120810D02*
D03*
D27*
X706900Y488924D02*
D03*
X1821180Y477520D02*
D03*
X1087900Y488924D02*
D03*
X1468900D02*
D03*
X325900D02*
D03*
D28*
X706900Y501624D02*
D03*
Y514324D02*
D03*
X1821180Y490220D02*
D03*
Y502920D02*
D03*
X1087900Y501624D02*
D03*
Y514324D02*
D03*
X1468900D02*
D03*
Y501624D02*
D03*
X325900D02*
D03*
Y514324D02*
D03*
D29*
X539910Y507440D02*
D03*
X565310D02*
D03*
X920910D02*
D03*
X946310D02*
D03*
X2049780Y462280D02*
D03*
X2024380D02*
D03*
X1327310Y507440D02*
D03*
X1301910D02*
D03*
X184310D02*
D03*
X158910D02*
D03*
D30*
X619346Y514324D02*
D03*
X649346D02*
D03*
X1861820Y505460D02*
D03*
Y475460D02*
D03*
X1000346Y514324D02*
D03*
X1030346D02*
D03*
X1411346D02*
D03*
X1381346D02*
D03*
X268346D02*
D03*
X238346D02*
D03*
D31*
X486900Y576940D02*
D03*
X706900D02*
D03*
X867900D02*
D03*
X1087900D02*
D03*
X1468900D02*
D03*
X1248900D02*
D03*
X105900D02*
D03*
X325900D02*
D03*
X1879600Y1091640D02*
D03*
Y1142440D02*
D03*
Y786840D02*
D03*
Y837640D02*
D03*
Y939240D02*
D03*
Y990040D02*
D03*
D32*
X724900Y696940D02*
D03*
X448900D02*
D03*
X1105900D02*
D03*
X829900D02*
D03*
X1210900D02*
D03*
X1486900D02*
D03*
X343900D02*
D03*
X67900D02*
D03*
D33*
X612300Y761440D02*
D03*
X537300D02*
D03*
X993300D02*
D03*
X918300D02*
D03*
X1299300D02*
D03*
X1374300D02*
D03*
X231300D02*
D03*
X156300D02*
D03*
D34*
X650654Y978102D02*
D03*
X523654D02*
D03*
X587154Y1020012D02*
D03*
X1031654Y978102D02*
D03*
X904654D02*
D03*
X968154Y1020012D02*
D03*
X1349154D02*
D03*
X1285654Y978102D02*
D03*
X1412654D02*
D03*
X269654D02*
D03*
X142654D02*
D03*
X206154Y1020012D02*
D03*
D35*
X595884Y370280D02*
D03*
Y344880D02*
D03*
X570484Y370280D02*
D03*
Y344880D02*
D03*
X545084Y370280D02*
D03*
Y344880D02*
D03*
X519684Y370280D02*
D03*
Y344880D02*
D03*
X494284Y370280D02*
D03*
Y344880D02*
D03*
X468884Y370280D02*
D03*
Y344880D02*
D03*
X443484Y370280D02*
D03*
Y344880D02*
D03*
X418084Y370280D02*
D03*
Y344880D02*
D03*
X392684Y370280D02*
D03*
Y344880D02*
D03*
X367284Y370280D02*
D03*
Y344880D02*
D03*
X341884Y370280D02*
D03*
Y344880D02*
D03*
X316484Y370280D02*
D03*
Y344880D02*
D03*
X291084Y370280D02*
D03*
Y344880D02*
D03*
X265684Y370280D02*
D03*
Y344880D02*
D03*
X240284Y370280D02*
D03*
Y344880D02*
D03*
X214884Y370280D02*
D03*
Y344880D02*
D03*
X189484Y370280D02*
D03*
Y344880D02*
D03*
X164084Y370280D02*
D03*
Y344880D02*
D03*
X113284D02*
D03*
Y370280D02*
D03*
X138684Y344880D02*
D03*
Y370280D02*
D03*
D36*
X1668780Y454100D02*
D03*
D37*
Y428700D02*
D03*
Y403300D02*
D03*
D38*
X1940560Y571400D02*
D03*
Y495400D02*
D03*
D39*
X1102160Y322020D02*
D03*
X1077160D02*
D03*
X927100Y319480D02*
D03*
X902100D02*
D03*
X1361440Y299160D02*
D03*
Y274160D02*
D03*
X68580Y433780D02*
D03*
X43580D02*
D03*
X575364Y108660D02*
D03*
X550364D02*
D03*
X1612900Y403100D02*
D03*
Y378100D02*
D03*
Y439060D02*
D03*
Y464060D02*
D03*
D40*
X862203Y523240D02*
D03*
Y421640D02*
D03*
X1236980Y482600D02*
D03*
Y381000D02*
D03*
X99060Y536816D02*
D03*
Y435216D02*
D03*
X2047240Y609600D02*
D03*
Y508000D02*
D03*
X1026160Y410920D02*
D03*
Y309320D02*
D03*
X838200Y416000D02*
D03*
Y314400D02*
D03*
D41*
X1473200Y392150D02*
D03*
X1549400Y416280D02*
D03*
D42*
X1473200Y357150D02*
D03*
X1549400Y451280D02*
D03*
D43*
X1346200Y227800D02*
D03*
X1384300Y177800D02*
D03*
X1422400Y227800D02*
D03*
X1155700D02*
D03*
X1193800Y177800D02*
D03*
X1231900Y227800D02*
D03*
X996550Y177500D02*
D03*
X1034650Y227500D02*
D03*
X844150Y177500D02*
D03*
X882250Y227500D02*
D03*
D44*
X1460500Y177800D02*
D03*
X1270000D02*
D03*
X1072750Y177500D02*
D03*
X920350D02*
D03*
D45*
X87884Y144220D02*
D03*
D46*
X113284D02*
D03*
X545084D02*
D03*
X138684D02*
D03*
X164084D02*
D03*
X189484D02*
D03*
X214884D02*
D03*
X240284D02*
D03*
X265684D02*
D03*
X291084D02*
D03*
X316484D02*
D03*
X341884D02*
D03*
X367284D02*
D03*
X392684D02*
D03*
X418084D02*
D03*
X443484D02*
D03*
X468884D02*
D03*
X494284D02*
D03*
X519684D02*
D03*
X87884Y398220D02*
D03*
X113284D02*
D03*
X138684D02*
D03*
X164084D02*
D03*
X189484D02*
D03*
X214884D02*
D03*
X240284D02*
D03*
X265684D02*
D03*
X291084D02*
D03*
X316484D02*
D03*
X341884D02*
D03*
X367284D02*
D03*
X392684D02*
D03*
X418084D02*
D03*
X443484D02*
D03*
X468884D02*
D03*
X494284D02*
D03*
X519684D02*
D03*
X545084D02*
D03*
D47*
X2006600Y330200D02*
D03*
Y304800D02*
D03*
Y279400D02*
D03*
Y254000D02*
D03*
Y228600D02*
D03*
Y203200D02*
D03*
Y177800D02*
D03*
D48*
Y152400D02*
D03*
D49*
X1627000Y536440D02*
D03*
X1547000D02*
D03*
Y986440D02*
D03*
D50*
X1755000D02*
D03*
D51*
X1955800Y1117040D02*
D03*
Y812240D02*
D03*
Y964640D02*
D03*
D52*
X1763500Y1091640D02*
D03*
X1538500D02*
D03*
D53*
X1724660Y362331D02*
D03*
X678032Y383921D02*
D03*
X1445260Y372312D02*
D03*
X334700Y284226D02*
D03*
X355346Y283464D02*
D03*
X372618D02*
D03*
X387350D02*
D03*
X1333500Y330200D02*
D03*
X1346200Y342900D02*
D03*
X706900Y324560D02*
D03*
X672886Y248049D02*
D03*
X681615Y259916D02*
D03*
X656844Y309320D02*
D03*
X603781Y179780D02*
D03*
X496824D02*
D03*
X513237Y167080D02*
D03*
X600964Y159460D02*
D03*
X633919Y260811D02*
D03*
X646684Y273760D02*
D03*
X633919Y304240D02*
D03*
M02*
