**ABCDEFGHIJKLMNOPQRSTUVWXYZabcdefghijklmnopqrstuvwxyz**************************
**PARASOLID !"#$%&'()*+,-./:;<=>?@[\]^_`{|}~0123456789**************************
**PART1;
MC=AMD64;
MC_MODEL=Intel64 Family 6 Model 154 Stepping 3, GenuineIntel;
MC_ID=unknown;
OS=Windows_NT;
OS_RELEASE=unknown;
FRU=CAD Exchanger 3.13.0 (cadexchanger.com);
APPL=unknown;
SITE=unknown;
USER=unknown;
FORMAT=text;
GUISE=transmit;
KEY=CONV_P7805-2000_CMP-214-000001-1;
FILE=CONV_P7805-2000_CMP-214-000001-1.x_t;
DATE=Mon Jul 31 20:57:18 2023;
**PART2;
SCH=SCH_1200000_12103;
USFLD_SIZE=0;
**PART3;
**END_OF_HEADER*****************************************************************
T51 : TRANSMIT FILE created by modeller version 120000017 SCH_1200000_121030 74
 4 1 4 0 2 105 206 307 12 2 68 0 3 0 0 0 0 1000.0 1.0e-08 0 0 0 1 0 1 1 12 14 20
 18 9 19 17 70 3 0 2 0 0 4 1 20 0 4 4 1 T74 20 4 1 0 5 0 0 0 0 0 0 0 0 0 0 0 0 0
 0 0 0 0 0 0 81 1 5 7 6 13 0 0 42 0 8 80 1 6 0 7 8001 0 0 0 0 3 5 0 0 0 FFFFTFTF
FFFFFF2 79 15 7 SDL/TYSA_COLOUR83 3 8 1.0 1.0 0.0 19 9 1 0 2 11 0 10 V13 10 2 0
 2 0 0 0 0 9 13 19 11 3 0 2 0 9 12 S13 12 4 0 2 0 13 0 0 11 0 14 13 5 5 1.0e-08
 40 0 15 12 14 -0 0 40 0 10 50 14 6 0 13 41 0 0 +0.0027940000000001 6.3000743093
63124e-05 5.1277157727826506e-04 6.982962688392468e-15 4.3711390001862416e-08 -0
.9999999999999992 -1.0 2.4492966506447567e-16 -6.9829626776862596e-15 15 15 8 0
 16 13 0 17 16 0 15 24 36 17 21 19 0 29 -18 17 9 0 16 0 22 18 ?2 29 18 10 0 17 2
3 0 0.0024440000000001 2.1300074309363071e-04 5.1277158383497223e-04 16 19 11 0
 ?21 0 27 20 0 0 2 30 20 12 0 19 28 0 0 +0.0024440000000001 2.1300074309363071e-
04 5.1277158383497223e-04 1.0 -2.4492966506447567e-16 6.9829626776862596e-15 17
 21 0 65 60 72 22 16 19 0 36 +18 22 13 0 21 17 25 23 ?2 29 23 14 0 22 26 18 0.00
31440000000001 2.1300074309363071e-04 5.1277158383497934e-04 17 24 0 15 30 16 25
 29 27 0 35 -18 25 15 0 24 22 31 26 ?2 29 26 16 0 25 32 23 0.0024440000000001 -8
.6999256906368672e-05 5.1277157072155433e-04 16 27 17 0 ?29 19 33 28 0 0 2 30 28
 18 0 27 34 20 0 +0.0024440000000001 -8.6999256906368672e-05 5.1277157072155433e
-04 2.4492935982947044e-16 0.9999999999999992 4.3711390001862416e-08 17 29 0 80
 75 87 17 24 27 0 72 +17 30 0 15 36 24 31 35 33 0 39 -18 31 19 0 30 25 46 32 ?2
 29 32 20 0 31 47 26 0.0031440000000001 -8.6999256906368672e-05 5.12771570721561
43e-04 16 33 21 0 ?35 27 37 34 0 0 2 30 34 22 0 33 38 28 0 +0.0031440000000001 -
8.6999256906368672e-05 5.1277157072156143e-04 -1.0 2.4492966506447567e-16 -6.982
9626776862596e-15 17 35 0 95 90 50 25 30 33 0 87 +17 36 0 15 16 30 22 39 37 0 57
 -16 37 23 0 ?39 33 48 38 0 0 2 30 38 24 0 37 49 34 0 +0.0031440000000001 2.1300
074309363071e-04 5.1277158383497934e-04 -2.4492935982947044e-16 -0.9999999999999
992 -4.3711390001862416e-08 17 39 0 44 45 57 31 36 37 0 50 +14 40 25 42 1.0e-08
 61 13 44 12 41 +0 0 61 13 10 50 41 26 0 40 62 14 0 +0.0031440000000001 2.130007
4309363071e-04 5.1277158383497934e-04 1.0 -2.4492966506447567e-16 6.982962677686
2596e-15 -2.4492935982947044e-16 -0.9999999999999992 -4.3711390001862416e-08 81
 1 42 27 6 40 0 0 63 5 43 83 3 43 1.0 1.0 0.0 15 44 28 0 45 40 0 17 45 0 44 51 3
9 46 50 48 0 56 +18 46 29 0 45 31 52 47 ?2 29 47 30 0 46 53 32 0.003144000000000
2 -8.6999055833974826e-05 -0.0040872284292784 16 48 31 0 ?45 37 54 49 0 0 2 30 4
9 32 0 48 55 38 0 +0.0031440000000001 -8.6999256906368672e-05 5.1277157072156143
e-04 6.982962688392468e-15 4.3711390001862416e-08 -0.9999999999999992 17 50 0 95
 35 96 31 45 48 0 0 -17 51 0 44 57 45 52 56 54 0 60 -18 52 33 0 51 46 67 53 ?2 2
9 53 34 0 52 68 47 0.0031440000000002 2.1300094416602455e-04 -0.004087228416165
 16 54 35 0 ?56 48 58 55 0 0 2 30 55 36 0 54 59 49 0 +0.0031440000000002 2.13000
94416602455e-04 -0.004087228416165 -2.4492935982947044e-16 -0.9999999999999992 -
4.3711390001862416e-08 17 56 0 104 99 71 46 51 54 0 96 +17 57 0 44 39 51 22 60 5
8 0 0 -16 58 37 0 ?60 54 69 59 0 0 2 30 59 38 0 58 70 55 0 +0.0031440000000001 2
.1300074309363071e-04 5.1277158383497934e-04 6.982962688392468e-15 4.37113900018
62416e-08 -0.9999999999999992 17 60 0 65 66 21 52 57 58 0 71 +14 61 39 63 1.0e-0
8 76 40 65 12 62 +0 0 76 40 10 50 62 40 0 61 77 41 0 +0.0025440000000001 2.13000
74309363071e-04 5.1277158383497579e-04 2.4492935982947044e-16 0.9999999999999992
 4.3711390001862416e-08 -6.982962688392468e-15 -4.3711390001862416e-08 0.9999999
999999992 81 1 63 41 6 61 0 0 78 42 64 83 3 64 1.0 1.0 0.0 15 65 42 0 60 61 0 17
 66 0 65 72 60 67 71 69 0 0 -18 67 43 0 86 52 82 68 ?2 29 68 44 0 67 83 53 0.002
4440000000002 2.13000944166025e-04 -0.004087228416165 16 69 45 0 ?71 58 73 70 0
 0 2 30 70 46 0 69 74 59 0 +0.0024440000000002 2.13000944166025e-04 -0.004087228
416165 1.0 -2.4492966506447567e-16 6.9829626776862596e-15 17 71 0 104 56 86 52 6
6 69 0 0 +17 72 0 65 21 66 17 75 73 0 0 -16 73 47 0 ?75 69 84 74 0 0 2 30 74 48
 0 73 85 70 0 +0.0024440000000001 2.1300074309363071e-04 5.1277158383497223e-04
 6.982962688392468e-15 4.3711390001862416e-08 -0.9999999999999992 17 75 0 80 81
 29 67 72 73 0 66 +14 76 49 78 1.0e-08 91 61 80 12 77 +0 0 91 61 10 50 77 50 0 7
6 92 62 0 +0.0024440000000001 -8.6999256906368672e-05 5.1277157072155433e-04 -1.
0 2.4492966506447567e-16 -6.9829626776862596e-15 6.982962688392468e-15 4.3711390
001862416e-08 -0.9999999999999992 81 1 78 51 6 76 0 0 93 63 79 83 3 79 1.0 1.0 0
.0 15 80 52 0 75 76 0 17 81 0 80 87 75 82 86 84 0 90 -18 82 53 0 81 67 0 83 ?2 2
9 83 54 0 82 0 68 0.0024440000000002 -8.6999055833974382e-05 -0.0040872284292784
 16 84 55 0 ?86 73 88 85 0 0 2 30 85 56 0 84 89 74 0 +0.0024440000000002 -8.6999
055833974382e-05 -0.0040872284292784 2.4492935982947044e-16 0.9999999999999992 4
.3711390001862416e-08 17 86 0 104 71 99 67 81 84 0 75 +17 87 0 80 29 81 25 90 88
 0 0 -16 88 57 0 ?90 84 97 89 0 0 2 30 89 58 0 88 98 85 0 +0.0024440000000001 -8
.6999256906368672e-05 5.1277157072155433e-04 6.982962688392468e-15 4.37113900018
62416e-08 -0.9999999999999992 17 90 0 95 96 35 82 87 88 0 99 +14 91 59 93 1.0e-0
8 100 76 95 12 92 +0 0 100 76 10 50 92 60 0 91 101 77 0 +0.0030440000000001 -8.6
999256906368672e-05 5.1277157072156143e-04 -2.4492935982947044e-16 -0.9999999999
999992 -4.3711390001862416e-08 -1.0 2.4492966506447567e-16 -6.9829626776862596e-
15 81 1 93 61 6 91 0 0 102 78 94 83 3 94 1.0 1.0 0.0 15 95 62 0 90 91 0 17 96 0
 95 50 90 46 99 97 0 0 -16 97 63 0 ?99 88 0 98 0 0 2 30 98 64 0 97 0 89 0 +0.003
1440000000002 -8.6999055833974826e-05 -0.0040872284292784 -1.0 2.449296650644756
7e-16 -6.9829626776862596e-15 17 99 0 104 86 56 82 96 97 0 0 +14 100 65 102 1.0e
-08 0 91 104 12 101 +0 0 0 91 10 50 101 66 0 100 0 92 0 +0.0027940000000002 6.30
0094416602553e-05 -0.0040872284227217 6.982962688392468e-15 4.3711390001862416e-
08 -0.9999999999999992 -1.0 2.4492966506447567e-16 -6.9829626776862596e-15 81 1
 102 67 6 100 0 0 0 93 103 83 3 103 1.0 1.0 0.0 15 104 68 0 99 100 0 12 105 68 0
 106 0 0 0 0 1000.0 1.0e-08 0 0 0 1 0 1 1 113 115 121 119 110 120 118 70 106 0 1
05 0 0 4 1 20 0 107 107 1 T74 20 107 1 0 108 0 0 0 0 0 0 0 0 0 0 0 0 0 0 0 0 0 0
 0 81 1 108 7 6 114 0 0 143 0 109 83 3 109 1.0 1.0 0.0 19 110 1 0 105 112 0 111
 V13 111 2 0 105 0 0 0 0 110 114 19 112 3 0 105 0 110 113 S13 113 4 0 105 0 114
 0 0 112 0 14 114 5 108 1.0e-08 141 0 116 113 115 -0 0 141 0 111 50 115 6 0 114
 142 0 0 +2.5400000000011814e-04 6.3000743093632137e-05 5.1277157727824729e-04 6
.982962688392468e-15 4.3711390001862416e-08 -0.9999999999999992 -1.0 2.449296650
6447567e-16 -6.9829626776862596e-15 15 116 8 0 117 114 0 17 117 0 116 125 137 11
8 122 120 0 130 -18 118 9 0 117 0 123 119 ?105 29 119 10 0 118 124 0 -9.59999999
99881852e-05 2.130007430936316e-04 5.1277158383495092e-04 16 120 11 0 ?122 0 128
 121 0 0 105 30 121 12 0 120 129 0 0 +-9.5999999999881852e-05 2.130007430936316e
-04 5.1277158383495092e-04 1.0 -2.4492966506447567e-16 6.9829626776862596e-15 17
 122 0 166 161 173 123 117 120 0 158 +18 123 13 0 122 118 126 124 ?105 29 124 14
 0 123 127 119 6.0400000000011822e-04 2.1300074309363115e-04 5.1277158383496158e
-04 17 125 0 116 131 117 126 130 128 0 136 -18 126 15 0 125 123 132 127 ?105 29
 127 16 0 126 133 124 -9.5999999999881904e-05 -8.6999256906367784e-05 5.12771570
72153301e-04 16 128 17 0 ?130 120 134 129 0 0 105 30 129 18 0 128 135 121 0 +-9.
5999999999881904e-05 -8.6999256906367784e-05 5.1277157072153301e-04 2.4492935982
947044e-16 0.9999999999999992 4.3711390001862416e-08 17 130 0 181 176 188 118 12
5 128 0 173 +17 131 0 116 137 125 132 136 134 0 140 -18 132 19 0 131 126 147 133
 ?105 29 133 20 0 132 148 127 6.0400000000011813e-04 -8.6999256906368228e-05 5.1
277157072154367e-04 16 134 21 0 ?136 128 138 135 0 0 105 30 135 22 0 134 139 129
 0 +6.0400000000011813e-04 -8.6999256906368228e-05 5.1277157072154367e-04 -1.0 2
.4492966506447567e-16 -6.9829626776862596e-15 17 136 0 196 191 151 126 131 134 0
 188 +17 137 0 116 117 131 123 140 138 0 0 -16 138 23 0 ?140 134 149 139 0 0 105
 30 139 24 0 138 150 135 0 +6.0400000000011822e-04 2.1300074309363115e-04 5.1277
158383496158e-04 -2.4492935982947044e-16 -0.9999999999999992 -4.3711390001862416
e-08 17 140 0 145 146 158 132 137 138 0 151 +14 141 25 143 1.0e-08 162 114 145 1
13 142 +0 0 162 114 111 50 142 26 0 141 163 115 0 +6.0400000000011822e-04 2.1300
074309363115e-04 5.1277158383496158e-04 1.0 -2.4492966506447567e-16 6.9829626776
862596e-15 -2.4492935982947044e-16 -0.9999999999999992 -4.3711390001862416e-08 8
1 1 143 27 6 141 0 0 164 108 144 83 3 144 1.0 1.0 0.0 15 145 28 0 146 141 0 17 1
46 0 145 152 140 147 151 149 0 0 +18 147 29 0 197 132 153 148 ?105 29 148 30 0 1
47 154 133 6.0400000000015019e-04 -8.6999055833973938e-05 -0.0040872284292785 16
 149 31 0 ?146 138 155 150 0 0 105 30 150 32 0 149 156 139 0 +6.0400000000011813
e-04 -8.6999256906368228e-05 5.1277157072154367e-04 6.982962688392468e-15 4.3711
390001862416e-08 -0.9999999999999992 17 151 0 196 136 197 132 146 149 0 0 -17 15
2 0 145 158 146 153 157 155 0 0 -18 153 33 0 161 147 168 154 ?105 29 154 34 0 15
3 169 148 6.0400000000015019e-04 2.1300094416602544e-04 -0.004087228416165 16 15
5 35 0 ?157 149 159 156 0 0 105 30 156 36 0 155 160 150 0 +6.0400000000015019e-0
4 2.1300094416602544e-04 -0.004087228416165 -2.4492935982947044e-16 -0.999999999
9999992 -4.3711390001862416e-08 17 157 0 205 200 172 147 152 155 0 146 +17 158 0
 145 140 152 123 161 159 0 137 -16 159 37 0 ?161 155 170 160 0 0 105 30 160 38 0
 159 171 156 0 +6.0400000000011822e-04 2.1300074309363115e-04 5.1277158383496158
e-04 6.982962688392468e-15 4.3711390001862416e-08 -0.9999999999999992 17 161 0 1
66 167 122 153 158 159 0 172 +14 162 39 164 1.0e-08 177 141 166 113 163 +0 0 177
 141 111 50 163 40 0 162 178 142 0 +4.0000000001181872e-06 2.130007430936316e-04
 5.1277158383495092e-04 2.4492935982947044e-16 0.9999999999999992 4.371139000186
2416e-08 -6.982962688392468e-15 -4.3711390001862416e-08 0.9999999999999992 81 1
 164 41 6 162 0 0 179 143 165 83 3 165 1.0 1.0 0.0 15 166 42 0 161 162 0 17 167
 0 166 173 161 168 172 170 0 176 -18 168 43 0 187 153 183 169 ?105 29 169 44 0 1
68 184 154 -9.5999999999849806e-05 2.1300094416602544e-04 -0.004087228416165 16
 170 45 0 ?172 159 174 171 0 0 105 30 171 46 0 170 175 160 0 +-9.599999999984980
6e-05 2.1300094416602544e-04 -0.004087228416165 1.0 -2.4492966506447567e-16 6.98
29626776862596e-15 17 172 0 205 157 187 153 167 170 0 152 +17 173 0 166 122 167
 118 176 174 0 0 -16 174 47 0 ?176 170 185 175 0 0 105 30 175 48 0 174 186 171 0
 +-9.5999999999881852e-05 2.130007430936316e-04 5.1277158383495092e-04 6.9829626
88392468e-15 4.3711390001862416e-08 -0.9999999999999992 17 176 0 181 182 130 168
 173 174 0 0 +14 177 49 179 1.0e-08 192 162 181 113 178 +0 0 192 162 111 50 178
 50 0 177 193 163 0 +-9.5999999999881904e-05 -8.6999256906367784e-05 5.127715707
2153301e-04 -1.0 2.4492966506447567e-16 -6.9829626776862596e-15 6.98296268839246
8e-15 4.3711390001862416e-08 -0.9999999999999992 81 1 179 51 6 177 0 0 194 164 1
80 83 3 180 1.0 1.0 0.0 15 181 52 0 176 177 0 17 182 0 181 188 176 183 187 185 0
 0 -18 183 53 0 191 168 0 184 ?105 29 184 54 0 183 0 169 -9.599999999984986e-05
 -8.6999055833973938e-05 -0.0040872284292785 16 185 55 0 ?187 174 189 186 0 0 10
5 30 186 56 0 185 190 175 0 +-9.599999999984986e-05 -8.6999055833973938e-05 -0.0
040872284292785 2.4492935982947044e-16 0.9999999999999992 4.3711390001862416e-08
 17 187 0 205 172 200 168 182 185 0 167 +17 188 0 181 130 182 126 191 189 0 0 -1
6 189 57 0 ?191 185 198 190 0 0 105 30 190 58 0 189 199 186 0 +-9.59999999998819
04e-05 -8.6999256906367784e-05 5.1277157072153301e-04 6.982962688392468e-15 4.37
11390001862416e-08 -0.9999999999999992 17 191 0 196 197 136 183 188 189 0 200 +1
4 192 59 194 1.0e-08 201 177 196 113 193 +0 0 201 177 111 50 193 60 0 192 202 17
8 0 +5.0400000000011822e-04 -8.6999256906367784e-05 5.1277157072154367e-04 -2.44
92935982947044e-16 -0.9999999999999992 -4.3711390001862416e-08 -1.0 2.4492966506
447567e-16 -6.9829626776862596e-15 81 1 194 61 6 192 0 0 203 179 195 83 3 195 1.
0 1.0 0.0 15 196 62 0 191 192 0 17 197 0 196 151 191 147 200 198 0 157 -16 198 6
3 0 ?200 189 0 199 0 0 105 30 199 64 0 198 0 190 0 +6.0400000000015019e-04 -8.69
99055833973938e-05 -0.0040872284292785 -1.0 2.4492966506447567e-16 -6.9829626776
862596e-15 17 200 0 205 187 157 183 197 198 0 182 +14 201 65 203 1.0e-08 0 192 2
05 113 202 +0 0 0 192 111 50 202 66 0 201 0 193 0 +2.5400000000015028e-04 6.3000
944166025974e-05 -0.0040872284227218 6.982962688392468e-15 4.3711390001862416e-0
8 -0.9999999999999992 -1.0 2.4492966506447567e-16 -6.9829626776862596e-15 81 1 2
03 67 6 201 0 0 0 194 204 83 3 204 1.0 1.0 0.0 15 205 68 0 200 201 0 12 206 68 0
 207 0 0 0 0 1000.0 1.0e-08 0 0 0 1 0 1 1 214 216 222 220 211 221 219 70 207 0 2
06 0 0 4 1 20 0 208 208 1 T74 20 208 1 0 209 0 0 0 0 0 0 0 0 0 0 0 0 0 0 0 0 0 0
 0 81 1 209 7 6 215 0 0 244 0 210 83 3 210 1.0 1.0 0.0 19 211 1 0 206 213 0 212
 V13 212 2 0 206 0 0 0 0 211 215 19 213 3 0 206 0 211 214 S13 214 4 0 206 0 215
 0 0 213 0 14 215 5 209 1.0e-08 242 0 217 214 216 -0 0 242 0 212 50 216 6 0 215
 243 0 0 +-0.0022859999999999 6.3000743093632581e-05 5.1277157727822953e-04 6.98
2962688392468e-15 4.3711390001862416e-08 -0.9999999999999992 -1.0 2.449296650644
7567e-16 -6.9829626776862596e-15 15 217 8 0 218 215 0 17 218 0 217 226 238 219 2
23 221 0 231 -18 219 9 0 218 0 224 220 ?206 29 220 10 0 219 225 0 -0.00263599999
99999 2.1300074309363204e-04 5.1277158383493671e-04 16 221 11 0 ?223 0 229 222 0
 0 206 30 222 12 0 221 230 0 0 +-0.0026359999999999 2.1300074309363204e-04 5.127
7158383493671e-04 1.0 -2.4492966506447567e-16 6.9829626776862596e-15 17 223 0 26
7 262 274 224 218 221 0 259 +18 224 13 0 223 219 227 225 ?206 29 225 14 0 224 22
8 220 -0.0019359999999999 2.1300074309363204e-04 5.1277158383494381e-04 17 226 0
 217 232 218 227 231 229 0 237 -18 227 15 0 289 224 233 228 ?206 29 228 16 0 227
 234 225 -0.0026359999999999 -8.699925690636734e-05 5.1277157072151889e-04 16 22
9 17 0 ?231 221 235 230 0 0 206 30 230 18 0 229 236 222 0 +-0.0026359999999999 -
8.699925690636734e-05 5.1277157072151889e-04 2.4492935982947044e-16 0.9999999999
999992 4.3711390001862416e-08 17 231 0 282 277 289 219 226 229 0 274 +17 232 0 2
17 238 226 233 237 235 0 0 -18 233 19 0 252 227 248 234 ?206 29 234 20 0 233 249
 228 -0.0019359999999999 -8.699925690636734e-05 5.1277157072152591e-04 16 235 21
 0 ?237 229 239 236 0 0 206 30 236 22 0 235 240 230 0 +-0.0019359999999999 -8.69
9925690636734e-05 5.1277157072152591e-04 -1.0 2.4492966506447567e-16 -6.98296267
76862596e-15 17 237 0 297 292 252 227 232 235 0 0 +17 238 0 217 218 232 224 241
 239 0 0 -16 239 23 0 ?241 235 250 240 0 0 206 30 240 24 0 239 251 236 0 +-0.001
9359999999999 2.1300074309363204e-04 5.1277158383494381e-04 -2.4492935982947044e
-16 -0.9999999999999992 -4.3711390001862416e-08 17 241 0 246 247 259 233 238 239
 0 232 +14 242 25 244 1.0e-08 263 215 246 214 243 +0 0 263 215 212 50 243 26 0 2
42 264 216 0 +-0.0019359999999999 2.1300074309363204e-04 5.1277158383494381e-04
 1.0 -2.4492966506447567e-16 6.9829626776862596e-15 -2.4492935982947044e-16 -0.9
999999999999992 -4.3711390001862416e-08 81 1 244 27 6 242 0 0 265 209 245 83 3 2
45 1.0 1.0 0.0 15 246 28 0 247 242 0 17 247 0 246 253 241 248 252 250 0 258 +18
 248 29 0 298 233 254 249 ?206 29 249 30 0 248 255 234 -0.0019359999999998 -8.69
99055833973494e-05 -0.0040872284292785 16 250 31 0 ?247 239 256 251 0 0 206 30 2
51 32 0 250 257 240 0 +-0.0019359999999999 -8.699925690636734e-05 5.127715707215
2591e-04 6.982962688392468e-15 4.3711390001862416e-08 -0.9999999999999992 17 252
 0 297 237 298 233 247 250 0 241 -17 253 0 246 259 247 254 258 256 0 0 -18 254 3
3 0 262 248 269 255 ?206 29 255 34 0 254 270 249 -0.0019359999999998 2.130009441
6602589e-04 -0.0040872284161651 16 256 35 0 ?258 250 260 257 0 0 206 30 257 36 0
 256 261 251 0 +-0.0019359999999998 2.1300094416602589e-04 -0.0040872284161651 -
2.4492935982947044e-16 -0.9999999999999992 -4.3711390001862416e-08 17 258 0 306
 301 273 248 253 256 0 0 +17 259 0 246 241 253 224 262 260 0 238 -16 260 37 0 ?2
62 256 271 261 0 0 206 30 261 38 0 260 272 257 0 +-0.0019359999999999 2.13000743
09363204e-04 5.1277158383494381e-04 6.982962688392468e-15 4.3711390001862416e-08
 -0.9999999999999992 17 262 0 267 268 223 254 259 260 0 273 +14 263 39 265 1.0e-
08 278 242 267 214 264 +0 0 278 242 212 50 264 40 0 263 279 243 0 +-0.0025359999
999999 2.1300074309363204e-04 5.1277158383493671e-04 2.4492935982947044e-16 0.99
99999999999992 4.3711390001862416e-08 -6.982962688392468e-15 -4.3711390001862416
e-08 0.9999999999999992 81 1 265 41 6 263 0 0 280 244 266 83 3 266 1.0 1.0 0.0 1
5 267 42 0 262 263 0 17 268 0 267 274 262 269 273 271 0 277 -18 269 43 0 288 254
 284 270 ?206 29 270 44 0 269 285 255 -0.0026359999999998 2.1300094416602633e-04
 -0.0040872284161651 16 271 45 0 ?273 260 275 272 0 0 206 30 272 46 0 271 276 26
1 0 +-0.0026359999999998 2.1300094416602633e-04 -0.0040872284161651 1.0 -2.44929
66506447567e-16 6.9829626776862596e-15 17 273 0 306 258 288 254 268 271 0 253 +1
7 274 0 267 223 268 219 277 275 0 0 -16 275 47 0 ?277 271 286 276 0 0 206 30 276
 48 0 275 287 272 0 +-0.0026359999999999 2.1300074309363204e-04 5.12771583834936
71e-04 6.982962688392468e-15 4.3711390001862416e-08 -0.9999999999999992 17 277 0
 282 283 231 269 274 275 0 0 +14 278 49 280 1.0e-08 293 263 282 214 279 +0 0 293
 263 212 50 279 50 0 278 294 264 0 +-0.0026359999999999 -8.699925690636734e-05 5
.1277157072151889e-04 -1.0 2.4492966506447567e-16 -6.9829626776862596e-15 6.9829
62688392468e-15 4.3711390001862416e-08 -0.9999999999999992 81 1 280 51 6 278 0 0
 295 265 281 83 3 281 1.0 1.0 0.0 15 282 52 0 277 278 0 17 283 0 282 289 277 284
 288 286 0 0 -18 284 53 0 301 269 0 285 ?206 29 285 54 0 284 0 270 -0.0026359999
999998 -8.699905583397305e-05 -0.0040872284292785 16 286 55 0 ?288 275 290 287 0
 0 206 30 287 56 0 286 291 276 0 +-0.0026359999999998 -8.699905583397305e-05 -0.
0040872284292785 2.4492935982947044e-16 0.9999999999999992 4.3711390001862416e-0
8 17 288 0 306 273 301 269 283 286 0 268 +17 289 0 282 231 283 227 292 290 0 226
 -16 290 57 0 ?292 286 299 291 0 0 206 30 291 58 0 290 300 287 0 +-0.00263599999
99999 -8.699925690636734e-05 5.1277157072151889e-04 6.982962688392468e-15 4.3711
390001862416e-08 -0.9999999999999992 17 292 0 297 298 237 284 289 290 0 283 +14
 293 59 295 1.0e-08 302 278 297 214 294 +0 0 302 278 212 50 294 60 0 293 303 279
 0 +-0.0020359999999999 -8.699925690636734e-05 5.1277157072152235e-04 -2.4492935
982947044e-16 -0.9999999999999992 -4.3711390001862416e-08 -1.0 2.449296650644756
7e-16 -6.9829626776862596e-15 81 1 295 61 6 293 0 0 304 280 296 83 3 296 1.0 1.0
 0.0 15 297 62 0 292 293 0 17 298 0 297 252 292 248 301 299 0 247 -16 299 63 0 ?
301 290 0 300 0 0 206 30 300 64 0 299 0 291 0 +-0.0019359999999998 -8.6999055833
973494e-05 -0.0040872284292785 -1.0 2.4492966506447567e-16 -6.9829626776862596e-
15 17 301 0 306 288 258 284 298 299 0 292 +14 302 65 304 1.0e-08 0 293 306 214 3
03 +0 0 0 293 212 50 303 66 0 302 0 294 0 +-0.0022859999999998 6.300094416602641
8e-05 -0.0040872284227218 6.982962688392468e-15 4.3711390001862416e-08 -0.999999
9999999992 -1.0 2.4492966506447567e-16 -6.9829626776862596e-15 81 1 304 67 6 302
 0 0 0 295 305 83 3 305 1.0 1.0 0.0 15 306 68 0 301 302 0 12 307 157 0 308 0 0 0
 0 1000.0 1.0e-08 0 0 0 1 0 1 1 315 317 323 321 312 322 320 70 308 0 307 0 0 4 1
 20 0 309 309 1 T74 20 309 1 0 310 0 0 0 0 0 0 0 0 0 0 0 0 0 0 0 0 0 0 0 81 1 31
0 7 6 316 0 0 345 0 311 83 3 311 0.501960813999176 0.501960813999176 0.501960813
999176 19 312 1 0 307 314 0 313 V13 313 2 0 307 0 0 0 0 312 316 19 314 3 0 307 0
 312 315 S13 315 4 0 307 0 316 0 0 314 0 14 316 5 310 1.0e-08 343 0 318 315 317
 -0 0 343 0 313 51 317 6 0 316 344 0 0 +0.0048471239578141 0.0068983702452659 0.
0016892549800418 1.8398296188587734e-16 0.9999619226827214 0.0087265792080994 5.
0000000000000044e-04 -1.0 2.4454511006272273e-16 -6.9388972598678756e-15 15 318
 8 0 319 316 0 17 319 0 318 327 339 320 324 322 0 534 +18 320 9 0 332 0 325 321
 ?307 29 321 10 0 320 326 0 0.0053471239578141 0.0067983740529981 0.001688382322
121 16 322 11 0 ?319 0 330 323 0 0 307 31 323 12 0 322 331 0 0 +0.00484712395781
41 0.0067983740529981 0.0016883823221208 -4.5553893286252256e-15 -0.999961922682
7214 -0.0087265792080994 1.0 -2.561489099093902e-16 -4.9266156527736662e-13 5.00
00000000000044e-04 17 324 0 539 534 534 325 319 322 0 531 -18 325 13 0 339 320 3
28 326 ?307 29 326 14 0 325 329 321 0.0043471239578141 0.0067983740529981 0.0016
88382322121 17 327 0 318 333 319 328 332 330 0 0 +18 328 15 0 338 325 334 329 ?3
07 29 329 16 0 328 335 326 0.0053471239578141 0.0068983702452659 0.0016892549800
418 16 330 17 0 ?327 322 336 331 0 0 307 30 331 18 0 330 337 323 0 +0.0053471239
578141 0.0068983702452659 0.0016892549800418 1.8398296188587732e-16 0.9999619226
827214 0.0087265792080994 17 332 0 530 531 436 320 327 330 0 319 -17 333 0 318 3
39 327 334 338 336 0 433 +18 334 19 0 342 328 349 335 ?307 29 335 20 0 334 350 3
29 0.0043471239578141 0.0068983702452659 0.0016892549800418 16 336 21 0 ?333 330
 340 337 0 0 307 31 337 22 0 336 341 331 0 +0.0048471239578141 0.006898370245265
9 0.0016892549800418 1.8398296188587738e-16 0.9999619226827214 0.008726579208099
4 1.0 -2.4454511006272273e-16 6.9388972598678756e-15 5.0000000000000044e-04 17 3
38 0 432 433 433 328 333 336 0 436 -17 339 0 318 319 333 325 342 340 0 324 -16 3
40 23 0 ?342 336 351 341 0 0 307 30 341 24 0 340 352 337 0 +0.0043471239578141 0
.0068983702452659 0.0016892549800418 1.8398296188587732e-16 0.9999619226827214 0
.0087265792080994 17 342 0 530 436 531 334 339 340 0 333 +14 343 25 345 1.0e-08
 372 316 347 315 344 -0 0 372 316 313 50 344 26 0 343 373 317 0 +2.54e-04 0.0024
13 0.01751277168 6.982962688392468e-15 4.3711390001862416e-08 -0.999999999999999
2 -1.0 2.4492966506447567e-16 -6.9829626776862596e-15 81 1 345 27 6 343 0 0 374
 310 346 83 3 346 0.501960813999176 0.501960813999176 0.501960813999176 15 347 2
8 0 348 343 0 17 348 0 347 356 368 349 353 351 0 361 -18 349 29 0 412 334 354 35
0 ?307 29 350 30 0 349 355 335 -0.005343279813662 0.006760279813662 0.0175127718
700256 16 351 31 0 ?353 340 359 352 0 0 307 30 352 32 0 351 360 341 0 +-0.005343
279813662 0.006760279813662 0.0175127718700256 1.0 -2.4492966506447567e-16 6.982
9626776862596e-15 17 353 0 397 392 412 354 348 351 0 389 +18 354 33 0 368 349 35
7 355 ?307 29 355 34 0 354 358 350 0.005851279813662 0.006760279813662 0.0175127
718700257 17 356 0 347 362 348 357 361 359 0 367 -18 357 35 0 356 354 363 358 ?3
07 29 358 36 0 357 364 355 -0.005343279813662 -0.001934279813662 0.0175127714899
743 16 359 37 0 ?361 351 365 360 0 0 307 30 360 38 0 359 366 352 0 +-0.005343279
813662 -0.001934279813662 0.0175127714899743 2.4492935982947044e-16 0.9999999999
999992 4.3711390001862416e-08 17 361 0 492 415 493 349 356 359 0 0 +17 362 0 347
 368 356 363 367 365 0 0 -18 363 39 0 371 357 378 364 ?307 29 364 40 0 363 379 3
58 0.005851279813662 -0.001934279813662 0.0175127714899744 16 365 41 0 ?367 359
 369 366 0 0 307 30 366 42 0 365 370 360 0 +0.005851279813662 -0.001934279813662
 0.0175127714899744 -1.0 2.4492966506447567e-16 -6.9829626776862596e-15 17 367 0
 501 496 382 357 362 365 0 493 +17 368 0 347 348 362 354 371 369 0 353 -16 369 4
3 0 ?371 365 380 370 0 0 307 30 370 44 0 369 381 366 0 +0.005851279813662 0.0067
60279813662 0.0175127718700257 -2.4492935982947044e-16 -0.9999999999999992 -4.37
11390001862416e-08 17 371 0 376 377 389 363 368 369 0 382 +14 372 45 374 1.0e-08
 393 343 376 315 373 +0 0 393 343 313 50 373 46 0 372 394 344 0 +0.0060040000000
001 0.0081865112766303 1.277193236822427e-05 0.9999619230641714 -3.8144924145485
08e-10 0.0087265354983807 0.0087265354983807 4.3709725603932954e-08 -0.999961923
0641704 81 1 374 47 6 372 0 0 395 345 375 83 3 375 0.501960813999176 0.501960813
999176 0.501960813999176 15 376 48 0 377 372 0 17 377 0 376 383 371 378 382 380
 0 388 +18 378 49 0 377 363 384 379 ?307 29 379 50 0 378 385 364 0.0060040000000
001 -0.0020869992350507 1.2771483298799069e-05 16 380 51 0 ?377 369 386 381 0 0
 307 30 381 52 0 380 387 370 0 +0.005851279813662 -0.001934279813662 0.017512771
4899744 0.0087262032439437 -0.0087261595358763 -0.9999238508590042 17 382 0 501
 367 508 363 377 380 0 362 -17 383 0 376 389 377 384 388 386 0 392 -18 384 53 0
 383 378 399 385 ?307 29 385 54 0 384 400 379 0.0060040000000001 0.0069130007649
493 1.2771876701307861e-05 16 386 55 0 ?388 380 390 387 0 0 307 30 387 56 0 386
 391 381 0 +0.0060040000000001 0.0069130007649493 1.2771876701307861e-05 -2.4492
935982947044e-16 -0.9999999999999992 -4.3711390001862416e-08 17 388 0 516 511 42
1 378 383 386 0 508 +17 389 0 376 371 383 354 392 390 0 0 -16 390 57 0 ?392 386
 401 391 0 0 307 30 391 58 0 390 402 387 0 +0.005851279813662 0.006760279813662
 0.0175127718700257 0.0087262032439437 0.0087262469519971 -0.9999238500961352 17
 392 0 397 416 353 384 389 390 0 421 +14 393 59 395 1.0e-08 437 372 397 315 394
 +0 0 437 372 313 50 394 60 0 393 438 373 0 +-0.0067695105116809 0.0069130007649
493 1.2771876701219043e-05 1.8398296188587732e-16 0.9999619226827214 0.008726579
2080994 -6.9848341833234384e-15 -0.0087265792080994 0.9999619226827214 81 1 395
 61 6 393 0 0 439 374 396 83 3 396 0.501960813999176 0.501960813999176 0.5019608
13999176 15 397 62 0 398 393 432 17 398 0 397 406 428 399 403 401 0 411 -18 399
 63 0 398 384 404 400 ?307 29 400 64 0 399 405 385 -0.0050003634338949 0.0069130
007649493 1.2771876701229701e-05 16 401 65 0 ?403 390 409 402 0 0 307 30 402 66
 0 401 410 391 0 +-0.0050003634338949 0.0069130007649493 1.2771876701229701e-05
 0.0087262032435998 -0.0087262469516972 0.9999238500961408 17 403 0 462 457 469
 404 398 401 0 454 +18 404 67 0 428 399 407 405 ?307 29 405 68 0 404 408 400 -0.
0049959999999999 0.0069086373091986 5.1277187651049872e-04 17 406 0 397 412 398
 407 411 409 0 415 -18 407 69 0 406 404 417 408 ?307 29 408 70 0 407 418 405 -0.
0054959999999999 0.0069130007649493 1.2771876701226148e-05 16 409 71 0 ?411 401
 413 410 0 0 307 30 410 72 0 409 414 402 0 +-0.0054959999999999 0.00691300076494
93 1.2771876701226148e-05 1.0 1.699946281920354e-13 6.9829701190939674e-15 17 41
1 0 477 472 484 399 406 409 0 469 +17 412 0 397 353 406 349 415 413 0 348 -16 41
3 73 0 ?415 409 419 414 0 0 307 30 414 74 0 413 420 410 0 +-0.005343279813662 0.
006760279813662 0.0175127718700256 -0.0087262032439298 0.0087262469519991 -0.999
9238500961354 17 415 0 492 487 361 407 412 413 0 484 +17 416 0 397 422 392 417 4
21 419 0 517 -18 417 75 0 427 407 423 418 ?307 29 418 76 0 417 424 408 0.0055083
634338951 0.0069130007649493 1.2771876701307861e-05 16 419 77 0 ?421 413 425 420
 0 0 307 30 420 78 0 419 426 414 0 +0.0055083634338951 0.0069130007649493 1.2771
876701307861e-05 1.0 -1.6869249217636434e-13 6.9829553146091596e-15 17 421 0 516
 388 517 384 416 419 0 0 +17 422 0 397 428 416 423 427 425 0 431 +18 423 79 0 42
2 417 443 424 ?307 29 424 80 0 423 444 418 0.0055040000000001 0.0069086373091986
 5.1277187651057332e-04 16 425 81 0 ?422 419 429 426 0 0 307 30 426 82 0 425 430
 420 0 +0.0055083634338951 0.0069130007649493 1.2771876701307861e-05 -0.00872620
32436138 -0.0087262469516352 0.9999238500961412 17 427 0 525 520 447 417 422 425
 0 416 -17 428 0 397 398 422 404 431 429 0 403 +16 429 83 0 ?428 425 434 430 0 0
 307 30 430 84 0 429 435 426 0 +0.0055040000000001 0.0069086373091986 5.12771876
51057332e-04 -1.0 2.4492966506447567e-16 -6.9829626776862596e-15 17 431 0 441 44
2 454 423 428 429 0 447 -15 432 85 0 433 393 0 17 433 0 432 338 338 334 436 434
 0 0 -16 434 86 0 ?436 429 445 435 0 0 307 31 435 87 0 434 446 430 0 +0.00484712
39578141 0.0068983702452659 0.0016892549800418 1.8398296188587738e-16 0.99996192
26827214 0.0087265792080994 1.0 -2.4454511006272273e-16 6.9388972598678756e-15 5
.0000000000000044e-04 17 436 0 530 332 342 328 433 434 0 327 +14 437 88 439 1.0e
-08 458 393 441 315 438 +0 0 458 393 313 50 438 89 0 437 459 394 0 +2.5400000000
011872e-04 0.0024130007430936 5.1277168000001439e-04 6.982962688392468e-15 4.371
1390001862416e-08 -0.9999999999999992 -1.0 2.4492966506447567e-16 -6.98296267768
62596e-15 81 1 439 90 6 437 0 0 460 395 440 83 3 440 0.501960813999176 0.5019608
13999176 0.501960813999176 15 441 91 0 431 437 0 17 442 0 441 448 431 443 447 44
5 0 453 -18 443 92 0 442 423 449 444 ?307 29 444 93 0 443 450 424 0.005504000000
0001 -0.0020826358230114 5.127714834895265e-04 16 445 94 0 ?447 434 451 446 0 0
 307 30 446 95 0 445 452 435 0 +0.0055040000000001 -0.0020826358230114 5.1277148
34895265e-04 2.4492935982947044e-16 0.9999999999999992 4.3711390001862416e-08 17
 447 0 525 427 507 423 442 445 0 0 +17 448 0 441 454 442 449 453 451 0 457 +18 4
49 96 0 448 443 464 450 ?307 29 450 97 0 449 465 444 -0.0049959999999999 -0.0020
826358230114 5.127714834894519e-04 16 451 98 0 ?448 445 455 452 0 0 307 30 452 9
9 0 451 456 446 0 +0.0055040000000001 -0.0020826358230114 5.127714834895265e-04
 -1.0 2.4492966506447567e-16 -6.9829626776862596e-15 17 453 0 501 502 468 443 44
8 451 0 507 -17 454 0 441 431 448 404 457 455 0 0 -16 455 100 0 ?457 451 466 456
 0 0 307 30 456 101 0 455 467 452 0 +-0.0049959999999999 0.0069086373091986 5.12
77187651049872e-04 -2.4492935982947044e-16 -0.9999999999999992 -4.37113900018624
16e-08 17 457 0 462 463 403 449 454 455 0 468 +14 458 102 460 1.0e-08 473 437 46
2 315 459 -0 0 473 437 313 50 459 103 0 458 474 438 0 +-0.0049959999999999 -0.00
33605097685874 5.127714276318045e-04 -0.9999619230641714 -3.8144875161417304e-10
 0.0087265354983668 2.4492935982947044e-16 0.9999999999999992 4.3711390001862416
e-08 81 1 460 104 6 458 0 0 475 439 461 83 3 461 0.501960813999176 0.50196081399
9176 0.501960813999176 15 462 105 0 463 458 0 17 463 0 462 469 457 464 468 466 0
 472 -18 464 106 0 463 449 479 465 ?307 29 465 107 0 464 480 450 -0.005000363433
8949 -0.0020869992350507 1.277148329872091e-05 16 466 108 0 ?468 455 470 467 0 0
 307 30 467 109 0 466 471 456 0 +-0.0050003634338949 -0.0020869992350507 1.27714
8329872091e-05 0.0087262032435998 0.0087261595355144 0.9999238508590102 17 468 0
 501 453 483 449 463 466 0 0 +17 469 0 462 403 463 399 472 470 0 0 +16 470 110 0
 ?469 466 481 471 0 0 307 30 471 111 0 470 482 467 0 +-0.0050003634338949 -0.002
0869992350507 1.277148329872091e-05 2.4492935982947044e-16 0.9999999999999992 4.
3711390001862416e-08 17 472 0 477 478 411 464 469 470 0 483 -14 473 112 475 1.0e
-08 488 458 477 315 474 +0 0 488 458 313 50 474 113 0 473 489 459 0 +2.540000000
0012218e-04 0.0024130007649493 1.2771680000014385e-05 6.982962688392468e-15 4.37
11390001862416e-08 -0.9999999999999992 -1.0 2.4492966506447567e-16 -6.9829626776
862596e-15 81 1 475 114 6 473 0 0 490 460 476 83 3 476 0.501960813999176 0.50196
0813999176 0.501960813999176 15 477 115 0 478 473 0 17 478 0 477 484 472 479 483
 481 0 487 +18 479 116 0 478 464 503 480 ?307 29 480 117 0 479 504 465 -0.005495
9999999999 -0.0020869992350507 1.2771483298717357e-05 16 481 118 0 ?478 470 485
 482 0 0 307 30 482 119 0 481 486 471 0 +-0.0050003634338949 -0.0020869992350507
 1.277148329872091e-05 -1.0 1.6869249217636434e-13 -6.9829553146091596e-15 17 48
3 0 501 468 496 464 478 481 0 0 -17 484 0 477 411 478 407 487 485 0 0 +16 485 12
0 0 ?484 481 494 486 0 0 307 30 486 121 0 485 495 482 0 +-0.0054959999999999 -0.
0020869992350507 1.2771483298717357e-05 2.4492935982947044e-16 0.999999999999999
2 4.3711390001862416e-08 17 487 0 492 493 415 479 484 485 0 496 -14 488 122 490
 1.0e-08 497 473 492 315 489 +0 0 497 473 313 50 489 123 0 488 498 474 0 +-0.005
4959999999999 -0.0033605097467317 1.2771427631800947e-05 -0.9999619230641714 -3.
8144875161417304e-10 0.0087265354983668 2.4492935982947044e-16 0.999999999999999
2 4.3711390001862416e-08 81 1 490 124 6 488 0 0 499 475 491 83 3 491 0.501960813
999176 0.501960813999176 0.501960813999176 15 492 125 0 415 488 0 17 493 0 492 3
61 487 357 496 494 0 0 -16 494 126 0 ?496 485 505 495 0 0 307 30 495 127 0 494 5
06 486 0 +-0.005343279813662 -0.001934279813662 0.0175127714899743 -0.0087262032
439298 -0.0087261595358743 -0.9999238508590042 17 496 0 501 483 367 479 493 494
 0 0 +14 497 128 499 1.0e-08 512 488 501 315 498 +0 0 512 488 313 50 498 129 0 4
97 513 489 0 +0.0072775105116811 -0.0020869992350507 1.2771483298806175e-05 -3.0
585710545402991e-16 -0.9999619234456194 0.0087264917886481 1.0 -2.44929665064475
67e-16 6.9829626776862614e-15 81 1 499 130 6 497 0 0 514 490 500 83 3 500 0.5019
60813999176 0.501960813999176 0.501960813999176 15 501 131 0 502 497 0 17 502 0
 501 508 453 503 507 505 0 520 -18 503 132 0 502 479 0 504 ?307 29 504 133 0 503
 0 480 0.0055083634338951 -0.0020869992350507 1.2771483298799069e-05 16 505 134
 0 ?507 494 509 506 0 0 307 30 506 135 0 505 510 495 0 +0.0055083634338951 -0.00
20869992350507 1.2771483298799069e-05 -0.0087262032436108 0.0087261595355774 0.9
999238508590096 17 507 0 525 447 520 443 502 505 0 0 +17 508 0 501 382 502 378 5
11 509 0 0 -16 509 136 0 ?511 505 518 510 0 0 307 30 510 137 0 509 519 506 0 +0.
0060040000000001 -0.0020869992350507 1.2771483298799069e-05 -1.0 -1.717866235379
3538e-13 -6.9829701974245744e-15 17 511 0 516 517 388 503 508 509 0 0 +14 512 13
8 514 1.0e-08 521 497 516 315 513 +0 0 521 497 313 50 513 139 0 512 522 498 0 +2
.5400000000012218e-04 0.0024130007649493 1.2771680000014385e-05 6.98296268839246
8e-15 4.3711390001862416e-08 -0.9999999999999992 -1.0 2.4492966506447567e-16 -6.
9829626776862596e-15 81 1 514 140 6 512 0 0 523 499 515 83 3 515 0.5019608139991
76 0.501960813999176 0.501960813999176 15 516 141 0 421 512 0 17 517 0 516 421 5
11 417 520 518 0 0 +16 518 142 0 ?517 509 532 519 0 0 307 30 519 143 0 518 533 5
10 0 +0.0055083634338951 -0.0020869992350507 1.2771483298799069e-05 2.4492935982
947044e-16 0.9999999999999992 4.3711390001862416e-08 17 520 0 525 507 427 503 51
7 518 0 511 -14 521 144 523 1.0e-08 526 512 525 315 522 -0 0 526 512 313 50 522
 145 0 521 527 513 0 +0.0055040000000001 0.0081865112547746 5.1277193236822072e-
04 0.9999619230641714 -3.814492414548508e-10 0.0087265354983807 0.00872653549838
07 4.3709725603932954e-08 -0.9999619230641704 81 1 523 146 6 521 0 0 528 514 524
 83 3 524 0.501960813999176 0.501960813999176 0.501960813999176 15 525 147 0 427
 521 0 14 526 148 528 1.0e-08 535 521 530 315 527 -0 0 535 521 313 51 527 149 0
 526 536 522 0 +0.0048471239578141 0.0068983702452659 0.0016892549800418 1.83982
96188587734e-16 0.9999619226827214 0.0087265792080994 5.0000000000000044e-04 -1.
0 2.4454511006272273e-16 -6.9388972598678756e-15 81 1 528 150 6 526 0 0 537 523
 529 83 3 529 0.501960813999176 0.501960813999176 0.501960813999176 15 530 151 0
 332 526 0 17 531 0 530 342 332 325 534 532 0 0 +16 532 152 0 ?531 518 0 533 0 0
 307 31 533 153 0 532 0 519 0 +0.0048471239578141 0.0067983740529981 0.001688382
3221208 -4.5553893286252256e-15 -0.9999619226827214 -0.0087265792080994 1.0 -2.5
61489099093902e-16 -4.9266156527736662e-13 5.0000000000000044e-04 17 534 0 539 3
24 324 320 531 532 0 0 -14 535 154 537 1.0e-08 0 526 539 315 536 +0 0 0 526 313
 50 536 155 0 535 0 527 0 +2.540000000000008e-04 0.0066599525638489 0.0175498344
591927 1.8398296188587732e-16 0.9999619226827214 0.0087265792080994 -6.984834183
3234384e-15 -0.0087265792080994 0.9999619226827214 81 1 537 156 6 535 0 0 0 528
 538 83 3 538 1.0 1.0 1.0 15 539 157 0 324 535 0 1 0 
