**ABCDEFGHIJKLMNOPQRSTUVWXYZabcdefghijklmnopqrstuvwxyz**************************
**PARASOLID !"#$%&'()*+,-./:;<=>?@[\]^_`{|}~0123456789**************************
**PART1;
MC=AMD64;
MC_MODEL=AMD64 Family 23 Model 1 Stepping 2, AuthenticAMD;
MC_ID=unknown;
OS=Windows_NT;
OS_RELEASE=unknown;
FRU=CAD Exchanger 3.13.0 (cadexchanger.com);
APPL=unknown;
SITE=unknown;
USER=unknown;
FORMAT=text;
GUISE=transmit;
KEY=DIOD-DO-41-P-2_V2_CMP-004-00038-1;
FILE=DIOD-DO-41-P-2_V2_CMP-004-00038-1.x_t;
DATE=Mon May 29 02:56:46 2023;
**PART2;
SCH=SCH_1200000_12103;
USFLD_SIZE=0;
**PART3;
**END_OF_HEADER*****************************************************************
T51 : TRANSMIT FILE created by modeller version 120000017 SCH_1200000_121030 74
 6 1 6 0 2 42 62 100 138 158 12 2 26 0 3 0 0 0 0 1000.0 1.0e-08 0 0 0 1 0 1 1 12
 14 20 18 9 19 17 70 3 0 2 0 0 4 1 20 0 4 4 1 T74 20 4 1 0 5 0 0 0 0 0 0 0 0 0 0
 0 0 0 0 0 0 0 0 0 81 1 5 7 6 13 0 0 34 0 8 80 1 6 0 7 8001 0 0 0 0 3 5 0 0 0 FF
FFTFTFFFFFFF2 79 15 7 SDL/TYSA_COLOUR83 3 8 1.0 1.0 0.501960813999176 19 9 1 0 2
 11 0 10 V13 10 2 0 2 0 0 0 0 9 13 19 11 3 0 2 0 9 12 S13 12 4 0 2 0 13 0 0 11 0
 14 13 5 5 1.0e-08 32 0 15 12 14 +0 0 32 0 10 51 14 6 0 13 33 0 0 +-1.4630400000
000002e-06 1.3614400000000002e-05 0.00763500124 -1.0 2.4492935982947066e-16 -6.1
232339957367659e-17 4.3200066000000002e-04 6.1232339957367659e-17 -1.49975978266
18576e-32 -1.0 15 15 8 0 16 13 0 17 16 0 15 22 27 17 21 19 0 21 +18 17 9 0 16 0
 23 18 ?2 29 18 10 0 17 24 0 -1.4630399999999738e-06 1.36144e-05 0.00720300058 1
6 19 11 0 ?16 0 25 20 0 0 2 31 20 12 0 19 26 0 0 +-1.4630400000000002e-06 1.3614
400000000002e-05 0.00763500124 1.0 -2.4492935982947066e-16 6.1232339957367659e-1
7 6.1232339957367659e-17 -1.4997597826618576e-32 -1.0 4.3200066000000002e-04 17
 21 0 36 21 21 17 16 19 0 27 -17 22 0 15 28 16 23 27 25 0 31 +18 23 13 0 22 17 0
 24 ?2 29 24 14 0 23 0 18 0.00299853604 1.3614399999999265e-05 0.00720300058 16
 25 15 0 ?22 19 29 26 0 0 2 30 26 16 0 25 30 20 0 +-1.4630399999999738e-06 1.361
44e-05 0.00720300058 1.0 -2.4492935982947066e-16 6.1232339957367659e-17 17 27 0
 15 16 28 17 22 25 0 0 -17 28 0 15 27 22 23 31 29 0 0 -16 29 17 0 ?31 25 0 30 0
 0 2 31 30 18 0 29 0 26 0 +0.00299853604 1.3614399999999265e-05 0.00763500124 1.
0 -2.4492935982947066e-16 6.1232339957367659e-17 6.1232339957367659e-17 -1.49975
97826618576e-32 -1.0 4.3200066000000002e-04 17 31 0 41 31 31 23 28 29 0 28 +14 3
2 19 34 1.0e-08 37 13 36 12 33 -0 0 37 13 10 50 33 20 0 32 38 14 0 +-1.463040000
0000002e-06 1.3614400000000009e-05 0.00763500124 1.0 -2.4492935982947066e-16 6.1
232339957367659e-17 6.1232339957367659e-17 -1.4997597826618576e-32 -1.0 81 1 34
 21 6 32 0 0 39 5 35 83 3 35 1.0 1.0 0.501960813999176 15 36 22 0 21 32 0 14 37
 23 39 1.0e-08 0 32 41 12 38 +0 0 0 32 10 50 38 24 0 37 0 33 0 +0.00299853604 1.
3614399999999274e-05 0.00763500124 1.0 -2.4492935982947066e-16 6.123233995736765
9e-17 6.1232339957367659e-17 -1.4997597826618576e-32 -1.0 81 1 39 25 6 37 0 0 0
 34 40 83 3 40 1.0 1.0 0.501960813999176 15 41 26 0 31 37 0 12 42 14 0 43 0 0 0
 0 1000.0 1.0e-08 0 0 0 1 0 1 1 50 52 58 56 47 57 55 70 43 0 42 0 0 4 1 20 0 44
 44 1 T74 20 44 1 0 45 0 0 0 0 0 0 0 0 0 0 0 0 0 0 0 0 0 0 0 81 1 45 7 6 51 0 0
 0 0 46 83 3 46 1.0 1.0 0.501960813999176 19 47 1 0 42 49 0 48 V13 48 2 0 42 0 0
 0 0 47 51 19 49 3 0 42 0 47 50 S13 50 4 0 42 0 51 0 0 49 0 14 51 5 45 1.0e-08 0
 0 53 50 52 +0 0 0 0 48 53 52 6 0 51 0 0 0 +-3.8099999999999996e-08 0.0 0.007635
00124 4.3200066000000002e-04 0.0 0.0 1.0 -1.0 1.2246467991473533e-16 0.0 15 53 8
 0 54 51 0 17 54 0 53 59 59 55 59 57 0 0 -18 55 9 0 54 0 60 56 ?42 29 56 10 0 55
 61 0 -3.8100000000026456e-08 3.2394860797568952e-36 0.00720300058 16 57 11 0 ?5
9 0 0 58 0 0 42 31 58 12 0 57 0 0 0 +-3.8099999999999996e-08 0.0 0.00763500124 1
.2246467991473533e-16 1.0 0.0 -1.0 1.2246467991473533e-16 0.0 4.3200066000000002
e-04 17 59 0 53 54 54 60 54 57 0 0 +18 60 13 0 59 55 0 61 ?42 29 61 14 0 60 0 56
 -3.8100000000026456e-08 3.2394860797568952e-36 0.0080670019 12 62 26 0 63 0 0 0
 0 1000.0 1.0e-08 0 0 0 1 0 1 1 70 72 78 76 67 77 75 70 63 0 62 0 0 4 1 20 0 64
 64 1 T74 20 64 1 0 65 0 0 0 0 0 0 0 0 0 0 0 0 0 0 0 0 0 0 0 81 1 65 7 6 71 0 0
 92 0 66 83 3 66 1.0 1.0 0.501960813999176 19 67 1 0 62 69 0 68 V13 68 2 0 62 0
 0 0 0 67 71 19 69 3 0 62 0 67 70 S13 70 4 0 62 0 71 0 0 69 0 14 71 5 65 1.0e-08
 90 0 73 70 72 +0 0 90 0 68 51 72 6 0 71 91 0 0 +-1.1938e-07 -8.1280000000000001
e-08 -0.00200000108 0.0 0.0 -1.0 4.3200066000000002e-04 -1.0 1.2246467991473533e
-16 0.0 15 73 8 0 74 71 0 17 74 0 73 80 85 75 79 77 0 79 +18 75 9 0 74 0 81 76 ?
62 29 76 10 0 75 82 0 -4.3212003999999995e-04 -8.1279999999947084e-08 -0.0020000
0108 16 77 11 0 ?74 0 83 78 0 0 62 31 78 12 0 77 84 0 0 +-1.1938e-07 -8.12800000
00000001e-08 -0.00200000108 0.0 0.0 1.0 -1.0 1.2246467991473533e-16 0.0 4.320006
6000000002e-04 17 79 0 94 79 79 75 74 77 0 85 -17 80 0 73 86 74 81 85 83 0 89 +1
8 81 13 0 80 75 0 82 ?62 29 82 14 0 81 0 76 -4.3212003999999995e-04 -8.127999999
9947084e-08 0.0076349987 16 83 15 0 ?80 77 87 84 0 0 62 30 84 16 0 83 88 78 0 +-
4.3212003999999995e-04 -8.1279999999947084e-08 -0.00200000108 0.0 0.0 1.0 17 85
 0 73 74 86 75 80 83 0 0 -17 86 0 73 85 80 81 89 87 0 0 -16 87 17 0 ?89 83 0 88
 0 0 62 31 88 18 0 87 0 84 0 +-1.1938e-07 -8.1280000000000001e-08 0.0076349987 0
.0 0.0 1.0 -1.0 1.2246467991473533e-16 0.0 4.3200066000000002e-04 17 89 0 99 89
 89 81 86 87 0 86 +14 90 19 92 1.0e-08 95 71 94 70 91 -0 0 95 71 68 50 91 20 0 9
0 96 72 0 +-1.1937999999996292e-07 -8.1280000000007071e-08 -0.00200000108 0.0 0.
0 1.0 -1.0 1.2246467991473533e-16 0.0 81 1 92 21 6 90 0 0 97 65 93 83 3 93 1.0 1
.0 0.501960813999176 15 94 22 0 79 90 0 14 95 23 97 1.0e-08 0 90 99 70 96 +0 0 0
 90 68 50 96 24 0 95 0 91 0 +-1.1937999999996292e-07 -8.1280000000007071e-08 0.0
076349987 0.0 0.0 1.0 -1.0 1.2246467991473533e-16 0.0 81 1 97 25 6 95 0 0 0 92 9
8 83 3 98 1.0 1.0 0.501960813999176 15 99 26 0 89 95 0 12 100 26 0 101 0 0 0 0 1
000.0 1.0e-08 0 0 0 1 0 1 1 108 110 116 114 105 115 113 70 101 0 100 0 0 4 1 20
 0 102 102 1 T74 20 102 1 0 103 0 0 0 0 0 0 0 0 0 0 0 0 0 0 0 0 0 0 0 81 1 103 7
 6 109 0 0 130 0 104 83 3 104 1.0 1.0 0.501960813999176 19 105 1 0 100 107 0 106
 V13 106 2 0 100 0 0 0 0 105 109 19 107 3 0 100 0 105 108 S13 108 4 0 100 0 109
 0 0 107 0 14 109 5 103 1.0e-08 128 0 111 108 110 +0 0 128 0 106 51 110 6 0 109
 129 0 0 +0.00299995082 4.0640000000000001e-08 -0.00200000108 0.0 0.0 -1.0 4.320
0066000000002e-04 1.0 -2.4492935982947066e-16 0.0 15 111 8 0 112 109 0 17 112 0
 111 118 123 113 117 115 0 117 +18 113 9 0 112 0 119 114 ?100 29 114 10 0 113 12
0 0 0.00343195148 4.0639999999894183e-08 -0.00200000108 16 115 11 0 ?112 0 121 1
16 0 0 100 31 116 12 0 115 122 0 0 +0.00299995082 4.0640000000000001e-08 -0.0020
0000108 0.0 0.0 1.0 1.0 -2.4492935982947066e-16 0.0 4.3200066000000002e-04 17 11
7 0 132 117 117 113 112 115 0 123 -17 118 0 111 124 112 119 123 121 0 127 +18 11
9 13 0 118 113 0 120 ?100 29 120 14 0 119 0 114 0.00343195148 4.0639999999894183
e-08 0.0076349987 16 121 15 0 ?118 115 125 122 0 0 100 30 122 16 0 121 126 116 0
 +0.00343195148 4.0639999999894183e-08 -0.00200000108 0.0 0.0 1.0 17 123 0 111 1
12 124 113 118 121 0 0 -17 124 0 111 123 118 119 127 125 0 0 -16 125 17 0 ?127 1
21 0 126 0 0 100 31 126 18 0 125 0 122 0 +0.00299995082 4.0640000000000001e-08 0
.0076349987 0.0 0.0 1.0 1.0 -2.4492935982947066e-16 0.0 4.3200066000000002e-04 1
7 127 0 137 127 127 119 124 125 0 124 +14 128 19 130 1.0e-08 133 109 132 108 129
 -0 0 133 109 106 50 129 20 0 128 134 110 0 +0.00299995082 4.0640000000007088e-0
8 -0.00200000108 0.0 0.0 1.0 1.0 -2.4492935982947066e-16 0.0 81 1 130 21 6 128 0
 0 135 103 131 83 3 131 1.0 1.0 0.501960813999176 15 132 22 0 117 128 0 14 133 2
3 135 1.0e-08 0 128 137 108 134 +0 0 0 128 106 50 134 24 0 133 0 129 0 +0.002999
95082 4.0640000000007088e-08 0.0076349987 0.0 0.0 1.0 1.0 -2.4492935982947066e-1
6 0.0 81 1 135 25 6 133 0 0 0 130 136 83 3 136 1.0 1.0 0.501960813999176 15 137
 26 0 127 133 0 12 138 14 0 139 0 0 0 0 1000.0 1.0e-08 0 0 0 1 0 1 1 146 148 154
 152 143 153 151 70 139 0 138 0 0 4 1 20 0 140 140 1 T74 20 140 1 0 141 0 0 0 0
 0 0 0 0 0 0 0 0 0 0 0 0 0 0 0 81 1 141 7 6 147 0 0 0 0 142 83 3 142 1.0 1.0 0.5
01960813999176 19 143 1 0 138 145 0 144 V13 144 2 0 138 0 0 0 0 143 147 19 145 3
 0 138 0 143 146 S13 146 4 0 138 0 147 0 0 145 0 14 147 5 141 1.0e-08 0 0 149 14
6 148 +0 0 0 0 144 53 148 6 0 147 0 0 0 +0.00299989748 -8.1280000000000001e-08 0
.00763500124 4.3200066000000002e-04 0.0 0.0 1.0 1.0 -2.4492935982947066e-16 0.0
 15 149 8 0 150 147 0 17 150 0 149 155 155 151 155 153 0 0 -18 151 9 0 150 0 156
 152 ?138 29 152 10 0 151 157 0 0.00299989748 -8.1280000000000001e-08 0.00720300
058 16 153 11 0 ?155 0 0 154 0 0 138 31 154 12 0 153 0 0 0 +0.00299989748 -8.128
0000000000001e-08 0.00763500124 -2.4492935982947066e-16 -1.0 0.0 1.0 -2.44929359
82947066e-16 0.0 4.3200066000000002e-04 17 155 0 149 150 150 156 150 153 0 0 +18
 156 13 0 155 151 0 157 ?138 29 157 14 0 156 0 152 0.00299989748 -8.128000000000
0001e-08 0.0080670019 12 158 26 0 159 0 0 0 0 1000.0 1.0e-08 0 0 0 1 0 1 1 166 1
68 174 172 163 173 171 70 159 0 158 0 0 4 1 20 0 160 160 1 T74 20 160 1 0 161 0
 0 0 0 0 0 0 0 0 0 0 0 0 0 0 0 0 0 0 81 1 161 7 6 167 0 0 188 0 162 83 3 162 0.5
01960813999176 0.501960813999176 0.501960813999176 19 163 1 0 158 165 0 164 V13
 164 2 0 158 0 0 0 0 163 167 19 165 3 0 158 0 163 166 S13 166 4 0 158 0 167 0 0
 165 0 14 167 5 161 1.0e-08 186 0 169 166 168 +0 0 186 0 164 51 168 6 0 167 187
 0 0 +0.00299999908 0.0 0.0 0.0 0.0 -1.0 0.00118000018 1.0 -2.4492935982947066e-
16 0.0 15 169 8 0 170 167 0 17 170 0 169 176 181 171 175 173 0 175 +18 171 9 0 1
70 0 177 172 ?158 29 172 10 0 171 178 0 0.00417999926 -2.8901668868606012e-19 0.
0 16 173 11 0 ?170 0 179 174 0 0 158 31 174 12 0 173 180 0 0 +0.00299999908 0.0
 0.0 0.0 0.0 1.0 1.0 -2.4492935982947066e-16 0.0 0.00118000018 17 175 0 190 175
 175 171 170 173 0 181 -17 176 0 169 182 170 177 181 179 0 185 +18 177 13 0 176
 171 0 178 ?158 29 178 14 0 177 0 172 0.00417999926 -2.8901668868606012e-19 0.00
463499962 16 179 15 0 ?176 173 183 180 0 0 158 30 180 16 0 179 184 174 0 +0.0041
7999926 -2.8901668868606012e-19 0.0 0.0 0.0 1.0 17 181 0 169 170 182 171 176 179
 0 0 -17 182 0 169 181 176 177 185 183 0 0 -16 183 17 0 ?185 179 0 184 0 0 158 3
1 184 18 0 183 0 180 0 +0.00299999908 0.0 0.00463499962 0.0 0.0 1.0 1.0 -2.44929
35982947066e-16 0.0 0.00118000018 17 185 0 195 185 185 177 182 183 0 182 +14 186
 19 188 1.0e-08 191 167 190 166 187 -0 0 191 167 164 50 187 20 0 186 192 168 0 +
0.00299999908 -4.8169448114339986e-20 0.0 0.0 0.0 1.0 1.0 -2.4492935982947066e-1
6 0.0 81 1 188 21 6 186 0 0 193 161 189 83 3 189 0.501960813999176 0.50196081399
9176 0.501960813999176 15 190 22 0 175 186 0 14 191 23 193 1.0e-08 0 186 195 166
 192 +0 0 0 186 164 50 192 24 0 191 0 187 0 +0.00299999908 -4.8169448114339986e-
20 0.00463499962 0.0 0.0 1.0 1.0 -2.4492935982947066e-16 0.0 81 1 193 25 6 191 0
 0 0 188 194 83 3 194 0.501960813999176 0.501960813999176 0.501960813999176 15 1
95 26 0 185 191 0 1 0 
