**ABCDEFGHIJKLMNOPQRSTUVWXYZabcdefghijklmnopqrstuvwxyz**************************
**PARASOLID !"#$%&'()*+,-./:;<=>?@[\]^_`{|}~0123456789**************************
**PART1;
OSMC1.0   MC=x86;
MC_MODEL=x86 Family 15 Model 4 Stepping 3, GenuineIntel;
MC_ID=unknown;
OS=Windows_NT;
OS_RELEASE=unknown;
FRU=Parasolid Version 13.0, build 242, 11-21-2001;
APPL=SolidWorks 2001Plus-2002025;
SITE=;
USER=unknown;
FORMAT=text;
GUISE=transmit;
KEY=G5RL_1A_E_TV8;
FILE=G5RL_1A_E_TV8.x_t;
DATE=Fri Jun 10 16:01:42 2016;
**PART2;
SCH=SCH_1300242_13006;
USFLD_SIZE=0;
**PART3;
**END_OF_HEADER*****************************************************************
T51 : TRANSMIT FILE created by modeller version 130024217 SCH_1100000_110040 12
 1 1962 0 2 0 0 0 0 1e3 1e-8 0 3 0 1 0 1 1 4 5 6 7 8 9 10 70 2 0 1 0 0 4 1 20 4
 11 11 1 T13 4 90 0 1 0 12 0 0 13 0 50 5 89 0 14 15 0 0 +-.0023 .0157 -.0101 1 0
 0 0 0 -1 30 6 1476 0 9 16 0 0 +.0159 .0152 -.00865 .703526470681448 -.502518907
629607 .502518907629607 29 7 1505 0 10 17 0 -.0014 .0157 .00125 19 8 24 0 1 13 0
 18 V16 9 1447 0 ?19 0 20 6 0 0 1 18 10 1503 0 21 0 22 7 ?1 17 21 0 23 24 25 10
 26 27 0 28 +18 22 1434 0 29 10 30 17 ?1 17 29 0 31 32 33 22 34 35 0 36 +18 30 1
430 0 37 22 38 39 ?1 29 17 1436 0 22 39 7 .0152 .0157 .00165 29 39 1432 0 30 40
 17 .0152 .0157 -.00915 29 40 1331 0 38 41 39 .0188 .0157 -.00915 18 38 1329 0 4
2 30 43 40 ?1 29 41 1327 0 43 44 40 .0188 .0157 .00165 18 43 1325 0 33 38 45 41
 ?1 29 44 1063 0 45 46 41 .020165 4e-4 -.008 18 45 1061 0 47 43 48 44 ?1 29 46 1
059 0 48 49 44 .020165 4e-4 -.007 18 48 1057 0 50 45 51 46 ?1 29 49 1052 0 51 52
 46 .019835 4e-4 -.007 18 51 1050 0 53 48 54 49 ?1 29 52 963 0 54 55 49 .025215
 4e-4 -.008 18 54 961 0 56 51 57 52 ?1 29 55 959 0 57 58 52 .025215 4e-4 -.007 1
8 57 957 0 59 54 60 55 ?1 29 58 952 0 60 61 55 .024785 4e-4 -.007 18 60 950 0 62
 57 63 58 ?1 29 61 863 0 63 64 58 .024785 4e-4 -5e-4 18 63 861 0 65 60 66 61 ?1
 29 64 859 0 66 67 61 .025215 4e-4 -5e-4 18 66 857 0 68 63 69 64 ?1 29 67 852 0
 69 70 64 .025215 4e-4 5e-4 18 69 850 0 71 66 72 67 ?1 29 70 763 0 72 73 67 .019
835 4e-4 -5e-4 18 72 761 0 74 69 75 70 ?1 29 73 759 0 75 76 70 .020165 4e-4 -5e-
4 18 75 757 0 77 72 78 73 ?1 29 76 752 0 78 79 73 .020165 4e-4 5e-4 18 78 750 0
 80 75 81 76 ?1 29 79 656 0 81 82 76 -25e-5 4e-4 -.00725 18 81 654 0 83 78 84 79
 ?1 29 82 652 0 84 85 79 25e-5 4e-4 -.00725 18 84 650 0 86 81 87 82 ?1 29 85 645
 0 87 88 82 -25e-5 4e-4 -.00775 18 87 643 0 89 84 90 85 ?1 29 88 549 0 90 91 85
 -25e-5 4e-4 25e-5 18 90 547 0 92 87 93 88 ?1 29 91 545 0 93 94 88 25e-5 4e-4 25
e-5 18 93 543 0 95 90 96 91 ?1 29 94 538 0 96 97 91 -25e-5 4e-4 -25e-5 18 96 536
 0 98 93 99 94 ?1 29 97 427 0 99 100 94 .0085 4e-4 -.00685 18 99 425 0 101 96 10
2 97 ?1 29 100 423 0 102 103 97 .0085 4e-4 -.00835 18 102 421 0 104 99 105 100 ?
1 29 103 416 0 105 106 100 .0131 4e-4 -.00835 18 105 414 0 107 102 108 103 ?1 29
 106 327 0 108 109 103 .0131 4e-4 85e-5 18 108 325 0 110 105 111 106 ?1 29 109 3
23 0 111 112 106 .0131 4e-4 -65e-5 18 111 321 0 113 108 114 109 ?1 29 112 316 0
 114 115 109 .0085 4e-4 85e-5 18 114 314 0 116 111 117 112 ?1 29 115 227 0 117 1
18 112 .0249 4e-4 -.00275 18 117 225 0 119 114 120 115 ?1 29 118 223 0 120 121 1
15 .0249 4e-4 -.00475 18 120 221 0 122 117 123 118 ?1 29 121 216 0 123 124 118 .
0225 4e-4 -.00275 18 123 214 0 125 120 126 121 ?1 29 124 127 0 126 127 121 .0043
 4e-4 -.00275 18 126 125 0 128 123 129 124 ?1 29 127 123 0 129 130 124 .0043 4e-
4 -.00475 18 129 121 0 131 126 132 127 ?1 29 130 116 0 132 133 127 .0019 4e-4 -.
00275 18 132 114 0 134 129 135 130 ?1 29 133 23 0 135 136 130 -.0023 .0157 -.010
1 18 135 22 0 137 132 138 133 ?1 29 136 21 0 138 139 133 .0267 .0157 -.0101 18 1
38 20 0 140 135 141 136 ?1 29 139 19 0 141 142 136 .0267 .0157 .0026 18 141 18 0
 143 138 144 139 ?1 29 142 17 0 144 145 139 -.0023 .0157 .0026 18 144 16 0 146 1
41 147 142 ?1 29 145 66 0 147 148 142 -.0023 4e-4 -.0101 18 147 57 0 149 144 150
 145 ?1 29 148 67 0 150 151 145 .0267 4e-4 -.0101 18 150 58 0 152 147 153 148 ?1
 29 151 68 0 153 154 148 .0267 4e-4 .0026 18 153 59 0 155 150 156 151 ?1 29 154
 69 0 156 157 151 -.0023 4e-4 .0026 18 156 60 0 158 153 159 154 ?1 29 157 205 0
 159 160 154 .0043 0 -.00475 18 159 159 0 161 156 162 157 ?1 29 160 206 0 163 16
4 157 .0019 0 -.00275 18 163 161 0 165 162 166 160 ?1 29 164 207 0 162 167 160 .
0019 0 -.00475 18 162 162 0 168 159 163 164 ?1 29 167 208 0 166 169 164 .0043 0
 -.00275 18 166 160 0 170 163 171 167 ?1 29 169 212 0 171 172 167 .0019 4e-4 -.0
0475 18 171 157 0 173 166 174 169 ?1 29 172 305 0 174 175 169 .0249 0 -.00475 18
 174 259 0 176 171 177 172 ?1 29 175 306 0 178 179 172 .0225 0 -.00275 18 178 26
1 0 180 177 181 175 ?1 29 179 307 0 177 182 175 .0225 0 -.00475 18 177 262 0 183
 174 178 179 ?1 29 182 308 0 181 184 179 .0249 0 -.00275 18 181 260 0 185 178 18
6 182 ?1 29 184 312 0 186 187 182 .0225 4e-4 -.00475 18 186 257 0 188 181 189 18
4 ?1 29 187 405 0 189 190 184 .0131 0 -65e-5 18 189 359 0 191 186 192 187 ?1 29
 190 406 0 193 194 187 .0085 0 85e-5 18 193 361 0 195 192 196 190 ?1 29 194 407
 0 192 197 190 .0085 0 -65e-5 18 192 362 0 198 189 193 194 ?1 29 197 408 0 196 1
99 194 .0131 0 85e-5 18 196 360 0 200 193 201 197 ?1 29 199 412 0 201 202 197 .0
085 4e-4 -65e-5 18 201 357 0 203 196 204 199 ?1 29 202 505 0 205 206 199 .0131 0
 -.00835 18 205 461 0 207 208 209 202 ?1 29 206 506 0 208 210 202 .0085 0 -.0083
5 18 208 460 0 211 204 205 206 ?1 29 210 507 0 204 212 206 .0131 0 -.00685 18 20
4 462 0 213 201 208 210 ?1 29 212 508 0 209 214 210 .0085 0 -.00685 18 209 459 0
 215 205 216 212 ?1 29 214 511 0 216 217 212 .0131 4e-4 -.00685 18 216 456 0 218
 209 219 214 ?1 29 217 630 0 219 220 214 25e-5 4e-4 -25e-5 18 219 582 0 221 216
 222 217 ?1 29 220 631 0 222 223 217 -25e-5 -.0035 -25e-5 18 222 577 0 224 219 2
25 220 ?1 29 223 632 0 225 226 220 25e-5 -.0035 -25e-5 18 225 583 0 227 222 228
 223 ?1 29 226 633 0 228 229 223 25e-5 -.0035 25e-5 18 228 581 0 230 225 231 226
 ?1 29 229 634 0 231 232 226 -25e-5 -.0035 25e-5 18 231 579 0 233 228 234 229 ?1
 29 232 737 0 234 235 229 25e-5 4e-4 -.00775 18 234 689 0 236 231 237 232 ?1 29
 235 738 0 237 238 232 -25e-5 -.0035 -.00775 18 237 684 0 239 234 240 235 ?1 29
 238 739 0 240 241 235 25e-5 -.0035 -.00775 18 240 690 0 242 237 243 238 ?1 29 2
41 740 0 243 244 238 25e-5 -.0035 -.00725 18 243 688 0 245 240 246 241 ?1 29 244
 741 0 246 247 241 -25e-5 -.0035 -.00725 18 246 686 0 248 243 249 244 ?1 29 247
 841 0 249 250 244 .019835 -.0035 5e-4 18 249 798 0 251 246 252 247 ?1 29 250 84
5 0 253 254 247 .019835 4e-4 5e-4 18 253 793 0 255 256 257 250 ?1 29 254 846 0 2
56 258 250 .020165 -.0035 -5e-4 18 256 794 0 259 252 253 254 ?1 29 258 847 0 257
 260 254 .019835 -.0035 -5e-4 18 257 791 0 261 253 262 258 ?1 29 260 848 0 252 2
63 258 .020165 -.0035 5e-4 18 252 796 0 264 249 256 260 ?1 29 263 941 0 262 265
 260 .024785 -.0035 5e-4 18 262 898 0 266 257 267 263 ?1 29 265 945 0 268 269 26
3 .024785 4e-4 5e-4 18 268 891 0 270 271 272 265 ?1 29 269 946 0 273 274 265 .02
5215 -.0035 -5e-4 18 273 894 0 275 267 271 269 ?1 29 274 947 0 271 276 269 .0247
85 -.0035 -5e-4 18 271 892 0 277 273 268 274 ?1 29 276 948 0 267 278 274 .025215
 -.0035 5e-4 18 267 896 0 279 262 273 276 ?1 29 278 1041 0 272 280 276 .024785 -
.0035 -.008 18 272 998 0 281 268 282 278 ?1 29 280 1045 0 283 284 278 .024785 4e
-4 -.008 18 283 991 0 285 286 287 280 ?1 29 284 1046 0 288 289 280 .025215 -.003
5 -.007 18 288 994 0 290 282 286 284 ?1 29 289 1047 0 286 291 284 .025215 -.0035
 -.008 18 286 992 0 292 288 283 289 ?1 29 291 1048 0 282 293 289 .024785 -.0035
 -.007 18 282 996 0 294 272 288 291 ?1 29 293 1141 0 287 295 291 .019835 -.0035
 -.008 18 287 1098 0 296 283 297 293 ?1 29 295 1145 0 298 299 293 .019835 4e-4 -
.008 18 298 1091 0 300 301 302 295 ?1 29 299 1146 0 303 304 295 .020165 -.0035 -
.007 18 303 1094 0 305 297 301 299 ?1 29 304 1147 0 301 306 299 .020165 -.0035 -
.008 18 301 1092 0 307 303 298 304 ?1 29 306 1148 0 297 308 304 .019835 -.0035 -
.007 18 297 1096 0 309 287 303 306 ?1 29 308 1271 0 302 310 306 .0159 .0152 -.00
865 18 302 1221 0 19 298 311 308 ?1 29 310 1272 0 311 312 308 .0183 .0152 -.0086
5 18 311 1223 0 313 302 314 310 ?1 29 312 1273 0 314 315 310 .0183 .0152 .00115
 18 314 1225 0 316 311 317 312 ?1 29 315 1274 0 317 318 312 .0159 .0152 .00115 1
8 317 1227 0 319 314 320 315 ?1 29 318 1602 0 320 321 315 -.0014 .0155 -.00875 1
8 320 1552 0 322 317 323 318 ?1 29 321 1603 0 323 324 318 -4e-4 .0155 -.00875 18
 323 1554 0 325 320 326 321 ?1 29 324 1604 0 326 327 321 -4e-4 .0155 .00125 18 3
26 1556 0 328 323 329 324 ?1 29 327 1605 0 329 330 324 -.0014 .0155 .00125 18 32
9 1558 0 24 326 331 327 ?1 29 330 1606 0 331 332 327 -.0014 .0157 -.00875 18 331
 1555 0 25 329 333 330 ?1 29 332 1607 0 333 334 330 -4e-4 .0157 -.00875 18 333 1
557 0 335 331 336 332 ?1 29 334 1608 0 336 0 332 -4e-4 .0157 .00125 18 336 1559
 0 337 333 0 334 ?1 17 337 0 338 339 340 336 328 341 0 342 +15 338 1571 0 339 34
3 0 17 339 0 338 325 337 333 344 345 0 346 +17 340 0 338 337 325 326 347 348 0 3
49 -17 328 0 350 351 342 326 337 341 0 340 -16 341 1539 0 ?337 352 353 354 0 0 1
 17 342 0 350 328 28 336 355 356 0 344 +15 350 1575 0 342 357 0 17 28 0 350 342
 351 10 24 353 0 355 +17 355 0 358 26 344 10 342 356 0 0 -16 356 1543 0 ?342 345
 27 359 0 0 1 17 344 0 358 355 346 336 339 345 0 0 -15 358 1519 0 26 360 31 17 3
46 0 358 344 26 333 361 362 0 0 -16 345 1546 0 ?339 362 356 363 0 0 1 16 362 154
9 0 ?361 364 345 365 0 0 1 30 363 1599 0 345 359 365 0 +-4e-4 .0157 -.00875 -124
683249835833e-30 0 -1 30 359 1600 0 356 366 363 0 +-.0014 .0157 .00125 1 0 0 30
 365 1598 0 362 363 367 0 +-.0014 .0157 -.00875 -1 0 0 30 367 1597 0 364 365 368
 0 +-.0014 .0155 -.00875 1301042606982606e-31 0 1 16 364 1524 0 ?369 370 362 367
 0 0 1 30 368 1596 0 370 367 371 0 +-.0014 .0155 .00125 1 0 0 16 370 1536 0 ?349
 348 364 368 0 0 1 30 371 1595 0 348 368 372 0 +-4e-4 .0155 -.00875 -12468324983
5833e-30 0 -1 16 348 1532 0 ?347 373 370 371 0 0 1 30 372 1594 0 373 371 374 0 +
-.0014 .0155 -.00875 -1 0 0 16 373 1528 0 ?375 353 348 372 0 0 1 30 374 1593 0 3
76 372 377 0 +-.0014 .0155 -.00875 0 1 0 16 376 1531 0 ?25 378 352 374 0 0 1 30
 377 1592 0 352 374 354 0 +-4e-4 .0155 -.00875 0 1 0 16 352 1535 0 ?335 376 341
 377 0 0 1 30 354 1591 0 341 377 379 0 +-4e-4 .0155 .00125 0 1 0 30 379 1590 0 3
53 354 380 0 +-.0014 .0155 .00125 0 1 0 16 353 1527 0 ?28 341 373 379 0 0 1 30 3
80 1413 0 378 379 381 0 -.0175 .0144 -.00785 -.577350269189626 -.577350269189626
 .577350269189626 16 378 1398 0 ?382 383 376 380 0 0 1 30 381 1412 0 383 380 384
 0 -.01503333333333335 .01193333333333334 -.002116666666666665 -.577350269189626
 -.577350269189626 -.577350269189626 16 383 1395 0 ?385 386 378 381 0 0 1 31 384
 1313 0 386 381 387 0 +.0171 .0152 49999999999998e-18 0 1 0 0 0 1 5e-4 16 386 12
92 0 ?388 389 383 384 0 0 1 31 387 1312 0 389 384 390 0 +.0171 .0157 49999999999
998e-18 0 1 0 0 0 1 5e-4 16 389 1295 0 ?391 392 386 387 0 0 1 30 390 1266 0 392
 387 393 0 +.0159 .0152 -.00865 0 0 1 16 392 1193 0 ?394 395 389 390 0 0 1 30 39
3 1265 0 395 390 396 0 +.0159 .0152 .00115 1 0 0 16 395 1205 0 ?316 397 392 393
 0 0 1 30 396 1264 0 397 393 398 0 +.0183 .0152 -.00865 0 0 -1 16 397 1201 0 ?31
3 399 395 396 0 0 1 30 398 1263 0 399 396 400 0 +.0159 .0152 -.00865 -1 0 0 16 3
99 1197 0 ?401 402 397 398 0 0 1 30 400 1140 0 403 398 404 0 +.019835 4e-4 -.008
 0 0 -1 16 403 1084 0 ?405 406 407 400 0 0 1 30 404 1139 0 408 400 409 0 +.01983
5 4e-4 -.007 -1 0 0 16 408 1080 0 ?410 407 411 404 0 0 1 30 409 1138 0 412 404 4
13 0 +.020165 4e-4 -.008 0 0 1 16 412 1076 0 ?414 411 415 409 0 0 1 30 413 1137
 0 416 409 417 0 +.019835 4e-4 -.008 1 0 0 16 416 1072 0 ?418 415 402 413 0 0 1
 30 417 1136 0 419 413 420 0 +.019835 -.0035 -.007 -1 0 0 16 419 1090 0 ?421 422
 423 417 0 0 1 30 420 1135 0 423 417 424 0 +.020165 -.0035 -.008 0 0 1 16 423 10
89 0 ?425 419 426 420 0 0 1 30 424 1134 0 426 420 427 0 +.019835 -.0035 -.008 1
 0 0 16 426 1088 0 ?428 423 406 424 0 0 1 30 427 1133 0 406 424 429 0 +.019835 -
.0035 -.008 0 0 -1 16 406 1087 0 ?430 426 403 427 0 0 1 30 429 1132 0 415 427 43
1 0 +.020165 -.00455304320899002 -.008 0 1 0 16 415 1075 0 ?432 412 416 429 0 0
 1 30 431 1131 0 411 429 433 0 +.020165 -.00455304320899002 -.007 0 1 0 16 411 1
079 0 ?434 408 412 431 0 0 1 30 433 1130 0 407 431 435 0 +.019835 -.004553043208
99002 -.007 0 1 0 16 407 1083 0 ?436 403 408 433 0 0 1 30 435 1129 0 402 433 437
 0 +.019835 -.00455304320899002 -.008 0 1 0 16 402 1071 0 ?438 416 399 435 0 0 1
 30 437 1040 0 439 435 440 0 +.024785 4e-4 -.008 0 0 -1 16 439 984 0 ?441 442 44
3 437 0 0 1 30 440 1039 0 444 437 445 0 +.024785 4e-4 -.007 -1 0 0 16 444 980 0
 ?446 443 447 440 0 0 1 30 445 1038 0 448 440 449 0 +.025215 4e-4 -.008 0 0 1 16
 448 976 0 ?450 447 451 445 0 0 1 30 449 1037 0 452 445 453 0 +.024785 4e-4 -.00
8 1 0 0 16 452 972 0 ?454 451 422 449 0 0 1 30 453 1036 0 455 449 456 0 +.024785
 -.0035 -.007 -1 0 0 16 455 990 0 ?457 458 459 453 0 0 1 30 456 1035 0 459 453 4
60 0 +.025215 -.0035 -.008 0 0 1 16 459 989 0 ?461 455 462 456 0 0 1 30 460 1034
 0 462 456 463 0 +.024785 -.0035 -.008 1 0 0 16 462 988 0 ?464 459 442 460 0 0 1
 30 463 1033 0 442 460 465 0 +.024785 -.0035 -.008 0 0 -1 16 442 987 0 ?466 462
 439 463 0 0 1 30 465 1032 0 451 463 467 0 +.025215 -.00455304320899002 -.008 0
 1 0 16 451 975 0 ?468 448 452 465 0 0 1 30 467 1031 0 447 465 469 0 +.025215 -.
00455304320899002 -.007 0 1 0 16 447 979 0 ?470 444 448 467 0 0 1 30 469 1030 0
 443 467 471 0 +.024785 -.00455304320899002 -.007 0 1 0 16 443 983 0 ?472 439 44
4 469 0 0 1 30 471 1029 0 422 469 473 0 +.024785 -.00455304320899002 -.008 0 1 0
 16 422 971 0 ?474 452 419 471 0 0 1 30 473 940 0 475 471 476 0 +.024785 4e-4 5e
-4 -1 0 0 16 475 884 0 ?477 478 479 473 0 0 1 30 476 939 0 480 473 481 0 +.02521
5 4e-4 5e-4 0 0 1 16 480 880 0 ?482 479 483 476 0 0 1 30 481 938 0 484 476 485 0
 +.024785 4e-4 -5e-4 1 0 0 16 484 876 0 ?486 483 487 481 0 0 1 30 485 937 0 488
 481 489 0 +.024785 4e-4 5e-4 0 0 -1 16 488 872 0 ?490 487 458 485 0 0 1 30 489
 936 0 491 485 492 0 +.025215 -.0035 5e-4 0 0 1 16 491 890 0 ?493 494 495 489 0
 0 1 30 492 935 0 495 489 496 0 +.024785 -.0035 -5e-4 1 0 0 16 495 889 0 ?497 49
1 498 492 0 0 1 30 496 934 0 498 492 499 0 +.024785 -.0035 5e-4 0 0 -1 16 498 88
8 0 ?500 495 478 496 0 0 1 30 499 933 0 478 496 501 0 +.024785 -.0035 5e-4 -1 0
 0 16 478 887 0 ?502 498 475 499 0 0 1 30 501 932 0 487 499 503 0 +.024785 -.004
55304320899002 -5e-4 0 1 0 16 487 875 0 ?504 484 488 501 0 0 1 30 503 931 0 483
 501 505 0 +.025215 -.00455304320899002 -5e-4 0 1 0 16 483 879 0 ?506 480 484 50
3 0 0 1 30 505 930 0 479 503 507 0 +.025215 -.00455304320899002 5e-4 0 1 0 16 47
9 883 0 ?508 475 480 505 0 0 1 30 507 929 0 458 505 509 0 +.024785 -.00455304320
899002 5e-4 0 1 0 16 458 871 0 ?510 488 455 507 0 0 1 30 509 840 0 511 507 512 0
 +.019835 4e-4 5e-4 -1 0 -328546112874388e-30 16 511 784 0 ?513 514 515 509 0 0
 1 30 512 839 0 516 509 517 0 +.020165 4e-4 5e-4 0 0 1 16 516 780 0 ?518 515 519
 512 0 0 1 30 517 838 0 520 512 521 0 +.019835 4e-4 -5e-4 1 0 328546112874388e-3
0 16 520 772 0 ?522 523 494 517 0 0 1 30 521 837 0 524 517 525 0 +.019835 4e-4 5
e-4 0 0 -1 16 524 776 0 ?526 519 523 521 0 0 1 30 525 836 0 527 521 528 0 +.0201
65 -.0035 5e-4 0 0 1 16 527 789 0 ?529 530 531 525 0 0 1 30 528 835 0 531 525 53
2 0 +.019835 -.0035 -5e-4 1 0 328546112874388e-30 16 531 788 0 ?533 527 514 528
 0 0 1 30 532 834 0 514 528 534 0 +.019835 -.0035 5e-4 0 0 -1 16 514 787 0 ?535
 531 511 532 0 0 1 30 534 833 0 530 532 536 0 +.019835 -.0035 5e-4 -1 0 -3285461
12874388e-30 16 530 790 0 ?537 538 527 534 0 0 1 30 536 832 0 494 534 539 0 +.01
9835 -.00455304320899002 -5e-4 0 1 0 16 494 771 0 ?540 520 491 536 0 0 1 30 539
 831 0 519 536 541 0 +.020165 -.00455304320899002 -5e-4 0 1 0 16 519 779 0 ?542
 516 524 539 0 0 1 30 541 830 0 515 539 543 0 +.020165 -.00455304320899002 5e-4
 0 1 0 16 515 783 0 ?544 511 516 541 0 0 1 30 543 829 0 523 541 545 0 +.019835 -
.00455304320899002 5e-4 0 1 0 16 523 775 0 ?546 524 520 543 0 0 1 30 545 733 0 5
38 543 547 0 +-25e-5 -.0035 -.00725 0 0 1 16 538 665 0 ?548 549 530 545 0 0 1 30
 547 732 0 549 545 550 0 +-25e-5 -.0035 -.00725 1 0 0 16 549 669 0 ?551 552 538
 547 0 0 1 30 550 731 0 552 547 553 0 +25e-5 -.0035 -.00725 0 0 -1 16 552 673 0
 ?554 555 549 550 0 0 1 30 553 730 0 555 550 556 0 +-25e-5 -.0035 -.00775 -1 0 0
 16 555 677 0 ?557 558 552 553 0 0 1 30 556 729 0 559 553 560 0 +25e-5 4e-4 -.00
725 0 0 -1 16 559 683 0 ?236 561 562 556 0 0 1 30 560 728 0 562 556 563 0 +-25e-
5 4e-4 -.00725 1 0 0 16 562 682 0 ?86 559 564 560 0 0 1 30 563 727 0 564 560 565
 0 +-25e-5 4e-4 -.00725 0 0 1 16 564 681 0 ?83 562 566 563 0 0 1 30 565 726 0 56
6 563 567 0 +-25e-5 4e-4 -.00775 -1 0 0 16 566 680 0 ?89 564 568 565 0 0 1 30 56
7 725 0 569 565 570 0 +-25e-5 .001107106781186548 -.00725 0 -1 0 16 569 668 0 ?2
48 571 558 567 0 0 1 30 570 724 0 571 567 572 0 +25e-5 .001107106781186548 -.007
25 0 -1 0 16 571 672 0 ?245 568 569 570 0 0 1 30 572 723 0 568 570 573 0 +25e-5
 .001107106781186548 -.00775 0 -1 0 16 568 676 0 ?242 566 571 572 0 0 1 30 573 7
22 0 558 572 574 0 +-25e-5 .001107106781186548 -.00775 0 -1 0 16 558 664 0 ?239
 569 555 573 0 0 1 30 574 626 0 561 573 575 0 +-25e-5 -.0035 25e-5 0 0 1 16 561
 558 0 ?576 577 559 574 0 0 1 30 575 625 0 577 574 578 0 +-25e-5 -.0035 25e-5 1
 0 0 16 577 562 0 ?579 580 561 575 0 0 1 30 578 624 0 580 575 581 0 +25e-5 -.003
5 25e-5 0 0 -1 16 580 566 0 ?582 583 577 578 0 0 1 30 581 623 0 583 578 584 0 +-
25e-5 -.0035 -25e-5 -1 0 0 16 583 570 0 ?585 586 580 581 0 0 1 30 584 622 0 587
 581 588 0 +25e-5 4e-4 25e-5 0 0 -1 16 587 576 0 ?221 589 590 584 0 0 1 30 588 6
21 0 590 584 591 0 +-25e-5 4e-4 25e-5 1 0 0 16 590 575 0 ?95 587 592 588 0 0 1 3
0 591 620 0 592 588 593 0 +-25e-5 4e-4 25e-5 0 0 1 16 592 574 0 ?92 590 594 591
 0 0 1 30 593 619 0 594 591 595 0 +-25e-5 4e-4 -25e-5 -1 0 0 16 594 573 0 ?98 59
2 596 593 0 0 1 30 595 618 0 597 593 598 0 +-25e-5 .001107106781186548 25e-5 0 -
1 0 16 597 561 0 ?233 599 586 595 0 0 1 30 598 617 0 599 595 600 0 +25e-5 .00110
7106781186548 25e-5 0 -1 0 16 599 565 0 ?230 596 597 598 0 0 1 30 600 616 0 596
 598 601 0 +25e-5 .001107106781186548 -25e-5 0 -1 0 16 596 569 0 ?227 594 599 60
0 0 0 1 30 601 615 0 586 600 602 0 +-25e-5 .001107106781186548 -25e-5 0 -1 0 16
 586 557 0 ?224 597 583 601 0 0 1 30 602 504 0 603 601 604 0 +.0085 0 -.00685 1
 0 0 16 603 440 0 ?605 606 607 602 0 0 1 30 604 503 0 608 602 609 0 +.0085 0 -.0
0835 -1 0 0 16 608 445 0 ?610 611 606 604 0 0 1 30 609 502 0 606 604 612 0 +.013
1 0 -.00835 0 0 -1 16 606 450 0 ?613 608 603 609 0 0 1 30 612 501 0 589 609 614
 0 +.0085 4e-4 -.00835 1 0 0 16 589 447 0 ?615 616 587 612 0 0 1 30 614 500 0 61
6 612 617 0 +.0131 4e-4 -.00835 0 0 1 16 616 452 0 ?618 619 589 614 0 0 1 30 617
 499 0 619 614 620 0 +.0085 4e-4 -.00685 -1 0 0 16 619 442 0 ?621 622 616 617 0
 0 1 30 620 498 0 622 617 623 0 +.0085 4e-4 -.00835 0 0 -1 16 622 437 0 ?624 625
 619 620 0 0 1 30 623 497 0 625 620 626 0 +.0085 -.00312409987036266 -.00835 0 1
 0 16 625 446 0 ?627 628 622 623 0 0 1 30 626 496 0 628 623 629 0 +.0085 -.00312
409987036266 -.00685 0 1 0 16 628 436 0 ?630 631 625 626 0 0 1 30 629 495 0 631
 626 632 0 +.0131 -.00312409987036266 -.00685 0 1 0 16 631 441 0 ?633 634 628 62
9 0 0 1 30 632 494 0 634 629 635 0 +.0131 -.00312409987036266 -.00835 0 1 0 16 6
34 451 0 ?636 607 631 632 0 0 1 30 635 493 0 607 632 637 0 +.0085 0 -.00835 0 0
 1 16 607 435 0 ?638 603 634 635 0 0 1 30 637 404 0 639 635 640 0 +.0131 0 85e-5
 0 0 -1 16 639 340 0 ?641 642 643 637 0 0 1 30 640 403 0 642 637 644 0 +.0085 0
 -65e-5 -1 0 471392248906741e-31 16 642 345 0 ?645 646 639 640 0 0 1 30 644 402
 0 646 640 647 0 +.0085 0 85e-5 0 0 1 16 646 350 0 ?648 649 642 644 0 0 1 30 647
 401 0 611 644 650 0 +.0085 4e-4 85e-5 0 0 -1 16 611 352 0 ?651 652 608 647 0 0
 1 30 650 400 0 652 647 653 0 +.0085 4e-4 -65e-5 1 0 -471392248906741e-31 16 652
 347 0 ?654 655 611 650 0 0 1 30 653 399 0 655 650 656 0 +.0131 4e-4 85e-5 0 0 1
 16 655 342 0 ?657 658 652 653 0 0 1 30 656 398 0 658 653 659 0 +.0085 4e-4 85e-
5 -1 0 -471392248906741e-31 16 658 337 0 ?660 661 655 656 0 0 1 30 659 397 0 661
 656 662 0 +.0085 -.00312409987036266 85e-5 0 1 0 16 661 351 0 ?663 664 658 659
 0 0 1 30 662 396 0 664 659 665 0 +.0131 -.00312409987036266 85e-5 0 1 0 16 664
 336 0 ?666 667 661 662 0 0 1 30 665 395 0 667 662 668 0 +.0131 -.00312409987036
266 -65e-5 0 1 0 16 667 341 0 ?669 670 664 665 0 0 1 30 668 394 0 670 665 671 0
 +.0085 -.00312409987036266 -65e-5 0 1 0 16 670 346 0 ?672 643 667 668 0 0 1 30
 671 393 0 643 668 673 0 +.0085 0 85e-5 1 0 471392248906741e-31 16 643 335 0 ?67
4 639 670 671 0 0 1 30 673 304 0 675 671 676 0 +.0249 0 -.00275 0 0 -1 16 675 24
0 0 ?677 678 679 673 0 0 1 30 676 303 0 678 673 680 0 +.0225 0 -.00475 -1 0 0 16
 678 245 0 ?681 682 675 676 0 0 1 30 680 302 0 682 676 683 0 +.0225 0 -.00275 0
 0 1 16 682 250 0 ?684 685 678 680 0 0 1 30 683 301 0 649 680 686 0 +.0225 4e-4
 -.00275 0 0 -1 16 649 252 0 ?687 688 646 683 0 0 1 30 686 300 0 688 683 689 0 +
.0225 4e-4 -.00475 1 0 0 16 688 247 0 ?690 691 649 686 0 0 1 30 689 299 0 691 68
6 692 0 +.0249 4e-4 -.00275 0 0 1 16 691 242 0 ?693 694 688 689 0 0 1 30 692 298
 0 694 689 695 0 +.0225 4e-4 -.00275 -1 0 -1807003620809175e-31 16 694 237 0 ?69
6 697 691 692 0 0 1 30 695 297 0 697 692 698 0 +.0225 -.00312409987036266 -.0027
5 0 1 0 16 697 251 0 ?699 700 694 695 0 0 1 30 698 296 0 700 695 701 0 +.0249 -.
00312409987036266 -.00275 0 1 0 16 700 236 0 ?702 703 697 698 0 0 1 30 701 295 0
 703 698 704 0 +.0249 -.00312409987036266 -.00475 0 1 0 16 703 241 0 ?705 706 70
0 701 0 0 1 30 704 294 0 706 701 707 0 +.0225 -.00312409987036266 -.00475 0 1 0
 16 706 246 0 ?708 679 703 704 0 0 1 30 707 293 0 679 704 709 0 +.0225 0 -.00275
 1 0 1807003620809175e-31 16 679 235 0 ?710 675 706 707 0 0 1 30 709 204 0 711 7
07 712 0 +.0043 0 -.00275 433680868994202e-30 0 -1 16 711 140 0 ?713 714 715 709
 0 0 1 30 712 203 0 714 709 716 0 +.0019 0 -.00475 -1 0 0 16 714 145 0 ?717 718
 711 712 0 0 1 30 716 202 0 718 712 719 0 +.0019 0 -.00275 0 0 1 16 718 150 0 ?7
20 721 714 716 0 0 1 30 719 201 0 685 716 722 0 +.0019 4e-4 -.00275 0 0 -1 16 68
5 152 0 ?723 724 682 719 0 0 1 30 722 200 0 724 719 725 0 +.0019 4e-4 -.00475 1
 0 0 16 724 147 0 ?726 727 685 722 0 0 1 30 725 199 0 727 722 728 0 +.0043 4e-4
 -.00275 -433680868994202e-30 0 1 16 727 142 0 ?729 730 724 725 0 0 1 30 728 198
 0 730 725 731 0 +.0019 4e-4 -.00275 -1 0 -1807003620809175e-31 16 730 137 0 ?73
2 733 727 728 0 0 1 30 731 197 0 733 728 734 0 +.0019 -.00312409987036266 -.0027
5 0 1 0 16 733 151 0 ?735 736 730 731 0 0 1 30 734 196 0 736 731 737 0 +.0043 -.
00312409987036266 -.00275 0 1 0 16 736 136 0 ?738 739 733 734 0 0 1 30 737 195 0
 739 734 740 0 +.0043 -.00312409987036266 -.00475 0 1 0 16 739 141 0 ?741 742 73
6 737 0 0 1 30 740 194 0 742 737 743 0 +.0019 -.00312409987036266 -.00475 0 1 0
 16 742 146 0 ?744 715 739 740 0 0 1 30 743 193 0 715 740 745 0 +.0019 0 -.00275
 1 0 1807003620809175e-31 16 715 135 0 ?746 711 742 743 0 0 1 30 745 65 0 721 74
3 747 0 +-.0023 4e-4 -.0101 0 0 1 16 721 53 0 ?748 749 718 745 0 0 1 30 747 64 0
 749 745 750 0 +-.0023 4e-4 .0026 1 0 0 16 749 49 0 ?155 751 721 747 0 0 1 30 75
0 63 0 751 747 752 0 +.0267 4e-4 -.0101 0 0 -1 16 751 45 0 ?152 753 749 750 0 0
 1 30 752 62 0 753 750 754 0 +-.0023 4e-4 -.0101 -1 0 0 16 753 41 0 ?149 755 751
 752 0 0 1 30 754 5 0 755 752 756 0 +-.0023 .0157 -.0101 0 0 1 16 755 4 0 ?757 7
58 753 754 0 0 1 30 756 8 0 758 754 759 0 +-.0023 .0157 .0026 1 0 0 16 758 7 0 ?
143 760 755 756 0 0 1 30 759 11 0 760 756 761 0 +.0267 .0157 -.0101 0 0 -1 16 76
0 10 0 ?140 762 758 759 0 0 1 30 761 14 0 762 759 763 0 +-.0023 .0157 -.0101 -1
 0 0 16 762 13 0 ?137 764 760 761 0 0 1 30 763 82 0 764 761 765 0 +-.0023 .0157
 -.0101 0 -1 0 16 764 70 0 ?766 767 762 763 0 0 1 30 765 83 0 767 763 768 0 +.02
67 .0157 -.0101 0 -1 0 16 767 71 0 ?769 770 764 765 0 0 1 30 768 84 0 770 765 77
1 0 +.0267 .0157 .0026 0 -1 0 16 770 72 0 ?772 773 767 768 0 0 1 30 771 85 0 773
 768 774 0 +-.0023 .0157 .0026 0 -1 0 16 773 73 0 ?775 35 770 771 0 0 1 30 774 1
328 0 35 771 776 0 +.0159 .0157 .00165 -1 0 0 16 35 1326 0 ?29 777 773 774 0 0 1
 30 776 1332 0 777 774 778 0 +.0188 .0157 .00115 0 0 1 16 777 1330 0 ?33 779 35
 776 0 0 1 30 778 1336 0 779 776 780 0 +.0183 .0157 -.00915 1 0 0 16 779 1334 0
 ?42 781 777 778 0 0 1 30 780 1437 0 781 778 16 0 +.0152 .0157 -.00915 0 0 -1 16
 781 1435 0 ?32 20 779 780 0 0 1 30 16 1475 0 20 780 6 0 +.01936464646464645 .01
272525252525252 -.00132474747474748 -.703526470681448 .502518907629607 .50251890
7629606 16 20 1443 0 ?36 9 781 16 0 0 1 17 36 0 782 34 783 22 319 20 0 784 +15 7
82 1384 0 783 785 0 17 34 0 782 786 36 43 29 35 0 385 -17 783 0 782 36 786 317 3
16 395 0 0 -17 319 0 787 788 784 317 36 20 0 394 -17 784 0 787 319 789 22 32 781
 0 0 -15 787 1484 0 789 790 0 17 789 0 787 784 788 30 19 9 0 0 -17 32 0 31 42 29
 30 784 781 0 789 +15 31 1188 0 29 360 791 17 42 0 31 33 32 38 37 779 0 792 +17
 33 0 31 29 42 43 792 777 0 34 +17 37 0 793 19 382 30 42 779 0 32 -17 792 0 794
 795 385 38 33 777 0 382 -15 794 1386 0 385 796 0 17 795 0 794 797 792 311 382 3
78 0 798 -17 385 0 794 792 797 43 786 383 0 0 +17 382 0 793 37 798 38 795 378 0
 0 +15 793 1388 0 382 799 0 17 798 0 793 382 19 311 401 399 0 0 -17 19 0 793 798
 37 302 789 9 0 401 +17 401 0 800 394 313 302 798 399 0 788 +15 800 1247 0 394 1
2 801 17 394 0 800 316 401 317 788 392 0 783 +17 313 0 800 401 316 311 797 397 0
 795 +17 788 0 787 789 319 302 394 392 0 0 -17 316 0 800 313 394 314 783 395 0 7
86 +17 797 0 794 385 795 314 313 397 0 0 -17 786 0 782 783 34 314 385 383 0 797
 -14 12 1289 802 ?803 0 800 4 804 +0 0 803 0 18 15 801 1286 0 805 12 0 17 805 0
 801 805 805 0 388 386 0 0 -17 388 0 806 388 388 0 805 386 0 0 +15 806 1299 0 38
8 807 808 14 807 1296 809 ?810 811 806 4 812 -0 0 810 811 18 15 808 1300 0 813 8
07 0 17 813 0 808 813 813 0 391 389 0 0 -17 391 0 814 391 391 0 813 389 0 0 +15
 814 1306 0 391 810 0 14 810 1304 815 ?785 807 814 4 816 +0 0 785 807 18 81 1 81
5 1675 817 810 0 0 809 818 819 14 785 1383 818 ?796 810 782 4 820 +0 0 796 810 1
8 50 816 1309 0 810 812 804 0 +-.0023 .0157 .0026 0 1 0 0 0 1 13 18 25 0 0 0 0 0
 0 8 12 51 812 1310 0 807 820 816 0 -.0171 .0171142135623731 49999999999998e-18
 0 -1 0 5e-4 0 0 -1 50 804 1257 0 12 816 821 0 +.0159 .0152 .00115 0 1 0 0 0 1 5
0 821 1127 0 822 804 823 0 +.019835 -.00455304320899002 -.008 1 0 0 0 0 -1 14 82
2 1111 824 ?811 825 826 4 821 -0 0 811 825 18 50 823 1126 0 825 821 827 0 +.0198
35 -.00455304320899002 -.007 0 0 -1 -1 0 0 14 825 1107 828 ?822 829 830 4 823 -0
 0 822 829 18 50 827 1125 0 829 823 831 0 +.020165 -.00455304320899002 -.008 -1
 0 0 0 0 1 14 829 1103 832 ?825 833 834 4 827 -0 0 825 833 18 50 831 1124 0 833
 827 835 0 +.019835 -.00455304320899002 -.008 0 0 1 1 0 0 14 833 1099 836 ?829 8
37 838 4 831 -0 0 829 837 18 50 835 1123 0 811 831 839 0 +-25e-5 -.0035 -25e-5 0
 -1 0 0 0 -1 14 811 1118 840 ?807 822 841 4 835 +0 0 807 822 18 50 839 1027 0 84
2 835 843 0 +.024785 -.00455304320899002 -.008 1 0 0 0 0 -1 14 842 1011 844 ?837
 845 846 4 839 -0 0 837 845 18 50 843 1026 0 845 839 847 0 +.024785 -.0045530432
0899002 -.007 0 0 -1 -1 0 0 14 845 1007 848 ?842 849 850 4 843 -0 0 842 849 18 5
0 847 1025 0 849 843 851 0 +.025215 -.00455304320899002 -.008 -1 0 0 0 0 1 14 84
9 1003 852 ?845 853 854 4 847 -0 0 845 853 18 50 851 1024 0 853 847 855 0 +.0247
85 -.00455304320899002 -.008 0 0 1 1 0 0 14 853 999 856 ?849 857 858 4 851 -0 0
 849 857 18 50 855 1023 0 837 851 859 0 +-25e-5 -.0035 -25e-5 0 -1 0 0 0 -1 14 8
37 1018 860 ?833 842 861 4 855 +0 0 833 842 18 50 859 927 0 862 855 863 0 +.0247
85 -.00455304320899002 5e-4 0 0 -1 -1 0 0 14 862 911 864 ?857 865 866 4 859 -0 0
 857 865 18 50 863 926 0 865 859 867 0 +.025215 -.00455304320899002 5e-4 -1 0 0
 0 0 1 14 865 907 868 ?862 869 870 4 863 -0 0 862 869 18 50 867 925 0 869 863 87
1 0 +.024785 -.00455304320899002 -5e-4 0 0 1 1 0 0 14 869 903 872 ?865 873 874 4
 867 -0 0 865 873 18 50 871 924 0 873 867 875 0 +.024785 -.00455304320899002 5e-
4 1 0 0 0 0 -1 14 873 899 876 ?869 877 878 4 871 -0 0 869 877 18 50 875 923 0 85
7 871 879 0 +-25e-5 -.0035 -25e-5 0 -1 0 0 0 -1 14 857 918 880 ?853 862 881 4 87
5 +0 0 853 862 18 50 879 827 0 882 875 883 0 +.019835 -.00455304320899002 5e-4 3
28546112874388e-30 0 -1 -1 0 -328546112874388e-30 14 882 811 884 ?877 885 886 4
 879 -0 0 877 885 18 50 883 826 0 885 879 887 0 +.020165 -.00455304320899002 5e-
4 -1 0 0 0 0 1 14 885 807 888 ?882 889 890 4 883 -0 0 882 889 18 50 887 825 0 88
9 883 891 0 +.019835 -.00455304320899002 5e-4 1 0 0 0 0 -1 14 889 803 892 ?885 8
93 894 4 887 -0 0 885 893 18 50 891 824 0 893 887 895 0 +.019835 -.0045530432089
9002 -5e-4 -328546112874388e-30 0 1 1 0 328546112874388e-30 14 893 799 896 ?889
 897 898 4 891 -0 0 889 897 18 50 895 823 0 877 891 899 0 +-25e-5 -.0035 -25e-5
 0 -1 0 0 0 -1 14 877 818 900 ?873 882 901 4 895 +0 0 873 882 18 50 899 721 0 89
7 895 902 0 +-25e-5 -.0035 -.00775 0 -1 0 0 0 -1 14 897 711 903 ?893 904 905 4 8
99 +0 0 893 904 18 50 902 720 0 904 899 906 0 +-25e-5 .001107106781186548 -.0077
5 0 0 1 1 0 0 14 904 704 907 ?897 908 909 4 902 -0 0 897 908 18 50 906 719 0 908
 902 910 0 +25e-5 .001107106781186548 -.00725 -1 0 0 0 0 1 14 908 700 911 ?904 9
12 913 4 906 -0 0 904 912 18 50 910 718 0 912 906 914 0 +-25e-5 .001107106781186
548 -.00725 0 0 -1 -1 0 0 14 912 696 915 ?908 916 917 4 910 -0 0 908 916 18 50 9
14 717 0 916 910 918 0 +-25e-5 .001107106781186548 -.00725 1 0 0 0 0 -1 14 916 6
92 919 ?912 920 921 4 914 -0 0 912 920 18 50 918 614 0 920 914 922 0 +-25e-5 -.0
035 -25e-5 0 -1 0 0 0 -1 14 920 604 923 ?916 924 925 4 918 +0 0 916 924 18 50 92
2 613 0 924 918 926 0 +-25e-5 .001107106781186548 -25e-5 0 0 1 1 0 0 14 924 597
 927 ?920 928 929 4 922 -0 0 920 928 18 50 926 612 0 928 922 930 0 +25e-5 .00110
7106781186548 25e-5 -1 0 0 0 0 1 14 928 593 931 ?924 932 933 4 926 -0 0 924 932
 18 50 930 611 0 932 926 934 0 +-25e-5 .001107106781186548 25e-5 0 0 -1 -1 0 0 1
4 932 589 935 ?928 936 937 4 930 -0 0 928 936 18 50 934 610 0 936 930 938 0 +-25
e-5 .001107106781186548 25e-5 1 0 0 0 0 -1 14 936 585 939 ?932 940 941 4 934 -0
 0 932 940 18 50 938 492 0 940 934 942 0 +0 0 0 0 1 0 0 0 1 14 940 482 943 ?936
 944 945 4 938 -0 0 936 944 18 50 942 490 0 946 938 947 0 +.0085 -.0031240998703
6266 -.00835 1 0 0 0 0 -1 14 946 466 948 ?949 950 951 4 942 -0 0 949 950 18 50 9
47 489 0 949 942 952 0 +.0085 -.00312409987036266 -.00685 0 0 -1 -1 0 0 14 949 4
70 953 ?954 946 955 4 947 -0 0 954 946 18 50 952 488 0 944 947 956 0 +.0131 -.00
312409987036266 -.00835 -1 0 0 0 0 1 14 944 478 957 ?940 954 958 4 952 -0 0 940
 954 18 50 956 487 0 954 952 959 0 +.0085 -.00312409987036266 -.00835 0 0 1 1 0
 0 14 954 474 960 ?944 949 961 4 956 -0 0 944 949 18 50 959 392 0 950 956 962 0
 +0 0 0 0 1 0 0 0 1 14 950 382 963 ?946 964 965 4 959 -0 0 946 964 18 50 962 390
 0 966 959 967 0 +.0085 -.00312409987036266 85e-5 471392248906741e-31 0 -1 -1 0
 -471392248906741e-31 14 966 366 968 ?969 970 971 4 962 -0 0 969 970 18 50 967 3
89 0 969 962 972 0 +.0131 -.00312409987036266 85e-5 -1 0 0 0 0 1 14 969 370 973
 ?974 966 975 4 967 -0 0 974 966 18 50 972 388 0 974 967 976 0 +.0085 -.00312409
987036266 -65e-5 471392248906741e-31 0 1 1 0 -471392248906741e-31 14 974 374 977
 ?964 969 978 4 972 -0 0 964 969 18 50 976 387 0 964 972 979 0 +.0085 -.00312409
987036266 85e-5 1 0 0 0 0 -1 14 964 378 980 ?950 974 981 4 976 -0 0 950 974 18 5
0 979 292 0 970 976 982 0 +0 0 0 0 1 0 0 0 1 14 970 282 983 ?966 984 985 4 979 -
0 0 966 984 18 50 982 290 0 986 979 987 0 +.0225 -.00312409987036266 -.00275 180
7003620809175e-31 0 -1 -1 0 -1807003620809175e-31 14 986 266 988 ?989 990 991 4
 982 -0 0 989 990 18 50 987 289 0 989 982 992 0 +.0249 -.00312409987036266 -.002
75 -1 0 0 0 0 1 14 989 270 993 ?994 986 995 4 987 -0 0 994 986 18 50 992 288 0 9
94 987 996 0 +.0225 -.00312409987036266 -.00475 0 0 1 1 0 0 14 994 274 997 ?984
 989 998 4 992 -0 0 984 989 18 50 996 287 0 984 992 999 0 +.0225 -.0031240998703
6266 -.00275 1 0 0 0 0 -1 14 984 278 1000 ?970 994 1001 4 996 -0 0 970 994 18 50
 999 192 0 990 996 1002 0 +0 0 0 0 1 0 0 0 1 14 990 182 1003 ?986 1004 1005 4 99
9 -0 0 986 1004 18 50 1002 190 0 1006 999 1007 0 +.0019 -.00312409987036266 -.00
275 1807003620809175e-31 0 -1 -1 0 -1807003620809175e-31 14 1006 166 1008 ?1009
 360 1010 4 1002 -0 0 1009 360 18 50 1007 189 0 1009 1002 1011 0 +.0043 -.003124
09987036266 -.00275 -1 0 -433680868994202e-30 -433680868994202e-30 0 1 14 1009 1
70 1012 ?1013 1006 1014 4 1007 -0 0 1013 1006 18 50 1011 188 0 1013 1007 1015 0
 +.0019 -.00312409987036266 -.00475 0 0 1 1 0 0 14 1013 174 1016 ?1004 1009 1017
 4 1011 -0 0 1004 1009 18 50 1015 187 0 1004 1011 1018 0 +.0019 -.00312409987036
266 -.00275 1 0 0 0 0 -1 14 1004 178 1019 ?990 1013 1020 4 1015 -0 0 990 1013 18
 50 1018 61 0 803 1015 1021 0 +-.0023 4e-4 .0026 0 1 0 0 0 1 14 803 1068 1022 ?1
4 12 1023 4 1018 -0 0 14 12 18 50 1021 2 0 360 1018 1024 0 +-.0023 .0157 .0026 0
 1 0 0 0 1 14 360 1 1025 ?1006 1026 358 4 1021 +0 0 1006 1026 18 50 1024 86 0 10
26 1021 1027 0 +-.0023 .0157 -.0101 0 0 1 1 0 0 14 1026 75 1028 ?360 1029 1030 4
 1024 -0 0 360 1029 18 50 1027 87 0 1029 1024 15 0 +.0267 .0157 -.0101 -1 0 0 0
 0 1 14 1029 77 1031 ?1026 1032 1033 4 1027 -0 0 1026 1032 18 50 15 88 0 1032 10
27 5 0 +-.0023 .0157 .0026 0 0 -1 -1 0 0 14 1032 79 1034 ?1029 14 1035 4 15 -0 0
 1029 14 18 81 1 1034 1620 817 1032 0 0 1036 1031 1037 14 14 81 1036 ?1032 803 1
038 4 5 -0 0 1032 803 18 15 1035 78 0 155 1032 0 17 155 0 1035 1039 775 153 158
 749 0 772 +17 1039 0 1035 146 155 141 772 770 0 1040 -17 775 0 1035 155 146 156
 1041 773 0 748 +17 158 0 1042 1043 1044 156 155 749 0 775 -17 772 0 1033 152 10
40 153 1039 770 0 1044 +15 1033 76 0 152 1029 0 17 152 0 1033 1045 772 150 1044
 751 0 769 +17 1040 0 1033 772 1045 141 140 760 0 0 -17 1044 0 1042 158 1046 153
 152 751 0 0 -15 1042 40 0 1043 803 1047 17 1046 0 1042 1044 1043 150 149 753 0
 0 -17 1043 0 1042 1046 158 147 748 721 0 0 -17 149 0 1030 1048 769 147 1046 753
 0 766 +15 1030 74 0 149 1026 0 17 1048 0 1030 1049 149 135 766 764 0 1050 -17 7
69 0 1030 149 1049 150 1045 767 0 1046 +17 766 0 1038 748 1050 147 1048 764 0 10
43 +15 1038 80 0 748 14 0 17 748 0 1038 1041 766 156 1043 721 0 0 +17 1050 0 103
8 766 1041 135 757 755 0 0 -17 1041 0 1038 1050 748 144 775 773 0 0 -17 757 0 79
1 143 137 144 1050 755 0 1041 +15 791 3 0 757 360 0 17 143 0 791 140 757 141 146
 758 0 1039 +17 137 0 791 757 140 135 1049 762 0 1048 +17 140 0 791 137 143 138
 1040 760 0 1045 +17 1049 0 1030 769 1048 138 137 762 0 0 -17 1045 0 1033 1040 1
52 138 769 767 0 1049 -17 146 0 1035 775 1039 144 143 758 0 757 -15 1047 230 0 1
22 803 1051 17 122 0 1047 188 119 120 693 691 0 705 -15 1051 430 0 101 803 1052
 17 101 0 1051 218 104 99 624 622 0 630 -15 1052 659 0 83 803 1053 17 83 0 1052
 86 89 81 1054 564 0 1055 +15 1053 866 0 65 803 1056 17 65 0 1053 270 68 63 486
 484 0 504 -15 1056 1066 0 300 803 0 17 300 0 1056 53 47 298 418 416 0 438 -17 5
3 0 1056 50 300 51 405 403 0 436 -17 47 0 1056 300 50 45 414 412 0 432 -17 418 0
 838 1057 438 45 300 416 0 0 +17 438 0 838 418 1058 298 296 402 0 405 +15 838 11
02 0 1058 833 0 17 1058 0 838 438 1057 287 428 426 0 430 -17 296 0 826 1059 405
 287 438 402 0 1058 -17 405 0 826 296 436 298 53 403 0 0 +15 826 1114 0 1059 822
 0 17 436 0 826 405 1059 51 309 407 0 410 +17 1059 0 826 436 296 297 430 406 0 4
21 -17 309 0 830 305 410 297 436 407 0 1059 -17 410 0 830 309 434 51 50 408 0 0
 +15 830 1110 0 305 825 0 17 434 0 830 410 305 48 1060 411 0 414 +17 50 0 1056 4
7 53 48 410 408 0 434 -17 305 0 830 434 309 303 421 419 0 1060 -17 1060 0 834 30
7 414 303 434 411 0 425 -17 414 0 834 1060 432 48 47 412 0 0 +15 834 1106 0 307
 829 0 17 432 0 834 414 307 45 1057 415 0 418 +17 307 0 834 432 1060 301 425 423
 0 1057 -17 1057 0 838 1058 418 301 432 415 0 428 -17 428 0 841 425 430 301 1058
 426 0 0 +15 841 1120 0 430 811 0 17 425 0 841 421 428 303 307 423 0 0 +17 430 0
 841 428 421 287 1059 406 0 0 +17 421 0 841 430 425 297 305 419 0 0 +17 270 0 10
53 71 65 268 490 488 0 510 -17 68 0 1053 65 71 66 482 480 0 506 -17 486 0 874 10
61 504 66 65 484 0 0 +17 504 0 874 486 277 63 1062 487 0 490 +15 874 906 0 277 8
69 0 17 277 0 874 504 1061 271 497 495 0 1062 -17 1062 0 878 1063 490 271 504 48
7 0 500 -17 490 0 878 1062 510 63 270 488 0 0 +15 878 902 0 1063 873 0 17 510 0
 878 490 1063 268 266 458 0 477 +17 1063 0 878 510 1062 262 500 498 0 502 -17 26
6 0 866 1064 477 262 510 458 0 1063 -17 477 0 866 266 508 268 71 475 0 0 +15 866
 914 0 1064 862 0 17 508 0 866 477 1064 69 279 479 0 482 +17 71 0 1053 68 270 69
 477 475 0 508 -17 1064 0 866 508 266 267 502 478 0 493 -17 279 0 870 275 482 26
7 508 479 0 1064 -17 482 0 870 279 506 69 68 480 0 0 +15 870 910 0 275 865 0 17
 506 0 870 482 275 66 1061 483 0 486 +17 275 0 870 506 279 273 493 491 0 1061 -1
7 1061 0 874 277 486 273 506 483 0 497 -17 497 0 881 493 500 273 277 495 0 0 +15
 881 920 0 502 857 0 17 493 0 881 502 497 267 275 491 0 0 +17 500 0 881 497 502
 271 1063 498 0 0 +17 502 0 881 500 493 262 1064 478 0 0 +17 86 0 1052 236 83 84
 1055 562 0 1065 +17 89 0 1052 83 236 87 1066 566 0 1067 +17 1054 0 921 239 1068
 87 83 564 0 0 -17 1055 0 917 248 1069 81 86 562 0 1068 -15 917 699 0 1055 912 0
 17 248 0 917 551 1055 246 1068 569 0 1070 +17 1069 0 917 1055 551 84 245 571 0
 0 -17 1068 0 921 1054 548 81 248 569 0 0 -15 921 695 0 1054 916 0 17 548 0 921
 1068 239 246 1071 538 0 0 +17 239 0 921 548 1054 237 1067 558 0 1071 +17 1071 0
 905 1072 1070 237 548 538 0 557 -15 905 713 0 1071 897 0 17 1072 0 905 1073 107
1 240 557 555 0 0 -17 1070 0 905 1071 1073 246 551 549 0 548 -17 557 0 909 1067
 242 237 1072 555 0 0 +15 909 707 0 1066 904 0 17 1067 0 909 1066 557 87 239 558
 0 1054 -17 242 0 909 557 1066 240 1074 568 0 554 +17 1066 0 909 242 1067 234 89
 566 0 0 -17 1074 0 913 1065 554 234 242 568 0 1066 -17 554 0 913 1074 245 240 1
073 552 0 1072 +15 913 703 0 1065 908 0 17 245 0 913 554 1065 243 1069 571 0 107
3 +17 1073 0 905 1070 1072 243 554 552 0 551 -17 551 0 917 1069 248 243 1070 549
 0 0 +17 1065 0 913 245 1074 84 236 559 0 1069 -17 236 0 1052 89 86 234 1065 559
 0 1074 +17 218 0 1051 107 101 216 621 619 0 633 -17 104 0 1051 101 107 102 615
 589 0 627 -17 624 0 951 1075 630 102 101 622 0 0 +17 630 0 951 624 638 99 1076
 628 0 621 +15 951 469 0 1075 946 0 17 638 0 951 630 1075 209 211 607 0 0 +17 10
76 0 955 605 621 209 630 628 0 638 -17 621 0 955 1076 633 99 218 619 0 0 +15 955
 473 0 1076 949 0 17 633 0 955 621 605 216 1077 631 0 618 +17 605 0 955 633 1076
 204 215 603 0 0 +17 1077 0 958 613 618 204 633 631 0 605 -17 618 0 958 1077 636
 216 107 616 0 0 +15 958 481 0 1077 944 0 17 636 0 958 618 613 105 1078 634 0 61
5 +17 107 0 1051 104 218 105 618 616 0 636 -17 613 0 958 636 1077 205 213 606 0
 0 +17 1078 0 961 610 615 205 636 634 0 613 -17 615 0 961 1078 627 105 104 589 0
 0 +15 961 477 0 1078 954 0 17 627 0 961 615 610 102 1075 625 0 624 +17 610 0 96
1 627 1078 208 207 608 0 1075 +17 1075 0 951 638 624 208 627 625 0 0 -17 207 0 9
45 213 211 205 610 608 0 1078 -15 945 484 0 215 940 0 17 213 0 945 215 207 204 6
13 606 0 1077 -17 211 0 945 207 215 208 638 607 0 610 -17 215 0 945 211 213 209
 605 603 0 1076 -17 188 0 1047 125 122 186 690 688 0 708 -17 119 0 1047 122 125
 117 696 694 0 702 -17 693 0 995 1079 705 117 122 691 0 0 +17 705 0 995 693 677
 120 1080 703 0 690 +15 995 273 0 1079 989 0 17 677 0 995 705 1079 174 185 675 0
 0 +17 1080 0 998 681 690 174 705 703 0 677 -17 690 0 998 1080 708 120 188 688 0
 0 +15 998 277 0 1080 994 0 17 708 0 998 690 681 186 1081 706 0 687 +17 681 0 99
8 708 1080 177 176 678 0 0 +17 1081 0 1001 684 687 177 708 706 0 681 -17 687 0 1
001 1081 699 186 125 649 0 0 +15 1001 281 0 1081 984 0 17 699 0 1001 687 684 123
 1082 697 0 696 +17 125 0 1047 119 188 123 687 649 0 699 -17 684 0 1001 699 1081
 178 183 682 0 1082 +17 1082 0 991 710 696 178 699 697 0 0 -17 696 0 991 1082 70
2 123 119 694 0 0 +15 991 269 0 1082 986 0 17 702 0 991 696 710 117 1079 700 0 6
93 +17 710 0 991 702 1082 181 180 679 0 0 +17 1079 0 995 677 693 181 702 700 0 7
10 -17 180 0 985 183 185 178 710 679 0 684 -15 985 284 0 176 970 0 17 183 0 985
 176 180 177 684 682 0 1081 -17 185 0 985 180 176 181 677 675 0 1079 -17 176 0 9
85 185 183 174 681 678 0 1080 -81 1 1036 1619 817 14 0 0 1022 1034 1083 80 1 817
 0 1084 8001 0 0 0 0 3 5 0 0 FFFFTFTFFFFFFF2 81 1 1022 1618 817 803 0 0 802 1036
 1085 83 3 1083 0 0 0 81 1 802 1617 817 12 0 0 0 1022 1086 83 3 1085 0 0 0 83 3
 1086 0 0 0 79 15 1084 SDL/TYSA_COLOUR81 1 1031 1621 817 1029 0 0 1034 1028 1087
 83 3 1037 0 0 0 81 1 1028 1622 817 1026 0 0 1031 1025 1088 83 3 1087 0 0 0 81 1
 1025 1623 817 360 0 0 1028 1008 1089 83 3 1088 0 0 0 81 1 1008 1624 817 1006 0
 0 1025 1012 1090 83 3 1089 0 0 0 81 1 1012 1625 817 1009 0 0 1008 1016 1091 83
 3 1090 0 0 0 81 1 1016 1626 817 1013 0 0 1012 1019 1092 83 3 1091 0 0 0 81 1 10
19 1627 817 1004 0 0 1016 1003 1093 83 3 1092 0 0 0 81 1 1003 1628 817 990 0 0 1
019 988 1094 83 3 1093 0 0 0 81 1 988 1629 817 986 0 0 1003 993 1095 83 3 1094 0
 0 0 81 1 993 1630 817 989 0 0 988 997 1096 83 3 1095 0 0 0 81 1 997 1631 817 99
4 0 0 993 1000 1097 83 3 1096 0 0 0 81 1 1000 1632 817 984 0 0 997 983 1098 83 3
 1097 0 0 0 81 1 983 1633 817 970 0 0 1000 968 1099 83 3 1098 0 0 0 81 1 968 163
4 817 966 0 0 983 973 1100 83 3 1099 0 0 0 81 1 973 1635 817 969 0 0 968 977 110
1 83 3 1100 0 0 0 81 1 977 1636 817 974 0 0 973 980 1102 83 3 1101 0 0 0 81 1 98
0 1637 817 964 0 0 977 963 1103 83 3 1102 0 0 0 81 1 963 1638 817 950 0 0 980 94
8 1104 83 3 1103 0 0 0 81 1 948 1639 817 946 0 0 963 953 1105 83 3 1104 0 0 0 81
 1 953 1640 817 949 0 0 948 960 1106 83 3 1105 0 0 0 81 1 960 1641 817 954 0 0 9
53 957 1107 83 3 1106 0 0 0 81 1 957 1642 817 944 0 0 960 943 1108 83 3 1107 0 0
 0 81 1 943 1643 817 940 0 0 957 939 1109 83 3 1108 0 0 0 81 1 939 1644 817 936
 0 0 943 935 1110 83 3 1109 0 0 0 81 1 935 1645 817 932 0 0 939 931 1111 83 3 11
10 .749019607843137 .749019607843137 .749019607843137 81 1 931 1646 817 928 0 0
 935 927 1112 83 3 1111 .749019607843137 .749019607843137 .749019607843137 81 1
 927 1647 817 924 0 0 931 923 1113 83 3 1112 .749019607843137 .749019607843137 .
749019607843137 81 1 923 1648 817 920 0 0 927 919 1114 83 3 1113 .74901960784313
7 .749019607843137 .749019607843137 81 1 919 1649 817 916 0 0 923 915 1115 83 3
 1114 .749019607843137 .749019607843137 .749019607843137 81 1 915 1650 817 912 0
 0 919 911 1116 83 3 1115 .749019607843137 .749019607843137 .749019607843137 81
 1 911 1651 817 908 0 0 915 907 1117 83 3 1116 .749019607843137 .749019607843137
 .749019607843137 81 1 907 1652 817 904 0 0 911 903 1118 83 3 1117 .749019607843
137 .749019607843137 .749019607843137 81 1 903 1653 817 897 0 0 907 896 1119 83
 3 1118 .749019607843137 .749019607843137 .749019607843137 81 1 896 1654 817 893
 0 0 903 892 1120 83 3 1119 .749019607843137 .749019607843137 .749019607843137 8
1 1 892 1655 817 889 0 0 896 888 1121 83 3 1120 .749019607843137 .74901960784313
7 .749019607843137 81 1 888 1656 817 885 0 0 892 884 1122 83 3 1121 .74901960784
3137 .749019607843137 .749019607843137 81 1 884 1657 817 882 0 0 888 900 1123 83
 3 1122 .749019607843137 .749019607843137 .749019607843137 81 1 900 1658 817 877
 0 0 884 876 1124 83 3 1123 .749019607843137 .749019607843137 .749019607843137 8
1 1 876 1659 817 873 0 0 900 872 1125 83 3 1124 .749019607843137 .74901960784313
7 .749019607843137 81 1 872 1660 817 869 0 0 876 868 1126 83 3 1125 .74901960784
3137 .749019607843137 .749019607843137 81 1 868 1661 817 865 0 0 872 864 1127 83
 3 1126 .749019607843137 .749019607843137 .749019607843137 81 1 864 1662 817 862
 0 0 868 880 1128 83 3 1127 .749019607843137 .749019607843137 .749019607843137 8
1 1 880 1663 817 857 0 0 864 856 1129 83 3 1128 .749019607843137 .74901960784313
7 .749019607843137 81 1 856 1664 817 853 0 0 880 852 1130 83 3 1129 .74901960784
3137 .749019607843137 .749019607843137 81 1 852 1665 817 849 0 0 856 848 1131 83
 3 1130 .749019607843137 .749019607843137 .749019607843137 81 1 848 1666 817 845
 0 0 852 844 1132 83 3 1131 .749019607843137 .749019607843137 .749019607843137 8
1 1 844 1667 817 842 0 0 848 860 1133 83 3 1132 .749019607843137 .74901960784313
7 .749019607843137 81 1 860 1668 817 837 0 0 844 836 1134 83 3 1133 .74901960784
3137 .749019607843137 .749019607843137 81 1 836 1669 817 833 0 0 860 832 1135 83
 3 1134 .749019607843137 .749019607843137 .749019607843137 81 1 832 1670 817 829
 0 0 836 828 1136 83 3 1135 .749019607843137 .749019607843137 .749019607843137 8
1 1 828 1671 817 825 0 0 832 824 1137 83 3 1136 .749019607843137 .74901960784313
7 .749019607843137 81 1 824 1672 817 822 0 0 828 840 1138 83 3 1137 .74901960784
3137 .749019607843137 .749019607843137 81 1 840 1673 817 811 0 0 824 809 1139 83
 3 1138 .749019607843137 .749019607843137 .749019607843137 81 1 809 1674 817 807
 0 0 840 815 1140 83 3 1139 .749019607843137 .749019607843137 .749019607843137 8
3 3 1140 0 0 0 15 1023 966 0 285 803 1141 17 285 0 1023 62 56 283 454 452 0 474
 -15 1141 766 0 74 803 1142 17 74 0 1141 255 77 72 522 520 0 540 -15 1142 552 0
 92 803 1143 17 92 0 1142 95 98 90 1144 592 0 1145 +15 1143 330 0 110 803 1146 1
7 110 0 1143 113 116 108 660 658 0 666 -15 1146 130 0 128 803 1042 17 128 0 1146
 131 134 126 732 730 0 738 -17 131 0 1146 173 128 129 729 727 0 741 -17 134 0 11
46 128 173 132 723 685 0 735 -17 732 0 1010 1147 738 132 128 730 0 0 +17 738 0 1
010 732 746 126 1148 736 0 729 +15 1010 169 0 1147 1006 0 17 746 0 1010 738 1147
 166 165 715 0 0 +17 1148 0 1014 713 729 166 738 736 0 746 -17 729 0 1014 1148 7
41 126 131 727 0 0 +15 1014 173 0 1148 1009 0 17 741 0 1014 729 713 129 1149 739
 0 726 +17 713 0 1014 741 1148 159 170 711 0 0 +17 1149 0 1017 717 726 159 741 7
39 0 713 -17 726 0 1017 1149 744 129 173 724 0 0 +15 1017 177 0 1149 1013 0 17 7
44 0 1017 726 717 171 1150 742 0 723 +17 173 0 1146 134 131 171 726 724 0 744 -1
7 717 0 1017 744 1149 162 161 714 0 0 +17 1150 0 1020 720 723 162 744 742 0 717
 -17 723 0 1020 1150 735 171 134 685 0 0 +15 1020 181 0 1150 1004 0 17 735 0 102
0 723 720 132 1147 733 0 732 +17 720 0 1020 735 1150 163 168 718 0 1147 +17 1147
 0 1010 746 732 163 735 733 0 0 -17 168 0 1005 161 165 162 720 718 0 1150 -15 10
05 184 0 161 990 0 17 161 0 1005 170 168 159 717 714 0 1149 -17 165 0 1005 168 1
70 163 746 715 0 720 -17 170 0 1005 165 161 166 713 711 0 1148 -17 113 0 1143 20
3 110 111 657 655 0 669 -17 116 0 1143 110 203 114 651 611 0 663 -17 660 0 971 1
151 666 114 110 658 0 0 +17 666 0 971 660 674 108 1152 664 0 657 +15 971 369 0 1
151 966 0 17 674 0 971 666 1151 196 195 643 0 0 +17 1152 0 975 641 657 196 666 6
64 0 674 -17 657 0 975 1152 669 108 113 655 0 0 +15 975 373 0 1152 969 0 17 669
 0 975 657 641 111 1153 667 0 654 +17 641 0 975 669 1152 189 200 639 0 0 +17 115
3 0 978 645 654 189 669 667 0 641 -17 654 0 978 1153 672 111 203 652 0 0 +15 978
 377 0 1153 974 0 17 672 0 978 654 645 201 1154 670 0 651 +17 203 0 1143 116 113
 201 654 652 0 672 -17 645 0 978 672 1153 192 191 642 0 0 +17 1154 0 981 648 651
 192 672 670 0 645 -17 651 0 981 1154 663 201 116 611 0 0 +15 981 381 0 1154 964
 0 17 663 0 981 651 648 114 1151 661 0 660 +17 648 0 981 663 1154 193 198 646 0
 1151 +17 1151 0 971 674 660 193 663 661 0 0 -17 198 0 965 191 195 192 648 646 0
 1154 -15 965 384 0 191 950 0 17 191 0 965 200 198 189 645 642 0 1153 -17 195 0
 965 198 200 193 674 643 0 648 -17 200 0 965 195 191 196 641 639 0 1152 -17 95 0
 1142 221 92 93 1145 590 0 1155 +17 98 0 1142 92 221 96 1156 594 0 1157 +17 1144
 0 941 224 1158 96 92 592 0 0 -17 1145 0 937 233 1159 90 95 590 0 1158 -15 937 5
92 0 1145 932 0 17 233 0 937 579 1145 231 1158 597 0 1160 +17 1159 0 937 1145 57
9 93 230 599 0 0 -17 1158 0 941 1144 576 90 233 597 0 0 -15 941 588 0 1144 936 0
 17 576 0 941 1158 224 231 1161 561 0 0 +17 224 0 941 576 1144 222 1157 586 0 11
61 +17 1161 0 925 1162 1160 222 576 561 0 585 -15 925 606 0 1161 920 0 17 1162 0
 925 1163 1161 225 585 583 0 0 -17 1160 0 925 1161 1163 231 579 577 0 576 -17 58
5 0 929 1157 227 222 1162 583 0 0 +15 929 600 0 1156 924 0 17 1157 0 929 1156 58
5 96 224 586 0 1144 -17 227 0 929 585 1156 225 1164 596 0 582 +17 1156 0 929 227
 1157 219 98 594 0 0 -17 1164 0 933 1155 582 219 227 596 0 1156 -17 582 0 933 11
64 230 225 1163 580 0 1162 +15 933 596 0 1155 928 0 17 230 0 933 582 1155 228 11
59 599 0 1163 +17 1163 0 925 1160 1162 228 582 580 0 579 -17 579 0 937 1159 233
 228 1160 577 0 0 +17 1155 0 933 230 1164 93 221 587 0 1159 -17 221 0 1142 98 95
 219 1155 587 0 1164 +17 255 0 1141 80 74 253 526 524 0 546 -17 77 0 1141 74 80
 75 518 516 0 542 -17 522 0 898 1165 540 75 74 520 0 0 +17 540 0 898 522 261 72
 1166 494 0 526 +15 898 802 0 261 893 0 17 261 0 898 540 1165 257 533 531 0 1166
 -17 1166 0 894 1167 526 257 540 494 0 535 -17 526 0 894 1166 546 72 255 524 0 0
 +15 894 806 0 1167 889 0 17 546 0 894 526 1167 253 251 523 0 513 +17 1167 0 894
 546 1166 249 535 514 0 537 -17 251 0 886 1168 513 249 546 523 0 1167 -17 513 0
 886 251 544 253 80 511 0 0 +15 886 814 0 1168 882 0 17 544 0 886 513 1168 78 26
4 515 0 518 +17 80 0 1141 77 255 78 513 511 0 544 -17 1168 0 886 544 251 252 537
 530 0 529 -17 264 0 890 259 518 252 544 515 0 1168 -17 518 0 890 264 542 78 77
 516 0 0 +15 890 810 0 259 885 0 17 542 0 890 518 259 75 1165 519 0 522 +17 259
 0 890 542 264 256 529 527 0 1165 -17 1165 0 898 261 522 256 542 519 0 533 -17 5
33 0 901 529 535 256 261 531 0 0 +15 901 820 0 535 877 0 17 529 0 901 537 533 25
2 259 527 0 0 +17 535 0 901 533 537 257 1167 514 0 0 +17 537 0 901 535 529 249 1
168 530 0 0 +17 62 0 1023 59 285 60 441 439 0 472 -17 56 0 1023 285 59 54 450 44
8 0 468 -17 454 0 858 1169 474 54 285 452 0 0 +17 474 0 858 454 1170 283 281 422
 0 441 +15 858 1002 0 1170 853 0 17 1170 0 858 474 1169 272 464 462 0 466 -17 28
1 0 846 1171 441 272 474 422 0 1170 -17 441 0 846 281 472 283 62 439 0 0 +15 846
 1014 0 1171 842 0 17 472 0 846 441 1171 60 294 443 0 446 +17 1171 0 846 472 281
 282 466 442 0 457 -17 294 0 850 290 446 282 472 443 0 1171 -17 446 0 850 294 47
0 60 59 444 0 0 +15 850 1010 0 290 845 0 17 470 0 850 446 290 57 1172 447 0 450
 +17 59 0 1023 56 62 57 446 444 0 470 -17 290 0 850 470 294 288 457 455 0 1172 -
17 1172 0 854 292 450 288 470 447 0 461 -17 450 0 854 1172 468 57 56 448 0 0 +15
 854 1006 0 292 849 0 17 468 0 854 450 292 54 1169 451 0 454 +17 292 0 854 468 1
172 286 461 459 0 1169 -17 1169 0 858 1170 454 286 468 451 0 464 -17 464 0 861 4
61 466 286 1170 462 0 0 +15 861 1020 0 466 837 0 17 461 0 861 457 464 288 292 45
9 0 0 +17 466 0 861 464 457 272 1171 442 0 0 +17 457 0 861 466 461 282 290 455 0
 0 +50 820 1409 0 785 1173 812 0 +.0159 .0152 .00115 0 .707106781186547 -.707106
781186548 0 .707106781186548 .707106781186547 50 1173 1410 0 796 1174 820 0 +.01
83 .0152 -.00865 -.707106781186548 .707106781186548 0 -.707106781186548 -.707106
781186548 0 14 796 1385 1175 ?799 785 794 4 1173 +0 0 799 785 18 50 1174 1411 0
 799 1176 1173 0 +.0159 .0152 -.00865 0 .707106781186548 .707106781186548 0 -.70
7106781186548 .707106781186548 14 799 1387 1177 ?790 796 793 4 1174 +0 0 790 796
 18 50 1176 1495 0 790 1178 1174 0 +.0159 .0152 -.00865 .581238193719097 .813733
471206735 0 -.813733471206735 .581238193719097 0 14 790 1483 1179 ?1180 799 787
 4 1176 +0 0 1180 799 18 50 1178 1584 0 1180 1181 1176 0 +-.0014 .0155 -.00875 -
1 0 1301042606982606e-31 1301042606982606e-31 0 1 14 1180 1560 1182 ?1183 790 23
 4 1178 -0 0 1183 790 18 50 1181 1585 0 357 1184 1178 0 +-.0014 .0155 .00125 0 0
 1 1 0 0 14 357 1572 1185 ?1186 343 350 4 1181 -0 0 1186 343 18 50 1184 1586 0 3
43 1187 1181 0 +-4e-4 .0155 -.00875 1 0 -124683249835833e-30 -124683249835833e-3
0 0 -1 14 343 1568 1188 ?357 1183 338 4 1184 -0 0 357 1183 18 50 1187 1587 0 118
3 1189 1184 0 +-.0014 .0155 -.00875 0 0 -1 -1 0 0 14 1183 1564 1190 ?343 1180 11
91 4 1187 -0 0 343 1180 18 50 1189 1588 0 1186 0 1187 0 +-.0014 .0155 .00125 0 1
 0 0 0 1 14 1186 1576 1192 ?0 357 1193 4 1189 +0 0 0 357 18 81 1 1192 1684 817 1
186 0 0 1185 0 1194 15 1193 1578 0 369 1186 0 17 369 0 1193 349 375 329 1195 364
 0 0 +17 349 0 1193 347 369 326 351 370 0 0 +17 375 0 1193 369 347 320 1196 373
 0 0 +17 1195 0 23 25 24 320 369 364 0 375 -15 23 1563 0 21 1180 0 17 25 0 23 21
 1195 331 322 376 0 361 +17 24 0 23 1195 21 329 28 353 0 351 -17 351 0 350 28 32
8 329 349 370 0 369 -17 322 0 1191 1196 361 320 25 376 0 1195 -17 361 0 1191 322
 335 331 346 362 0 26 +15 1191 1567 0 361 1183 0 17 335 0 1191 361 1196 333 325
 352 0 339 +17 26 0 358 346 355 331 21 27 0 0 -16 27 1540 0 ?21 356 0 366 0 0 1
 30 366 1601 0 27 0 359 0 +-.0014 .0157 -.00875 1301042606982606e-31 0 1 17 1196
 0 1191 335 322 323 375 373 0 0 -17 325 0 338 340 339 323 335 352 0 347 -17 347
 0 1193 375 349 323 340 348 0 1196 +81 1 1185 1683 817 357 0 0 1188 1192 1197 83
 3 1194 0 0 0 81 1 1188 1682 817 343 0 0 1190 1185 1198 83 3 1197 0 0 0 81 1 119
0 1681 817 1183 0 0 1182 1188 1199 83 3 1198 0 0 0 81 1 1182 1680 817 1180 0 0 1
179 1190 1200 83 3 1199 0 0 0 81 1 1179 1679 817 790 0 0 1177 1182 1201 83 3 120
0 0 0 0 81 1 1177 1678 817 799 0 0 1175 1179 1202 83 3 1201 0 0 0 81 1 1175 1677
 817 796 0 0 818 1177 1203 83 3 1202 0 0 0 81 1 818 1676 817 785 0 0 815 1175 12
04 83 3 1203 0 0 0 83 3 1204 0 0 0 83 3 819 0 0 0 19 13 91 0 1 0 8 4 S74 20 11 1
 0 1192 0 0 0 0 0 0 0 0 0 0 0 0 0 0 0 0 0 0 0 1 0 

