**ABCDEFGHIJKLMNOPQRSTUVWXYZabcdefghijklmnopqrstuvwxyz**************************
**PARASOLID !"#$%&'()*+,-./:;<=>?@[\]^_`{|}~0123456789**************************
**PART1;
OSMC1.0   MC=x86;
MC_MODEL=x86 Family 15 Model 4 Stepping 3, GenuineIntel;
MC_ID=unknown;
OS=Windows_NT;
OS_RELEASE=unknown;
FRU=Parasolid Version 13.0, build 242, 11-21-2001;
APPL=SolidWorks 2001Plus-2002025;
SITE=;
USER=unknown;
FORMAT=text;
GUISE=transmit;
KEY=G6QE_1A;
FILE=G6QE_1A.x_t;
DATE=Mon Jul 30 13:26:29 2018;
**PART2;
SCH=SCH_1300242_13006;
USFLD_SIZE=0;
**PART3;
**END_OF_HEADER*****************************************************************
T51 : TRANSMIT FILE created by modeller version 130024217 SCH_1100000_110040 12
 1 1733 0 2 0 0 0 0 1e3 1e-8 0 3 0 1 0 1 1 4 5 6 7 8 9 10 70 2 0 1 0 0 4 1 20 4
 11 11 1 T13 4 90 0 1 0 12 0 0 13 0 50 5 89 0 14 15 0 0 +-.00325 .0205 -.008 1 0
 216840434497101e-30 216840434497101e-30 0 -1 133 6 232 0 16 17 0 0 +18 .02315 6
e-4 .008 .02725 6e-4 .008 .0264 .0305 29 7 1297 0 10 19 0 .02405 .02020000000005
895 -.00345 19 8 24 0 1 13 0 20 V16 9 73 0 ?21 0 22 23 0 0 1 18 10 1295 0 24 0 2
5 7 ?1 17 24 0 26 27 28 10 29 30 0 31 +18 25 1187 0 32 10 33 19 ?1 17 32 0 34 35
 36 25 37 38 0 39 +18 33 1079 0 40 25 41 42 ?1 29 19 1189 0 25 42 7 .02195 .0202
0000000005895 -.00425 29 42 1081 0 33 43 19 .02195 .02020000000005895 -.00505 29
 43 903 0 41 44 42 .0254 6e-4 .007 18 41 901 0 45 33 46 43 ?1 29 44 788 0 46 47
 43 -.0022 6e-4 .007 18 46 786 0 48 41 49 44 ?1 29 47 681 0 49 50 44 .0223 6e-4
 -.00605 18 49 679 0 51 46 52 47 ?1 29 50 677 0 52 53 47 .0223 6e-4 -.00545 18 5
2 675 0 54 49 55 50 ?1 29 53 670 0 55 56 50 .0217 6e-4 -.00545 18 55 668 0 57 52
 58 53 ?1 29 56 566 0 58 59 53 3e-4 6e-4 -.00545 18 58 564 0 60 55 61 56 ?1 29 5
9 562 0 61 62 56 3e-4 6e-4 -.00605 18 61 560 0 63 58 64 59 ?1 29 62 555 0 64 65
 59 -3e-4 6e-4 -.00545 18 64 553 0 66 61 67 62 ?1 29 65 438 0 67 68 62 .00485 6e
-4 -.00738 18 67 436 0 69 64 70 65 ?1 29 68 435 0 70 71 65 .00285 6e-4 -.008 18
 70 433 0 72 67 73 68 ?1 29 71 432 0 73 74 68 .00485 6e-4 -.008 18 73 430 0 75 7
0 76 71 ?1 29 74 337 0 76 77 71 .02625 6e-4 -.00738 18 76 335 0 78 73 79 74 ?1 2
9 77 334 0 79 80 74 .02425 6e-4 -.008 18 79 332 0 81 76 82 77 ?1 29 80 331 0 82
 83 77 .02625 6e-4 -.008 18 82 329 0 84 79 85 80 ?1 29 83 236 0 85 86 80 .02115
 6e-4 .00738 18 85 234 0 87 82 88 83 ?1 29 86 233 0 88 89 83 .02315 6e-4 .008 18
 88 230 0 90 85 91 86 ?1 29 89 229 0 91 92 86 .02115 6e-4 .008 18 91 226 0 93 88
 94 89 ?1 29 92 125 0 94 95 89 85e-5 6e-4 .00738 18 94 123 0 96 91 97 92 ?1 29 9
5 122 0 97 98 92 .00285 6e-4 .008 18 97 119 0 99 94 100 95 1e-8 1 29 98 116 0 10
0 101 95 85e-5 6e-4 .008 18 100 114 0 102 97 103 98 1e-8 1 29 101 23 0 103 104 9
8 -.00325 .0205 -.008 18 103 22 0 105 100 106 101 ?1 29 104 21 0 106 107 101 .02
725 .0205 -.008 18 106 20 0 108 103 109 104 ?1 29 107 19 0 109 110 104 .02725 .0
205 .008 18 109 18 0 111 106 112 107 ?1 29 110 17 0 112 113 107 -.00325 .0205 .0
08 18 112 16 0 114 109 115 110 ?1 29 113 66 0 115 116 110 -.00325 6e-4 -.008 18
 115 57 0 117 112 118 113 ?1 29 116 67 0 118 119 113 .02725 6e-4 -.008 18 118 58
 0 120 115 121 116 ?1 29 119 68 0 121 122 116 .02725 6e-4 .008 18 121 59 0 123 1
18 124 119 ?1 29 122 69 0 124 125 119 -.00325 6e-4 .008 18 124 60 0 126 121 127
 122 ?1 29 125 207 0 127 128 122 .00285 0 .00738 18 127 161 0 129 124 130 125 ?1
 29 128 208 0 131 132 125 85e-5 0 .008 18 131 163 0 133 130 134 128 ?1 29 132 20
9 0 130 135 128 85e-5 0 .00738 18 130 164 0 136 127 131 132 ?1 29 135 210 0 134
 137 132 .00285 0 .008 18 134 162 0 138 131 139 135 ?1 29 137 213 0 139 140 135
 .00285 6e-4 .00738 18 139 158 0 141 134 142 137 ?1 29 140 319 0 142 143 137 .02
315 0 .00738 18 142 273 0 144 139 145 140 ?1 29 143 320 0 146 147 140 .02115 0 .
008 18 146 275 0 148 145 149 143 ?1 29 147 321 0 145 150 143 .02115 0 .00738 18
 145 276 0 151 142 146 147 ?1 29 150 322 0 149 152 147 .02315 0 .008 18 149 274
 0 153 146 154 150 ?1 29 152 325 0 154 155 150 .02315 6e-4 .00738 18 154 270 0 1
56 149 157 152 ?1 29 155 420 0 157 158 152 .02625 0 -.008 18 157 374 0 159 154 1
60 155 ?1 29 158 421 0 161 162 155 .02425 0 -.00738 18 161 376 0 163 160 164 158
 ?1 29 162 422 0 160 165 158 .02425 0 -.008 18 160 377 0 166 157 161 162 ?1 29 1
65 423 0 164 167 162 .02625 0 -.00738 18 164 375 0 168 161 169 165 ?1 29 167 424
 0 169 170 165 .02425 6e-4 -.00738 18 169 373 0 171 164 172 167 ?1 29 170 521 0
 173 174 167 .00285 0 -.008 18 173 477 0 175 176 177 170 ?1 29 174 522 0 176 178
 170 .00285 0 -.00738 18 176 476 0 179 172 173 174 ?1 29 178 523 0 172 180 174 .
00485 0 -.008 18 172 478 0 181 169 176 178 ?1 29 180 524 0 177 182 178 .00485 0
 -.00738 18 177 475 0 183 173 184 180 ?1 29 182 525 0 184 185 180 .00285 6e-4 -.
00738 18 184 473 0 186 177 187 182 ?1 29 185 653 0 187 188 182 3e-4 -.0035 -.006
05 18 187 607 0 189 184 190 185 ?1 29 188 654 0 190 191 185 3e-4 -.0035 -.00545
 18 190 606 0 192 187 193 188 ?1 29 191 656 0 193 194 188 -3e-4 6e-4 -.00605 18
 193 605 0 195 190 196 191 ?1 29 194 657 0 196 197 191 -3e-4 -.0035 -.00605 18 1
96 604 0 198 193 199 194 ?1 29 197 658 0 199 200 194 -3e-4 -.0035 -.00545 18 199
 602 0 201 196 202 197 ?1 29 200 768 0 202 203 197 .0223 -.0035 -.00605 18 202 7
22 0 204 199 205 200 ?1 29 203 769 0 205 206 200 .0223 -.0035 -.00545 18 205 721
 0 207 202 208 203 ?1 29 206 771 0 208 209 203 .0217 6e-4 -.00605 18 208 720 0 2
10 205 211 206 ?1 29 209 772 0 211 212 206 .0217 -.0035 -.00605 18 211 719 0 213
 208 214 209 ?1 29 212 773 0 214 215 209 .0217 -.0035 -.00545 18 214 717 0 216 2
11 217 212 ?1 29 215 882 0 217 218 212 -.0014 -.0035 .0055 18 217 838 0 219 214
 220 215 ?1 29 218 883 0 220 221 215 -.0014 -.0035 .007 18 220 837 0 222 217 223
 218 ?1 29 221 884 0 223 224 218 -.0014 6e-4 .007 18 223 836 0 225 220 226 221 ?
1 29 224 885 0 226 227 221 -.0014 6e-4 .0055 18 226 833 0 228 223 229 224 ?1 29
 227 886 0 229 230 224 -.0022 -.0035 .0055 18 229 835 0 231 226 232 227 ?1 29 23
0 887 0 232 233 227 -.0022 -.0035 .007 18 232 834 0 234 229 235 230 ?1 29 233 88
9 0 235 236 230 -.0022 6e-4 .0055 18 235 839 0 237 232 238 233 ?1 29 236 997 0 2
38 239 233 .0262 -.0035 .0055 18 238 953 0 240 235 241 236 ?1 29 239 998 0 241 2
42 236 .0262 -.0035 .007 18 241 952 0 243 238 244 239 ?1 29 242 999 0 244 245 23
9 .0262 6e-4 .007 18 244 951 0 246 241 247 242 ?1 29 245 1000 0 247 248 242 .026
2 6e-4 .0055 18 247 948 0 249 244 250 245 ?1 29 248 1001 0 250 251 245 .0254 -.0
035 .0055 18 250 950 0 252 247 253 248 ?1 29 251 1002 0 253 254 248 .0254 -.0035
 .007 18 253 949 0 255 250 256 251 ?1 29 254 1004 0 256 257 251 .0254 6e-4 .0055
 18 256 954 0 258 253 259 254 ?1 29 257 1178 0 259 260 254 .02195 .0197000000000
5895 -.00555 18 259 1128 0 261 256 262 257 ?1 29 260 1179 0 262 263 257 .02405 .
01970000000005895 -.00555 18 262 1130 0 264 259 265 260 ?1 29 263 1180 0 265 266
 260 .02405 .01970000000005895 -.00505 18 265 1132 0 267 262 268 263 ?1 29 266 1
181 0 268 269 263 .02195 .01970000000005895 -.00505 18 268 1134 0 270 265 271 26
6 ?1 29 269 1182 0 271 272 266 .02195 .02020000000005895 -.00555 18 271 1131 0 2
73 268 274 269 ?1 29 272 1183 0 274 275 269 .02405 .02020000000005895 -.00555 18
 274 1133 0 276 271 277 272 ?1 29 275 1184 0 277 278 272 .02405 .020200000000058
95 -.00505 18 277 1135 0 279 274 280 275 ?1 29 278 1286 0 280 281 275 .02195 .01
970000000005895 -.00475 18 280 1236 0 282 277 283 278 ?1 29 281 1287 0 283 284 2
78 .02405 .01970000000005895 -.00475 18 283 1238 0 285 280 286 281 ?1 29 284 128
8 0 286 287 281 .02405 .01970000000005895 -.00425 18 286 1240 0 288 283 289 284
 ?1 29 287 1289 0 289 290 284 .02195 .01970000000005895 -.00425 18 289 1242 0 35
 286 291 287 ?1 29 290 1290 0 291 292 287 .02195 .02020000000005895 -.00475 18 2
91 1239 0 36 289 293 290 ?1 29 292 1291 0 293 294 290 .02405 .02020000000005895
 -.00475 18 293 1241 0 295 291 296 292 ?1 29 294 1292 0 296 297 292 .02405 .0202
0000000005895 -.00425 18 296 1243 0 298 293 299 294 ?1 29 297 1394 0 299 300 294
 .02195 .01970000000005895 -.00345 18 299 1344 0 301 296 302 297 ?1 29 300 1395
 0 302 303 297 .02195 .01970000000005895 -.00395 18 302 1346 0 304 299 305 300 ?
1 29 303 1396 0 305 306 300 .02405 .01970000000005895 -.00395 18 305 1348 0 307
 302 308 303 ?1 29 306 1397 0 308 309 303 .02405 .01970000000005895 -.00345 18 3
08 1350 0 27 305 310 306 ?1 29 309 1398 0 310 311 306 .02195 .02020000000005895
 -.00345 18 310 1347 0 28 308 312 309 ?1 29 311 1399 0 312 313 309 .02195 .02020
000000005895 -.00395 18 312 1349 0 314 310 315 311 ?1 29 313 1400 0 315 0 311 .0
2405 .02020000000005895 -.00395 18 315 1351 0 316 312 0 313 ?1 17 316 0 317 318
 319 315 307 320 0 321 +15 317 1363 0 318 322 0 17 318 0 317 304 316 312 323 324
 0 325 +17 319 0 317 316 304 305 326 327 0 328 -17 307 0 329 330 321 305 316 320
 0 319 -16 320 1331 0 ?316 331 332 333 0 0 1 17 321 0 329 307 31 315 334 335 0 3
23 +15 329 1367 0 321 336 0 17 31 0 329 321 330 10 27 332 0 334 +17 334 0 337 29
 323 10 321 335 0 0 -16 335 1335 0 ?321 324 30 338 0 0 1 17 323 0 337 334 325 31
5 318 324 0 0 -15 337 1311 0 29 339 340 17 325 0 337 323 29 312 341 342 0 0 -16
 324 1338 0 ?318 342 335 343 0 0 1 16 342 1341 0 ?341 344 324 345 0 0 1 30 343 1
391 0 324 338 345 0 +.02195 .02020000000005895 -.00395 -1 0 0 30 338 1392 0 335
 346 343 0 +.02405 .02020000000005895 -.00345 0 0 -1 30 345 1390 0 342 343 347 0
 +.02195 .02020000000005895 -.00345 0 0 1 30 347 1389 0 344 345 348 0 +.02195 .0
1970000000005895 -.00345 1 0 0 16 344 1316 0 ?349 350 342 347 0 0 1 30 348 1388
 0 350 347 351 0 +.02405 .01970000000005895 -.00345 0 0 -1 16 350 1328 0 ?328 32
7 344 348 0 0 1 30 351 1387 0 327 348 352 0 +.02195 .01970000000005895 -.00395 -
1 0 0 16 327 1324 0 ?326 353 350 351 0 0 1 30 352 1386 0 353 351 354 0 +.02195 .
01970000000005895 -.00345 0 0 1 16 353 1320 0 ?355 332 327 352 0 0 1 30 354 1385
 0 356 352 357 0 +.02195 .01970000000005895 -.00345 0 1 0 16 356 1323 0 ?28 38 3
31 354 0 0 1 30 357 1384 0 331 354 333 0 +.02195 .01970000000005895 -.00395 0 1
 0 16 331 1327 0 ?314 356 320 357 0 0 1 30 333 1383 0 320 357 358 0 +.02405 .019
70000000005895 -.00395 0 1 0 30 358 1382 0 332 333 359 0 +.02405 .01970000000005
895 -.00345 0 1 0 16 332 1319 0 ?31 320 353 358 0 0 1 30 359 1285 0 38 358 360 0
 +.02195 .02020000000005895 -.00475 0 0 1 16 38 1224 0 ?32 361 356 359 0 0 1 30
 360 1284 0 361 359 362 0 +.02195 .02020000000005895 -.00425 1 0 0 16 361 1227 0
 ?363 364 38 360 0 0 1 30 362 1283 0 364 360 365 0 +.02405 .02020000000005895 -.
00475 0 0 -1 16 364 1230 0 ?366 367 361 362 0 0 1 30 365 1282 0 367 362 368 0 +.
02195 .02020000000005895 -.00475 -1 0 0 16 367 1233 0 ?369 370 364 365 0 0 1 30
 368 1281 0 370 365 371 0 +.02195 .01970000000005895 -.00475 0 0 1 16 370 1208 0
 ?372 373 367 368 0 0 1 30 371 1280 0 373 368 374 0 +.02195 .01970000000005895 -
.00425 1 0 0 16 373 1220 0 ?375 376 370 371 0 0 1 30 374 1279 0 376 371 377 0 +.
02405 .01970000000005895 -.00475 0 0 -1 16 376 1216 0 ?378 379 373 374 0 0 1 30
 377 1278 0 379 374 380 0 +.02195 .01970000000005895 -.00475 -1 0 0 16 379 1212
 0 ?381 382 376 377 0 0 1 30 380 1277 0 383 377 384 0 +.02195 .01970000000005895
 -.00475 0 1 0 16 383 1215 0 ?36 385 386 380 0 0 1 30 384 1276 0 386 380 387 0 +
.02405 .01970000000005895 -.00475 0 1 0 16 386 1219 0 ?295 383 388 384 0 0 1 30
 387 1275 0 388 384 389 0 +.02405 .01970000000005895 -.00425 0 1 0 16 388 1223 0
 ?298 386 382 387 0 0 1 30 389 1274 0 382 387 390 0 +.02195 .01970000000005895 -
.00425 0 1 0 16 382 1211 0 ?39 388 379 389 0 0 1 30 390 1177 0 385 389 391 0 +.0
2195 .02020000000005895 -.00555 0 0 1 16 385 1116 0 ?40 392 383 390 0 0 1 30 391
 1176 0 392 390 393 0 +.02195 .02020000000005895 -.00505 1 0 0 16 392 1119 0 ?39
4 395 385 391 0 0 1 30 393 1175 0 395 391 396 0 +.02405 .02020000000005895 -.005
55 0 0 -1 16 395 1122 0 ?397 398 392 393 0 0 1 30 396 1174 0 398 393 399 0 +.021
95 .02020000000005895 -.00555 -1 0 0 16 398 1125 0 ?400 401 395 396 0 0 1 30 399
 1173 0 401 396 402 0 +.02195 .01970000000005895 -.00555 0 0 1 16 401 1100 0 ?40
3 404 398 399 0 0 1 30 402 1172 0 404 399 405 0 +.02195 .01970000000005895 -.005
05 1 0 0 16 404 1112 0 ?406 407 401 402 0 0 1 30 405 1171 0 407 402 408 0 +.0240
5 .01970000000005895 -.00555 0 0 -1 16 407 1108 0 ?409 410 404 405 0 0 1 30 408
 1170 0 410 405 411 0 +.02195 .01970000000005895 -.00555 -1 0 0 16 410 1104 0 ?4
12 413 407 408 0 0 1 30 411 1169 0 414 408 415 0 +.02195 .01970000000005895 -.00
555 0 1 0 16 414 1107 0 ?273 416 417 411 0 0 1 30 415 1168 0 417 411 418 0 +.024
05 .01970000000005895 -.00555 0 1 0 16 417 1111 0 ?276 414 419 415 0 0 1 30 418
 1167 0 419 415 420 0 +.02405 .01970000000005895 -.00505 0 1 0 16 419 1115 0 ?27
9 417 413 418 0 0 1 30 420 1166 0 413 418 421 0 +.02195 .01970000000005895 -.005
05 0 1 0 16 413 1103 0 ?422 419 410 420 0 0 1 31 421 1076 0 416 420 423 0 +.023
 .02050000000005895 -.0045 0 1 0 0 0 1 .0018 16 416 1056 0 ?424 425 414 421 0 0
 1 31 423 1075 0 425 421 426 0 +.023 .02020000000005895 -.0045 0 1 0 0 0 1 .0018
 16 425 1053 0 ?427 428 416 423 0 0 1 31 426 1043 0 428 423 429 0 +.012 .0205 -3
469446951953615e-33 0 1 0 0 0 1 .002 16 428 1023 0 ?430 431 425 426 0 0 1 31 429
 1042 0 431 426 432 0 +.012 .0201 -3469446951953615e-33 0 1 0 0 0 1 .00149999999
545442 16 431 1020 0 ?433 434 428 429 0 0 1 30 432 996 0 434 429 435 0 +.0254 6e
-4 .0055 0 1 211551643411806e-30 16 434 919 0 ?436 437 431 432 0 0 1 30 435 995
 0 437 432 438 0 +.0254 6e-4 .0055 0 -144560289664734e-30 1 16 437 923 0 ?439 44
0 434 435 0 0 1 30 438 994 0 440 435 441 0 +.0254 6e-4 .007 0 -1 0 16 440 927 0
 ?255 442 437 438 0 0 1 30 441 993 0 442 438 443 0 +.0254 -.0035 .0055 0 0 -1 16
 442 931 0 ?252 444 440 441 0 0 1 30 443 992 0 444 441 445 0 +.0262 6e-4 .0055 0
 1 211551643411806e-30 16 444 935 0 ?249 446 442 443 0 0 1 30 445 991 0 446 443
 447 0 +.0262 6e-4 .0055 0 -144560289664734e-30 1 16 446 938 0 ?246 448 444 445
 0 0 1 30 447 990 0 448 445 449 0 +.0262 6e-4 .007 0 -1 0 16 448 941 0 ?243 450
 446 447 0 0 1 30 449 989 0 450 447 451 0 +.0262 -.0035 .0055 0 0 -1 16 450 944
 0 ?240 452 448 449 0 0 1 30 451 988 0 452 449 453 0 +.0262 -.0035 .0055 -1 0 0
 16 452 922 0 ?454 455 450 451 0 0 1 30 453 987 0 455 451 456 0 +.0262 -.0035 .0
07 -1 0 0 16 455 934 0 ?457 458 452 453 0 0 1 30 456 986 0 458 453 459 0 +.0262
 6e-4 .007 -1 0 0 16 458 930 0 ?460 461 455 456 0 0 1 30 459 985 0 461 456 462 0
 +.0262 6e-4 .0055 -1 0 0 16 461 926 0 ?463 464 458 459 0 0 1 30 462 881 0 464 4
59 465 0 +-.0022 6e-4 .0055 0 1 211551643411806e-30 16 464 804 0 ?466 467 461 46
2 0 0 1 30 465 880 0 467 462 468 0 +-.0022 6e-4 .0055 0 -144560289664734e-30 1 1
6 467 808 0 ?469 470 464 465 0 0 1 30 468 879 0 470 465 471 0 +-.0022 6e-4 .007
 0 -1 0 16 470 812 0 ?234 472 467 468 0 0 1 30 471 878 0 472 468 473 0 +-.0022 -
.0035 .0055 0 0 -1 16 472 816 0 ?231 474 470 471 0 0 1 30 473 877 0 474 471 475
 0 +-.0014 6e-4 .0055 0 1 211551643411806e-30 16 474 820 0 ?228 476 472 473 0 0
 1 30 475 876 0 476 473 477 0 +-.0014 6e-4 .0055 0 -144560289664734e-30 1 16 476
 823 0 ?225 478 474 475 0 0 1 30 477 875 0 478 475 479 0 +-.0014 6e-4 .007 0 -1
 0 16 478 826 0 ?222 480 476 477 0 0 1 30 479 874 0 480 477 481 0 +-.0014 -.0035
 .0055 0 0 -1 16 480 829 0 ?219 482 478 479 0 0 1 30 481 873 0 482 479 483 0 +-.
0014 -.0035 .0055 -1 0 0 16 482 807 0 ?484 485 480 481 0 0 1 30 483 872 0 485 48
1 486 0 +-.0014 -.0035 .007 -1 0 0 16 485 819 0 ?487 488 482 483 0 0 1 30 486 87
1 0 488 483 489 0 +-.0014 6e-4 .007 -1 0 0 16 488 815 0 ?490 491 485 486 0 0 1 3
0 489 870 0 491 486 492 0 +-.0014 6e-4 .0055 -1 0 0 16 491 811 0 ?493 494 488 48
9 0 0 1 30 492 766 0 494 489 495 0 +.0217 6e-4 -.00605 0 -1807003620809175e-31 1
 16 494 689 0 ?57 496 491 492 0 0 1 30 495 765 0 496 492 497 0 +.0217 6e-4 -.005
45 0 -1 0 16 496 693 0 ?216 498 494 495 0 0 1 30 497 764 0 498 495 499 0 +.0217
 -.0035 -.00605 0 0 -1 16 498 697 0 ?213 500 496 497 0 0 1 30 499 763 0 500 497
 501 0 +.0217 6e-4 -.00605 0 1 211551643411806e-30 16 500 701 0 ?502 503 498 499
 0 0 1 30 501 762 0 503 499 504 0 +.0223 6e-4 -.00605 0 -1807003620809175e-31 1
 16 503 705 0 ?505 506 500 501 0 0 1 30 504 761 0 506 501 507 0 +.0223 6e-4 -.00
545 0 -1 0 16 506 708 0 ?207 508 503 504 0 0 1 30 507 760 0 508 504 509 0 +.0223
 -.0035 -.00605 0 0 -1 16 508 711 0 ?204 510 506 507 0 0 1 30 509 759 0 510 507
 511 0 +.0223 6e-4 -.00605 0 1 211551643411806e-30 16 510 714 0 ?512 513 508 509
 0 0 1 30 511 758 0 513 509 514 0 +.0223 6e-4 -.00605 -1 0 0 16 513 692 0 ?210 5
15 510 511 0 0 1 30 514 757 0 515 511 516 0 +.0223 -.0035 -.00605 -1 0 0 16 515
 704 0 ?517 518 513 514 0 0 1 30 516 756 0 518 514 519 0 +.0223 -.0035 -.00545 -
1 0 0 16 518 700 0 ?520 521 515 516 0 0 1 30 519 755 0 521 516 522 0 +.0223 6e-4
 -.00545 -1 0 0 16 521 696 0 ?523 524 518 519 0 0 1 30 522 651 0 524 519 525 0 +
-3e-4 6e-4 -.00605 0 -1807003620809175e-31 1 16 524 574 0 ?66 526 521 522 0 0 1
 30 525 650 0 526 522 527 0 +-3e-4 6e-4 -.00545 0 -1 0 16 526 578 0 ?201 528 524
 525 0 0 1 30 527 649 0 528 525 529 0 +-3e-4 -.0035 -.00605 0 0 -1 16 528 582 0
 ?198 530 526 527 0 0 1 30 529 648 0 530 527 531 0 +-3e-4 6e-4 -.00605 0 1 21155
1643411806e-30 16 530 586 0 ?532 533 528 529 0 0 1 30 531 647 0 533 529 534 0 +3
e-4 6e-4 -.00605 0 -1807003620809175e-31 1 16 533 590 0 ?535 536 530 531 0 0 1 3
0 534 646 0 536 531 537 0 +3e-4 6e-4 -.00545 0 -1 0 16 536 593 0 ?192 538 533 53
4 0 0 1 30 537 645 0 538 534 539 0 +3e-4 -.0035 -.00605 0 0 -1 16 538 596 0 ?189
 540 536 537 0 0 1 30 539 644 0 540 537 541 0 +3e-4 6e-4 -.00605 0 1 21155164341
1806e-30 16 540 599 0 ?542 543 538 539 0 0 1 30 541 643 0 543 539 544 0 +3e-4 6e
-4 -.00605 -1 0 0 16 543 577 0 ?195 545 540 541 0 0 1 30 544 642 0 545 541 546 0
 +3e-4 -.0035 -.00605 -1 0 0 16 545 589 0 ?547 548 543 544 0 0 1 30 546 641 0 54
8 544 549 0 +3e-4 -.0035 -.00545 -1 0 0 16 548 585 0 ?550 551 545 546 0 0 1 30 5
49 640 0 551 546 552 0 +3e-4 6e-4 -.00545 -1 0 0 16 551 581 0 ?553 554 548 549 0
 0 1 30 552 520 0 555 549 556 0 +.00485 0 -.008 0 0 -1 16 555 456 0 ?557 558 559
 552 0 0 1 30 556 519 0 560 552 561 0 +.00285 0 -.008 0 0 1 16 560 461 0 ?562 56
3 558 556 0 0 1 30 561 518 0 558 556 564 0 +.00285 0 -.008 -1 0 0 16 558 466 0 ?
565 560 555 561 0 0 1 30 564 517 0 554 561 566 0 +.00285 6e-4 -.008 0 0 -1 16 55
4 463 0 ?567 568 551 564 0 0 1 30 566 515 0 568 564 569 0 +.00485 6e-4 -.008 0 0
 1 16 568 458 0 ?570 571 554 566 0 0 1 30 569 514 0 571 566 572 0 +.00285 6e-4 -
.00738 -1 0 0 16 571 453 0 ?573 574 568 569 0 0 1 30 572 513 0 574 569 575 0 +.0
0285 -.002093895890439635 -.00738 0 1 0 16 574 462 0 ?576 577 571 572 0 0 1 30 5
75 512 0 577 572 578 0 +.00485 -.002093895890439635 -.00738 0 1 0 16 577 452 0 ?
579 580 574 575 0 0 1 30 578 511 0 580 575 581 0 +.00485 -.002093895890439635 -.
008 0 1 0 16 580 457 0 ?582 583 577 578 0 0 1 30 581 510 0 583 578 584 0 +.00285
 -.002093895890439635 -.008 0 1 0 16 583 467 0 ?585 559 580 581 0 0 1 30 584 509
 0 559 581 586 0 +.00285 0 -.00738 1 0 0 16 559 451 0 ?587 555 583 584 0 0 1 30
 586 419 0 588 584 589 0 +.02625 0 -.008 0 0 -1 16 588 355 0 ?590 591 592 586 0
 0 1 30 589 418 0 591 586 593 0 +.02425 0 -.008 -1 0 0 16 591 360 0 ?594 595 588
 589 0 0 1 30 593 417 0 595 589 596 0 +.02425 0 -.008 0 0 1 16 595 365 0 ?597 59
8 591 593 0 0 1 30 596 416 0 563 593 599 0 +.02425 6e-4 -.008 0 0 -1 16 563 367
 0 ?600 601 560 596 0 0 1 30 599 414 0 601 596 602 0 +.02625 6e-4 -.008 0 0 1 16
 601 357 0 ?603 604 563 599 0 0 1 30 602 413 0 604 599 605 0 +.02425 6e-4 -.0073
8 -1 0 0 16 604 352 0 ?606 607 601 602 0 0 1 30 605 412 0 607 602 608 0 +.02425
 -.002093895890439635 -.00738 0 1 0 16 607 366 0 ?609 610 604 605 0 0 1 30 608 4
11 0 610 605 611 0 +.02625 -.002093895890439635 -.00738 0 1 0 16 610 351 0 ?612
 613 607 608 0 0 1 30 611 410 0 613 608 614 0 +.02625 -.002093895890439635 -.008
 0 1 0 16 613 356 0 ?615 616 610 611 0 0 1 30 614 409 0 616 611 617 0 +.02425 -.
002093895890439635 -.008 0 1 0 16 616 361 0 ?618 592 613 614 0 0 1 30 617 408 0
 592 614 619 0 +.02425 0 -.00738 1 0 0 16 592 350 0 ?620 588 616 617 0 0 1 30 61
9 318 0 621 617 622 0 +.02315 0 .008 559588218057035e-29 0 -1 16 621 254 0 ?623
 624 625 619 0 0 1 30 622 317 0 624 619 626 0 +.02115 0 .00738 -1 0 0 16 624 259
 0 ?627 628 621 622 0 0 1 30 626 316 0 628 622 629 0 +.02115 0 .008 559588218057
035e-29 0 1 16 628 264 0 ?630 631 624 626 0 0 1 30 629 315 0 598 626 632 0 +.021
15 6e-4 .008 -559588218057035e-29 0 -1 16 598 266 0 ?633 634 595 629 0 0 1 30 63
2 314 0 634 629 635 0 +.02115 6e-4 .00738 1 0 0 16 634 261 0 ?636 637 598 632 0
 0 1 30 635 313 0 637 632 638 0 +.02315 6e-4 .008 -559588218057035e-29 0 1 16 63
7 256 0 ?639 640 634 635 0 0 1 30 638 311 0 640 635 641 0 +.02115 -.002093895890
439635 .008 0 1 0 16 640 265 0 ?642 643 637 638 0 0 1 30 641 310 0 643 638 644 0
 +.02315 -.002093895890439635 .008 0 1 0 16 643 250 0 ?645 646 640 641 0 0 1 30
 644 309 0 646 641 647 0 +.02315 -.002093895890439635 .00738 0 1 0 16 646 255 0
 ?648 649 643 644 0 0 1 30 647 308 0 649 644 650 0 +.02115 -.002093895890439635
 .00738 0 1 0 16 649 260 0 ?651 625 646 647 0 0 1 30 650 307 0 625 647 652 0 +.0
2115 0 .008 1 0 0 16 625 249 0 ?653 621 649 650 0 0 1 30 652 206 0 654 650 655 0
 +.00285 0 .008 0 0 -1 16 654 142 0 ?656 657 658 652 0 0 1 30 655 205 0 657 652
 659 0 +85e-5 0 .00738 -1 0 0 16 657 147 0 ?660 661 654 655 0 0 1 30 659 204 0 6
61 655 662 0 +85e-5 0 .008 0 0 1 16 661 152 0 ?663 664 657 659 0 0 1 30 662 202
 0 665 659 666 0 +85e-5 6e-4 .00738 1 0 0 16 665 149 0 ?667 668 631 662 0 0 1 30
 666 201 0 1 662 669 670 +.00285 6e-4 .008 0 0 1 30 669 197 0 671 666 672 0 +.00
285 -.002093895890439635 .00738 0 1 0 141 670 17 670 670 666 133 17 224 0 668 67
3 6 0 +666 .00285 6e-4 .00738 .00285 6e-4 .008 -62e-5 0 16 668 144 0 ?674 675 66
5 17 0 0 1 30 673 223 0 1 676 17 677 +.00285 -.002093895890439635 .008 0 1 0 133
 676 222 0 678 679 673 0 +673 .00285 0 .008 .00285 6e-4 .008 .002093895890439635
 .002693895890439635 141 677 676 677 677 673 16 678 138 0 ?680 671 675 676 0 0 1
 30 679 219 0 1 681 676 682 +85e-5 -.002093895890439635 .008 0 1 0 133 681 218 0
 675 683 679 0 +679 85e-5 0 .008 85e-5 6e-4 .008 .002093895890439635 .0026938958
90439635 141 682 681 682 682 679 16 675 153 0 ?684 678 668 681 0 0 1 30 683 217
 0 1 685 681 686 +85e-5 6e-4 .008 0 0 -1 133 685 216 0 631 687 683 0 +683 85e-5
 6e-4 .008 85e-5 6e-4 .00738 0 62e-5 141 686 685 686 686 683 16 631 154 0 ?688 6
65 628 685 0 0 1 133 687 121 0 689 690 685 0 +18 .00285 6e-4 .008 .02115 6e-4 .0
08 .0061 .0244 16 689 120 0 ?691 692 16 687 0 0 1 133 690 118 0 692 23 687 0 +18
 -.00325 6e-4 .008 85e-5 6e-4 .008 0 .0041 30 18 64 0 1 693 694 695 +-.00325 6e-
4 .008 1 0 0 30 693 65 0 664 696 18 0 +-.00325 6e-4 -.008 -216840434497101e-30 0
 1 30 694 63 0 697 18 698 0 +.02725 6e-4 -.008 -216840434497101e-30 0 -1 141 695
 687 699 700 18 141 699 6 700 695 18 141 700 690 695 699 18 16 697 45 0 ?120 701
 692 694 0 0 1 30 698 62 0 702 694 703 0 +-.00325 6e-4 -.008 -1 0 0 16 702 41 0
 ?704 705 706 698 701 706 1 30 703 5 0 705 698 707 0 +-.00325 .0205 -.008 -21684
0434497101e-30 0 1 16 705 4 0 ?708 709 702 703 0 0 1 30 707 8 0 709 703 710 0 +-
.00325 .0205 .008 1 0 0 16 709 7 0 ?111 711 705 707 0 0 1 30 710 11 0 711 707 71
2 0 +.02725 .0205 -.008 -216840434497101e-30 0 -1 16 711 10 0 ?108 713 709 710 0
 0 1 30 712 14 0 713 710 714 0 +-.00325 .0205 -.008 -1 0 0 16 713 13 0 ?105 715
 711 712 0 0 1 30 714 82 0 715 712 716 0 +-.00325 .0205 -.008 0 -1 0 16 715 70 0
 ?717 718 713 714 0 0 1 30 716 83 0 718 714 719 0 +.02725 .0205 -.008 0 -1 0 16
 718 71 0 ?720 22 715 716 0 0 1 30 719 84 0 22 716 23 0 +.02725 .0205 .008 0 -1
 0 16 22 72 0 ?721 9 718 719 0 0 1 30 23 85 0 9 719 690 0 +-.00325 .0205 .008 0
 -1 0 17 721 0 722 120 723 121 724 22 0 725 +15 722 76 0 120 726 0 17 120 0 722
 727 721 118 725 697 0 720 +17 723 0 722 721 727 109 108 711 0 0 -17 724 0 728 1
14 123 109 721 22 0 723 -17 725 0 729 90 730 121 120 697 0 0 -15 729 446 0 75 12
 731 17 90 0 729 156 725 88 123 16 0 645 -17 730 0 729 725 84 118 704 702 0 0 -1
7 84 0 729 730 78 82 603 601 0 704 -17 704 0 732 733 720 82 730 702 0 615 +15 73
2 74 0 704 734 0 17 733 0 732 594 704 157 615 613 0 590 -17 720 0 732 704 735 11
8 727 718 0 730 +17 615 0 736 603 590 82 733 613 0 0 +15 736 388 0 737 738 0 17
 603 0 736 737 615 76 84 601 0 0 +17 590 0 736 615 737 157 168 588 0 0 +17 737 0
 736 590 603 164 612 610 0 620 -17 168 0 739 163 159 164 590 588 0 737 -15 739 3
99 0 159 740 0 17 163 0 739 166 168 161 620 592 0 597 -17 159 0 739 168 166 157
 594 591 0 733 -17 166 0 739 159 163 160 597 595 0 741 -17 594 0 732 618 733 160
 159 591 0 0 +17 618 0 732 742 594 79 741 616 0 600 +17 742 0 732 743 618 73 81
 706 0 582 +17 741 0 744 597 600 160 618 616 0 594 -17 600 0 744 741 609 79 171
 563 0 0 +15 744 396 0 741 745 0 17 609 0 744 600 597 169 746 607 0 606 +17 171
 0 729 78 81 169 600 563 0 609 -17 78 0 729 84 171 76 606 604 0 612 -17 81 0 729
 171 75 79 742 706 0 618 -17 75 0 729 81 69 73 570 568 0 742 -16 706 333 0 ?742
 702 701 698 702 701 1 16 701 434 0 ?117 706 697 698 706 702 1 17 117 0 732 747
 585 115 72 701 0 717 +17 747 0 732 735 117 103 717 715 0 748 -17 585 0 732 117
 565 70 749 583 0 567 +17 72 0 729 186 750 70 117 701 0 585 -17 717 0 751 752 74
8 115 747 715 0 750 +15 751 80 0 752 14 0 17 752 0 751 753 717 124 750 664 0 0 +
17 748 0 751 717 753 103 708 705 0 0 -17 750 0 729 72 126 115 752 664 0 0 -17 12
6 0 729 750 102 124 754 692 0 21 -16 664 53 0 ?752 16 661 693 0 0 1 16 16 231 0
 ?123 689 664 6 0 0 1 17 123 0 728 724 645 121 90 16 0 721 +15 728 78 0 754 755
 0 17 645 0 728 123 653 88 756 643 0 639 +17 653 0 728 645 757 149 148 625 0 0 +
17 756 0 758 623 639 149 645 643 0 653 -17 639 0 758 756 648 88 156 637 0 0 +15
 758 287 0 756 759 0 17 648 0 758 639 623 154 760 646 0 636 +17 156 0 729 87 90
 154 639 637 0 648 -17 87 0 729 93 156 85 636 634 0 651 -17 93 0 729 99 87 91 63
3 598 0 691 -17 636 0 761 760 651 154 87 634 0 0 +17 651 0 761 636 627 85 762 64
9 0 633 +15 761 291 0 760 763 0 17 627 0 761 651 760 145 144 624 0 0 +17 762 0 7
64 630 633 145 651 649 0 627 -17 633 0 764 762 642 85 93 598 0 0 +15 764 295 0 7
62 765 0 17 642 0 764 633 630 91 757 640 0 0 +17 630 0 764 642 762 146 151 628 0
 757 +17 757 0 728 653 691 146 642 640 0 0 -17 691 0 728 757 680 91 99 689 0 642
 +17 680 0 728 691 766 97 767 678 0 674 +17 99 0 729 141 93 97 691 689 0 680 -17
 141 0 729 96 99 139 674 668 0 768 -17 96 0 729 102 141 94 667 665 0 769 -17 674
 0 770 767 768 97 141 668 0 0 +17 768 0 770 674 656 139 771 671 0 667 +15 770 17
5 0 767 772 0 17 656 0 770 768 767 127 138 654 0 0 +17 771 0 773 660 667 127 768
 671 0 656 -16 671 143 0 ?768 774 678 669 0 0 1 17 667 0 773 771 769 139 96 665
 0 0 +15 773 179 0 771 775 0 17 769 0 773 667 660 94 776 774 0 688 +17 660 0 773
 769 771 130 129 657 0 0 +17 776 0 777 663 688 130 769 774 0 660 -16 774 148 0 ?
769 658 671 672 0 0 1 17 688 0 777 776 684 94 102 631 0 0 +15 777 183 0 776 778
 0 17 684 0 777 688 663 100 779 675 0 0 +17 102 0 729 126 96 100 688 631 0 754 -
17 754 0 728 779 21 100 126 692 0 684 +17 779 0 728 766 754 131 684 675 0 0 -17
 21 0 728 754 114 124 753 9 0 752 +16 692 49 0 ?754 697 689 690 0 0 1 17 114 0 7
28 21 724 112 111 709 0 708 -17 753 0 751 748 752 112 21 9 0 0 -17 111 0 780 108
 708 109 114 709 0 724 +17 708 0 780 111 105 112 748 705 0 753 +15 780 3 0 708 7
81 0 17 105 0 780 708 108 103 735 713 0 747 +17 108 0 780 105 111 106 723 711 0
 727 +17 735 0 732 720 747 106 105 713 0 0 -17 727 0 722 723 120 106 720 718 0 7
35 -14 781 1 782 ?772 734 783 4 784 +0 0 772 734 20 81 1 782 1424 785 781 0 0 78
6 787 788 14 772 172 787 ?775 781 770 4 789 -0 0 775 781 20 14 734 75 786 ?781 7
26 732 4 790 -0 0 781 726 20 15 783 1048 0 791 781 792 50 784 2 0 781 793 790 0
 +-.00325 .0205 .008 0 1 0 0 0 1 13 20 25 0 0 0 0 0 0 8 12 14 12 916 794 ?14 0 7
95 4 793 -0 0 14 0 20 81 1 794 1419 785 12 0 0 0 796 797 14 14 81 796 ?755 12 75
1 4 5 -0 0 755 12 20 15 795 799 0 798 12 799 50 793 61 0 12 800 784 0 +-.00325 6
e-4 .008 0 1 0 0 0 1 50 800 189 0 778 801 793 0 +85e-5 -.002093895890439635 .008
 1 0 0 0 0 -1 14 778 180 802 ?803 775 777 4 800 -0 0 803 775 20 50 801 190 0 775
 789 800 0 +85e-5 -.002093895890439635 .00738 0 0 1 1 0 0 14 775 176 804 ?778 77
2 773 4 801 -0 0 778 772 20 50 789 191 0 772 805 801 0 +.00285 -.002093895890439
635 .008 -1 0 0 0 0 1 50 805 194 0 803 806 789 0 +0 0 0 0 1 0 0 0 1 14 803 184 8
07 ?759 778 808 4 805 -0 0 759 778 20 50 806 301 0 765 809 805 0 +.02115 -.00209
3895890439635 .008 1 0 -559588218057035e-29 -559588218057035e-29 0 -1 14 765 292
 810 ?811 763 764 4 806 -0 0 811 763 20 50 809 302 0 763 812 806 0 +.02115 -.002
093895890439635 .00738 0 0 1 1 0 0 14 763 288 813 ?765 759 761 4 809 -0 0 765 75
9 20 50 812 303 0 759 814 809 0 +.02315 -.002093895890439635 .008 -1 0 -55958821
8057035e-29 -559588218057035e-29 0 1 14 759 284 815 ?763 803 758 4 812 -0 0 763
 803 20 50 814 306 0 811 816 812 0 +0 0 0 0 1 0 0 0 1 14 811 296 817 ?818 765 81
9 4 814 -0 0 818 765 20 50 816 402 0 745 820 814 0 +.02425 -.002093895890439635
 -.008 1 0 0 0 0 -1 14 745 393 821 ?740 738 744 4 816 -0 0 740 738 20 50 820 404
 0 738 822 816 0 +.02625 -.002093895890439635 -.008 -1 0 0 0 0 1 14 738 385 823
 ?745 818 736 4 820 -0 0 745 818 20 50 822 405 0 818 824 820 0 +.02425 -.0020938
95890439635 -.00738 0 0 -1 -1 0 0 14 818 381 825 ?738 811 826 4 822 -0 0 738 811
 20 50 824 407 0 740 827 822 0 +0 0 0 0 1 0 0 0 1 14 740 397 828 ?829 745 739 4
 824 -0 0 829 745 20 50 827 503 0 830 831 824 0 +.00285 -.002093895890439635 -.0
08 1 0 0 0 0 -1 14 830 490 832 ?833 834 835 4 827 -0 0 833 834 20 50 831 505 0 8
34 836 827 0 +.00485 -.002093895890439635 -.008 -1 0 0 0 0 1 14 834 486 837 ?830
 829 838 4 831 -0 0 830 829 20 50 836 506 0 829 839 831 0 +.00285 -.002093895890
439635 -.00738 0 0 -1 -1 0 0 14 829 482 840 ?834 740 841 4 836 -0 0 834 740 20 5
0 839 508 0 833 842 836 0 +0 0 0 0 1 0 0 0 1 14 833 498 843 ?844 830 845 4 839 -
0 0 844 830 20 50 842 635 0 844 846 839 0 +3e-4 6e-4 -.00545 0 0 -1 -1 0 0 14 84
4 614 847 ?848 833 849 4 842 -0 0 848 833 20 50 846 636 0 848 850 842 0 +3e-4 -.
0035 -.00605 0 1 0 0 0 1 14 848 618 851 ?852 844 853 4 846 -0 0 852 844 20 50 85
0 637 0 852 854 846 0 +3e-4 6e-4 -.00605 0 -211551643411806e-30 1 0 -1 -21155164
3411806e-30 14 852 622 855 ?856 848 857 4 850 -0 0 856 848 20 50 854 638 0 856 8
58 850 0 +3e-4 6e-4 -.00605 1 0 0 0 0 -1 14 856 626 859 ?860 852 861 4 854 +0 0
 860 852 20 50 858 639 0 860 862 854 0 +-3e-4 6e-4 -.00605 1 0 0 0 0 -1 14 860 6
29 863 ?864 856 865 4 858 -0 0 864 856 20 50 862 750 0 864 866 858 0 +.0223 6e-4
 -.00545 0 0 -1 -1 0 0 14 864 729 867 ?868 860 869 4 862 -0 0 868 860 20 50 866
 751 0 868 870 862 0 +.0223 -.0035 -.00605 0 1 0 0 0 1 14 868 733 871 ?872 864 8
73 4 866 -0 0 872 864 20 50 870 752 0 872 874 866 0 +.0223 6e-4 -.00605 0 -21155
1643411806e-30 1 0 -1 -211551643411806e-30 14 872 737 875 ?876 868 877 4 870 -0
 0 876 868 20 50 874 753 0 876 878 870 0 +.0223 6e-4 -.00605 1 0 0 0 0 -1 14 876
 741 879 ?880 872 881 4 874 +0 0 880 872 20 50 878 754 0 880 882 874 0 +.0217 6e
-4 -.00605 1 0 0 0 0 -1 14 880 744 883 ?884 876 885 4 878 -0 0 884 876 20 50 882
 864 0 884 886 878 0 +-.0014 6e-4 .0055 0 -211551643411806e-30 1 0 -1 -211551643
411806e-30 14 884 840 887 ?888 880 889 4 882 -0 0 888 880 20 50 886 866 0 888 89
0 882 0 +-.0014 6e-4 .007 0 0 -1 -1 0 0 14 888 848 891 ?892 884 893 4 886 -0 0 8
92 884 20 50 890 867 0 892 894 886 0 +-.0014 -.0035 .0055 0 1 0 0 0 1 14 892 852
 895 ?896 888 897 4 890 -0 0 896 888 20 50 894 868 0 896 898 890 0 +-.0014 6e-4
 .0055 -1 0 0 0 0 1 14 896 856 899 ?900 892 901 4 894 -0 0 900 892 20 50 898 869
 0 900 902 894 0 +-.0022 6e-4 .0055 -1 0 0 0 0 1 14 900 859 903 ?904 896 905 4 8
98 +0 0 904 896 20 50 902 979 0 904 906 898 0 +.0262 6e-4 .0055 0 -2115516434118
06e-30 1 0 -1 -211551643411806e-30 14 904 955 907 ?908 900 909 4 902 -0 0 908 90
0 20 50 906 981 0 908 910 902 0 +.0262 6e-4 .007 0 0 -1 -1 0 0 14 908 963 911 ?9
12 904 913 4 906 -0 0 912 904 20 50 910 982 0 912 914 906 0 +.0262 -.0035 .0055
 0 1 0 0 0 1 14 912 967 915 ?916 908 917 4 910 -0 0 916 908 20 50 914 983 0 916
 918 910 0 +.0262 6e-4 .0055 -1 0 0 0 0 1 14 916 971 919 ?920 912 921 4 914 -0 0
 920 912 20 50 918 984 0 920 922 914 0 +.0254 6e-4 .0055 -1 0 0 0 0 1 14 920 974
 923 ?924 916 925 4 918 +0 0 924 916 20 52 922 1039 0 924 926 918 0 +.012 .0205
 -3469446951953615e-33 0 1 0 .002 .780868812213372 .624695044091497 0 0 1 14 924
 1026 927 ?928 920 929 4 922 -0 0 928 920 20 50 926 1040 0 928 930 922 0 +.012 .
0201 -3469446951953615e-33 0 1 0 0 0 1 14 928 1031 931 ?932 924 933 4 926 +0 0 9
32 924 20 51 930 1072 0 932 934 926 0 +.023 .02020000000005895 -.0045 0 1 0 .001
8 0 0 1 14 932 1059 935 ?339 928 936 4 930 -0 0 339 928 20 50 934 1073 0 339 937
 930 0 +.023 .02020000000005895 -.0045 0 1 0 0 0 1 14 339 1064 938 ?939 932 337
 4 934 +0 0 939 932 20 50 937 1160 0 939 940 934 0 +.02195 .01970000000005895 -.
00555 -1 0 0 0 0 1 14 939 1136 941 ?942 339 943 4 937 -0 0 942 339 20 50 940 116
1 0 944 945 937 0 +.02195 .01970000000005895 -.00505 0 0 1 1 0 0 14 944 1148 946
 ?947 948 949 4 940 -0 0 947 948 20 50 945 1162 0 948 950 940 0 +.02405 .0197000
0000005895 -.00555 1 0 0 0 0 -1 14 948 1144 951 ?944 942 952 4 945 -0 0 944 942
 20 50 950 1163 0 942 953 945 0 +.02195 .01970000000005895 -.00555 0 0 -1 -1 0 0
 14 942 1140 954 ?948 939 955 4 950 -0 0 948 939 20 50 953 1164 0 947 956 950 0
 +.02195 .01970000000005895 -.00505 0 1 0 0 0 1 14 947 1152 957 ?958 944 959 4 9
53 +0 0 958 944 20 50 956 1268 0 958 960 953 0 +.02195 .01970000000005895 -.0047
5 -1 0 0 0 0 1 14 958 1244 961 ?962 947 34 4 956 -0 0 962 947 20 50 960 1269 0 9
63 964 956 0 +.02195 .01970000000005895 -.00425 0 0 1 1 0 0 14 963 1256 965 ?966
 967 968 4 960 -0 0 966 967 20 50 964 1270 0 967 969 960 0 +.02405 .019700000000
05895 -.00475 1 0 0 0 0 -1 14 967 1252 970 ?963 962 971 4 964 -0 0 963 962 20 50
 969 1271 0 962 972 964 0 +.02195 .01970000000005895 -.00475 0 0 -1 -1 0 0 14 96
2 1248 973 ?967 958 974 4 969 -0 0 967 958 20 50 972 1272 0 966 975 969 0 +.0219
5 .01970000000005895 -.00425 0 1 0 0 0 1 14 966 1260 976 ?977 963 978 4 972 +0 0
 977 963 20 50 975 1376 0 977 979 972 0 +.02195 .01970000000005895 -.00345 0 0 1
 1 0 0 14 977 1352 980 ?981 966 26 4 975 -0 0 981 966 20 50 979 1377 0 336 982 9
75 0 +.02405 .01970000000005895 -.00345 1 0 0 0 0 -1 14 336 1364 983 ?984 322 32
9 4 979 -0 0 984 322 20 50 982 1378 0 322 985 979 0 +.02195 .01970000000005895 -
.00395 0 0 -1 -1 0 0 14 322 1360 986 ?336 981 317 4 982 -0 0 336 981 20 50 985 1
379 0 981 987 982 0 +.02195 .01970000000005895 -.00345 -1 0 0 0 0 1 14 981 1356
 988 ?322 977 989 4 985 -0 0 322 977 20 50 987 1380 0 984 0 985 0 +.02405 .01970
000000005895 -.00345 0 1 0 0 0 1 14 984 1368 990 ?0 336 991 4 987 +0 0 0 336 20
 81 1 990 1479 785 984 0 0 983 0 992 15 991 1370 0 349 984 0 17 349 0 991 328 35
5 308 993 344 0 0 +17 328 0 991 326 349 305 330 350 0 0 +17 355 0 991 349 326 29
9 994 353 0 0 +17 993 0 26 28 27 299 349 344 0 355 -15 26 1355 0 24 977 0 17 28
 0 26 24 993 310 301 356 0 341 +17 27 0 26 993 24 308 31 332 0 330 -17 330 0 329
 31 307 308 328 350 0 349 -17 301 0 989 994 341 299 28 356 0 993 -17 341 0 989 3
01 314 310 325 342 0 29 +15 989 1359 0 341 981 0 17 314 0 989 341 994 312 304 33
1 0 318 +17 29 0 337 325 334 310 24 30 0 0 -16 30 1332 0 ?24 335 0 346 0 0 1 30
 346 1393 0 30 0 338 0 +.02195 .02020000000005895 -.00345 1 0 0 17 994 0 989 314
 301 302 355 353 0 0 -17 304 0 317 319 318 302 314 331 0 326 -17 326 0 991 355 3
28 302 319 327 0 994 +80 1 785 0 995 8001 0 0 0 0 3 5 0 0 FFFFTFTFFFFFFF2 81 1 9
83 1478 785 336 0 0 986 990 996 83 3 992 0 0 0 81 1 986 1477 785 322 0 0 988 983
 997 83 3 996 0 0 0 81 1 988 1476 785 981 0 0 980 986 998 83 3 997 0 0 0 81 1 98
0 1475 785 977 0 0 976 988 999 83 3 998 0 0 0 81 1 976 1474 785 966 0 0 965 980
 1000 83 3 999 0 0 0 81 1 965 1473 785 963 0 0 970 976 1001 83 3 1000 0 0 0 81 1
 970 1472 785 967 0 0 973 965 1002 83 3 1001 0 0 0 81 1 973 1471 785 962 0 0 961
 970 1003 83 3 1002 0 0 0 81 1 961 1470 785 958 0 0 957 973 1004 83 3 1003 0 0 0
 81 1 957 1469 785 947 0 0 946 961 1005 83 3 1004 0 0 0 81 1 946 1468 785 944 0
 0 951 957 1006 83 3 1005 0 0 0 81 1 951 1467 785 948 0 0 954 946 1007 83 3 1006
 0 0 0 81 1 954 1466 785 942 0 0 941 951 1008 83 3 1007 0 0 0 81 1 941 1465 785
 939 0 0 938 954 1009 83 3 1008 0 0 0 81 1 938 1464 785 339 0 0 935 941 1010 83
 3 1009 0 0 0 81 1 935 1463 785 932 0 0 931 938 1011 83 3 1010 0 0 0 81 1 931 14
62 785 928 0 0 927 935 1012 83 3 1011 0 0 0 81 1 927 1461 785 924 0 0 923 931 10
13 83 3 1012 0 0 0 81 1 923 1460 785 920 0 0 919 927 1014 83 3 1013 0 0 0 81 1 9
19 1459 785 916 0 0 915 923 1015 83 3 1014 1 1 .501960784313726 81 1 915 1458 78
5 912 0 0 911 919 1016 83 3 1015 1 1 .501960784313726 81 1 911 1457 785 908 0 0
 907 915 1017 83 3 1016 1 1 .501960784313726 81 1 907 1456 785 904 0 0 903 911 1
018 83 3 1017 1 1 .501960784313726 81 1 903 1455 785 900 0 0 899 907 1019 83 3 1
018 1 1 .501960784313726 81 1 899 1454 785 896 0 0 895 903 1020 83 3 1019 1 1 .5
01960784313726 81 1 895 1453 785 892 0 0 891 899 1021 83 3 1020 1 1 .50196078431
3726 81 1 891 1452 785 888 0 0 887 895 1022 83 3 1021 1 1 .501960784313726 81 1
 887 1451 785 884 0 0 883 891 1023 83 3 1022 1 1 .501960784313726 81 1 883 1450
 785 880 0 0 879 887 1024 83 3 1023 1 1 .501960784313726 81 1 879 1449 785 876 0
 0 875 883 1025 83 3 1024 1 1 .501960784313726 81 1 875 1448 785 872 0 0 871 879
 1026 83 3 1025 1 1 .501960784313726 81 1 871 1447 785 868 0 0 867 875 1027 83 3
 1026 1 1 .501960784313726 81 1 867 1446 785 864 0 0 863 871 1028 83 3 1027 1 1
 .501960784313726 81 1 863 1445 785 860 0 0 859 867 1029 83 3 1028 1 1 .50196078
4313726 81 1 859 1444 785 856 0 0 855 863 1030 83 3 1029 1 1 .501960784313726 81
 1 855 1443 785 852 0 0 851 859 1031 83 3 1030 1 1 .501960784313726 81 1 851 144
2 785 848 0 0 847 855 1032 83 3 1031 1 1 .501960784313726 81 1 847 1441 785 844
 0 0 843 851 1033 83 3 1032 1 1 .501960784313726 81 1 843 1440 785 833 0 0 832 8
47 1034 83 3 1033 1 1 .501960784313726 81 1 832 1439 785 830 0 0 837 843 1035 83
 3 1034 0 0 0 81 1 837 1438 785 834 0 0 840 832 1036 83 3 1035 0 0 0 81 1 840 14
37 785 829 0 0 828 837 1037 83 3 1036 0 0 0 81 1 828 1436 785 740 0 0 821 840 10
38 83 3 1037 0 0 0 81 1 821 1435 785 745 0 0 823 828 1039 83 3 1038 0 0 0 81 1 8
23 1434 785 738 0 0 825 821 1040 83 3 1039 0 0 0 81 1 825 1433 785 818 0 0 817 8
23 1041 83 3 1040 0 0 0 81 1 817 1432 785 811 0 0 810 825 1042 83 3 1041 0 0 0 8
1 1 810 1431 785 765 0 0 813 817 1043 83 3 1042 0 0 0 81 1 813 1430 785 763 0 0
 815 810 1044 83 3 1043 0 0 0 81 1 815 1429 785 759 0 0 807 813 1045 83 3 1044 0
 0 0 81 1 807 1428 785 803 0 0 802 815 1046 83 3 1045 0 0 0 81 1 802 1427 785 77
8 0 0 804 807 1047 83 3 1046 0 0 0 81 1 804 1426 785 775 0 0 787 802 1048 83 3 1
047 0 0 0 81 1 787 1425 785 772 0 0 782 804 1049 83 3 1048 0 0 0 83 3 1049 0 0 0
 79 15 995 SDL/TYSA_COLOUR15 978 1262 0 372 966 0 17 372 0 978 375 381 289 1050
 370 0 0 +17 375 0 978 378 372 286 1051 373 0 0 +17 381 0 978 372 378 280 1052 3
79 0 0 +17 1050 0 34 36 35 280 372 370 0 381 -15 34 1247 0 32 958 0 17 36 0 34 3
2 1050 291 282 383 0 369 +17 35 0 34 1050 32 289 39 382 0 1051 -17 39 0 968 363
 1051 25 35 382 0 1053 +17 1051 0 968 39 288 289 375 373 0 372 -15 968 1259 0 36
3 963 0 17 288 0 968 1051 363 286 298 388 0 1054 -17 363 0 968 288 39 296 1053 3
61 0 1055 +17 298 0 971 366 1054 296 288 388 0 363 +17 1054 0 971 298 285 286 37
8 376 0 375 -15 971 1255 0 366 967 0 17 285 0 971 1054 366 283 295 386 0 378 -17
 378 0 978 381 375 283 1054 376 0 1052 +17 1052 0 974 295 282 283 381 379 0 0 -1
5 974 1251 0 369 962 0 17 295 0 974 369 1052 293 285 386 0 366 +17 282 0 974 105
2 369 280 36 383 0 1050 -17 369 0 974 282 295 291 1056 367 0 37 +17 1056 0 340 1
055 37 293 369 367 0 0 -17 37 0 340 1056 1053 291 32 38 0 0 -15 340 1203 0 1056
 339 1057 17 1053 0 340 37 1055 25 363 361 0 0 -17 1055 0 340 1053 1056 296 366
 364 0 0 -17 366 0 971 285 298 293 1055 364 0 1056 +15 1057 1095 0 1058 339 1059
 17 1058 0 1057 1060 1061 271 40 385 0 0 -15 1059 1066 0 427 339 0 17 427 0 1059
 427 427 0 1062 425 0 0 +17 1062 0 936 1062 1062 0 427 425 0 0 -15 936 1062 0 10
62 932 1063 15 1063 1063 0 424 932 0 17 424 0 1063 424 424 0 791 416 0 0 +17 791
 0 783 791 791 0 424 416 0 0 -17 1060 0 1057 1064 1058 274 400 398 0 0 -17 1061
 0 1057 1058 1064 33 394 392 0 0 -17 40 0 943 270 273 33 1058 385 0 422 +15 943
 1139 0 40 939 0 17 270 0 943 1065 40 268 422 413 0 1066 -17 273 0 943 40 1065 2
71 261 414 0 400 +17 422 0 949 394 1066 33 270 413 0 1061 +15 949 1151 0 394 944
 0 17 394 0 949 267 422 277 1061 392 0 1064 +17 1066 0 949 422 267 268 406 404 0
 403 -17 267 0 949 1066 394 265 279 419 0 1067 -17 406 0 959 409 403 265 1066 40
4 0 0 +17 403 0 959 406 412 268 1065 401 0 0 +15 959 1154 0 403 947 0 17 412 0 9
59 403 409 259 1068 410 0 0 +17 1065 0 943 273 270 259 403 401 0 412 -17 409 0 9
59 412 406 262 1067 407 0 1068 +17 1068 0 955 276 261 262 412 410 0 0 -15 955 11
43 0 400 942 0 17 276 0 955 400 1068 274 264 417 0 397 +17 261 0 955 1068 400 25
9 273 414 0 1065 -17 400 0 955 261 276 271 1060 398 0 1058 +17 264 0 952 1067 39
7 262 276 417 0 409 -17 397 0 952 264 279 274 1064 395 0 1060 +15 952 1147 0 397
 948 0 17 279 0 952 397 1067 277 267 419 0 394 +17 1064 0 1057 1061 1060 277 397
 395 0 0 -17 1067 0 952 279 264 265 409 407 0 406 -15 933 1033 0 433 928 0 17 43
3 0 933 433 433 0 1069 431 0 0 +17 1069 0 929 1069 1069 0 433 431 0 0 -15 929 10
29 0 1069 924 1070 15 1070 1030 0 430 924 0 17 430 0 1070 430 430 0 1071 428 0 0
 +17 1071 0 792 1071 1071 0 430 428 0 0 -15 792 1015 0 1071 781 780 15 925 976 0
 1072 920 0 17 1072 0 925 1073 258 250 436 434 0 0 -17 1073 0 925 45 1072 253 25
2 442 0 0 -17 258 0 925 1072 45 256 439 437 0 436 -17 436 0 909 1074 454 256 107
2 434 0 463 +15 909 958 0 436 904 0 17 1074 0 909 1075 436 247 463 461 0 1076 -1
7 454 0 909 436 1075 250 1077 452 0 1072 +17 463 0 731 439 1076 256 1074 461 0 0
 +15 731 914 0 1076 12 0 17 439 0 731 1078 463 41 258 437 0 0 +17 1076 0 731 463
 1078 247 246 446 0 0 -17 1078 0 731 1076 439 244 460 458 0 0 -17 246 0 921 243
 249 244 1076 446 0 1079 +15 921 973 0 249 916 0 17 243 0 921 240 246 241 1079 4
48 0 1080 +17 249 0 921 246 240 247 1075 444 0 1074 +17 1079 0 913 460 1080 244
 243 448 0 1078 -15 913 966 0 255 908 0 17 460 0 913 255 1079 41 1078 458 0 439
 +17 1080 0 913 1079 255 241 457 455 0 1081 -17 255 0 913 1080 460 253 45 440 0
 457 +17 457 0 917 252 1081 253 1080 455 0 1073 +17 1081 0 917 457 1077 241 240
 450 0 0 -15 917 970 0 252 912 0 17 1077 0 917 1081 252 238 454 452 0 1075 -17 2
40 0 921 249 243 238 1081 450 0 1077 +17 252 0 917 1077 457 250 1073 442 0 454 +
17 1075 0 909 454 1074 238 249 444 0 0 -17 45 0 925 258 1073 41 255 440 0 460 -1
5 905 861 0 1082 900 0 17 1082 0 905 1083 237 229 466 464 0 0 -17 1083 0 905 48
 1082 232 231 472 0 0 -17 237 0 905 1082 48 235 469 467 0 466 -17 466 0 889 1084
 484 235 1082 464 0 493 +15 889 843 0 466 884 0 17 1084 0 889 1085 466 226 493 4
91 0 798 -17 484 0 889 466 1085 229 1086 482 0 1082 +17 493 0 795 469 798 235 10
84 491 0 0 +17 469 0 795 1087 493 46 237 467 0 0 +17 798 0 795 493 1087 226 225
 476 0 0 -17 1087 0 795 798 469 223 490 488 0 0 -17 225 0 901 222 228 223 798 47
6 0 1088 +15 901 858 0 228 896 0 17 222 0 901 219 225 220 1088 478 0 1089 +17 22
8 0 901 225 219 226 1085 474 0 1084 +17 1088 0 893 490 1089 223 222 478 0 1087 -
15 893 851 0 234 888 0 17 490 0 893 234 1088 46 1087 488 0 469 +17 1089 0 893 10
88 234 220 487 485 0 1090 -17 234 0 893 1089 490 232 48 470 0 487 +17 487 0 897
 231 1090 232 1089 485 0 1083 +17 1090 0 897 487 1086 220 219 480 0 0 -15 897 85
5 0 231 892 0 17 1086 0 897 1090 231 217 484 482 0 1085 -17 219 0 901 228 222 21
7 1090 480 0 1086 +17 231 0 897 1086 487 229 1083 472 0 484 +17 1085 0 889 484 1
084 217 228 474 0 0 -17 48 0 905 237 1083 46 234 470 0 490 -15 885 746 0 1091 88
0 0 17 1091 0 885 1092 1093 208 57 494 0 0 -17 1092 0 885 1094 1091 211 502 500
 0 0 -17 1093 0 885 1091 1094 55 216 496 0 523 -17 57 0 799 54 210 55 1091 494 0
 1093 +15 799 669 0 54 12 1095 17 54 0 799 51 57 52 523 521 0 1096 -17 210 0 799
 57 51 208 1097 513 0 502 +17 51 0 799 210 54 49 505 503 0 512 -17 1097 0 877 10
98 502 49 210 513 0 0 -17 502 0 877 1097 517 208 1092 500 0 1091 +15 877 740 0 5
02 872 0 17 517 0 877 502 1098 211 1099 515 0 1092 +17 1098 0 877 517 1097 202 5
12 510 0 0 -17 1099 0 873 1100 213 202 517 515 0 1098 -15 873 736 0 213 868 0 17
 1100 0 873 520 1099 205 204 508 0 0 -17 213 0 873 1099 520 211 1094 498 0 517 +
17 520 0 873 213 1100 214 1101 518 0 1094 +17 1094 0 885 1093 1092 214 213 498 0
 0 -17 1101 0 869 1096 216 205 520 518 0 1100 -15 869 732 0 216 864 0 17 1096 0
 869 523 1101 52 207 506 0 505 -17 216 0 869 1101 523 214 1093 496 0 520 +17 523
 0 869 216 1096 55 54 521 0 0 +17 207 0 881 204 505 205 1096 506 0 1101 +17 505
 0 881 207 512 52 51 503 0 0 +15 881 743 0 505 876 0 17 512 0 881 505 204 49 109
8 510 0 1097 +17 204 0 881 512 207 202 1100 508 0 1099 +15 1095 554 0 60 12 729
 17 60 0 1095 63 66 58 553 551 0 1102 -17 63 0 1095 195 60 61 535 533 0 542 -17
 66 0 1095 60 195 64 1103 524 0 1104 +17 553 0 849 201 1102 64 60 551 0 0 +17 11
02 0 849 553 1105 58 192 536 0 535 -15 849 617 0 201 844 0 17 1105 0 849 1102 20
1 190 550 548 0 1106 -17 192 0 861 189 535 190 1102 536 0 1105 +17 535 0 861 192
 542 58 63 533 0 0 +15 861 628 0 535 856 0 17 542 0 861 535 189 61 1107 540 0 11
08 +17 189 0 861 542 192 187 1106 538 0 1109 +17 1107 0 857 547 1108 187 542 540
 0 0 -17 1108 0 857 1107 532 61 195 543 0 0 -15 857 625 0 532 852 0 17 532 0 857
 1108 547 193 1110 530 0 1103 +17 195 0 1095 66 63 193 1108 543 0 532 +17 547 0
 857 532 1107 196 1109 545 0 1110 +17 1110 0 865 1111 1103 196 532 530 0 0 -17 1
103 0 865 1110 1104 193 66 524 0 0 -15 865 631 0 1103 860 0 17 1104 0 865 1103 1
111 64 201 526 0 553 -17 1111 0 865 1104 1110 199 198 528 0 0 -17 201 0 849 1105
 553 199 1104 526 0 550 +17 550 0 853 198 1106 199 1105 548 0 1111 +15 853 621 0
 198 848 0 17 198 0 853 1109 550 196 1111 528 0 547 +17 1106 0 853 550 1109 190
 189 538 0 0 -17 1109 0 853 1106 198 187 547 545 0 1107 -15 845 500 0 183 833 0
 17 183 0 845 179 181 177 557 555 0 1112 -17 179 0 845 175 183 176 587 559 0 562
 -17 181 0 845 183 175 172 565 558 0 743 -17 557 0 838 582 1112 172 183 555 0 0
 +17 1112 0 838 557 570 177 579 577 0 587 -15 838 489 0 1112 834 0 17 570 0 838
 1112 582 67 75 568 0 0 +17 579 0 841 573 587 67 1112 577 0 570 +17 587 0 841 57
9 1113 177 179 559 0 0 +15 841 485 0 1113 829 0 17 1113 0 841 587 573 176 576 57
4 0 0 -17 573 0 841 1113 579 184 69 571 0 0 +17 576 0 835 567 562 184 1113 574 0
 573 +15 835 493 0 749 830 0 17 567 0 835 749 576 70 186 554 0 0 +17 562 0 835 5
76 749 176 175 560 0 1113 +17 749 0 835 562 567 173 585 583 0 565 -17 175 0 845
 181 179 173 562 560 0 749 -17 565 0 732 585 743 173 181 558 0 0 +17 743 0 732 5
65 742 172 582 580 0 557 -17 582 0 838 570 557 73 743 580 0 0 +17 186 0 729 69 7
2 184 567 554 0 576 -17 69 0 729 75 186 67 573 571 0 579 -15 826 384 0 746 818 0
 17 746 0 826 620 606 161 609 607 0 0 -17 620 0 826 612 746 164 163 592 0 0 +17
 606 0 826 746 612 169 78 604 0 0 +17 612 0 826 606 620 76 737 610 0 603 +15 819
 298 0 144 811 0 17 144 0 819 153 151 142 627 624 0 760 -17 153 0 819 148 144 14
9 623 621 0 756 -17 151 0 819 144 148 145 630 628 0 762 -17 760 0 761 627 636 14
2 648 646 0 623 -17 623 0 758 648 756 142 153 621 0 0 +17 148 0 819 151 153 146
 653 625 0 630 -15 808 186 0 129 803 0 17 129 0 808 138 136 127 660 657 0 771 -1
7 138 0 808 133 129 134 656 654 0 767 -17 136 0 808 129 133 130 663 661 0 776 -1
7 133 0 808 136 138 131 766 658 0 663 -17 663 0 777 684 776 131 136 661 0 779 +1
7 766 0 728 680 779 134 133 658 0 0 +16 658 137 0 ?766 654 774 696 0 0 1 30 696
 195 0 658 672 693 0 +85e-5 0 .008 1 0 0 30 672 196 0 774 669 696 0 +85e-5 -.002
093895890439635 .00738 0 1 0 17 767 0 770 656 674 134 680 678 0 766 -81 1 796 14
20 785 14 0 0 794 1114 1115 14 755 79 1114 ?726 14 728 4 15 -0 0 726 14 20 81 1
 1114 1421 785 755 0 0 796 1116 1117 14 726 77 1116 ?734 755 722 4 1118 -0 0 734
 755 20 50 15 88 0 755 1118 5 0 +-.00325 .0205 .008 0 0 -1 -1 0 0 50 1118 87 0 7
26 790 15 0 +.02725 .0205 -.008 -1 0 216840434497101e-30 216840434497101e-30 0 1
 50 790 86 0 734 784 1118 0 +-.00325 .0205 -.008 0 0 1 1 0 0 81 1 1116 1422 785
 726 0 0 1114 786 1119 81 1 786 1423 785 734 0 0 1116 782 1120 83 3 1119 0 0 0 8
3 3 1120 0 0 0 83 3 1117 0 0 0 83 3 1115 0 0 0 83 3 797 0 0 0 83 3 788 0 0 0 17
 597 0 744 609 741 161 166 595 0 746 +19 13 91 0 1 0 8 4 S74 20 11 1 0 990 0 0 0
 0 0 0 0 0 0 0 0 0 0 0 0 0 0 0 0 1 0 

