**ABCDEFGHIJKLMNOPQRSTUVWXYZabcdefghijklmnopqrstuvwxyz**************************
**PARASOLID !"#$%&'()*+,-./:;<=>?@[\]^_`{|}~0123456789**************************
**PART1;
MC=AMD64;
MC_MODEL=Intel64 Family 6 Model 158 Stepping 13, GenuineIntel;
MC_ID=unknown;
OS=Windows_NT;
OS_RELEASE=unknown;
FRU=CAD Exchanger 3.6.1 (cadexchanger.com);
APPL=unknown;
SITE=unknown;
USER=unknown;
FORMAT=text;
GUISE=transmit;
KEY=LED5MM_LED5MM;
FILE=LED5MM_LED5MM.x_t;
DATE=Sat Sep 19 15:38:41 2020;
**PART2;
SCH=SCH_1200000_12006;
USFLD_SIZE=0;
**PART3;
**END_OF_HEADER*****************************************************************
T51 : TRANSMIT FILE created by modeller version 120000017 SCH_1200000_120060 12
 1 233 0 2 0 0 0 0 1000 1e-008 0 0 0 1 0 1 1 44 6 12 10 41 11 9 70 2 0 1 0 0 4 1
 20 0 3 3 1 T74 20 3 1 0 4 0 0 0 0 0 0 0 0 0 0 0 0 0 0 0 0 0 0 0 81 1 4 7 38 5 0
 0 47 0 40 14 5 5 4 1e-008 45 0 7 44 6 +0 0 45 0 42 51 6 6 0 5 46 0 0 +-9.992614
e-005 0.00010009124 0.006 0 0 -1 0.0025 1.83697019872103e-016 1 0 15 7 8 0 8 5 0
 17 8 0 7 16 34 9 13 11 0 21 -18 9 9 0 8 0 14 10 ?1 29 10 10 0 9 15 0 -9.9926140
00000015e-005 -0.00239990876 0.006 16 11 11 0 ?13 0 19 12 0 0 1 31 12 12 0 11 20
 0 0 +-9.992614e-005 0.00010009124 0.006 0 0 1 -1.83697019872103e-016 -1 0 0.002
5 17 13 0 271 272 261 14 8 11 0 34 +18 14 13 0 13 9 17 15 ?1 29 15 14 0 14 18 10
 -9.992613999999954e-005 0.00260009124 0.006 17 16 0 7 22 8 17 21 19 0 27 +18 17
 15 0 16 14 23 18 ?1 29 18 16 0 17 24 15 -9.992614000000015e-005 -0.00239990876
 0.001 16 19 17 0 ?16 11 25 20 0 0 1 30 20 18 0 19 26 12 0 +-9.992614000000015e-
005 -0.00239990876 0.006 0 0 -1 17 21 0 257 258 243 9 16 19 0 261 -17 22 0 7 28
 16 23 27 25 0 33 +18 23 19 0 22 17 29 24 ?1 29 24 20 0 23 30 18 0.00240007386 0
.0001000912399999995 0.001 16 25 21 0 ?22 19 31 26 0 0 1 31 26 22 0 25 32 20 0 +
-9.992614e-005 0.00010009124 0.001 0 0 1 -1.83697019872103e-016 -1 0 0.0025 17 2
7 0 239 240 33 17 22 25 0 243 -17 28 0 7 34 22 29 33 31 0 37 +18 29 23 0 28 23 5
1 30 ?1 29 30 24 0 29 52 24 -9.992613999999954e-005 0.00260009124 0.001 16 31 25
 0 ?28 25 35 32 0 0 1 31 32 26 0 31 36 26 0 +-9.992614e-005 0.00010009124 0.001
 0 0 1 -1.83697019872103e-016 -1 0 0.0025 17 33 0 239 27 240 23 28 31 0 235 -17
 34 0 7 8 28 14 37 35 0 258 -16 35 27 0 ?37 31 53 36 0 0 1 30 36 28 0 35 54 32 0
 +-9.992613999999954e-005 0.00260009124 0.006 0 0 -1 17 37 0 257 243 258 29 34 3
5 0 240 +80 1 38 0 39 8001 0 0 0 0 3 5 0 0 FFFFTFTFFFFFFF2 79 15 39 SDL/TYSA_COL
OUR83 3 40 1 0 0 19 41 1 0 1 43 0 42 V13 42 2 0 1 0 0 0 0 41 5 19 43 3 0 1 0 41
 44 S13 44 4 0 1 0 5 0 0 43 0 14 45 29 47 1e-008 74 5 49 44 46 +0 0 74 5 42 51 4
6 30 0 45 75 6 0 +-9.992614e-005 0.00010009124 0.001 0 0 -1 0.003000000000000001
 1.83697019872103e-016 1 0 81 1 47 31 38 45 0 0 76 4 48 83 3 48 1 0 0 15 49 32 0
 50 45 0 17 50 0 49 58 70 51 55 53 0 63 -18 51 33 0 50 29 56 52 ?1 29 52 34 0 51
 57 30 -9.992614000000018e-005 -0.002899908760000001 0.001 16 53 35 0 ?55 35 61
 54 0 0 1 31 54 36 0 53 62 36 0 +-9.992614e-005 0.00010009124 0.001 0 0 1 -1.836
97019872103e-016 -1 0 0.003000000000000001 17 55 0 224 235 84 56 50 53 0 70 +18
 56 37 0 55 51 59 57 ?1 29 57 38 0 56 60 52 0.00240007386 -0.001558221155177702
 0.001 17 58 0 49 64 50 59 63 61 0 91 +18 59 39 0 58 56 65 60 ?1 29 60 40 0 59 6
6 57 -9.992614000000018e-005 -0.002899908760000001 0 16 61 41 0 ?58 53 67 62 0 0
 1 30 62 42 0 61 68 54 0 +-9.992614000000018e-005 -0.002899908760000001 0.001 0
 0 -1 17 63 0 78 79 91 51 58 61 0 84 -17 64 0 49 70 58 65 69 67 0 73 +18 65 43 0
 191 59 80 66 ?1 29 66 44 0 65 81 60 0.00240007386 -0.001558221155177702 0 16 67
 45 0 ?64 61 71 68 0 0 1 31 68 46 0 67 72 62 0 +-9.992614e-005 0.00010009124 0 0
 0 1 -1.83697019872103e-016 -1 0 0.003000000000000001 17 69 0 184 94 191 59 64 6
7 0 0 -17 70 0 49 50 64 56 73 71 0 238 +16 71 47 0 ?70 67 82 72 0 0 1 30 72 48 0
 71 83 68 0 +0.00240007386 -0.001558221155177702 0.001 0 0 1 17 73 0 266 194 238
 65 70 71 0 0 -14 74 49 76 1e-008 95 45 78 44 75 +0 0 95 45 42 51 75 50 0 74 96
 46 0 +-9.992614e-005 0.00010009124 0.001 0 0 -1 0.003000000000000001 1.83697019
872103e-016 1 0 81 1 76 51 38 74 0 0 97 47 77 83 3 77 1 0 0 15 78 52 0 63 74 0 1
7 79 0 78 85 63 80 84 82 0 90 -18 80 53 0 231 65 86 81 ?1 29 81 54 0 80 87 66 -9
.992613999999945e-005 0.00310009124 0.001 16 82 55 0 ?84 71 88 83 0 0 1 31 83 56
 0 82 89 72 0 +-9.992614e-005 0.00010009124 0.001 0 0 1 -1.83697019872103e-016 -
1 0 0.003000000000000001 17 84 0 224 55 231 51 79 82 0 0 +17 85 0 78 91 79 86 90
 88 0 0 +18 86 57 0 190 80 101 87 ?1 29 87 58 0 86 102 81 -9.992613999999945e-00
5 0.00310009124 0 16 88 59 0 ?85 82 92 89 0 0 1 30 89 60 0 88 93 83 0 +-9.992613
999999945e-005 0.00310009124 0.001 0 0 -1 17 90 0 248 234 190 80 85 88 0 0 -17 9
1 0 78 63 85 59 94 92 0 69 +16 92 61 0 ?91 88 103 93 0 0 1 31 93 62 0 92 104 89
 0 +-9.992614e-005 0.00010009124 0 0 0 1 -1.83697019872103e-016 -1 0 0.003000000
000000001 17 94 0 184 185 69 86 91 92 0 85 -14 95 63 97 1e-008 124 74 99 44 96 -
0 0 124 74 42 50 96 64 0 95 125 75 0 +0.00147007386 0.0004000912399999997 -0.005
 -1.83697019872103e-016 -1 0 0 -0 -1 81 1 97 65 38 95 0 0 126 76 98 83 3 98 1 1
 1 15 99 66 0 100 95 0 17 100 0 99 108 120 101 105 103 0 174 -18 101 67 0 100 86
 106 102 ?1 29 102 68 0 101 107 87 0.00087007386 0.0004000912399999998 -0.004 16
 103 69 0 ?105 92 111 104 0 0 1 30 104 70 0 103 112 93 0 +0.00087007386 0.000400
0912399999998 -0.004 1 -1.83697019872103e-016 0 17 105 0 352 132 174 106 100 103
 0 129 +18 106 71 0 120 101 109 107 ?1 29 107 72 0 106 110 102 0.00147007386 0.0
004000912399999997 -0.004 17 108 0 99 114 100 109 113 111 0 0 +18 109 73 0 175 1
06 115 110 ?1 29 110 74 0 109 116 107 0.00087007386 0.0004000912399999998 0 16 1
11 75 0 ?108 103 117 112 0 0 1 30 112 76 0 111 118 104 0 +0.00087007386 0.000400
0912399999998 -0.005 0 0 1 17 113 0 170 171 175 101 108 111 0 0 -17 114 0 99 120
 108 115 119 117 0 123 +18 115 77 0 140 109 133 116 ?1 29 116 78 0 115 134 110 0
.00147007386 0.0004000912399999997 0 16 117 79 0 ?114 111 121 118 0 0 1 30 118 8
0 0 117 122 112 0 +0.00147007386 0.0004000912399999997 0 1 -1.83697019872103e-01
6 0 17 119 0 183 178 140 109 114 117 0 108 -17 120 0 99 100 114 106 123 121 0 10
5 -16 121 81 0 ?123 117 130 122 0 0 1 30 122 82 0 121 131 118 0 +0.00147007386 0
.0004000912399999997 -0.005 0 0 1 17 123 0 128 135 129 115 120 121 0 0 +14 124 8
3 126 1e-008 145 95 128 44 125 -0 0 145 95 42 50 125 84 0 124 146 96 0 +0.001470
07386 -0.0001999087600000003 -0.005 -1 1.83697019872103e-016 0 0 -0 -1 81 1 126
 85 38 124 0 0 147 97 127 83 3 127 1 1 1 15 128 86 0 129 124 0 17 129 0 128 123
 141 106 132 130 0 0 -16 130 87 0 ?132 121 138 131 0 0 1 30 131 88 0 130 139 122
 0 +0.00147007386 0.0004000912399999997 -0.004 -1.83697019872103e-016 -1 0 17 13
2 0 352 153 105 133 129 130 0 150 +18 133 89 0 141 115 136 134 ?1 29 134 90 0 13
3 137 116 0.00147007386 -0.0001999087600000003 -0.004 17 135 0 128 141 123 136 1
40 138 0 161 +18 136 91 0 135 133 154 137 ?1 29 137 92 0 136 155 134 0.001470073
86 -0.0001999087600000003 0 16 138 93 0 ?135 130 142 139 0 0 1 30 139 94 0 138 1
43 131 0 +0.00147007386 -0.0001999087600000003 0 -1.83697019872103e-016 -1 0 17
 140 0 183 119 161 115 135 138 0 114 -17 141 0 128 129 135 133 144 142 0 132 -16
 142 95 0 ?144 138 151 143 0 0 1 30 143 96 0 142 152 139 0 +0.00147007386 -0.000
1999087600000003 -0.005 0 0 1 17 144 0 149 156 150 136 141 142 0 0 +14 145 97 14
7 1e-008 166 124 149 44 146 -0 0 166 124 42 50 146 98 0 145 167 125 0 +0.0014700
7386 -0.0001999087600000003 -0.005 1.83697019872103e-016 1 0 0 0 1 81 1 147 99 3
8 145 0 0 168 126 148 83 3 148 1 1 1 15 149 100 0 150 145 0 17 150 0 149 144 162
 133 153 151 0 0 -16 151 101 0 ?153 142 159 152 0 0 1 30 152 102 0 151 160 143 0
 +0.00147007386 -0.0001999087600000003 -0.004 -1 1.83697019872103e-016 0 17 153
 0 352 174 132 154 150 151 0 162 +18 154 103 0 153 136 157 155 ?1 29 155 104 0 1
54 158 137 0.00087007386 -0.0001999087600000002 -0.004 17 156 0 149 162 144 157
 161 159 0 165 +18 157 105 0 178 154 186 158 ?1 29 158 106 0 157 187 155 0.00087
007386 -0.0001999087600000002 0 16 159 107 0 ?156 151 163 160 0 0 1 30 160 108 0
 159 164 152 0 +0.00147007386 -0.0001999087600000003 0 -1 1.83697019872103e-016
 0 17 161 0 183 140 178 136 156 159 0 144 -17 162 0 149 150 156 154 165 163 0 17
1 -16 163 109 0 ?165 159 172 164 0 0 1 30 164 110 0 163 173 160 0 +0.00087007386
 -0.0001999087600000002 -0.005 0 0 1 17 165 0 170 175 171 157 162 163 0 0 +14 16
6 111 168 1e-008 179 145 170 44 167 -0 0 179 145 42 50 167 112 0 166 180 146 0 +
0.00087007386 -0.0001999087600000002 -0.005 1 -1.83697019872103e-016 0 0 0 1 81
 1 168 113 38 166 0 0 181 147 169 83 3 169 1 1 1 15 170 114 0 171 166 0 17 171 0
 170 165 113 154 174 172 0 0 -16 172 115 0 ?174 163 176 173 0 0 1 30 173 116 0 1
72 177 164 0 +0.00087007386 -0.0001999087600000002 -0.004 1.83697019872103e-016
 1 0 17 174 0 352 105 153 101 171 172 0 113 +17 175 0 170 113 165 109 178 176 0
 119 +16 176 117 0 ?175 172 188 177 0 0 1 30 177 118 0 176 189 173 0 +0.00087007
386 -0.0001999087600000002 0 1.83697019872103e-016 1 0 17 178 0 183 161 119 157
 175 176 0 156 -14 179 119 181 1e-008 220 166 183 44 180 -0 0 220 166 42 50 180
 120 0 179 221 167 0 +-9.992614e-005 0.00010009124 0 0 0 1 -1.83697019872103e-01
6 -1 0 81 1 181 121 38 179 0 0 222 168 182 83 3 182 1 0 0 15 183 122 0 119 179 1
84 15 184 123 0 185 179 195 17 185 0 184 191 94 186 190 188 0 194 -18 186 124 0
 185 157 197 187 ?1 29 187 125 0 186 198 158 0.00240007386 0.001758403635177701
 0 16 188 126 0 ?190 176 192 189 0 0 1 31 189 127 0 188 193 177 0 +-9.992614e-00
5 0.00010009124 0 0 0 1 -1.83697019872103e-016 -1 0 0.003000000000000001 17 190
 0 248 90 249 86 185 188 0 94 +17 191 0 184 69 185 65 194 192 0 64 +16 192 128 0
 ?191 188 199 193 0 0 1 30 193 129 0 192 200 189 0 +0.00240007386 0.000100091239
9999995 0 -1.83697019872103e-016 -1 0 17 194 0 266 252 73 186 191 192 0 249 -15
 195 130 0 196 179 0 17 196 0 195 204 216 197 201 199 0 209 -18 197 131 0 196 18
6 202 198 ?1 29 198 132 0 197 203 187 -0.00106992614 -0.0001999087599999998 0 16
 199 133 0 ?201 192 207 200 0 0 1 30 200 134 0 199 208 193 0 +-0.00166992614 -0.
0001999087599999997 0 -1 1.83697019872103e-016 -0 17 201 0 287 288 300 202 196 1
99 0 216 +18 202 135 0 201 197 205 203 ?1 29 203 136 0 202 206 198 -0.0016699261
4 -0.0001999087599999997 0 17 204 0 195 210 196 205 209 207 0 215 -18 205 137 0
 204 202 211 206 ?1 29 206 138 0 205 212 203 -0.00106992614 0.000400091240000000
2 0 16 207 139 0 ?209 199 213 208 0 0 1 30 208 140 0 207 214 200 0 +-0.001069926
14 -0.0001999087599999998 0 -2.99665779118558e-018 -1 0 17 209 0 338 303 329 197
 204 207 0 300 +17 210 0 195 216 204 211 215 213 0 219 -18 211 141 0 210 205 226
 212 ?1 29 212 142 0 211 227 206 -0.00166992614 0.0004000912400000003 0 16 213 1
43 0 ?215 207 217 214 0 0 1 30 214 144 0 213 218 208 0 +-0.00166992614 0.0004000
912400000003 0 1 -1.83697019872103e-016 0 17 215 0 323 324 314 205 210 213 0 329
 +17 216 0 195 196 210 202 219 217 0 293 -16 217 145 0 ?219 213 228 218 0 0 1 30
 218 146 0 217 229 214 0 +-0.00166992614 -0.0001999087599999997 0 1.836970198721
03e-016 1 0 17 219 0 308 309 293 211 216 217 0 314 +14 220 147 222 1e-008 244 17
9 224 44 221 +0 0 244 179 42 50 221 148 0 220 245 180 0 +-9.992614e-005 0.000100
09124 0.001 0 0 1 -1.83697019872103e-016 -1 0 81 1 222 149 38 220 0 0 246 181 22
3 83 3 223 1 0 0 15 224 150 0 225 220 239 17 225 0 224 231 235 226 230 228 0 0 -
18 226 151 0 252 211 273 227 ?1 29 227 152 0 226 274 212 0.00240007386 0.0017584
03635177701 0.001 16 228 153 0 ?230 217 232 229 0 0 1 30 229 154 0 228 233 218 0
 +0.00240007386 -0.001899908760000001 0.001 -1.83697019872103e-016 -1 0 17 230 0
 266 238 252 23 225 228 0 0 +17 231 0 224 84 225 80 234 232 0 79 +16 232 155 0 ?
231 228 236 233 0 0 1 31 233 156 0 232 237 229 0 +-9.992614e-005 0.00010009124 0
.001 0 0 1 -1.83697019872103e-016 -1 0 0.003000000000000001 17 234 0 248 249 90
 226 231 232 0 225 -17 235 0 224 225 55 23 238 236 0 230 -16 236 157 0 ?238 232
 241 237 0 0 1 30 237 158 0 236 242 233 0 +0.00240007386 -0.001899908760000001 0
.001 -1.83697019872103e-016 -1 0 17 238 0 266 73 230 56 235 236 0 0 +15 239 159
 0 27 220 0 17 240 0 239 33 27 29 243 241 0 0 -16 241 160 0 ?243 236 250 242 0 0
 1 31 242 161 0 241 251 237 0 +-9.992614e-005 0.00010009124 0.001 0 0 1 -1.83697
019872103e-016 -1 0 0.0025 17 243 0 257 21 37 17 240 241 0 0 +14 244 162 246 1e-
008 253 220 248 44 245 +0 0 253 220 42 51 245 163 0 244 254 221 0 +-9.992614e-00
5 0.00010009124 0.001 0 0 -1 0.003000000000000001 1.83697019872103e-016 1 0 81 1
 246 164 38 244 0 0 255 222 247 83 3 247 1 0 0 15 248 165 0 90 244 0 17 249 0 24
8 190 234 186 252 250 0 0 +16 250 166 0 ?249 241 259 251 0 0 1 30 251 167 0 250
 260 242 0 +0.00240007386 0.001758403635177701 0.001 0 0 -1 17 252 0 266 230 194
 226 249 250 0 234 -14 253 168 255 1e-008 262 244 257 44 254 +0 0 262 244 42 51
 254 169 0 253 263 245 0 +-9.992614e-005 0.00010009124 0.006 0 0 -1 0.0025 1.836
97019872103e-016 1 0 81 1 255 170 38 253 0 0 264 246 256 83 3 256 1 0 0 15 257 1
71 0 21 253 0 17 258 0 257 37 21 14 261 259 0 282 -16 259 172 0 ?261 250 275 260
 0 0 1 31 260 173 0 259 276 251 0 +-9.992614e-005 0.00010009124 0.006 0 0 1 -1.8
3697019872103e-016 -1 0 0.0025 17 261 0 271 13 282 9 258 259 0 0 +14 262 174 264
 1e-008 267 253 266 44 263 -0 0 267 253 42 50 263 175 0 262 268 254 0 +0.0024000
7386 -0.001899908760000001 0 -1 1.83697019872103e-016 0 0 -0 -1 81 1 264 176 38
 262 0 0 269 255 265 83 3 265 1 0 0 15 266 177 0 230 262 0 14 267 178 269 1e-008
 283 262 271 44 268 +0 0 283 262 42 53 268 179 0 267 284 263 0 +-9.992614e-005 0
.00010009124 0.006 0.0025 1.274654131356461e-030 6.938893903907229e-015 1 1.8369
7019872103e-016 1 -6.938893903907229e-015 81 1 269 180 38 267 0 0 285 264 270 83
 3 270 1 0 0 15 271 181 0 261 267 0 17 272 0 271 282 13 273 282 275 0 0 +18 273
 182 0 272 226 289 274 ?1 29 274 183 0 273 290 227 -9.992614e-005 0.000100091240
0000175 0.008500000000000001 16 275 184 0 ?272 259 291 276 0 0 1 134 276 185 0 2
75 292 260 0 +277 281 136 277 6 7 3 2 1 FFF1 278 279 280 45 21 278 -9.9926139999
99954e-005 0.00260009124 0.006 -9.992613999999954e-005 0.002600091240000001 0.00
6654498469497882 -9.992613999999958e-005 0.002394522024949317 0.0073089412517628
3 -9.992613999999965e-005 0.001983066614100479 0.007882975374100498 -9.992613999
999976e-005 0.001409032491762872 0.008294430784949283 -9.992613999999987e-005 0.
0007545897094978888 0.008500000000000011 -9.992614e-005 0.0001000912400000175 0.
008500000000000001 127 2 279 7 7 128 2 280 7.105427357601002e-015 1.570796326794
897 135 281 1 0 17 282 0 271 261 272 14 272 275 0 0 -14 283 186 285 1e-008 304 2
67 287 44 284 -0 0 304 267 42 50 284 187 0 283 305 268 0 +-0.00166992614 -0.0001
999087599999997 -0.005 1.83697019872103e-016 1 0 0 0 1 81 1 285 188 38 283 0 0 3
06 269 286 83 3 286 1 1 1 15 287 189 0 201 283 0 17 288 0 287 294 201 289 293 29
1 0 299 -18 289 190 0 288 273 295 290 ?1 29 290 191 0 289 296 274 -0.00166992614
 -0.0001999087599999997 -0.005 16 291 192 0 ?293 275 297 292 0 0 1 30 292 193 0
 291 298 276 0 +-0.00166992614 -0.0001999087599999997 -0.005 0 0 1 17 293 0 308
 219 315 202 288 291 0 0 +17 294 0 287 300 288 295 299 297 0 0 -18 295 194 0 303
 289 310 296 ?1 29 296 195 0 295 311 290 -0.00106992614 -0.0001999087599999998 -
0.005 16 297 196 0 ?299 291 301 298 0 0 1 30 298 197 0 297 302 292 0 +-0.0016699
2614 -0.0001999087599999997 -0.005 -1 1.83697019872103e-016 -0 17 299 0 347 318
 342 289 294 297 0 315 +17 300 0 287 201 294 197 303 301 0 0 +16 301 198 0 ?300
 297 312 302 0 0 1 30 302 199 0 301 313 298 0 +-0.00106992614 -0.000199908759999
9998 -0.005 0 0 1 17 303 0 338 339 209 295 300 301 0 342 -14 304 200 306 1e-008
 319 283 308 44 305 -0 0 319 283 42 50 305 201 0 304 320 284 0 +-0.00166992614 -
0.0001999087599999997 -0.005 1 -1.83697019872103e-016 0 0 0 1 81 1 306 202 38 30
4 0 0 321 285 307 83 3 307 1 1 1 15 308 203 0 219 304 0 17 309 0 308 315 219 310
 314 312 0 0 -18 310 204 0 330 295 325 311 ?1 29 311 205 0 310 326 296 -0.001669
92614 0.0004000912400000003 -0.005 16 312 206 0 ?314 301 316 313 0 0 1 30 313 20
7 0 312 317 302 0 +-0.00166992614 0.0004000912400000003 -0.005 0 0 1 17 314 0 32
3 215 330 211 309 312 0 0 +17 315 0 308 293 309 289 318 316 0 0 -16 316 208 0 ?3
18 312 327 317 0 0 1 30 317 209 0 316 328 313 0 +-0.00166992614 -0.0001999087599
999997 -0.005 1.83697019872103e-016 1 0 17 318 0 347 333 299 310 315 316 0 309 +
14 319 210 321 1e-008 334 304 323 44 320 -0 0 334 304 42 50 320 211 0 319 335 30
5 0 +-0.00166992614 0.0004000912400000003 -0.005 -1.83697019872103e-016 -1 0 0 -
0 -1 81 1 321 212 38 319 0 0 336 306 322 83 3 322 1 1 1 15 323 213 0 215 319 0 1
7 324 0 323 330 215 325 329 327 0 333 -18 325 214 0 324 310 0 326 ?1 29 326 215
 0 325 0 311 -0.00106992614 0.0004000912400000002 -0.005 16 327 216 0 ?329 316 3
31 328 0 0 1 30 328 217 0 327 332 317 0 +-0.00106992614 0.0004000912400000002 -0
.005 0 0 1 17 329 0 338 209 339 205 324 327 0 0 +17 330 0 323 314 324 310 333 33
1 0 318 -16 331 218 0 ?333 327 340 332 0 0 1 30 332 219 0 331 341 328 0 +-0.0016
6992614 0.0004000912400000003 -0.005 1 -1.83697019872103e-016 0 17 333 0 347 342
 318 325 330 331 0 339 +14 334 220 336 1e-008 343 319 338 44 335 -0 0 343 319 42
 50 335 221 0 334 344 320 0 +-0.00106992614 -0.0001999087599999998 -0.005 -1 2.9
9665779118558e-018 0 -2.99665779118558e-018 -1 0 81 1 336 222 38 334 0 0 345 321
 337 83 3 337 1 1 1 15 338 223 0 209 334 0 17 339 0 338 329 303 325 342 340 0 0
 -16 340 224 0 ?342 331 0 341 0 0 1 30 341 225 0 340 0 332 0 +-0.00106992614 -0.
0001999087599999998 -0.005 -2.99665779118558e-018 -1 0 17 342 0 347 299 333 295
 339 340 0 294 +14 343 226 345 1e-008 348 334 347 44 344 -0 0 348 334 42 50 344
 227 0 343 349 335 0 +-0.00106992614 -0.0001999087599999998 -0.005 0 0 1 -1.8369
7019872103e-016 -1 0 81 1 345 228 38 343 0 0 350 336 346 83 3 346 1 1 1 15 347 2
29 0 299 343 0 14 348 230 350 1e-008 0 343 352 44 349 +0 0 0 343 42 50 349 231 0
 348 0 344 0 +0.00087007386 0.0004000912399999998 -0.004 0 -0 -1 1.8369701987210
3e-016 1 0 81 1 350 232 38 348 0 0 0 345 351 83 3 351 0.843137264251709 0.815686
2854957581 0.7529411911964417 15 352 233 0 174 348 0 1 0 
